<?xml version="1.0" encoding="utf-8" standalone="no"?>
<!DOCTYPE svg PUBLIC "-//W3C//DTD SVG 1.1//EN"
  "http://www.w3.org/Graphics/SVG/1.1/DTD/svg11.dtd">
<!-- Created with matplotlib (https://matplotlib.org/) -->
<svg height="345.6pt" version="1.1" viewBox="0 0 460.8 345.6" width="460.8pt" xmlns="http://www.w3.org/2000/svg" xmlns:xlink="http://www.w3.org/1999/xlink">
 <metadata>
  <rdf:RDF xmlns:cc="http://creativecommons.org/ns#" xmlns:dc="http://purl.org/dc/elements/1.1/" xmlns:rdf="http://www.w3.org/1999/02/22-rdf-syntax-ns#">
   <cc:Work>
    <dc:type rdf:resource="http://purl.org/dc/dcmitype/StillImage"/>
    <dc:date>2021-06-20T12:16:21.923471</dc:date>
    <dc:format>image/svg+xml</dc:format>
    <dc:creator>
     <cc:Agent>
      <dc:title>Matplotlib v3.3.1, https://matplotlib.org/</dc:title>
     </cc:Agent>
    </dc:creator>
   </cc:Work>
  </rdf:RDF>
 </metadata>
 <defs>
  <style type="text/css">*{stroke-linecap:butt;stroke-linejoin:round;}</style>
 </defs>
 <g id="figure_1">
  <g id="patch_1">
   <path d="M 0 345.6 
L 460.8 345.6 
L 460.8 0 
L 0 0 
z
" style="fill:#ffffff;"/>
  </g>
  <g id="axes_1">
   <g id="patch_2">
    <path d="M 47.72 303.64 
L 450 303.64 
L 450 14.76 
L 47.72 14.76 
z
" style="fill:#ffffff;"/>
   </g>
   <g id="PolyCollection_1">
    <path clip-path="url(#pbb42326e2b)" d="M 66.005455 41.932775 
L 66.005455 44.279925 
L 68.459878 40.468971 
L 70.914301 69.776112 
L 73.368725 83.509995 
L 75.823148 98.028149 
L 78.277572 105.905558 
L 80.731995 127.975456 
L 83.186419 137.0531 
L 85.640842 174.233233 
L 88.095265 178.521391 
L 90.549689 207.298113 
L 93.004112 210.630066 
L 95.458536 208.679437 
L 97.912959 235.722876 
L 100.367383 226.024225 
L 102.821806 227.877668 
L 105.276229 246.147331 
L 107.730653 241.498055 
L 110.185076 230.76173 
L 112.6395 246.712924 
L 115.093923 237.539962 
L 117.548347 244.458549 
L 120.00277 249.198392 
L 122.457193 249.507133 
L 124.911617 263.793625 
L 127.36604 261.135709 
L 129.820464 257.908673 
L 132.274887 252.159443 
L 134.729311 264.121004 
L 137.183734 242.629194 
L 139.638157 262.066854 
L 142.092581 256.18221 
L 144.547004 260.751913 
L 147.001428 263.098489 
L 149.455851 262.64698 
L 151.910275 246.710885 
L 154.364698 271.92823 
L 156.819121 258.890854 
L 159.273545 258.966937 
L 161.727968 260.550491 
L 164.182392 258.989209 
L 166.636815 253.344319 
L 169.091239 269.159221 
L 171.545662 269.204499 
L 174.000085 265.09261 
L 176.454509 261.499218 
L 178.908932 271.393878 
L 181.363356 269.773453 
L 183.817779 262.819092 
L 186.272203 275.796661 
L 188.726626 271.284319 
L 191.181049 274.258743 
L 193.635473 259.375998 
L 196.089896 272.354395 
L 198.54432 275.983483 
L 200.998743 283.576745 
L 203.453167 281.939952 
L 205.90759 268.994335 
L 208.362013 277.648342 
L 210.816437 279.610501 
L 213.27086 276.207536 
L 215.725284 277.737973 
L 218.179707 284.805397 
L 220.634131 275.210282 
L 223.088554 278.668346 
L 225.542977 274.30302 
L 227.997401 282.684216 
L 230.451824 259.882522 
L 232.906248 281.828597 
L 235.360671 284.828666 
L 237.815095 274.406612 
L 240.269518 281.540252 
L 242.723941 276.590152 
L 245.178365 279.814992 
L 247.632788 287.426138 
L 250.087212 283.271786 
L 252.541635 284.551783 
L 254.996059 282.60832 
L 257.450482 280.196922 
L 259.904905 282.359966 
L 262.359329 283.050097 
L 264.813752 290.897377 
L 267.268176 292.532351 
L 269.722599 280.342028 
L 272.177023 292.293434 
L 274.631446 283.765379 
L 277.085869 288.677288 
L 279.540293 295.600027 
L 281.994716 284.249217 
L 284.44914 291.804664 
L 286.903563 282.728809 
L 289.357987 285.161908 
L 291.81241 294.292969 
L 294.266833 290.863766 
L 296.721257 293.933673 
L 299.17568 293.084159 
L 301.630104 289.399575 
L 304.084527 289.439074 
L 306.538951 289.41922 
L 308.993374 294.207396 
L 311.447797 292.086519 
L 313.902221 297.897073 
L 316.356644 296.053671 
L 318.811068 293.184097 
L 321.265491 297.298224 
L 323.719915 300.481312 
L 326.174338 301.264745 
L 328.628761 298.633936 
L 331.083185 298.717032 
L 333.537608 295.261343 
L 335.992032 301.834788 
L 338.446455 301.594321 
L 340.900879 301.897632 
L 343.355302 300.994205 
L 345.809725 300.266258 
L 348.264149 299.558236 
L 350.718572 302.321665 
L 353.172996 296.844263 
L 355.627419 303.432475 
L 358.081843 302.632279 
L 360.536266 302.57016 
L 362.990689 302.318911 
L 365.445113 303.140085 
L 367.899536 303.053853 
L 370.35396 303.113452 
L 372.808383 303.258262 
L 375.262807 303.356742 
L 377.71723 303.594301 
L 380.171653 303.115037 
L 382.626077 303.43061 
L 385.0805 303.384614 
L 387.534924 303.462819 
L 389.989347 303.711556 
L 392.443771 303.587699 
L 394.898194 303.548813 
L 397.352617 303.558449 
L 399.807041 303.421431 
L 402.261464 303.564705 
L 404.715888 303.747305 
L 407.170311 303.487575 
L 409.624735 303.638258 
L 412.079158 303.519462 
L 414.533581 303.526739 
L 416.988005 303.648867 
L 419.442428 303.556265 
L 421.896852 303.60909 
L 424.351275 303.528782 
L 426.805699 303.548821 
L 429.260122 303.450701 
L 431.714545 303.608558 
L 431.714545 303.063695 
L 431.714545 303.063695 
L 429.260122 303.278965 
L 426.805699 303.460949 
L 424.351275 303.413634 
L 421.896852 302.931232 
L 419.442428 303.336584 
L 416.988005 303.227496 
L 414.533581 303.470005 
L 412.079158 302.993862 
L 409.624735 302.241775 
L 407.170311 303.261597 
L 404.715888 302.510136 
L 402.261464 302.666134 
L 399.807041 302.998444 
L 397.352617 301.896832 
L 394.898194 303.239435 
L 392.443771 301.778365 
L 389.989347 302.087634 
L 387.534924 302.306926 
L 385.0805 303.1057 
L 382.626077 302.350067 
L 380.171653 302.033979 
L 377.71723 302.379268 
L 375.262807 302.014877 
L 372.808383 302.299593 
L 370.35396 301.733972 
L 367.899536 301.600238 
L 365.445113 301.298985 
L 362.990689 301.055637 
L 360.536266 296.845688 
L 358.081843 298.968859 
L 355.627419 301.147121 
L 353.172996 292.911102 
L 350.718572 300.933692 
L 348.264149 291.64294 
L 345.809725 297.187167 
L 343.355302 296.39363 
L 340.900879 300.353768 
L 338.446455 298.899186 
L 335.992032 298.802418 
L 333.537608 286.744478 
L 331.083185 291.839524 
L 328.628761 291.349939 
L 326.174338 297.62638 
L 323.719915 294.622848 
L 321.265491 288.937827 
L 318.811068 285.676205 
L 316.356644 290.268424 
L 313.902221 293.937439 
L 311.447797 290.350929 
L 308.993374 289.505187 
L 306.538951 284.230521 
L 304.084527 285.889218 
L 301.630104 283.048381 
L 299.17568 287.849647 
L 296.721257 289.660424 
L 294.266833 284.049825 
L 291.81241 289.501426 
L 289.357987 278.882009 
L 286.903563 272.406094 
L 284.44914 288.079694 
L 281.994716 277.881999 
L 279.540293 290.705141 
L 277.085869 279.57288 
L 274.631446 274.523507 
L 272.177023 285.068867 
L 269.722599 273.574163 
L 267.268176 285.075385 
L 264.813752 286.29848 
L 262.359329 276.880665 
L 259.904905 268.3966 
L 257.450482 275.564264 
L 254.996059 278.727348 
L 252.541635 274.369028 
L 250.087212 277.781772 
L 247.632788 280.330339 
L 245.178365 270.614326 
L 242.723941 272.191648 
L 240.269518 270.418099 
L 237.815095 267.429655 
L 235.360671 274.399644 
L 232.906248 271.844979 
L 230.451824 256.129453 
L 227.997401 277.449665 
L 225.542977 264.571099 
L 223.088554 273.290006 
L 220.634131 270.050793 
L 218.179707 276.022473 
L 215.725284 274.022902 
L 213.27086 270.582572 
L 210.816437 270.299736 
L 208.362013 265.519481 
L 205.90759 263.944202 
L 203.453167 270.768811 
L 200.998743 275.564111 
L 198.54432 264.871043 
L 196.089896 263.365741 
L 193.635473 251.97553 
L 191.181049 269.642565 
L 188.726626 266.122831 
L 186.272203 270.338953 
L 183.817779 251.624355 
L 181.363356 259.915184 
L 178.908932 263.192179 
L 176.454509 254.659453 
L 174.000085 255.88449 
L 171.545662 260.439001 
L 169.091239 259.987766 
L 166.636815 245.504122 
L 164.182392 250.624526 
L 161.727968 256.939737 
L 159.273545 253.039084 
L 156.819121 251.241962 
L 154.364698 267.589098 
L 151.910275 239.453918 
L 149.455851 249.641151 
L 147.001428 260.135486 
L 144.547004 255.542172 
L 142.092581 253.284827 
L 139.638157 254.599615 
L 137.183734 237.611312 
L 134.729311 261.324709 
L 132.274887 240.696995 
L 129.820464 251.874327 
L 127.36604 253.917095 
L 124.911617 259.914294 
L 122.457193 241.645364 
L 120.00277 247.844549 
L 117.548347 237.406907 
L 115.093923 226.699301 
L 112.6395 238.763532 
L 110.185076 224.224345 
L 107.730653 231.610727 
L 105.276229 238.97931 
L 102.821806 219.006226 
L 100.367383 217.04555 
L 97.912959 228.358405 
L 95.458536 203.583995 
L 93.004112 197.638697 
L 90.549689 192.845899 
L 88.095265 168.495784 
L 85.640842 162.35718 
L 83.186419 123.661175 
L 80.731995 115.767119 
L 78.277572 97.393817 
L 75.823148 91.368876 
L 73.368725 74.381055 
L 70.914301 57.872813 
L 68.459878 34.188529 
L 66.005455 41.932775 
z
" style="fill:#1f77b4;fill-opacity:0.25;"/>
   </g>
   <g id="PolyCollection_2">
    <path clip-path="url(#pbb42326e2b)" d="M 66.005455 41.166244 
L 66.005455 46.220031 
L 68.459878 55.707316 
L 70.914301 63.060991 
L 73.368725 94.655574 
L 75.823148 121.691653 
L 78.277572 125.757527 
L 80.731995 150.162748 
L 83.186419 167.985443 
L 85.640842 202.731348 
L 88.095265 218.52169 
L 90.549689 221.907183 
L 93.004112 229.39566 
L 95.458536 232.952393 
L 97.912959 234.984175 
L 100.367383 247.337955 
L 102.821806 240.646882 
L 105.276229 247.49331 
L 107.730653 247.113509 
L 110.185076 258.565112 
L 112.6395 254.001745 
L 115.093923 263.691381 
L 117.548347 262.535845 
L 120.00277 258.146286 
L 122.457193 264.820182 
L 124.911617 266.348308 
L 127.36604 264.423754 
L 129.820464 263.614462 
L 132.274887 266.326146 
L 134.729311 269.455449 
L 137.183734 272.291822 
L 139.638157 271.502006 
L 142.092581 274.171744 
L 144.547004 270.355127 
L 147.001428 273.926769 
L 149.455851 274.053357 
L 151.910275 274.870687 
L 154.364698 274.659127 
L 156.819121 274.021901 
L 159.273545 267.400733 
L 161.727968 278.811079 
L 164.182392 274.915066 
L 166.636815 274.04463 
L 169.091239 274.274655 
L 171.545662 279.202951 
L 174.000085 282.978366 
L 176.454509 281.802201 
L 178.908932 279.448353 
L 181.363356 277.75424 
L 183.817779 280.693695 
L 186.272203 276.479114 
L 188.726626 282.121891 
L 191.181049 282.828814 
L 193.635473 281.915707 
L 196.089896 284.953443 
L 198.54432 284.380293 
L 200.998743 284.395848 
L 203.453167 280.451852 
L 205.90759 286.570162 
L 208.362013 280.471259 
L 210.816437 282.675349 
L 213.27086 280.908479 
L 215.725284 281.488037 
L 218.179707 282.014734 
L 220.634131 283.719867 
L 223.088554 284.894603 
L 225.542977 284.402044 
L 227.997401 286.473073 
L 230.451824 284.289004 
L 232.906248 285.52714 
L 235.360671 284.260536 
L 237.815095 285.027531 
L 240.269518 290.839612 
L 242.723941 289.690348 
L 245.178365 290.774818 
L 247.632788 292.051956 
L 250.087212 288.385779 
L 252.541635 288.745522 
L 254.996059 289.215478 
L 257.450482 293.028928 
L 259.904905 290.457518 
L 262.359329 293.362305 
L 264.813752 293.442235 
L 267.268176 292.488268 
L 269.722599 293.899777 
L 272.177023 291.887656 
L 274.631446 291.295863 
L 277.085869 293.136917 
L 279.540293 293.321507 
L 281.994716 290.118137 
L 284.44914 297.235448 
L 286.903563 295.752356 
L 289.357987 293.032986 
L 291.81241 296.579652 
L 294.266833 296.71732 
L 296.721257 296.099636 
L 299.17568 296.867241 
L 301.630104 297.614404 
L 304.084527 298.460229 
L 306.538951 299.631711 
L 308.993374 294.722338 
L 311.447797 296.849079 
L 313.902221 297.910291 
L 316.356644 300.174241 
L 318.811068 299.45093 
L 321.265491 300.110768 
L 323.719915 298.760827 
L 326.174338 299.800506 
L 328.628761 299.107246 
L 331.083185 301.518726 
L 333.537608 300.244529 
L 335.992032 300.165051 
L 338.446455 301.042347 
L 340.900879 300.747663 
L 343.355302 301.85836 
L 345.809725 302.371456 
L 348.264149 301.74954 
L 350.718572 301.90594 
L 353.172996 301.871411 
L 355.627419 302.789379 
L 358.081843 302.259944 
L 360.536266 303.284554 
L 362.990689 303.009683 
L 365.445113 303.917441 
L 367.899536 303.148023 
L 370.35396 303.030935 
L 372.808383 303.402574 
L 375.262807 303.370313 
L 377.71723 303.333386 
L 380.171653 303.14045 
L 382.626077 303.456812 
L 385.0805 303.627142 
L 387.534924 303.739197 
L 389.989347 303.639734 
L 392.443771 303.523355 
L 394.898194 303.579125 
L 397.352617 303.49357 
L 399.807041 303.923217 
L 402.261464 303.937726 
L 404.715888 303.521538 
L 407.170311 303.526946 
L 409.624735 303.52362 
L 412.079158 303.551348 
L 414.533581 303.542713 
L 416.988005 303.802248 
L 419.442428 303.536701 
L 421.896852 303.527168 
L 424.351275 303.547169 
L 426.805699 303.653531 
L 429.260122 303.614575 
L 431.714545 303.549434 
L 431.714545 303.058044 
L 431.714545 303.058044 
L 429.260122 302.621929 
L 426.805699 302.044122 
L 424.351275 303.404592 
L 421.896852 303.372204 
L 419.442428 303.460066 
L 416.988005 302.568324 
L 414.533581 303.282143 
L 412.079158 303.491327 
L 409.624735 303.422345 
L 407.170311 303.39634 
L 404.715888 303.419049 
L 402.261464 302.012833 
L 399.807041 302.135206 
L 397.352617 303.312706 
L 394.898194 303.274449 
L 392.443771 302.896564 
L 389.989347 303.145341 
L 387.534924 301.501725 
L 385.0805 301.97607 
L 382.626077 303.269724 
L 380.171653 301.303998 
L 377.71723 301.802715 
L 375.262807 302.786759 
L 372.808383 303.002666 
L 370.35396 301.78766 
L 367.899536 300.780076 
L 365.445113 300.774646 
L 362.990689 300.296895 
L 360.536266 301.010729 
L 358.081843 300.255581 
L 355.627419 300.779825 
L 353.172996 299.751591 
L 350.718572 299.864816 
L 348.264149 299.165367 
L 345.809725 301.076618 
L 343.355302 300.559133 
L 340.900879 297.561964 
L 338.446455 297.329344 
L 335.992032 295.752994 
L 333.537608 294.030229 
L 331.083185 299.554868 
L 328.628761 294.965804 
L 326.174338 295.910893 
L 323.719915 294.443326 
L 321.265491 296.903977 
L 318.811068 295.018484 
L 316.356644 296.978738 
L 313.902221 293.989106 
L 311.447797 292.223582 
L 308.993374 288.902791 
L 306.538951 295.70942 
L 304.084527 288.947986 
L 301.630104 291.304507 
L 299.17568 293.302825 
L 296.721257 290.841689 
L 294.266833 285.64819 
L 291.81241 293.522708 
L 289.357987 287.522793 
L 286.903563 288.398907 
L 284.44914 288.777736 
L 281.994716 282.005393 
L 279.540293 286.828034 
L 277.085869 284.606231 
L 274.631446 287.395173 
L 272.177023 286.247624 
L 269.722599 287.113019 
L 267.268176 289.534479 
L 264.813752 283.996235 
L 262.359329 291.458968 
L 259.904905 288.464847 
L 257.450482 284.954013 
L 254.996059 284.205755 
L 252.541635 285.640525 
L 250.087212 282.279245 
L 247.632788 285.183395 
L 245.178365 281.543367 
L 242.723941 285.31916 
L 240.269518 276.076179 
L 237.815095 278.344966 
L 235.360671 277.413663 
L 232.906248 274.115871 
L 230.451824 276.674279 
L 227.997401 285.108807 
L 225.542977 280.69132 
L 223.088554 274.844326 
L 220.634131 277.886625 
L 218.179707 275.512456 
L 215.725284 271.64389 
L 213.27086 266.158096 
L 210.816437 277.294909 
L 208.362013 271.148562 
L 205.90759 277.92513 
L 203.453167 268.092976 
L 200.998743 277.520964 
L 198.54432 266.274713 
L 196.089896 277.730707 
L 193.635473 273.269976 
L 191.181049 268.085733 
L 188.726626 268.72495 
L 186.272203 273.177225 
L 183.817779 269.318102 
L 181.363356 271.631274 
L 178.908932 269.987941 
L 176.454509 274.46114 
L 174.000085 275.208961 
L 171.545662 268.061101 
L 169.091239 267.352852 
L 166.636815 266.409301 
L 164.182392 267.491062 
L 161.727968 271.262781 
L 159.273545 261.520567 
L 156.819121 265.34873 
L 154.364698 269.845895 
L 151.910275 263.134535 
L 149.455851 262.016594 
L 147.001428 261.708734 
L 144.547004 261.06002 
L 142.092581 265.007053 
L 139.638157 264.404322 
L 137.183734 263.648359 
L 134.729311 260.966673 
L 132.274887 257.291498 
L 129.820464 255.873101 
L 127.36604 261.518471 
L 124.911617 257.923829 
L 122.457193 247.298683 
L 120.00277 252.381483 
L 117.548347 251.343383 
L 115.093923 248.890144 
L 112.6395 247.002011 
L 110.185076 241.423051 
L 107.730653 239.513954 
L 105.276229 239.348555 
L 102.821806 234.380243 
L 100.367383 228.975589 
L 97.912959 221.401162 
L 95.458536 214.766545 
L 93.004112 215.479615 
L 90.549689 194.666879 
L 88.095265 164.537778 
L 85.640842 140.020333 
L 83.186419 116.877394 
L 80.731995 95.746427 
L 78.277572 69.101136 
L 75.823148 64.410334 
L 73.368725 55.968339 
L 70.914301 40.394234 
L 68.459878 39.623159 
L 66.005455 41.166244 
z
" style="fill:#ff7f0e;fill-opacity:0.25;"/>
   </g>
   <g id="PolyCollection_3">
    <path clip-path="url(#pbb42326e2b)" d="M 66.005455 14.702146 
L 66.005455 36.664404 
L 68.459878 73.937611 
L 70.914301 89.87592 
L 73.368725 111.47425 
L 75.823148 141.735598 
L 78.277572 161.912664 
L 80.731995 199.097451 
L 83.186419 207.116097 
L 85.640842 225.702976 
L 88.095265 235.792058 
L 90.549689 232.654088 
L 93.004112 246.107106 
L 95.458536 251.333952 
L 97.912959 251.121464 
L 100.367383 260.032923 
L 102.821806 261.236727 
L 105.276229 258.546749 
L 107.730653 262.946749 
L 110.185076 263.248595 
L 112.6395 266.189251 
L 115.093923 264.350001 
L 117.548347 264.092519 
L 120.00277 272.778011 
L 122.457193 269.593924 
L 124.911617 270.148145 
L 127.36604 275.51332 
L 129.820464 275.252602 
L 132.274887 267.682174 
L 134.729311 275.520766 
L 137.183734 276.368604 
L 139.638157 273.693171 
L 142.092581 277.407493 
L 144.547004 272.771248 
L 147.001428 272.566344 
L 149.455851 275.369443 
L 151.910275 271.605859 
L 154.364698 275.037443 
L 156.819121 274.792202 
L 159.273545 277.863825 
L 161.727968 281.50498 
L 164.182392 275.638163 
L 166.636815 274.874345 
L 169.091239 274.006787 
L 171.545662 277.138703 
L 174.000085 278.476228 
L 176.454509 281.482745 
L 178.908932 282.660009 
L 181.363356 280.416217 
L 183.817779 282.352729 
L 186.272203 284.068755 
L 188.726626 283.196162 
L 191.181049 288.843573 
L 193.635473 285.220357 
L 196.089896 286.151194 
L 198.54432 283.815407 
L 200.998743 286.169853 
L 203.453167 283.018622 
L 205.90759 284.495801 
L 208.362013 287.171776 
L 210.816437 287.943966 
L 213.27086 289.122406 
L 215.725284 284.690738 
L 218.179707 287.642394 
L 220.634131 282.36165 
L 223.088554 283.148184 
L 225.542977 285.740439 
L 227.997401 287.157827 
L 230.451824 289.493953 
L 232.906248 284.646997 
L 235.360671 283.698692 
L 237.815095 286.004142 
L 240.269518 293.910538 
L 242.723941 290.315004 
L 245.178365 286.993778 
L 247.632788 293.011316 
L 250.087212 292.982954 
L 252.541635 289.239413 
L 254.996059 293.29986 
L 257.450482 289.169854 
L 259.904905 293.638938 
L 262.359329 293.203052 
L 264.813752 291.519394 
L 267.268176 288.533918 
L 269.722599 291.857217 
L 272.177023 288.780228 
L 274.631446 293.645977 
L 277.085869 292.768379 
L 279.540293 293.118497 
L 281.994716 294.84832 
L 284.44914 292.928608 
L 286.903563 295.773921 
L 289.357987 295.402621 
L 291.81241 293.99317 
L 294.266833 294.450777 
L 296.721257 292.597481 
L 299.17568 296.265713 
L 301.630104 297.955998 
L 304.084527 295.433393 
L 306.538951 299.658815 
L 308.993374 298.143983 
L 311.447797 297.750677 
L 313.902221 298.699608 
L 316.356644 299.630212 
L 318.811068 298.25118 
L 321.265491 300.999553 
L 323.719915 298.138867 
L 326.174338 299.190698 
L 328.628761 299.146524 
L 331.083185 300.086964 
L 333.537608 299.950779 
L 335.992032 301.377636 
L 338.446455 301.675063 
L 340.900879 301.673356 
L 343.355302 301.090791 
L 345.809725 300.764485 
L 348.264149 301.358377 
L 350.718572 302.337291 
L 353.172996 302.414586 
L 355.627419 302.656346 
L 358.081843 302.410851 
L 360.536266 302.933324 
L 362.990689 303.031314 
L 365.445113 302.838076 
L 367.899536 303.357284 
L 370.35396 302.846226 
L 372.808383 303.219587 
L 375.262807 303.045615 
L 377.71723 303.274102 
L 380.171653 303.305997 
L 382.626077 303.387792 
L 385.0805 303.298428 
L 387.534924 303.332219 
L 389.989347 303.770979 
L 392.443771 303.43451 
L 394.898194 303.474171 
L 397.352617 303.442587 
L 399.807041 303.460798 
L 402.261464 303.736071 
L 404.715888 303.508843 
L 407.170311 303.433406 
L 409.624735 303.458187 
L 412.079158 303.410759 
L 414.533581 303.55057 
L 416.988005 303.563898 
L 419.442428 303.465704 
L 421.896852 303.444054 
L 424.351275 303.872047 
L 426.805699 303.537628 
L 429.260122 303.45431 
L 431.714545 303.622884 
L 431.714545 302.566631 
L 431.714545 302.566631 
L 429.260122 303.408873 
L 426.805699 303.020392 
L 424.351275 301.921104 
L 421.896852 303.088356 
L 419.442428 303.361555 
L 416.988005 302.952159 
L 414.533581 302.368605 
L 412.079158 303.360122 
L 409.624735 303.146735 
L 407.170311 303.391472 
L 404.715888 302.98059 
L 402.261464 302.3715 
L 399.807041 303.406265 
L 397.352617 303.320933 
L 394.898194 303.164692 
L 392.443771 302.66257 
L 389.989347 302.049722 
L 387.534924 302.50153 
L 385.0805 302.244043 
L 382.626077 301.127007 
L 380.171653 302.550056 
L 377.71723 302.765586 
L 375.262807 302.501 
L 372.808383 301.104436 
L 370.35396 301.213495 
L 367.899536 301.480531 
L 365.445113 298.460148 
L 362.990689 300.761638 
L 360.536266 300.981816 
L 358.081843 299.415269 
L 355.627419 300.438209 
L 353.172996 300.33368 
L 350.718572 300.293547 
L 348.264149 300.554492 
L 345.809725 299.286462 
L 343.355302 299.024337 
L 340.900879 297.038277 
L 338.446455 296.403235 
L 335.992032 298.308685 
L 333.537608 297.364413 
L 331.083185 296.599123 
L 328.628761 293.568169 
L 326.174338 297.733066 
L 323.719915 296.536487 
L 321.265491 298.409596 
L 318.811068 295.314072 
L 316.356644 291.190822 
L 313.902221 292.432452 
L 311.447797 293.947011 
L 308.993374 295.206867 
L 306.538951 294.488994 
L 304.084527 287.063298 
L 301.630104 293.312885 
L 299.17568 290.863214 
L 296.721257 287.944193 
L 294.266833 289.749855 
L 291.81241 288.03522 
L 289.357987 290.992821 
L 286.903563 289.56079 
L 284.44914 289.796592 
L 281.994716 293.761682 
L 279.540293 287.795561 
L 277.085869 283.770162 
L 274.631446 285.282031 
L 272.177023 284.889261 
L 269.722599 283.589562 
L 267.268176 283.970459 
L 264.813752 281.422253 
L 262.359329 286.56 
L 259.904905 286.022554 
L 257.450482 281.072006 
L 254.996059 285.281154 
L 252.541635 283.693771 
L 250.087212 284.734805 
L 247.632788 286.935107 
L 245.178365 285.74475 
L 242.723941 279.486766 
L 240.269518 286.380058 
L 237.815095 280.076605 
L 235.360671 281.62036 
L 232.906248 276.163946 
L 230.451824 280.412197 
L 227.997401 282.900662 
L 225.542977 281.451819 
L 223.088554 276.173222 
L 220.634131 278.725761 
L 218.179707 276.435376 
L 215.725284 279.855334 
L 213.27086 276.622631 
L 210.816437 279.485264 
L 208.362013 277.111934 
L 205.90759 280.439582 
L 203.453167 279.580895 
L 200.998743 278.669613 
L 198.54432 274.857148 
L 196.089896 276.831991 
L 193.635473 278.705074 
L 191.181049 274.675621 
L 188.726626 272.55374 
L 186.272203 274.468387 
L 183.817779 274.982628 
L 181.363356 272.963966 
L 178.908932 276.791168 
L 176.454509 271.835373 
L 174.000085 274.599277 
L 171.545662 273.832266 
L 169.091239 269.776035 
L 166.636815 268.158066 
L 164.182392 264.516732 
L 161.727968 276.129412 
L 159.273545 264.81877 
L 156.819121 267.896036 
L 154.364698 268.954139 
L 151.910275 266.162391 
L 149.455851 268.921176 
L 147.001428 265.03264 
L 144.547004 269.99598 
L 142.092581 267.627894 
L 139.638157 262.500908 
L 137.183734 262.759414 
L 134.729311 268.436964 
L 132.274887 264.015082 
L 129.820464 268.050634 
L 127.36604 262.604745 
L 124.911617 263.783417 
L 122.457193 261.381132 
L 120.00277 261.881394 
L 117.548347 262.007687 
L 115.093923 254.990865 
L 112.6395 257.191421 
L 110.185076 251.048155 
L 107.730653 248.867439 
L 105.276229 247.975066 
L 102.821806 252.360392 
L 100.367383 235.294793 
L 97.912959 241.644698 
L 95.458536 242.707345 
L 93.004112 233.174228 
L 90.549689 222.783362 
L 88.095265 218.96833 
L 85.640842 213.19158 
L 83.186419 188.356184 
L 80.731995 183.104406 
L 78.277572 149.445886 
L 75.823148 121.145277 
L 73.368725 102.071338 
L 70.914301 78.351617 
L 68.459878 47.256652 
L 66.005455 14.702146 
z
" style="fill:#2ca02c;fill-opacity:0.25;"/>
   </g>
   <g id="matplotlib.axis_1">
    <g id="xtick_1">
     <g id="line2d_1">
      <defs>
       <path d="M 0 0 
L 0 3.5 
" id="m65d4bbc65f" style="stroke:#000000;stroke-width:0.8;"/>
      </defs>
      <g>
       <use style="stroke:#000000;stroke-width:0.8;" x="66.005455" xlink:href="#m65d4bbc65f" y="303.64"/>
      </g>
     </g>
     <g id="text_1">
      <!-- 0 -->
      <g transform="translate(62.824205 318.238437)scale(0.1 -0.1)">
       <defs>
        <path d="M 31.78125 66.40625 
Q 24.171875 66.40625 20.328125 58.90625 
Q 16.5 51.421875 16.5 36.375 
Q 16.5 21.390625 20.328125 13.890625 
Q 24.171875 6.390625 31.78125 6.390625 
Q 39.453125 6.390625 43.28125 13.890625 
Q 47.125 21.390625 47.125 36.375 
Q 47.125 51.421875 43.28125 58.90625 
Q 39.453125 66.40625 31.78125 66.40625 
z
M 31.78125 74.21875 
Q 44.046875 74.21875 50.515625 64.515625 
Q 56.984375 54.828125 56.984375 36.375 
Q 56.984375 17.96875 50.515625 8.265625 
Q 44.046875 -1.421875 31.78125 -1.421875 
Q 19.53125 -1.421875 13.0625 8.265625 
Q 6.59375 17.96875 6.59375 36.375 
Q 6.59375 54.828125 13.0625 64.515625 
Q 19.53125 74.21875 31.78125 74.21875 
z
" id="DejaVuSans-48"/>
       </defs>
       <use xlink:href="#DejaVuSans-48"/>
      </g>
     </g>
    </g>
    <g id="xtick_2">
     <g id="line2d_2">
      <g>
       <use style="stroke:#000000;stroke-width:0.8;" x="115.093923" xlink:href="#m65d4bbc65f" y="303.64"/>
      </g>
     </g>
     <g id="text_2">
      <!-- 20 -->
      <g transform="translate(108.731423 318.238437)scale(0.1 -0.1)">
       <defs>
        <path d="M 19.1875 8.296875 
L 53.609375 8.296875 
L 53.609375 0 
L 7.328125 0 
L 7.328125 8.296875 
Q 12.9375 14.109375 22.625 23.890625 
Q 32.328125 33.6875 34.8125 36.53125 
Q 39.546875 41.84375 41.421875 45.53125 
Q 43.3125 49.21875 43.3125 52.78125 
Q 43.3125 58.59375 39.234375 62.25 
Q 35.15625 65.921875 28.609375 65.921875 
Q 23.96875 65.921875 18.8125 64.3125 
Q 13.671875 62.703125 7.8125 59.421875 
L 7.8125 69.390625 
Q 13.765625 71.78125 18.9375 73 
Q 24.125 74.21875 28.421875 74.21875 
Q 39.75 74.21875 46.484375 68.546875 
Q 53.21875 62.890625 53.21875 53.421875 
Q 53.21875 48.921875 51.53125 44.890625 
Q 49.859375 40.875 45.40625 35.40625 
Q 44.1875 33.984375 37.640625 27.21875 
Q 31.109375 20.453125 19.1875 8.296875 
z
" id="DejaVuSans-50"/>
       </defs>
       <use xlink:href="#DejaVuSans-50"/>
       <use x="63.623047" xlink:href="#DejaVuSans-48"/>
      </g>
     </g>
    </g>
    <g id="xtick_3">
     <g id="line2d_3">
      <g>
       <use style="stroke:#000000;stroke-width:0.8;" x="164.182392" xlink:href="#m65d4bbc65f" y="303.64"/>
      </g>
     </g>
     <g id="text_3">
      <!-- 40 -->
      <g transform="translate(157.819892 318.238437)scale(0.1 -0.1)">
       <defs>
        <path d="M 37.796875 64.3125 
L 12.890625 25.390625 
L 37.796875 25.390625 
z
M 35.203125 72.90625 
L 47.609375 72.90625 
L 47.609375 25.390625 
L 58.015625 25.390625 
L 58.015625 17.1875 
L 47.609375 17.1875 
L 47.609375 0 
L 37.796875 0 
L 37.796875 17.1875 
L 4.890625 17.1875 
L 4.890625 26.703125 
z
" id="DejaVuSans-52"/>
       </defs>
       <use xlink:href="#DejaVuSans-52"/>
       <use x="63.623047" xlink:href="#DejaVuSans-48"/>
      </g>
     </g>
    </g>
    <g id="xtick_4">
     <g id="line2d_4">
      <g>
       <use style="stroke:#000000;stroke-width:0.8;" x="213.27086" xlink:href="#m65d4bbc65f" y="303.64"/>
      </g>
     </g>
     <g id="text_4">
      <!-- 60 -->
      <g transform="translate(206.90836 318.238437)scale(0.1 -0.1)">
       <defs>
        <path d="M 33.015625 40.375 
Q 26.375 40.375 22.484375 35.828125 
Q 18.609375 31.296875 18.609375 23.390625 
Q 18.609375 15.53125 22.484375 10.953125 
Q 26.375 6.390625 33.015625 6.390625 
Q 39.65625 6.390625 43.53125 10.953125 
Q 47.40625 15.53125 47.40625 23.390625 
Q 47.40625 31.296875 43.53125 35.828125 
Q 39.65625 40.375 33.015625 40.375 
z
M 52.59375 71.296875 
L 52.59375 62.3125 
Q 48.875 64.0625 45.09375 64.984375 
Q 41.3125 65.921875 37.59375 65.921875 
Q 27.828125 65.921875 22.671875 59.328125 
Q 17.53125 52.734375 16.796875 39.40625 
Q 19.671875 43.65625 24.015625 45.921875 
Q 28.375 48.1875 33.59375 48.1875 
Q 44.578125 48.1875 50.953125 41.515625 
Q 57.328125 34.859375 57.328125 23.390625 
Q 57.328125 12.15625 50.6875 5.359375 
Q 44.046875 -1.421875 33.015625 -1.421875 
Q 20.359375 -1.421875 13.671875 8.265625 
Q 6.984375 17.96875 6.984375 36.375 
Q 6.984375 53.65625 15.1875 63.9375 
Q 23.390625 74.21875 37.203125 74.21875 
Q 40.921875 74.21875 44.703125 73.484375 
Q 48.484375 72.75 52.59375 71.296875 
z
" id="DejaVuSans-54"/>
       </defs>
       <use xlink:href="#DejaVuSans-54"/>
       <use x="63.623047" xlink:href="#DejaVuSans-48"/>
      </g>
     </g>
    </g>
    <g id="xtick_5">
     <g id="line2d_5">
      <g>
       <use style="stroke:#000000;stroke-width:0.8;" x="262.359329" xlink:href="#m65d4bbc65f" y="303.64"/>
      </g>
     </g>
     <g id="text_5">
      <!-- 80 -->
      <g transform="translate(255.996829 318.238437)scale(0.1 -0.1)">
       <defs>
        <path d="M 31.78125 34.625 
Q 24.75 34.625 20.71875 30.859375 
Q 16.703125 27.09375 16.703125 20.515625 
Q 16.703125 13.921875 20.71875 10.15625 
Q 24.75 6.390625 31.78125 6.390625 
Q 38.8125 6.390625 42.859375 10.171875 
Q 46.921875 13.96875 46.921875 20.515625 
Q 46.921875 27.09375 42.890625 30.859375 
Q 38.875 34.625 31.78125 34.625 
z
M 21.921875 38.8125 
Q 15.578125 40.375 12.03125 44.71875 
Q 8.5 49.078125 8.5 55.328125 
Q 8.5 64.0625 14.71875 69.140625 
Q 20.953125 74.21875 31.78125 74.21875 
Q 42.671875 74.21875 48.875 69.140625 
Q 55.078125 64.0625 55.078125 55.328125 
Q 55.078125 49.078125 51.53125 44.71875 
Q 48 40.375 41.703125 38.8125 
Q 48.828125 37.15625 52.796875 32.3125 
Q 56.78125 27.484375 56.78125 20.515625 
Q 56.78125 9.90625 50.3125 4.234375 
Q 43.84375 -1.421875 31.78125 -1.421875 
Q 19.734375 -1.421875 13.25 4.234375 
Q 6.78125 9.90625 6.78125 20.515625 
Q 6.78125 27.484375 10.78125 32.3125 
Q 14.796875 37.15625 21.921875 38.8125 
z
M 18.3125 54.390625 
Q 18.3125 48.734375 21.84375 45.5625 
Q 25.390625 42.390625 31.78125 42.390625 
Q 38.140625 42.390625 41.71875 45.5625 
Q 45.3125 48.734375 45.3125 54.390625 
Q 45.3125 60.0625 41.71875 63.234375 
Q 38.140625 66.40625 31.78125 66.40625 
Q 25.390625 66.40625 21.84375 63.234375 
Q 18.3125 60.0625 18.3125 54.390625 
z
" id="DejaVuSans-56"/>
       </defs>
       <use xlink:href="#DejaVuSans-56"/>
       <use x="63.623047" xlink:href="#DejaVuSans-48"/>
      </g>
     </g>
    </g>
    <g id="xtick_6">
     <g id="line2d_6">
      <g>
       <use style="stroke:#000000;stroke-width:0.8;" x="311.447797" xlink:href="#m65d4bbc65f" y="303.64"/>
      </g>
     </g>
     <g id="text_6">
      <!-- 100 -->
      <g transform="translate(301.904047 318.238437)scale(0.1 -0.1)">
       <defs>
        <path d="M 12.40625 8.296875 
L 28.515625 8.296875 
L 28.515625 63.921875 
L 10.984375 60.40625 
L 10.984375 69.390625 
L 28.421875 72.90625 
L 38.28125 72.90625 
L 38.28125 8.296875 
L 54.390625 8.296875 
L 54.390625 0 
L 12.40625 0 
z
" id="DejaVuSans-49"/>
       </defs>
       <use xlink:href="#DejaVuSans-49"/>
       <use x="63.623047" xlink:href="#DejaVuSans-48"/>
       <use x="127.246094" xlink:href="#DejaVuSans-48"/>
      </g>
     </g>
    </g>
    <g id="xtick_7">
     <g id="line2d_7">
      <g>
       <use style="stroke:#000000;stroke-width:0.8;" x="360.536266" xlink:href="#m65d4bbc65f" y="303.64"/>
      </g>
     </g>
     <g id="text_7">
      <!-- 120 -->
      <g transform="translate(350.992516 318.238437)scale(0.1 -0.1)">
       <use xlink:href="#DejaVuSans-49"/>
       <use x="63.623047" xlink:href="#DejaVuSans-50"/>
       <use x="127.246094" xlink:href="#DejaVuSans-48"/>
      </g>
     </g>
    </g>
    <g id="xtick_8">
     <g id="line2d_8">
      <g>
       <use style="stroke:#000000;stroke-width:0.8;" x="409.624735" xlink:href="#m65d4bbc65f" y="303.64"/>
      </g>
     </g>
     <g id="text_8">
      <!-- 140 -->
      <g transform="translate(400.080985 318.238437)scale(0.1 -0.1)">
       <use xlink:href="#DejaVuSans-49"/>
       <use x="63.623047" xlink:href="#DejaVuSans-52"/>
       <use x="127.246094" xlink:href="#DejaVuSans-48"/>
      </g>
     </g>
    </g>
    <g id="text_9">
     <!-- Epochs -->
     <g transform="translate(230.944375 331.916562)scale(0.1 -0.1)">
      <defs>
       <path d="M 9.8125 72.90625 
L 55.90625 72.90625 
L 55.90625 64.59375 
L 19.671875 64.59375 
L 19.671875 43.015625 
L 54.390625 43.015625 
L 54.390625 34.71875 
L 19.671875 34.71875 
L 19.671875 8.296875 
L 56.78125 8.296875 
L 56.78125 0 
L 9.8125 0 
z
" id="DejaVuSans-69"/>
       <path d="M 18.109375 8.203125 
L 18.109375 -20.796875 
L 9.078125 -20.796875 
L 9.078125 54.6875 
L 18.109375 54.6875 
L 18.109375 46.390625 
Q 20.953125 51.265625 25.265625 53.625 
Q 29.59375 56 35.59375 56 
Q 45.5625 56 51.78125 48.09375 
Q 58.015625 40.1875 58.015625 27.296875 
Q 58.015625 14.40625 51.78125 6.484375 
Q 45.5625 -1.421875 35.59375 -1.421875 
Q 29.59375 -1.421875 25.265625 0.953125 
Q 20.953125 3.328125 18.109375 8.203125 
z
M 48.6875 27.296875 
Q 48.6875 37.203125 44.609375 42.84375 
Q 40.53125 48.484375 33.40625 48.484375 
Q 26.265625 48.484375 22.1875 42.84375 
Q 18.109375 37.203125 18.109375 27.296875 
Q 18.109375 17.390625 22.1875 11.75 
Q 26.265625 6.109375 33.40625 6.109375 
Q 40.53125 6.109375 44.609375 11.75 
Q 48.6875 17.390625 48.6875 27.296875 
z
" id="DejaVuSans-112"/>
       <path d="M 30.609375 48.390625 
Q 23.390625 48.390625 19.1875 42.75 
Q 14.984375 37.109375 14.984375 27.296875 
Q 14.984375 17.484375 19.15625 11.84375 
Q 23.34375 6.203125 30.609375 6.203125 
Q 37.796875 6.203125 41.984375 11.859375 
Q 46.1875 17.53125 46.1875 27.296875 
Q 46.1875 37.015625 41.984375 42.703125 
Q 37.796875 48.390625 30.609375 48.390625 
z
M 30.609375 56 
Q 42.328125 56 49.015625 48.375 
Q 55.71875 40.765625 55.71875 27.296875 
Q 55.71875 13.875 49.015625 6.21875 
Q 42.328125 -1.421875 30.609375 -1.421875 
Q 18.84375 -1.421875 12.171875 6.21875 
Q 5.515625 13.875 5.515625 27.296875 
Q 5.515625 40.765625 12.171875 48.375 
Q 18.84375 56 30.609375 56 
z
" id="DejaVuSans-111"/>
       <path d="M 48.78125 52.59375 
L 48.78125 44.1875 
Q 44.96875 46.296875 41.140625 47.34375 
Q 37.3125 48.390625 33.40625 48.390625 
Q 24.65625 48.390625 19.8125 42.84375 
Q 14.984375 37.3125 14.984375 27.296875 
Q 14.984375 17.28125 19.8125 11.734375 
Q 24.65625 6.203125 33.40625 6.203125 
Q 37.3125 6.203125 41.140625 7.25 
Q 44.96875 8.296875 48.78125 10.40625 
L 48.78125 2.09375 
Q 45.015625 0.34375 40.984375 -0.53125 
Q 36.96875 -1.421875 32.421875 -1.421875 
Q 20.0625 -1.421875 12.78125 6.34375 
Q 5.515625 14.109375 5.515625 27.296875 
Q 5.515625 40.671875 12.859375 48.328125 
Q 20.21875 56 33.015625 56 
Q 37.15625 56 41.109375 55.140625 
Q 45.0625 54.296875 48.78125 52.59375 
z
" id="DejaVuSans-99"/>
       <path d="M 54.890625 33.015625 
L 54.890625 0 
L 45.90625 0 
L 45.90625 32.71875 
Q 45.90625 40.484375 42.875 44.328125 
Q 39.84375 48.1875 33.796875 48.1875 
Q 26.515625 48.1875 22.3125 43.546875 
Q 18.109375 38.921875 18.109375 30.90625 
L 18.109375 0 
L 9.078125 0 
L 9.078125 75.984375 
L 18.109375 75.984375 
L 18.109375 46.1875 
Q 21.34375 51.125 25.703125 53.5625 
Q 30.078125 56 35.796875 56 
Q 45.21875 56 50.046875 50.171875 
Q 54.890625 44.34375 54.890625 33.015625 
z
" id="DejaVuSans-104"/>
       <path d="M 44.28125 53.078125 
L 44.28125 44.578125 
Q 40.484375 46.53125 36.375 47.5 
Q 32.28125 48.484375 27.875 48.484375 
Q 21.1875 48.484375 17.84375 46.4375 
Q 14.5 44.390625 14.5 40.28125 
Q 14.5 37.15625 16.890625 35.375 
Q 19.28125 33.59375 26.515625 31.984375 
L 29.59375 31.296875 
Q 39.15625 29.25 43.1875 25.515625 
Q 47.21875 21.78125 47.21875 15.09375 
Q 47.21875 7.46875 41.1875 3.015625 
Q 35.15625 -1.421875 24.609375 -1.421875 
Q 20.21875 -1.421875 15.453125 -0.5625 
Q 10.6875 0.296875 5.421875 2 
L 5.421875 11.28125 
Q 10.40625 8.6875 15.234375 7.390625 
Q 20.0625 6.109375 24.8125 6.109375 
Q 31.15625 6.109375 34.5625 8.28125 
Q 37.984375 10.453125 37.984375 14.40625 
Q 37.984375 18.0625 35.515625 20.015625 
Q 33.0625 21.96875 24.703125 23.78125 
L 21.578125 24.515625 
Q 13.234375 26.265625 9.515625 29.90625 
Q 5.8125 33.546875 5.8125 39.890625 
Q 5.8125 47.609375 11.28125 51.796875 
Q 16.75 56 26.8125 56 
Q 31.78125 56 36.171875 55.265625 
Q 40.578125 54.546875 44.28125 53.078125 
z
" id="DejaVuSans-115"/>
      </defs>
      <use xlink:href="#DejaVuSans-69"/>
      <use x="63.183594" xlink:href="#DejaVuSans-112"/>
      <use x="126.660156" xlink:href="#DejaVuSans-111"/>
      <use x="187.841797" xlink:href="#DejaVuSans-99"/>
      <use x="242.822266" xlink:href="#DejaVuSans-104"/>
      <use x="306.201172" xlink:href="#DejaVuSans-115"/>
     </g>
    </g>
   </g>
   <g id="matplotlib.axis_2">
    <g id="ytick_1">
     <g id="line2d_9">
      <defs>
       <path d="M 0 0 
L -3.5 0 
" id="mc7cd664c85" style="stroke:#000000;stroke-width:0.8;"/>
      </defs>
      <g>
       <use style="stroke:#000000;stroke-width:0.8;" x="47.72" xlink:href="#mc7cd664c85" y="303.64"/>
      </g>
     </g>
     <g id="text_10">
      <!-- 0.0 -->
      <g transform="translate(24.816875 307.439219)scale(0.1 -0.1)">
       <defs>
        <path d="M 10.6875 12.40625 
L 21 12.40625 
L 21 0 
L 10.6875 0 
z
" id="DejaVuSans-46"/>
       </defs>
       <use xlink:href="#DejaVuSans-48"/>
       <use x="63.623047" xlink:href="#DejaVuSans-46"/>
       <use x="95.410156" xlink:href="#DejaVuSans-48"/>
      </g>
     </g>
    </g>
    <g id="ytick_2">
     <g id="line2d_10">
      <g>
       <use style="stroke:#000000;stroke-width:0.8;" x="47.72" xlink:href="#mc7cd664c85" y="245.864"/>
      </g>
     </g>
     <g id="text_11">
      <!-- 0.5 -->
      <g transform="translate(24.816875 249.663219)scale(0.1 -0.1)">
       <defs>
        <path d="M 10.796875 72.90625 
L 49.515625 72.90625 
L 49.515625 64.59375 
L 19.828125 64.59375 
L 19.828125 46.734375 
Q 21.96875 47.46875 24.109375 47.828125 
Q 26.265625 48.1875 28.421875 48.1875 
Q 40.625 48.1875 47.75 41.5 
Q 54.890625 34.8125 54.890625 23.390625 
Q 54.890625 11.625 47.5625 5.09375 
Q 40.234375 -1.421875 26.90625 -1.421875 
Q 22.3125 -1.421875 17.546875 -0.640625 
Q 12.796875 0.140625 7.71875 1.703125 
L 7.71875 11.625 
Q 12.109375 9.234375 16.796875 8.0625 
Q 21.484375 6.890625 26.703125 6.890625 
Q 35.15625 6.890625 40.078125 11.328125 
Q 45.015625 15.765625 45.015625 23.390625 
Q 45.015625 31 40.078125 35.4375 
Q 35.15625 39.890625 26.703125 39.890625 
Q 22.75 39.890625 18.8125 39.015625 
Q 14.890625 38.140625 10.796875 36.28125 
z
" id="DejaVuSans-53"/>
       </defs>
       <use xlink:href="#DejaVuSans-48"/>
       <use x="63.623047" xlink:href="#DejaVuSans-46"/>
       <use x="95.410156" xlink:href="#DejaVuSans-53"/>
      </g>
     </g>
    </g>
    <g id="ytick_3">
     <g id="line2d_11">
      <g>
       <use style="stroke:#000000;stroke-width:0.8;" x="47.72" xlink:href="#mc7cd664c85" y="188.088"/>
      </g>
     </g>
     <g id="text_12">
      <!-- 1.0 -->
      <g transform="translate(24.816875 191.887219)scale(0.1 -0.1)">
       <use xlink:href="#DejaVuSans-49"/>
       <use x="63.623047" xlink:href="#DejaVuSans-46"/>
       <use x="95.410156" xlink:href="#DejaVuSans-48"/>
      </g>
     </g>
    </g>
    <g id="ytick_4">
     <g id="line2d_12">
      <g>
       <use style="stroke:#000000;stroke-width:0.8;" x="47.72" xlink:href="#mc7cd664c85" y="130.312"/>
      </g>
     </g>
     <g id="text_13">
      <!-- 1.5 -->
      <g transform="translate(24.816875 134.111219)scale(0.1 -0.1)">
       <use xlink:href="#DejaVuSans-49"/>
       <use x="63.623047" xlink:href="#DejaVuSans-46"/>
       <use x="95.410156" xlink:href="#DejaVuSans-53"/>
      </g>
     </g>
    </g>
    <g id="ytick_5">
     <g id="line2d_13">
      <g>
       <use style="stroke:#000000;stroke-width:0.8;" x="47.72" xlink:href="#mc7cd664c85" y="72.536"/>
      </g>
     </g>
     <g id="text_14">
      <!-- 2.0 -->
      <g transform="translate(24.816875 76.335219)scale(0.1 -0.1)">
       <use xlink:href="#DejaVuSans-50"/>
       <use x="63.623047" xlink:href="#DejaVuSans-46"/>
       <use x="95.410156" xlink:href="#DejaVuSans-48"/>
      </g>
     </g>
    </g>
    <g id="ytick_6">
     <g id="line2d_14">
      <g>
       <use style="stroke:#000000;stroke-width:0.8;" x="47.72" xlink:href="#mc7cd664c85" y="14.76"/>
      </g>
     </g>
     <g id="text_15">
      <!-- 2.5 -->
      <g transform="translate(24.816875 18.559219)scale(0.1 -0.1)">
       <use xlink:href="#DejaVuSans-50"/>
       <use x="63.623047" xlink:href="#DejaVuSans-46"/>
       <use x="95.410156" xlink:href="#DejaVuSans-53"/>
      </g>
     </g>
    </g>
    <g id="text_16">
     <!-- Loss -->
     <g transform="translate(18.737188 170.167187)rotate(-90)scale(0.1 -0.1)">
      <defs>
       <path d="M 9.8125 72.90625 
L 19.671875 72.90625 
L 19.671875 8.296875 
L 55.171875 8.296875 
L 55.171875 0 
L 9.8125 0 
z
" id="DejaVuSans-76"/>
      </defs>
      <use xlink:href="#DejaVuSans-76"/>
      <use x="53.962891" xlink:href="#DejaVuSans-111"/>
      <use x="115.144531" xlink:href="#DejaVuSans-115"/>
      <use x="167.244141" xlink:href="#DejaVuSans-115"/>
     </g>
    </g>
   </g>
   <g id="line2d_15">
    <path clip-path="url(#pbb42326e2b)" d="M 66.005455 43.10635 
L 68.459878 37.32875 
L 70.914301 63.824462 
L 75.823148 94.698512 
L 78.277572 101.649687 
L 80.731995 121.871287 
L 83.186419 130.357137 
L 85.640842 168.295206 
L 88.095265 173.508587 
L 90.549689 200.072006 
L 93.004112 204.134381 
L 95.458536 206.131716 
L 97.912959 232.040641 
L 100.367383 221.534887 
L 102.821806 223.441947 
L 105.276229 242.56332 
L 107.730653 236.554391 
L 110.185076 227.493037 
L 112.6395 242.738228 
L 115.093923 232.119631 
L 117.548347 240.932728 
L 120.00277 248.52147 
L 122.457193 245.576248 
L 124.911617 261.853959 
L 127.36604 257.526402 
L 129.820464 254.8915 
L 132.274887 246.428219 
L 134.729311 262.722856 
L 137.183734 240.120253 
L 139.638157 258.333234 
L 142.092581 254.733519 
L 147.001428 261.616987 
L 149.455851 256.144066 
L 151.910275 243.082402 
L 154.364698 269.758664 
L 156.819121 255.066408 
L 159.273545 256.003011 
L 161.727968 258.745114 
L 164.182392 254.806867 
L 166.636815 249.42422 
L 169.091239 264.573494 
L 171.545662 264.82175 
L 174.000085 260.48855 
L 176.454509 258.079336 
L 178.908932 267.293028 
L 181.363356 264.844319 
L 183.817779 257.221723 
L 186.272203 273.067807 
L 188.726626 268.703575 
L 191.181049 271.950654 
L 193.635473 255.675764 
L 196.089896 267.860068 
L 198.54432 270.427263 
L 200.998743 279.570428 
L 203.453167 276.354381 
L 205.90759 266.469269 
L 208.362013 271.583912 
L 210.816437 274.955119 
L 213.27086 273.395054 
L 215.725284 275.880437 
L 218.179707 280.413935 
L 220.634131 272.630538 
L 223.088554 275.979176 
L 225.542977 269.437059 
L 227.997401 280.066941 
L 230.451824 258.005988 
L 232.906248 276.836788 
L 235.360671 279.614155 
L 237.815095 270.918134 
L 240.269518 275.979176 
L 242.723941 274.3909 
L 245.178365 275.214659 
L 247.632788 283.878238 
L 250.087212 280.526779 
L 252.541635 279.460405 
L 254.996059 280.667834 
L 257.450482 277.880593 
L 259.904905 275.378283 
L 262.359329 279.965381 
L 264.813752 288.597928 
L 267.268176 288.803868 
L 269.722599 276.958095 
L 272.177023 288.68115 
L 274.631446 279.144443 
L 277.085869 284.125084 
L 279.540293 293.152584 
L 281.994716 281.065608 
L 284.44914 289.942179 
L 286.903563 277.567452 
L 289.357987 282.021959 
L 291.81241 291.897197 
L 294.266833 287.456796 
L 296.721257 291.797048 
L 299.17568 290.466903 
L 301.630104 286.223978 
L 304.084527 287.664146 
L 306.538951 286.824871 
L 308.993374 291.856291 
L 311.447797 291.218724 
L 313.902221 295.917256 
L 316.356644 293.161047 
L 318.811068 289.430151 
L 321.265491 293.118026 
L 323.719915 297.55208 
L 326.174338 299.445563 
L 328.628761 294.991937 
L 331.083185 295.278278 
L 333.537608 291.002911 
L 335.992032 300.318603 
L 338.446455 300.246753 
L 340.900879 301.1257 
L 343.355302 298.693917 
L 345.809725 298.726713 
L 348.264149 295.600588 
L 350.718572 301.627679 
L 353.172996 294.877683 
L 355.627419 302.289798 
L 358.081843 300.800569 
L 360.536266 299.707924 
L 362.990689 301.687274 
L 365.445113 302.219535 
L 370.35396 302.423712 
L 372.808383 302.778927 
L 375.262807 302.685809 
L 377.71723 302.986785 
L 380.171653 302.574508 
L 385.0805 303.245157 
L 387.534924 302.884873 
L 389.989347 302.899595 
L 392.443771 302.683032 
L 394.898194 303.394124 
L 397.352617 302.727641 
L 399.807041 303.209937 
L 404.715888 303.128721 
L 407.170311 303.374586 
L 409.624735 302.940016 
L 414.533581 303.498372 
L 421.896852 303.270161 
L 424.351275 303.471208 
L 426.805699 303.504885 
L 429.260122 303.364833 
L 431.714545 303.336126 
L 431.714545 303.336126 
" style="fill:none;stroke:#1f77b4;stroke-linecap:square;stroke-width:1.5;"/>
   </g>
   <g id="line2d_16">
    <path clip-path="url(#pbb42326e2b)" d="M 66.005455 43.693137 
L 70.914301 51.727612 
L 73.368725 75.311956 
L 75.823148 93.050994 
L 78.277572 97.429331 
L 80.731995 122.954587 
L 83.186419 142.431419 
L 85.640842 171.375841 
L 88.095265 191.529734 
L 90.549689 208.287031 
L 93.004112 222.437637 
L 95.458536 223.859469 
L 97.912959 228.192669 
L 100.367383 238.156772 
L 102.821806 237.513562 
L 105.276229 243.420933 
L 107.730653 243.313731 
L 110.185076 249.994081 
L 112.6395 250.501878 
L 115.093923 256.290762 
L 117.548347 256.939614 
L 120.00277 255.263884 
L 122.457193 256.059433 
L 124.911617 262.136069 
L 127.36604 262.971113 
L 129.820464 259.743781 
L 132.274887 261.808822 
L 134.729311 265.211061 
L 137.183734 267.970091 
L 139.638157 267.953164 
L 142.092581 269.589398 
L 144.547004 265.707573 
L 147.001428 267.817752 
L 149.455851 268.034976 
L 151.910275 269.002611 
L 154.364698 272.252511 
L 156.819121 269.685316 
L 159.273545 264.46065 
L 161.727968 275.03693 
L 164.182392 271.203064 
L 166.636815 270.226966 
L 169.091239 270.813753 
L 171.545662 273.632026 
L 174.000085 279.093663 
L 176.454509 278.13167 
L 178.908932 274.718147 
L 181.363356 274.692757 
L 183.817779 275.005898 
L 186.272203 274.82817 
L 188.726626 275.42342 
L 191.181049 275.457273 
L 193.635473 277.592841 
L 196.089896 281.342075 
L 198.54432 275.327503 
L 200.998743 280.958406 
L 203.453167 274.272414 
L 205.90759 282.247646 
L 208.362013 275.80991 
L 210.816437 279.985129 
L 213.27086 273.533287 
L 215.725284 276.565963 
L 218.179707 278.763595 
L 220.634131 280.803246 
L 223.088554 279.869464 
L 225.542977 282.546682 
L 227.997401 285.79094 
L 230.451824 280.481641 
L 232.906248 279.821505 
L 235.360671 280.837099 
L 237.815095 281.686248 
L 240.269518 283.457895 
L 242.723941 287.504754 
L 245.178365 286.159093 
L 247.632788 288.617676 
L 250.087212 285.332512 
L 252.541635 287.193023 
L 254.996059 286.710616 
L 257.450482 288.991471 
L 259.904905 289.461183 
L 262.359329 292.410636 
L 264.813752 288.719235 
L 267.268176 291.011374 
L 269.722599 290.506398 
L 272.177023 289.06764 
L 274.631446 289.345518 
L 277.085869 288.871574 
L 279.540293 290.074771 
L 281.994716 286.061765 
L 284.44914 293.006592 
L 286.903563 292.075631 
L 289.357987 290.277889 
L 291.81241 295.05118 
L 294.266833 291.182755 
L 296.721257 293.470662 
L 299.17568 295.085033 
L 301.630104 294.459456 
L 304.084527 293.704108 
L 306.538951 297.670566 
L 308.993374 291.812564 
L 311.447797 294.53633 
L 313.902221 295.949698 
L 316.356644 298.576489 
L 318.811068 297.234707 
L 321.265491 298.507373 
L 323.719915 296.602076 
L 326.174338 297.8557 
L 328.628761 297.036525 
L 331.083185 300.536797 
L 333.537608 297.137379 
L 335.992032 297.959022 
L 338.446455 299.185846 
L 340.900879 299.154814 
L 343.355302 301.208746 
L 345.809725 301.724037 
L 348.264149 300.457454 
L 350.718572 300.885378 
L 353.172996 300.811501 
L 355.627419 301.784602 
L 358.081843 301.257763 
L 360.536266 302.147641 
L 362.990689 301.653289 
L 365.445113 302.346044 
L 367.899536 301.96405 
L 370.35396 302.409298 
L 372.808383 303.20262 
L 375.262807 303.078536 
L 377.71723 302.56805 
L 380.171653 302.222224 
L 382.626077 303.363268 
L 385.0805 302.801606 
L 387.534924 302.620461 
L 389.989347 303.392537 
L 392.443771 303.20996 
L 394.898194 303.426787 
L 397.352617 303.403138 
L 399.807041 303.029211 
L 402.261464 302.97528 
L 404.715888 303.470294 
L 414.533581 303.412428 
L 416.988005 303.185286 
L 419.442428 303.498383 
L 424.351275 303.475881 
L 426.805699 302.848826 
L 431.714545 303.303739 
L 431.714545 303.303739 
" style="fill:none;stroke:#ff7f0e;stroke-linecap:square;stroke-width:1.5;"/>
   </g>
   <g id="line2d_17">
    <path clip-path="url(#pbb42326e2b)" d="M 66.005455 25.683275 
L 68.459878 60.597131 
L 78.277572 155.679275 
L 80.731995 191.100928 
L 83.186419 197.736141 
L 85.640842 219.447278 
L 88.095265 227.380194 
L 90.549689 227.718725 
L 93.004112 239.640667 
L 95.458536 247.020648 
L 97.912959 246.383081 
L 100.367383 247.663858 
L 102.821806 256.798559 
L 105.276229 253.260908 
L 107.730653 255.907094 
L 110.185076 257.148375 
L 112.6395 261.690336 
L 115.093923 259.670433 
L 117.548347 263.050103 
L 120.00277 267.329702 
L 122.457193 265.487528 
L 124.911617 266.965781 
L 127.36604 269.059033 
L 129.820464 271.651618 
L 132.274887 265.848628 
L 134.729311 271.978865 
L 137.183734 269.564009 
L 139.638157 268.09704 
L 142.092581 272.517694 
L 144.547004 271.383614 
L 147.001428 268.799492 
L 149.455851 272.145309 
L 151.910275 268.884125 
L 154.364698 271.995791 
L 156.819121 271.344119 
L 159.273545 271.341298 
L 161.727968 278.817196 
L 164.182392 270.077448 
L 166.636815 271.516205 
L 169.091239 271.891411 
L 171.545662 275.485484 
L 174.000085 276.537752 
L 176.454509 276.659059 
L 178.908932 279.725588 
L 181.363356 276.690091 
L 183.817779 278.667678 
L 186.272203 279.268571 
L 188.726626 277.874951 
L 191.181049 281.759597 
L 193.635473 281.962716 
L 196.089896 281.491593 
L 198.54432 279.336277 
L 200.998743 282.419733 
L 203.453167 281.299759 
L 205.90759 282.467691 
L 208.362013 282.141855 
L 210.816437 283.714615 
L 213.27086 282.872518 
L 215.725284 282.273036 
L 218.179707 282.038885 
L 220.634131 280.543705 
L 223.088554 279.660703 
L 225.542977 283.596129 
L 227.997401 285.029245 
L 230.451824 284.953075 
L 232.906248 280.405472 
L 235.360671 282.659526 
L 237.815095 283.040373 
L 240.269518 290.145298 
L 242.723941 284.900885 
L 245.178365 286.369264 
L 247.632788 289.973211 
L 250.087212 288.858879 
L 252.541635 286.466592 
L 254.996059 289.290507 
L 257.450482 285.12093 
L 259.904905 289.830746 
L 262.359329 289.881526 
L 264.813752 286.470823 
L 267.268176 286.252189 
L 269.722599 287.723389 
L 272.177023 286.834745 
L 274.631446 289.464004 
L 277.085869 288.269271 
L 279.540293 290.457029 
L 281.994716 294.305001 
L 284.44914 291.3626 
L 286.903563 292.667356 
L 289.357987 293.197721 
L 291.81241 291.014195 
L 294.266833 292.100316 
L 296.721257 290.270837 
L 299.17568 293.564464 
L 301.630104 295.634441 
L 304.084527 291.248346 
L 306.538951 297.073904 
L 308.993374 296.675425 
L 311.447797 295.848844 
L 313.902221 295.56603 
L 316.356644 295.410517 
L 318.811068 296.782626 
L 321.265491 299.704574 
L 323.719915 297.337677 
L 326.174338 298.461882 
L 328.628761 296.357346 
L 331.083185 298.343044 
L 333.537608 298.657596 
L 335.992032 299.84316 
L 338.446455 299.039149 
L 340.900879 299.355817 
L 343.355302 300.057564 
L 345.809725 300.025474 
L 348.264149 300.956435 
L 350.718572 301.315419 
L 353.172996 301.374133 
L 355.627419 301.547277 
L 358.081843 300.91306 
L 360.536266 301.95757 
L 362.990689 301.896476 
L 365.445113 300.649112 
L 367.899536 302.418907 
L 370.35396 302.029861 
L 372.808383 302.162011 
L 375.262807 302.773307 
L 377.71723 303.019844 
L 380.171653 302.928026 
L 382.626077 302.2574 
L 385.0805 302.771235 
L 387.534924 302.916874 
L 389.989347 302.910351 
L 392.443771 303.04854 
L 394.898194 303.319431 
L 399.807041 303.433531 
L 402.261464 303.053786 
L 407.170311 303.412439 
L 409.624735 303.302461 
L 412.079158 303.38544 
L 414.533581 302.959587 
L 416.988005 303.258028 
L 419.442428 303.413629 
L 421.896852 303.266205 
L 424.351275 302.896576 
L 426.805699 303.27901 
L 429.260122 303.431592 
L 431.714545 303.094758 
L 431.714545 303.094758 
" style="fill:none;stroke:#2ca02c;stroke-linecap:square;stroke-width:1.5;"/>
   </g>
   <g id="patch_3">
    <path d="M 47.72 303.64 
L 47.72 14.76 
" style="fill:none;stroke:#000000;stroke-linecap:square;stroke-linejoin:miter;stroke-width:0.8;"/>
   </g>
   <g id="patch_4">
    <path d="M 450 303.64 
L 450 14.76 
" style="fill:none;stroke:#000000;stroke-linecap:square;stroke-linejoin:miter;stroke-width:0.8;"/>
   </g>
   <g id="patch_5">
    <path d="M 47.72 303.64 
L 450 303.64 
" style="fill:none;stroke:#000000;stroke-linecap:square;stroke-linejoin:miter;stroke-width:0.8;"/>
   </g>
   <g id="patch_6">
    <path d="M 47.72 14.76 
L 450 14.76 
" style="fill:none;stroke:#000000;stroke-linecap:square;stroke-linejoin:miter;stroke-width:0.8;"/>
   </g>
   <g id="legend_1">
    <g id="patch_7">
     <path d="M 361.492188 66.794375 
L 443 66.794375 
Q 445 66.794375 445 64.794375 
L 445 21.76 
Q 445 19.76 443 19.76 
L 361.492188 19.76 
Q 359.492188 19.76 359.492188 21.76 
L 359.492188 64.794375 
Q 359.492188 66.794375 361.492188 66.794375 
z
" style="fill:#ffffff;opacity:0.8;stroke:#cccccc;stroke-linejoin:miter;"/>
    </g>
    <g id="line2d_18">
     <path d="M 363.492188 27.858437 
L 383.492188 27.858437 
" style="fill:none;stroke:#1f77b4;stroke-linecap:square;stroke-width:1.5;"/>
    </g>
    <g id="line2d_19"/>
    <g id="text_17">
     <!-- Sync-SGD -->
     <g transform="translate(391.492188 31.358437)scale(0.1 -0.1)">
      <defs>
       <path d="M 53.515625 70.515625 
L 53.515625 60.890625 
Q 47.90625 63.578125 42.921875 64.890625 
Q 37.9375 66.21875 33.296875 66.21875 
Q 25.25 66.21875 20.875 63.09375 
Q 16.5 59.96875 16.5 54.203125 
Q 16.5 49.359375 19.40625 46.890625 
Q 22.3125 44.4375 30.421875 42.921875 
L 36.375 41.703125 
Q 47.40625 39.59375 52.65625 34.296875 
Q 57.90625 29 57.90625 20.125 
Q 57.90625 9.515625 50.796875 4.046875 
Q 43.703125 -1.421875 29.984375 -1.421875 
Q 24.8125 -1.421875 18.96875 -0.25 
Q 13.140625 0.921875 6.890625 3.21875 
L 6.890625 13.375 
Q 12.890625 10.015625 18.65625 8.296875 
Q 24.421875 6.59375 29.984375 6.59375 
Q 38.421875 6.59375 43.015625 9.90625 
Q 47.609375 13.234375 47.609375 19.390625 
Q 47.609375 24.75 44.3125 27.78125 
Q 41.015625 30.8125 33.5 32.328125 
L 27.484375 33.5 
Q 16.453125 35.6875 11.515625 40.375 
Q 6.59375 45.0625 6.59375 53.421875 
Q 6.59375 63.09375 13.40625 68.65625 
Q 20.21875 74.21875 32.171875 74.21875 
Q 37.3125 74.21875 42.625 73.28125 
Q 47.953125 72.359375 53.515625 70.515625 
z
" id="DejaVuSans-83"/>
       <path d="M 32.171875 -5.078125 
Q 28.375 -14.84375 24.75 -17.8125 
Q 21.140625 -20.796875 15.09375 -20.796875 
L 7.90625 -20.796875 
L 7.90625 -13.28125 
L 13.1875 -13.28125 
Q 16.890625 -13.28125 18.9375 -11.515625 
Q 21 -9.765625 23.484375 -3.21875 
L 25.09375 0.875 
L 2.984375 54.6875 
L 12.5 54.6875 
L 29.59375 11.921875 
L 46.6875 54.6875 
L 56.203125 54.6875 
z
" id="DejaVuSans-121"/>
       <path d="M 54.890625 33.015625 
L 54.890625 0 
L 45.90625 0 
L 45.90625 32.71875 
Q 45.90625 40.484375 42.875 44.328125 
Q 39.84375 48.1875 33.796875 48.1875 
Q 26.515625 48.1875 22.3125 43.546875 
Q 18.109375 38.921875 18.109375 30.90625 
L 18.109375 0 
L 9.078125 0 
L 9.078125 54.6875 
L 18.109375 54.6875 
L 18.109375 46.1875 
Q 21.34375 51.125 25.703125 53.5625 
Q 30.078125 56 35.796875 56 
Q 45.21875 56 50.046875 50.171875 
Q 54.890625 44.34375 54.890625 33.015625 
z
" id="DejaVuSans-110"/>
       <path d="M 4.890625 31.390625 
L 31.203125 31.390625 
L 31.203125 23.390625 
L 4.890625 23.390625 
z
" id="DejaVuSans-45"/>
       <path d="M 59.515625 10.40625 
L 59.515625 29.984375 
L 43.40625 29.984375 
L 43.40625 38.09375 
L 69.28125 38.09375 
L 69.28125 6.78125 
Q 63.578125 2.734375 56.6875 0.65625 
Q 49.8125 -1.421875 42 -1.421875 
Q 24.90625 -1.421875 15.25 8.5625 
Q 5.609375 18.5625 5.609375 36.375 
Q 5.609375 54.25 15.25 64.234375 
Q 24.90625 74.21875 42 74.21875 
Q 49.125 74.21875 55.546875 72.453125 
Q 61.96875 70.703125 67.390625 67.28125 
L 67.390625 56.78125 
Q 61.921875 61.421875 55.765625 63.765625 
Q 49.609375 66.109375 42.828125 66.109375 
Q 29.4375 66.109375 22.71875 58.640625 
Q 16.015625 51.171875 16.015625 36.375 
Q 16.015625 21.625 22.71875 14.15625 
Q 29.4375 6.6875 42.828125 6.6875 
Q 48.046875 6.6875 52.140625 7.59375 
Q 56.25 8.5 59.515625 10.40625 
z
" id="DejaVuSans-71"/>
       <path d="M 19.671875 64.796875 
L 19.671875 8.109375 
L 31.59375 8.109375 
Q 46.6875 8.109375 53.6875 14.9375 
Q 60.6875 21.78125 60.6875 36.53125 
Q 60.6875 51.171875 53.6875 57.984375 
Q 46.6875 64.796875 31.59375 64.796875 
z
M 9.8125 72.90625 
L 30.078125 72.90625 
Q 51.265625 72.90625 61.171875 64.09375 
Q 71.09375 55.28125 71.09375 36.53125 
Q 71.09375 17.671875 61.125 8.828125 
Q 51.171875 0 30.078125 0 
L 9.8125 0 
z
" id="DejaVuSans-68"/>
      </defs>
      <use xlink:href="#DejaVuSans-83"/>
      <use x="63.476562" xlink:href="#DejaVuSans-121"/>
      <use x="122.65625" xlink:href="#DejaVuSans-110"/>
      <use x="186.035156" xlink:href="#DejaVuSans-99"/>
      <use x="241.015625" xlink:href="#DejaVuSans-45"/>
      <use x="277.099609" xlink:href="#DejaVuSans-83"/>
      <use x="340.576172" xlink:href="#DejaVuSans-71"/>
      <use x="418.066406" xlink:href="#DejaVuSans-68"/>
     </g>
    </g>
    <g id="line2d_20">
     <path d="M 363.492188 42.536563 
L 383.492188 42.536563 
" style="fill:none;stroke:#ff7f0e;stroke-linecap:square;stroke-width:1.5;"/>
    </g>
    <g id="line2d_21"/>
    <g id="text_18">
     <!-- DP-SGD -->
     <g transform="translate(391.492188 46.036563)scale(0.1 -0.1)">
      <defs>
       <path d="M 19.671875 64.796875 
L 19.671875 37.40625 
L 32.078125 37.40625 
Q 38.96875 37.40625 42.71875 40.96875 
Q 46.484375 44.53125 46.484375 51.125 
Q 46.484375 57.671875 42.71875 61.234375 
Q 38.96875 64.796875 32.078125 64.796875 
z
M 9.8125 72.90625 
L 32.078125 72.90625 
Q 44.34375 72.90625 50.609375 67.359375 
Q 56.890625 61.8125 56.890625 51.125 
Q 56.890625 40.328125 50.609375 34.8125 
Q 44.34375 29.296875 32.078125 29.296875 
L 19.671875 29.296875 
L 19.671875 0 
L 9.8125 0 
z
" id="DejaVuSans-80"/>
      </defs>
      <use xlink:href="#DejaVuSans-68"/>
      <use x="77.001953" xlink:href="#DejaVuSans-80"/>
      <use x="135.054688" xlink:href="#DejaVuSans-45"/>
      <use x="171.138672" xlink:href="#DejaVuSans-83"/>
      <use x="234.615234" xlink:href="#DejaVuSans-71"/>
      <use x="312.105469" xlink:href="#DejaVuSans-68"/>
     </g>
    </g>
    <g id="line2d_22">
     <path d="M 363.492188 57.214687 
L 383.492188 57.214687 
" style="fill:none;stroke:#2ca02c;stroke-linecap:square;stroke-width:1.5;"/>
    </g>
    <g id="line2d_23"/>
    <g id="text_19">
     <!-- EDP-SGD -->
     <g transform="translate(391.492188 60.714687)scale(0.1 -0.1)">
      <use xlink:href="#DejaVuSans-69"/>
      <use x="63.183594" xlink:href="#DejaVuSans-68"/>
      <use x="140.185547" xlink:href="#DejaVuSans-80"/>
      <use x="198.238281" xlink:href="#DejaVuSans-45"/>
      <use x="234.322266" xlink:href="#DejaVuSans-83"/>
      <use x="297.798828" xlink:href="#DejaVuSans-71"/>
      <use x="375.289062" xlink:href="#DejaVuSans-68"/>
     </g>
    </g>
   </g>
  </g>
 </g>
 <defs>
  <clipPath id="pbb42326e2b">
   <rect height="288.88" width="402.28" x="47.72" y="14.76"/>
  </clipPath>
 </defs>
</svg>
