<?xml version="1.0" encoding="utf-8" standalone="no"?>
<!DOCTYPE svg PUBLIC "-//W3C//DTD SVG 1.1//EN"
  "http://www.w3.org/Graphics/SVG/1.1/DTD/svg11.dtd">
<!-- Created with matplotlib (https://matplotlib.org/) -->
<svg height="345.6pt" version="1.1" viewBox="0 0 460.8 345.6" width="460.8pt" xmlns="http://www.w3.org/2000/svg" xmlns:xlink="http://www.w3.org/1999/xlink">
 <metadata>
  <rdf:RDF xmlns:cc="http://creativecommons.org/ns#" xmlns:dc="http://purl.org/dc/elements/1.1/" xmlns:rdf="http://www.w3.org/1999/02/22-rdf-syntax-ns#">
   <cc:Work>
    <dc:type rdf:resource="http://purl.org/dc/dcmitype/StillImage"/>
    <dc:date>2021-06-20T12:16:22.264246</dc:date>
    <dc:format>image/svg+xml</dc:format>
    <dc:creator>
     <cc:Agent>
      <dc:title>Matplotlib v3.3.1, https://matplotlib.org/</dc:title>
     </cc:Agent>
    </dc:creator>
   </cc:Work>
  </rdf:RDF>
 </metadata>
 <defs>
  <style type="text/css">*{stroke-linecap:butt;stroke-linejoin:round;}</style>
 </defs>
 <g id="figure_1">
  <g id="patch_1">
   <path d="M 0 345.6 
L 460.8 345.6 
L 460.8 0 
L 0 0 
z
" style="fill:#ffffff;"/>
  </g>
  <g id="axes_1">
   <g id="patch_2">
    <path d="M 47.72 303.64 
L 450 303.64 
L 450 14.76 
L 47.72 14.76 
z
" style="fill:#ffffff;"/>
   </g>
   <g id="PolyCollection_1">
    <path clip-path="url(#pa6140d5efe)" d="M 66.303472 53.167852 
L 66.303472 78.633723 
L 68.760256 62.426113 
L 71.221591 100.89045 
L 73.683962 110.451363 
L 76.147543 122.701928 
L 78.598598 134.815366 
L 81.053457 150.865531 
L 83.510467 150.258107 
L 85.967074 166.925472 
L 88.433634 163.355839 
L 90.892611 183.008655 
L 93.346069 182.573732 
L 95.806805 190.066581 
L 98.258203 219.004892 
L 100.710859 211.332939 
L 103.174585 220.061116 
L 105.626258 231.355475 
L 108.083097 236.419552 
L 110.53834 230.673598 
L 112.991235 232.907688 
L 115.448881 220.641982 
L 117.900619 233.709605 
L 120.359384 246.478792 
L 122.811595 238.914392 
L 125.259262 257.20458 
L 127.708678 255.532157 
L 130.152034 257.724977 
L 132.604283 248.350031 
L 135.044578 260.302427 
L 137.500488 243.78674 
L 139.950166 253.520155 
L 142.396455 247.260244 
L 144.847338 260.632816 
L 147.289244 264.666703 
L 149.733315 256.977113 
L 152.178373 240.337537 
L 154.62199 254.483387 
L 157.071239 259.300424 
L 159.523218 253.906898 
L 161.968744 267.367284 
L 164.42135 257.999909 
L 166.87046 249.605355 
L 169.3232 263.884042 
L 171.778969 264.041467 
L 174.233305 262.324491 
L 176.684016 261.078342 
L 179.139497 268.863102 
L 181.59419 276.061283 
L 184.052076 259.286965 
L 186.50513 278.649685 
L 188.963816 266.023717 
L 191.418764 263.810335 
L 193.865447 250.062278 
L 196.30548 273.417213 
L 198.750072 276.532898 
L 201.204323 275.069595 
L 203.678129 277.0001 
L 206.152206 274.376744 
L 208.612641 278.386171 
L 211.077625 274.639824 
L 213.548712 275.079622 
L 216.011484 276.271528 
L 218.480329 272.91393 
L 220.944798 273.914209 
L 223.41483 280.953494 
L 225.882674 270.723711 
L 228.343602 277.831951 
L 230.804276 269.675057 
L 233.261635 280.785727 
L 235.706638 282.294814 
L 238.154785 277.266001 
L 240.60904 276.928111 
L 243.065526 275.383583 
L 245.512564 276.827844 
L 247.969471 286.516632 
L 250.418131 281.379308 
L 252.865727 277.442201 
L 255.317564 278.89926 
L 257.763332 280.107611 
L 260.211911 284.982186 
L 262.663185 280.951181 
L 265.112419 290.451731 
L 267.559903 282.375529 
L 270.013479 275.533199 
L 272.461087 292.680501 
L 274.907352 285.028674 
L 277.352282 282.877946 
L 279.79968 291.44415 
L 282.251736 284.309359 
L 284.703464 290.902358 
L 287.149094 277.077386 
L 289.599055 291.201128 
L 292.047365 291.072699 
L 294.502035 288.276436 
L 296.952844 291.712625 
L 299.403838 287.50037 
L 301.851484 294.426614 
L 304.299677 292.574544 
L 306.75581 292.7302 
L 309.19923 288.307651 
L 311.646704 293.250729 
L 314.101115 298.627747 
L 316.554815 291.998025 
L 319.006319 295.219416 
L 321.457102 296.379847 
L 323.90967 299.385109 
L 326.361603 298.430908 
L 328.81203 297.836059 
L 331.262964 293.586922 
L 333.712121 292.937909 
L 336.161249 300.99828 
L 338.608543 299.456132 
L 341.058239 301.607695 
L 343.507312 300.665358 
L 345.95223 298.685026 
L 348.404385 297.275898 
L 350.857011 301.32531 
L 353.311387 299.641375 
L 355.760872 302.508942 
L 358.208387 301.955549 
L 360.654998 302.339958 
L 363.109633 302.808494 
L 365.557617 302.977827 
L 368.004694 302.565527 
L 370.455701 302.839877 
L 372.905994 303.324013 
L 375.358879 302.909322 
L 377.810392 302.944937 
L 380.26112 302.981887 
L 382.716087 303.338983 
L 385.17298 303.337339 
L 387.614602 303.239802 
L 390.062244 303.415298 
L 392.512194 303.452167 
L 394.965047 303.344419 
L 397.418712 303.474768 
L 399.867074 303.489916 
L 402.317274 303.509853 
L 404.769988 303.49536 
L 407.22455 303.447136 
L 409.668311 303.469779 
L 412.114673 303.42902 
L 414.567157 303.594468 
L 417.013975 303.604992 
L 419.4662 303.541727 
L 421.918083 303.488012 
L 424.367842 303.464542 
L 426.814597 303.600476 
L 429.267005 303.524366 
L 431.714545 303.500976 
L 431.714545 303.2128 
L 431.714545 303.2128 
L 429.267005 303.311598 
L 426.814597 303.088571 
L 424.367842 303.111066 
L 421.918083 303.379271 
L 419.4662 303.465839 
L 417.013975 303.432835 
L 414.567157 303.259702 
L 412.114673 303.2042 
L 409.668311 303.333104 
L 407.22455 303.152407 
L 404.769988 303.397048 
L 402.317274 302.378466 
L 399.867074 303.182182 
L 397.418712 302.855714 
L 394.965047 302.966006 
L 392.512194 302.32613 
L 390.062244 302.414395 
L 387.614602 302.184536 
L 385.17298 302.978993 
L 382.716087 303.120343 
L 380.26112 301.264026 
L 377.810392 301.891202 
L 375.358879 302.097935 
L 372.905994 302.939247 
L 370.455701 302.088741 
L 368.004694 301.454699 
L 365.557617 301.310139 
L 363.109633 301.62326 
L 360.654998 300.628353 
L 358.208387 299.654053 
L 355.760872 300.378967 
L 353.311387 295.03821 
L 350.857011 299.075452 
L 348.404385 295.603829 
L 345.95223 291.87153 
L 343.507312 297.719734 
L 341.058239 300.470208 
L 338.608543 296.590272 
L 336.161249 298.721188 
L 333.712121 288.593969 
L 331.262964 289.352681 
L 328.81203 292.958879 
L 326.361603 297.001909 
L 323.90967 294.863553 
L 321.457102 294.169657 
L 319.006319 290.676693 
L 316.554815 283.471322 
L 314.101115 294.591922 
L 311.646704 289.688875 
L 309.19923 285.88092 
L 306.75581 286.053932 
L 304.299677 286.49734 
L 301.851484 287.435331 
L 299.403838 285.260727 
L 296.952844 287.960152 
L 294.502035 282.055699 
L 292.047365 286.506826 
L 289.599055 284.843722 
L 287.149094 270.164097 
L 284.703464 282.073142 
L 282.251736 281.263591 
L 279.79968 286.761658 
L 277.352282 279.304049 
L 274.907352 280.465285 
L 272.461087 288.713143 
L 270.013479 271.318973 
L 267.559903 279.298669 
L 265.112419 286.123485 
L 262.663185 276.880688 
L 260.211911 272.578858 
L 257.763332 272.792986 
L 255.317564 274.159318 
L 252.865727 271.486296 
L 250.418131 274.968666 
L 247.969471 282.424704 
L 245.512564 270.407997 
L 243.065526 266.712225 
L 240.60904 270.245665 
L 238.154785 271.685065 
L 235.706638 281.732177 
L 233.261635 272.261567 
L 230.804276 262.936234 
L 228.343602 270.329208 
L 225.882674 265.261607 
L 223.41483 272.934486 
L 220.944798 266.212476 
L 218.480329 268.149357 
L 216.011484 269.852802 
L 213.548712 273.910939 
L 211.077625 264.826725 
L 208.612641 274.621627 
L 206.152206 268.125302 
L 203.678129 271.465738 
L 201.204323 271.054735 
L 198.750072 268.965149 
L 196.30548 265.180439 
L 193.865447 243.640487 
L 191.418764 258.374193 
L 188.963816 264.262993 
L 186.50513 271.570873 
L 184.052076 249.130626 
L 181.59419 266.807504 
L 179.139497 258.726642 
L 176.684016 249.314014 
L 174.233305 251.114647 
L 171.778969 258.120492 
L 169.3232 256.021043 
L 166.87046 247.155476 
L 164.42135 247.720716 
L 161.968744 263.438506 
L 159.523218 247.345114 
L 157.071239 251.001658 
L 154.62199 247.626238 
L 152.178373 234.057663 
L 149.733315 250.729562 
L 147.289244 257.438834 
L 144.847338 252.005131 
L 142.396455 237.855112 
L 139.950166 246.795254 
L 137.500488 235.618723 
L 135.044578 254.750377 
L 132.604283 240.793847 
L 130.152034 245.817764 
L 127.708678 247.739759 
L 125.259262 247.669717 
L 122.811595 229.974033 
L 120.359384 235.544646 
L 117.900619 224.639214 
L 115.448881 202.341606 
L 112.991235 219.550687 
L 110.53834 210.410127 
L 108.083097 222.448348 
L 105.626258 217.582175 
L 103.174585 201.162109 
L 100.710859 202.149205 
L 98.258203 207.521989 
L 95.806805 177.78155 
L 93.346069 173.200118 
L 90.892611 159.607614 
L 88.433634 140.193923 
L 85.967074 142.40189 
L 83.510467 138.260868 
L 81.053457 131.966119 
L 78.598598 123.642034 
L 76.147543 109.981959 
L 73.683962 99.302675 
L 71.221591 87.739238 
L 68.760256 46.806712 
L 66.303472 53.167852 
z
" style="fill:#1f77b4;fill-opacity:0.25;"/>
   </g>
   <g id="PolyCollection_2">
    <path clip-path="url(#pa6140d5efe)" d="M 66.005455 43.750405 
L 66.005455 65.572695 
L 67.970384 82.858953 
L 69.888903 97.209151 
L 71.781131 112.398679 
L 73.683559 139.090527 
L 75.566276 131.472998 
L 77.461182 143.135623 
L 79.363882 166.700222 
L 81.253463 178.66077 
L 83.154286 191.650524 
L 85.044475 200.837349 
L 86.935836 218.924757 
L 88.837341 221.285554 
L 90.730719 220.492143 
L 92.623378 227.587062 
L 94.50674 231.719272 
L 96.395099 231.092734 
L 98.294422 231.437182 
L 100.186511 240.716417 
L 102.072656 243.718456 
L 103.984414 254.184693 
L 105.875656 258.200782 
L 107.772654 243.081461 
L 109.66985 252.41077 
L 111.553021 257.529286 
L 113.44589 259.035485 
L 115.334407 257.380314 
L 117.221305 267.936388 
L 119.122386 265.812305 
L 121.023894 260.845051 
L 122.918825 255.643333 
L 124.808975 257.652943 
L 126.695248 259.572578 
L 128.57996 270.392342 
L 130.473249 267.029619 
L 132.38121 257.069251 
L 134.276776 265.671349 
L 136.171779 260.238784 
L 138.073905 265.954931 
L 139.961456 274.428926 
L 141.854379 272.465492 
L 143.742166 267.431523 
L 145.646888 266.452245 
L 147.533838 276.145096 
L 149.428108 272.543327 
L 151.318308 271.697742 
L 153.201241 271.772523 
L 155.085442 273.555759 
L 156.963993 273.267631 
L 158.839294 280.322191 
L 160.725516 275.97318 
L 162.60822 273.163855 
L 164.508601 283.358071 
L 166.401226 275.139147 
L 168.287911 276.907719 
L 170.181937 275.757078 
L 172.0657 277.966021 
L 173.955619 280.700521 
L 175.856063 284.835765 
L 177.750468 279.012543 
L 179.643892 279.163685 
L 181.539181 281.034803 
L 183.425559 283.257903 
L 185.311195 276.334813 
L 187.203516 280.701236 
L 189.091496 284.250501 
L 190.97082 282.614406 
L 192.853579 283.434206 
L 194.751142 285.248094 
L 196.647433 283.002337 
L 198.532605 284.45522 
L 200.429269 283.110826 
L 202.311312 287.172004 
L 204.196518 285.30693 
L 206.078497 288.384455 
L 207.97189 287.169781 
L 209.867701 276.76984 
L 211.752621 285.087147 
L 213.652345 291.435152 
L 215.530124 288.767806 
L 217.413491 289.084501 
L 219.32151 287.119367 
L 221.219517 288.837012 
L 223.109156 291.67521 
L 224.994409 288.603387 
L 226.891849 291.673402 
L 228.782938 287.320155 
L 230.673409 288.237676 
L 232.557613 290.07732 
L 234.443731 290.504289 
L 236.335941 290.832647 
L 238.223775 294.586529 
L 240.110116 294.382894 
L 241.998044 295.006785 
L 243.893323 294.533561 
L 245.777082 290.735461 
L 247.663608 293.229404 
L 249.545231 294.608712 
L 251.439643 298.798113 
L 253.328988 296.340041 
L 255.222935 298.542069 
L 257.106317 298.502954 
L 259.000581 298.759989 
L 260.893136 298.296257 
L 262.783118 300.756138 
L 264.660953 299.084017 
L 266.55788 297.154901 
L 268.439741 300.643415 
L 270.339928 300.26453 
L 272.223711 300.171329 
L 274.115948 300.58093 
L 275.9975 301.483531 
L 277.890628 299.548473 
L 279.785546 302.175868 
L 281.660678 302.339285 
L 283.542228 301.854927 
L 285.426042 302.559669 
L 287.310634 302.785266 
L 289.191329 302.439363 
L 291.088656 302.754637 
L 292.974554 303.03958 
L 294.864063 303.150569 
L 296.750495 302.51003 
L 298.639101 303.12591 
L 300.534111 303.341977 
L 302.429976 303.119654 
L 304.319463 302.786717 
L 306.197824 303.449449 
L 308.081827 303.483606 
L 309.968861 303.537165 
L 311.860293 303.555929 
L 313.759701 303.646694 
L 315.652466 303.519711 
L 317.553596 303.491502 
L 319.443448 303.542481 
L 321.33995 303.543147 
L 323.218256 303.55468 
L 325.114945 303.688992 
L 327.011666 303.587844 
L 328.905807 303.556511 
L 330.811304 303.527363 
L 332.702241 303.524046 
L 334.590379 303.555365 
L 336.49547 303.562146 
L 338.380006 303.56476 
L 340.28117 303.487988 
L 342.177386 303.511356 
L 344.065587 303.528829 
L 345.948382 303.549431 
L 347.843556 303.541655 
L 347.843556 303.436092 
L 347.843556 303.436092 
L 345.948382 303.419191 
L 344.065587 303.38822 
L 342.177386 303.372192 
L 340.28117 303.35159 
L 338.380006 303.472031 
L 336.49547 303.381637 
L 334.590379 303.503642 
L 332.702241 303.423638 
L 330.811304 303.403504 
L 328.905807 303.50697 
L 327.011666 303.257576 
L 325.114945 303.032167 
L 323.218256 303.249348 
L 321.33995 303.432814 
L 319.443448 303.361366 
L 317.553596 303.234771 
L 315.652466 303.171165 
L 313.759701 303.004952 
L 311.860293 302.714824 
L 309.968861 302.777315 
L 308.081827 302.898052 
L 306.197824 303.21088 
L 304.319463 301.71433 
L 302.429976 302.807367 
L 300.534111 302.627537 
L 298.639101 300.752027 
L 296.750495 301.505612 
L 294.864063 300.886936 
L 292.974554 300.289038 
L 291.088656 300.29531 
L 289.191329 301.020171 
L 287.310634 300.892197 
L 285.426042 298.432995 
L 283.542228 300.584077 
L 281.660678 299.032992 
L 279.785546 300.790327 
L 277.890628 297.698307 
L 275.9975 298.303292 
L 274.115948 298.275989 
L 272.223711 295.765053 
L 270.339928 297.274233 
L 268.439741 295.367726 
L 266.55788 295.088669 
L 264.660953 295.151951 
L 262.783118 297.190273 
L 260.893136 290.872321 
L 259.000581 294.162055 
L 257.106317 293.6983 
L 255.222935 293.059703 
L 253.328988 291.042784 
L 251.439643 293.552659 
L 249.545231 286.799038 
L 247.663608 287.405365 
L 245.777082 279.074772 
L 243.893323 291.097365 
L 241.998044 291.041664 
L 240.110116 288.728796 
L 238.223775 287.092045 
L 236.335941 280.571504 
L 234.443731 285.97783 
L 232.557613 286.086016 
L 230.673409 282.492233 
L 228.782938 285.271676 
L 226.891849 286.910433 
L 224.994409 283.520143 
L 223.109156 284.203196 
L 221.219517 284.460093 
L 219.32151 281.748621 
L 217.413491 278.956906 
L 215.530124 282.723799 
L 213.652345 287.997832 
L 211.752621 280.779197 
L 209.867701 270.30802 
L 207.97189 285.055308 
L 206.078497 281.487842 
L 204.196518 277.766531 
L 202.311312 283.061393 
L 200.429269 274.557419 
L 198.532605 279.340441 
L 196.647433 277.819891 
L 194.751142 269.215389 
L 192.853579 275.875915 
L 190.97082 278.111905 
L 189.091496 273.220268 
L 187.203516 271.550509 
L 185.311195 273.671342 
L 183.425559 277.349922 
L 181.539181 279.460178 
L 179.643892 271.914486 
L 177.750468 271.704527 
L 175.856063 276.477333 
L 173.955619 274.011218 
L 172.0657 271.165595 
L 170.181937 263.410435 
L 168.287911 268.770878 
L 166.401226 268.65496 
L 164.508601 267.686246 
L 162.60822 266.409895 
L 160.725516 265.344006 
L 158.839294 272.070609 
L 156.963993 263.784062 
L 155.085442 265.352213 
L 153.201241 263.930686 
L 151.318308 266.928121 
L 149.428108 261.060989 
L 147.533838 264.669935 
L 145.646888 259.580255 
L 143.742166 258.702536 
L 141.854379 266.690736 
L 139.961456 266.758489 
L 138.073905 258.836288 
L 136.171779 254.757597 
L 134.276776 257.754461 
L 132.38121 252.307512 
L 130.473249 248.113459 
L 128.57996 256.204377 
L 126.695248 250.210422 
L 124.808975 253.89042 
L 122.918825 250.269126 
L 121.023894 250.709596 
L 119.122386 258.211577 
L 117.221305 257.13694 
L 115.334407 248.656273 
L 113.44589 244.823219 
L 111.553021 244.670614 
L 109.66985 247.317852 
L 107.772654 240.070414 
L 105.875656 244.969574 
L 103.984414 242.519716 
L 102.072656 239.343144 
L 100.186511 222.168721 
L 98.294422 227.566131 
L 96.395099 224.299578 
L 94.50674 216.767003 
L 92.623378 215.460144 
L 90.730719 208.991244 
L 88.837341 202.375096 
L 86.935836 211.190555 
L 85.044475 189.669808 
L 83.154286 177.732282 
L 81.253463 168.401542 
L 79.363882 162.216816 
L 77.461182 133.105952 
L 75.566276 118.769377 
L 73.683559 114.221198 
L 71.781131 96.949121 
L 69.888903 83.792299 
L 67.970384 65.598359 
L 66.005455 43.750405 
z
" style="fill:#ff7f0e;fill-opacity:0.25;"/>
   </g>
   <g id="PolyCollection_3">
    <path clip-path="url(#pa6140d5efe)" d="M 66.050245 54.187039 
L 66.050245 68.541899 
L 68.050349 85.748328 
L 69.992154 107.100925 
L 71.924564 113.468325 
L 73.854612 125.041495 
L 75.769689 159.06893 
L 77.702314 164.27275 
L 79.636094 179.864532 
L 81.568586 191.578754 
L 83.494278 208.069193 
L 85.41961 209.909139 
L 87.353275 220.084594 
L 89.27628 216.101408 
L 91.203441 236.374172 
L 93.136072 233.891601 
L 95.062788 235.185435 
L 96.989234 242.701863 
L 98.908268 241.828013 
L 100.829403 255.141824 
L 102.764961 255.101401 
L 104.686343 254.562197 
L 106.600372 259.300463 
L 108.530154 255.441355 
L 110.454292 254.296261 
L 112.375394 260.203765 
L 114.298638 272.109891 
L 116.225596 264.839844 
L 118.136486 269.323081 
L 120.049778 264.573454 
L 121.968076 265.767739 
L 123.885684 258.133195 
L 125.81231 258.139896 
L 127.734313 272.367855 
L 129.651464 267.873239 
L 131.569077 266.832092 
L 133.504075 264.424223 
L 135.421293 267.618323 
L 137.337794 264.179646 
L 139.266431 273.266676 
L 141.190729 272.755372 
L 143.104438 273.419262 
L 145.02461 272.382777 
L 146.943166 271.618508 
L 148.864715 272.707055 
L 150.786006 276.442291 
L 152.712839 274.156868 
L 154.642117 275.815928 
L 156.575861 279.278959 
L 158.488177 272.510955 
L 160.41315 280.099685 
L 162.341429 281.211652 
L 164.276071 279.390742 
L 166.206597 286.278001 
L 168.129683 276.926583 
L 170.047876 280.313671 
L 171.96267 276.122277 
L 173.879741 285.22811 
L 175.814749 276.699062 
L 177.737464 284.124495 
L 179.667236 278.565922 
L 181.587106 282.708698 
L 183.518453 283.854537 
L 185.436123 283.714153 
L 187.354154 278.617885 
L 189.28321 283.246545 
L 191.202793 284.379533 
L 193.121275 285.818189 
L 195.040197 282.566303 
L 196.959785 281.598882 
L 198.8878 289.818098 
L 200.812565 287.272497 
L 202.742195 285.337212 
L 204.670684 289.246052 
L 206.588364 287.22038 
L 208.508097 288.658983 
L 210.420504 290.127074 
L 212.348949 285.816085 
L 214.282326 291.887373 
L 216.201861 291.354707 
L 218.12374 288.539547 
L 220.046113 292.697258 
L 221.968548 290.910536 
L 223.895759 293.407263 
L 225.815058 292.502933 
L 227.737446 291.254937 
L 229.655182 291.485211 
L 231.574974 289.361987 
L 233.491857 293.239834 
L 235.415354 291.731717 
L 237.337018 291.490137 
L 239.256318 295.706608 
L 241.172326 295.63014 
L 243.095843 293.786426 
L 245.020238 296.982354 
L 246.935621 294.446283 
L 248.857259 294.013015 
L 250.776546 293.236176 
L 252.709742 293.82893 
L 254.633892 298.065668 
L 256.547557 298.104047 
L 258.470331 299.669048 
L 260.393269 299.289995 
L 262.312673 298.671334 
L 264.23838 300.007822 
L 266.164105 301.539464 
L 268.080873 299.22541 
L 269.999611 300.590898 
L 271.932648 301.897781 
L 273.862846 300.602392 
L 275.788505 300.830284 
L 277.704367 300.766473 
L 279.61925 300.524944 
L 281.543994 300.778673 
L 283.457082 302.4146 
L 285.372266 301.503685 
L 287.295686 301.548073 
L 289.21884 302.853931 
L 291.138531 301.753597 
L 293.060091 301.981282 
L 294.970589 302.814121 
L 296.892692 303.028884 
L 298.806134 303.013543 
L 300.725073 302.547513 
L 302.646982 303.237917 
L 304.560511 303.283979 
L 306.47791 303.411821 
L 308.410393 302.798705 
L 310.329814 303.303523 
L 312.246741 303.277767 
L 314.173732 303.294746 
L 316.096813 303.24015 
L 318.021231 303.418015 
L 319.93073 303.388097 
L 321.842048 303.454533 
L 323.767021 303.433593 
L 325.696152 303.380346 
L 327.62518 303.421115 
L 329.54945 303.600047 
L 331.470618 303.43724 
L 333.388324 303.395512 
L 335.30102 303.407985 
L 337.22595 303.717784 
L 339.143382 303.454146 
L 341.06066 303.480104 
L 342.98234 303.455478 
L 344.907288 303.440278 
L 346.834574 303.469667 
L 348.750455 303.439411 
L 350.667871 303.421516 
L 352.593437 303.478456 
L 352.593437 303.369872 
L 352.593437 303.369872 
L 350.667871 303.347116 
L 348.750455 303.203154 
L 346.834574 303.365306 
L 344.907288 303.191312 
L 342.98234 303.316417 
L 341.06066 303.235721 
L 339.143382 303.392552 
L 337.22595 302.379826 
L 335.30102 303.238503 
L 333.388324 303.136281 
L 331.470618 303.385258 
L 329.54945 302.951229 
L 327.62518 303.396798 
L 325.696152 302.463981 
L 323.767021 303.371978 
L 321.842048 303.224795 
L 319.93073 303.259009 
L 318.021231 302.826732 
L 316.096813 301.325957 
L 314.173732 303.006511 
L 312.246741 302.888342 
L 310.329814 302.293782 
L 308.410393 300.049709 
L 306.47791 302.068497 
L 304.560511 301.698857 
L 302.646982 302.667857 
L 300.725073 301.114434 
L 298.806134 300.906358 
L 296.892692 301.719537 
L 294.970589 301.15127 
L 293.060091 301.517394 
L 291.138531 299.631022 
L 289.21884 300.489938 
L 287.295686 298.826242 
L 285.372266 299.145335 
L 283.457082 298.080317 
L 281.543994 300.277289 
L 279.61925 297.044851 
L 277.704367 295.738359 
L 275.788505 298.408189 
L 273.862846 297.793984 
L 271.932648 297.522652 
L 269.999611 297.593191 
L 268.080873 295.830791 
L 266.164105 296.187607 
L 264.23838 297.505552 
L 262.312673 294.930593 
L 260.393269 294.375407 
L 258.470331 294.044312 
L 256.547557 294.837744 
L 254.633892 296.884741 
L 252.709742 289.057072 
L 250.776546 288.428293 
L 248.857259 291.764609 
L 246.935621 290.343957 
L 245.020238 293.805532 
L 243.095843 289.068544 
L 241.172326 284.338851 
L 239.256318 289.619641 
L 237.337018 284.929918 
L 235.415354 286.787232 
L 233.491857 283.422835 
L 231.574974 286.821097 
L 229.655182 286.159199 
L 227.737446 289.2952 
L 225.815058 291.31403 
L 223.895759 286.251408 
L 221.968548 280.104304 
L 220.046113 284.377291 
L 218.12374 285.231502 
L 216.201861 287.279907 
L 214.282326 286.07582 
L 212.348949 281.353604 
L 210.420504 287.618895 
L 208.508097 279.746345 
L 206.588364 281.895864 
L 204.670684 280.344135 
L 202.742195 278.966246 
L 200.812565 280.269576 
L 198.8878 283.129191 
L 196.959785 277.03982 
L 195.040197 273.454424 
L 193.121275 277.210134 
L 191.202793 273.649813 
L 189.28321 279.223202 
L 187.354154 276.060001 
L 185.436123 277.051654 
L 183.518453 280.488416 
L 181.587106 277.842705 
L 179.667236 273.138531 
L 177.737464 272.15013 
L 175.814749 265.413672 
L 173.879741 279.238971 
L 171.96267 265.482661 
L 170.047876 275.887606 
L 168.129683 272.1204 
L 166.206597 274.611933 
L 164.276071 269.927066 
L 162.341429 273.81605 
L 160.41315 273.511828 
L 158.488177 265.832798 
L 156.575861 271.0488 
L 154.642117 267.865335 
L 152.712839 270.483566 
L 150.786006 265.704297 
L 148.864715 264.86936 
L 146.943166 258.075772 
L 145.02461 266.412351 
L 143.104438 266.741276 
L 141.190729 261.526007 
L 139.266431 266.24501 
L 137.337794 260.57772 
L 135.421293 258.323902 
L 133.504075 255.458292 
L 131.569077 262.416454 
L 129.651464 264.602639 
L 127.734313 259.656649 
L 125.81231 247.749995 
L 123.885684 254.470898 
L 121.968076 260.738705 
L 120.049778 256.51649 
L 118.136486 251.0898 
L 116.225596 254.207627 
L 114.298638 252.387934 
L 112.375394 256.767381 
L 110.454292 249.68657 
L 108.530154 246.30717 
L 106.600372 244.704937 
L 104.686343 237.165803 
L 102.764961 247.25648 
L 100.829403 230.628026 
L 98.908268 229.655818 
L 96.989234 227.089312 
L 95.062788 216.121934 
L 93.136072 227.188036 
L 91.203441 221.365291 
L 89.27628 205.844017 
L 87.353275 214.882999 
L 85.41961 203.640711 
L 83.494278 193.428944 
L 81.568586 182.159821 
L 79.636094 170.944193 
L 77.702314 154.714038 
L 75.769689 135.13737 
L 73.854612 120.50658 
L 71.924564 105.132662 
L 69.992154 96.875513 
L 68.050349 80.809122 
L 66.050245 54.187039 
z
" style="fill:#2ca02c;fill-opacity:0.25;"/>
   </g>
   <g id="matplotlib.axis_1">
    <g id="xtick_1">
     <g id="line2d_1">
      <defs>
       <path d="M 0 0 
L 0 3.5 
" id="m652eb7a57a" style="stroke:#000000;stroke-width:0.8;"/>
      </defs>
      <g>
       <use style="stroke:#000000;stroke-width:0.8;" x="63.766217" xlink:href="#m652eb7a57a" y="303.64"/>
      </g>
     </g>
     <g id="text_1">
      <!-- 0 -->
      <g transform="translate(60.584967 318.238437)scale(0.1 -0.1)">
       <defs>
        <path d="M 31.78125 66.40625 
Q 24.171875 66.40625 20.328125 58.90625 
Q 16.5 51.421875 16.5 36.375 
Q 16.5 21.390625 20.328125 13.890625 
Q 24.171875 6.390625 31.78125 6.390625 
Q 39.453125 6.390625 43.28125 13.890625 
Q 47.125 21.390625 47.125 36.375 
Q 47.125 51.421875 43.28125 58.90625 
Q 39.453125 66.40625 31.78125 66.40625 
z
M 31.78125 74.21875 
Q 44.046875 74.21875 50.515625 64.515625 
Q 56.984375 54.828125 56.984375 36.375 
Q 56.984375 17.96875 50.515625 8.265625 
Q 44.046875 -1.421875 31.78125 -1.421875 
Q 19.53125 -1.421875 13.0625 8.265625 
Q 6.59375 17.96875 6.59375 36.375 
Q 6.59375 54.828125 13.0625 64.515625 
Q 19.53125 74.21875 31.78125 74.21875 
z
" id="DejaVuSans-48"/>
       </defs>
       <use xlink:href="#DejaVuSans-48"/>
      </g>
     </g>
    </g>
    <g id="xtick_2">
     <g id="line2d_2">
      <g>
       <use style="stroke:#000000;stroke-width:0.8;" x="120.717212" xlink:href="#m652eb7a57a" y="303.64"/>
      </g>
     </g>
     <g id="text_2">
      <!-- 2000 -->
      <g transform="translate(107.992212 318.238437)scale(0.1 -0.1)">
       <defs>
        <path d="M 19.1875 8.296875 
L 53.609375 8.296875 
L 53.609375 0 
L 7.328125 0 
L 7.328125 8.296875 
Q 12.9375 14.109375 22.625 23.890625 
Q 32.328125 33.6875 34.8125 36.53125 
Q 39.546875 41.84375 41.421875 45.53125 
Q 43.3125 49.21875 43.3125 52.78125 
Q 43.3125 58.59375 39.234375 62.25 
Q 35.15625 65.921875 28.609375 65.921875 
Q 23.96875 65.921875 18.8125 64.3125 
Q 13.671875 62.703125 7.8125 59.421875 
L 7.8125 69.390625 
Q 13.765625 71.78125 18.9375 73 
Q 24.125 74.21875 28.421875 74.21875 
Q 39.75 74.21875 46.484375 68.546875 
Q 53.21875 62.890625 53.21875 53.421875 
Q 53.21875 48.921875 51.53125 44.890625 
Q 49.859375 40.875 45.40625 35.40625 
Q 44.1875 33.984375 37.640625 27.21875 
Q 31.109375 20.453125 19.1875 8.296875 
z
" id="DejaVuSans-50"/>
       </defs>
       <use xlink:href="#DejaVuSans-50"/>
       <use x="63.623047" xlink:href="#DejaVuSans-48"/>
       <use x="127.246094" xlink:href="#DejaVuSans-48"/>
       <use x="190.869141" xlink:href="#DejaVuSans-48"/>
      </g>
     </g>
    </g>
    <g id="xtick_3">
     <g id="line2d_3">
      <g>
       <use style="stroke:#000000;stroke-width:0.8;" x="177.668206" xlink:href="#m652eb7a57a" y="303.64"/>
      </g>
     </g>
     <g id="text_3">
      <!-- 4000 -->
      <g transform="translate(164.943206 318.238437)scale(0.1 -0.1)">
       <defs>
        <path d="M 37.796875 64.3125 
L 12.890625 25.390625 
L 37.796875 25.390625 
z
M 35.203125 72.90625 
L 47.609375 72.90625 
L 47.609375 25.390625 
L 58.015625 25.390625 
L 58.015625 17.1875 
L 47.609375 17.1875 
L 47.609375 0 
L 37.796875 0 
L 37.796875 17.1875 
L 4.890625 17.1875 
L 4.890625 26.703125 
z
" id="DejaVuSans-52"/>
       </defs>
       <use xlink:href="#DejaVuSans-52"/>
       <use x="63.623047" xlink:href="#DejaVuSans-48"/>
       <use x="127.246094" xlink:href="#DejaVuSans-48"/>
       <use x="190.869141" xlink:href="#DejaVuSans-48"/>
      </g>
     </g>
    </g>
    <g id="xtick_4">
     <g id="line2d_4">
      <g>
       <use style="stroke:#000000;stroke-width:0.8;" x="234.619201" xlink:href="#m652eb7a57a" y="303.64"/>
      </g>
     </g>
     <g id="text_4">
      <!-- 6000 -->
      <g transform="translate(221.894201 318.238437)scale(0.1 -0.1)">
       <defs>
        <path d="M 33.015625 40.375 
Q 26.375 40.375 22.484375 35.828125 
Q 18.609375 31.296875 18.609375 23.390625 
Q 18.609375 15.53125 22.484375 10.953125 
Q 26.375 6.390625 33.015625 6.390625 
Q 39.65625 6.390625 43.53125 10.953125 
Q 47.40625 15.53125 47.40625 23.390625 
Q 47.40625 31.296875 43.53125 35.828125 
Q 39.65625 40.375 33.015625 40.375 
z
M 52.59375 71.296875 
L 52.59375 62.3125 
Q 48.875 64.0625 45.09375 64.984375 
Q 41.3125 65.921875 37.59375 65.921875 
Q 27.828125 65.921875 22.671875 59.328125 
Q 17.53125 52.734375 16.796875 39.40625 
Q 19.671875 43.65625 24.015625 45.921875 
Q 28.375 48.1875 33.59375 48.1875 
Q 44.578125 48.1875 50.953125 41.515625 
Q 57.328125 34.859375 57.328125 23.390625 
Q 57.328125 12.15625 50.6875 5.359375 
Q 44.046875 -1.421875 33.015625 -1.421875 
Q 20.359375 -1.421875 13.671875 8.265625 
Q 6.984375 17.96875 6.984375 36.375 
Q 6.984375 53.65625 15.1875 63.9375 
Q 23.390625 74.21875 37.203125 74.21875 
Q 40.921875 74.21875 44.703125 73.484375 
Q 48.484375 72.75 52.59375 71.296875 
z
" id="DejaVuSans-54"/>
       </defs>
       <use xlink:href="#DejaVuSans-54"/>
       <use x="63.623047" xlink:href="#DejaVuSans-48"/>
       <use x="127.246094" xlink:href="#DejaVuSans-48"/>
       <use x="190.869141" xlink:href="#DejaVuSans-48"/>
      </g>
     </g>
    </g>
    <g id="xtick_5">
     <g id="line2d_5">
      <g>
       <use style="stroke:#000000;stroke-width:0.8;" x="291.570196" xlink:href="#m652eb7a57a" y="303.64"/>
      </g>
     </g>
     <g id="text_5">
      <!-- 8000 -->
      <g transform="translate(278.845196 318.238437)scale(0.1 -0.1)">
       <defs>
        <path d="M 31.78125 34.625 
Q 24.75 34.625 20.71875 30.859375 
Q 16.703125 27.09375 16.703125 20.515625 
Q 16.703125 13.921875 20.71875 10.15625 
Q 24.75 6.390625 31.78125 6.390625 
Q 38.8125 6.390625 42.859375 10.171875 
Q 46.921875 13.96875 46.921875 20.515625 
Q 46.921875 27.09375 42.890625 30.859375 
Q 38.875 34.625 31.78125 34.625 
z
M 21.921875 38.8125 
Q 15.578125 40.375 12.03125 44.71875 
Q 8.5 49.078125 8.5 55.328125 
Q 8.5 64.0625 14.71875 69.140625 
Q 20.953125 74.21875 31.78125 74.21875 
Q 42.671875 74.21875 48.875 69.140625 
Q 55.078125 64.0625 55.078125 55.328125 
Q 55.078125 49.078125 51.53125 44.71875 
Q 48 40.375 41.703125 38.8125 
Q 48.828125 37.15625 52.796875 32.3125 
Q 56.78125 27.484375 56.78125 20.515625 
Q 56.78125 9.90625 50.3125 4.234375 
Q 43.84375 -1.421875 31.78125 -1.421875 
Q 19.734375 -1.421875 13.25 4.234375 
Q 6.78125 9.90625 6.78125 20.515625 
Q 6.78125 27.484375 10.78125 32.3125 
Q 14.796875 37.15625 21.921875 38.8125 
z
M 18.3125 54.390625 
Q 18.3125 48.734375 21.84375 45.5625 
Q 25.390625 42.390625 31.78125 42.390625 
Q 38.140625 42.390625 41.71875 45.5625 
Q 45.3125 48.734375 45.3125 54.390625 
Q 45.3125 60.0625 41.71875 63.234375 
Q 38.140625 66.40625 31.78125 66.40625 
Q 25.390625 66.40625 21.84375 63.234375 
Q 18.3125 60.0625 18.3125 54.390625 
z
" id="DejaVuSans-56"/>
       </defs>
       <use xlink:href="#DejaVuSans-56"/>
       <use x="63.623047" xlink:href="#DejaVuSans-48"/>
       <use x="127.246094" xlink:href="#DejaVuSans-48"/>
       <use x="190.869141" xlink:href="#DejaVuSans-48"/>
      </g>
     </g>
    </g>
    <g id="xtick_6">
     <g id="line2d_6">
      <g>
       <use style="stroke:#000000;stroke-width:0.8;" x="348.521191" xlink:href="#m652eb7a57a" y="303.64"/>
      </g>
     </g>
     <g id="text_6">
      <!-- 10000 -->
      <g transform="translate(332.614941 318.238437)scale(0.1 -0.1)">
       <defs>
        <path d="M 12.40625 8.296875 
L 28.515625 8.296875 
L 28.515625 63.921875 
L 10.984375 60.40625 
L 10.984375 69.390625 
L 28.421875 72.90625 
L 38.28125 72.90625 
L 38.28125 8.296875 
L 54.390625 8.296875 
L 54.390625 0 
L 12.40625 0 
z
" id="DejaVuSans-49"/>
       </defs>
       <use xlink:href="#DejaVuSans-49"/>
       <use x="63.623047" xlink:href="#DejaVuSans-48"/>
       <use x="127.246094" xlink:href="#DejaVuSans-48"/>
       <use x="190.869141" xlink:href="#DejaVuSans-48"/>
       <use x="254.492188" xlink:href="#DejaVuSans-48"/>
      </g>
     </g>
    </g>
    <g id="xtick_7">
     <g id="line2d_7">
      <g>
       <use style="stroke:#000000;stroke-width:0.8;" x="405.472186" xlink:href="#m652eb7a57a" y="303.64"/>
      </g>
     </g>
     <g id="text_7">
      <!-- 12000 -->
      <g transform="translate(389.565936 318.238437)scale(0.1 -0.1)">
       <use xlink:href="#DejaVuSans-49"/>
       <use x="63.623047" xlink:href="#DejaVuSans-50"/>
       <use x="127.246094" xlink:href="#DejaVuSans-48"/>
       <use x="190.869141" xlink:href="#DejaVuSans-48"/>
       <use x="254.492188" xlink:href="#DejaVuSans-48"/>
      </g>
     </g>
    </g>
    <g id="text_8">
     <!-- Time -->
     <g transform="translate(236.626406 331.916562)scale(0.1 -0.1)">
      <defs>
       <path d="M -0.296875 72.90625 
L 61.375 72.90625 
L 61.375 64.59375 
L 35.5 64.59375 
L 35.5 0 
L 25.59375 0 
L 25.59375 64.59375 
L -0.296875 64.59375 
z
" id="DejaVuSans-84"/>
       <path d="M 9.421875 54.6875 
L 18.40625 54.6875 
L 18.40625 0 
L 9.421875 0 
z
M 9.421875 75.984375 
L 18.40625 75.984375 
L 18.40625 64.59375 
L 9.421875 64.59375 
z
" id="DejaVuSans-105"/>
       <path d="M 52 44.1875 
Q 55.375 50.25 60.0625 53.125 
Q 64.75 56 71.09375 56 
Q 79.640625 56 84.28125 50.015625 
Q 88.921875 44.046875 88.921875 33.015625 
L 88.921875 0 
L 79.890625 0 
L 79.890625 32.71875 
Q 79.890625 40.578125 77.09375 44.375 
Q 74.3125 48.1875 68.609375 48.1875 
Q 61.625 48.1875 57.5625 43.546875 
Q 53.515625 38.921875 53.515625 30.90625 
L 53.515625 0 
L 44.484375 0 
L 44.484375 32.71875 
Q 44.484375 40.625 41.703125 44.40625 
Q 38.921875 48.1875 33.109375 48.1875 
Q 26.21875 48.1875 22.15625 43.53125 
Q 18.109375 38.875 18.109375 30.90625 
L 18.109375 0 
L 9.078125 0 
L 9.078125 54.6875 
L 18.109375 54.6875 
L 18.109375 46.1875 
Q 21.1875 51.21875 25.484375 53.609375 
Q 29.78125 56 35.6875 56 
Q 41.65625 56 45.828125 52.96875 
Q 50 49.953125 52 44.1875 
z
" id="DejaVuSans-109"/>
       <path d="M 56.203125 29.59375 
L 56.203125 25.203125 
L 14.890625 25.203125 
Q 15.484375 15.921875 20.484375 11.0625 
Q 25.484375 6.203125 34.421875 6.203125 
Q 39.59375 6.203125 44.453125 7.46875 
Q 49.3125 8.734375 54.109375 11.28125 
L 54.109375 2.78125 
Q 49.265625 0.734375 44.1875 -0.34375 
Q 39.109375 -1.421875 33.890625 -1.421875 
Q 20.796875 -1.421875 13.15625 6.1875 
Q 5.515625 13.8125 5.515625 26.8125 
Q 5.515625 40.234375 12.765625 48.109375 
Q 20.015625 56 32.328125 56 
Q 43.359375 56 49.78125 48.890625 
Q 56.203125 41.796875 56.203125 29.59375 
z
M 47.21875 32.234375 
Q 47.125 39.59375 43.09375 43.984375 
Q 39.0625 48.390625 32.421875 48.390625 
Q 24.90625 48.390625 20.390625 44.140625 
Q 15.875 39.890625 15.1875 32.171875 
z
" id="DejaVuSans-101"/>
      </defs>
      <use xlink:href="#DejaVuSans-84"/>
      <use x="57.958984" xlink:href="#DejaVuSans-105"/>
      <use x="85.742188" xlink:href="#DejaVuSans-109"/>
      <use x="183.154297" xlink:href="#DejaVuSans-101"/>
     </g>
    </g>
   </g>
   <g id="matplotlib.axis_2">
    <g id="ytick_1">
     <g id="line2d_8">
      <defs>
       <path d="M 0 0 
L -3.5 0 
" id="mf4c59af447" style="stroke:#000000;stroke-width:0.8;"/>
      </defs>
      <g>
       <use style="stroke:#000000;stroke-width:0.8;" x="47.72" xlink:href="#mf4c59af447" y="303.64"/>
      </g>
     </g>
     <g id="text_9">
      <!-- 0.0 -->
      <g transform="translate(24.816875 307.439219)scale(0.1 -0.1)">
       <defs>
        <path d="M 10.6875 12.40625 
L 21 12.40625 
L 21 0 
L 10.6875 0 
z
" id="DejaVuSans-46"/>
       </defs>
       <use xlink:href="#DejaVuSans-48"/>
       <use x="63.623047" xlink:href="#DejaVuSans-46"/>
       <use x="95.410156" xlink:href="#DejaVuSans-48"/>
      </g>
     </g>
    </g>
    <g id="ytick_2">
     <g id="line2d_9">
      <g>
       <use style="stroke:#000000;stroke-width:0.8;" x="47.72" xlink:href="#mf4c59af447" y="245.864"/>
      </g>
     </g>
     <g id="text_10">
      <!-- 0.5 -->
      <g transform="translate(24.816875 249.663219)scale(0.1 -0.1)">
       <defs>
        <path d="M 10.796875 72.90625 
L 49.515625 72.90625 
L 49.515625 64.59375 
L 19.828125 64.59375 
L 19.828125 46.734375 
Q 21.96875 47.46875 24.109375 47.828125 
Q 26.265625 48.1875 28.421875 48.1875 
Q 40.625 48.1875 47.75 41.5 
Q 54.890625 34.8125 54.890625 23.390625 
Q 54.890625 11.625 47.5625 5.09375 
Q 40.234375 -1.421875 26.90625 -1.421875 
Q 22.3125 -1.421875 17.546875 -0.640625 
Q 12.796875 0.140625 7.71875 1.703125 
L 7.71875 11.625 
Q 12.109375 9.234375 16.796875 8.0625 
Q 21.484375 6.890625 26.703125 6.890625 
Q 35.15625 6.890625 40.078125 11.328125 
Q 45.015625 15.765625 45.015625 23.390625 
Q 45.015625 31 40.078125 35.4375 
Q 35.15625 39.890625 26.703125 39.890625 
Q 22.75 39.890625 18.8125 39.015625 
Q 14.890625 38.140625 10.796875 36.28125 
z
" id="DejaVuSans-53"/>
       </defs>
       <use xlink:href="#DejaVuSans-48"/>
       <use x="63.623047" xlink:href="#DejaVuSans-46"/>
       <use x="95.410156" xlink:href="#DejaVuSans-53"/>
      </g>
     </g>
    </g>
    <g id="ytick_3">
     <g id="line2d_10">
      <g>
       <use style="stroke:#000000;stroke-width:0.8;" x="47.72" xlink:href="#mf4c59af447" y="188.088"/>
      </g>
     </g>
     <g id="text_11">
      <!-- 1.0 -->
      <g transform="translate(24.816875 191.887219)scale(0.1 -0.1)">
       <use xlink:href="#DejaVuSans-49"/>
       <use x="63.623047" xlink:href="#DejaVuSans-46"/>
       <use x="95.410156" xlink:href="#DejaVuSans-48"/>
      </g>
     </g>
    </g>
    <g id="ytick_4">
     <g id="line2d_11">
      <g>
       <use style="stroke:#000000;stroke-width:0.8;" x="47.72" xlink:href="#mf4c59af447" y="130.312"/>
      </g>
     </g>
     <g id="text_12">
      <!-- 1.5 -->
      <g transform="translate(24.816875 134.111219)scale(0.1 -0.1)">
       <use xlink:href="#DejaVuSans-49"/>
       <use x="63.623047" xlink:href="#DejaVuSans-46"/>
       <use x="95.410156" xlink:href="#DejaVuSans-53"/>
      </g>
     </g>
    </g>
    <g id="ytick_5">
     <g id="line2d_12">
      <g>
       <use style="stroke:#000000;stroke-width:0.8;" x="47.72" xlink:href="#mf4c59af447" y="72.536"/>
      </g>
     </g>
     <g id="text_13">
      <!-- 2.0 -->
      <g transform="translate(24.816875 76.335219)scale(0.1 -0.1)">
       <use xlink:href="#DejaVuSans-50"/>
       <use x="63.623047" xlink:href="#DejaVuSans-46"/>
       <use x="95.410156" xlink:href="#DejaVuSans-48"/>
      </g>
     </g>
    </g>
    <g id="ytick_6">
     <g id="line2d_13">
      <g>
       <use style="stroke:#000000;stroke-width:0.8;" x="47.72" xlink:href="#mf4c59af447" y="14.76"/>
      </g>
     </g>
     <g id="text_14">
      <!-- 2.5 -->
      <g transform="translate(24.816875 18.559219)scale(0.1 -0.1)">
       <use xlink:href="#DejaVuSans-50"/>
       <use x="63.623047" xlink:href="#DejaVuSans-46"/>
       <use x="95.410156" xlink:href="#DejaVuSans-53"/>
      </g>
     </g>
    </g>
    <g id="text_15">
     <!-- Loss -->
     <g transform="translate(18.737188 170.167187)rotate(-90)scale(0.1 -0.1)">
      <defs>
       <path d="M 9.8125 72.90625 
L 19.671875 72.90625 
L 19.671875 8.296875 
L 55.171875 8.296875 
L 55.171875 0 
L 9.8125 0 
z
" id="DejaVuSans-76"/>
       <path d="M 30.609375 48.390625 
Q 23.390625 48.390625 19.1875 42.75 
Q 14.984375 37.109375 14.984375 27.296875 
Q 14.984375 17.484375 19.15625 11.84375 
Q 23.34375 6.203125 30.609375 6.203125 
Q 37.796875 6.203125 41.984375 11.859375 
Q 46.1875 17.53125 46.1875 27.296875 
Q 46.1875 37.015625 41.984375 42.703125 
Q 37.796875 48.390625 30.609375 48.390625 
z
M 30.609375 56 
Q 42.328125 56 49.015625 48.375 
Q 55.71875 40.765625 55.71875 27.296875 
Q 55.71875 13.875 49.015625 6.21875 
Q 42.328125 -1.421875 30.609375 -1.421875 
Q 18.84375 -1.421875 12.171875 6.21875 
Q 5.515625 13.875 5.515625 27.296875 
Q 5.515625 40.765625 12.171875 48.375 
Q 18.84375 56 30.609375 56 
z
" id="DejaVuSans-111"/>
       <path d="M 44.28125 53.078125 
L 44.28125 44.578125 
Q 40.484375 46.53125 36.375 47.5 
Q 32.28125 48.484375 27.875 48.484375 
Q 21.1875 48.484375 17.84375 46.4375 
Q 14.5 44.390625 14.5 40.28125 
Q 14.5 37.15625 16.890625 35.375 
Q 19.28125 33.59375 26.515625 31.984375 
L 29.59375 31.296875 
Q 39.15625 29.25 43.1875 25.515625 
Q 47.21875 21.78125 47.21875 15.09375 
Q 47.21875 7.46875 41.1875 3.015625 
Q 35.15625 -1.421875 24.609375 -1.421875 
Q 20.21875 -1.421875 15.453125 -0.5625 
Q 10.6875 0.296875 5.421875 2 
L 5.421875 11.28125 
Q 10.40625 8.6875 15.234375 7.390625 
Q 20.0625 6.109375 24.8125 6.109375 
Q 31.15625 6.109375 34.5625 8.28125 
Q 37.984375 10.453125 37.984375 14.40625 
Q 37.984375 18.0625 35.515625 20.015625 
Q 33.0625 21.96875 24.703125 23.78125 
L 21.578125 24.515625 
Q 13.234375 26.265625 9.515625 29.90625 
Q 5.8125 33.546875 5.8125 39.890625 
Q 5.8125 47.609375 11.28125 51.796875 
Q 16.75 56 26.8125 56 
Q 31.78125 56 36.171875 55.265625 
Q 40.578125 54.546875 44.28125 53.078125 
z
" id="DejaVuSans-115"/>
      </defs>
      <use xlink:href="#DejaVuSans-76"/>
      <use x="53.962891" xlink:href="#DejaVuSans-111"/>
      <use x="115.144531" xlink:href="#DejaVuSans-115"/>
      <use x="167.244141" xlink:href="#DejaVuSans-115"/>
     </g>
    </g>
   </g>
   <g id="line2d_14">
    <path clip-path="url(#pa6140d5efe)" d="M 66.303472 65.900787 
L 68.760256 54.616412 
L 71.221591 94.314844 
L 73.683962 104.877019 
L 76.147543 116.341944 
L 78.598598 129.2287 
L 81.053457 141.415825 
L 83.510467 144.259487 
L 85.967074 154.663681 
L 88.433634 151.774881 
L 90.892611 171.308134 
L 93.346069 177.886925 
L 95.806805 183.924066 
L 98.258203 213.263441 
L 100.710859 206.741072 
L 103.174585 210.611612 
L 105.626258 224.468825 
L 108.083097 229.43395 
L 110.53834 220.541862 
L 112.991235 226.229187 
L 115.448881 211.491794 
L 117.900619 229.174409 
L 120.359384 241.011719 
L 122.811595 234.444212 
L 125.259262 252.437148 
L 127.708678 251.635958 
L 130.152034 251.77137 
L 132.604283 244.571939 
L 135.044578 257.526402 
L 137.500488 239.702731 
L 139.950166 250.157705 
L 142.396455 242.557678 
L 144.847338 256.318973 
L 147.289244 261.052769 
L 149.733315 253.853337 
L 152.178373 237.1976 
L 154.62199 251.054812 
L 157.071239 255.151041 
L 159.523218 250.626006 
L 161.968744 265.402895 
L 164.42135 252.860312 
L 166.87046 248.380416 
L 169.3232 259.952542 
L 171.778969 261.08098 
L 174.233305 256.719569 
L 176.684016 255.196178 
L 179.139497 263.794872 
L 181.59419 271.434394 
L 184.052076 254.208795 
L 186.50513 275.110279 
L 188.963816 265.143355 
L 191.418764 261.092264 
L 193.865447 246.851383 
L 196.30548 269.298826 
L 198.750072 272.749023 
L 201.204323 273.062165 
L 203.678129 274.232919 
L 206.152206 271.251023 
L 208.612641 276.503899 
L 211.077625 269.733274 
L 213.548712 274.49528 
L 216.011484 273.062165 
L 218.480329 270.531644 
L 220.944798 270.063342 
L 223.41483 276.94399 
L 225.882674 267.992659 
L 228.343602 274.08058 
L 230.804276 266.305645 
L 233.261635 276.523647 
L 235.706638 282.013495 
L 238.154785 274.475533 
L 240.60904 273.586888 
L 243.065526 271.047904 
L 245.512564 273.61792 
L 247.969471 284.470668 
L 250.418131 278.173987 
L 252.865727 274.464248 
L 255.317564 276.529289 
L 257.763332 276.450298 
L 260.211911 278.780522 
L 262.663185 278.915934 
L 265.112419 288.287608 
L 270.013479 273.426086 
L 272.461087 290.696822 
L 274.907352 282.74698 
L 277.352282 281.090998 
L 279.79968 289.102904 
L 282.251736 282.786475 
L 284.703464 286.48775 
L 287.149094 273.620741 
L 289.599055 288.022425 
L 292.047365 288.789762 
L 294.502035 285.166068 
L 296.952844 289.836388 
L 299.403838 286.380548 
L 301.851484 290.930973 
L 304.299677 289.535942 
L 306.75581 289.392066 
L 309.19923 287.094285 
L 311.646704 291.469802 
L 314.101115 296.609834 
L 316.554815 287.734673 
L 319.006319 292.948055 
L 321.457102 295.274752 
L 323.90967 297.124331 
L 326.361603 297.716408 
L 328.81203 295.397469 
L 331.262964 291.469802 
L 333.712121 290.765939 
L 336.161249 299.859734 
L 338.608543 298.023202 
L 341.058239 301.038952 
L 343.507312 299.192546 
L 345.95223 295.278278 
L 348.404385 296.439863 
L 350.857011 300.200381 
L 353.311387 297.339792 
L 355.760872 301.443955 
L 358.208387 300.804801 
L 363.109633 302.215877 
L 368.004694 302.010113 
L 370.455701 302.464309 
L 372.905994 303.13163 
L 375.358879 302.503628 
L 377.810392 302.41807 
L 380.26112 302.122957 
L 382.716087 303.229663 
L 385.17298 303.158166 
L 387.614602 302.712169 
L 390.062244 302.914847 
L 392.512194 302.889148 
L 394.965047 303.155213 
L 397.418712 303.165241 
L 399.867074 303.336049 
L 402.317274 302.94416 
L 404.769988 303.446204 
L 407.22455 303.299772 
L 409.668311 303.401441 
L 412.114673 303.31661 
L 417.013975 303.518913 
L 421.918083 303.433641 
L 424.367842 303.287804 
L 431.714545 303.356888 
L 431.714545 303.356888 
" style="fill:none;stroke:#1f77b4;stroke-linecap:square;stroke-width:1.5;"/>
   </g>
   <g id="line2d_15">
    <path clip-path="url(#pa6140d5efe)" d="M 66.005455 54.66155 
L 67.970384 74.228656 
L 69.888903 90.500725 
L 71.781131 104.6739 
L 73.683559 126.655862 
L 75.566276 125.121187 
L 77.461182 138.120787 
L 79.363882 164.458519 
L 81.253463 173.531156 
L 85.044475 195.253578 
L 86.935836 215.057656 
L 88.837341 211.830325 
L 90.730719 214.741694 
L 92.623378 221.523603 
L 94.50674 224.243137 
L 96.395099 227.696156 
L 100.186511 231.442569 
L 102.072656 241.5308 
L 103.984414 248.352205 
L 105.875656 251.585178 
L 107.772654 241.575937 
L 109.66985 249.864311 
L 111.553021 251.09995 
L 113.44589 251.929352 
L 115.334407 253.018294 
L 117.221305 262.536664 
L 119.122386 262.011941 
L 121.023894 255.777323 
L 122.918825 252.95623 
L 124.808975 255.771681 
L 126.695248 254.8915 
L 128.57996 263.298359 
L 130.473249 257.571539 
L 132.38121 254.688381 
L 134.276776 261.712905 
L 136.171779 257.498191 
L 138.073905 262.395609 
L 139.961456 270.593708 
L 141.854379 269.578114 
L 143.742166 263.06703 
L 145.646888 263.01625 
L 147.533838 270.407516 
L 149.428108 266.802158 
L 151.318308 269.312931 
L 153.201241 267.851605 
L 155.085442 269.453986 
L 156.963993 268.525846 
L 158.839294 276.1964 
L 160.725516 270.658593 
L 162.60822 269.786875 
L 164.508601 275.522159 
L 166.401226 271.897053 
L 168.287911 272.839298 
L 170.181937 269.583756 
L 172.0657 274.565808 
L 173.955619 277.35587 
L 175.856063 280.656549 
L 177.750468 275.358535 
L 179.643892 275.539085 
L 181.539181 280.247491 
L 183.425559 280.303912 
L 185.311195 275.003077 
L 187.203516 276.125873 
L 189.091496 278.735384 
L 190.97082 280.363155 
L 192.853579 279.655061 
L 194.751142 277.231741 
L 196.647433 280.411114 
L 198.532605 281.89783 
L 200.429269 278.834123 
L 202.311312 285.116698 
L 204.196518 281.53673 
L 206.078497 284.936148 
L 207.97189 286.112545 
L 209.867701 273.53893 
L 211.752621 282.933172 
L 213.652345 289.716492 
L 215.530124 285.745802 
L 217.413491 284.020704 
L 219.32151 284.433994 
L 221.219517 286.648552 
L 223.109156 287.939203 
L 224.994409 286.061765 
L 226.891849 289.291917 
L 228.782938 286.295916 
L 230.673409 285.364955 
L 232.557613 288.081668 
L 234.443731 288.24106 
L 236.335941 285.702075 
L 238.223775 290.839287 
L 240.110116 291.555845 
L 241.998044 293.024224 
L 243.893323 292.815463 
L 245.777082 284.905116 
L 247.663608 290.317385 
L 249.545231 290.703875 
L 251.439643 296.175386 
L 253.328988 293.691413 
L 255.222935 295.800886 
L 259.000581 296.461022 
L 260.893136 294.584289 
L 262.783118 298.973206 
L 264.660953 297.117984 
L 266.55788 296.121785 
L 268.439741 298.005571 
L 270.339928 298.769382 
L 272.223711 297.968191 
L 274.115948 299.42846 
L 275.9975 299.893411 
L 277.890628 298.62339 
L 279.785546 301.483098 
L 281.660678 300.686139 
L 283.542228 301.219502 
L 285.426042 300.496332 
L 287.310634 301.838732 
L 291.088656 301.524973 
L 292.974554 301.664309 
L 294.864063 302.018753 
L 298.639101 301.938969 
L 300.534111 302.984757 
L 302.429976 302.963511 
L 304.319463 302.250523 
L 306.197824 303.330165 
L 309.968861 303.15724 
L 311.860293 303.135377 
L 313.759701 303.325823 
L 338.380006 303.518395 
L 340.28117 303.419789 
L 347.843556 303.488873 
L 347.843556 303.488873 
" style="fill:none;stroke:#ff7f0e;stroke-linecap:square;stroke-width:1.5;"/>
   </g>
   <g id="line2d_16">
    <path clip-path="url(#pa6140d5efe)" d="M 66.050245 61.364469 
L 68.050349 83.278725 
L 69.992154 101.988219 
L 71.924564 109.300494 
L 73.854612 122.774037 
L 75.769689 147.10315 
L 77.702314 159.493394 
L 79.636094 175.404362 
L 81.568586 186.869287 
L 83.494278 200.749069 
L 85.41961 206.774925 
L 87.353275 217.483797 
L 89.27628 210.972712 
L 91.203441 228.869731 
L 93.136072 230.539819 
L 95.062788 225.653684 
L 96.989234 234.895587 
L 98.908268 235.741916 
L 100.829403 242.884925 
L 102.764961 251.178941 
L 104.686343 245.864 
L 106.600372 252.0027 
L 108.530154 250.874262 
L 110.454292 251.991416 
L 112.375394 258.485573 
L 114.298638 262.248912 
L 116.225596 259.523736 
L 118.136486 260.206441 
L 120.049778 260.544972 
L 121.968076 263.253222 
L 123.885684 256.302047 
L 125.81231 252.944945 
L 127.734313 266.012252 
L 129.651464 266.237939 
L 131.569077 264.624273 
L 133.504075 259.941258 
L 135.421293 262.971113 
L 137.337794 262.378683 
L 139.266431 269.755843 
L 141.190729 267.140689 
L 143.104438 270.080269 
L 145.02461 269.397564 
L 146.943166 264.84714 
L 148.864715 268.788208 
L 150.786006 271.073294 
L 152.712839 272.320217 
L 154.642117 271.840631 
L 156.575861 275.16388 
L 158.488177 269.171877 
L 160.41315 276.805756 
L 162.341429 277.513851 
L 164.276071 274.658904 
L 166.206597 280.444967 
L 168.129683 274.523491 
L 170.047876 278.100638 
L 171.96267 270.802469 
L 173.879741 282.233541 
L 175.814749 271.056367 
L 177.737464 278.137313 
L 179.667236 275.852227 
L 181.587106 280.275702 
L 183.518453 282.171477 
L 185.436123 280.382903 
L 187.354154 277.338943 
L 189.28321 281.234873 
L 191.202793 279.014673 
L 193.121275 281.514162 
L 195.040197 278.010363 
L 196.959785 279.319351 
L 198.8878 286.473645 
L 200.812565 283.771037 
L 202.742195 282.151729 
L 204.670684 284.795094 
L 206.588364 284.558122 
L 208.508097 284.202664 
L 210.420504 288.872985 
L 212.348949 283.584845 
L 214.282326 288.981597 
L 216.201861 289.317307 
L 218.12374 286.885524 
L 220.046113 288.537275 
L 221.968548 285.50742 
L 223.895759 289.829336 
L 225.815058 291.908482 
L 227.737446 290.275068 
L 229.655182 288.822205 
L 231.574974 288.091542 
L 233.491857 288.331335 
L 235.415354 289.259475 
L 237.337018 288.210028 
L 239.256318 292.663124 
L 241.172326 289.984496 
L 243.095843 291.427485 
L 245.020238 295.393943 
L 246.935621 292.39512 
L 248.857259 292.888812 
L 250.776546 290.832234 
L 252.709742 291.443001 
L 254.633892 297.475205 
L 256.547557 296.470896 
L 258.470331 296.85668 
L 262.312673 296.800963 
L 264.23838 298.756687 
L 266.164105 298.863536 
L 268.080873 297.5281 
L 269.999611 299.092044 
L 271.932648 299.710216 
L 273.862846 299.198188 
L 275.788505 299.619236 
L 277.704367 298.252416 
L 279.61925 298.784898 
L 281.543994 300.527981 
L 283.457082 300.247458 
L 285.372266 300.32451 
L 287.295686 300.187158 
L 289.21884 301.671934 
L 291.138531 300.69231 
L 293.060091 301.749338 
L 294.970589 301.982696 
L 296.892692 302.37421 
L 298.806134 301.959951 
L 300.725073 301.830974 
L 302.646982 302.952887 
L 304.560511 302.491418 
L 306.47791 302.740159 
L 308.410393 301.424207 
L 310.329814 302.798653 
L 312.246741 303.083054 
L 314.173732 303.150628 
L 316.096813 302.283054 
L 318.021231 303.122373 
L 319.93073 303.323553 
L 323.767021 303.402786 
L 325.696152 302.922164 
L 327.62518 303.408957 
L 329.54945 303.275638 
L 331.470618 303.411249 
L 333.388324 303.265897 
L 335.30102 303.323244 
L 337.22595 303.048805 
L 339.143382 303.423349 
L 344.907288 303.315795 
L 346.834574 303.417486 
L 348.750455 303.321283 
L 352.593437 303.424164 
L 352.593437 303.424164 
" style="fill:none;stroke:#2ca02c;stroke-linecap:square;stroke-width:1.5;"/>
   </g>
   <g id="patch_3">
    <path d="M 47.72 303.64 
L 47.72 14.76 
" style="fill:none;stroke:#000000;stroke-linecap:square;stroke-linejoin:miter;stroke-width:0.8;"/>
   </g>
   <g id="patch_4">
    <path d="M 450 303.64 
L 450 14.76 
" style="fill:none;stroke:#000000;stroke-linecap:square;stroke-linejoin:miter;stroke-width:0.8;"/>
   </g>
   <g id="patch_5">
    <path d="M 47.72 303.64 
L 450 303.64 
" style="fill:none;stroke:#000000;stroke-linecap:square;stroke-linejoin:miter;stroke-width:0.8;"/>
   </g>
   <g id="patch_6">
    <path d="M 47.72 14.76 
L 450 14.76 
" style="fill:none;stroke:#000000;stroke-linecap:square;stroke-linejoin:miter;stroke-width:0.8;"/>
   </g>
   <g id="legend_1">
    <g id="patch_7">
     <path d="M 361.492188 66.794375 
L 443 66.794375 
Q 445 66.794375 445 64.794375 
L 445 21.76 
Q 445 19.76 443 19.76 
L 361.492188 19.76 
Q 359.492188 19.76 359.492188 21.76 
L 359.492188 64.794375 
Q 359.492188 66.794375 361.492188 66.794375 
z
" style="fill:#ffffff;opacity:0.8;stroke:#cccccc;stroke-linejoin:miter;"/>
    </g>
    <g id="line2d_17">
     <path d="M 363.492188 27.858437 
L 383.492188 27.858437 
" style="fill:none;stroke:#1f77b4;stroke-linecap:square;stroke-width:1.5;"/>
    </g>
    <g id="line2d_18"/>
    <g id="text_16">
     <!-- Sync-SGD -->
     <g transform="translate(391.492188 31.358437)scale(0.1 -0.1)">
      <defs>
       <path d="M 53.515625 70.515625 
L 53.515625 60.890625 
Q 47.90625 63.578125 42.921875 64.890625 
Q 37.9375 66.21875 33.296875 66.21875 
Q 25.25 66.21875 20.875 63.09375 
Q 16.5 59.96875 16.5 54.203125 
Q 16.5 49.359375 19.40625 46.890625 
Q 22.3125 44.4375 30.421875 42.921875 
L 36.375 41.703125 
Q 47.40625 39.59375 52.65625 34.296875 
Q 57.90625 29 57.90625 20.125 
Q 57.90625 9.515625 50.796875 4.046875 
Q 43.703125 -1.421875 29.984375 -1.421875 
Q 24.8125 -1.421875 18.96875 -0.25 
Q 13.140625 0.921875 6.890625 3.21875 
L 6.890625 13.375 
Q 12.890625 10.015625 18.65625 8.296875 
Q 24.421875 6.59375 29.984375 6.59375 
Q 38.421875 6.59375 43.015625 9.90625 
Q 47.609375 13.234375 47.609375 19.390625 
Q 47.609375 24.75 44.3125 27.78125 
Q 41.015625 30.8125 33.5 32.328125 
L 27.484375 33.5 
Q 16.453125 35.6875 11.515625 40.375 
Q 6.59375 45.0625 6.59375 53.421875 
Q 6.59375 63.09375 13.40625 68.65625 
Q 20.21875 74.21875 32.171875 74.21875 
Q 37.3125 74.21875 42.625 73.28125 
Q 47.953125 72.359375 53.515625 70.515625 
z
" id="DejaVuSans-83"/>
       <path d="M 32.171875 -5.078125 
Q 28.375 -14.84375 24.75 -17.8125 
Q 21.140625 -20.796875 15.09375 -20.796875 
L 7.90625 -20.796875 
L 7.90625 -13.28125 
L 13.1875 -13.28125 
Q 16.890625 -13.28125 18.9375 -11.515625 
Q 21 -9.765625 23.484375 -3.21875 
L 25.09375 0.875 
L 2.984375 54.6875 
L 12.5 54.6875 
L 29.59375 11.921875 
L 46.6875 54.6875 
L 56.203125 54.6875 
z
" id="DejaVuSans-121"/>
       <path d="M 54.890625 33.015625 
L 54.890625 0 
L 45.90625 0 
L 45.90625 32.71875 
Q 45.90625 40.484375 42.875 44.328125 
Q 39.84375 48.1875 33.796875 48.1875 
Q 26.515625 48.1875 22.3125 43.546875 
Q 18.109375 38.921875 18.109375 30.90625 
L 18.109375 0 
L 9.078125 0 
L 9.078125 54.6875 
L 18.109375 54.6875 
L 18.109375 46.1875 
Q 21.34375 51.125 25.703125 53.5625 
Q 30.078125 56 35.796875 56 
Q 45.21875 56 50.046875 50.171875 
Q 54.890625 44.34375 54.890625 33.015625 
z
" id="DejaVuSans-110"/>
       <path d="M 48.78125 52.59375 
L 48.78125 44.1875 
Q 44.96875 46.296875 41.140625 47.34375 
Q 37.3125 48.390625 33.40625 48.390625 
Q 24.65625 48.390625 19.8125 42.84375 
Q 14.984375 37.3125 14.984375 27.296875 
Q 14.984375 17.28125 19.8125 11.734375 
Q 24.65625 6.203125 33.40625 6.203125 
Q 37.3125 6.203125 41.140625 7.25 
Q 44.96875 8.296875 48.78125 10.40625 
L 48.78125 2.09375 
Q 45.015625 0.34375 40.984375 -0.53125 
Q 36.96875 -1.421875 32.421875 -1.421875 
Q 20.0625 -1.421875 12.78125 6.34375 
Q 5.515625 14.109375 5.515625 27.296875 
Q 5.515625 40.671875 12.859375 48.328125 
Q 20.21875 56 33.015625 56 
Q 37.15625 56 41.109375 55.140625 
Q 45.0625 54.296875 48.78125 52.59375 
z
" id="DejaVuSans-99"/>
       <path d="M 4.890625 31.390625 
L 31.203125 31.390625 
L 31.203125 23.390625 
L 4.890625 23.390625 
z
" id="DejaVuSans-45"/>
       <path d="M 59.515625 10.40625 
L 59.515625 29.984375 
L 43.40625 29.984375 
L 43.40625 38.09375 
L 69.28125 38.09375 
L 69.28125 6.78125 
Q 63.578125 2.734375 56.6875 0.65625 
Q 49.8125 -1.421875 42 -1.421875 
Q 24.90625 -1.421875 15.25 8.5625 
Q 5.609375 18.5625 5.609375 36.375 
Q 5.609375 54.25 15.25 64.234375 
Q 24.90625 74.21875 42 74.21875 
Q 49.125 74.21875 55.546875 72.453125 
Q 61.96875 70.703125 67.390625 67.28125 
L 67.390625 56.78125 
Q 61.921875 61.421875 55.765625 63.765625 
Q 49.609375 66.109375 42.828125 66.109375 
Q 29.4375 66.109375 22.71875 58.640625 
Q 16.015625 51.171875 16.015625 36.375 
Q 16.015625 21.625 22.71875 14.15625 
Q 29.4375 6.6875 42.828125 6.6875 
Q 48.046875 6.6875 52.140625 7.59375 
Q 56.25 8.5 59.515625 10.40625 
z
" id="DejaVuSans-71"/>
       <path d="M 19.671875 64.796875 
L 19.671875 8.109375 
L 31.59375 8.109375 
Q 46.6875 8.109375 53.6875 14.9375 
Q 60.6875 21.78125 60.6875 36.53125 
Q 60.6875 51.171875 53.6875 57.984375 
Q 46.6875 64.796875 31.59375 64.796875 
z
M 9.8125 72.90625 
L 30.078125 72.90625 
Q 51.265625 72.90625 61.171875 64.09375 
Q 71.09375 55.28125 71.09375 36.53125 
Q 71.09375 17.671875 61.125 8.828125 
Q 51.171875 0 30.078125 0 
L 9.8125 0 
z
" id="DejaVuSans-68"/>
      </defs>
      <use xlink:href="#DejaVuSans-83"/>
      <use x="63.476562" xlink:href="#DejaVuSans-121"/>
      <use x="122.65625" xlink:href="#DejaVuSans-110"/>
      <use x="186.035156" xlink:href="#DejaVuSans-99"/>
      <use x="241.015625" xlink:href="#DejaVuSans-45"/>
      <use x="277.099609" xlink:href="#DejaVuSans-83"/>
      <use x="340.576172" xlink:href="#DejaVuSans-71"/>
      <use x="418.066406" xlink:href="#DejaVuSans-68"/>
     </g>
    </g>
    <g id="line2d_19">
     <path d="M 363.492188 42.536563 
L 383.492188 42.536563 
" style="fill:none;stroke:#ff7f0e;stroke-linecap:square;stroke-width:1.5;"/>
    </g>
    <g id="line2d_20"/>
    <g id="text_17">
     <!-- DP-SGD -->
     <g transform="translate(391.492188 46.036563)scale(0.1 -0.1)">
      <defs>
       <path d="M 19.671875 64.796875 
L 19.671875 37.40625 
L 32.078125 37.40625 
Q 38.96875 37.40625 42.71875 40.96875 
Q 46.484375 44.53125 46.484375 51.125 
Q 46.484375 57.671875 42.71875 61.234375 
Q 38.96875 64.796875 32.078125 64.796875 
z
M 9.8125 72.90625 
L 32.078125 72.90625 
Q 44.34375 72.90625 50.609375 67.359375 
Q 56.890625 61.8125 56.890625 51.125 
Q 56.890625 40.328125 50.609375 34.8125 
Q 44.34375 29.296875 32.078125 29.296875 
L 19.671875 29.296875 
L 19.671875 0 
L 9.8125 0 
z
" id="DejaVuSans-80"/>
      </defs>
      <use xlink:href="#DejaVuSans-68"/>
      <use x="77.001953" xlink:href="#DejaVuSans-80"/>
      <use x="135.054688" xlink:href="#DejaVuSans-45"/>
      <use x="171.138672" xlink:href="#DejaVuSans-83"/>
      <use x="234.615234" xlink:href="#DejaVuSans-71"/>
      <use x="312.105469" xlink:href="#DejaVuSans-68"/>
     </g>
    </g>
    <g id="line2d_21">
     <path d="M 363.492188 57.214687 
L 383.492188 57.214687 
" style="fill:none;stroke:#2ca02c;stroke-linecap:square;stroke-width:1.5;"/>
    </g>
    <g id="line2d_22"/>
    <g id="text_18">
     <!-- EDP-SGD -->
     <g transform="translate(391.492188 60.714687)scale(0.1 -0.1)">
      <defs>
       <path d="M 9.8125 72.90625 
L 55.90625 72.90625 
L 55.90625 64.59375 
L 19.671875 64.59375 
L 19.671875 43.015625 
L 54.390625 43.015625 
L 54.390625 34.71875 
L 19.671875 34.71875 
L 19.671875 8.296875 
L 56.78125 8.296875 
L 56.78125 0 
L 9.8125 0 
z
" id="DejaVuSans-69"/>
      </defs>
      <use xlink:href="#DejaVuSans-69"/>
      <use x="63.183594" xlink:href="#DejaVuSans-68"/>
      <use x="140.185547" xlink:href="#DejaVuSans-80"/>
      <use x="198.238281" xlink:href="#DejaVuSans-45"/>
      <use x="234.322266" xlink:href="#DejaVuSans-83"/>
      <use x="297.798828" xlink:href="#DejaVuSans-71"/>
      <use x="375.289062" xlink:href="#DejaVuSans-68"/>
     </g>
    </g>
   </g>
  </g>
 </g>
 <defs>
  <clipPath id="pa6140d5efe">
   <rect height="288.88" width="402.28" x="47.72" y="14.76"/>
  </clipPath>
 </defs>
</svg>
