<?xml version="1.0" encoding="utf-8" standalone="no"?>
<!DOCTYPE svg PUBLIC "-//W3C//DTD SVG 1.1//EN"
  "http://www.w3.org/Graphics/SVG/1.1/DTD/svg11.dtd">
<!-- Created with matplotlib (https://matplotlib.org/) -->
<svg height="345.6pt" version="1.1" viewBox="0 0 460.8 345.6" width="460.8pt" xmlns="http://www.w3.org/2000/svg" xmlns:xlink="http://www.w3.org/1999/xlink">
 <metadata>
  <rdf:RDF xmlns:cc="http://creativecommons.org/ns#" xmlns:dc="http://purl.org/dc/elements/1.1/" xmlns:rdf="http://www.w3.org/1999/02/22-rdf-syntax-ns#">
   <cc:Work>
    <dc:type rdf:resource="http://purl.org/dc/dcmitype/StillImage"/>
    <dc:date>2021-06-24T12:03:23.721483</dc:date>
    <dc:format>image/svg+xml</dc:format>
    <dc:creator>
     <cc:Agent>
      <dc:title>Matplotlib v3.3.1, https://matplotlib.org/</dc:title>
     </cc:Agent>
    </dc:creator>
   </cc:Work>
  </rdf:RDF>
 </metadata>
 <defs>
  <style type="text/css">*{stroke-linecap:butt;stroke-linejoin:round;}</style>
 </defs>
 <g id="figure_1">
  <g id="patch_1">
   <path d="M 0 345.6 
L 460.8 345.6 
L 460.8 0 
L 0 0 
z
" style="fill:#ffffff;"/>
  </g>
  <g id="axes_1">
   <g id="patch_2">
    <path d="M 47.72 303.64 
L 450 303.64 
L 450 14.76 
L 47.72 14.76 
z
" style="fill:#ffffff;"/>
   </g>
   <g id="PolyCollection_1">
    <path clip-path="url(#p17e1839b6d)" d="M 66.005455 41.932775 
L 66.005455 44.279925 
L 68.354341 40.468971 
L 70.66125 69.776112 
L 72.992646 83.509995 
L 75.342737 98.028149 
L 77.679564 105.905558 
L 80.03598 127.975456 
L 82.378739 137.0531 
L 84.737944 174.233233 
L 87.109442 178.521391 
L 89.506063 207.298113 
L 91.869004 210.630066 
L 94.184725 208.679437 
L 96.527845 235.722876 
L 98.856044 226.024225 
L 101.202064 227.877668 
L 103.537392 246.147331 
L 105.875036 241.498055 
L 108.222095 230.76173 
L 110.601179 246.712924 
L 112.94438 237.539962 
L 115.299496 244.458549 
L 117.645963 249.198392 
L 119.98825 249.507133 
L 122.308282 263.793625 
L 124.640961 261.135709 
L 126.971717 257.908673 
L 129.31029 252.159443 
L 131.626672 264.121004 
L 133.968306 242.629194 
L 136.297478 262.066854 
L 138.620983 256.18221 
L 140.945423 260.751913 
L 143.279241 263.098489 
L 145.613976 262.64698 
L 147.947528 246.710885 
L 150.270056 271.92823 
L 152.618685 258.890854 
L 154.955069 258.966937 
L 157.286714 260.550491 
L 159.588765 258.989209 
L 161.968818 253.344319 
L 164.270476 269.159221 
L 166.584553 269.204499 
L 168.893396 265.09261 
L 171.24553 261.499218 
L 173.575009 271.393878 
L 175.884958 269.773453 
L 178.214569 262.819092 
L 180.587191 275.796661 
L 182.905118 271.284319 
L 185.239595 274.258743 
L 187.5534 259.375998 
L 189.871074 272.354395 
L 192.201905 275.983483 
L 194.52505 283.576745 
L 196.857839 281.939952 
L 199.20459 268.994335 
L 201.538789 277.648342 
L 203.871166 279.610501 
L 206.208628 276.207536 
L 208.564108 277.737973 
L 210.875916 284.805397 
L 213.194038 275.210282 
L 215.526139 278.668346 
L 217.861081 274.30302 
L 220.198416 282.684216 
L 222.516426 259.882522 
L 224.860776 281.828597 
L 227.184451 284.828666 
L 229.522547 274.406612 
L 231.846071 281.540252 
L 234.169864 276.590152 
L 236.495287 279.814992 
L 238.838798 287.426138 
L 241.177316 283.271786 
L 243.534884 284.551783 
L 245.880728 282.60832 
L 248.17975 280.196922 
L 250.508751 282.359966 
L 252.824334 283.050097 
L 255.16307 290.897377 
L 257.496963 292.532351 
L 259.80819 280.342028 
L 262.15974 292.293434 
L 264.473762 283.765379 
L 266.831882 288.677288 
L 269.169189 295.600027 
L 271.483399 284.249217 
L 273.818548 291.804664 
L 276.165536 282.728809 
L 278.471966 285.161908 
L 280.800592 294.292969 
L 283.124821 290.863766 
L 285.456019 293.933673 
L 287.784668 293.084159 
L 290.114718 289.399575 
L 292.464161 289.439074 
L 294.803037 289.41922 
L 297.133192 294.207396 
L 299.449286 292.086519 
L 301.788245 297.897073 
L 304.083493 296.053671 
L 306.407968 293.184097 
L 308.743558 297.298224 
L 311.077032 300.481312 
L 313.407485 301.264745 
L 315.736987 298.633936 
L 318.071881 298.717032 
L 320.395164 295.261343 
L 322.723473 301.834788 
L 325.045771 301.594321 
L 327.379289 301.897632 
L 329.715706 300.994205 
L 332.033254 300.266258 
L 334.370549 299.558236 
L 336.722998 302.321665 
L 339.074125 296.844263 
L 341.415321 303.432475 
L 343.72992 302.632279 
L 346.056945 302.57016 
L 348.365811 302.318911 
L 350.685195 303.140085 
L 353.014402 303.053853 
L 355.349391 303.113452 
L 357.669675 303.258262 
L 359.987079 303.356742 
L 362.331823 303.594301 
L 364.664318 303.115037 
L 366.969139 303.43061 
L 369.285395 303.384614 
L 371.597815 303.462819 
L 373.909806 303.711556 
L 376.22968 303.587699 
L 378.533616 303.548813 
L 380.853495 303.558449 
L 383.182966 303.421431 
L 385.50019 303.564705 
L 387.812084 303.747305 
L 390.143304 303.487575 
L 392.483346 303.638258 
L 394.820914 303.519462 
L 397.161677 303.526739 
L 399.481971 303.648867 
L 401.841182 303.556265 
L 404.179836 303.60909 
L 406.512909 303.528782 
L 408.853258 303.548821 
L 411.200253 303.450701 
L 413.544222 303.608558 
L 413.544222 303.063695 
L 413.544222 303.063695 
L 411.200253 303.278965 
L 408.853258 303.460949 
L 406.512909 303.413634 
L 404.179836 302.931232 
L 401.841182 303.336584 
L 399.481971 303.227496 
L 397.161677 303.470005 
L 394.820914 302.993862 
L 392.483346 302.241775 
L 390.143304 303.261597 
L 387.812084 302.510136 
L 385.50019 302.666134 
L 383.182966 302.998444 
L 380.853495 301.896832 
L 378.533616 303.239435 
L 376.22968 301.778365 
L 373.909806 302.087634 
L 371.597815 302.306926 
L 369.285395 303.1057 
L 366.969139 302.350067 
L 364.664318 302.033979 
L 362.331823 302.379268 
L 359.987079 302.014877 
L 357.669675 302.299593 
L 355.349391 301.733972 
L 353.014402 301.600238 
L 350.685195 301.298985 
L 348.365811 301.055637 
L 346.056945 296.845688 
L 343.72992 298.968859 
L 341.415321 301.147121 
L 339.074125 292.911102 
L 336.722998 300.933692 
L 334.370549 291.64294 
L 332.033254 297.187167 
L 329.715706 296.39363 
L 327.379289 300.353768 
L 325.045771 298.899186 
L 322.723473 298.802418 
L 320.395164 286.744478 
L 318.071881 291.839524 
L 315.736987 291.349939 
L 313.407485 297.62638 
L 311.077032 294.622848 
L 308.743558 288.937827 
L 306.407968 285.676205 
L 304.083493 290.268424 
L 301.788245 293.937439 
L 299.449286 290.350929 
L 297.133192 289.505187 
L 294.803037 284.230521 
L 292.464161 285.889218 
L 290.114718 283.048381 
L 287.784668 287.849647 
L 285.456019 289.660424 
L 283.124821 284.049825 
L 280.800592 289.501426 
L 278.471966 278.882009 
L 276.165536 272.406094 
L 273.818548 288.079694 
L 271.483399 277.881999 
L 269.169189 290.705141 
L 266.831882 279.57288 
L 264.473762 274.523507 
L 262.15974 285.068867 
L 259.80819 273.574163 
L 257.496963 285.075385 
L 255.16307 286.29848 
L 252.824334 276.880665 
L 250.508751 268.3966 
L 248.17975 275.564264 
L 245.880728 278.727348 
L 243.534884 274.369028 
L 241.177316 277.781772 
L 238.838798 280.330339 
L 236.495287 270.614326 
L 234.169864 272.191648 
L 231.846071 270.418099 
L 229.522547 267.429655 
L 227.184451 274.399644 
L 224.860776 271.844979 
L 222.516426 256.129453 
L 220.198416 277.449665 
L 217.861081 264.571099 
L 215.526139 273.290006 
L 213.194038 270.050793 
L 210.875916 276.022473 
L 208.564108 274.022902 
L 206.208628 270.582572 
L 203.871166 270.299736 
L 201.538789 265.519481 
L 199.20459 263.944202 
L 196.857839 270.768811 
L 194.52505 275.564111 
L 192.201905 264.871043 
L 189.871074 263.365741 
L 187.5534 251.97553 
L 185.239595 269.642565 
L 182.905118 266.122831 
L 180.587191 270.338953 
L 178.214569 251.624355 
L 175.884958 259.915184 
L 173.575009 263.192179 
L 171.24553 254.659453 
L 168.893396 255.88449 
L 166.584553 260.439001 
L 164.270476 259.987766 
L 161.968818 245.504122 
L 159.588765 250.624526 
L 157.286714 256.939737 
L 154.955069 253.039084 
L 152.618685 251.241962 
L 150.270056 267.589098 
L 147.947528 239.453918 
L 145.613976 249.641151 
L 143.279241 260.135486 
L 140.945423 255.542172 
L 138.620983 253.284827 
L 136.297478 254.599615 
L 133.968306 237.611312 
L 131.626672 261.324709 
L 129.31029 240.696995 
L 126.971717 251.874327 
L 124.640961 253.917095 
L 122.308282 259.914294 
L 119.98825 241.645364 
L 117.645963 247.844549 
L 115.299496 237.406907 
L 112.94438 226.699301 
L 110.601179 238.763532 
L 108.222095 224.224345 
L 105.875036 231.610727 
L 103.537392 238.97931 
L 101.202064 219.006226 
L 98.856044 217.04555 
L 96.527845 228.358405 
L 94.184725 203.583995 
L 91.869004 197.638697 
L 89.506063 192.845899 
L 87.109442 168.495784 
L 84.737944 162.35718 
L 82.378739 123.661175 
L 80.03598 115.767119 
L 77.679564 97.393817 
L 75.342737 91.368876 
L 72.992646 74.381055 
L 70.66125 57.872813 
L 68.354341 34.188529 
L 66.005455 41.932775 
z
" style="fill:#1f77b4;fill-opacity:0.25;"/>
   </g>
   <g id="PolyCollection_2">
    <path clip-path="url(#p17e1839b6d)" d="M 66.015095 41.166244 
L 66.015095 46.220031 
L 68.338923 55.707316 
L 70.738186 63.060991 
L 73.184579 94.655574 
L 75.548756 121.691653 
L 77.967676 125.757527 
L 80.386999 150.162748 
L 82.800908 167.985443 
L 85.241297 202.731348 
L 87.64331 218.52169 
L 90.022696 221.907183 
L 92.452172 229.39566 
L 94.832159 232.952393 
L 97.232756 234.984175 
L 99.585299 247.337955 
L 101.971086 240.646882 
L 104.391328 247.49331 
L 106.855326 247.113509 
L 109.220017 258.565112 
L 111.62235 254.001745 
L 114.031194 263.691381 
L 116.407511 262.535845 
L 118.836284 258.146286 
L 121.293538 264.820182 
L 123.738691 266.348308 
L 126.083479 264.423754 
L 128.549478 263.614462 
L 130.933275 266.326146 
L 133.350864 269.455449 
L 135.74178 272.291822 
L 138.14635 271.502006 
L 140.487167 274.171744 
L 142.900742 270.355127 
L 145.286501 273.926769 
L 147.736873 274.053357 
L 150.120231 274.870687 
L 152.547922 274.659127 
L 154.94537 274.021901 
L 157.319027 267.400733 
L 159.737156 278.811079 
L 162.082678 274.915066 
L 164.484942 274.04463 
L 166.933178 274.274655 
L 169.309965 279.202951 
L 171.695476 282.978366 
L 174.065508 281.802201 
L 176.463393 279.448353 
L 178.824027 277.75424 
L 181.233467 280.693695 
L 183.633152 276.479114 
L 185.952721 282.121891 
L 188.314395 282.828814 
L 190.680946 281.915707 
L 193.075965 284.953443 
L 195.487831 284.380293 
L 197.904122 284.395848 
L 200.281831 280.451852 
L 202.691836 286.570162 
L 205.139471 280.471259 
L 207.52493 282.675349 
L 209.989629 280.908479 
L 212.398322 281.488037 
L 214.768207 282.014734 
L 217.143032 283.719867 
L 219.492215 284.894603 
L 221.89306 284.402044 
L 224.372801 286.473073 
L 226.778202 284.289004 
L 229.200865 285.52714 
L 231.620951 284.260536 
L 233.973594 285.027531 
L 236.34596 290.839612 
L 238.715659 289.690348 
L 241.08657 290.774818 
L 243.495099 292.051956 
L 245.887592 288.385779 
L 248.326125 288.745522 
L 250.736207 289.215478 
L 253.101583 293.028928 
L 255.480687 290.457518 
L 257.879751 293.362305 
L 260.237053 293.442235 
L 262.591351 292.488268 
L 264.976324 293.899777 
L 267.329535 291.887656 
L 269.769783 291.295863 
L 272.190124 293.136917 
L 274.580781 293.321507 
L 276.98586 290.118137 
L 279.390355 297.235448 
L 281.817574 295.752356 
L 284.243361 293.032986 
L 286.654445 296.579652 
L 289.034512 296.71732 
L 291.473375 296.099636 
L 293.889374 296.867241 
L 296.295297 297.614404 
L 298.659508 298.460229 
L 301.025146 299.631711 
L 303.433786 294.722338 
L 305.847096 296.849079 
L 308.255506 297.910291 
L 310.630376 300.174241 
L 313.024713 299.45093 
L 315.45923 300.110768 
L 317.850459 298.760827 
L 320.226357 299.800506 
L 322.592463 299.107246 
L 324.9768 301.518726 
L 327.377729 300.244529 
L 329.812924 300.165051 
L 332.193369 301.042347 
L 334.550664 300.747663 
L 336.951594 301.85836 
L 339.368734 302.371456 
L 341.784185 301.74954 
L 344.235927 301.90594 
L 346.65289 301.871411 
L 349.055338 302.789379 
L 351.410404 302.259944 
L 353.820619 303.284554 
L 356.217238 303.009683 
L 358.636204 303.917441 
L 361.024022 303.148023 
L 363.36906 303.030935 
L 365.763498 303.402574 
L 368.204459 303.370313 
L 370.582366 303.333386 
L 372.999325 303.14045 
L 375.388705 303.456812 
L 377.754832 303.627142 
L 380.084507 303.739197 
L 382.458302 303.639734 
L 384.897191 303.523355 
L 387.289911 303.579125 
L 389.684716 303.49357 
L 392.107331 303.923217 
L 394.488187 303.937726 
L 396.902237 303.521538 
L 399.306981 303.526946 
L 401.760406 303.52362 
L 404.149193 303.551348 
L 406.600546 303.542713 
L 408.958116 303.802248 
L 411.334553 303.536701 
L 413.712096 303.527168 
L 416.182826 303.547169 
L 418.56171 303.653531 
L 420.959595 303.614575 
L 423.377974 303.549434 
L 423.377974 303.058044 
L 423.377974 303.058044 
L 420.959595 302.621929 
L 418.56171 302.044122 
L 416.182826 303.404592 
L 413.712096 303.372204 
L 411.334553 303.460066 
L 408.958116 302.568324 
L 406.600546 303.282143 
L 404.149193 303.491327 
L 401.760406 303.422345 
L 399.306981 303.39634 
L 396.902237 303.419049 
L 394.488187 302.012833 
L 392.107331 302.135206 
L 389.684716 303.312706 
L 387.289911 303.274449 
L 384.897191 302.896564 
L 382.458302 303.145341 
L 380.084507 301.501725 
L 377.754832 301.97607 
L 375.388705 303.269724 
L 372.999325 301.303998 
L 370.582366 301.802715 
L 368.204459 302.786759 
L 365.763498 303.002666 
L 363.36906 301.78766 
L 361.024022 300.780076 
L 358.636204 300.774646 
L 356.217238 300.296895 
L 353.820619 301.010729 
L 351.410404 300.255581 
L 349.055338 300.779825 
L 346.65289 299.751591 
L 344.235927 299.864816 
L 341.784185 299.165367 
L 339.368734 301.076618 
L 336.951594 300.559133 
L 334.550664 297.561964 
L 332.193369 297.329344 
L 329.812924 295.752994 
L 327.377729 294.030229 
L 324.9768 299.554868 
L 322.592463 294.965804 
L 320.226357 295.910893 
L 317.850459 294.443326 
L 315.45923 296.903977 
L 313.024713 295.018484 
L 310.630376 296.978738 
L 308.255506 293.989106 
L 305.847096 292.223582 
L 303.433786 288.902791 
L 301.025146 295.70942 
L 298.659508 288.947986 
L 296.295297 291.304507 
L 293.889374 293.302825 
L 291.473375 290.841689 
L 289.034512 285.64819 
L 286.654445 293.522708 
L 284.243361 287.522793 
L 281.817574 288.398907 
L 279.390355 288.777736 
L 276.98586 282.005393 
L 274.580781 286.828034 
L 272.190124 284.606231 
L 269.769783 287.395173 
L 267.329535 286.247624 
L 264.976324 287.113019 
L 262.591351 289.534479 
L 260.237053 283.996235 
L 257.879751 291.458968 
L 255.480687 288.464847 
L 253.101583 284.954013 
L 250.736207 284.205755 
L 248.326125 285.640525 
L 245.887592 282.279245 
L 243.495099 285.183395 
L 241.08657 281.543367 
L 238.715659 285.31916 
L 236.34596 276.076179 
L 233.973594 278.344966 
L 231.620951 277.413663 
L 229.200865 274.115871 
L 226.778202 276.674279 
L 224.372801 285.108807 
L 221.89306 280.69132 
L 219.492215 274.844326 
L 217.143032 277.886625 
L 214.768207 275.512456 
L 212.398322 271.64389 
L 209.989629 266.158096 
L 207.52493 277.294909 
L 205.139471 271.148562 
L 202.691836 277.92513 
L 200.281831 268.092976 
L 197.904122 277.520964 
L 195.487831 266.274713 
L 193.075965 277.730707 
L 190.680946 273.269976 
L 188.314395 268.085733 
L 185.952721 268.72495 
L 183.633152 273.177225 
L 181.233467 269.318102 
L 178.824027 271.631274 
L 176.463393 269.987941 
L 174.065508 274.46114 
L 171.695476 275.208961 
L 169.309965 268.061101 
L 166.933178 267.352852 
L 164.484942 266.409301 
L 162.082678 267.491062 
L 159.737156 271.262781 
L 157.319027 261.520567 
L 154.94537 265.34873 
L 152.547922 269.845895 
L 150.120231 263.134535 
L 147.736873 262.016594 
L 145.286501 261.708734 
L 142.900742 261.06002 
L 140.487167 265.007053 
L 138.14635 264.404322 
L 135.74178 263.648359 
L 133.350864 260.966673 
L 130.933275 257.291498 
L 128.549478 255.873101 
L 126.083479 261.518471 
L 123.738691 257.923829 
L 121.293538 247.298683 
L 118.836284 252.381483 
L 116.407511 251.343383 
L 114.031194 248.890144 
L 111.62235 247.002011 
L 109.220017 241.423051 
L 106.855326 239.513954 
L 104.391328 239.348555 
L 101.971086 234.380243 
L 99.585299 228.975589 
L 97.232756 221.401162 
L 94.832159 214.766545 
L 92.452172 215.479615 
L 90.022696 194.666879 
L 87.64331 164.537778 
L 85.241297 140.020333 
L 82.800908 116.877394 
L 80.386999 95.746427 
L 77.967676 69.101136 
L 75.548756 64.410334 
L 73.184579 55.968339 
L 70.738186 40.394234 
L 68.338923 39.623159 
L 66.015095 41.166244 
z
" style="fill:#ff7f0e;fill-opacity:0.25;"/>
   </g>
   <g id="PolyCollection_3">
    <path clip-path="url(#p17e1839b6d)" d="M 66.037275 14.702146 
L 66.037275 36.664404 
L 68.454653 73.937611 
L 70.970697 89.87592 
L 73.420319 111.47425 
L 75.880399 141.735598 
L 78.331787 161.912664 
L 80.765554 199.097451 
L 83.213632 207.116097 
L 85.678709 225.702976 
L 88.144038 235.792058 
L 90.576243 232.654088 
L 93.048754 246.107106 
L 95.482474 251.333952 
L 97.88559 251.121464 
L 100.396978 260.032923 
L 102.848956 261.236727 
L 105.336556 258.546749 
L 107.801751 262.946749 
L 110.258667 263.248595 
L 112.705405 266.189251 
L 115.119334 264.350001 
L 117.579082 264.092519 
L 120.013393 272.778011 
L 122.430034 269.593924 
L 124.904652 270.148145 
L 127.311582 275.51332 
L 129.793705 275.252602 
L 132.240632 267.682174 
L 134.711608 275.520766 
L 137.140431 276.368604 
L 139.567305 273.693171 
L 142.021443 277.407493 
L 144.432336 272.771248 
L 146.906267 272.566344 
L 149.364382 275.369443 
L 151.829114 271.605859 
L 154.282612 275.037443 
L 156.714822 274.792202 
L 159.186815 277.863825 
L 161.645991 281.50498 
L 164.097345 275.638163 
L 166.539133 274.874345 
L 169.036675 274.006787 
L 171.473758 277.138703 
L 173.954835 278.476228 
L 176.396134 281.482745 
L 178.791952 282.660009 
L 181.210392 280.416217 
L 183.628321 282.352729 
L 186.093124 284.068755 
L 188.589045 283.196162 
L 190.997182 288.843573 
L 193.447384 285.220357 
L 195.902232 286.151194 
L 198.343078 283.815407 
L 200.766751 286.169853 
L 203.169129 283.018622 
L 205.652797 284.495801 
L 208.13151 287.171776 
L 210.54703 287.943966 
L 213.003049 289.122406 
L 215.45129 284.690738 
L 217.937576 287.642394 
L 220.436869 282.36165 
L 222.873188 283.148184 
L 225.332722 285.740439 
L 227.8019 287.157827 
L 230.22249 289.493953 
L 232.623641 284.646997 
L 235.069626 283.698692 
L 237.548392 286.004142 
L 240.060085 293.910538 
L 242.527414 290.315004 
L 244.987019 286.993778 
L 247.468153 293.011316 
L 249.946739 292.982954 
L 252.468991 289.239413 
L 254.924521 293.29986 
L 257.394917 289.169854 
L 259.852918 293.638938 
L 262.314107 293.203052 
L 264.750183 291.519394 
L 267.224616 288.533918 
L 269.683166 291.857217 
L 272.10924 288.780228 
L 274.59771 293.645977 
L 277.059221 292.768379 
L 279.526813 293.118497 
L 281.968323 294.84832 
L 284.363357 292.928608 
L 286.827783 295.773921 
L 289.269153 295.402621 
L 291.703763 293.99317 
L 294.191857 294.450777 
L 296.654915 292.597481 
L 299.124494 296.265713 
L 301.564179 297.955998 
L 304.005273 295.433393 
L 306.4291 299.658815 
L 308.878564 298.143983 
L 311.314051 297.750677 
L 313.739857 298.699608 
L 316.15179 299.630212 
L 318.607449 298.25118 
L 321.08045 300.999553 
L 323.573597 298.138867 
L 326.020762 299.190698 
L 328.509441 299.146524 
L 330.962803 300.086964 
L 333.39759 299.950779 
L 335.8167 301.377636 
L 338.297541 301.675063 
L 340.8407 301.673356 
L 343.313976 301.090791 
L 345.752071 300.764485 
L 348.244145 301.358377 
L 350.662149 302.337291 
L 353.080516 302.414586 
L 355.538757 302.656346 
L 357.950041 302.410851 
L 360.4318 302.933324 
L 362.888842 303.031314 
L 365.348267 302.838076 
L 367.738669 303.357284 
L 370.187819 302.846226 
L 372.645252 303.219587 
L 375.113156 303.045615 
L 377.588227 303.274102 
L 380.09738 303.305997 
L 382.575575 303.387792 
L 385.052039 303.298428 
L 387.483862 303.332219 
L 389.95586 303.770979 
L 392.422063 303.43451 
L 394.904313 303.474171 
L 397.386837 303.442587 
L 399.854761 303.460798 
L 402.30416 303.736071 
L 404.77093 303.508843 
L 407.233856 303.433406 
L 409.686311 303.458187 
L 412.13333 303.410759 
L 414.593598 303.55057 
L 417.073844 303.563898 
L 419.539363 303.465704 
L 421.985561 303.444054 
L 424.427692 303.872047 
L 426.918549 303.537628 
L 429.351622 303.45431 
L 431.714545 303.622884 
L 431.714545 302.566631 
L 431.714545 302.566631 
L 429.351622 303.408873 
L 426.918549 303.020392 
L 424.427692 301.921104 
L 421.985561 303.088356 
L 419.539363 303.361555 
L 417.073844 302.952159 
L 414.593598 302.368605 
L 412.13333 303.360122 
L 409.686311 303.146735 
L 407.233856 303.391472 
L 404.77093 302.98059 
L 402.30416 302.3715 
L 399.854761 303.406265 
L 397.386837 303.320933 
L 394.904313 303.164692 
L 392.422063 302.66257 
L 389.95586 302.049722 
L 387.483862 302.50153 
L 385.052039 302.244043 
L 382.575575 301.127007 
L 380.09738 302.550056 
L 377.588227 302.765586 
L 375.113156 302.501 
L 372.645252 301.104436 
L 370.187819 301.213495 
L 367.738669 301.480531 
L 365.348267 298.460148 
L 362.888842 300.761638 
L 360.4318 300.981816 
L 357.950041 299.415269 
L 355.538757 300.438209 
L 353.080516 300.33368 
L 350.662149 300.293547 
L 348.244145 300.554492 
L 345.752071 299.286462 
L 343.313976 299.024337 
L 340.8407 297.038277 
L 338.297541 296.403235 
L 335.8167 298.308685 
L 333.39759 297.364413 
L 330.962803 296.599123 
L 328.509441 293.568169 
L 326.020762 297.733066 
L 323.573597 296.536487 
L 321.08045 298.409596 
L 318.607449 295.314072 
L 316.15179 291.190822 
L 313.739857 292.432452 
L 311.314051 293.947011 
L 308.878564 295.206867 
L 306.4291 294.488994 
L 304.005273 287.063298 
L 301.564179 293.312885 
L 299.124494 290.863214 
L 296.654915 287.944193 
L 294.191857 289.749855 
L 291.703763 288.03522 
L 289.269153 290.992821 
L 286.827783 289.56079 
L 284.363357 289.796592 
L 281.968323 293.761682 
L 279.526813 287.795561 
L 277.059221 283.770162 
L 274.59771 285.282031 
L 272.10924 284.889261 
L 269.683166 283.589562 
L 267.224616 283.970459 
L 264.750183 281.422253 
L 262.314107 286.56 
L 259.852918 286.022554 
L 257.394917 281.072006 
L 254.924521 285.281154 
L 252.468991 283.693771 
L 249.946739 284.734805 
L 247.468153 286.935107 
L 244.987019 285.74475 
L 242.527414 279.486766 
L 240.060085 286.380058 
L 237.548392 280.076605 
L 235.069626 281.62036 
L 232.623641 276.163946 
L 230.22249 280.412197 
L 227.8019 282.900662 
L 225.332722 281.451819 
L 222.873188 276.173222 
L 220.436869 278.725761 
L 217.937576 276.435376 
L 215.45129 279.855334 
L 213.003049 276.622631 
L 210.54703 279.485264 
L 208.13151 277.111934 
L 205.652797 280.439582 
L 203.169129 279.580895 
L 200.766751 278.669613 
L 198.343078 274.857148 
L 195.902232 276.831991 
L 193.447384 278.705074 
L 190.997182 274.675621 
L 188.589045 272.55374 
L 186.093124 274.468387 
L 183.628321 274.982628 
L 181.210392 272.963966 
L 178.791952 276.791168 
L 176.396134 271.835373 
L 173.954835 274.599277 
L 171.473758 273.832266 
L 169.036675 269.776035 
L 166.539133 268.158066 
L 164.097345 264.516732 
L 161.645991 276.129412 
L 159.186815 264.81877 
L 156.714822 267.896036 
L 154.282612 268.954139 
L 151.829114 266.162391 
L 149.364382 268.921176 
L 146.906267 265.03264 
L 144.432336 269.99598 
L 142.021443 267.627894 
L 139.567305 262.500908 
L 137.140431 262.759414 
L 134.711608 268.436964 
L 132.240632 264.015082 
L 129.793705 268.050634 
L 127.311582 262.604745 
L 124.904652 263.783417 
L 122.430034 261.381132 
L 120.013393 261.881394 
L 117.579082 262.007687 
L 115.119334 254.990865 
L 112.705405 257.191421 
L 110.258667 251.048155 
L 107.801751 248.867439 
L 105.336556 247.975066 
L 102.848956 252.360392 
L 100.396978 235.294793 
L 97.88559 241.644698 
L 95.482474 242.707345 
L 93.048754 233.174228 
L 90.576243 222.783362 
L 88.144038 218.96833 
L 85.678709 213.19158 
L 83.213632 188.356184 
L 80.765554 183.104406 
L 78.331787 149.445886 
L 75.880399 121.145277 
L 73.420319 102.071338 
L 70.970697 78.351617 
L 68.454653 47.256652 
L 66.037275 14.702146 
z
" style="fill:#2ca02c;fill-opacity:0.25;"/>
   </g>
   <g id="matplotlib.axis_1">
    <g id="xtick_1">
     <g id="line2d_1">
      <defs>
       <path d="M 0 0 
L 0 3.5 
" id="m7f963ac602" style="stroke:#000000;stroke-width:0.8;"/>
      </defs>
      <g>
       <use style="stroke:#000000;stroke-width:0.8;" x="63.253264" xlink:href="#m7f963ac602" y="303.64"/>
      </g>
     </g>
     <g id="text_1">
      <!-- 0 -->
      <g transform="translate(60.072014 318.238437)scale(0.1 -0.1)">
       <defs>
        <path d="M 31.78125 66.40625 
Q 24.171875 66.40625 20.328125 58.90625 
Q 16.5 51.421875 16.5 36.375 
Q 16.5 21.390625 20.328125 13.890625 
Q 24.171875 6.390625 31.78125 6.390625 
Q 39.453125 6.390625 43.28125 13.890625 
Q 47.125 21.390625 47.125 36.375 
Q 47.125 51.421875 43.28125 58.90625 
Q 39.453125 66.40625 31.78125 66.40625 
z
M 31.78125 74.21875 
Q 44.046875 74.21875 50.515625 64.515625 
Q 56.984375 54.828125 56.984375 36.375 
Q 56.984375 17.96875 50.515625 8.265625 
Q 44.046875 -1.421875 31.78125 -1.421875 
Q 19.53125 -1.421875 13.0625 8.265625 
Q 6.59375 17.96875 6.59375 36.375 
Q 6.59375 54.828125 13.0625 64.515625 
Q 19.53125 74.21875 31.78125 74.21875 
z
" id="DejaVuSans-48"/>
       </defs>
       <use xlink:href="#DejaVuSans-48"/>
      </g>
     </g>
    </g>
    <g id="xtick_2">
     <g id="line2d_2">
      <g>
       <use style="stroke:#000000;stroke-width:0.8;" x="146.274886" xlink:href="#m7f963ac602" y="303.64"/>
      </g>
     </g>
     <g id="text_2">
      <!-- 500 -->
      <g transform="translate(136.731136 318.238437)scale(0.1 -0.1)">
       <defs>
        <path d="M 10.796875 72.90625 
L 49.515625 72.90625 
L 49.515625 64.59375 
L 19.828125 64.59375 
L 19.828125 46.734375 
Q 21.96875 47.46875 24.109375 47.828125 
Q 26.265625 48.1875 28.421875 48.1875 
Q 40.625 48.1875 47.75 41.5 
Q 54.890625 34.8125 54.890625 23.390625 
Q 54.890625 11.625 47.5625 5.09375 
Q 40.234375 -1.421875 26.90625 -1.421875 
Q 22.3125 -1.421875 17.546875 -0.640625 
Q 12.796875 0.140625 7.71875 1.703125 
L 7.71875 11.625 
Q 12.109375 9.234375 16.796875 8.0625 
Q 21.484375 6.890625 26.703125 6.890625 
Q 35.15625 6.890625 40.078125 11.328125 
Q 45.015625 15.765625 45.015625 23.390625 
Q 45.015625 31 40.078125 35.4375 
Q 35.15625 39.890625 26.703125 39.890625 
Q 22.75 39.890625 18.8125 39.015625 
Q 14.890625 38.140625 10.796875 36.28125 
z
" id="DejaVuSans-53"/>
       </defs>
       <use xlink:href="#DejaVuSans-53"/>
       <use x="63.623047" xlink:href="#DejaVuSans-48"/>
       <use x="127.246094" xlink:href="#DejaVuSans-48"/>
      </g>
     </g>
    </g>
    <g id="xtick_3">
     <g id="line2d_3">
      <g>
       <use style="stroke:#000000;stroke-width:0.8;" x="229.296508" xlink:href="#m7f963ac602" y="303.64"/>
      </g>
     </g>
     <g id="text_3">
      <!-- 1000 -->
      <g transform="translate(216.571508 318.238437)scale(0.1 -0.1)">
       <defs>
        <path d="M 12.40625 8.296875 
L 28.515625 8.296875 
L 28.515625 63.921875 
L 10.984375 60.40625 
L 10.984375 69.390625 
L 28.421875 72.90625 
L 38.28125 72.90625 
L 38.28125 8.296875 
L 54.390625 8.296875 
L 54.390625 0 
L 12.40625 0 
z
" id="DejaVuSans-49"/>
       </defs>
       <use xlink:href="#DejaVuSans-49"/>
       <use x="63.623047" xlink:href="#DejaVuSans-48"/>
       <use x="127.246094" xlink:href="#DejaVuSans-48"/>
       <use x="190.869141" xlink:href="#DejaVuSans-48"/>
      </g>
     </g>
    </g>
    <g id="xtick_4">
     <g id="line2d_4">
      <g>
       <use style="stroke:#000000;stroke-width:0.8;" x="312.31813" xlink:href="#m7f963ac602" y="303.64"/>
      </g>
     </g>
     <g id="text_4">
      <!-- 1500 -->
      <g transform="translate(299.59313 318.238437)scale(0.1 -0.1)">
       <use xlink:href="#DejaVuSans-49"/>
       <use x="63.623047" xlink:href="#DejaVuSans-53"/>
       <use x="127.246094" xlink:href="#DejaVuSans-48"/>
       <use x="190.869141" xlink:href="#DejaVuSans-48"/>
      </g>
     </g>
    </g>
    <g id="xtick_5">
     <g id="line2d_5">
      <g>
       <use style="stroke:#000000;stroke-width:0.8;" x="395.339752" xlink:href="#m7f963ac602" y="303.64"/>
      </g>
     </g>
     <g id="text_5">
      <!-- 2000 -->
      <g transform="translate(382.614752 318.238437)scale(0.1 -0.1)">
       <defs>
        <path d="M 19.1875 8.296875 
L 53.609375 8.296875 
L 53.609375 0 
L 7.328125 0 
L 7.328125 8.296875 
Q 12.9375 14.109375 22.625 23.890625 
Q 32.328125 33.6875 34.8125 36.53125 
Q 39.546875 41.84375 41.421875 45.53125 
Q 43.3125 49.21875 43.3125 52.78125 
Q 43.3125 58.59375 39.234375 62.25 
Q 35.15625 65.921875 28.609375 65.921875 
Q 23.96875 65.921875 18.8125 64.3125 
Q 13.671875 62.703125 7.8125 59.421875 
L 7.8125 69.390625 
Q 13.765625 71.78125 18.9375 73 
Q 24.125 74.21875 28.421875 74.21875 
Q 39.75 74.21875 46.484375 68.546875 
Q 53.21875 62.890625 53.21875 53.421875 
Q 53.21875 48.921875 51.53125 44.890625 
Q 49.859375 40.875 45.40625 35.40625 
Q 44.1875 33.984375 37.640625 27.21875 
Q 31.109375 20.453125 19.1875 8.296875 
z
" id="DejaVuSans-50"/>
       </defs>
       <use xlink:href="#DejaVuSans-50"/>
       <use x="63.623047" xlink:href="#DejaVuSans-48"/>
       <use x="127.246094" xlink:href="#DejaVuSans-48"/>
       <use x="190.869141" xlink:href="#DejaVuSans-48"/>
      </g>
     </g>
    </g>
    <g id="text_6">
     <!-- Time (sec) -->
     <g transform="translate(222.705312 331.916562)scale(0.1 -0.1)">
      <defs>
       <path d="M -0.296875 72.90625 
L 61.375 72.90625 
L 61.375 64.59375 
L 35.5 64.59375 
L 35.5 0 
L 25.59375 0 
L 25.59375 64.59375 
L -0.296875 64.59375 
z
" id="DejaVuSans-84"/>
       <path d="M 9.421875 54.6875 
L 18.40625 54.6875 
L 18.40625 0 
L 9.421875 0 
z
M 9.421875 75.984375 
L 18.40625 75.984375 
L 18.40625 64.59375 
L 9.421875 64.59375 
z
" id="DejaVuSans-105"/>
       <path d="M 52 44.1875 
Q 55.375 50.25 60.0625 53.125 
Q 64.75 56 71.09375 56 
Q 79.640625 56 84.28125 50.015625 
Q 88.921875 44.046875 88.921875 33.015625 
L 88.921875 0 
L 79.890625 0 
L 79.890625 32.71875 
Q 79.890625 40.578125 77.09375 44.375 
Q 74.3125 48.1875 68.609375 48.1875 
Q 61.625 48.1875 57.5625 43.546875 
Q 53.515625 38.921875 53.515625 30.90625 
L 53.515625 0 
L 44.484375 0 
L 44.484375 32.71875 
Q 44.484375 40.625 41.703125 44.40625 
Q 38.921875 48.1875 33.109375 48.1875 
Q 26.21875 48.1875 22.15625 43.53125 
Q 18.109375 38.875 18.109375 30.90625 
L 18.109375 0 
L 9.078125 0 
L 9.078125 54.6875 
L 18.109375 54.6875 
L 18.109375 46.1875 
Q 21.1875 51.21875 25.484375 53.609375 
Q 29.78125 56 35.6875 56 
Q 41.65625 56 45.828125 52.96875 
Q 50 49.953125 52 44.1875 
z
" id="DejaVuSans-109"/>
       <path d="M 56.203125 29.59375 
L 56.203125 25.203125 
L 14.890625 25.203125 
Q 15.484375 15.921875 20.484375 11.0625 
Q 25.484375 6.203125 34.421875 6.203125 
Q 39.59375 6.203125 44.453125 7.46875 
Q 49.3125 8.734375 54.109375 11.28125 
L 54.109375 2.78125 
Q 49.265625 0.734375 44.1875 -0.34375 
Q 39.109375 -1.421875 33.890625 -1.421875 
Q 20.796875 -1.421875 13.15625 6.1875 
Q 5.515625 13.8125 5.515625 26.8125 
Q 5.515625 40.234375 12.765625 48.109375 
Q 20.015625 56 32.328125 56 
Q 43.359375 56 49.78125 48.890625 
Q 56.203125 41.796875 56.203125 29.59375 
z
M 47.21875 32.234375 
Q 47.125 39.59375 43.09375 43.984375 
Q 39.0625 48.390625 32.421875 48.390625 
Q 24.90625 48.390625 20.390625 44.140625 
Q 15.875 39.890625 15.1875 32.171875 
z
" id="DejaVuSans-101"/>
       <path id="DejaVuSans-32"/>
       <path d="M 31 75.875 
Q 24.46875 64.65625 21.28125 53.65625 
Q 18.109375 42.671875 18.109375 31.390625 
Q 18.109375 20.125 21.3125 9.0625 
Q 24.515625 -2 31 -13.1875 
L 23.1875 -13.1875 
Q 15.875 -1.703125 12.234375 9.375 
Q 8.59375 20.453125 8.59375 31.390625 
Q 8.59375 42.28125 12.203125 53.3125 
Q 15.828125 64.359375 23.1875 75.875 
z
" id="DejaVuSans-40"/>
       <path d="M 44.28125 53.078125 
L 44.28125 44.578125 
Q 40.484375 46.53125 36.375 47.5 
Q 32.28125 48.484375 27.875 48.484375 
Q 21.1875 48.484375 17.84375 46.4375 
Q 14.5 44.390625 14.5 40.28125 
Q 14.5 37.15625 16.890625 35.375 
Q 19.28125 33.59375 26.515625 31.984375 
L 29.59375 31.296875 
Q 39.15625 29.25 43.1875 25.515625 
Q 47.21875 21.78125 47.21875 15.09375 
Q 47.21875 7.46875 41.1875 3.015625 
Q 35.15625 -1.421875 24.609375 -1.421875 
Q 20.21875 -1.421875 15.453125 -0.5625 
Q 10.6875 0.296875 5.421875 2 
L 5.421875 11.28125 
Q 10.40625 8.6875 15.234375 7.390625 
Q 20.0625 6.109375 24.8125 6.109375 
Q 31.15625 6.109375 34.5625 8.28125 
Q 37.984375 10.453125 37.984375 14.40625 
Q 37.984375 18.0625 35.515625 20.015625 
Q 33.0625 21.96875 24.703125 23.78125 
L 21.578125 24.515625 
Q 13.234375 26.265625 9.515625 29.90625 
Q 5.8125 33.546875 5.8125 39.890625 
Q 5.8125 47.609375 11.28125 51.796875 
Q 16.75 56 26.8125 56 
Q 31.78125 56 36.171875 55.265625 
Q 40.578125 54.546875 44.28125 53.078125 
z
" id="DejaVuSans-115"/>
       <path d="M 48.78125 52.59375 
L 48.78125 44.1875 
Q 44.96875 46.296875 41.140625 47.34375 
Q 37.3125 48.390625 33.40625 48.390625 
Q 24.65625 48.390625 19.8125 42.84375 
Q 14.984375 37.3125 14.984375 27.296875 
Q 14.984375 17.28125 19.8125 11.734375 
Q 24.65625 6.203125 33.40625 6.203125 
Q 37.3125 6.203125 41.140625 7.25 
Q 44.96875 8.296875 48.78125 10.40625 
L 48.78125 2.09375 
Q 45.015625 0.34375 40.984375 -0.53125 
Q 36.96875 -1.421875 32.421875 -1.421875 
Q 20.0625 -1.421875 12.78125 6.34375 
Q 5.515625 14.109375 5.515625 27.296875 
Q 5.515625 40.671875 12.859375 48.328125 
Q 20.21875 56 33.015625 56 
Q 37.15625 56 41.109375 55.140625 
Q 45.0625 54.296875 48.78125 52.59375 
z
" id="DejaVuSans-99"/>
       <path d="M 8.015625 75.875 
L 15.828125 75.875 
Q 23.140625 64.359375 26.78125 53.3125 
Q 30.421875 42.28125 30.421875 31.390625 
Q 30.421875 20.453125 26.78125 9.375 
Q 23.140625 -1.703125 15.828125 -13.1875 
L 8.015625 -13.1875 
Q 14.5 -2 17.703125 9.0625 
Q 20.90625 20.125 20.90625 31.390625 
Q 20.90625 42.671875 17.703125 53.65625 
Q 14.5 64.65625 8.015625 75.875 
z
" id="DejaVuSans-41"/>
      </defs>
      <use xlink:href="#DejaVuSans-84"/>
      <use x="57.958984" xlink:href="#DejaVuSans-105"/>
      <use x="85.742188" xlink:href="#DejaVuSans-109"/>
      <use x="183.154297" xlink:href="#DejaVuSans-101"/>
      <use x="244.677734" xlink:href="#DejaVuSans-32"/>
      <use x="276.464844" xlink:href="#DejaVuSans-40"/>
      <use x="315.478516" xlink:href="#DejaVuSans-115"/>
      <use x="367.578125" xlink:href="#DejaVuSans-101"/>
      <use x="429.101562" xlink:href="#DejaVuSans-99"/>
      <use x="484.082031" xlink:href="#DejaVuSans-41"/>
     </g>
    </g>
   </g>
   <g id="matplotlib.axis_2">
    <g id="ytick_1">
     <g id="line2d_6">
      <defs>
       <path d="M 0 0 
L -3.5 0 
" id="mef932f3efa" style="stroke:#000000;stroke-width:0.8;"/>
      </defs>
      <g>
       <use style="stroke:#000000;stroke-width:0.8;" x="47.72" xlink:href="#mef932f3efa" y="303.64"/>
      </g>
     </g>
     <g id="text_7">
      <!-- 0.0 -->
      <g transform="translate(24.816875 307.439219)scale(0.1 -0.1)">
       <defs>
        <path d="M 10.6875 12.40625 
L 21 12.40625 
L 21 0 
L 10.6875 0 
z
" id="DejaVuSans-46"/>
       </defs>
       <use xlink:href="#DejaVuSans-48"/>
       <use x="63.623047" xlink:href="#DejaVuSans-46"/>
       <use x="95.410156" xlink:href="#DejaVuSans-48"/>
      </g>
     </g>
    </g>
    <g id="ytick_2">
     <g id="line2d_7">
      <g>
       <use style="stroke:#000000;stroke-width:0.8;" x="47.72" xlink:href="#mef932f3efa" y="245.864"/>
      </g>
     </g>
     <g id="text_8">
      <!-- 0.5 -->
      <g transform="translate(24.816875 249.663219)scale(0.1 -0.1)">
       <use xlink:href="#DejaVuSans-48"/>
       <use x="63.623047" xlink:href="#DejaVuSans-46"/>
       <use x="95.410156" xlink:href="#DejaVuSans-53"/>
      </g>
     </g>
    </g>
    <g id="ytick_3">
     <g id="line2d_8">
      <g>
       <use style="stroke:#000000;stroke-width:0.8;" x="47.72" xlink:href="#mef932f3efa" y="188.088"/>
      </g>
     </g>
     <g id="text_9">
      <!-- 1.0 -->
      <g transform="translate(24.816875 191.887219)scale(0.1 -0.1)">
       <use xlink:href="#DejaVuSans-49"/>
       <use x="63.623047" xlink:href="#DejaVuSans-46"/>
       <use x="95.410156" xlink:href="#DejaVuSans-48"/>
      </g>
     </g>
    </g>
    <g id="ytick_4">
     <g id="line2d_9">
      <g>
       <use style="stroke:#000000;stroke-width:0.8;" x="47.72" xlink:href="#mef932f3efa" y="130.312"/>
      </g>
     </g>
     <g id="text_10">
      <!-- 1.5 -->
      <g transform="translate(24.816875 134.111219)scale(0.1 -0.1)">
       <use xlink:href="#DejaVuSans-49"/>
       <use x="63.623047" xlink:href="#DejaVuSans-46"/>
       <use x="95.410156" xlink:href="#DejaVuSans-53"/>
      </g>
     </g>
    </g>
    <g id="ytick_5">
     <g id="line2d_10">
      <g>
       <use style="stroke:#000000;stroke-width:0.8;" x="47.72" xlink:href="#mef932f3efa" y="72.536"/>
      </g>
     </g>
     <g id="text_11">
      <!-- 2.0 -->
      <g transform="translate(24.816875 76.335219)scale(0.1 -0.1)">
       <use xlink:href="#DejaVuSans-50"/>
       <use x="63.623047" xlink:href="#DejaVuSans-46"/>
       <use x="95.410156" xlink:href="#DejaVuSans-48"/>
      </g>
     </g>
    </g>
    <g id="ytick_6">
     <g id="line2d_11">
      <g>
       <use style="stroke:#000000;stroke-width:0.8;" x="47.72" xlink:href="#mef932f3efa" y="14.76"/>
      </g>
     </g>
     <g id="text_12">
      <!-- 2.5 -->
      <g transform="translate(24.816875 18.559219)scale(0.1 -0.1)">
       <use xlink:href="#DejaVuSans-50"/>
       <use x="63.623047" xlink:href="#DejaVuSans-46"/>
       <use x="95.410156" xlink:href="#DejaVuSans-53"/>
      </g>
     </g>
    </g>
    <g id="text_13">
     <!-- Loss -->
     <g transform="translate(18.737188 170.167187)rotate(-90)scale(0.1 -0.1)">
      <defs>
       <path d="M 9.8125 72.90625 
L 19.671875 72.90625 
L 19.671875 8.296875 
L 55.171875 8.296875 
L 55.171875 0 
L 9.8125 0 
z
" id="DejaVuSans-76"/>
       <path d="M 30.609375 48.390625 
Q 23.390625 48.390625 19.1875 42.75 
Q 14.984375 37.109375 14.984375 27.296875 
Q 14.984375 17.484375 19.15625 11.84375 
Q 23.34375 6.203125 30.609375 6.203125 
Q 37.796875 6.203125 41.984375 11.859375 
Q 46.1875 17.53125 46.1875 27.296875 
Q 46.1875 37.015625 41.984375 42.703125 
Q 37.796875 48.390625 30.609375 48.390625 
z
M 30.609375 56 
Q 42.328125 56 49.015625 48.375 
Q 55.71875 40.765625 55.71875 27.296875 
Q 55.71875 13.875 49.015625 6.21875 
Q 42.328125 -1.421875 30.609375 -1.421875 
Q 18.84375 -1.421875 12.171875 6.21875 
Q 5.515625 13.875 5.515625 27.296875 
Q 5.515625 40.765625 12.171875 48.375 
Q 18.84375 56 30.609375 56 
z
" id="DejaVuSans-111"/>
      </defs>
      <use xlink:href="#DejaVuSans-76"/>
      <use x="53.962891" xlink:href="#DejaVuSans-111"/>
      <use x="115.144531" xlink:href="#DejaVuSans-115"/>
      <use x="167.244141" xlink:href="#DejaVuSans-115"/>
     </g>
    </g>
   </g>
   <g id="line2d_12">
    <path clip-path="url(#p17e1839b6d)" d="M 66.005455 43.10635 
L 68.354341 37.32875 
L 70.66125 63.824462 
L 75.342737 94.698512 
L 77.679564 101.649687 
L 80.03598 121.871287 
L 82.378739 130.357137 
L 84.737944 168.295206 
L 87.109442 173.508587 
L 89.506063 200.072006 
L 91.869004 204.134381 
L 94.184725 206.131716 
L 96.527845 232.040641 
L 98.856044 221.534887 
L 101.202064 223.441947 
L 103.537392 242.56332 
L 105.875036 236.554391 
L 108.222095 227.493037 
L 110.601179 242.738228 
L 112.94438 232.119631 
L 115.299496 240.932728 
L 117.645963 248.52147 
L 119.98825 245.576248 
L 122.308282 261.853959 
L 124.640961 257.526402 
L 126.971717 254.8915 
L 129.31029 246.428219 
L 131.626672 262.722856 
L 133.968306 240.120253 
L 136.297478 258.333234 
L 138.620983 254.733519 
L 143.279241 261.616987 
L 145.613976 256.144066 
L 147.947528 243.082402 
L 150.270056 269.758664 
L 152.618685 255.066408 
L 154.955069 256.003011 
L 157.286714 258.745114 
L 159.588765 254.806867 
L 161.968818 249.42422 
L 164.270476 264.573494 
L 166.584553 264.82175 
L 168.893396 260.48855 
L 171.24553 258.079336 
L 173.575009 267.293028 
L 175.884958 264.844319 
L 178.214569 257.221723 
L 180.587191 273.067807 
L 182.905118 268.703575 
L 185.239595 271.950654 
L 187.5534 255.675764 
L 189.871074 267.860068 
L 192.201905 270.427263 
L 194.52505 279.570428 
L 196.857839 276.354381 
L 199.20459 266.469269 
L 201.538789 271.583912 
L 203.871166 274.955119 
L 206.208628 273.395054 
L 208.564108 275.880437 
L 210.875916 280.413935 
L 213.194038 272.630538 
L 215.526139 275.979176 
L 217.861081 269.437059 
L 220.198416 280.066941 
L 222.516426 258.005988 
L 224.860776 276.836788 
L 227.184451 279.614155 
L 229.522547 270.918134 
L 231.846071 275.979176 
L 234.169864 274.3909 
L 236.495287 275.214659 
L 238.838798 283.878238 
L 241.177316 280.526779 
L 243.534884 279.460405 
L 245.880728 280.667834 
L 248.17975 277.880593 
L 250.508751 275.378283 
L 252.824334 279.965381 
L 255.16307 288.597928 
L 257.496963 288.803868 
L 259.80819 276.958095 
L 262.15974 288.68115 
L 264.473762 279.144443 
L 266.831882 284.125084 
L 269.169189 293.152584 
L 271.483399 281.065608 
L 273.818548 289.942179 
L 276.165536 277.567452 
L 278.471966 282.021959 
L 280.800592 291.897197 
L 283.124821 287.456796 
L 285.456019 291.797048 
L 287.784668 290.466903 
L 290.114718 286.223978 
L 292.464161 287.664146 
L 294.803037 286.824871 
L 297.133192 291.856291 
L 299.449286 291.218724 
L 301.788245 295.917256 
L 304.083493 293.161047 
L 306.407968 289.430151 
L 308.743558 293.118026 
L 311.077032 297.55208 
L 313.407485 299.445563 
L 315.736987 294.991937 
L 318.071881 295.278278 
L 320.395164 291.002911 
L 322.723473 300.318603 
L 325.045771 300.246753 
L 327.379289 301.1257 
L 329.715706 298.693917 
L 332.033254 298.726713 
L 334.370549 295.600588 
L 336.722998 301.627679 
L 339.074125 294.877683 
L 341.415321 302.289798 
L 343.72992 300.800569 
L 346.056945 299.707924 
L 348.365811 301.687274 
L 350.685195 302.219535 
L 355.349391 302.423712 
L 357.669675 302.778927 
L 359.987079 302.685809 
L 362.331823 302.986785 
L 364.664318 302.574508 
L 369.285395 303.245157 
L 371.597815 302.884873 
L 373.909806 302.899595 
L 376.22968 302.683032 
L 378.533616 303.394124 
L 380.853495 302.727641 
L 383.182966 303.209937 
L 387.812084 303.128721 
L 390.143304 303.374586 
L 392.483346 302.940016 
L 397.161677 303.498372 
L 404.179836 303.270161 
L 406.512909 303.471208 
L 408.853258 303.504885 
L 413.544222 303.336126 
L 413.544222 303.336126 
" style="fill:none;stroke:#1f77b4;stroke-linecap:square;stroke-width:1.5;"/>
   </g>
   <g id="line2d_13">
    <path clip-path="url(#p17e1839b6d)" d="M 66.015095 43.693137 
L 70.738186 51.727612 
L 73.184579 75.311956 
L 75.548756 93.050994 
L 77.967676 97.429331 
L 80.386999 122.954587 
L 82.800908 142.431419 
L 85.241297 171.375841 
L 87.64331 191.529734 
L 90.022696 208.287031 
L 92.452172 222.437637 
L 94.832159 223.859469 
L 97.232756 228.192669 
L 99.585299 238.156772 
L 101.971086 237.513562 
L 104.391328 243.420933 
L 106.855326 243.313731 
L 109.220017 249.994081 
L 111.62235 250.501878 
L 114.031194 256.290762 
L 116.407511 256.939614 
L 118.836284 255.263884 
L 121.293538 256.059433 
L 123.738691 262.136069 
L 126.083479 262.971113 
L 128.549478 259.743781 
L 130.933275 261.808822 
L 133.350864 265.211061 
L 135.74178 267.970091 
L 138.14635 267.953164 
L 140.487167 269.589398 
L 142.900742 265.707573 
L 145.286501 267.817752 
L 147.736873 268.034976 
L 150.120231 269.002611 
L 152.547922 272.252511 
L 154.94537 269.685316 
L 157.319027 264.46065 
L 159.737156 275.03693 
L 162.082678 271.203064 
L 164.484942 270.226966 
L 166.933178 270.813753 
L 169.309965 273.632026 
L 171.695476 279.093663 
L 174.065508 278.13167 
L 176.463393 274.718147 
L 178.824027 274.692757 
L 181.233467 275.005898 
L 183.633152 274.82817 
L 185.952721 275.42342 
L 188.314395 275.457273 
L 190.680946 277.592841 
L 193.075965 281.342075 
L 195.487831 275.327503 
L 197.904122 280.958406 
L 200.281831 274.272414 
L 202.691836 282.247646 
L 205.139471 275.80991 
L 207.52493 279.985129 
L 209.989629 273.533287 
L 212.398322 276.565963 
L 214.768207 278.763595 
L 217.143032 280.803246 
L 219.492215 279.869464 
L 221.89306 282.546682 
L 224.372801 285.79094 
L 226.778202 280.481641 
L 229.200865 279.821505 
L 231.620951 280.837099 
L 233.973594 281.686248 
L 236.34596 283.457895 
L 238.715659 287.504754 
L 241.08657 286.159093 
L 243.495099 288.617676 
L 245.887592 285.332512 
L 248.326125 287.193023 
L 250.736207 286.710616 
L 253.101583 288.991471 
L 255.480687 289.461183 
L 257.879751 292.410636 
L 260.237053 288.719235 
L 262.591351 291.011374 
L 264.976324 290.506398 
L 267.329535 289.06764 
L 269.769783 289.345518 
L 272.190124 288.871574 
L 274.580781 290.074771 
L 276.98586 286.061765 
L 279.390355 293.006592 
L 281.817574 292.075631 
L 284.243361 290.277889 
L 286.654445 295.05118 
L 289.034512 291.182755 
L 291.473375 293.470662 
L 293.889374 295.085033 
L 296.295297 294.459456 
L 298.659508 293.704108 
L 301.025146 297.670566 
L 303.433786 291.812564 
L 305.847096 294.53633 
L 308.255506 295.949698 
L 310.630376 298.576489 
L 313.024713 297.234707 
L 315.45923 298.507373 
L 317.850459 296.602076 
L 320.226357 297.8557 
L 322.592463 297.036525 
L 324.9768 300.536797 
L 327.377729 297.137379 
L 329.812924 297.959022 
L 332.193369 299.185846 
L 334.550664 299.154814 
L 336.951594 301.208746 
L 339.368734 301.724037 
L 341.784185 300.457454 
L 344.235927 300.885378 
L 346.65289 300.811501 
L 349.055338 301.784602 
L 351.410404 301.257763 
L 353.820619 302.147641 
L 356.217238 301.653289 
L 358.636204 302.346044 
L 361.024022 301.96405 
L 363.36906 302.409298 
L 365.763498 303.20262 
L 368.204459 303.078536 
L 370.582366 302.56805 
L 372.999325 302.222224 
L 375.388705 303.363268 
L 377.754832 302.801606 
L 380.084507 302.620461 
L 382.458302 303.392537 
L 384.897191 303.20996 
L 387.289911 303.426787 
L 389.684716 303.403138 
L 392.107331 303.029211 
L 394.488187 302.97528 
L 396.902237 303.470294 
L 406.600546 303.412428 
L 408.958116 303.185286 
L 411.334553 303.498383 
L 416.182826 303.475881 
L 418.56171 302.848826 
L 423.377974 303.303739 
L 423.377974 303.303739 
" style="fill:none;stroke:#ff7f0e;stroke-linecap:square;stroke-width:1.5;"/>
   </g>
   <g id="line2d_14">
    <path clip-path="url(#p17e1839b6d)" d="M 66.037275 25.683275 
L 68.454653 60.597131 
L 73.420319 106.772794 
L 78.331787 155.679275 
L 80.765554 191.100928 
L 83.213632 197.736141 
L 85.678709 219.447278 
L 88.144038 227.380194 
L 90.576243 227.718725 
L 93.048754 239.640667 
L 95.482474 247.020648 
L 97.88559 246.383081 
L 100.396978 247.663858 
L 102.848956 256.798559 
L 105.336556 253.260908 
L 107.801751 255.907094 
L 110.258667 257.148375 
L 112.705405 261.690336 
L 115.119334 259.670433 
L 117.579082 263.050103 
L 120.013393 267.329702 
L 122.430034 265.487528 
L 124.904652 266.965781 
L 127.311582 269.059033 
L 129.793705 271.651618 
L 132.240632 265.848628 
L 134.711608 271.978865 
L 137.140431 269.564009 
L 139.567305 268.09704 
L 142.021443 272.517694 
L 144.432336 271.383614 
L 146.906267 268.799492 
L 149.364382 272.145309 
L 151.829114 268.884125 
L 154.282612 271.995791 
L 156.714822 271.344119 
L 159.186815 271.341298 
L 161.645991 278.817196 
L 164.097345 270.077448 
L 166.539133 271.516205 
L 169.036675 271.891411 
L 171.473758 275.485484 
L 173.954835 276.537752 
L 176.396134 276.659059 
L 178.791952 279.725588 
L 181.210392 276.690091 
L 183.628321 278.667678 
L 186.093124 279.268571 
L 188.589045 277.874951 
L 190.997182 281.759597 
L 193.447384 281.962716 
L 195.902232 281.491593 
L 198.343078 279.336277 
L 200.766751 282.419733 
L 203.169129 281.299759 
L 205.652797 282.467691 
L 208.13151 282.141855 
L 210.54703 283.714615 
L 213.003049 282.872518 
L 215.45129 282.273036 
L 217.937576 282.038885 
L 220.436869 280.543705 
L 222.873188 279.660703 
L 225.332722 283.596129 
L 227.8019 285.029245 
L 230.22249 284.953075 
L 232.623641 280.405472 
L 235.069626 282.659526 
L 237.548392 283.040373 
L 240.060085 290.145298 
L 242.527414 284.900885 
L 244.987019 286.369264 
L 247.468153 289.973211 
L 249.946739 288.858879 
L 252.468991 286.466592 
L 254.924521 289.290507 
L 257.394917 285.12093 
L 259.852918 289.830746 
L 262.314107 289.881526 
L 264.750183 286.470823 
L 267.224616 286.252189 
L 269.683166 287.723389 
L 272.10924 286.834745 
L 274.59771 289.464004 
L 277.059221 288.269271 
L 279.526813 290.457029 
L 281.968323 294.305001 
L 284.363357 291.3626 
L 286.827783 292.667356 
L 289.269153 293.197721 
L 291.703763 291.014195 
L 294.191857 292.100316 
L 296.654915 290.270837 
L 299.124494 293.564464 
L 301.564179 295.634441 
L 304.005273 291.248346 
L 306.4291 297.073904 
L 308.878564 296.675425 
L 311.314051 295.848844 
L 313.739857 295.56603 
L 316.15179 295.410517 
L 318.607449 296.782626 
L 321.08045 299.704574 
L 323.573597 297.337677 
L 326.020762 298.461882 
L 328.509441 296.357346 
L 330.962803 298.343044 
L 333.39759 298.657596 
L 335.8167 299.84316 
L 338.297541 299.039149 
L 340.8407 299.355817 
L 343.313976 300.057564 
L 345.752071 300.025474 
L 348.244145 300.956435 
L 350.662149 301.315419 
L 353.080516 301.374133 
L 355.538757 301.547277 
L 357.950041 300.91306 
L 360.4318 301.95757 
L 362.888842 301.896476 
L 365.348267 300.649112 
L 367.738669 302.418907 
L 370.187819 302.029861 
L 372.645252 302.162011 
L 375.113156 302.773307 
L 377.588227 303.019844 
L 380.09738 302.928026 
L 382.575575 302.2574 
L 385.052039 302.771235 
L 387.483862 302.916874 
L 389.95586 302.910351 
L 392.422063 303.04854 
L 394.904313 303.319431 
L 399.854761 303.433531 
L 402.30416 303.053786 
L 407.233856 303.412439 
L 409.686311 303.302461 
L 412.13333 303.38544 
L 414.593598 302.959587 
L 417.073844 303.258028 
L 419.539363 303.413629 
L 421.985561 303.266205 
L 424.427692 302.896576 
L 426.918549 303.27901 
L 429.351622 303.431592 
L 431.714545 303.094758 
L 431.714545 303.094758 
" style="fill:none;stroke:#2ca02c;stroke-linecap:square;stroke-width:1.5;"/>
   </g>
   <g id="patch_3">
    <path d="M 47.72 303.64 
L 47.72 14.76 
" style="fill:none;stroke:#000000;stroke-linecap:square;stroke-linejoin:miter;stroke-width:0.8;"/>
   </g>
   <g id="patch_4">
    <path d="M 450 303.64 
L 450 14.76 
" style="fill:none;stroke:#000000;stroke-linecap:square;stroke-linejoin:miter;stroke-width:0.8;"/>
   </g>
   <g id="patch_5">
    <path d="M 47.72 303.64 
L 450 303.64 
" style="fill:none;stroke:#000000;stroke-linecap:square;stroke-linejoin:miter;stroke-width:0.8;"/>
   </g>
   <g id="patch_6">
    <path d="M 47.72 14.76 
L 450 14.76 
" style="fill:none;stroke:#000000;stroke-linecap:square;stroke-linejoin:miter;stroke-width:0.8;"/>
   </g>
   <g id="legend_1">
    <g id="patch_7">
     <path d="M 361.492188 66.794375 
L 443 66.794375 
Q 445 66.794375 445 64.794375 
L 445 21.76 
Q 445 19.76 443 19.76 
L 361.492188 19.76 
Q 359.492188 19.76 359.492188 21.76 
L 359.492188 64.794375 
Q 359.492188 66.794375 361.492188 66.794375 
z
" style="fill:#ffffff;opacity:0.8;stroke:#cccccc;stroke-linejoin:miter;"/>
    </g>
    <g id="line2d_15">
     <path d="M 363.492188 27.858437 
L 383.492188 27.858437 
" style="fill:none;stroke:#1f77b4;stroke-linecap:square;stroke-width:1.5;"/>
    </g>
    <g id="line2d_16"/>
    <g id="text_14">
     <!-- Sync-SGD -->
     <g transform="translate(391.492188 31.358437)scale(0.1 -0.1)">
      <defs>
       <path d="M 53.515625 70.515625 
L 53.515625 60.890625 
Q 47.90625 63.578125 42.921875 64.890625 
Q 37.9375 66.21875 33.296875 66.21875 
Q 25.25 66.21875 20.875 63.09375 
Q 16.5 59.96875 16.5 54.203125 
Q 16.5 49.359375 19.40625 46.890625 
Q 22.3125 44.4375 30.421875 42.921875 
L 36.375 41.703125 
Q 47.40625 39.59375 52.65625 34.296875 
Q 57.90625 29 57.90625 20.125 
Q 57.90625 9.515625 50.796875 4.046875 
Q 43.703125 -1.421875 29.984375 -1.421875 
Q 24.8125 -1.421875 18.96875 -0.25 
Q 13.140625 0.921875 6.890625 3.21875 
L 6.890625 13.375 
Q 12.890625 10.015625 18.65625 8.296875 
Q 24.421875 6.59375 29.984375 6.59375 
Q 38.421875 6.59375 43.015625 9.90625 
Q 47.609375 13.234375 47.609375 19.390625 
Q 47.609375 24.75 44.3125 27.78125 
Q 41.015625 30.8125 33.5 32.328125 
L 27.484375 33.5 
Q 16.453125 35.6875 11.515625 40.375 
Q 6.59375 45.0625 6.59375 53.421875 
Q 6.59375 63.09375 13.40625 68.65625 
Q 20.21875 74.21875 32.171875 74.21875 
Q 37.3125 74.21875 42.625 73.28125 
Q 47.953125 72.359375 53.515625 70.515625 
z
" id="DejaVuSans-83"/>
       <path d="M 32.171875 -5.078125 
Q 28.375 -14.84375 24.75 -17.8125 
Q 21.140625 -20.796875 15.09375 -20.796875 
L 7.90625 -20.796875 
L 7.90625 -13.28125 
L 13.1875 -13.28125 
Q 16.890625 -13.28125 18.9375 -11.515625 
Q 21 -9.765625 23.484375 -3.21875 
L 25.09375 0.875 
L 2.984375 54.6875 
L 12.5 54.6875 
L 29.59375 11.921875 
L 46.6875 54.6875 
L 56.203125 54.6875 
z
" id="DejaVuSans-121"/>
       <path d="M 54.890625 33.015625 
L 54.890625 0 
L 45.90625 0 
L 45.90625 32.71875 
Q 45.90625 40.484375 42.875 44.328125 
Q 39.84375 48.1875 33.796875 48.1875 
Q 26.515625 48.1875 22.3125 43.546875 
Q 18.109375 38.921875 18.109375 30.90625 
L 18.109375 0 
L 9.078125 0 
L 9.078125 54.6875 
L 18.109375 54.6875 
L 18.109375 46.1875 
Q 21.34375 51.125 25.703125 53.5625 
Q 30.078125 56 35.796875 56 
Q 45.21875 56 50.046875 50.171875 
Q 54.890625 44.34375 54.890625 33.015625 
z
" id="DejaVuSans-110"/>
       <path d="M 4.890625 31.390625 
L 31.203125 31.390625 
L 31.203125 23.390625 
L 4.890625 23.390625 
z
" id="DejaVuSans-45"/>
       <path d="M 59.515625 10.40625 
L 59.515625 29.984375 
L 43.40625 29.984375 
L 43.40625 38.09375 
L 69.28125 38.09375 
L 69.28125 6.78125 
Q 63.578125 2.734375 56.6875 0.65625 
Q 49.8125 -1.421875 42 -1.421875 
Q 24.90625 -1.421875 15.25 8.5625 
Q 5.609375 18.5625 5.609375 36.375 
Q 5.609375 54.25 15.25 64.234375 
Q 24.90625 74.21875 42 74.21875 
Q 49.125 74.21875 55.546875 72.453125 
Q 61.96875 70.703125 67.390625 67.28125 
L 67.390625 56.78125 
Q 61.921875 61.421875 55.765625 63.765625 
Q 49.609375 66.109375 42.828125 66.109375 
Q 29.4375 66.109375 22.71875 58.640625 
Q 16.015625 51.171875 16.015625 36.375 
Q 16.015625 21.625 22.71875 14.15625 
Q 29.4375 6.6875 42.828125 6.6875 
Q 48.046875 6.6875 52.140625 7.59375 
Q 56.25 8.5 59.515625 10.40625 
z
" id="DejaVuSans-71"/>
       <path d="M 19.671875 64.796875 
L 19.671875 8.109375 
L 31.59375 8.109375 
Q 46.6875 8.109375 53.6875 14.9375 
Q 60.6875 21.78125 60.6875 36.53125 
Q 60.6875 51.171875 53.6875 57.984375 
Q 46.6875 64.796875 31.59375 64.796875 
z
M 9.8125 72.90625 
L 30.078125 72.90625 
Q 51.265625 72.90625 61.171875 64.09375 
Q 71.09375 55.28125 71.09375 36.53125 
Q 71.09375 17.671875 61.125 8.828125 
Q 51.171875 0 30.078125 0 
L 9.8125 0 
z
" id="DejaVuSans-68"/>
      </defs>
      <use xlink:href="#DejaVuSans-83"/>
      <use x="63.476562" xlink:href="#DejaVuSans-121"/>
      <use x="122.65625" xlink:href="#DejaVuSans-110"/>
      <use x="186.035156" xlink:href="#DejaVuSans-99"/>
      <use x="241.015625" xlink:href="#DejaVuSans-45"/>
      <use x="277.099609" xlink:href="#DejaVuSans-83"/>
      <use x="340.576172" xlink:href="#DejaVuSans-71"/>
      <use x="418.066406" xlink:href="#DejaVuSans-68"/>
     </g>
    </g>
    <g id="line2d_17">
     <path d="M 363.492188 42.536563 
L 383.492188 42.536563 
" style="fill:none;stroke:#ff7f0e;stroke-linecap:square;stroke-width:1.5;"/>
    </g>
    <g id="line2d_18"/>
    <g id="text_15">
     <!-- DP-SGD -->
     <g transform="translate(391.492188 46.036563)scale(0.1 -0.1)">
      <defs>
       <path d="M 19.671875 64.796875 
L 19.671875 37.40625 
L 32.078125 37.40625 
Q 38.96875 37.40625 42.71875 40.96875 
Q 46.484375 44.53125 46.484375 51.125 
Q 46.484375 57.671875 42.71875 61.234375 
Q 38.96875 64.796875 32.078125 64.796875 
z
M 9.8125 72.90625 
L 32.078125 72.90625 
Q 44.34375 72.90625 50.609375 67.359375 
Q 56.890625 61.8125 56.890625 51.125 
Q 56.890625 40.328125 50.609375 34.8125 
Q 44.34375 29.296875 32.078125 29.296875 
L 19.671875 29.296875 
L 19.671875 0 
L 9.8125 0 
z
" id="DejaVuSans-80"/>
      </defs>
      <use xlink:href="#DejaVuSans-68"/>
      <use x="77.001953" xlink:href="#DejaVuSans-80"/>
      <use x="135.054688" xlink:href="#DejaVuSans-45"/>
      <use x="171.138672" xlink:href="#DejaVuSans-83"/>
      <use x="234.615234" xlink:href="#DejaVuSans-71"/>
      <use x="312.105469" xlink:href="#DejaVuSans-68"/>
     </g>
    </g>
    <g id="line2d_19">
     <path d="M 363.492188 57.214687 
L 383.492188 57.214687 
" style="fill:none;stroke:#2ca02c;stroke-linecap:square;stroke-width:1.5;"/>
    </g>
    <g id="line2d_20"/>
    <g id="text_16">
     <!-- EDP-SGD -->
     <g transform="translate(391.492188 60.714687)scale(0.1 -0.1)">
      <defs>
       <path d="M 9.8125 72.90625 
L 55.90625 72.90625 
L 55.90625 64.59375 
L 19.671875 64.59375 
L 19.671875 43.015625 
L 54.390625 43.015625 
L 54.390625 34.71875 
L 19.671875 34.71875 
L 19.671875 8.296875 
L 56.78125 8.296875 
L 56.78125 0 
L 9.8125 0 
z
" id="DejaVuSans-69"/>
      </defs>
      <use xlink:href="#DejaVuSans-69"/>
      <use x="63.183594" xlink:href="#DejaVuSans-68"/>
      <use x="140.185547" xlink:href="#DejaVuSans-80"/>
      <use x="198.238281" xlink:href="#DejaVuSans-45"/>
      <use x="234.322266" xlink:href="#DejaVuSans-83"/>
      <use x="297.798828" xlink:href="#DejaVuSans-71"/>
      <use x="375.289062" xlink:href="#DejaVuSans-68"/>
     </g>
    </g>
   </g>
  </g>
 </g>
 <defs>
  <clipPath id="p17e1839b6d">
   <rect height="288.88" width="402.28" x="47.72" y="14.76"/>
  </clipPath>
 </defs>
</svg>
