<?xml version="1.0" encoding="utf-8" standalone="no"?>
<!DOCTYPE svg PUBLIC "-//W3C//DTD SVG 1.1//EN"
  "http://www.w3.org/Graphics/SVG/1.1/DTD/svg11.dtd">
<!-- Created with matplotlib (https://matplotlib.org/) -->
<svg height="345.6pt" version="1.1" viewBox="0 0 460.8 345.6" width="460.8pt" xmlns="http://www.w3.org/2000/svg" xmlns:xlink="http://www.w3.org/1999/xlink">
 <metadata>
  <rdf:RDF xmlns:cc="http://creativecommons.org/ns#" xmlns:dc="http://purl.org/dc/elements/1.1/" xmlns:rdf="http://www.w3.org/1999/02/22-rdf-syntax-ns#">
   <cc:Work>
    <dc:type rdf:resource="http://purl.org/dc/dcmitype/StillImage"/>
    <dc:date>2021-06-24T12:03:22.721377</dc:date>
    <dc:format>image/svg+xml</dc:format>
    <dc:creator>
     <cc:Agent>
      <dc:title>Matplotlib v3.3.1, https://matplotlib.org/</dc:title>
     </cc:Agent>
    </dc:creator>
   </cc:Work>
  </rdf:RDF>
 </metadata>
 <defs>
  <style type="text/css">*{stroke-linecap:butt;stroke-linejoin:round;}</style>
 </defs>
 <g id="figure_1">
  <g id="patch_1">
   <path d="M 0 345.6 
L 460.8 345.6 
L 460.8 0 
L 0 0 
z
" style="fill:#ffffff;"/>
  </g>
  <g id="axes_1">
   <g id="patch_2">
    <path d="M 47.72 303.64 
L 450 303.64 
L 450 14.76 
L 47.72 14.76 
z
" style="fill:#ffffff;"/>
   </g>
   <g id="PolyCollection_1">
    <path clip-path="url(#p5eb68fe311)" d="M 66.005455 53.167852 
L 66.005455 78.633723 
L 68.459878 62.426113 
L 70.914301 100.89045 
L 73.368725 110.451363 
L 75.823148 122.701928 
L 78.277572 134.815366 
L 80.731995 150.865531 
L 83.186419 150.258107 
L 85.640842 166.925472 
L 88.095265 163.355839 
L 90.549689 183.008655 
L 93.004112 182.573732 
L 95.458536 190.066581 
L 97.912959 219.004892 
L 100.367383 211.332939 
L 102.821806 220.061116 
L 105.276229 231.355475 
L 107.730653 236.419552 
L 110.185076 230.673598 
L 112.6395 232.907688 
L 115.093923 220.641982 
L 117.548347 233.709605 
L 120.00277 246.478792 
L 122.457193 238.914392 
L 124.911617 257.20458 
L 127.36604 255.532157 
L 129.820464 257.724977 
L 132.274887 248.350031 
L 134.729311 260.302427 
L 137.183734 243.78674 
L 139.638157 253.520155 
L 142.092581 247.260244 
L 144.547004 260.632816 
L 147.001428 264.666703 
L 149.455851 256.977113 
L 151.910275 240.337537 
L 154.364698 254.483387 
L 156.819121 259.300424 
L 159.273545 253.906898 
L 161.727968 267.367284 
L 164.182392 257.999909 
L 166.636815 249.605355 
L 169.091239 263.884042 
L 171.545662 264.041467 
L 174.000085 262.324491 
L 176.454509 261.078342 
L 178.908932 268.863102 
L 181.363356 276.061283 
L 183.817779 259.286965 
L 186.272203 278.649685 
L 188.726626 266.023717 
L 191.181049 263.810335 
L 193.635473 250.062278 
L 196.089896 273.417213 
L 198.54432 276.532898 
L 200.998743 275.069595 
L 203.453167 277.0001 
L 205.90759 274.376744 
L 208.362013 278.386171 
L 210.816437 274.639824 
L 213.27086 275.079622 
L 215.725284 276.271528 
L 218.179707 272.91393 
L 220.634131 273.914209 
L 223.088554 280.953494 
L 225.542977 270.723711 
L 227.997401 277.831951 
L 230.451824 269.675057 
L 232.906248 280.785727 
L 235.360671 282.294814 
L 237.815095 277.266001 
L 240.269518 276.928111 
L 242.723941 275.383583 
L 245.178365 276.827844 
L 247.632788 286.516632 
L 250.087212 281.379308 
L 252.541635 277.442201 
L 254.996059 278.89926 
L 257.450482 280.107611 
L 259.904905 284.982186 
L 262.359329 280.951181 
L 264.813752 290.451731 
L 267.268176 282.375529 
L 269.722599 275.533199 
L 272.177023 292.680501 
L 274.631446 285.028674 
L 277.085869 282.877946 
L 279.540293 291.44415 
L 281.994716 284.309359 
L 284.44914 290.902358 
L 286.903563 277.077386 
L 289.357987 291.201128 
L 291.81241 291.072699 
L 294.266833 288.276436 
L 296.721257 291.712625 
L 299.17568 287.50037 
L 301.630104 294.426614 
L 304.084527 292.574544 
L 306.538951 292.7302 
L 308.993374 288.307651 
L 311.447797 293.250729 
L 313.902221 298.627747 
L 316.356644 291.998025 
L 318.811068 295.219416 
L 321.265491 296.379847 
L 323.719915 299.385109 
L 326.174338 298.430908 
L 328.628761 297.836059 
L 331.083185 293.586922 
L 333.537608 292.937909 
L 335.992032 300.99828 
L 338.446455 299.456132 
L 340.900879 301.607695 
L 343.355302 300.665358 
L 345.809725 298.685026 
L 348.264149 297.275898 
L 350.718572 301.32531 
L 353.172996 299.641375 
L 355.627419 302.508942 
L 358.081843 301.955549 
L 360.536266 302.339958 
L 362.990689 302.808494 
L 365.445113 302.977827 
L 367.899536 302.565527 
L 370.35396 302.839877 
L 372.808383 303.324013 
L 375.262807 302.909322 
L 377.71723 302.944937 
L 380.171653 302.981887 
L 382.626077 303.338983 
L 385.0805 303.337339 
L 387.534924 303.239802 
L 389.989347 303.415298 
L 392.443771 303.452167 
L 394.898194 303.344419 
L 397.352617 303.474768 
L 399.807041 303.489916 
L 402.261464 303.509853 
L 404.715888 303.49536 
L 407.170311 303.447136 
L 409.624735 303.469779 
L 412.079158 303.42902 
L 414.533581 303.594468 
L 416.988005 303.604992 
L 419.442428 303.541727 
L 421.896852 303.488012 
L 424.351275 303.464542 
L 426.805699 303.600476 
L 429.260122 303.524366 
L 431.714545 303.500976 
L 431.714545 303.2128 
L 431.714545 303.2128 
L 429.260122 303.311598 
L 426.805699 303.088571 
L 424.351275 303.111066 
L 421.896852 303.379271 
L 419.442428 303.465839 
L 416.988005 303.432835 
L 414.533581 303.259702 
L 412.079158 303.2042 
L 409.624735 303.333104 
L 407.170311 303.152407 
L 404.715888 303.397048 
L 402.261464 302.378466 
L 399.807041 303.182182 
L 397.352617 302.855714 
L 394.898194 302.966006 
L 392.443771 302.32613 
L 389.989347 302.414395 
L 387.534924 302.184536 
L 385.0805 302.978993 
L 382.626077 303.120343 
L 380.171653 301.264026 
L 377.71723 301.891202 
L 375.262807 302.097935 
L 372.808383 302.939247 
L 370.35396 302.088741 
L 367.899536 301.454699 
L 365.445113 301.310139 
L 362.990689 301.62326 
L 360.536266 300.628353 
L 358.081843 299.654053 
L 355.627419 300.378967 
L 353.172996 295.03821 
L 350.718572 299.075452 
L 348.264149 295.603829 
L 345.809725 291.87153 
L 343.355302 297.719734 
L 340.900879 300.470208 
L 338.446455 296.590272 
L 335.992032 298.721188 
L 333.537608 288.593969 
L 331.083185 289.352681 
L 328.628761 292.958879 
L 326.174338 297.001909 
L 323.719915 294.863553 
L 321.265491 294.169657 
L 318.811068 290.676693 
L 316.356644 283.471322 
L 313.902221 294.591922 
L 311.447797 289.688875 
L 308.993374 285.88092 
L 306.538951 286.053932 
L 304.084527 286.49734 
L 301.630104 287.435331 
L 299.17568 285.260727 
L 296.721257 287.960152 
L 294.266833 282.055699 
L 291.81241 286.506826 
L 289.357987 284.843722 
L 286.903563 270.164097 
L 284.44914 282.073142 
L 281.994716 281.263591 
L 279.540293 286.761658 
L 277.085869 279.304049 
L 274.631446 280.465285 
L 272.177023 288.713143 
L 269.722599 271.318973 
L 267.268176 279.298669 
L 264.813752 286.123485 
L 262.359329 276.880688 
L 259.904905 272.578858 
L 257.450482 272.792986 
L 254.996059 274.159318 
L 252.541635 271.486296 
L 250.087212 274.968666 
L 247.632788 282.424704 
L 245.178365 270.407997 
L 242.723941 266.712225 
L 240.269518 270.245665 
L 237.815095 271.685065 
L 235.360671 281.732177 
L 232.906248 272.261567 
L 230.451824 262.936234 
L 227.997401 270.329208 
L 225.542977 265.261607 
L 223.088554 272.934486 
L 220.634131 266.212476 
L 218.179707 268.149357 
L 215.725284 269.852802 
L 213.27086 273.910939 
L 210.816437 264.826725 
L 208.362013 274.621627 
L 205.90759 268.125302 
L 203.453167 271.465738 
L 200.998743 271.054735 
L 198.54432 268.965149 
L 196.089896 265.180439 
L 193.635473 243.640487 
L 191.181049 258.374193 
L 188.726626 264.262993 
L 186.272203 271.570873 
L 183.817779 249.130626 
L 181.363356 266.807504 
L 178.908932 258.726642 
L 176.454509 249.314014 
L 174.000085 251.114647 
L 171.545662 258.120492 
L 169.091239 256.021043 
L 166.636815 247.155476 
L 164.182392 247.720716 
L 161.727968 263.438506 
L 159.273545 247.345114 
L 156.819121 251.001658 
L 154.364698 247.626238 
L 151.910275 234.057663 
L 149.455851 250.729562 
L 147.001428 257.438834 
L 144.547004 252.005131 
L 142.092581 237.855112 
L 139.638157 246.795254 
L 137.183734 235.618723 
L 134.729311 254.750377 
L 132.274887 240.793847 
L 129.820464 245.817764 
L 127.36604 247.739759 
L 124.911617 247.669717 
L 122.457193 229.974033 
L 120.00277 235.544646 
L 117.548347 224.639214 
L 115.093923 202.341606 
L 112.6395 219.550687 
L 110.185076 210.410127 
L 107.730653 222.448348 
L 105.276229 217.582175 
L 102.821806 201.162109 
L 100.367383 202.149205 
L 97.912959 207.521989 
L 95.458536 177.78155 
L 93.004112 173.200118 
L 90.549689 159.607614 
L 88.095265 140.193923 
L 85.640842 142.40189 
L 83.186419 138.260868 
L 80.731995 131.966119 
L 78.277572 123.642034 
L 75.823148 109.981959 
L 73.368725 99.302675 
L 70.914301 87.739238 
L 68.459878 46.806712 
L 66.005455 53.167852 
z
" style="fill:#1f77b4;fill-opacity:0.25;"/>
   </g>
   <g id="PolyCollection_2">
    <path clip-path="url(#p5eb68fe311)" d="M 66.005455 43.750405 
L 66.005455 65.572695 
L 68.459878 82.858953 
L 70.914301 97.209151 
L 73.368725 112.398679 
L 75.823148 139.090527 
L 78.277572 131.472998 
L 80.731995 143.135623 
L 83.186419 166.700222 
L 85.640842 178.66077 
L 88.095265 191.650524 
L 90.549689 200.837349 
L 93.004112 218.924757 
L 95.458536 221.285554 
L 97.912959 220.492143 
L 100.367383 227.587062 
L 102.821806 231.719272 
L 105.276229 231.092734 
L 107.730653 231.437182 
L 110.185076 240.716417 
L 112.6395 243.718456 
L 115.093923 254.184693 
L 117.548347 258.200782 
L 120.00277 243.081461 
L 122.457193 252.41077 
L 124.911617 257.529286 
L 127.36604 259.035485 
L 129.820464 257.380314 
L 132.274887 267.936388 
L 134.729311 265.812305 
L 137.183734 260.845051 
L 139.638157 255.643333 
L 142.092581 257.652943 
L 144.547004 259.572578 
L 147.001428 270.392342 
L 149.455851 267.029619 
L 151.910275 257.069251 
L 154.364698 265.671349 
L 156.819121 260.238784 
L 159.273545 265.954931 
L 161.727968 274.428926 
L 164.182392 272.465492 
L 166.636815 267.431523 
L 169.091239 266.452245 
L 171.545662 276.145096 
L 174.000085 272.543327 
L 176.454509 271.697742 
L 178.908932 271.772523 
L 181.363356 273.555759 
L 183.817779 273.267631 
L 186.272203 280.322191 
L 188.726626 275.97318 
L 191.181049 273.163855 
L 193.635473 283.358071 
L 196.089896 275.139147 
L 198.54432 276.907719 
L 200.998743 275.757078 
L 203.453167 277.966021 
L 205.90759 280.700521 
L 208.362013 284.835765 
L 210.816437 279.012543 
L 213.27086 279.163685 
L 215.725284 281.034803 
L 218.179707 283.257903 
L 220.634131 276.334813 
L 223.088554 280.701236 
L 225.542977 284.250501 
L 227.997401 282.614406 
L 230.451824 283.434206 
L 232.906248 285.248094 
L 235.360671 283.002337 
L 237.815095 284.45522 
L 240.269518 283.110826 
L 242.723941 287.172004 
L 245.178365 285.30693 
L 247.632788 288.384455 
L 250.087212 287.169781 
L 252.541635 276.76984 
L 254.996059 285.087147 
L 257.450482 291.435152 
L 259.904905 288.767806 
L 262.359329 289.084501 
L 264.813752 287.119367 
L 267.268176 288.837012 
L 269.722599 291.67521 
L 272.177023 288.603387 
L 274.631446 291.673402 
L 277.085869 287.320155 
L 279.540293 288.237676 
L 281.994716 290.07732 
L 284.44914 290.504289 
L 286.903563 290.832647 
L 289.357987 294.586529 
L 291.81241 294.382894 
L 294.266833 295.006785 
L 296.721257 294.533561 
L 299.17568 290.735461 
L 301.630104 293.229404 
L 304.084527 294.608712 
L 306.538951 298.798113 
L 308.993374 296.340041 
L 311.447797 298.542069 
L 313.902221 298.502954 
L 316.356644 298.759989 
L 318.811068 298.296257 
L 321.265491 300.756138 
L 323.719915 299.084017 
L 326.174338 297.154901 
L 328.628761 300.643415 
L 331.083185 300.26453 
L 333.537608 300.171329 
L 335.992032 300.58093 
L 338.446455 301.483531 
L 340.900879 299.548473 
L 343.355302 302.175868 
L 345.809725 302.339285 
L 348.264149 301.854927 
L 350.718572 302.559669 
L 353.172996 302.785266 
L 355.627419 302.439363 
L 358.081843 302.754637 
L 360.536266 303.03958 
L 362.990689 303.150569 
L 365.445113 302.51003 
L 367.899536 303.12591 
L 370.35396 303.341977 
L 372.808383 303.119654 
L 375.262807 302.786717 
L 377.71723 303.449449 
L 380.171653 303.483606 
L 382.626077 303.537165 
L 385.0805 303.555929 
L 387.534924 303.646694 
L 389.989347 303.519711 
L 392.443771 303.491502 
L 394.898194 303.542481 
L 397.352617 303.543147 
L 399.807041 303.55468 
L 402.261464 303.688992 
L 404.715888 303.587844 
L 407.170311 303.556511 
L 409.624735 303.527363 
L 412.079158 303.524046 
L 414.533581 303.555365 
L 416.988005 303.562146 
L 419.442428 303.56476 
L 421.896852 303.487988 
L 424.351275 303.511356 
L 426.805699 303.528829 
L 429.260122 303.549431 
L 431.714545 303.541655 
L 431.714545 303.436092 
L 431.714545 303.436092 
L 429.260122 303.419191 
L 426.805699 303.38822 
L 424.351275 303.372192 
L 421.896852 303.35159 
L 419.442428 303.472031 
L 416.988005 303.381637 
L 414.533581 303.503642 
L 412.079158 303.423638 
L 409.624735 303.403504 
L 407.170311 303.50697 
L 404.715888 303.257576 
L 402.261464 303.032167 
L 399.807041 303.249348 
L 397.352617 303.432814 
L 394.898194 303.361366 
L 392.443771 303.234771 
L 389.989347 303.171165 
L 387.534924 303.004952 
L 385.0805 302.714824 
L 382.626077 302.777315 
L 380.171653 302.898052 
L 377.71723 303.21088 
L 375.262807 301.71433 
L 372.808383 302.807367 
L 370.35396 302.627537 
L 367.899536 300.752027 
L 365.445113 301.505612 
L 362.990689 300.886936 
L 360.536266 300.289038 
L 358.081843 300.29531 
L 355.627419 301.020171 
L 353.172996 300.892197 
L 350.718572 298.432995 
L 348.264149 300.584077 
L 345.809725 299.032992 
L 343.355302 300.790327 
L 340.900879 297.698307 
L 338.446455 298.303292 
L 335.992032 298.275989 
L 333.537608 295.765053 
L 331.083185 297.274233 
L 328.628761 295.367726 
L 326.174338 295.088669 
L 323.719915 295.151951 
L 321.265491 297.190273 
L 318.811068 290.872321 
L 316.356644 294.162055 
L 313.902221 293.6983 
L 311.447797 293.059703 
L 308.993374 291.042784 
L 306.538951 293.552659 
L 304.084527 286.799038 
L 301.630104 287.405365 
L 299.17568 279.074772 
L 296.721257 291.097365 
L 294.266833 291.041664 
L 291.81241 288.728796 
L 289.357987 287.092045 
L 286.903563 280.571504 
L 284.44914 285.97783 
L 281.994716 286.086016 
L 279.540293 282.492233 
L 277.085869 285.271676 
L 274.631446 286.910433 
L 272.177023 283.520143 
L 269.722599 284.203196 
L 267.268176 284.460093 
L 264.813752 281.748621 
L 262.359329 278.956906 
L 259.904905 282.723799 
L 257.450482 287.997832 
L 254.996059 280.779197 
L 252.541635 270.30802 
L 250.087212 285.055308 
L 247.632788 281.487842 
L 245.178365 277.766531 
L 242.723941 283.061393 
L 240.269518 274.557419 
L 237.815095 279.340441 
L 235.360671 277.819891 
L 232.906248 269.215389 
L 230.451824 275.875915 
L 227.997401 278.111905 
L 225.542977 273.220268 
L 223.088554 271.550509 
L 220.634131 273.671342 
L 218.179707 277.349922 
L 215.725284 279.460178 
L 213.27086 271.914486 
L 210.816437 271.704527 
L 208.362013 276.477333 
L 205.90759 274.011218 
L 203.453167 271.165595 
L 200.998743 263.410435 
L 198.54432 268.770878 
L 196.089896 268.65496 
L 193.635473 267.686246 
L 191.181049 266.409895 
L 188.726626 265.344006 
L 186.272203 272.070609 
L 183.817779 263.784062 
L 181.363356 265.352213 
L 178.908932 263.930686 
L 176.454509 266.928121 
L 174.000085 261.060989 
L 171.545662 264.669935 
L 169.091239 259.580255 
L 166.636815 258.702536 
L 164.182392 266.690736 
L 161.727968 266.758489 
L 159.273545 258.836288 
L 156.819121 254.757597 
L 154.364698 257.754461 
L 151.910275 252.307512 
L 149.455851 248.113459 
L 147.001428 256.204377 
L 144.547004 250.210422 
L 142.092581 253.89042 
L 139.638157 250.269126 
L 137.183734 250.709596 
L 134.729311 258.211577 
L 132.274887 257.13694 
L 129.820464 248.656273 
L 127.36604 244.823219 
L 124.911617 244.670614 
L 122.457193 247.317852 
L 120.00277 240.070414 
L 117.548347 244.969574 
L 115.093923 242.519716 
L 112.6395 239.343144 
L 110.185076 222.168721 
L 107.730653 227.566131 
L 105.276229 224.299578 
L 102.821806 216.767003 
L 100.367383 215.460144 
L 97.912959 208.991244 
L 95.458536 202.375096 
L 93.004112 211.190555 
L 90.549689 189.669808 
L 88.095265 177.732282 
L 85.640842 168.401542 
L 83.186419 162.216816 
L 80.731995 133.105952 
L 78.277572 118.769377 
L 75.823148 114.221198 
L 73.368725 96.949121 
L 70.914301 83.792299 
L 68.459878 65.598359 
L 66.005455 43.750405 
z
" style="fill:#ff7f0e;fill-opacity:0.25;"/>
   </g>
   <g id="PolyCollection_3">
    <path clip-path="url(#p5eb68fe311)" d="M 66.005455 54.187039 
L 66.005455 68.541899 
L 68.459878 85.748328 
L 70.914301 107.100925 
L 73.368725 113.468325 
L 75.823148 125.041495 
L 78.277572 159.06893 
L 80.731995 164.27275 
L 83.186419 179.864532 
L 85.640842 191.578754 
L 88.095265 208.069193 
L 90.549689 209.909139 
L 93.004112 220.084594 
L 95.458536 216.101408 
L 97.912959 236.374172 
L 100.367383 233.891601 
L 102.821806 235.185435 
L 105.276229 242.701863 
L 107.730653 241.828013 
L 110.185076 255.141824 
L 112.6395 255.101401 
L 115.093923 254.562197 
L 117.548347 259.300463 
L 120.00277 255.441355 
L 122.457193 254.296261 
L 124.911617 260.203765 
L 127.36604 272.109891 
L 129.820464 264.839844 
L 132.274887 269.323081 
L 134.729311 264.573454 
L 137.183734 265.767739 
L 139.638157 258.133195 
L 142.092581 258.139896 
L 144.547004 272.367855 
L 147.001428 267.873239 
L 149.455851 266.832092 
L 151.910275 264.424223 
L 154.364698 267.618323 
L 156.819121 264.179646 
L 159.273545 273.266676 
L 161.727968 272.755372 
L 164.182392 273.419262 
L 166.636815 272.382777 
L 169.091239 271.618508 
L 171.545662 272.707055 
L 174.000085 276.442291 
L 176.454509 274.156868 
L 178.908932 275.815928 
L 181.363356 279.278959 
L 183.817779 272.510955 
L 186.272203 280.099685 
L 188.726626 281.211652 
L 191.181049 279.390742 
L 193.635473 286.278001 
L 196.089896 276.926583 
L 198.54432 280.313671 
L 200.998743 276.122277 
L 203.453167 285.22811 
L 205.90759 276.699062 
L 208.362013 284.124495 
L 210.816437 278.565922 
L 213.27086 282.708698 
L 215.725284 283.854537 
L 218.179707 283.714153 
L 220.634131 278.617885 
L 223.088554 283.246545 
L 225.542977 284.379533 
L 227.997401 285.818189 
L 230.451824 282.566303 
L 232.906248 281.598882 
L 235.360671 289.818098 
L 237.815095 287.272497 
L 240.269518 285.337212 
L 242.723941 289.246052 
L 245.178365 287.22038 
L 247.632788 288.658983 
L 250.087212 290.127074 
L 252.541635 285.816085 
L 254.996059 291.887373 
L 257.450482 291.354707 
L 259.904905 288.539547 
L 262.359329 292.697258 
L 264.813752 290.910536 
L 267.268176 293.407263 
L 269.722599 292.502933 
L 272.177023 291.254937 
L 274.631446 291.485211 
L 277.085869 289.361987 
L 279.540293 293.239834 
L 281.994716 291.731717 
L 284.44914 291.490137 
L 286.903563 295.706608 
L 289.357987 295.63014 
L 291.81241 293.786426 
L 294.266833 296.982354 
L 296.721257 294.446283 
L 299.17568 294.013015 
L 301.630104 293.236176 
L 304.084527 293.82893 
L 306.538951 298.065668 
L 308.993374 298.104047 
L 311.447797 299.669048 
L 313.902221 299.289995 
L 316.356644 298.671334 
L 318.811068 300.007822 
L 321.265491 301.539464 
L 323.719915 299.22541 
L 326.174338 300.590898 
L 328.628761 301.897781 
L 331.083185 300.602392 
L 333.537608 300.830284 
L 335.992032 300.766473 
L 338.446455 300.524944 
L 340.900879 300.778673 
L 343.355302 302.4146 
L 345.809725 301.503685 
L 348.264149 301.548073 
L 350.718572 302.853931 
L 353.172996 301.753597 
L 355.627419 301.981282 
L 358.081843 302.814121 
L 360.536266 303.028884 
L 362.990689 303.013543 
L 365.445113 302.547513 
L 367.899536 303.237917 
L 370.35396 303.283979 
L 372.808383 303.411821 
L 375.262807 302.798705 
L 377.71723 303.303523 
L 380.171653 303.277767 
L 382.626077 303.294746 
L 385.0805 303.24015 
L 387.534924 303.418015 
L 389.989347 303.388097 
L 392.443771 303.454533 
L 394.898194 303.433593 
L 397.352617 303.380346 
L 399.807041 303.421115 
L 402.261464 303.600047 
L 404.715888 303.43724 
L 407.170311 303.395512 
L 409.624735 303.407985 
L 412.079158 303.717784 
L 414.533581 303.454146 
L 416.988005 303.480104 
L 419.442428 303.455478 
L 421.896852 303.440278 
L 424.351275 303.469667 
L 426.805699 303.439411 
L 429.260122 303.421516 
L 431.714545 303.478456 
L 431.714545 303.369872 
L 431.714545 303.369872 
L 429.260122 303.347116 
L 426.805699 303.203154 
L 424.351275 303.365306 
L 421.896852 303.191312 
L 419.442428 303.316417 
L 416.988005 303.235721 
L 414.533581 303.392552 
L 412.079158 302.379826 
L 409.624735 303.238503 
L 407.170311 303.136281 
L 404.715888 303.385258 
L 402.261464 302.951229 
L 399.807041 303.396798 
L 397.352617 302.463981 
L 394.898194 303.371978 
L 392.443771 303.224795 
L 389.989347 303.259009 
L 387.534924 302.826732 
L 385.0805 301.325957 
L 382.626077 303.006511 
L 380.171653 302.888342 
L 377.71723 302.293782 
L 375.262807 300.049709 
L 372.808383 302.068497 
L 370.35396 301.698857 
L 367.899536 302.667857 
L 365.445113 301.114434 
L 362.990689 300.906358 
L 360.536266 301.719537 
L 358.081843 301.15127 
L 355.627419 301.517394 
L 353.172996 299.631022 
L 350.718572 300.489938 
L 348.264149 298.826242 
L 345.809725 299.145335 
L 343.355302 298.080317 
L 340.900879 300.277289 
L 338.446455 297.044851 
L 335.992032 295.738359 
L 333.537608 298.408189 
L 331.083185 297.793984 
L 328.628761 297.522652 
L 326.174338 297.593191 
L 323.719915 295.830791 
L 321.265491 296.187607 
L 318.811068 297.505552 
L 316.356644 294.930593 
L 313.902221 294.375407 
L 311.447797 294.044312 
L 308.993374 294.837744 
L 306.538951 296.884741 
L 304.084527 289.057072 
L 301.630104 288.428293 
L 299.17568 291.764609 
L 296.721257 290.343957 
L 294.266833 293.805532 
L 291.81241 289.068544 
L 289.357987 284.338851 
L 286.903563 289.619641 
L 284.44914 284.929918 
L 281.994716 286.787232 
L 279.540293 283.422835 
L 277.085869 286.821097 
L 274.631446 286.159199 
L 272.177023 289.2952 
L 269.722599 291.31403 
L 267.268176 286.251408 
L 264.813752 280.104304 
L 262.359329 284.377291 
L 259.904905 285.231502 
L 257.450482 287.279907 
L 254.996059 286.07582 
L 252.541635 281.353604 
L 250.087212 287.618895 
L 247.632788 279.746345 
L 245.178365 281.895864 
L 242.723941 280.344135 
L 240.269518 278.966246 
L 237.815095 280.269576 
L 235.360671 283.129191 
L 232.906248 277.03982 
L 230.451824 273.454424 
L 227.997401 277.210134 
L 225.542977 273.649813 
L 223.088554 279.223202 
L 220.634131 276.060001 
L 218.179707 277.051654 
L 215.725284 280.488416 
L 213.27086 277.842705 
L 210.816437 273.138531 
L 208.362013 272.15013 
L 205.90759 265.413672 
L 203.453167 279.238971 
L 200.998743 265.482661 
L 198.54432 275.887606 
L 196.089896 272.1204 
L 193.635473 274.611933 
L 191.181049 269.927066 
L 188.726626 273.81605 
L 186.272203 273.511828 
L 183.817779 265.832798 
L 181.363356 271.0488 
L 178.908932 267.865335 
L 176.454509 270.483566 
L 174.000085 265.704297 
L 171.545662 264.86936 
L 169.091239 258.075772 
L 166.636815 266.412351 
L 164.182392 266.741276 
L 161.727968 261.526007 
L 159.273545 266.24501 
L 156.819121 260.57772 
L 154.364698 258.323902 
L 151.910275 255.458292 
L 149.455851 262.416454 
L 147.001428 264.602639 
L 144.547004 259.656649 
L 142.092581 247.749995 
L 139.638157 254.470898 
L 137.183734 260.738705 
L 134.729311 256.51649 
L 132.274887 251.0898 
L 129.820464 254.207627 
L 127.36604 252.387934 
L 124.911617 256.767381 
L 122.457193 249.68657 
L 120.00277 246.30717 
L 117.548347 244.704937 
L 115.093923 237.165803 
L 112.6395 247.25648 
L 110.185076 230.628026 
L 107.730653 229.655818 
L 105.276229 227.089312 
L 102.821806 216.121934 
L 100.367383 227.188036 
L 97.912959 221.365291 
L 95.458536 205.844017 
L 93.004112 214.882999 
L 90.549689 203.640711 
L 88.095265 193.428944 
L 85.640842 182.159821 
L 83.186419 170.944193 
L 80.731995 154.714038 
L 78.277572 135.13737 
L 75.823148 120.50658 
L 73.368725 105.132662 
L 70.914301 96.875513 
L 68.459878 80.809122 
L 66.005455 54.187039 
z
" style="fill:#2ca02c;fill-opacity:0.25;"/>
   </g>
   <g id="matplotlib.axis_1">
    <g id="xtick_1">
     <g id="line2d_1">
      <defs>
       <path d="M 0 0 
L 0 3.5 
" id="mc0084c32cb" style="stroke:#000000;stroke-width:0.8;"/>
      </defs>
      <g>
       <use style="stroke:#000000;stroke-width:0.8;" x="66.005455" xlink:href="#mc0084c32cb" y="303.64"/>
      </g>
     </g>
     <g id="text_1">
      <!-- 0 -->
      <g transform="translate(62.824205 318.238437)scale(0.1 -0.1)">
       <defs>
        <path d="M 31.78125 66.40625 
Q 24.171875 66.40625 20.328125 58.90625 
Q 16.5 51.421875 16.5 36.375 
Q 16.5 21.390625 20.328125 13.890625 
Q 24.171875 6.390625 31.78125 6.390625 
Q 39.453125 6.390625 43.28125 13.890625 
Q 47.125 21.390625 47.125 36.375 
Q 47.125 51.421875 43.28125 58.90625 
Q 39.453125 66.40625 31.78125 66.40625 
z
M 31.78125 74.21875 
Q 44.046875 74.21875 50.515625 64.515625 
Q 56.984375 54.828125 56.984375 36.375 
Q 56.984375 17.96875 50.515625 8.265625 
Q 44.046875 -1.421875 31.78125 -1.421875 
Q 19.53125 -1.421875 13.0625 8.265625 
Q 6.59375 17.96875 6.59375 36.375 
Q 6.59375 54.828125 13.0625 64.515625 
Q 19.53125 74.21875 31.78125 74.21875 
z
" id="DejaVuSans-48"/>
       </defs>
       <use xlink:href="#DejaVuSans-48"/>
      </g>
     </g>
    </g>
    <g id="xtick_2">
     <g id="line2d_2">
      <g>
       <use style="stroke:#000000;stroke-width:0.8;" x="115.093923" xlink:href="#mc0084c32cb" y="303.64"/>
      </g>
     </g>
     <g id="text_2">
      <!-- 20 -->
      <g transform="translate(108.731423 318.238437)scale(0.1 -0.1)">
       <defs>
        <path d="M 19.1875 8.296875 
L 53.609375 8.296875 
L 53.609375 0 
L 7.328125 0 
L 7.328125 8.296875 
Q 12.9375 14.109375 22.625 23.890625 
Q 32.328125 33.6875 34.8125 36.53125 
Q 39.546875 41.84375 41.421875 45.53125 
Q 43.3125 49.21875 43.3125 52.78125 
Q 43.3125 58.59375 39.234375 62.25 
Q 35.15625 65.921875 28.609375 65.921875 
Q 23.96875 65.921875 18.8125 64.3125 
Q 13.671875 62.703125 7.8125 59.421875 
L 7.8125 69.390625 
Q 13.765625 71.78125 18.9375 73 
Q 24.125 74.21875 28.421875 74.21875 
Q 39.75 74.21875 46.484375 68.546875 
Q 53.21875 62.890625 53.21875 53.421875 
Q 53.21875 48.921875 51.53125 44.890625 
Q 49.859375 40.875 45.40625 35.40625 
Q 44.1875 33.984375 37.640625 27.21875 
Q 31.109375 20.453125 19.1875 8.296875 
z
" id="DejaVuSans-50"/>
       </defs>
       <use xlink:href="#DejaVuSans-50"/>
       <use x="63.623047" xlink:href="#DejaVuSans-48"/>
      </g>
     </g>
    </g>
    <g id="xtick_3">
     <g id="line2d_3">
      <g>
       <use style="stroke:#000000;stroke-width:0.8;" x="164.182392" xlink:href="#mc0084c32cb" y="303.64"/>
      </g>
     </g>
     <g id="text_3">
      <!-- 40 -->
      <g transform="translate(157.819892 318.238437)scale(0.1 -0.1)">
       <defs>
        <path d="M 37.796875 64.3125 
L 12.890625 25.390625 
L 37.796875 25.390625 
z
M 35.203125 72.90625 
L 47.609375 72.90625 
L 47.609375 25.390625 
L 58.015625 25.390625 
L 58.015625 17.1875 
L 47.609375 17.1875 
L 47.609375 0 
L 37.796875 0 
L 37.796875 17.1875 
L 4.890625 17.1875 
L 4.890625 26.703125 
z
" id="DejaVuSans-52"/>
       </defs>
       <use xlink:href="#DejaVuSans-52"/>
       <use x="63.623047" xlink:href="#DejaVuSans-48"/>
      </g>
     </g>
    </g>
    <g id="xtick_4">
     <g id="line2d_4">
      <g>
       <use style="stroke:#000000;stroke-width:0.8;" x="213.27086" xlink:href="#mc0084c32cb" y="303.64"/>
      </g>
     </g>
     <g id="text_4">
      <!-- 60 -->
      <g transform="translate(206.90836 318.238437)scale(0.1 -0.1)">
       <defs>
        <path d="M 33.015625 40.375 
Q 26.375 40.375 22.484375 35.828125 
Q 18.609375 31.296875 18.609375 23.390625 
Q 18.609375 15.53125 22.484375 10.953125 
Q 26.375 6.390625 33.015625 6.390625 
Q 39.65625 6.390625 43.53125 10.953125 
Q 47.40625 15.53125 47.40625 23.390625 
Q 47.40625 31.296875 43.53125 35.828125 
Q 39.65625 40.375 33.015625 40.375 
z
M 52.59375 71.296875 
L 52.59375 62.3125 
Q 48.875 64.0625 45.09375 64.984375 
Q 41.3125 65.921875 37.59375 65.921875 
Q 27.828125 65.921875 22.671875 59.328125 
Q 17.53125 52.734375 16.796875 39.40625 
Q 19.671875 43.65625 24.015625 45.921875 
Q 28.375 48.1875 33.59375 48.1875 
Q 44.578125 48.1875 50.953125 41.515625 
Q 57.328125 34.859375 57.328125 23.390625 
Q 57.328125 12.15625 50.6875 5.359375 
Q 44.046875 -1.421875 33.015625 -1.421875 
Q 20.359375 -1.421875 13.671875 8.265625 
Q 6.984375 17.96875 6.984375 36.375 
Q 6.984375 53.65625 15.1875 63.9375 
Q 23.390625 74.21875 37.203125 74.21875 
Q 40.921875 74.21875 44.703125 73.484375 
Q 48.484375 72.75 52.59375 71.296875 
z
" id="DejaVuSans-54"/>
       </defs>
       <use xlink:href="#DejaVuSans-54"/>
       <use x="63.623047" xlink:href="#DejaVuSans-48"/>
      </g>
     </g>
    </g>
    <g id="xtick_5">
     <g id="line2d_5">
      <g>
       <use style="stroke:#000000;stroke-width:0.8;" x="262.359329" xlink:href="#mc0084c32cb" y="303.64"/>
      </g>
     </g>
     <g id="text_5">
      <!-- 80 -->
      <g transform="translate(255.996829 318.238437)scale(0.1 -0.1)">
       <defs>
        <path d="M 31.78125 34.625 
Q 24.75 34.625 20.71875 30.859375 
Q 16.703125 27.09375 16.703125 20.515625 
Q 16.703125 13.921875 20.71875 10.15625 
Q 24.75 6.390625 31.78125 6.390625 
Q 38.8125 6.390625 42.859375 10.171875 
Q 46.921875 13.96875 46.921875 20.515625 
Q 46.921875 27.09375 42.890625 30.859375 
Q 38.875 34.625 31.78125 34.625 
z
M 21.921875 38.8125 
Q 15.578125 40.375 12.03125 44.71875 
Q 8.5 49.078125 8.5 55.328125 
Q 8.5 64.0625 14.71875 69.140625 
Q 20.953125 74.21875 31.78125 74.21875 
Q 42.671875 74.21875 48.875 69.140625 
Q 55.078125 64.0625 55.078125 55.328125 
Q 55.078125 49.078125 51.53125 44.71875 
Q 48 40.375 41.703125 38.8125 
Q 48.828125 37.15625 52.796875 32.3125 
Q 56.78125 27.484375 56.78125 20.515625 
Q 56.78125 9.90625 50.3125 4.234375 
Q 43.84375 -1.421875 31.78125 -1.421875 
Q 19.734375 -1.421875 13.25 4.234375 
Q 6.78125 9.90625 6.78125 20.515625 
Q 6.78125 27.484375 10.78125 32.3125 
Q 14.796875 37.15625 21.921875 38.8125 
z
M 18.3125 54.390625 
Q 18.3125 48.734375 21.84375 45.5625 
Q 25.390625 42.390625 31.78125 42.390625 
Q 38.140625 42.390625 41.71875 45.5625 
Q 45.3125 48.734375 45.3125 54.390625 
Q 45.3125 60.0625 41.71875 63.234375 
Q 38.140625 66.40625 31.78125 66.40625 
Q 25.390625 66.40625 21.84375 63.234375 
Q 18.3125 60.0625 18.3125 54.390625 
z
" id="DejaVuSans-56"/>
       </defs>
       <use xlink:href="#DejaVuSans-56"/>
       <use x="63.623047" xlink:href="#DejaVuSans-48"/>
      </g>
     </g>
    </g>
    <g id="xtick_6">
     <g id="line2d_6">
      <g>
       <use style="stroke:#000000;stroke-width:0.8;" x="311.447797" xlink:href="#mc0084c32cb" y="303.64"/>
      </g>
     </g>
     <g id="text_6">
      <!-- 100 -->
      <g transform="translate(301.904047 318.238437)scale(0.1 -0.1)">
       <defs>
        <path d="M 12.40625 8.296875 
L 28.515625 8.296875 
L 28.515625 63.921875 
L 10.984375 60.40625 
L 10.984375 69.390625 
L 28.421875 72.90625 
L 38.28125 72.90625 
L 38.28125 8.296875 
L 54.390625 8.296875 
L 54.390625 0 
L 12.40625 0 
z
" id="DejaVuSans-49"/>
       </defs>
       <use xlink:href="#DejaVuSans-49"/>
       <use x="63.623047" xlink:href="#DejaVuSans-48"/>
       <use x="127.246094" xlink:href="#DejaVuSans-48"/>
      </g>
     </g>
    </g>
    <g id="xtick_7">
     <g id="line2d_7">
      <g>
       <use style="stroke:#000000;stroke-width:0.8;" x="360.536266" xlink:href="#mc0084c32cb" y="303.64"/>
      </g>
     </g>
     <g id="text_7">
      <!-- 120 -->
      <g transform="translate(350.992516 318.238437)scale(0.1 -0.1)">
       <use xlink:href="#DejaVuSans-49"/>
       <use x="63.623047" xlink:href="#DejaVuSans-50"/>
       <use x="127.246094" xlink:href="#DejaVuSans-48"/>
      </g>
     </g>
    </g>
    <g id="xtick_8">
     <g id="line2d_8">
      <g>
       <use style="stroke:#000000;stroke-width:0.8;" x="409.624735" xlink:href="#mc0084c32cb" y="303.64"/>
      </g>
     </g>
     <g id="text_8">
      <!-- 140 -->
      <g transform="translate(400.080985 318.238437)scale(0.1 -0.1)">
       <use xlink:href="#DejaVuSans-49"/>
       <use x="63.623047" xlink:href="#DejaVuSans-52"/>
       <use x="127.246094" xlink:href="#DejaVuSans-48"/>
      </g>
     </g>
    </g>
    <g id="text_9">
     <!-- Epochs -->
     <g transform="translate(230.944375 331.916562)scale(0.1 -0.1)">
      <defs>
       <path d="M 9.8125 72.90625 
L 55.90625 72.90625 
L 55.90625 64.59375 
L 19.671875 64.59375 
L 19.671875 43.015625 
L 54.390625 43.015625 
L 54.390625 34.71875 
L 19.671875 34.71875 
L 19.671875 8.296875 
L 56.78125 8.296875 
L 56.78125 0 
L 9.8125 0 
z
" id="DejaVuSans-69"/>
       <path d="M 18.109375 8.203125 
L 18.109375 -20.796875 
L 9.078125 -20.796875 
L 9.078125 54.6875 
L 18.109375 54.6875 
L 18.109375 46.390625 
Q 20.953125 51.265625 25.265625 53.625 
Q 29.59375 56 35.59375 56 
Q 45.5625 56 51.78125 48.09375 
Q 58.015625 40.1875 58.015625 27.296875 
Q 58.015625 14.40625 51.78125 6.484375 
Q 45.5625 -1.421875 35.59375 -1.421875 
Q 29.59375 -1.421875 25.265625 0.953125 
Q 20.953125 3.328125 18.109375 8.203125 
z
M 48.6875 27.296875 
Q 48.6875 37.203125 44.609375 42.84375 
Q 40.53125 48.484375 33.40625 48.484375 
Q 26.265625 48.484375 22.1875 42.84375 
Q 18.109375 37.203125 18.109375 27.296875 
Q 18.109375 17.390625 22.1875 11.75 
Q 26.265625 6.109375 33.40625 6.109375 
Q 40.53125 6.109375 44.609375 11.75 
Q 48.6875 17.390625 48.6875 27.296875 
z
" id="DejaVuSans-112"/>
       <path d="M 30.609375 48.390625 
Q 23.390625 48.390625 19.1875 42.75 
Q 14.984375 37.109375 14.984375 27.296875 
Q 14.984375 17.484375 19.15625 11.84375 
Q 23.34375 6.203125 30.609375 6.203125 
Q 37.796875 6.203125 41.984375 11.859375 
Q 46.1875 17.53125 46.1875 27.296875 
Q 46.1875 37.015625 41.984375 42.703125 
Q 37.796875 48.390625 30.609375 48.390625 
z
M 30.609375 56 
Q 42.328125 56 49.015625 48.375 
Q 55.71875 40.765625 55.71875 27.296875 
Q 55.71875 13.875 49.015625 6.21875 
Q 42.328125 -1.421875 30.609375 -1.421875 
Q 18.84375 -1.421875 12.171875 6.21875 
Q 5.515625 13.875 5.515625 27.296875 
Q 5.515625 40.765625 12.171875 48.375 
Q 18.84375 56 30.609375 56 
z
" id="DejaVuSans-111"/>
       <path d="M 48.78125 52.59375 
L 48.78125 44.1875 
Q 44.96875 46.296875 41.140625 47.34375 
Q 37.3125 48.390625 33.40625 48.390625 
Q 24.65625 48.390625 19.8125 42.84375 
Q 14.984375 37.3125 14.984375 27.296875 
Q 14.984375 17.28125 19.8125 11.734375 
Q 24.65625 6.203125 33.40625 6.203125 
Q 37.3125 6.203125 41.140625 7.25 
Q 44.96875 8.296875 48.78125 10.40625 
L 48.78125 2.09375 
Q 45.015625 0.34375 40.984375 -0.53125 
Q 36.96875 -1.421875 32.421875 -1.421875 
Q 20.0625 -1.421875 12.78125 6.34375 
Q 5.515625 14.109375 5.515625 27.296875 
Q 5.515625 40.671875 12.859375 48.328125 
Q 20.21875 56 33.015625 56 
Q 37.15625 56 41.109375 55.140625 
Q 45.0625 54.296875 48.78125 52.59375 
z
" id="DejaVuSans-99"/>
       <path d="M 54.890625 33.015625 
L 54.890625 0 
L 45.90625 0 
L 45.90625 32.71875 
Q 45.90625 40.484375 42.875 44.328125 
Q 39.84375 48.1875 33.796875 48.1875 
Q 26.515625 48.1875 22.3125 43.546875 
Q 18.109375 38.921875 18.109375 30.90625 
L 18.109375 0 
L 9.078125 0 
L 9.078125 75.984375 
L 18.109375 75.984375 
L 18.109375 46.1875 
Q 21.34375 51.125 25.703125 53.5625 
Q 30.078125 56 35.796875 56 
Q 45.21875 56 50.046875 50.171875 
Q 54.890625 44.34375 54.890625 33.015625 
z
" id="DejaVuSans-104"/>
       <path d="M 44.28125 53.078125 
L 44.28125 44.578125 
Q 40.484375 46.53125 36.375 47.5 
Q 32.28125 48.484375 27.875 48.484375 
Q 21.1875 48.484375 17.84375 46.4375 
Q 14.5 44.390625 14.5 40.28125 
Q 14.5 37.15625 16.890625 35.375 
Q 19.28125 33.59375 26.515625 31.984375 
L 29.59375 31.296875 
Q 39.15625 29.25 43.1875 25.515625 
Q 47.21875 21.78125 47.21875 15.09375 
Q 47.21875 7.46875 41.1875 3.015625 
Q 35.15625 -1.421875 24.609375 -1.421875 
Q 20.21875 -1.421875 15.453125 -0.5625 
Q 10.6875 0.296875 5.421875 2 
L 5.421875 11.28125 
Q 10.40625 8.6875 15.234375 7.390625 
Q 20.0625 6.109375 24.8125 6.109375 
Q 31.15625 6.109375 34.5625 8.28125 
Q 37.984375 10.453125 37.984375 14.40625 
Q 37.984375 18.0625 35.515625 20.015625 
Q 33.0625 21.96875 24.703125 23.78125 
L 21.578125 24.515625 
Q 13.234375 26.265625 9.515625 29.90625 
Q 5.8125 33.546875 5.8125 39.890625 
Q 5.8125 47.609375 11.28125 51.796875 
Q 16.75 56 26.8125 56 
Q 31.78125 56 36.171875 55.265625 
Q 40.578125 54.546875 44.28125 53.078125 
z
" id="DejaVuSans-115"/>
      </defs>
      <use xlink:href="#DejaVuSans-69"/>
      <use x="63.183594" xlink:href="#DejaVuSans-112"/>
      <use x="126.660156" xlink:href="#DejaVuSans-111"/>
      <use x="187.841797" xlink:href="#DejaVuSans-99"/>
      <use x="242.822266" xlink:href="#DejaVuSans-104"/>
      <use x="306.201172" xlink:href="#DejaVuSans-115"/>
     </g>
    </g>
   </g>
   <g id="matplotlib.axis_2">
    <g id="ytick_1">
     <g id="line2d_9">
      <defs>
       <path d="M 0 0 
L -3.5 0 
" id="m3f35fe6084" style="stroke:#000000;stroke-width:0.8;"/>
      </defs>
      <g>
       <use style="stroke:#000000;stroke-width:0.8;" x="47.72" xlink:href="#m3f35fe6084" y="303.64"/>
      </g>
     </g>
     <g id="text_10">
      <!-- 0.0 -->
      <g transform="translate(24.816875 307.439219)scale(0.1 -0.1)">
       <defs>
        <path d="M 10.6875 12.40625 
L 21 12.40625 
L 21 0 
L 10.6875 0 
z
" id="DejaVuSans-46"/>
       </defs>
       <use xlink:href="#DejaVuSans-48"/>
       <use x="63.623047" xlink:href="#DejaVuSans-46"/>
       <use x="95.410156" xlink:href="#DejaVuSans-48"/>
      </g>
     </g>
    </g>
    <g id="ytick_2">
     <g id="line2d_10">
      <g>
       <use style="stroke:#000000;stroke-width:0.8;" x="47.72" xlink:href="#m3f35fe6084" y="245.864"/>
      </g>
     </g>
     <g id="text_11">
      <!-- 0.5 -->
      <g transform="translate(24.816875 249.663219)scale(0.1 -0.1)">
       <defs>
        <path d="M 10.796875 72.90625 
L 49.515625 72.90625 
L 49.515625 64.59375 
L 19.828125 64.59375 
L 19.828125 46.734375 
Q 21.96875 47.46875 24.109375 47.828125 
Q 26.265625 48.1875 28.421875 48.1875 
Q 40.625 48.1875 47.75 41.5 
Q 54.890625 34.8125 54.890625 23.390625 
Q 54.890625 11.625 47.5625 5.09375 
Q 40.234375 -1.421875 26.90625 -1.421875 
Q 22.3125 -1.421875 17.546875 -0.640625 
Q 12.796875 0.140625 7.71875 1.703125 
L 7.71875 11.625 
Q 12.109375 9.234375 16.796875 8.0625 
Q 21.484375 6.890625 26.703125 6.890625 
Q 35.15625 6.890625 40.078125 11.328125 
Q 45.015625 15.765625 45.015625 23.390625 
Q 45.015625 31 40.078125 35.4375 
Q 35.15625 39.890625 26.703125 39.890625 
Q 22.75 39.890625 18.8125 39.015625 
Q 14.890625 38.140625 10.796875 36.28125 
z
" id="DejaVuSans-53"/>
       </defs>
       <use xlink:href="#DejaVuSans-48"/>
       <use x="63.623047" xlink:href="#DejaVuSans-46"/>
       <use x="95.410156" xlink:href="#DejaVuSans-53"/>
      </g>
     </g>
    </g>
    <g id="ytick_3">
     <g id="line2d_11">
      <g>
       <use style="stroke:#000000;stroke-width:0.8;" x="47.72" xlink:href="#m3f35fe6084" y="188.088"/>
      </g>
     </g>
     <g id="text_12">
      <!-- 1.0 -->
      <g transform="translate(24.816875 191.887219)scale(0.1 -0.1)">
       <use xlink:href="#DejaVuSans-49"/>
       <use x="63.623047" xlink:href="#DejaVuSans-46"/>
       <use x="95.410156" xlink:href="#DejaVuSans-48"/>
      </g>
     </g>
    </g>
    <g id="ytick_4">
     <g id="line2d_12">
      <g>
       <use style="stroke:#000000;stroke-width:0.8;" x="47.72" xlink:href="#m3f35fe6084" y="130.312"/>
      </g>
     </g>
     <g id="text_13">
      <!-- 1.5 -->
      <g transform="translate(24.816875 134.111219)scale(0.1 -0.1)">
       <use xlink:href="#DejaVuSans-49"/>
       <use x="63.623047" xlink:href="#DejaVuSans-46"/>
       <use x="95.410156" xlink:href="#DejaVuSans-53"/>
      </g>
     </g>
    </g>
    <g id="ytick_5">
     <g id="line2d_13">
      <g>
       <use style="stroke:#000000;stroke-width:0.8;" x="47.72" xlink:href="#m3f35fe6084" y="72.536"/>
      </g>
     </g>
     <g id="text_14">
      <!-- 2.0 -->
      <g transform="translate(24.816875 76.335219)scale(0.1 -0.1)">
       <use xlink:href="#DejaVuSans-50"/>
       <use x="63.623047" xlink:href="#DejaVuSans-46"/>
       <use x="95.410156" xlink:href="#DejaVuSans-48"/>
      </g>
     </g>
    </g>
    <g id="ytick_6">
     <g id="line2d_14">
      <g>
       <use style="stroke:#000000;stroke-width:0.8;" x="47.72" xlink:href="#m3f35fe6084" y="14.76"/>
      </g>
     </g>
     <g id="text_15">
      <!-- 2.5 -->
      <g transform="translate(24.816875 18.559219)scale(0.1 -0.1)">
       <use xlink:href="#DejaVuSans-50"/>
       <use x="63.623047" xlink:href="#DejaVuSans-46"/>
       <use x="95.410156" xlink:href="#DejaVuSans-53"/>
      </g>
     </g>
    </g>
    <g id="text_16">
     <!-- Loss -->
     <g transform="translate(18.737188 170.167187)rotate(-90)scale(0.1 -0.1)">
      <defs>
       <path d="M 9.8125 72.90625 
L 19.671875 72.90625 
L 19.671875 8.296875 
L 55.171875 8.296875 
L 55.171875 0 
L 9.8125 0 
z
" id="DejaVuSans-76"/>
      </defs>
      <use xlink:href="#DejaVuSans-76"/>
      <use x="53.962891" xlink:href="#DejaVuSans-111"/>
      <use x="115.144531" xlink:href="#DejaVuSans-115"/>
      <use x="167.244141" xlink:href="#DejaVuSans-115"/>
     </g>
    </g>
   </g>
   <g id="line2d_15">
    <path clip-path="url(#p5eb68fe311)" d="M 66.005455 65.900787 
L 68.459878 54.616412 
L 70.914301 94.314844 
L 73.368725 104.877019 
L 75.823148 116.341944 
L 78.277572 129.2287 
L 80.731995 141.415825 
L 83.186419 144.259487 
L 85.640842 154.663681 
L 88.095265 151.774881 
L 90.549689 171.308134 
L 93.004112 177.886925 
L 95.458536 183.924066 
L 97.912959 213.263441 
L 100.367383 206.741072 
L 102.821806 210.611612 
L 105.276229 224.468825 
L 107.730653 229.43395 
L 110.185076 220.541862 
L 112.6395 226.229187 
L 115.093923 211.491794 
L 117.548347 229.174409 
L 120.00277 241.011719 
L 122.457193 234.444212 
L 124.911617 252.437148 
L 127.36604 251.635958 
L 129.820464 251.77137 
L 132.274887 244.571939 
L 134.729311 257.526402 
L 137.183734 239.702731 
L 139.638157 250.157705 
L 142.092581 242.557678 
L 144.547004 256.318973 
L 147.001428 261.052769 
L 149.455851 253.853337 
L 151.910275 237.1976 
L 154.364698 251.054812 
L 156.819121 255.151041 
L 159.273545 250.626006 
L 161.727968 265.402895 
L 164.182392 252.860312 
L 166.636815 248.380416 
L 169.091239 259.952542 
L 171.545662 261.08098 
L 174.000085 256.719569 
L 176.454509 255.196178 
L 178.908932 263.794872 
L 181.363356 271.434394 
L 183.817779 254.208795 
L 186.272203 275.110279 
L 188.726626 265.143355 
L 191.181049 261.092264 
L 193.635473 246.851383 
L 196.089896 269.298826 
L 198.54432 272.749023 
L 200.998743 273.062165 
L 203.453167 274.232919 
L 205.90759 271.251023 
L 208.362013 276.503899 
L 210.816437 269.733274 
L 213.27086 274.49528 
L 215.725284 273.062165 
L 218.179707 270.531644 
L 220.634131 270.063342 
L 223.088554 276.94399 
L 225.542977 267.992659 
L 227.997401 274.08058 
L 230.451824 266.305645 
L 232.906248 276.523647 
L 235.360671 282.013495 
L 237.815095 274.475533 
L 240.269518 273.586888 
L 242.723941 271.047904 
L 245.178365 273.61792 
L 247.632788 284.470668 
L 250.087212 278.173987 
L 252.541635 274.464248 
L 254.996059 276.529289 
L 257.450482 276.450298 
L 259.904905 278.780522 
L 262.359329 278.915934 
L 264.813752 288.287608 
L 269.722599 273.426086 
L 272.177023 290.696822 
L 274.631446 282.74698 
L 277.085869 281.090998 
L 279.540293 289.102904 
L 281.994716 282.786475 
L 284.44914 286.48775 
L 286.903563 273.620741 
L 289.357987 288.022425 
L 291.81241 288.789762 
L 294.266833 285.166068 
L 296.721257 289.836388 
L 299.17568 286.380548 
L 301.630104 290.930973 
L 304.084527 289.535942 
L 306.538951 289.392066 
L 308.993374 287.094285 
L 311.447797 291.469802 
L 313.902221 296.609834 
L 316.356644 287.734673 
L 318.811068 292.948055 
L 321.265491 295.274752 
L 323.719915 297.124331 
L 326.174338 297.716408 
L 328.628761 295.397469 
L 331.083185 291.469802 
L 333.537608 290.765939 
L 335.992032 299.859734 
L 338.446455 298.023202 
L 340.900879 301.038952 
L 343.355302 299.192546 
L 345.809725 295.278278 
L 348.264149 296.439863 
L 350.718572 300.200381 
L 353.172996 297.339792 
L 355.627419 301.443955 
L 358.081843 300.804801 
L 362.990689 302.215877 
L 367.899536 302.010113 
L 370.35396 302.464309 
L 372.808383 303.13163 
L 375.262807 302.503628 
L 377.71723 302.41807 
L 380.171653 302.122957 
L 382.626077 303.229663 
L 385.0805 303.158166 
L 387.534924 302.712169 
L 389.989347 302.914847 
L 392.443771 302.889148 
L 394.898194 303.155213 
L 397.352617 303.165241 
L 399.807041 303.336049 
L 402.261464 302.94416 
L 404.715888 303.446204 
L 407.170311 303.299772 
L 409.624735 303.401441 
L 412.079158 303.31661 
L 416.988005 303.518913 
L 421.896852 303.433641 
L 424.351275 303.287804 
L 431.714545 303.356888 
L 431.714545 303.356888 
" style="fill:none;stroke:#1f77b4;stroke-linecap:square;stroke-width:1.5;"/>
   </g>
   <g id="line2d_16">
    <path clip-path="url(#p5eb68fe311)" d="M 66.005455 54.66155 
L 68.459878 74.228656 
L 70.914301 90.500725 
L 73.368725 104.6739 
L 75.823148 126.655862 
L 78.277572 125.121187 
L 80.731995 138.120787 
L 83.186419 164.458519 
L 85.640842 173.531156 
L 88.095265 184.691403 
L 90.549689 195.253578 
L 93.004112 215.057656 
L 95.458536 211.830325 
L 97.912959 214.741694 
L 100.367383 221.523603 
L 102.821806 224.243137 
L 105.276229 227.696156 
L 110.185076 231.442569 
L 112.6395 241.5308 
L 115.093923 248.352205 
L 117.548347 251.585178 
L 120.00277 241.575937 
L 122.457193 249.864311 
L 124.911617 251.09995 
L 127.36604 251.929352 
L 129.820464 253.018294 
L 132.274887 262.536664 
L 134.729311 262.011941 
L 137.183734 255.777323 
L 139.638157 252.95623 
L 142.092581 255.771681 
L 144.547004 254.8915 
L 147.001428 263.298359 
L 149.455851 257.571539 
L 151.910275 254.688381 
L 154.364698 261.712905 
L 156.819121 257.498191 
L 159.273545 262.395609 
L 161.727968 270.593708 
L 164.182392 269.578114 
L 166.636815 263.06703 
L 169.091239 263.01625 
L 171.545662 270.407516 
L 174.000085 266.802158 
L 176.454509 269.312931 
L 178.908932 267.851605 
L 181.363356 269.453986 
L 183.817779 268.525846 
L 186.272203 276.1964 
L 188.726626 270.658593 
L 191.181049 269.786875 
L 193.635473 275.522159 
L 196.089896 271.897053 
L 198.54432 272.839298 
L 200.998743 269.583756 
L 203.453167 274.565808 
L 205.90759 277.35587 
L 208.362013 280.656549 
L 210.816437 275.358535 
L 213.27086 275.539085 
L 215.725284 280.247491 
L 218.179707 280.303912 
L 220.634131 275.003077 
L 223.088554 276.125873 
L 225.542977 278.735384 
L 227.997401 280.363155 
L 230.451824 279.655061 
L 232.906248 277.231741 
L 235.360671 280.411114 
L 237.815095 281.89783 
L 240.269518 278.834123 
L 242.723941 285.116698 
L 245.178365 281.53673 
L 247.632788 284.936148 
L 250.087212 286.112545 
L 252.541635 273.53893 
L 254.996059 282.933172 
L 257.450482 289.716492 
L 259.904905 285.745802 
L 262.359329 284.020704 
L 264.813752 284.433994 
L 267.268176 286.648552 
L 269.722599 287.939203 
L 272.177023 286.061765 
L 274.631446 289.291917 
L 277.085869 286.295916 
L 279.540293 285.364955 
L 281.994716 288.081668 
L 284.44914 288.24106 
L 286.903563 285.702075 
L 289.357987 290.839287 
L 291.81241 291.555845 
L 294.266833 293.024224 
L 296.721257 292.815463 
L 299.17568 284.905116 
L 301.630104 290.317385 
L 304.084527 290.703875 
L 306.538951 296.175386 
L 308.993374 293.691413 
L 311.447797 295.800886 
L 316.356644 296.461022 
L 318.811068 294.584289 
L 321.265491 298.973206 
L 323.719915 297.117984 
L 326.174338 296.121785 
L 328.628761 298.005571 
L 331.083185 298.769382 
L 333.537608 297.968191 
L 335.992032 299.42846 
L 338.446455 299.893411 
L 340.900879 298.62339 
L 343.355302 301.483098 
L 345.809725 300.686139 
L 348.264149 301.219502 
L 350.718572 300.496332 
L 353.172996 301.838732 
L 358.081843 301.524973 
L 360.536266 301.664309 
L 362.990689 302.018753 
L 367.899536 301.938969 
L 370.35396 302.984757 
L 372.808383 302.963511 
L 375.262807 302.250523 
L 377.71723 303.330165 
L 382.626077 303.15724 
L 385.0805 303.135377 
L 387.534924 303.325823 
L 419.442428 303.518395 
L 421.896852 303.419789 
L 431.714545 303.488873 
L 431.714545 303.488873 
" style="fill:none;stroke:#ff7f0e;stroke-linecap:square;stroke-width:1.5;"/>
   </g>
   <g id="line2d_17">
    <path clip-path="url(#p5eb68fe311)" d="M 66.005455 61.364469 
L 68.459878 83.278725 
L 70.914301 101.988219 
L 73.368725 109.300494 
L 75.823148 122.774037 
L 78.277572 147.10315 
L 80.731995 159.493394 
L 83.186419 175.404362 
L 85.640842 186.869287 
L 88.095265 200.749069 
L 90.549689 206.774925 
L 93.004112 217.483797 
L 95.458536 210.972712 
L 97.912959 228.869731 
L 100.367383 230.539819 
L 102.821806 225.653684 
L 105.276229 234.895587 
L 107.730653 235.741916 
L 110.185076 242.884925 
L 112.6395 251.178941 
L 115.093923 245.864 
L 117.548347 252.0027 
L 120.00277 250.874262 
L 122.457193 251.991416 
L 124.911617 258.485573 
L 127.36604 262.248912 
L 129.820464 259.523736 
L 132.274887 260.206441 
L 134.729311 260.544972 
L 137.183734 263.253222 
L 139.638157 256.302047 
L 142.092581 252.944945 
L 144.547004 266.012252 
L 147.001428 266.237939 
L 149.455851 264.624273 
L 151.910275 259.941258 
L 154.364698 262.971113 
L 156.819121 262.378683 
L 159.273545 269.755843 
L 161.727968 267.140689 
L 164.182392 270.080269 
L 166.636815 269.397564 
L 169.091239 264.84714 
L 171.545662 268.788208 
L 174.000085 271.073294 
L 176.454509 272.320217 
L 178.908932 271.840631 
L 181.363356 275.16388 
L 183.817779 269.171877 
L 186.272203 276.805756 
L 188.726626 277.513851 
L 191.181049 274.658904 
L 193.635473 280.444967 
L 196.089896 274.523491 
L 198.54432 278.100638 
L 200.998743 270.802469 
L 203.453167 282.233541 
L 205.90759 271.056367 
L 208.362013 278.137313 
L 210.816437 275.852227 
L 213.27086 280.275702 
L 215.725284 282.171477 
L 218.179707 280.382903 
L 220.634131 277.338943 
L 223.088554 281.234873 
L 225.542977 279.014673 
L 227.997401 281.514162 
L 230.451824 278.010363 
L 232.906248 279.319351 
L 235.360671 286.473645 
L 237.815095 283.771037 
L 240.269518 282.151729 
L 242.723941 284.795094 
L 245.178365 284.558122 
L 247.632788 284.202664 
L 250.087212 288.872985 
L 252.541635 283.584845 
L 254.996059 288.981597 
L 257.450482 289.317307 
L 259.904905 286.885524 
L 262.359329 288.537275 
L 264.813752 285.50742 
L 267.268176 289.829336 
L 269.722599 291.908482 
L 272.177023 290.275068 
L 274.631446 288.822205 
L 277.085869 288.091542 
L 279.540293 288.331335 
L 281.994716 289.259475 
L 284.44914 288.210028 
L 286.903563 292.663124 
L 289.357987 289.984496 
L 291.81241 291.427485 
L 294.266833 295.393943 
L 296.721257 292.39512 
L 299.17568 292.888812 
L 301.630104 290.832234 
L 304.084527 291.443001 
L 306.538951 297.475205 
L 308.993374 296.470896 
L 311.447797 296.85668 
L 316.356644 296.800963 
L 318.811068 298.756687 
L 321.265491 298.863536 
L 323.719915 297.5281 
L 326.174338 299.092044 
L 328.628761 299.710216 
L 331.083185 299.198188 
L 333.537608 299.619236 
L 335.992032 298.252416 
L 338.446455 298.784898 
L 340.900879 300.527981 
L 343.355302 300.247458 
L 345.809725 300.32451 
L 348.264149 300.187158 
L 350.718572 301.671934 
L 353.172996 300.69231 
L 355.627419 301.749338 
L 358.081843 301.982696 
L 360.536266 302.37421 
L 362.990689 301.959951 
L 365.445113 301.830974 
L 367.899536 302.952887 
L 370.35396 302.491418 
L 372.808383 302.740159 
L 375.262807 301.424207 
L 377.71723 302.798653 
L 380.171653 303.083054 
L 382.626077 303.150628 
L 385.0805 302.283054 
L 387.534924 303.122373 
L 389.989347 303.323553 
L 394.898194 303.402786 
L 397.352617 302.922164 
L 399.807041 303.408957 
L 402.261464 303.275638 
L 404.715888 303.411249 
L 407.170311 303.265897 
L 409.624735 303.323244 
L 412.079158 303.048805 
L 414.533581 303.423349 
L 421.896852 303.315795 
L 424.351275 303.417486 
L 426.805699 303.321283 
L 431.714545 303.424164 
L 431.714545 303.424164 
" style="fill:none;stroke:#2ca02c;stroke-linecap:square;stroke-width:1.5;"/>
   </g>
   <g id="patch_3">
    <path d="M 47.72 303.64 
L 47.72 14.76 
" style="fill:none;stroke:#000000;stroke-linecap:square;stroke-linejoin:miter;stroke-width:0.8;"/>
   </g>
   <g id="patch_4">
    <path d="M 450 303.64 
L 450 14.76 
" style="fill:none;stroke:#000000;stroke-linecap:square;stroke-linejoin:miter;stroke-width:0.8;"/>
   </g>
   <g id="patch_5">
    <path d="M 47.72 303.64 
L 450 303.64 
" style="fill:none;stroke:#000000;stroke-linecap:square;stroke-linejoin:miter;stroke-width:0.8;"/>
   </g>
   <g id="patch_6">
    <path d="M 47.72 14.76 
L 450 14.76 
" style="fill:none;stroke:#000000;stroke-linecap:square;stroke-linejoin:miter;stroke-width:0.8;"/>
   </g>
   <g id="legend_1">
    <g id="patch_7">
     <path d="M 361.492188 66.794375 
L 443 66.794375 
Q 445 66.794375 445 64.794375 
L 445 21.76 
Q 445 19.76 443 19.76 
L 361.492188 19.76 
Q 359.492188 19.76 359.492188 21.76 
L 359.492188 64.794375 
Q 359.492188 66.794375 361.492188 66.794375 
z
" style="fill:#ffffff;opacity:0.8;stroke:#cccccc;stroke-linejoin:miter;"/>
    </g>
    <g id="line2d_18">
     <path d="M 363.492188 27.858437 
L 383.492188 27.858437 
" style="fill:none;stroke:#1f77b4;stroke-linecap:square;stroke-width:1.5;"/>
    </g>
    <g id="line2d_19"/>
    <g id="text_17">
     <!-- Sync-SGD -->
     <g transform="translate(391.492188 31.358437)scale(0.1 -0.1)">
      <defs>
       <path d="M 53.515625 70.515625 
L 53.515625 60.890625 
Q 47.90625 63.578125 42.921875 64.890625 
Q 37.9375 66.21875 33.296875 66.21875 
Q 25.25 66.21875 20.875 63.09375 
Q 16.5 59.96875 16.5 54.203125 
Q 16.5 49.359375 19.40625 46.890625 
Q 22.3125 44.4375 30.421875 42.921875 
L 36.375 41.703125 
Q 47.40625 39.59375 52.65625 34.296875 
Q 57.90625 29 57.90625 20.125 
Q 57.90625 9.515625 50.796875 4.046875 
Q 43.703125 -1.421875 29.984375 -1.421875 
Q 24.8125 -1.421875 18.96875 -0.25 
Q 13.140625 0.921875 6.890625 3.21875 
L 6.890625 13.375 
Q 12.890625 10.015625 18.65625 8.296875 
Q 24.421875 6.59375 29.984375 6.59375 
Q 38.421875 6.59375 43.015625 9.90625 
Q 47.609375 13.234375 47.609375 19.390625 
Q 47.609375 24.75 44.3125 27.78125 
Q 41.015625 30.8125 33.5 32.328125 
L 27.484375 33.5 
Q 16.453125 35.6875 11.515625 40.375 
Q 6.59375 45.0625 6.59375 53.421875 
Q 6.59375 63.09375 13.40625 68.65625 
Q 20.21875 74.21875 32.171875 74.21875 
Q 37.3125 74.21875 42.625 73.28125 
Q 47.953125 72.359375 53.515625 70.515625 
z
" id="DejaVuSans-83"/>
       <path d="M 32.171875 -5.078125 
Q 28.375 -14.84375 24.75 -17.8125 
Q 21.140625 -20.796875 15.09375 -20.796875 
L 7.90625 -20.796875 
L 7.90625 -13.28125 
L 13.1875 -13.28125 
Q 16.890625 -13.28125 18.9375 -11.515625 
Q 21 -9.765625 23.484375 -3.21875 
L 25.09375 0.875 
L 2.984375 54.6875 
L 12.5 54.6875 
L 29.59375 11.921875 
L 46.6875 54.6875 
L 56.203125 54.6875 
z
" id="DejaVuSans-121"/>
       <path d="M 54.890625 33.015625 
L 54.890625 0 
L 45.90625 0 
L 45.90625 32.71875 
Q 45.90625 40.484375 42.875 44.328125 
Q 39.84375 48.1875 33.796875 48.1875 
Q 26.515625 48.1875 22.3125 43.546875 
Q 18.109375 38.921875 18.109375 30.90625 
L 18.109375 0 
L 9.078125 0 
L 9.078125 54.6875 
L 18.109375 54.6875 
L 18.109375 46.1875 
Q 21.34375 51.125 25.703125 53.5625 
Q 30.078125 56 35.796875 56 
Q 45.21875 56 50.046875 50.171875 
Q 54.890625 44.34375 54.890625 33.015625 
z
" id="DejaVuSans-110"/>
       <path d="M 4.890625 31.390625 
L 31.203125 31.390625 
L 31.203125 23.390625 
L 4.890625 23.390625 
z
" id="DejaVuSans-45"/>
       <path d="M 59.515625 10.40625 
L 59.515625 29.984375 
L 43.40625 29.984375 
L 43.40625 38.09375 
L 69.28125 38.09375 
L 69.28125 6.78125 
Q 63.578125 2.734375 56.6875 0.65625 
Q 49.8125 -1.421875 42 -1.421875 
Q 24.90625 -1.421875 15.25 8.5625 
Q 5.609375 18.5625 5.609375 36.375 
Q 5.609375 54.25 15.25 64.234375 
Q 24.90625 74.21875 42 74.21875 
Q 49.125 74.21875 55.546875 72.453125 
Q 61.96875 70.703125 67.390625 67.28125 
L 67.390625 56.78125 
Q 61.921875 61.421875 55.765625 63.765625 
Q 49.609375 66.109375 42.828125 66.109375 
Q 29.4375 66.109375 22.71875 58.640625 
Q 16.015625 51.171875 16.015625 36.375 
Q 16.015625 21.625 22.71875 14.15625 
Q 29.4375 6.6875 42.828125 6.6875 
Q 48.046875 6.6875 52.140625 7.59375 
Q 56.25 8.5 59.515625 10.40625 
z
" id="DejaVuSans-71"/>
       <path d="M 19.671875 64.796875 
L 19.671875 8.109375 
L 31.59375 8.109375 
Q 46.6875 8.109375 53.6875 14.9375 
Q 60.6875 21.78125 60.6875 36.53125 
Q 60.6875 51.171875 53.6875 57.984375 
Q 46.6875 64.796875 31.59375 64.796875 
z
M 9.8125 72.90625 
L 30.078125 72.90625 
Q 51.265625 72.90625 61.171875 64.09375 
Q 71.09375 55.28125 71.09375 36.53125 
Q 71.09375 17.671875 61.125 8.828125 
Q 51.171875 0 30.078125 0 
L 9.8125 0 
z
" id="DejaVuSans-68"/>
      </defs>
      <use xlink:href="#DejaVuSans-83"/>
      <use x="63.476562" xlink:href="#DejaVuSans-121"/>
      <use x="122.65625" xlink:href="#DejaVuSans-110"/>
      <use x="186.035156" xlink:href="#DejaVuSans-99"/>
      <use x="241.015625" xlink:href="#DejaVuSans-45"/>
      <use x="277.099609" xlink:href="#DejaVuSans-83"/>
      <use x="340.576172" xlink:href="#DejaVuSans-71"/>
      <use x="418.066406" xlink:href="#DejaVuSans-68"/>
     </g>
    </g>
    <g id="line2d_20">
     <path d="M 363.492188 42.536563 
L 383.492188 42.536563 
" style="fill:none;stroke:#ff7f0e;stroke-linecap:square;stroke-width:1.5;"/>
    </g>
    <g id="line2d_21"/>
    <g id="text_18">
     <!-- DP-SGD -->
     <g transform="translate(391.492188 46.036563)scale(0.1 -0.1)">
      <defs>
       <path d="M 19.671875 64.796875 
L 19.671875 37.40625 
L 32.078125 37.40625 
Q 38.96875 37.40625 42.71875 40.96875 
Q 46.484375 44.53125 46.484375 51.125 
Q 46.484375 57.671875 42.71875 61.234375 
Q 38.96875 64.796875 32.078125 64.796875 
z
M 9.8125 72.90625 
L 32.078125 72.90625 
Q 44.34375 72.90625 50.609375 67.359375 
Q 56.890625 61.8125 56.890625 51.125 
Q 56.890625 40.328125 50.609375 34.8125 
Q 44.34375 29.296875 32.078125 29.296875 
L 19.671875 29.296875 
L 19.671875 0 
L 9.8125 0 
z
" id="DejaVuSans-80"/>
      </defs>
      <use xlink:href="#DejaVuSans-68"/>
      <use x="77.001953" xlink:href="#DejaVuSans-80"/>
      <use x="135.054688" xlink:href="#DejaVuSans-45"/>
      <use x="171.138672" xlink:href="#DejaVuSans-83"/>
      <use x="234.615234" xlink:href="#DejaVuSans-71"/>
      <use x="312.105469" xlink:href="#DejaVuSans-68"/>
     </g>
    </g>
    <g id="line2d_22">
     <path d="M 363.492188 57.214687 
L 383.492188 57.214687 
" style="fill:none;stroke:#2ca02c;stroke-linecap:square;stroke-width:1.5;"/>
    </g>
    <g id="line2d_23"/>
    <g id="text_19">
     <!-- EDP-SGD -->
     <g transform="translate(391.492188 60.714687)scale(0.1 -0.1)">
      <use xlink:href="#DejaVuSans-69"/>
      <use x="63.183594" xlink:href="#DejaVuSans-68"/>
      <use x="140.185547" xlink:href="#DejaVuSans-80"/>
      <use x="198.238281" xlink:href="#DejaVuSans-45"/>
      <use x="234.322266" xlink:href="#DejaVuSans-83"/>
      <use x="297.798828" xlink:href="#DejaVuSans-71"/>
      <use x="375.289062" xlink:href="#DejaVuSans-68"/>
     </g>
    </g>
   </g>
  </g>
 </g>
 <defs>
  <clipPath id="p5eb68fe311">
   <rect height="288.88" width="402.28" x="47.72" y="14.76"/>
  </clipPath>
 </defs>
</svg>
