<?xml version="1.0" encoding="utf-8" standalone="no"?>
<!DOCTYPE svg PUBLIC "-//W3C//DTD SVG 1.1//EN"
  "http://www.w3.org/Graphics/SVG/1.1/DTD/svg11.dtd">
<!-- Created with matplotlib (https://matplotlib.org/) -->
<svg height="345.6pt" version="1.1" viewBox="0 0 460.8 345.6" width="460.8pt" xmlns="http://www.w3.org/2000/svg" xmlns:xlink="http://www.w3.org/1999/xlink">
 <metadata>
  <rdf:RDF xmlns:cc="http://creativecommons.org/ns#" xmlns:dc="http://purl.org/dc/elements/1.1/" xmlns:rdf="http://www.w3.org/1999/02/22-rdf-syntax-ns#">
   <cc:Work>
    <dc:type rdf:resource="http://purl.org/dc/dcmitype/StillImage"/>
    <dc:date>2021-06-24T12:03:24.078200</dc:date>
    <dc:format>image/svg+xml</dc:format>
    <dc:creator>
     <cc:Agent>
      <dc:title>Matplotlib v3.3.1, https://matplotlib.org/</dc:title>
     </cc:Agent>
    </dc:creator>
   </cc:Work>
  </rdf:RDF>
 </metadata>
 <defs>
  <style type="text/css">*{stroke-linecap:butt;stroke-linejoin:round;}</style>
 </defs>
 <g id="figure_1">
  <g id="patch_1">
   <path d="M 0 345.6 
L 460.8 345.6 
L 460.8 0 
L 0 0 
z
" style="fill:#ffffff;"/>
  </g>
  <g id="axes_1">
   <g id="patch_2">
    <path d="M 50.87 303.64 
L 450 303.64 
L 450 10.8 
L 50.87 10.8 
z
" style="fill:#ffffff;"/>
   </g>
   <g id="PolyCollection_1">
    <path clip-path="url(#p5c08203a26)" d="M 69.012273 263.477887 
L 69.012273 290.329091 
L 71.447477 269.513424 
L 73.882682 253.337524 
L 76.317886 242.834837 
L 78.75309 201.832609 
L 81.188295 207.057227 
L 83.623499 198.332818 
L 86.058703 201.534063 
L 88.493908 178.395039 
L 90.929112 160.748275 
L 93.364317 157.154534 
L 95.799521 164.604452 
L 98.234725 145.461652 
L 100.66993 144.761031 
L 103.105134 137.006227 
L 105.540339 117.233305 
L 107.975543 123.78722 
L 110.410747 117.663767 
L 112.845952 137.294297 
L 115.281156 105.179722 
L 117.716361 116.589715 
L 120.151565 122.880378 
L 122.586769 87.699456 
L 125.021974 105.636375 
L 127.457178 100.279355 
L 129.892383 94.620163 
L 132.327587 112.330226 
L 134.762791 76.142682 
L 137.197996 104.912316 
L 139.6332 110.166115 
L 142.068405 82.186554 
L 144.503609 84.720564 
L 146.938813 83.643168 
L 149.374018 73.184016 
L 151.809222 76.618549 
L 154.244426 77.205634 
L 156.679631 82.186554 
L 159.114835 84.028551 
L 161.55004 68.594164 
L 163.985244 101.1654 
L 166.420448 75.741362 
L 168.855653 84.354754 
L 171.290857 102.399025 
L 173.726062 64.169174 
L 176.161266 101.574234 
L 178.59647 82.366163 
L 181.031675 70.824343 
L 183.466879 89.568471 
L 185.902084 74.466652 
L 188.337288 67.697834 
L 190.772492 78.157328 
L 193.207697 82.244408 
L 195.642901 56.189452 
L 198.078106 69.570945 
L 200.51331 90.97423 
L 202.948514 79.473184 
L 205.383719 75.88432 
L 207.818923 81.587058 
L 210.254128 83.350185 
L 212.689332 64.129548 
L 215.124536 65.213169 
L 217.559741 65.734398 
L 219.994945 70.509834 
L 222.430149 77.555208 
L 224.865354 69.918092 
L 227.300558 50.536744 
L 229.735763 58.738753 
L 232.170967 61.709371 
L 234.606171 73.793635 
L 237.041376 68.291772 
L 239.47658 56.301522 
L 241.911785 64.946386 
L 244.346989 56.682726 
L 246.782193 56.536968 
L 249.217398 60.304386 
L 251.652602 70.456585 
L 254.087807 59.206098 
L 256.523011 51.040125 
L 258.958215 53.138302 
L 261.39342 57.77406 
L 263.828624 57.099142 
L 266.263829 62.108545 
L 268.699033 66.761753 
L 271.134237 64.533015 
L 273.569442 55.060134 
L 276.004646 66.047444 
L 278.439851 54.696246 
L 280.875055 49.959621 
L 283.310259 68.960708 
L 285.745464 60.727388 
L 288.180668 58.144019 
L 290.615872 53.138302 
L 293.051077 52.607953 
L 295.486281 54.575733 
L 297.921486 49.934686 
L 300.35669 47.14536 
L 302.791894 60.497229 
L 305.227099 72.676793 
L 307.662303 63.079521 
L 310.097508 47.000897 
L 312.532712 53.088635 
L 314.967916 65.801738 
L 317.403121 63.218532 
L 319.838325 62.93312 
L 322.27353 51.950664 
L 324.708734 41.930977 
L 327.143938 43.399308 
L 329.579143 53.729101 
L 332.014347 55.257977 
L 334.449552 58.26539 
L 336.884756 56.292454 
L 339.31996 54.316761 
L 341.755165 50.957651 
L 344.190369 47.729442 
L 346.625574 43.165867 
L 349.060778 41.038906 
L 351.495982 37.828323 
L 353.931187 38.720394 
L 356.366391 46.072542 
L 358.801595 48.621513 
L 361.2368 43.475985 
L 363.672004 47.371739 
L 366.107209 40.348028 
L 368.542413 38.437875 
L 370.977617 47.195074 
L 373.412822 38.675336 
L 375.848026 34.214978 
L 378.283231 44.247098 
L 380.718435 39.015627 
L 383.153639 39.240094 
L 385.588844 46.503693 
L 388.024048 40.79977 
L 390.459253 39.968384 
L 392.894457 40.369361 
L 395.329661 38.348022 
L 397.764866 31.583822 
L 400.20007 36.04418 
L 402.635275 39.015627 
L 405.070479 41.038906 
L 407.505683 40.925716 
L 409.940888 40.79977 
L 412.376092 37.218703 
L 414.811297 36.490216 
L 417.246501 38.695538 
L 419.681705 38.274359 
L 422.11691 36.465359 
L 424.552114 38.274359 
L 426.987318 38.184241 
L 429.422523 38.184241 
L 431.857727 38.184241 
L 431.857727 29.443761 
L 431.857727 29.443761 
L 429.422523 29.443761 
L 426.987318 29.443761 
L 424.552114 27.5695 
L 422.11691 28.486429 
L 419.681705 27.5695 
L 417.246501 30.716607 
L 414.811297 29.353643 
L 412.376092 31.30137 
L 409.940888 30.396518 
L 407.505683 32.946786 
L 405.070479 31.941525 
L 402.635275 28.612375 
L 400.20007 30.691751 
L 397.764866 29.799679 
L 395.329661 30.172052 
L 392.894457 27.258641 
L 390.459253 31.227904 
L 388.024048 30.396518 
L 385.588844 26.476738 
L 383.153639 31.064123 
L 380.718435 28.612375 
L 378.283231 26.94919 
L 375.848026 29.844738 
L 373.412822 34.305096 
L 370.977617 36.490216 
L 368.542413 30.97427 
L 366.107209 29.064117 
L 363.672004 29.176978 
L 361.2368 33.072732 
L 358.801595 39.524133 
L 356.366391 39.39689 
L 353.931187 33.367965 
L 351.495982 30.691751 
L 349.060778 31.941525 
L 346.625574 29.814564 
L 344.190369 38.632062 
L 341.755165 35.403853 
L 339.31996 40.965458 
L 336.884756 38.097694 
L 334.449552 36.124757 
L 332.014347 31.995598 
L 329.579143 42.44519 
L 327.143938 32.257338 
L 324.708734 32.833597 
L 322.27353 41.547412 
L 319.838325 37.701528 
L 317.403121 33.84783 
L 314.967916 45.537768 
L 312.532712 34.16494 
L 310.097508 34.90025 
L 307.662303 40.231342 
L 305.227099 48.4755 
L 302.791894 30.324632 
L 300.35669 31.1875 
L 297.921486 37.318889 
L 295.486281 38.030271 
L 293.051077 42.674265 
L 290.615872 47.496346 
L 288.180668 41.598557 
L 285.745464 43.475546 
L 283.310259 60.220228 
L 280.875055 40.862241 
L 278.439851 35.233544 
L 276.004646 54.212778 
L 273.569442 49.142801 
L 271.134237 33.425418 
L 268.699033 49.930182 
L 266.263829 46.554747 
L 263.828624 41.751363 
L 261.39342 49.997161 
L 258.958215 47.496346 
L 256.523011 37.105522 
L 254.087807 46.780979 
L 251.652602 49.803636 
L 249.217398 43.006477 
L 246.782193 48.558038 
L 244.346989 36.81535 
L 241.911785 56.205906 
L 239.47658 44.333126 
L 237.041376 45.723949 
L 234.606171 67.876302 
L 232.170967 42.493563 
L 229.735763 40.111752 
L 227.300558 36.716831 
L 224.865354 45.881772 
L 222.430149 50.733657 
L 219.994945 50.642458 
L 217.559741 53.633752 
L 215.124536 47.018409 
L 212.689332 50.778244 
L 210.254128 52.967324 
L 207.818923 52.054236 
L 205.383719 60.433188 
L 202.948514 58.628468 
L 200.51331 70.321281 
L 198.078106 48.013062 
L 195.642901 48.013482 
L 193.207697 61.209672 
L 190.772492 55.483966 
L 188.337288 54.34653 
L 185.902084 61.850856 
L 183.466879 78.863612 
L 181.031675 52.112093 
L 178.59647 52.167203 
L 176.161266 58.829205 
L 173.726062 48.062404 
L 171.290857 75.845845 
L 168.855653 55.531041 
L 166.420448 68.60479 
L 163.985244 76.187398 
L 161.55004 49.881914 
L 159.114835 62.993815 
L 156.679631 62.159598 
L 154.244426 64.464304 
L 151.809222 63.267245 
L 149.374018 61.34935 
L 146.938813 63.379199 
L 144.503609 67.654231 
L 142.068405 62.159598 
L 139.6332 87.704328 
L 137.197996 67.980125 
L 134.762791 58.390683 
L 132.327587 83.756074 
L 129.892383 68.459491 
L 127.457178 67.260656 
L 125.021974 68.148137 
L 122.586769 61.999125 
L 120.151565 108.888783 
L 117.716361 84.849014 
L 115.281156 81.985863 
L 112.845952 101.611436 
L 110.410747 77.530462 
L 107.975543 95.492939 
L 105.540339 79.745067 
L 103.105134 117.956793 
L 100.66993 119.122704 
L 98.234725 116.63794 
L 95.799521 121.581072 
L 93.364317 127.246847 
L 90.929112 140.602464 
L 88.493908 147.933703 
L 86.058703 164.045825 
L 83.623499 154.758069 
L 81.188295 177.256163 
L 78.75309 169.991779 
L 76.317886 213.736345 
L 73.882682 239.80859 
L 71.447477 254.855193 
L 69.012273 263.477887 
z
" style="fill:#1f77b4;fill-opacity:0.25;"/>
   </g>
   <g id="PolyCollection_2">
    <path clip-path="url(#p5c08203a26)" d="M 69.012273 248.465759 
L 69.012273 277.09461 
L 71.447477 254.557986 
L 73.882682 239.082842 
L 76.317886 259.109192 
L 78.75309 213.782442 
L 81.188295 220.802982 
L 83.623499 221.506353 
L 86.058703 122.359816 
L 88.493908 149.16813 
L 90.929112 100.671673 
L 93.364317 140.728933 
L 95.799521 121.855106 
L 98.234725 98.339672 
L 100.66993 86.511687 
L 103.105134 72.027702 
L 105.540339 73.978546 
L 107.975543 76.356147 
L 110.410747 87.268374 
L 112.845952 89.177927 
L 115.281156 75.971403 
L 117.716361 63.590939 
L 120.151565 71.597366 
L 122.586769 87.86319 
L 125.021974 78.141491 
L 127.457178 91.106926 
L 129.892383 95.968227 
L 132.327587 101.120442 
L 134.762791 81.567565 
L 137.197996 68.906908 
L 139.6332 119.105702 
L 142.068405 63.949982 
L 144.503609 61.486851 
L 146.938813 82.241597 
L 149.374018 78.167525 
L 151.809222 71.226183 
L 154.244426 84.461952 
L 156.679631 59.012624 
L 159.114835 61.105814 
L 161.55004 54.928436 
L 163.985244 55.373028 
L 166.420448 88.910425 
L 168.855653 83.147158 
L 171.290857 61.045732 
L 173.726062 70.756632 
L 176.161266 66.056725 
L 178.59647 63.046209 
L 181.031675 75.049827 
L 183.466879 125.213627 
L 185.902084 66.597467 
L 188.337288 60.832431 
L 190.772492 60.610398 
L 193.207697 66.206435 
L 195.642901 80.675676 
L 198.078106 72.258762 
L 200.51331 66.062863 
L 202.948514 112.876677 
L 205.383719 53.157942 
L 207.818923 68.983177 
L 210.254128 67.639082 
L 212.689332 62.472672 
L 215.124536 59.100424 
L 217.559741 62.012665 
L 219.994945 63.439136 
L 222.430149 68.83664 
L 224.865354 61.49874 
L 227.300558 50.335957 
L 229.735763 55.472721 
L 232.170967 53.901913 
L 234.606171 66.128698 
L 237.041376 66.484716 
L 239.47658 63.391543 
L 241.911785 48.447179 
L 244.346989 46.869331 
L 246.782193 60.459314 
L 249.217398 52.527221 
L 251.652602 46.383676 
L 254.087807 50.599083 
L 256.523011 114.563986 
L 258.958215 58.464763 
L 261.39342 57.214678 
L 263.828624 54.149563 
L 266.263829 58.434945 
L 268.699033 55.005715 
L 271.134237 58.362251 
L 273.569442 50.711624 
L 276.004646 57.440492 
L 278.439851 52.024894 
L 280.875055 55.241187 
L 283.310259 52.941796 
L 285.745464 60.205472 
L 288.180668 57.63887 
L 290.615872 58.54142 
L 293.051077 49.821761 
L 295.486281 48.320538 
L 297.921486 49.537089 
L 300.35669 44.698499 
L 302.791894 46.58393 
L 305.227099 48.234917 
L 307.662303 49.29605 
L 310.097508 48.483252 
L 312.532712 49.595481 
L 314.967916 50.037448 
L 317.403121 53.564472 
L 319.838325 44.450818 
L 322.27353 52.963281 
L 324.708734 49.099345 
L 327.143938 44.724974 
L 329.579143 48.133026 
L 332.014347 51.476261 
L 334.449552 43.008173 
L 336.884756 46.237415 
L 339.31996 48.656589 
L 341.755165 47.652484 
L 344.190369 40.505227 
L 346.625574 36.725175 
L 349.060778 36.725175 
L 351.495982 43.872207 
L 353.931187 42.40262 
L 356.366391 45.387447 
L 358.801595 41.551055 
L 361.2368 38.527518 
L 363.672004 43.104251 
L 366.107209 41.092335 
L 368.542413 47.684968 
L 370.977617 45.036355 
L 373.412822 40.957884 
L 375.848026 41.092335 
L 378.283231 40.218611 
L 380.718435 38.371457 
L 383.153639 39.482972 
L 385.588844 40.49201 
L 388.024048 36.962788 
L 390.459253 36.611049 
L 392.894457 36.195812 
L 395.329661 38.386511 
L 397.764866 36.086413 
L 400.20007 38.351647 
L 402.635275 38.550587 
L 405.070479 38.0748 
L 407.505683 39.765627 
L 409.940888 39.899681 
L 412.376092 38.011274 
L 414.811297 37.272496 
L 417.246501 36.881639 
L 419.681705 37.272496 
L 422.11691 37.272496 
L 424.552114 36.08426 
L 426.987318 36.881639 
L 429.422523 38.593255 
L 431.857727 37.208502 
L 431.857727 28.635357 
L 431.857727 28.635357 
L 429.422523 33.885385 
L 426.987318 33.478332 
L 424.552114 28.811773 
L 422.11691 29.128907 
L 419.681705 29.128907 
L 417.246501 33.478332 
L 414.811297 29.128907 
L 412.376092 31.01059 
L 409.940888 29.122182 
L 407.505683 29.088973 
L 405.070479 29.107166 
L 402.635275 30.917313 
L 400.20007 32.844641 
L 397.764866 32.823942 
L 395.329661 31.137143 
L 392.894457 33.327842 
L 390.459253 31.184217 
L 388.024048 31.167004 
L 385.588844 31.819367 
L 383.153639 34.445285 
L 380.718435 34.664728 
L 378.283231 31.535222 
L 375.848026 31.274797 
L 373.412822 30.851704 
L 370.977617 35.470929 
L 368.542413 31.038173 
L 366.107209 31.274797 
L 363.672004 28.928355 
L 361.2368 29.602274 
L 358.801595 27.86109 
L 356.366391 33.001168 
L 353.931187 32.80799 
L 351.495982 33.234055 
L 349.060778 31.181599 
L 346.625574 31.181599 
L 344.190369 34.872646 
L 341.755165 33.635363 
L 339.31996 34.080874 
L 336.884756 39.845316 
L 334.449552 38.335429 
L 332.014347 33.212608 
L 329.579143 35.942544 
L 327.143938 35.224766 
L 324.708734 33.582364 
L 322.27353 30.108709 
L 319.838325 34.216569 
L 317.403121 44.728488 
L 314.967916 31.027381 
L 312.532712 39.107711 
L 310.097508 39.272114 
L 307.662303 30.207654 
L 305.227099 37.29027 
L 302.791894 35.763252 
L 300.35669 33.634362 
L 297.921486 37.660732 
L 295.486281 32.130992 
L 293.051077 29.849206 
L 290.615872 41.089648 
L 288.180668 42.438234 
L 285.745464 40.763703 
L 283.310259 42.284668 
L 280.875055 40.76584 
L 278.439851 43.870624 
L 276.004646 40.350678 
L 273.569442 35.817143 
L 271.134237 40.544009 
L 268.699033 42.450928 
L 266.263829 40.694332 
L 263.828624 41.578692 
L 261.39342 48.883908 
L 258.958215 45.124872 
L 256.523011 31.566309 
L 254.087807 38.104109 
L 251.652602 40.8699 
L 249.217398 45.152441 
L 246.782193 42.070986 
L 244.346989 34.474271 
L 241.911785 37.301025 
L 239.47658 44.379677 
L 237.041376 42.680365 
L 234.606171 44.597509 
L 232.170967 41.491815 
L 229.735763 44.381364 
L 227.300558 41.43373 
L 224.865354 39.749208 
L 222.430149 44.454273 
L 219.994945 36.41495 
L 217.559741 43.751395 
L 215.124536 49.005323 
L 212.689332 40.224892 
L 210.254128 41.581755 
L 207.818923 48.545076 
L 205.383719 44.465965 
L 202.948514 26.061292 
L 200.51331 39.701197 
L 198.078106 43.875629 
L 195.642901 44.323676 
L 193.207697 47.474759 
L 190.772492 43.536781 
L 188.337288 44.82012 
L 185.902084 42.567614 
L 183.466879 43.218457 
L 181.031675 51.566404 
L 178.59647 45.059538 
L 176.161266 48.293523 
L 173.726062 46.827375 
L 171.290857 44.88559 
L 168.855653 54.508458 
L 166.420448 54.376393 
L 163.985244 45.26162 
L 161.55004 39.740484 
L 159.114835 37.465919 
L 156.679631 43.127394 
L 154.244426 53.751208 
L 151.809222 40.392096 
L 149.374018 51.459447 
L 146.938813 42.088701 
L 144.503609 52.584624 
L 142.068405 47.054998 
L 139.6332 39.234822 
L 137.197996 51.074541 
L 134.762791 53.746364 
L 132.327587 48.132103 
L 129.892383 49.381506 
L 127.457178 55.134878 
L 125.021974 53.548397 
L 122.586769 41.429256 
L 120.151565 55.743673 
L 117.716361 44.403299 
L 115.281156 62.464775 
L 112.845952 41.787153 
L 110.410747 51.836858 
L 107.975543 57.006374 
L 105.540339 63.900087 
L 103.105134 53.863721 
L 100.66993 70.657994 
L 98.234725 73.103152 
L 95.799521 91.069044 
L 93.364317 100.351224 
L 90.929112 68.37371 
L 88.493908 109.251667 
L 86.058703 113.59093 
L 83.623499 155.252306 
L 81.188295 117.429339 
L 78.75309 125.787986 
L 76.317886 201.239356 
L 73.882682 148.464307 
L 71.447477 235.758589 
L 69.012273 248.465759 
z
" style="fill:#ff7f0e;fill-opacity:0.25;"/>
   </g>
   <g id="PolyCollection_3">
    <path clip-path="url(#p5c08203a26)" d="M 69.012273 249.795086 
L 69.012273 254.961897 
L 71.447477 241.599433 
L 73.882682 219.282031 
L 76.317886 257.733306 
L 78.75309 194.920499 
L 81.188295 227.791837 
L 83.623499 180.00763 
L 86.058703 98.094219 
L 88.493908 91.371938 
L 90.929112 71.120834 
L 93.364317 78.203514 
L 95.799521 72.637745 
L 98.234725 127.409774 
L 100.66993 66.518951 
L 103.105134 59.908688 
L 105.540339 81.065851 
L 107.975543 71.235968 
L 110.410747 60.942034 
L 112.845952 70.115007 
L 115.281156 70.84641 
L 117.716361 56.824733 
L 120.151565 57.966565 
L 122.586769 56.874315 
L 125.021974 64.624283 
L 127.457178 66.894654 
L 129.892383 68.583337 
L 132.327587 65.018868 
L 134.762791 57.53457 
L 137.197996 56.502567 
L 139.6332 50.99858 
L 142.068405 64.937327 
L 144.503609 51.002649 
L 146.938813 55.233753 
L 149.374018 62.349828 
L 151.809222 59.137218 
L 154.244426 58.832079 
L 156.679631 50.150751 
L 159.114835 58.873265 
L 161.55004 63.373488 
L 163.985244 76.654749 
L 166.420448 56.374294 
L 168.855653 71.642489 
L 171.290857 47.986324 
L 173.726062 111.927827 
L 176.161266 55.530419 
L 178.59647 71.294426 
L 181.031675 45.850121 
L 183.466879 70.098138 
L 185.902084 60.217226 
L 188.337288 67.11959 
L 190.772492 54.30133 
L 193.207697 58.839152 
L 195.642901 51.661204 
L 198.078106 63.410807 
L 200.51331 58.258734 
L 202.948514 60.942034 
L 205.383719 58.541108 
L 207.818923 45.927251 
L 210.254128 58.881723 
L 212.689332 42.577488 
L 215.124536 54.117227 
L 217.559741 54.435158 
L 219.994945 51.661204 
L 222.430149 50.599083 
L 224.865354 54.162908 
L 227.300558 50.99858 
L 229.735763 48.951661 
L 232.170967 45.907187 
L 234.606171 48.42339 
L 237.041376 56.433806 
L 239.47658 51.936715 
L 241.911785 55.992135 
L 244.346989 40.557432 
L 246.782193 47.68543 
L 249.217398 50.889009 
L 251.652602 52.316429 
L 254.087807 55.41489 
L 256.523011 46.652059 
L 258.958215 56.888238 
L 261.39342 49.746053 
L 263.828624 45.357878 
L 266.263829 44.698499 
L 268.699033 36.122876 
L 271.134237 46.822967 
L 273.569442 43.008173 
L 276.004646 42.208122 
L 278.439851 44.255437 
L 280.875055 45.700391 
L 283.310259 39.253135 
L 285.745464 42.89288 
L 288.180668 43.144334 
L 290.615872 44.987837 
L 293.051077 44.865734 
L 295.486281 36.52189 
L 297.921486 40.302362 
L 300.35669 43.581544 
L 302.791894 40.285317 
L 305.227099 39.937893 
L 307.662303 39.870956 
L 310.097508 40.505227 
L 312.532712 42.208122 
L 314.967916 40.505227 
L 317.403121 35.232782 
L 319.838325 41.038002 
L 322.27353 33.498618 
L 324.708734 43.008173 
L 327.143938 35.537074 
L 329.579143 44.380084 
L 332.014347 41.374818 
L 334.449552 40.557432 
L 336.884756 40.557432 
L 339.31996 37.668152 
L 341.755165 37.970411 
L 344.190369 41.638963 
L 346.625574 38.999857 
L 349.060778 39.7815 
L 351.495982 39.937893 
L 353.931187 35.537074 
L 356.366391 38.505976 
L 358.801595 35.232782 
L 361.2368 38.626725 
L 363.672004 34.776357 
L 366.107209 40.557432 
L 368.542413 33.498618 
L 370.977617 35.501165 
L 373.412822 37.688937 
L 375.848026 38.289709 
L 378.283231 35.537074 
L 380.718435 36.725175 
L 383.153639 31.723208 
L 385.588844 39.701051 
L 388.024048 32.77381 
L 390.459253 32.77381 
L 392.894457 33.002603 
L 395.329661 33.918664 
L 397.764866 33.918664 
L 400.20007 35.501165 
L 402.635275 33.002603 
L 405.070479 33.002603 
L 407.505683 34.776357 
L 409.940888 33.002603 
L 412.376092 31.857279 
L 414.811297 34.650318 
L 417.246501 34.650318 
L 419.681705 33.918664 
L 422.11691 33.918664 
L 424.552114 31.857279 
L 426.987318 34.650318 
L 429.422523 36.146808 
L 431.857727 35.567722 
L 431.857727 27.934449 
L 431.857727 27.934449 
L 429.422523 28.804979 
L 426.987318 28.740344 
L 424.552114 27.184535 
L 422.11691 28.022382 
L 419.681705 28.022382 
L 417.246501 28.740344 
L 414.811297 28.740344 
L 412.376092 27.184535 
L 409.940888 27.488827 
L 407.505683 27.220444 
L 405.070479 27.488827 
L 402.635275 27.488827 
L 400.20007 27.945252 
L 397.764866 28.022382 
L 395.329661 28.022382 
L 392.894457 27.488827 
L 390.459253 29.22299 
L 388.024048 29.22299 
L 385.588844 29.65534 
L 383.153639 28.823976 
L 380.718435 31.181599 
L 378.283231 30.86433 
L 375.848026 29.617066 
L 373.412822 31.667454 
L 370.977617 27.945252 
L 368.542413 29.947798 
L 366.107209 31.865455 
L 363.672004 27.220444 
L 361.2368 34.688233 
L 358.801595 29.719006 
L 356.366391 30.906169 
L 353.931187 30.86433 
L 351.495982 30.979623 
L 349.060778 29.686399 
L 346.625574 33.367275 
L 344.190369 30.728168 
L 341.755165 27.037131 
L 339.31996 31.743993 
L 336.884756 31.865455 
L 334.449552 31.865455 
L 332.014347 29.877224 
L 329.579143 31.666843 
L 327.143938 30.86433 
L 324.708734 38.335429 
L 322.27353 29.947798 
L 319.838325 37.350612 
L 317.403121 29.719006 
L 314.967916 34.872646 
L 312.532712 34.619367 
L 310.097508 34.872646 
L 307.662303 32.496176 
L 305.227099 30.979623 
L 302.791894 36.597927 
L 300.35669 31.740575 
L 297.921486 33.57014 
L 295.486281 32.8345 
L 293.051077 34.972497 
L 290.615872 37.749627 
L 288.180668 32.233539 
L 285.745464 33.93461 
L 283.310259 31.66438 
L 280.875055 37.037072 
L 278.439851 35.582794 
L 276.004646 34.619367 
L 273.569442 38.335429 
L 271.134237 31.454139 
L 268.699033 28.884666 
L 266.263829 33.634362 
L 263.828624 34.424598 
L 261.39342 36.002152 
L 258.958215 42.241039 
L 256.523011 39.096146 
L 254.087807 34.068864 
L 251.652602 39.397504 
L 249.217398 36.420321 
L 246.782193 29.14206 
L 244.346989 31.865455 
L 241.911785 36.167834 
L 239.47658 36.153177 
L 237.041376 41.245855 
L 234.606171 40.279801 
L 232.170967 35.38066 
L 229.735763 36.852298 
L 227.300558 43.726094 
L 224.865354 35.711127 
L 222.430149 38.104109 
L 219.994945 41.5581 
L 217.559741 41.906396 
L 215.124536 46.517421 
L 212.689332 29.789644 
L 210.254128 41.641416 
L 207.818923 38.371337 
L 205.383719 49.620393 
L 202.948514 47.107958 
L 200.51331 34.96057 
L 198.078106 43.412587 
L 195.642901 41.5581 
L 193.207697 39.342299 
L 190.772492 41.87296 
L 188.337288 40.707385 
L 185.902084 46.38315 
L 183.466879 40.182033 
L 181.031675 39.953838 
L 178.59647 46.90288 
L 176.161266 40.643871 
L 173.726062 24.110909 
L 171.290857 39.323005 
L 168.855653 40.366071 
L 166.420448 44.316109 
L 163.985244 29.053556 
L 161.55004 37.428423 
L 159.114835 47.727111 
L 156.679631 44.518169 
L 154.244426 37.286457 
L 151.809222 50.473899 
L 149.374018 47.205535 
L 146.938813 42.445909 
L 144.503609 37.756297 
L 142.068405 41.607295 
L 139.6332 43.726094 
L 137.197996 45.637452 
L 134.762791 52.020794 
L 132.327587 48.996853 
L 129.892383 51.398112 
L 127.457178 47.121066 
L 125.021974 44.986834 
L 122.586769 48.22069 
L 120.151565 42.668083 
L 117.716361 43.809915 
L 115.281156 47.741177 
L 112.845952 57.281786 
L 110.410747 47.107958 
L 107.975543 59.115813 
L 105.540339 56.310992 
L 103.105134 52.601662 
L 100.66993 56.473239 
L 98.234725 41.356836 
L 95.799521 63.735518 
L 93.364317 62.574352 
L 90.929112 65.196675 
L 88.493908 74.662703 
L 86.058703 84.332236 
L 83.623499 86.803215 
L 81.188295 108.684218 
L 78.75309 98.764 
L 76.317886 159.837625 
L 73.882682 142.478676 
L 71.447477 232.938627 
L 69.012273 249.795086 
z
" style="fill:#2ca02c;fill-opacity:0.25;"/>
   </g>
   <g id="matplotlib.axis_1">
    <g id="xtick_1">
     <g id="line2d_1">
      <defs>
       <path d="M 0 0 
L 0 3.5 
" id="mab1164c73f" style="stroke:#000000;stroke-width:0.8;"/>
      </defs>
      <g>
       <use style="stroke:#000000;stroke-width:0.8;" x="69.012273" xlink:href="#mab1164c73f" y="303.64"/>
      </g>
     </g>
     <g id="text_1">
      <!-- 0 -->
      <g transform="translate(65.831023 318.238437)scale(0.1 -0.1)">
       <defs>
        <path d="M 31.78125 66.40625 
Q 24.171875 66.40625 20.328125 58.90625 
Q 16.5 51.421875 16.5 36.375 
Q 16.5 21.390625 20.328125 13.890625 
Q 24.171875 6.390625 31.78125 6.390625 
Q 39.453125 6.390625 43.28125 13.890625 
Q 47.125 21.390625 47.125 36.375 
Q 47.125 51.421875 43.28125 58.90625 
Q 39.453125 66.40625 31.78125 66.40625 
z
M 31.78125 74.21875 
Q 44.046875 74.21875 50.515625 64.515625 
Q 56.984375 54.828125 56.984375 36.375 
Q 56.984375 17.96875 50.515625 8.265625 
Q 44.046875 -1.421875 31.78125 -1.421875 
Q 19.53125 -1.421875 13.0625 8.265625 
Q 6.59375 17.96875 6.59375 36.375 
Q 6.59375 54.828125 13.0625 64.515625 
Q 19.53125 74.21875 31.78125 74.21875 
z
" id="DejaVuSans-48"/>
       </defs>
       <use xlink:href="#DejaVuSans-48"/>
      </g>
     </g>
    </g>
    <g id="xtick_2">
     <g id="line2d_2">
      <g>
       <use style="stroke:#000000;stroke-width:0.8;" x="117.716361" xlink:href="#mab1164c73f" y="303.64"/>
      </g>
     </g>
     <g id="text_2">
      <!-- 20 -->
      <g transform="translate(111.353861 318.238437)scale(0.1 -0.1)">
       <defs>
        <path d="M 19.1875 8.296875 
L 53.609375 8.296875 
L 53.609375 0 
L 7.328125 0 
L 7.328125 8.296875 
Q 12.9375 14.109375 22.625 23.890625 
Q 32.328125 33.6875 34.8125 36.53125 
Q 39.546875 41.84375 41.421875 45.53125 
Q 43.3125 49.21875 43.3125 52.78125 
Q 43.3125 58.59375 39.234375 62.25 
Q 35.15625 65.921875 28.609375 65.921875 
Q 23.96875 65.921875 18.8125 64.3125 
Q 13.671875 62.703125 7.8125 59.421875 
L 7.8125 69.390625 
Q 13.765625 71.78125 18.9375 73 
Q 24.125 74.21875 28.421875 74.21875 
Q 39.75 74.21875 46.484375 68.546875 
Q 53.21875 62.890625 53.21875 53.421875 
Q 53.21875 48.921875 51.53125 44.890625 
Q 49.859375 40.875 45.40625 35.40625 
Q 44.1875 33.984375 37.640625 27.21875 
Q 31.109375 20.453125 19.1875 8.296875 
z
" id="DejaVuSans-50"/>
       </defs>
       <use xlink:href="#DejaVuSans-50"/>
       <use x="63.623047" xlink:href="#DejaVuSans-48"/>
      </g>
     </g>
    </g>
    <g id="xtick_3">
     <g id="line2d_3">
      <g>
       <use style="stroke:#000000;stroke-width:0.8;" x="166.420448" xlink:href="#mab1164c73f" y="303.64"/>
      </g>
     </g>
     <g id="text_3">
      <!-- 40 -->
      <g transform="translate(160.057948 318.238437)scale(0.1 -0.1)">
       <defs>
        <path d="M 37.796875 64.3125 
L 12.890625 25.390625 
L 37.796875 25.390625 
z
M 35.203125 72.90625 
L 47.609375 72.90625 
L 47.609375 25.390625 
L 58.015625 25.390625 
L 58.015625 17.1875 
L 47.609375 17.1875 
L 47.609375 0 
L 37.796875 0 
L 37.796875 17.1875 
L 4.890625 17.1875 
L 4.890625 26.703125 
z
" id="DejaVuSans-52"/>
       </defs>
       <use xlink:href="#DejaVuSans-52"/>
       <use x="63.623047" xlink:href="#DejaVuSans-48"/>
      </g>
     </g>
    </g>
    <g id="xtick_4">
     <g id="line2d_4">
      <g>
       <use style="stroke:#000000;stroke-width:0.8;" x="215.124536" xlink:href="#mab1164c73f" y="303.64"/>
      </g>
     </g>
     <g id="text_4">
      <!-- 60 -->
      <g transform="translate(208.762036 318.238437)scale(0.1 -0.1)">
       <defs>
        <path d="M 33.015625 40.375 
Q 26.375 40.375 22.484375 35.828125 
Q 18.609375 31.296875 18.609375 23.390625 
Q 18.609375 15.53125 22.484375 10.953125 
Q 26.375 6.390625 33.015625 6.390625 
Q 39.65625 6.390625 43.53125 10.953125 
Q 47.40625 15.53125 47.40625 23.390625 
Q 47.40625 31.296875 43.53125 35.828125 
Q 39.65625 40.375 33.015625 40.375 
z
M 52.59375 71.296875 
L 52.59375 62.3125 
Q 48.875 64.0625 45.09375 64.984375 
Q 41.3125 65.921875 37.59375 65.921875 
Q 27.828125 65.921875 22.671875 59.328125 
Q 17.53125 52.734375 16.796875 39.40625 
Q 19.671875 43.65625 24.015625 45.921875 
Q 28.375 48.1875 33.59375 48.1875 
Q 44.578125 48.1875 50.953125 41.515625 
Q 57.328125 34.859375 57.328125 23.390625 
Q 57.328125 12.15625 50.6875 5.359375 
Q 44.046875 -1.421875 33.015625 -1.421875 
Q 20.359375 -1.421875 13.671875 8.265625 
Q 6.984375 17.96875 6.984375 36.375 
Q 6.984375 53.65625 15.1875 63.9375 
Q 23.390625 74.21875 37.203125 74.21875 
Q 40.921875 74.21875 44.703125 73.484375 
Q 48.484375 72.75 52.59375 71.296875 
z
" id="DejaVuSans-54"/>
       </defs>
       <use xlink:href="#DejaVuSans-54"/>
       <use x="63.623047" xlink:href="#DejaVuSans-48"/>
      </g>
     </g>
    </g>
    <g id="xtick_5">
     <g id="line2d_5">
      <g>
       <use style="stroke:#000000;stroke-width:0.8;" x="263.828624" xlink:href="#mab1164c73f" y="303.64"/>
      </g>
     </g>
     <g id="text_5">
      <!-- 80 -->
      <g transform="translate(257.466124 318.238437)scale(0.1 -0.1)">
       <defs>
        <path d="M 31.78125 34.625 
Q 24.75 34.625 20.71875 30.859375 
Q 16.703125 27.09375 16.703125 20.515625 
Q 16.703125 13.921875 20.71875 10.15625 
Q 24.75 6.390625 31.78125 6.390625 
Q 38.8125 6.390625 42.859375 10.171875 
Q 46.921875 13.96875 46.921875 20.515625 
Q 46.921875 27.09375 42.890625 30.859375 
Q 38.875 34.625 31.78125 34.625 
z
M 21.921875 38.8125 
Q 15.578125 40.375 12.03125 44.71875 
Q 8.5 49.078125 8.5 55.328125 
Q 8.5 64.0625 14.71875 69.140625 
Q 20.953125 74.21875 31.78125 74.21875 
Q 42.671875 74.21875 48.875 69.140625 
Q 55.078125 64.0625 55.078125 55.328125 
Q 55.078125 49.078125 51.53125 44.71875 
Q 48 40.375 41.703125 38.8125 
Q 48.828125 37.15625 52.796875 32.3125 
Q 56.78125 27.484375 56.78125 20.515625 
Q 56.78125 9.90625 50.3125 4.234375 
Q 43.84375 -1.421875 31.78125 -1.421875 
Q 19.734375 -1.421875 13.25 4.234375 
Q 6.78125 9.90625 6.78125 20.515625 
Q 6.78125 27.484375 10.78125 32.3125 
Q 14.796875 37.15625 21.921875 38.8125 
z
M 18.3125 54.390625 
Q 18.3125 48.734375 21.84375 45.5625 
Q 25.390625 42.390625 31.78125 42.390625 
Q 38.140625 42.390625 41.71875 45.5625 
Q 45.3125 48.734375 45.3125 54.390625 
Q 45.3125 60.0625 41.71875 63.234375 
Q 38.140625 66.40625 31.78125 66.40625 
Q 25.390625 66.40625 21.84375 63.234375 
Q 18.3125 60.0625 18.3125 54.390625 
z
" id="DejaVuSans-56"/>
       </defs>
       <use xlink:href="#DejaVuSans-56"/>
       <use x="63.623047" xlink:href="#DejaVuSans-48"/>
      </g>
     </g>
    </g>
    <g id="xtick_6">
     <g id="line2d_6">
      <g>
       <use style="stroke:#000000;stroke-width:0.8;" x="312.532712" xlink:href="#mab1164c73f" y="303.64"/>
      </g>
     </g>
     <g id="text_6">
      <!-- 100 -->
      <g transform="translate(302.988962 318.238437)scale(0.1 -0.1)">
       <defs>
        <path d="M 12.40625 8.296875 
L 28.515625 8.296875 
L 28.515625 63.921875 
L 10.984375 60.40625 
L 10.984375 69.390625 
L 28.421875 72.90625 
L 38.28125 72.90625 
L 38.28125 8.296875 
L 54.390625 8.296875 
L 54.390625 0 
L 12.40625 0 
z
" id="DejaVuSans-49"/>
       </defs>
       <use xlink:href="#DejaVuSans-49"/>
       <use x="63.623047" xlink:href="#DejaVuSans-48"/>
       <use x="127.246094" xlink:href="#DejaVuSans-48"/>
      </g>
     </g>
    </g>
    <g id="xtick_7">
     <g id="line2d_7">
      <g>
       <use style="stroke:#000000;stroke-width:0.8;" x="361.2368" xlink:href="#mab1164c73f" y="303.64"/>
      </g>
     </g>
     <g id="text_7">
      <!-- 120 -->
      <g transform="translate(351.69305 318.238437)scale(0.1 -0.1)">
       <use xlink:href="#DejaVuSans-49"/>
       <use x="63.623047" xlink:href="#DejaVuSans-50"/>
       <use x="127.246094" xlink:href="#DejaVuSans-48"/>
      </g>
     </g>
    </g>
    <g id="xtick_8">
     <g id="line2d_8">
      <g>
       <use style="stroke:#000000;stroke-width:0.8;" x="409.940888" xlink:href="#mab1164c73f" y="303.64"/>
      </g>
     </g>
     <g id="text_8">
      <!-- 140 -->
      <g transform="translate(400.397138 318.238437)scale(0.1 -0.1)">
       <use xlink:href="#DejaVuSans-49"/>
       <use x="63.623047" xlink:href="#DejaVuSans-52"/>
       <use x="127.246094" xlink:href="#DejaVuSans-48"/>
      </g>
     </g>
    </g>
    <g id="text_9">
     <!-- Epochs -->
     <g transform="translate(232.519375 331.916562)scale(0.1 -0.1)">
      <defs>
       <path d="M 9.8125 72.90625 
L 55.90625 72.90625 
L 55.90625 64.59375 
L 19.671875 64.59375 
L 19.671875 43.015625 
L 54.390625 43.015625 
L 54.390625 34.71875 
L 19.671875 34.71875 
L 19.671875 8.296875 
L 56.78125 8.296875 
L 56.78125 0 
L 9.8125 0 
z
" id="DejaVuSans-69"/>
       <path d="M 18.109375 8.203125 
L 18.109375 -20.796875 
L 9.078125 -20.796875 
L 9.078125 54.6875 
L 18.109375 54.6875 
L 18.109375 46.390625 
Q 20.953125 51.265625 25.265625 53.625 
Q 29.59375 56 35.59375 56 
Q 45.5625 56 51.78125 48.09375 
Q 58.015625 40.1875 58.015625 27.296875 
Q 58.015625 14.40625 51.78125 6.484375 
Q 45.5625 -1.421875 35.59375 -1.421875 
Q 29.59375 -1.421875 25.265625 0.953125 
Q 20.953125 3.328125 18.109375 8.203125 
z
M 48.6875 27.296875 
Q 48.6875 37.203125 44.609375 42.84375 
Q 40.53125 48.484375 33.40625 48.484375 
Q 26.265625 48.484375 22.1875 42.84375 
Q 18.109375 37.203125 18.109375 27.296875 
Q 18.109375 17.390625 22.1875 11.75 
Q 26.265625 6.109375 33.40625 6.109375 
Q 40.53125 6.109375 44.609375 11.75 
Q 48.6875 17.390625 48.6875 27.296875 
z
" id="DejaVuSans-112"/>
       <path d="M 30.609375 48.390625 
Q 23.390625 48.390625 19.1875 42.75 
Q 14.984375 37.109375 14.984375 27.296875 
Q 14.984375 17.484375 19.15625 11.84375 
Q 23.34375 6.203125 30.609375 6.203125 
Q 37.796875 6.203125 41.984375 11.859375 
Q 46.1875 17.53125 46.1875 27.296875 
Q 46.1875 37.015625 41.984375 42.703125 
Q 37.796875 48.390625 30.609375 48.390625 
z
M 30.609375 56 
Q 42.328125 56 49.015625 48.375 
Q 55.71875 40.765625 55.71875 27.296875 
Q 55.71875 13.875 49.015625 6.21875 
Q 42.328125 -1.421875 30.609375 -1.421875 
Q 18.84375 -1.421875 12.171875 6.21875 
Q 5.515625 13.875 5.515625 27.296875 
Q 5.515625 40.765625 12.171875 48.375 
Q 18.84375 56 30.609375 56 
z
" id="DejaVuSans-111"/>
       <path d="M 48.78125 52.59375 
L 48.78125 44.1875 
Q 44.96875 46.296875 41.140625 47.34375 
Q 37.3125 48.390625 33.40625 48.390625 
Q 24.65625 48.390625 19.8125 42.84375 
Q 14.984375 37.3125 14.984375 27.296875 
Q 14.984375 17.28125 19.8125 11.734375 
Q 24.65625 6.203125 33.40625 6.203125 
Q 37.3125 6.203125 41.140625 7.25 
Q 44.96875 8.296875 48.78125 10.40625 
L 48.78125 2.09375 
Q 45.015625 0.34375 40.984375 -0.53125 
Q 36.96875 -1.421875 32.421875 -1.421875 
Q 20.0625 -1.421875 12.78125 6.34375 
Q 5.515625 14.109375 5.515625 27.296875 
Q 5.515625 40.671875 12.859375 48.328125 
Q 20.21875 56 33.015625 56 
Q 37.15625 56 41.109375 55.140625 
Q 45.0625 54.296875 48.78125 52.59375 
z
" id="DejaVuSans-99"/>
       <path d="M 54.890625 33.015625 
L 54.890625 0 
L 45.90625 0 
L 45.90625 32.71875 
Q 45.90625 40.484375 42.875 44.328125 
Q 39.84375 48.1875 33.796875 48.1875 
Q 26.515625 48.1875 22.3125 43.546875 
Q 18.109375 38.921875 18.109375 30.90625 
L 18.109375 0 
L 9.078125 0 
L 9.078125 75.984375 
L 18.109375 75.984375 
L 18.109375 46.1875 
Q 21.34375 51.125 25.703125 53.5625 
Q 30.078125 56 35.796875 56 
Q 45.21875 56 50.046875 50.171875 
Q 54.890625 44.34375 54.890625 33.015625 
z
" id="DejaVuSans-104"/>
       <path d="M 44.28125 53.078125 
L 44.28125 44.578125 
Q 40.484375 46.53125 36.375 47.5 
Q 32.28125 48.484375 27.875 48.484375 
Q 21.1875 48.484375 17.84375 46.4375 
Q 14.5 44.390625 14.5 40.28125 
Q 14.5 37.15625 16.890625 35.375 
Q 19.28125 33.59375 26.515625 31.984375 
L 29.59375 31.296875 
Q 39.15625 29.25 43.1875 25.515625 
Q 47.21875 21.78125 47.21875 15.09375 
Q 47.21875 7.46875 41.1875 3.015625 
Q 35.15625 -1.421875 24.609375 -1.421875 
Q 20.21875 -1.421875 15.453125 -0.5625 
Q 10.6875 0.296875 5.421875 2 
L 5.421875 11.28125 
Q 10.40625 8.6875 15.234375 7.390625 
Q 20.0625 6.109375 24.8125 6.109375 
Q 31.15625 6.109375 34.5625 8.28125 
Q 37.984375 10.453125 37.984375 14.40625 
Q 37.984375 18.0625 35.515625 20.015625 
Q 33.0625 21.96875 24.703125 23.78125 
L 21.578125 24.515625 
Q 13.234375 26.265625 9.515625 29.90625 
Q 5.8125 33.546875 5.8125 39.890625 
Q 5.8125 47.609375 11.28125 51.796875 
Q 16.75 56 26.8125 56 
Q 31.78125 56 36.171875 55.265625 
Q 40.578125 54.546875 44.28125 53.078125 
z
" id="DejaVuSans-115"/>
      </defs>
      <use xlink:href="#DejaVuSans-69"/>
      <use x="63.183594" xlink:href="#DejaVuSans-112"/>
      <use x="126.660156" xlink:href="#DejaVuSans-111"/>
      <use x="187.841797" xlink:href="#DejaVuSans-99"/>
      <use x="242.822266" xlink:href="#DejaVuSans-104"/>
      <use x="306.201172" xlink:href="#DejaVuSans-115"/>
     </g>
    </g>
   </g>
   <g id="matplotlib.axis_2">
    <g id="ytick_1">
     <g id="line2d_9">
      <defs>
       <path d="M 0 0 
L -3.5 0 
" id="m7790198b61" style="stroke:#000000;stroke-width:0.8;"/>
      </defs>
      <g>
       <use style="stroke:#000000;stroke-width:0.8;" x="50.87" xlink:href="#m7790198b61" y="254.155665"/>
      </g>
     </g>
     <g id="text_10">
      <!-- 20 -->
      <g transform="translate(31.145 257.954884)scale(0.1 -0.1)">
       <use xlink:href="#DejaVuSans-50"/>
       <use x="63.623047" xlink:href="#DejaVuSans-48"/>
      </g>
     </g>
    </g>
    <g id="ytick_2">
     <g id="line2d_10">
      <g>
       <use style="stroke:#000000;stroke-width:0.8;" x="50.87" xlink:href="#m7790198b61" y="197.063088"/>
      </g>
     </g>
     <g id="text_11">
      <!-- 40 -->
      <g transform="translate(31.145 200.862307)scale(0.1 -0.1)">
       <use xlink:href="#DejaVuSans-52"/>
       <use x="63.623047" xlink:href="#DejaVuSans-48"/>
      </g>
     </g>
    </g>
    <g id="ytick_3">
     <g id="line2d_11">
      <g>
       <use style="stroke:#000000;stroke-width:0.8;" x="50.87" xlink:href="#m7790198b61" y="139.970511"/>
      </g>
     </g>
     <g id="text_12">
      <!-- 60 -->
      <g transform="translate(31.145 143.76973)scale(0.1 -0.1)">
       <use xlink:href="#DejaVuSans-54"/>
       <use x="63.623047" xlink:href="#DejaVuSans-48"/>
      </g>
     </g>
    </g>
    <g id="ytick_4">
     <g id="line2d_12">
      <g>
       <use style="stroke:#000000;stroke-width:0.8;" x="50.87" xlink:href="#m7790198b61" y="82.877934"/>
      </g>
     </g>
     <g id="text_13">
      <!-- 80 -->
      <g transform="translate(31.145 86.677153)scale(0.1 -0.1)">
       <use xlink:href="#DejaVuSans-56"/>
       <use x="63.623047" xlink:href="#DejaVuSans-48"/>
      </g>
     </g>
    </g>
    <g id="ytick_5">
     <g id="line2d_13">
      <g>
       <use style="stroke:#000000;stroke-width:0.8;" x="50.87" xlink:href="#m7790198b61" y="25.785357"/>
      </g>
     </g>
     <g id="text_14">
      <!-- 100 -->
      <g transform="translate(24.7825 29.584576)scale(0.1 -0.1)">
       <use xlink:href="#DejaVuSans-49"/>
       <use x="63.623047" xlink:href="#DejaVuSans-48"/>
       <use x="127.246094" xlink:href="#DejaVuSans-48"/>
      </g>
     </g>
    </g>
    <g id="text_15">
     <!-- Test Accuracy (%) -->
     <g transform="translate(18.702813 201.723906)rotate(-90)scale(0.1 -0.1)">
      <defs>
       <path d="M -0.296875 72.90625 
L 61.375 72.90625 
L 61.375 64.59375 
L 35.5 64.59375 
L 35.5 0 
L 25.59375 0 
L 25.59375 64.59375 
L -0.296875 64.59375 
z
" id="DejaVuSans-84"/>
       <path d="M 56.203125 29.59375 
L 56.203125 25.203125 
L 14.890625 25.203125 
Q 15.484375 15.921875 20.484375 11.0625 
Q 25.484375 6.203125 34.421875 6.203125 
Q 39.59375 6.203125 44.453125 7.46875 
Q 49.3125 8.734375 54.109375 11.28125 
L 54.109375 2.78125 
Q 49.265625 0.734375 44.1875 -0.34375 
Q 39.109375 -1.421875 33.890625 -1.421875 
Q 20.796875 -1.421875 13.15625 6.1875 
Q 5.515625 13.8125 5.515625 26.8125 
Q 5.515625 40.234375 12.765625 48.109375 
Q 20.015625 56 32.328125 56 
Q 43.359375 56 49.78125 48.890625 
Q 56.203125 41.796875 56.203125 29.59375 
z
M 47.21875 32.234375 
Q 47.125 39.59375 43.09375 43.984375 
Q 39.0625 48.390625 32.421875 48.390625 
Q 24.90625 48.390625 20.390625 44.140625 
Q 15.875 39.890625 15.1875 32.171875 
z
" id="DejaVuSans-101"/>
       <path d="M 18.3125 70.21875 
L 18.3125 54.6875 
L 36.8125 54.6875 
L 36.8125 47.703125 
L 18.3125 47.703125 
L 18.3125 18.015625 
Q 18.3125 11.328125 20.140625 9.421875 
Q 21.96875 7.515625 27.59375 7.515625 
L 36.8125 7.515625 
L 36.8125 0 
L 27.59375 0 
Q 17.1875 0 13.234375 3.875 
Q 9.28125 7.765625 9.28125 18.015625 
L 9.28125 47.703125 
L 2.6875 47.703125 
L 2.6875 54.6875 
L 9.28125 54.6875 
L 9.28125 70.21875 
z
" id="DejaVuSans-116"/>
       <path id="DejaVuSans-32"/>
       <path d="M 34.1875 63.1875 
L 20.796875 26.90625 
L 47.609375 26.90625 
z
M 28.609375 72.90625 
L 39.796875 72.90625 
L 67.578125 0 
L 57.328125 0 
L 50.6875 18.703125 
L 17.828125 18.703125 
L 11.1875 0 
L 0.78125 0 
z
" id="DejaVuSans-65"/>
       <path d="M 8.5 21.578125 
L 8.5 54.6875 
L 17.484375 54.6875 
L 17.484375 21.921875 
Q 17.484375 14.15625 20.5 10.265625 
Q 23.53125 6.390625 29.59375 6.390625 
Q 36.859375 6.390625 41.078125 11.03125 
Q 45.3125 15.671875 45.3125 23.6875 
L 45.3125 54.6875 
L 54.296875 54.6875 
L 54.296875 0 
L 45.3125 0 
L 45.3125 8.40625 
Q 42.046875 3.421875 37.71875 1 
Q 33.40625 -1.421875 27.6875 -1.421875 
Q 18.265625 -1.421875 13.375 4.4375 
Q 8.5 10.296875 8.5 21.578125 
z
M 31.109375 56 
z
" id="DejaVuSans-117"/>
       <path d="M 41.109375 46.296875 
Q 39.59375 47.171875 37.8125 47.578125 
Q 36.03125 48 33.890625 48 
Q 26.265625 48 22.1875 43.046875 
Q 18.109375 38.09375 18.109375 28.8125 
L 18.109375 0 
L 9.078125 0 
L 9.078125 54.6875 
L 18.109375 54.6875 
L 18.109375 46.1875 
Q 20.953125 51.171875 25.484375 53.578125 
Q 30.03125 56 36.53125 56 
Q 37.453125 56 38.578125 55.875 
Q 39.703125 55.765625 41.0625 55.515625 
z
" id="DejaVuSans-114"/>
       <path d="M 34.28125 27.484375 
Q 23.390625 27.484375 19.1875 25 
Q 14.984375 22.515625 14.984375 16.5 
Q 14.984375 11.71875 18.140625 8.90625 
Q 21.296875 6.109375 26.703125 6.109375 
Q 34.1875 6.109375 38.703125 11.40625 
Q 43.21875 16.703125 43.21875 25.484375 
L 43.21875 27.484375 
z
M 52.203125 31.203125 
L 52.203125 0 
L 43.21875 0 
L 43.21875 8.296875 
Q 40.140625 3.328125 35.546875 0.953125 
Q 30.953125 -1.421875 24.3125 -1.421875 
Q 15.921875 -1.421875 10.953125 3.296875 
Q 6 8.015625 6 15.921875 
Q 6 25.140625 12.171875 29.828125 
Q 18.359375 34.515625 30.609375 34.515625 
L 43.21875 34.515625 
L 43.21875 35.40625 
Q 43.21875 41.609375 39.140625 45 
Q 35.0625 48.390625 27.6875 48.390625 
Q 23 48.390625 18.546875 47.265625 
Q 14.109375 46.140625 10.015625 43.890625 
L 10.015625 52.203125 
Q 14.9375 54.109375 19.578125 55.046875 
Q 24.21875 56 28.609375 56 
Q 40.484375 56 46.34375 49.84375 
Q 52.203125 43.703125 52.203125 31.203125 
z
" id="DejaVuSans-97"/>
       <path d="M 32.171875 -5.078125 
Q 28.375 -14.84375 24.75 -17.8125 
Q 21.140625 -20.796875 15.09375 -20.796875 
L 7.90625 -20.796875 
L 7.90625 -13.28125 
L 13.1875 -13.28125 
Q 16.890625 -13.28125 18.9375 -11.515625 
Q 21 -9.765625 23.484375 -3.21875 
L 25.09375 0.875 
L 2.984375 54.6875 
L 12.5 54.6875 
L 29.59375 11.921875 
L 46.6875 54.6875 
L 56.203125 54.6875 
z
" id="DejaVuSans-121"/>
       <path d="M 31 75.875 
Q 24.46875 64.65625 21.28125 53.65625 
Q 18.109375 42.671875 18.109375 31.390625 
Q 18.109375 20.125 21.3125 9.0625 
Q 24.515625 -2 31 -13.1875 
L 23.1875 -13.1875 
Q 15.875 -1.703125 12.234375 9.375 
Q 8.59375 20.453125 8.59375 31.390625 
Q 8.59375 42.28125 12.203125 53.3125 
Q 15.828125 64.359375 23.1875 75.875 
z
" id="DejaVuSans-40"/>
       <path d="M 72.703125 32.078125 
Q 68.453125 32.078125 66.03125 28.46875 
Q 63.625 24.859375 63.625 18.40625 
Q 63.625 12.0625 66.03125 8.421875 
Q 68.453125 4.78125 72.703125 4.78125 
Q 76.859375 4.78125 79.265625 8.421875 
Q 81.6875 12.0625 81.6875 18.40625 
Q 81.6875 24.8125 79.265625 28.4375 
Q 76.859375 32.078125 72.703125 32.078125 
z
M 72.703125 38.28125 
Q 80.421875 38.28125 84.953125 32.90625 
Q 89.5 27.546875 89.5 18.40625 
Q 89.5 9.28125 84.9375 3.921875 
Q 80.375 -1.421875 72.703125 -1.421875 
Q 64.890625 -1.421875 60.34375 3.921875 
Q 55.8125 9.28125 55.8125 18.40625 
Q 55.8125 27.59375 60.375 32.9375 
Q 64.9375 38.28125 72.703125 38.28125 
z
M 22.3125 68.015625 
Q 18.109375 68.015625 15.6875 64.375 
Q 13.28125 60.75 13.28125 54.390625 
Q 13.28125 47.953125 15.671875 44.328125 
Q 18.0625 40.71875 22.3125 40.71875 
Q 26.5625 40.71875 28.96875 44.328125 
Q 31.390625 47.953125 31.390625 54.390625 
Q 31.390625 60.6875 28.953125 64.34375 
Q 26.515625 68.015625 22.3125 68.015625 
z
M 66.40625 74.21875 
L 74.21875 74.21875 
L 28.609375 -1.421875 
L 20.796875 -1.421875 
z
M 22.3125 74.21875 
Q 30.03125 74.21875 34.609375 68.875 
Q 39.203125 63.53125 39.203125 54.390625 
Q 39.203125 45.171875 34.640625 39.84375 
Q 30.078125 34.515625 22.3125 34.515625 
Q 14.546875 34.515625 10.03125 39.859375 
Q 5.515625 45.21875 5.515625 54.390625 
Q 5.515625 63.484375 10.046875 68.84375 
Q 14.59375 74.21875 22.3125 74.21875 
z
" id="DejaVuSans-37"/>
       <path d="M 8.015625 75.875 
L 15.828125 75.875 
Q 23.140625 64.359375 26.78125 53.3125 
Q 30.421875 42.28125 30.421875 31.390625 
Q 30.421875 20.453125 26.78125 9.375 
Q 23.140625 -1.703125 15.828125 -13.1875 
L 8.015625 -13.1875 
Q 14.5 -2 17.703125 9.0625 
Q 20.90625 20.125 20.90625 31.390625 
Q 20.90625 42.671875 17.703125 53.65625 
Q 14.5 64.65625 8.015625 75.875 
z
" id="DejaVuSans-41"/>
      </defs>
      <use xlink:href="#DejaVuSans-84"/>
      <use x="44.083984" xlink:href="#DejaVuSans-101"/>
      <use x="105.607422" xlink:href="#DejaVuSans-115"/>
      <use x="157.707031" xlink:href="#DejaVuSans-116"/>
      <use x="196.916016" xlink:href="#DejaVuSans-32"/>
      <use x="228.703125" xlink:href="#DejaVuSans-65"/>
      <use x="295.361328" xlink:href="#DejaVuSans-99"/>
      <use x="350.341797" xlink:href="#DejaVuSans-99"/>
      <use x="405.322266" xlink:href="#DejaVuSans-117"/>
      <use x="468.701172" xlink:href="#DejaVuSans-114"/>
      <use x="509.814453" xlink:href="#DejaVuSans-97"/>
      <use x="571.09375" xlink:href="#DejaVuSans-99"/>
      <use x="626.074219" xlink:href="#DejaVuSans-121"/>
      <use x="685.253906" xlink:href="#DejaVuSans-32"/>
      <use x="717.041016" xlink:href="#DejaVuSans-40"/>
      <use x="756.054688" xlink:href="#DejaVuSans-37"/>
      <use x="851.074219" xlink:href="#DejaVuSans-41"/>
     </g>
    </g>
   </g>
   <g id="line2d_14">
    <path clip-path="url(#p5c08203a26)" d="M 69.012273 276.903489 
L 71.447477 262.184309 
L 73.882682 246.573057 
L 76.317886 228.285591 
L 78.75309 185.912194 
L 81.188295 192.156695 
L 83.623499 176.545443 
L 86.058703 182.789944 
L 88.493908 163.164371 
L 90.929112 150.675369 
L 93.364317 142.20069 
L 95.799521 143.092762 
L 98.234725 131.049796 
L 100.66993 131.941868 
L 103.105134 127.48151 
L 105.540339 98.489186 
L 107.975543 109.64008 
L 110.410747 97.597114 
L 112.845952 119.452866 
L 115.281156 93.582792 
L 117.716361 100.719365 
L 120.151565 115.88458 
L 122.586769 74.849291 
L 125.021974 86.892256 
L 127.457178 83.770006 
L 129.892383 81.539827 
L 132.327587 98.04315 
L 134.762791 67.266683 
L 137.197996 86.44622 
L 139.6332 98.935222 
L 142.068405 72.173076 
L 144.503609 76.187398 
L 146.938813 73.511183 
L 149.374018 67.266683 
L 151.809222 69.942897 
L 154.244426 70.834969 
L 159.114835 73.511183 
L 161.55004 59.238039 
L 163.985244 88.676399 
L 166.420448 72.173076 
L 168.855653 69.942897 
L 171.290857 89.122435 
L 173.726062 56.115789 
L 176.161266 80.20172 
L 178.59647 67.266683 
L 181.031675 61.468218 
L 183.466879 84.216042 
L 185.902084 68.158754 
L 188.337288 61.022182 
L 190.772492 66.820647 
L 193.207697 71.72704 
L 195.642901 52.101467 
L 198.078106 58.792003 
L 200.51331 80.647756 
L 202.948514 69.050826 
L 205.383719 68.158754 
L 207.818923 66.820647 
L 210.254128 68.158754 
L 212.689332 57.453896 
L 215.124536 56.115789 
L 217.559741 59.684075 
L 219.994945 60.576146 
L 222.430149 64.144432 
L 224.865354 57.899932 
L 227.300558 43.626788 
L 229.735763 49.425253 
L 232.170967 52.101467 
L 234.606171 70.834969 
L 237.041376 57.00786 
L 239.47658 50.317324 
L 241.911785 60.576146 
L 244.346989 46.749038 
L 246.782193 52.547503 
L 249.217398 51.655431 
L 251.652602 60.130111 
L 254.087807 52.993539 
L 256.523011 44.072823 
L 258.958215 50.317324 
L 261.39342 53.88561 
L 263.828624 49.425253 
L 266.263829 54.331646 
L 268.699033 58.345968 
L 271.134237 48.979217 
L 273.569442 52.101467 
L 276.004646 60.130111 
L 278.439851 44.964895 
L 280.875055 45.410931 
L 283.310259 64.590468 
L 285.745464 52.101467 
L 288.180668 49.871288 
L 290.615872 50.317324 
L 293.051077 47.641109 
L 295.486281 46.303002 
L 297.921486 43.626788 
L 300.35669 39.16643 
L 302.791894 45.410931 
L 305.227099 60.576146 
L 307.662303 51.655431 
L 310.097508 40.950573 
L 312.532712 43.626788 
L 314.967916 55.669753 
L 317.403121 48.533181 
L 319.838325 50.317324 
L 322.27353 46.749038 
L 324.708734 37.382287 
L 327.143938 37.828323 
L 329.579143 48.087145 
L 332.014347 43.626788 
L 334.449552 47.195074 
L 336.884756 47.195074 
L 339.31996 47.641109 
L 341.755165 43.180752 
L 344.190369 43.180752 
L 346.625574 36.490216 
L 349.060778 36.490216 
L 351.495982 34.260037 
L 353.931187 36.04418 
L 356.366391 42.734716 
L 358.801595 44.072823 
L 361.2368 38.274359 
L 363.672004 38.274359 
L 366.107209 34.706073 
L 368.542413 34.706073 
L 370.977617 41.842645 
L 373.412822 36.490216 
L 375.848026 32.029858 
L 378.283231 35.598144 
L 380.718435 33.814001 
L 385.588844 36.490216 
L 388.024048 35.598144 
L 390.459253 35.598144 
L 392.894457 33.814001 
L 395.329661 34.260037 
L 397.764866 30.691751 
L 400.20007 33.367965 
L 402.635275 33.814001 
L 405.070479 36.490216 
L 407.505683 36.936251 
L 414.811297 32.921929 
L 417.246501 34.706073 
L 419.681705 32.921929 
L 422.11691 32.475894 
L 424.552114 32.921929 
L 426.987318 33.814001 
L 431.857727 33.814001 
L 431.857727 33.814001 
" style="fill:none;stroke:#1f77b4;stroke-linecap:square;stroke-width:1.5;"/>
   </g>
   <g id="line2d_15">
    <path clip-path="url(#p5c08203a26)" d="M 69.012273 262.780185 
L 71.447477 245.158288 
L 73.882682 193.773574 
L 76.317886 230.174274 
L 78.75309 169.785214 
L 81.188295 169.11616 
L 83.623499 188.37933 
L 86.058703 117.975373 
L 88.493908 129.209899 
L 90.929112 84.522691 
L 93.364317 120.540079 
L 95.799521 106.462075 
L 98.234725 85.721412 
L 100.66993 78.58484 
L 103.105134 62.945711 
L 105.540339 68.939317 
L 107.975543 66.681261 
L 110.410747 69.552616 
L 112.845952 65.48254 
L 115.281156 69.218089 
L 117.716361 53.997119 
L 120.151565 63.67052 
L 122.586769 64.646223 
L 125.021974 65.844944 
L 127.457178 73.120902 
L 129.892383 72.674866 
L 132.327587 74.626273 
L 134.762791 67.656964 
L 137.197996 59.990725 
L 139.6332 79.170262 
L 142.068405 55.50249 
L 144.503609 57.035738 
L 146.938813 62.165149 
L 149.374018 64.813486 
L 151.809222 55.809139 
L 154.244426 69.10658 
L 156.679631 51.070009 
L 159.114835 49.285866 
L 161.55004 47.33446 
L 163.985244 50.317324 
L 166.420448 71.643409 
L 168.855653 68.827808 
L 171.290857 52.965661 
L 173.726062 58.792003 
L 176.161266 57.175124 
L 178.59647 54.052873 
L 181.031675 63.308115 
L 183.466879 84.216042 
L 185.902084 54.582541 
L 188.337288 52.826275 
L 190.772492 52.07359 
L 193.207697 56.840597 
L 195.642901 62.499676 
L 198.078106 58.067195 
L 200.51331 52.88203 
L 202.948514 69.468984 
L 205.383719 48.811953 
L 207.818923 58.764126 
L 210.254128 54.610418 
L 212.689332 51.348782 
L 215.124536 54.052873 
L 217.559741 52.88203 
L 219.994945 49.927043 
L 222.430149 56.645456 
L 224.865354 50.623974 
L 227.300558 45.884844 
L 229.735763 49.927043 
L 232.170967 47.696864 
L 234.606171 55.363104 
L 239.47658 53.88561 
L 241.911785 42.874102 
L 244.346989 40.671801 
L 246.782193 51.26515 
L 249.217398 48.839831 
L 251.652602 43.626788 
L 254.087807 44.351596 
L 256.523011 73.065148 
L 258.958215 51.794817 
L 261.39342 53.049293 
L 263.828624 47.864127 
L 266.263829 49.564639 
L 268.699033 48.728322 
L 271.134237 49.45313 
L 273.569442 43.264384 
L 276.004646 48.895585 
L 278.439851 47.947759 
L 280.875055 48.003514 
L 283.310259 47.613232 
L 285.745464 50.484587 
L 288.180668 50.038552 
L 290.615872 49.815534 
L 293.051077 39.835484 
L 295.486281 40.225765 
L 297.921486 43.59891 
L 300.35669 39.16643 
L 302.791894 41.173591 
L 305.227099 42.762593 
L 307.662303 39.751852 
L 310.097508 43.877683 
L 312.532712 44.351596 
L 314.967916 40.532415 
L 317.403121 49.14648 
L 319.838325 39.333694 
L 322.27353 41.535995 
L 324.708734 41.340854 
L 327.143938 39.97487 
L 329.579143 42.037785 
L 332.014347 42.344435 
L 334.449552 40.671801 
L 336.884756 43.041366 
L 339.31996 41.368732 
L 341.755165 40.643924 
L 344.190369 37.688937 
L 346.625574 33.953387 
L 349.060778 33.953387 
L 351.495982 38.553131 
L 353.931187 37.605305 
L 356.366391 39.194307 
L 358.801595 34.706073 
L 361.2368 34.064896 
L 363.672004 36.016303 
L 366.107209 36.183566 
L 368.542413 39.361571 
L 370.977617 40.253642 
L 373.412822 35.904794 
L 375.848026 36.183566 
L 378.283231 35.876916 
L 380.718435 36.518093 
L 383.153639 36.964129 
L 385.588844 36.155689 
L 388.024048 34.064896 
L 390.459253 33.897633 
L 392.894457 34.761827 
L 395.329661 34.761827 
L 397.764866 34.455177 
L 400.20007 35.598144 
L 402.635275 34.73395 
L 405.070479 33.590983 
L 407.505683 34.4273 
L 412.376092 34.510932 
L 414.811297 33.200702 
L 417.246501 35.179986 
L 419.681705 33.200702 
L 422.11691 33.200702 
L 424.552114 32.448016 
L 426.987318 35.179986 
L 429.422523 36.23932 
L 431.857727 32.921929 
L 431.857727 32.921929 
" style="fill:none;stroke:#ff7f0e;stroke-linecap:square;stroke-width:1.5;"/>
   </g>
   <g id="line2d_16">
    <path clip-path="url(#p5c08203a26)" d="M 69.012273 252.378491 
L 71.447477 237.26903 
L 73.882682 180.880353 
L 76.317886 208.785465 
L 78.75309 146.84225 
L 81.188295 168.238027 
L 83.623499 133.405422 
L 86.058703 91.213228 
L 88.493908 83.01732 
L 90.929112 68.158754 
L 93.364317 70.388933 
L 95.799521 68.186632 
L 98.234725 84.383305 
L 100.66993 61.496095 
L 103.105134 56.255175 
L 105.540339 68.688422 
L 107.975543 65.17589 
L 110.410747 54.024996 
L 112.845952 63.698397 
L 115.281156 59.293794 
L 117.716361 50.317324 
L 120.151565 50.317324 
L 127.457178 57.00786 
L 129.892383 59.990725 
L 132.327587 57.00786 
L 134.762791 54.777682 
L 139.6332 47.362337 
L 142.068405 53.272311 
L 144.503609 44.379473 
L 146.938813 48.839831 
L 149.374018 54.777682 
L 151.809222 54.805559 
L 154.244426 48.059268 
L 156.679631 47.33446 
L 159.114835 53.300188 
L 161.55004 50.400956 
L 163.985244 52.854152 
L 166.420448 50.345201 
L 168.855653 56.00428 
L 171.290857 43.654665 
L 173.726062 68.019368 
L 176.161266 48.087145 
L 178.59647 59.098653 
L 181.031675 42.90198 
L 183.466879 55.140086 
L 185.902084 53.300188 
L 188.337288 53.913487 
L 190.772492 48.087145 
L 193.207697 49.090726 
L 195.642901 46.609652 
L 198.078106 53.411697 
L 200.51331 46.609652 
L 202.948514 54.024996 
L 205.383719 54.080751 
L 207.818923 42.149294 
L 210.254128 50.26157 
L 212.689332 36.183566 
L 215.124536 50.317324 
L 217.559741 48.170777 
L 219.994945 46.609652 
L 222.430149 44.351596 
L 224.865354 44.937018 
L 227.300558 47.362337 
L 229.735763 42.90198 
L 232.170967 40.643924 
L 234.606171 44.351596 
L 237.041376 48.839831 
L 239.47658 44.044946 
L 241.911785 46.079984 
L 244.346989 36.211443 
L 246.782193 38.413745 
L 249.217398 43.654665 
L 251.652602 45.856966 
L 254.087807 44.741877 
L 256.523011 42.874102 
L 258.958215 49.564639 
L 261.39342 42.874102 
L 263.828624 39.891238 
L 266.263829 39.16643 
L 268.699033 32.503771 
L 271.134237 39.138553 
L 273.569442 40.671801 
L 276.004646 38.413745 
L 280.875055 41.368732 
L 283.310259 35.458758 
L 285.745464 38.413745 
L 288.180668 37.688937 
L 290.615872 41.368732 
L 293.051077 39.919115 
L 295.486281 34.678195 
L 297.921486 36.936251 
L 302.791894 38.441622 
L 305.227099 35.458758 
L 307.662303 36.183566 
L 310.097508 37.688937 
L 312.532712 38.413745 
L 314.967916 37.688937 
L 317.403121 32.475894 
L 319.838325 39.194307 
L 322.27353 31.723208 
L 324.708734 40.671801 
L 327.143938 33.200702 
L 329.579143 38.023463 
L 332.014347 35.626021 
L 334.449552 36.211443 
L 336.884756 36.211443 
L 339.31996 34.706073 
L 341.755165 32.503771 
L 344.190369 36.183566 
L 346.625574 36.183566 
L 349.060778 34.73395 
L 351.495982 35.458758 
L 353.931187 33.200702 
L 356.366391 34.706073 
L 358.801595 32.475894 
L 361.2368 36.657479 
L 363.672004 30.9984 
L 366.107209 36.211443 
L 368.542413 31.723208 
L 370.977617 31.723208 
L 373.412822 34.678195 
L 378.283231 33.200702 
L 380.718435 33.953387 
L 383.153639 30.273592 
L 385.588844 34.678195 
L 388.024048 30.9984 
L 390.459253 30.9984 
L 392.894457 30.245715 
L 395.329661 30.970523 
L 397.764866 30.970523 
L 400.20007 31.723208 
L 402.635275 30.245715 
L 405.070479 30.245715 
L 407.505683 30.9984 
L 412.376092 29.520907 
L 414.811297 31.695331 
L 417.246501 31.695331 
L 419.681705 30.970523 
L 422.11691 30.970523 
L 424.552114 29.520907 
L 426.987318 31.695331 
L 429.422523 32.475894 
L 431.857727 31.751086 
L 431.857727 31.751086 
" style="fill:none;stroke:#2ca02c;stroke-linecap:square;stroke-width:1.5;"/>
   </g>
   <g id="patch_3">
    <path d="M 50.87 303.64 
L 50.87 10.8 
" style="fill:none;stroke:#000000;stroke-linecap:square;stroke-linejoin:miter;stroke-width:0.8;"/>
   </g>
   <g id="patch_4">
    <path d="M 450 303.64 
L 450 10.8 
" style="fill:none;stroke:#000000;stroke-linecap:square;stroke-linejoin:miter;stroke-width:0.8;"/>
   </g>
   <g id="patch_5">
    <path d="M 50.87 303.64 
L 450 303.64 
" style="fill:none;stroke:#000000;stroke-linecap:square;stroke-linejoin:miter;stroke-width:0.8;"/>
   </g>
   <g id="patch_6">
    <path d="M 50.87 10.8 
L 450 10.8 
" style="fill:none;stroke:#000000;stroke-linecap:square;stroke-linejoin:miter;stroke-width:0.8;"/>
   </g>
   <g id="legend_1">
    <g id="patch_7">
     <path d="M 361.492188 298.64 
L 443 298.64 
Q 445 298.64 445 296.64 
L 445 253.605625 
Q 445 251.605625 443 251.605625 
L 361.492188 251.605625 
Q 359.492188 251.605625 359.492188 253.605625 
L 359.492188 296.64 
Q 359.492188 298.64 361.492188 298.64 
z
" style="fill:#ffffff;opacity:0.8;stroke:#cccccc;stroke-linejoin:miter;"/>
    </g>
    <g id="line2d_17">
     <path d="M 363.492188 259.704062 
L 383.492188 259.704062 
" style="fill:none;stroke:#1f77b4;stroke-linecap:square;stroke-width:1.5;"/>
    </g>
    <g id="line2d_18"/>
    <g id="text_16">
     <!-- Sync-SGD -->
     <g transform="translate(391.492188 263.204062)scale(0.1 -0.1)">
      <defs>
       <path d="M 53.515625 70.515625 
L 53.515625 60.890625 
Q 47.90625 63.578125 42.921875 64.890625 
Q 37.9375 66.21875 33.296875 66.21875 
Q 25.25 66.21875 20.875 63.09375 
Q 16.5 59.96875 16.5 54.203125 
Q 16.5 49.359375 19.40625 46.890625 
Q 22.3125 44.4375 30.421875 42.921875 
L 36.375 41.703125 
Q 47.40625 39.59375 52.65625 34.296875 
Q 57.90625 29 57.90625 20.125 
Q 57.90625 9.515625 50.796875 4.046875 
Q 43.703125 -1.421875 29.984375 -1.421875 
Q 24.8125 -1.421875 18.96875 -0.25 
Q 13.140625 0.921875 6.890625 3.21875 
L 6.890625 13.375 
Q 12.890625 10.015625 18.65625 8.296875 
Q 24.421875 6.59375 29.984375 6.59375 
Q 38.421875 6.59375 43.015625 9.90625 
Q 47.609375 13.234375 47.609375 19.390625 
Q 47.609375 24.75 44.3125 27.78125 
Q 41.015625 30.8125 33.5 32.328125 
L 27.484375 33.5 
Q 16.453125 35.6875 11.515625 40.375 
Q 6.59375 45.0625 6.59375 53.421875 
Q 6.59375 63.09375 13.40625 68.65625 
Q 20.21875 74.21875 32.171875 74.21875 
Q 37.3125 74.21875 42.625 73.28125 
Q 47.953125 72.359375 53.515625 70.515625 
z
" id="DejaVuSans-83"/>
       <path d="M 54.890625 33.015625 
L 54.890625 0 
L 45.90625 0 
L 45.90625 32.71875 
Q 45.90625 40.484375 42.875 44.328125 
Q 39.84375 48.1875 33.796875 48.1875 
Q 26.515625 48.1875 22.3125 43.546875 
Q 18.109375 38.921875 18.109375 30.90625 
L 18.109375 0 
L 9.078125 0 
L 9.078125 54.6875 
L 18.109375 54.6875 
L 18.109375 46.1875 
Q 21.34375 51.125 25.703125 53.5625 
Q 30.078125 56 35.796875 56 
Q 45.21875 56 50.046875 50.171875 
Q 54.890625 44.34375 54.890625 33.015625 
z
" id="DejaVuSans-110"/>
       <path d="M 4.890625 31.390625 
L 31.203125 31.390625 
L 31.203125 23.390625 
L 4.890625 23.390625 
z
" id="DejaVuSans-45"/>
       <path d="M 59.515625 10.40625 
L 59.515625 29.984375 
L 43.40625 29.984375 
L 43.40625 38.09375 
L 69.28125 38.09375 
L 69.28125 6.78125 
Q 63.578125 2.734375 56.6875 0.65625 
Q 49.8125 -1.421875 42 -1.421875 
Q 24.90625 -1.421875 15.25 8.5625 
Q 5.609375 18.5625 5.609375 36.375 
Q 5.609375 54.25 15.25 64.234375 
Q 24.90625 74.21875 42 74.21875 
Q 49.125 74.21875 55.546875 72.453125 
Q 61.96875 70.703125 67.390625 67.28125 
L 67.390625 56.78125 
Q 61.921875 61.421875 55.765625 63.765625 
Q 49.609375 66.109375 42.828125 66.109375 
Q 29.4375 66.109375 22.71875 58.640625 
Q 16.015625 51.171875 16.015625 36.375 
Q 16.015625 21.625 22.71875 14.15625 
Q 29.4375 6.6875 42.828125 6.6875 
Q 48.046875 6.6875 52.140625 7.59375 
Q 56.25 8.5 59.515625 10.40625 
z
" id="DejaVuSans-71"/>
       <path d="M 19.671875 64.796875 
L 19.671875 8.109375 
L 31.59375 8.109375 
Q 46.6875 8.109375 53.6875 14.9375 
Q 60.6875 21.78125 60.6875 36.53125 
Q 60.6875 51.171875 53.6875 57.984375 
Q 46.6875 64.796875 31.59375 64.796875 
z
M 9.8125 72.90625 
L 30.078125 72.90625 
Q 51.265625 72.90625 61.171875 64.09375 
Q 71.09375 55.28125 71.09375 36.53125 
Q 71.09375 17.671875 61.125 8.828125 
Q 51.171875 0 30.078125 0 
L 9.8125 0 
z
" id="DejaVuSans-68"/>
      </defs>
      <use xlink:href="#DejaVuSans-83"/>
      <use x="63.476562" xlink:href="#DejaVuSans-121"/>
      <use x="122.65625" xlink:href="#DejaVuSans-110"/>
      <use x="186.035156" xlink:href="#DejaVuSans-99"/>
      <use x="241.015625" xlink:href="#DejaVuSans-45"/>
      <use x="277.099609" xlink:href="#DejaVuSans-83"/>
      <use x="340.576172" xlink:href="#DejaVuSans-71"/>
      <use x="418.066406" xlink:href="#DejaVuSans-68"/>
     </g>
    </g>
    <g id="line2d_19">
     <path d="M 363.492188 274.382187 
L 383.492188 274.382187 
" style="fill:none;stroke:#ff7f0e;stroke-linecap:square;stroke-width:1.5;"/>
    </g>
    <g id="line2d_20"/>
    <g id="text_17">
     <!-- DP-SGD -->
     <g transform="translate(391.492188 277.882187)scale(0.1 -0.1)">
      <defs>
       <path d="M 19.671875 64.796875 
L 19.671875 37.40625 
L 32.078125 37.40625 
Q 38.96875 37.40625 42.71875 40.96875 
Q 46.484375 44.53125 46.484375 51.125 
Q 46.484375 57.671875 42.71875 61.234375 
Q 38.96875 64.796875 32.078125 64.796875 
z
M 9.8125 72.90625 
L 32.078125 72.90625 
Q 44.34375 72.90625 50.609375 67.359375 
Q 56.890625 61.8125 56.890625 51.125 
Q 56.890625 40.328125 50.609375 34.8125 
Q 44.34375 29.296875 32.078125 29.296875 
L 19.671875 29.296875 
L 19.671875 0 
L 9.8125 0 
z
" id="DejaVuSans-80"/>
      </defs>
      <use xlink:href="#DejaVuSans-68"/>
      <use x="77.001953" xlink:href="#DejaVuSans-80"/>
      <use x="135.054688" xlink:href="#DejaVuSans-45"/>
      <use x="171.138672" xlink:href="#DejaVuSans-83"/>
      <use x="234.615234" xlink:href="#DejaVuSans-71"/>
      <use x="312.105469" xlink:href="#DejaVuSans-68"/>
     </g>
    </g>
    <g id="line2d_21">
     <path d="M 363.492188 289.060312 
L 383.492188 289.060312 
" style="fill:none;stroke:#2ca02c;stroke-linecap:square;stroke-width:1.5;"/>
    </g>
    <g id="line2d_22"/>
    <g id="text_18">
     <!-- EDP-SGD -->
     <g transform="translate(391.492188 292.560312)scale(0.1 -0.1)">
      <use xlink:href="#DejaVuSans-69"/>
      <use x="63.183594" xlink:href="#DejaVuSans-68"/>
      <use x="140.185547" xlink:href="#DejaVuSans-80"/>
      <use x="198.238281" xlink:href="#DejaVuSans-45"/>
      <use x="234.322266" xlink:href="#DejaVuSans-83"/>
      <use x="297.798828" xlink:href="#DejaVuSans-71"/>
      <use x="375.289062" xlink:href="#DejaVuSans-68"/>
     </g>
    </g>
   </g>
  </g>
 </g>
 <defs>
  <clipPath id="p5c08203a26">
   <rect height="292.84" width="399.13" x="50.87" y="10.8"/>
  </clipPath>
 </defs>
</svg>
