<?xml version="1.0" encoding="utf-8" standalone="no"?>
<!DOCTYPE svg PUBLIC "-//W3C//DTD SVG 1.1//EN"
  "http://www.w3.org/Graphics/SVG/1.1/DTD/svg11.dtd">
<!-- Created with matplotlib (https://matplotlib.org/) -->
<svg height="345.6pt" version="1.1" viewBox="0 0 460.8 345.6" width="460.8pt" xmlns="http://www.w3.org/2000/svg" xmlns:xlink="http://www.w3.org/1999/xlink">
 <metadata>
  <rdf:RDF xmlns:cc="http://creativecommons.org/ns#" xmlns:dc="http://purl.org/dc/elements/1.1/" xmlns:rdf="http://www.w3.org/1999/02/22-rdf-syntax-ns#">
   <cc:Work>
    <dc:type rdf:resource="http://purl.org/dc/dcmitype/StillImage"/>
    <dc:date>2021-06-20T12:16:23.535948</dc:date>
    <dc:format>image/svg+xml</dc:format>
    <dc:creator>
     <cc:Agent>
      <dc:title>Matplotlib v3.3.1, https://matplotlib.org/</dc:title>
     </cc:Agent>
    </dc:creator>
   </cc:Work>
  </rdf:RDF>
 </metadata>
 <defs>
  <style type="text/css">*{stroke-linecap:butt;stroke-linejoin:round;}</style>
 </defs>
 <g id="figure_1">
  <g id="patch_1">
   <path d="M 0 345.6 
L 460.8 345.6 
L 460.8 0 
L 0 0 
z
" style="fill:#ffffff;"/>
  </g>
  <g id="axes_1">
   <g id="patch_2">
    <path d="M 50.87 303.64 
L 450 303.64 
L 450 10.8 
L 50.87 10.8 
z
" style="fill:#ffffff;"/>
   </g>
   <g id="PolyCollection_1">
    <path clip-path="url(#p1d7894c4d2)" d="M 69.307957 263.477887 
L 69.307957 290.329091 
L 71.745503 269.513424 
L 74.187565 253.337524 
L 76.630654 242.834837 
L 79.074945 201.832609 
L 81.506808 207.057227 
L 83.942444 198.332818 
L 86.380214 201.534063 
L 88.817586 178.395039 
L 91.264831 160.748275 
L 93.704554 157.154534 
L 96.138801 164.604452 
L 98.580267 145.461652 
L 101.01247 144.761031 
L 103.445921 137.006227 
L 105.890356 117.233305 
L 108.32283 123.78722 
L 110.760432 117.663767 
L 113.19645 137.294297 
L 115.630137 105.179722 
L 118.068539 116.589715 
L 120.501079 122.880378 
L 122.940591 87.699456 
L 125.373601 105.636375 
L 127.802101 100.279355 
L 130.232338 94.620163 
L 132.656561 112.330226 
L 135.089608 76.142682 
L 137.510795 104.912316 
L 139.947474 110.166115 
L 142.377969 82.186554 
L 144.805104 84.720564 
L 147.236796 83.643168 
L 149.659581 73.184016 
L 152.084513 76.618549 
L 154.510425 77.205634 
L 156.934908 82.186554 
L 159.364979 84.028551 
L 161.797758 68.594164 
L 164.224135 101.1654 
L 166.657536 75.741362 
L 169.087469 84.354754 
L 171.521003 102.399025 
L 173.957542 64.169174 
L 176.392659 101.574234 
L 178.824181 82.366163 
L 181.260434 70.824343 
L 183.695906 89.568471 
L 186.134546 74.466652 
L 188.568391 67.697834 
L 191.007825 78.157328 
L 193.44355 82.244408 
L 195.871074 56.189452 
L 198.292001 69.570945 
L 200.717451 90.97423 
L 203.152485 79.473184 
L 205.60692 75.88432 
L 208.061624 81.587058 
L 210.502793 83.350185 
L 212.948474 64.129548 
L 215.400212 65.213169 
L 217.8437 65.734398 
L 220.293213 70.509834 
L 222.738384 77.555208 
L 225.189075 69.918092 
L 227.637595 50.536744 
L 230.079252 58.738753 
L 232.520659 61.709371 
L 234.958776 73.793635 
L 237.384634 68.291772 
L 239.813611 56.301522 
L 242.248648 64.946386 
L 244.685899 56.682726 
L 247.113775 56.536968 
L 249.551445 60.304386 
L 251.98093 70.456585 
L 254.409361 59.206098 
L 256.841999 51.040125 
L 259.268615 53.138302 
L 261.698021 57.77406 
L 264.130101 57.099142 
L 266.560156 62.108545 
L 268.988476 66.761753 
L 271.42284 64.533015 
L 273.851282 55.060134 
L 276.278392 66.047444 
L 278.704177 54.696246 
L 281.132411 49.959621 
L 283.565266 68.960708 
L 285.997796 60.727388 
L 288.424276 58.144019 
L 290.855054 53.138302 
L 293.284192 52.607953 
L 295.719641 54.575733 
L 298.151259 49.934686 
L 300.583061 47.14536 
L 303.011541 60.497229 
L 305.440564 72.676793 
L 307.877464 63.079521 
L 310.301751 47.000897 
L 312.730061 53.088635 
L 315.165253 65.801738 
L 317.59974 63.218532 
L 320.032047 62.93312 
L 322.46364 51.950664 
L 324.897004 41.930977 
L 327.329737 43.399308 
L 329.760976 53.729101 
L 332.192718 55.257977 
L 334.622698 58.26539 
L 337.052648 56.292454 
L 339.480779 54.316761 
L 341.911293 50.957651 
L 344.341189 47.729442 
L 346.766963 43.165867 
L 349.199916 41.038906 
L 351.633337 37.828323 
L 354.068494 38.720394 
L 356.498799 46.072542 
L 358.927149 48.621513 
L 361.354602 43.475985 
L 363.790016 47.371739 
L 366.218832 40.348028 
L 368.646748 38.437875 
L 371.078562 47.195074 
L 373.509668 38.675336 
L 375.943346 34.214978 
L 378.375663 44.247098 
L 380.807201 39.015627 
L 383.242945 39.240094 
L 385.680599 46.503693 
L 388.103103 40.79977 
L 390.531579 39.968384 
L 392.962345 40.369361 
L 395.395991 38.348022 
L 397.830442 31.583822 
L 400.259633 36.04418 
L 402.690648 39.015627 
L 405.124155 41.038906 
L 407.559497 40.925716 
L 409.984123 40.79977 
L 412.411329 37.218703 
L 414.84461 36.490216 
L 417.272268 38.695538 
L 419.705291 38.274359 
L 422.137975 36.465359 
L 424.568551 38.274359 
L 426.996148 38.184241 
L 429.429352 38.184241 
L 431.857727 38.184241 
L 431.857727 29.443761 
L 431.857727 29.443761 
L 429.429352 29.443761 
L 426.996148 29.443761 
L 424.568551 27.5695 
L 422.137975 28.486429 
L 419.705291 27.5695 
L 417.272268 30.716607 
L 414.84461 29.353643 
L 412.411329 31.30137 
L 409.984123 30.396518 
L 407.559497 32.946786 
L 405.124155 31.941525 
L 402.690648 28.612375 
L 400.259633 30.691751 
L 397.830442 29.799679 
L 395.395991 30.172052 
L 392.962345 27.258641 
L 390.531579 31.227904 
L 388.103103 30.396518 
L 385.680599 26.476738 
L 383.242945 31.064123 
L 380.807201 28.612375 
L 378.375663 26.94919 
L 375.943346 29.844738 
L 373.509668 34.305096 
L 371.078562 36.490216 
L 368.646748 30.97427 
L 366.218832 29.064117 
L 363.790016 29.176978 
L 361.354602 33.072732 
L 358.927149 39.524133 
L 356.498799 39.39689 
L 354.068494 33.367965 
L 351.633337 30.691751 
L 349.199916 31.941525 
L 346.766963 29.814564 
L 344.341189 38.632062 
L 341.911293 35.403853 
L 339.480779 40.965458 
L 337.052648 38.097694 
L 334.622698 36.124757 
L 332.192718 31.995598 
L 329.760976 42.44519 
L 327.329737 32.257338 
L 324.897004 32.833597 
L 322.46364 41.547412 
L 320.032047 37.701528 
L 317.59974 33.84783 
L 315.165253 45.537768 
L 312.730061 34.16494 
L 310.301751 34.90025 
L 307.877464 40.231342 
L 305.440564 48.4755 
L 303.011541 30.324632 
L 300.583061 31.1875 
L 298.151259 37.318889 
L 295.719641 38.030271 
L 293.284192 42.674265 
L 290.855054 47.496346 
L 288.424276 41.598557 
L 285.997796 43.475546 
L 283.565266 60.220228 
L 281.132411 40.862241 
L 278.704177 35.233544 
L 276.278392 54.212778 
L 273.851282 49.142801 
L 271.42284 33.425418 
L 268.988476 49.930182 
L 266.560156 46.554747 
L 264.130101 41.751363 
L 261.698021 49.997161 
L 259.268615 47.496346 
L 256.841999 37.105522 
L 254.409361 46.780979 
L 251.98093 49.803636 
L 249.551445 43.006477 
L 247.113775 48.558038 
L 244.685899 36.81535 
L 242.248648 56.205906 
L 239.813611 44.333126 
L 237.384634 45.723949 
L 234.958776 67.876302 
L 232.520659 42.493563 
L 230.079252 40.111752 
L 227.637595 36.716831 
L 225.189075 45.881772 
L 222.738384 50.733657 
L 220.293213 50.642458 
L 217.8437 53.633752 
L 215.400212 47.018409 
L 212.948474 50.778244 
L 210.502793 52.967324 
L 208.061624 52.054236 
L 205.60692 60.433188 
L 203.152485 58.628468 
L 200.717451 70.321281 
L 198.292001 48.013062 
L 195.871074 48.013482 
L 193.44355 61.209672 
L 191.007825 55.483966 
L 188.568391 54.34653 
L 186.134546 61.850856 
L 183.695906 78.863612 
L 181.260434 52.112093 
L 178.824181 52.167203 
L 176.392659 58.829205 
L 173.957542 48.062404 
L 171.521003 75.845845 
L 169.087469 55.531041 
L 166.657536 68.60479 
L 164.224135 76.187398 
L 161.797758 49.881914 
L 159.364979 62.993815 
L 156.934908 62.159598 
L 154.510425 64.464304 
L 152.084513 63.267245 
L 149.659581 61.34935 
L 147.236796 63.379199 
L 144.805104 67.654231 
L 142.377969 62.159598 
L 139.947474 87.704328 
L 137.510795 67.980125 
L 135.089608 58.390683 
L 132.656561 83.756074 
L 130.232338 68.459491 
L 127.802101 67.260656 
L 125.373601 68.148137 
L 122.940591 61.999125 
L 120.501079 108.888783 
L 118.068539 84.849014 
L 115.630137 81.985863 
L 113.19645 101.611436 
L 110.760432 77.530462 
L 108.32283 95.492939 
L 105.890356 79.745067 
L 103.445921 117.956793 
L 101.01247 119.122704 
L 98.580267 116.63794 
L 96.138801 121.581072 
L 93.704554 127.246847 
L 91.264831 140.602464 
L 88.817586 147.933703 
L 86.380214 164.045825 
L 83.942444 154.758069 
L 81.506808 177.256163 
L 79.074945 169.991779 
L 76.630654 213.736345 
L 74.187565 239.80859 
L 71.745503 254.855193 
L 69.307957 263.477887 
z
" style="fill:#1f77b4;fill-opacity:0.25;"/>
   </g>
   <g id="PolyCollection_2">
    <path clip-path="url(#p1d7894c4d2)" d="M 69.012273 248.465759 
L 69.012273 277.09461 
L 70.961816 254.557986 
L 72.865313 239.082842 
L 74.742724 259.109192 
L 76.630255 213.782442 
L 78.49823 220.802982 
L 80.378298 221.506353 
L 82.266099 122.359816 
L 84.140884 149.16813 
L 86.026823 100.671673 
L 87.902211 140.728933 
L 89.778762 121.855106 
L 91.665377 98.339672 
L 93.543929 86.511687 
L 95.421768 72.027702 
L 97.290383 73.978546 
L 99.163955 76.356147 
L 101.048406 87.268374 
L 102.925679 89.177927 
L 104.797055 75.971403 
L 106.693843 63.590939 
L 108.570276 71.597366 
L 110.45242 87.86319 
L 112.33476 78.141491 
L 114.203185 91.106926 
L 116.081232 95.968227 
L 117.954962 101.120442 
L 119.827085 81.567565 
L 121.713279 68.906908 
L 123.599897 119.105702 
L 125.479991 63.949982 
L 127.35534 61.486851 
L 129.226843 82.241597 
L 131.096797 78.167525 
L 132.975261 71.226183 
L 134.868282 84.461952 
L 136.749005 59.012624 
L 138.629169 61.105814 
L 140.516401 54.928436 
L 142.389172 55.373028 
L 144.267272 88.910425 
L 146.140278 83.147158 
L 148.030085 61.045732 
L 149.902259 70.756632 
L 151.781696 66.056725 
L 153.657095 63.046209 
L 155.525284 75.049827 
L 157.394731 125.213627 
L 159.258572 66.597467 
L 161.119189 60.832431 
L 162.990641 60.610398 
L 164.858603 66.206435 
L 166.744104 80.675676 
L 168.621908 72.258762 
L 170.49382 66.062863 
L 172.373015 112.876677 
L 174.242027 53.157942 
L 176.117147 68.983177 
L 178.002711 67.639082 
L 179.882281 62.472672 
L 181.760879 59.100424 
L 183.641328 62.012665 
L 185.512934 63.439136 
L 187.383806 68.83664 
L 189.261309 61.49874 
L 191.134506 50.335957 
L 192.999114 55.472721 
L 194.86713 53.901913 
L 196.749834 66.128698 
L 198.631277 66.484716 
L 200.501687 63.391543 
L 202.3835 48.447179 
L 204.250805 46.869331 
L 206.121249 60.459314 
L 207.988492 52.527221 
L 209.867059 46.383676 
L 211.748025 50.599083 
L 213.618186 114.563986 
L 215.503034 58.464763 
L 217.366109 57.214678 
L 219.234729 54.149563 
L 221.127807 58.434945 
L 223.010952 55.005715 
L 224.885795 58.362251 
L 226.756285 50.711624 
L 228.638867 57.440492 
L 230.515149 52.024894 
L 232.390817 55.241187 
L 234.260267 52.941796 
L 236.131615 60.205472 
L 238.009009 57.63887 
L 239.882061 58.54142 
L 241.753631 49.821761 
L 243.626776 48.320538 
L 245.507214 49.537089 
L 247.376222 44.698499 
L 249.247976 46.58393 
L 251.114865 48.234917 
L 252.994443 49.29605 
L 254.868994 48.483252 
L 256.748111 49.595481 
L 258.616746 50.037448 
L 260.496176 53.564472 
L 262.373912 44.450818 
L 264.249095 52.963281 
L 266.112226 49.099345 
L 267.994299 44.724974 
L 269.861425 48.133026 
L 271.746732 51.476261 
L 273.615765 43.008173 
L 275.493185 46.237415 
L 277.360004 48.656589 
L 279.238307 47.652484 
L 281.118388 40.505227 
L 282.978837 36.725175 
L 284.845654 36.725175 
L 286.714716 43.872207 
L 288.584551 42.40262 
L 290.45052 45.387447 
L 292.33299 41.551055 
L 294.204121 38.527518 
L 296.078834 43.104251 
L 297.950495 41.092335 
L 299.824313 47.684968 
L 301.704484 45.036355 
L 303.585503 40.957884 
L 305.460196 41.092335 
L 307.323848 40.218611 
L 309.193099 38.371457 
L 311.065356 39.482972 
L 312.941977 40.49201 
L 314.826513 36.962788 
L 316.704457 36.611049 
L 318.590699 36.195812 
L 320.465754 38.386511 
L 322.347406 36.086413 
L 324.211004 38.351647 
L 326.092841 38.550587 
L 327.974709 38.0748 
L 329.854018 39.765627 
L 331.744595 39.899681 
L 333.620725 38.011274 
L 335.494079 37.272496 
L 337.384252 36.881639 
L 339.254032 37.272496 
L 341.140309 37.272496 
L 343.021677 36.08426 
L 344.895092 36.881639 
L 346.763144 38.593255 
L 348.643479 37.208502 
L 348.643479 28.635357 
L 348.643479 28.635357 
L 346.763144 33.885385 
L 344.895092 33.478332 
L 343.021677 28.811773 
L 341.140309 29.128907 
L 339.254032 29.128907 
L 337.384252 33.478332 
L 335.494079 29.128907 
L 333.620725 31.01059 
L 331.744595 29.122182 
L 329.854018 29.088973 
L 327.974709 29.107166 
L 326.092841 30.917313 
L 324.211004 32.844641 
L 322.347406 32.823942 
L 320.465754 31.137143 
L 318.590699 33.327842 
L 316.704457 31.184217 
L 314.826513 31.167004 
L 312.941977 31.819367 
L 311.065356 34.445285 
L 309.193099 34.664728 
L 307.323848 31.535222 
L 305.460196 31.274797 
L 303.585503 30.851704 
L 301.704484 35.470929 
L 299.824313 31.038173 
L 297.950495 31.274797 
L 296.078834 28.928355 
L 294.204121 29.602274 
L 292.33299 27.86109 
L 290.45052 33.001168 
L 288.584551 32.80799 
L 286.714716 33.234055 
L 284.845654 31.181599 
L 282.978837 31.181599 
L 281.118388 34.872646 
L 279.238307 33.635363 
L 277.360004 34.080874 
L 275.493185 39.845316 
L 273.615765 38.335429 
L 271.746732 33.212608 
L 269.861425 35.942544 
L 267.994299 35.224766 
L 266.112226 33.582364 
L 264.249095 30.108709 
L 262.373912 34.216569 
L 260.496176 44.728488 
L 258.616746 31.027381 
L 256.748111 39.107711 
L 254.868994 39.272114 
L 252.994443 30.207654 
L 251.114865 37.29027 
L 249.247976 35.763252 
L 247.376222 33.634362 
L 245.507214 37.660732 
L 243.626776 32.130992 
L 241.753631 29.849206 
L 239.882061 41.089648 
L 238.009009 42.438234 
L 236.131615 40.763703 
L 234.260267 42.284668 
L 232.390817 40.76584 
L 230.515149 43.870624 
L 228.638867 40.350678 
L 226.756285 35.817143 
L 224.885795 40.544009 
L 223.010952 42.450928 
L 221.127807 40.694332 
L 219.234729 41.578692 
L 217.366109 48.883908 
L 215.503034 45.124872 
L 213.618186 31.566309 
L 211.748025 38.104109 
L 209.867059 40.8699 
L 207.988492 45.152441 
L 206.121249 42.070986 
L 204.250805 34.474271 
L 202.3835 37.301025 
L 200.501687 44.379677 
L 198.631277 42.680365 
L 196.749834 44.597509 
L 194.86713 41.491815 
L 192.999114 44.381364 
L 191.134506 41.43373 
L 189.261309 39.749208 
L 187.383806 44.454273 
L 185.512934 36.41495 
L 183.641328 43.751395 
L 181.760879 49.005323 
L 179.882281 40.224892 
L 178.002711 41.581755 
L 176.117147 48.545076 
L 174.242027 44.465965 
L 172.373015 26.061292 
L 170.49382 39.701197 
L 168.621908 43.875629 
L 166.744104 44.323676 
L 164.858603 47.474759 
L 162.990641 43.536781 
L 161.119189 44.82012 
L 159.258572 42.567614 
L 157.394731 43.218457 
L 155.525284 51.566404 
L 153.657095 45.059538 
L 151.781696 48.293523 
L 149.902259 46.827375 
L 148.030085 44.88559 
L 146.140278 54.508458 
L 144.267272 54.376393 
L 142.389172 45.26162 
L 140.516401 39.740484 
L 138.629169 37.465919 
L 136.749005 43.127394 
L 134.868282 53.751208 
L 132.975261 40.392096 
L 131.096797 51.459447 
L 129.226843 42.088701 
L 127.35534 52.584624 
L 125.479991 47.054998 
L 123.599897 39.234822 
L 121.713279 51.074541 
L 119.827085 53.746364 
L 117.954962 48.132103 
L 116.081232 49.381506 
L 114.203185 55.134878 
L 112.33476 53.548397 
L 110.45242 41.429256 
L 108.570276 55.743673 
L 106.693843 44.403299 
L 104.797055 62.464775 
L 102.925679 41.787153 
L 101.048406 51.836858 
L 99.163955 57.006374 
L 97.290383 63.900087 
L 95.421768 53.863721 
L 93.543929 70.657994 
L 91.665377 73.103152 
L 89.778762 91.069044 
L 87.902211 100.351224 
L 86.026823 68.37371 
L 84.140884 109.251667 
L 82.266099 113.59093 
L 80.378298 155.252306 
L 78.49823 117.429339 
L 76.630255 125.787986 
L 74.742724 201.239356 
L 72.865313 148.464307 
L 70.961816 235.758589 
L 69.012273 248.465759 
z
" style="fill:#ff7f0e;fill-opacity:0.25;"/>
   </g>
   <g id="PolyCollection_3">
    <path clip-path="url(#p1d7894c4d2)" d="M 69.056713 249.795086 
L 69.056713 254.961897 
L 71.041155 241.599433 
L 72.967755 219.282031 
L 74.885033 257.733306 
L 76.799968 194.920499 
L 78.70005 227.791837 
L 80.617542 180.00763 
L 82.536179 98.094219 
L 84.453539 91.371938 
L 86.364152 71.120834 
L 88.274408 78.203514 
L 90.192932 72.637745 
L 92.100879 127.409774 
L 94.012949 66.518951 
L 95.930447 59.908688 
L 97.842077 81.065851 
L 99.753438 71.235968 
L 101.657445 60.942034 
L 103.563537 70.115007 
L 105.483939 70.84641 
L 107.390276 56.824733 
L 109.289317 57.966565 
L 111.203988 56.874315 
L 113.11306 64.624283 
L 115.019119 66.894654 
L 116.927303 68.583337 
L 118.839172 65.018868 
L 120.735099 57.53457 
L 122.633409 56.502567 
L 124.536686 50.99858 
L 126.439278 64.937327 
L 128.350819 51.002649 
L 130.257771 55.233753 
L 132.15991 62.349828 
L 134.062508 59.137218 
L 135.982354 58.832079 
L 137.88456 50.150751 
L 139.786054 58.873265 
L 141.699589 63.373488 
L 143.608819 76.654749 
L 145.507543 56.374294 
L 147.412679 71.642489 
L 149.316212 47.986324 
L 151.222715 111.927827 
L 153.128961 55.530419 
L 155.040706 71.294426 
L 156.954878 45.850121 
L 158.873479 70.098138 
L 160.770822 60.217226 
L 162.680721 67.11959 
L 164.593901 54.30133 
L 166.513394 58.839152 
L 168.428803 51.661204 
L 170.336831 63.410807 
L 172.240004 58.258734 
L 174.139804 60.942034 
L 176.041863 58.541108 
L 177.96172 45.927251 
L 179.86938 58.881723 
L 181.78404 42.577488 
L 183.688877 54.117227 
L 185.605102 54.435158 
L 187.507755 51.661204 
L 189.410767 50.599083 
L 191.324718 54.162908 
L 193.22927 50.99858 
L 195.13273 48.951661 
L 197.036626 45.907187 
L 198.941183 48.42339 
L 200.8541 56.433806 
L 202.763794 51.936715 
L 204.678314 55.992135 
L 206.591702 40.557432 
L 208.494367 47.68543 
L 210.399067 50.889009 
L 212.296499 52.316429 
L 214.209844 55.41489 
L 216.128082 46.652059 
L 218.032586 56.888238 
L 219.939416 49.746053 
L 221.846736 45.357878 
L 223.754118 44.698499 
L 225.666238 36.122876 
L 227.570509 46.822967 
L 229.477843 43.008173 
L 231.380563 42.208122 
L 233.285323 44.255437 
L 235.187195 45.700391 
L 237.09563 39.253135 
L 239.002247 42.89288 
L 240.906518 43.144334 
L 242.807523 44.987837 
L 244.715979 44.865734 
L 246.625304 36.52189 
L 248.52569 40.302362 
L 250.43228 43.581544 
L 252.336539 40.285317 
L 254.254597 39.937893 
L 256.16368 39.870956 
L 258.062361 40.505227 
L 259.970079 42.208122 
L 261.877959 40.505227 
L 263.782333 35.232782 
L 265.692961 41.038002 
L 267.603608 33.498618 
L 269.505366 43.008173 
L 271.40908 35.537074 
L 273.326981 44.380084 
L 275.242065 41.374818 
L 277.152645 40.557432 
L 279.053505 40.557432 
L 280.953394 37.668152 
L 282.863066 37.970411 
L 284.761174 41.638963 
L 286.661362 38.999857 
L 288.569721 39.7815 
L 290.477816 39.937893 
L 292.382474 35.537074 
L 294.288988 38.505976 
L 296.184526 35.232782 
L 298.091578 38.626725 
L 299.990038 34.776357 
L 301.89395 40.557432 
L 303.80081 33.498618 
L 305.699355 35.501165 
L 307.601741 37.688937 
L 309.519091 38.289709 
L 311.423483 35.537074 
L 313.325399 36.725175 
L 315.237302 31.723208 
L 317.145324 39.701051 
L 319.054673 32.77381 
L 320.94922 32.77381 
L 322.845572 33.002603 
L 324.755471 33.918664 
L 326.669497 33.918664 
L 328.58342 35.501165 
L 330.492622 33.002603 
L 332.398747 33.002603 
L 334.301436 34.776357 
L 336.199155 33.002603 
L 338.109013 31.857279 
L 340.01143 34.650318 
L 341.913695 34.650318 
L 343.820328 33.918664 
L 345.730202 33.918664 
L 347.642397 31.857279 
L 349.543276 34.650318 
L 351.445678 36.146808 
L 353.356166 35.567722 
L 353.356166 27.934449 
L 353.356166 27.934449 
L 351.445678 28.804979 
L 349.543276 28.740344 
L 347.642397 27.184535 
L 345.730202 28.022382 
L 343.820328 28.022382 
L 341.913695 28.740344 
L 340.01143 28.740344 
L 338.109013 27.184535 
L 336.199155 27.488827 
L 334.301436 27.220444 
L 332.398747 27.488827 
L 330.492622 27.488827 
L 328.58342 27.945252 
L 326.669497 28.022382 
L 324.755471 28.022382 
L 322.845572 27.488827 
L 320.94922 29.22299 
L 319.054673 29.22299 
L 317.145324 29.65534 
L 315.237302 28.823976 
L 313.325399 31.181599 
L 311.423483 30.86433 
L 309.519091 29.617066 
L 307.601741 31.667454 
L 305.699355 27.945252 
L 303.80081 29.947798 
L 301.89395 31.865455 
L 299.990038 27.220444 
L 298.091578 34.688233 
L 296.184526 29.719006 
L 294.288988 30.906169 
L 292.382474 30.86433 
L 290.477816 30.979623 
L 288.569721 29.686399 
L 286.661362 33.367275 
L 284.761174 30.728168 
L 282.863066 27.037131 
L 280.953394 31.743993 
L 279.053505 31.865455 
L 277.152645 31.865455 
L 275.242065 29.877224 
L 273.326981 31.666843 
L 271.40908 30.86433 
L 269.505366 38.335429 
L 267.603608 29.947798 
L 265.692961 37.350612 
L 263.782333 29.719006 
L 261.877959 34.872646 
L 259.970079 34.619367 
L 258.062361 34.872646 
L 256.16368 32.496176 
L 254.254597 30.979623 
L 252.336539 36.597927 
L 250.43228 31.740575 
L 248.52569 33.57014 
L 246.625304 32.8345 
L 244.715979 34.972497 
L 242.807523 37.749627 
L 240.906518 32.233539 
L 239.002247 33.93461 
L 237.09563 31.66438 
L 235.187195 37.037072 
L 233.285323 35.582794 
L 231.380563 34.619367 
L 229.477843 38.335429 
L 227.570509 31.454139 
L 225.666238 28.884666 
L 223.754118 33.634362 
L 221.846736 34.424598 
L 219.939416 36.002152 
L 218.032586 42.241039 
L 216.128082 39.096146 
L 214.209844 34.068864 
L 212.296499 39.397504 
L 210.399067 36.420321 
L 208.494367 29.14206 
L 206.591702 31.865455 
L 204.678314 36.167834 
L 202.763794 36.153177 
L 200.8541 41.245855 
L 198.941183 40.279801 
L 197.036626 35.38066 
L 195.13273 36.852298 
L 193.22927 43.726094 
L 191.324718 35.711127 
L 189.410767 38.104109 
L 187.507755 41.5581 
L 185.605102 41.906396 
L 183.688877 46.517421 
L 181.78404 29.789644 
L 179.86938 41.641416 
L 177.96172 38.371337 
L 176.041863 49.620393 
L 174.139804 47.107958 
L 172.240004 34.96057 
L 170.336831 43.412587 
L 168.428803 41.5581 
L 166.513394 39.342299 
L 164.593901 41.87296 
L 162.680721 40.707385 
L 160.770822 46.38315 
L 158.873479 40.182033 
L 156.954878 39.953838 
L 155.040706 46.90288 
L 153.128961 40.643871 
L 151.222715 24.110909 
L 149.316212 39.323005 
L 147.412679 40.366071 
L 145.507543 44.316109 
L 143.608819 29.053556 
L 141.699589 37.428423 
L 139.786054 47.727111 
L 137.88456 44.518169 
L 135.982354 37.286457 
L 134.062508 50.473899 
L 132.15991 47.205535 
L 130.257771 42.445909 
L 128.350819 37.756297 
L 126.439278 41.607295 
L 124.536686 43.726094 
L 122.633409 45.637452 
L 120.735099 52.020794 
L 118.839172 48.996853 
L 116.927303 51.398112 
L 115.019119 47.121066 
L 113.11306 44.986834 
L 111.203988 48.22069 
L 109.289317 42.668083 
L 107.390276 43.809915 
L 105.483939 47.741177 
L 103.563537 57.281786 
L 101.657445 47.107958 
L 99.753438 59.115813 
L 97.842077 56.310992 
L 95.930447 52.601662 
L 94.012949 56.473239 
L 92.100879 41.356836 
L 90.192932 63.735518 
L 88.274408 62.574352 
L 86.364152 65.196675 
L 84.453539 74.662703 
L 82.536179 84.332236 
L 80.617542 86.803215 
L 78.70005 108.684218 
L 76.799968 98.764 
L 74.885033 159.837625 
L 72.967755 142.478676 
L 71.041155 232.938627 
L 69.056713 249.795086 
z
" style="fill:#2ca02c;fill-opacity:0.25;"/>
   </g>
   <g id="matplotlib.axis_1">
    <g id="xtick_1">
     <g id="line2d_1">
      <defs>
       <path d="M 0 0 
L 0 3.5 
" id="m2545ec0311" style="stroke:#000000;stroke-width:0.8;"/>
      </defs>
      <g>
       <use style="stroke:#000000;stroke-width:0.8;" x="66.790569" xlink:href="#m2545ec0311" y="303.64"/>
      </g>
     </g>
     <g id="text_1">
      <!-- 0 -->
      <g transform="translate(63.609319 318.238437)scale(0.1 -0.1)">
       <defs>
        <path d="M 31.78125 66.40625 
Q 24.171875 66.40625 20.328125 58.90625 
Q 16.5 51.421875 16.5 36.375 
Q 16.5 21.390625 20.328125 13.890625 
Q 24.171875 6.390625 31.78125 6.390625 
Q 39.453125 6.390625 43.28125 13.890625 
Q 47.125 21.390625 47.125 36.375 
Q 47.125 51.421875 43.28125 58.90625 
Q 39.453125 66.40625 31.78125 66.40625 
z
M 31.78125 74.21875 
Q 44.046875 74.21875 50.515625 64.515625 
Q 56.984375 54.828125 56.984375 36.375 
Q 56.984375 17.96875 50.515625 8.265625 
Q 44.046875 -1.421875 31.78125 -1.421875 
Q 19.53125 -1.421875 13.0625 8.265625 
Q 6.59375 17.96875 6.59375 36.375 
Q 6.59375 54.828125 13.0625 64.515625 
Q 19.53125 74.21875 31.78125 74.21875 
z
" id="DejaVuSans-48"/>
       </defs>
       <use xlink:href="#DejaVuSans-48"/>
      </g>
     </g>
    </g>
    <g id="xtick_2">
     <g id="line2d_2">
      <g>
       <use style="stroke:#000000;stroke-width:0.8;" x="123.295617" xlink:href="#m2545ec0311" y="303.64"/>
      </g>
     </g>
     <g id="text_2">
      <!-- 2000 -->
      <g transform="translate(110.570617 318.238437)scale(0.1 -0.1)">
       <defs>
        <path d="M 19.1875 8.296875 
L 53.609375 8.296875 
L 53.609375 0 
L 7.328125 0 
L 7.328125 8.296875 
Q 12.9375 14.109375 22.625 23.890625 
Q 32.328125 33.6875 34.8125 36.53125 
Q 39.546875 41.84375 41.421875 45.53125 
Q 43.3125 49.21875 43.3125 52.78125 
Q 43.3125 58.59375 39.234375 62.25 
Q 35.15625 65.921875 28.609375 65.921875 
Q 23.96875 65.921875 18.8125 64.3125 
Q 13.671875 62.703125 7.8125 59.421875 
L 7.8125 69.390625 
Q 13.765625 71.78125 18.9375 73 
Q 24.125 74.21875 28.421875 74.21875 
Q 39.75 74.21875 46.484375 68.546875 
Q 53.21875 62.890625 53.21875 53.421875 
Q 53.21875 48.921875 51.53125 44.890625 
Q 49.859375 40.875 45.40625 35.40625 
Q 44.1875 33.984375 37.640625 27.21875 
Q 31.109375 20.453125 19.1875 8.296875 
z
" id="DejaVuSans-50"/>
       </defs>
       <use xlink:href="#DejaVuSans-50"/>
       <use x="63.623047" xlink:href="#DejaVuSans-48"/>
       <use x="127.246094" xlink:href="#DejaVuSans-48"/>
       <use x="190.869141" xlink:href="#DejaVuSans-48"/>
      </g>
     </g>
    </g>
    <g id="xtick_3">
     <g id="line2d_3">
      <g>
       <use style="stroke:#000000;stroke-width:0.8;" x="179.800664" xlink:href="#m2545ec0311" y="303.64"/>
      </g>
     </g>
     <g id="text_3">
      <!-- 4000 -->
      <g transform="translate(167.075664 318.238437)scale(0.1 -0.1)">
       <defs>
        <path d="M 37.796875 64.3125 
L 12.890625 25.390625 
L 37.796875 25.390625 
z
M 35.203125 72.90625 
L 47.609375 72.90625 
L 47.609375 25.390625 
L 58.015625 25.390625 
L 58.015625 17.1875 
L 47.609375 17.1875 
L 47.609375 0 
L 37.796875 0 
L 37.796875 17.1875 
L 4.890625 17.1875 
L 4.890625 26.703125 
z
" id="DejaVuSans-52"/>
       </defs>
       <use xlink:href="#DejaVuSans-52"/>
       <use x="63.623047" xlink:href="#DejaVuSans-48"/>
       <use x="127.246094" xlink:href="#DejaVuSans-48"/>
       <use x="190.869141" xlink:href="#DejaVuSans-48"/>
      </g>
     </g>
    </g>
    <g id="xtick_4">
     <g id="line2d_4">
      <g>
       <use style="stroke:#000000;stroke-width:0.8;" x="236.305712" xlink:href="#m2545ec0311" y="303.64"/>
      </g>
     </g>
     <g id="text_4">
      <!-- 6000 -->
      <g transform="translate(223.580712 318.238437)scale(0.1 -0.1)">
       <defs>
        <path d="M 33.015625 40.375 
Q 26.375 40.375 22.484375 35.828125 
Q 18.609375 31.296875 18.609375 23.390625 
Q 18.609375 15.53125 22.484375 10.953125 
Q 26.375 6.390625 33.015625 6.390625 
Q 39.65625 6.390625 43.53125 10.953125 
Q 47.40625 15.53125 47.40625 23.390625 
Q 47.40625 31.296875 43.53125 35.828125 
Q 39.65625 40.375 33.015625 40.375 
z
M 52.59375 71.296875 
L 52.59375 62.3125 
Q 48.875 64.0625 45.09375 64.984375 
Q 41.3125 65.921875 37.59375 65.921875 
Q 27.828125 65.921875 22.671875 59.328125 
Q 17.53125 52.734375 16.796875 39.40625 
Q 19.671875 43.65625 24.015625 45.921875 
Q 28.375 48.1875 33.59375 48.1875 
Q 44.578125 48.1875 50.953125 41.515625 
Q 57.328125 34.859375 57.328125 23.390625 
Q 57.328125 12.15625 50.6875 5.359375 
Q 44.046875 -1.421875 33.015625 -1.421875 
Q 20.359375 -1.421875 13.671875 8.265625 
Q 6.984375 17.96875 6.984375 36.375 
Q 6.984375 53.65625 15.1875 63.9375 
Q 23.390625 74.21875 37.203125 74.21875 
Q 40.921875 74.21875 44.703125 73.484375 
Q 48.484375 72.75 52.59375 71.296875 
z
" id="DejaVuSans-54"/>
       </defs>
       <use xlink:href="#DejaVuSans-54"/>
       <use x="63.623047" xlink:href="#DejaVuSans-48"/>
       <use x="127.246094" xlink:href="#DejaVuSans-48"/>
       <use x="190.869141" xlink:href="#DejaVuSans-48"/>
      </g>
     </g>
    </g>
    <g id="xtick_5">
     <g id="line2d_5">
      <g>
       <use style="stroke:#000000;stroke-width:0.8;" x="292.810759" xlink:href="#m2545ec0311" y="303.64"/>
      </g>
     </g>
     <g id="text_5">
      <!-- 8000 -->
      <g transform="translate(280.085759 318.238437)scale(0.1 -0.1)">
       <defs>
        <path d="M 31.78125 34.625 
Q 24.75 34.625 20.71875 30.859375 
Q 16.703125 27.09375 16.703125 20.515625 
Q 16.703125 13.921875 20.71875 10.15625 
Q 24.75 6.390625 31.78125 6.390625 
Q 38.8125 6.390625 42.859375 10.171875 
Q 46.921875 13.96875 46.921875 20.515625 
Q 46.921875 27.09375 42.890625 30.859375 
Q 38.875 34.625 31.78125 34.625 
z
M 21.921875 38.8125 
Q 15.578125 40.375 12.03125 44.71875 
Q 8.5 49.078125 8.5 55.328125 
Q 8.5 64.0625 14.71875 69.140625 
Q 20.953125 74.21875 31.78125 74.21875 
Q 42.671875 74.21875 48.875 69.140625 
Q 55.078125 64.0625 55.078125 55.328125 
Q 55.078125 49.078125 51.53125 44.71875 
Q 48 40.375 41.703125 38.8125 
Q 48.828125 37.15625 52.796875 32.3125 
Q 56.78125 27.484375 56.78125 20.515625 
Q 56.78125 9.90625 50.3125 4.234375 
Q 43.84375 -1.421875 31.78125 -1.421875 
Q 19.734375 -1.421875 13.25 4.234375 
Q 6.78125 9.90625 6.78125 20.515625 
Q 6.78125 27.484375 10.78125 32.3125 
Q 14.796875 37.15625 21.921875 38.8125 
z
M 18.3125 54.390625 
Q 18.3125 48.734375 21.84375 45.5625 
Q 25.390625 42.390625 31.78125 42.390625 
Q 38.140625 42.390625 41.71875 45.5625 
Q 45.3125 48.734375 45.3125 54.390625 
Q 45.3125 60.0625 41.71875 63.234375 
Q 38.140625 66.40625 31.78125 66.40625 
Q 25.390625 66.40625 21.84375 63.234375 
Q 18.3125 60.0625 18.3125 54.390625 
z
" id="DejaVuSans-56"/>
       </defs>
       <use xlink:href="#DejaVuSans-56"/>
       <use x="63.623047" xlink:href="#DejaVuSans-48"/>
       <use x="127.246094" xlink:href="#DejaVuSans-48"/>
       <use x="190.869141" xlink:href="#DejaVuSans-48"/>
      </g>
     </g>
    </g>
    <g id="xtick_6">
     <g id="line2d_6">
      <g>
       <use style="stroke:#000000;stroke-width:0.8;" x="349.315807" xlink:href="#m2545ec0311" y="303.64"/>
      </g>
     </g>
     <g id="text_6">
      <!-- 10000 -->
      <g transform="translate(333.409557 318.238437)scale(0.1 -0.1)">
       <defs>
        <path d="M 12.40625 8.296875 
L 28.515625 8.296875 
L 28.515625 63.921875 
L 10.984375 60.40625 
L 10.984375 69.390625 
L 28.421875 72.90625 
L 38.28125 72.90625 
L 38.28125 8.296875 
L 54.390625 8.296875 
L 54.390625 0 
L 12.40625 0 
z
" id="DejaVuSans-49"/>
       </defs>
       <use xlink:href="#DejaVuSans-49"/>
       <use x="63.623047" xlink:href="#DejaVuSans-48"/>
       <use x="127.246094" xlink:href="#DejaVuSans-48"/>
       <use x="190.869141" xlink:href="#DejaVuSans-48"/>
       <use x="254.492188" xlink:href="#DejaVuSans-48"/>
      </g>
     </g>
    </g>
    <g id="xtick_7">
     <g id="line2d_7">
      <g>
       <use style="stroke:#000000;stroke-width:0.8;" x="405.820855" xlink:href="#m2545ec0311" y="303.64"/>
      </g>
     </g>
     <g id="text_7">
      <!-- 12000 -->
      <g transform="translate(389.914605 318.238437)scale(0.1 -0.1)">
       <use xlink:href="#DejaVuSans-49"/>
       <use x="63.623047" xlink:href="#DejaVuSans-50"/>
       <use x="127.246094" xlink:href="#DejaVuSans-48"/>
       <use x="190.869141" xlink:href="#DejaVuSans-48"/>
       <use x="254.492188" xlink:href="#DejaVuSans-48"/>
      </g>
     </g>
    </g>
    <g id="text_8">
     <!-- Time (sec) -->
     <g transform="translate(224.280313 331.916562)scale(0.1 -0.1)">
      <defs>
       <path d="M -0.296875 72.90625 
L 61.375 72.90625 
L 61.375 64.59375 
L 35.5 64.59375 
L 35.5 0 
L 25.59375 0 
L 25.59375 64.59375 
L -0.296875 64.59375 
z
" id="DejaVuSans-84"/>
       <path d="M 9.421875 54.6875 
L 18.40625 54.6875 
L 18.40625 0 
L 9.421875 0 
z
M 9.421875 75.984375 
L 18.40625 75.984375 
L 18.40625 64.59375 
L 9.421875 64.59375 
z
" id="DejaVuSans-105"/>
       <path d="M 52 44.1875 
Q 55.375 50.25 60.0625 53.125 
Q 64.75 56 71.09375 56 
Q 79.640625 56 84.28125 50.015625 
Q 88.921875 44.046875 88.921875 33.015625 
L 88.921875 0 
L 79.890625 0 
L 79.890625 32.71875 
Q 79.890625 40.578125 77.09375 44.375 
Q 74.3125 48.1875 68.609375 48.1875 
Q 61.625 48.1875 57.5625 43.546875 
Q 53.515625 38.921875 53.515625 30.90625 
L 53.515625 0 
L 44.484375 0 
L 44.484375 32.71875 
Q 44.484375 40.625 41.703125 44.40625 
Q 38.921875 48.1875 33.109375 48.1875 
Q 26.21875 48.1875 22.15625 43.53125 
Q 18.109375 38.875 18.109375 30.90625 
L 18.109375 0 
L 9.078125 0 
L 9.078125 54.6875 
L 18.109375 54.6875 
L 18.109375 46.1875 
Q 21.1875 51.21875 25.484375 53.609375 
Q 29.78125 56 35.6875 56 
Q 41.65625 56 45.828125 52.96875 
Q 50 49.953125 52 44.1875 
z
" id="DejaVuSans-109"/>
       <path d="M 56.203125 29.59375 
L 56.203125 25.203125 
L 14.890625 25.203125 
Q 15.484375 15.921875 20.484375 11.0625 
Q 25.484375 6.203125 34.421875 6.203125 
Q 39.59375 6.203125 44.453125 7.46875 
Q 49.3125 8.734375 54.109375 11.28125 
L 54.109375 2.78125 
Q 49.265625 0.734375 44.1875 -0.34375 
Q 39.109375 -1.421875 33.890625 -1.421875 
Q 20.796875 -1.421875 13.15625 6.1875 
Q 5.515625 13.8125 5.515625 26.8125 
Q 5.515625 40.234375 12.765625 48.109375 
Q 20.015625 56 32.328125 56 
Q 43.359375 56 49.78125 48.890625 
Q 56.203125 41.796875 56.203125 29.59375 
z
M 47.21875 32.234375 
Q 47.125 39.59375 43.09375 43.984375 
Q 39.0625 48.390625 32.421875 48.390625 
Q 24.90625 48.390625 20.390625 44.140625 
Q 15.875 39.890625 15.1875 32.171875 
z
" id="DejaVuSans-101"/>
       <path id="DejaVuSans-32"/>
       <path d="M 31 75.875 
Q 24.46875 64.65625 21.28125 53.65625 
Q 18.109375 42.671875 18.109375 31.390625 
Q 18.109375 20.125 21.3125 9.0625 
Q 24.515625 -2 31 -13.1875 
L 23.1875 -13.1875 
Q 15.875 -1.703125 12.234375 9.375 
Q 8.59375 20.453125 8.59375 31.390625 
Q 8.59375 42.28125 12.203125 53.3125 
Q 15.828125 64.359375 23.1875 75.875 
z
" id="DejaVuSans-40"/>
       <path d="M 44.28125 53.078125 
L 44.28125 44.578125 
Q 40.484375 46.53125 36.375 47.5 
Q 32.28125 48.484375 27.875 48.484375 
Q 21.1875 48.484375 17.84375 46.4375 
Q 14.5 44.390625 14.5 40.28125 
Q 14.5 37.15625 16.890625 35.375 
Q 19.28125 33.59375 26.515625 31.984375 
L 29.59375 31.296875 
Q 39.15625 29.25 43.1875 25.515625 
Q 47.21875 21.78125 47.21875 15.09375 
Q 47.21875 7.46875 41.1875 3.015625 
Q 35.15625 -1.421875 24.609375 -1.421875 
Q 20.21875 -1.421875 15.453125 -0.5625 
Q 10.6875 0.296875 5.421875 2 
L 5.421875 11.28125 
Q 10.40625 8.6875 15.234375 7.390625 
Q 20.0625 6.109375 24.8125 6.109375 
Q 31.15625 6.109375 34.5625 8.28125 
Q 37.984375 10.453125 37.984375 14.40625 
Q 37.984375 18.0625 35.515625 20.015625 
Q 33.0625 21.96875 24.703125 23.78125 
L 21.578125 24.515625 
Q 13.234375 26.265625 9.515625 29.90625 
Q 5.8125 33.546875 5.8125 39.890625 
Q 5.8125 47.609375 11.28125 51.796875 
Q 16.75 56 26.8125 56 
Q 31.78125 56 36.171875 55.265625 
Q 40.578125 54.546875 44.28125 53.078125 
z
" id="DejaVuSans-115"/>
       <path d="M 48.78125 52.59375 
L 48.78125 44.1875 
Q 44.96875 46.296875 41.140625 47.34375 
Q 37.3125 48.390625 33.40625 48.390625 
Q 24.65625 48.390625 19.8125 42.84375 
Q 14.984375 37.3125 14.984375 27.296875 
Q 14.984375 17.28125 19.8125 11.734375 
Q 24.65625 6.203125 33.40625 6.203125 
Q 37.3125 6.203125 41.140625 7.25 
Q 44.96875 8.296875 48.78125 10.40625 
L 48.78125 2.09375 
Q 45.015625 0.34375 40.984375 -0.53125 
Q 36.96875 -1.421875 32.421875 -1.421875 
Q 20.0625 -1.421875 12.78125 6.34375 
Q 5.515625 14.109375 5.515625 27.296875 
Q 5.515625 40.671875 12.859375 48.328125 
Q 20.21875 56 33.015625 56 
Q 37.15625 56 41.109375 55.140625 
Q 45.0625 54.296875 48.78125 52.59375 
z
" id="DejaVuSans-99"/>
       <path d="M 8.015625 75.875 
L 15.828125 75.875 
Q 23.140625 64.359375 26.78125 53.3125 
Q 30.421875 42.28125 30.421875 31.390625 
Q 30.421875 20.453125 26.78125 9.375 
Q 23.140625 -1.703125 15.828125 -13.1875 
L 8.015625 -13.1875 
Q 14.5 -2 17.703125 9.0625 
Q 20.90625 20.125 20.90625 31.390625 
Q 20.90625 42.671875 17.703125 53.65625 
Q 14.5 64.65625 8.015625 75.875 
z
" id="DejaVuSans-41"/>
      </defs>
      <use xlink:href="#DejaVuSans-84"/>
      <use x="57.958984" xlink:href="#DejaVuSans-105"/>
      <use x="85.742188" xlink:href="#DejaVuSans-109"/>
      <use x="183.154297" xlink:href="#DejaVuSans-101"/>
      <use x="244.677734" xlink:href="#DejaVuSans-32"/>
      <use x="276.464844" xlink:href="#DejaVuSans-40"/>
      <use x="315.478516" xlink:href="#DejaVuSans-115"/>
      <use x="367.578125" xlink:href="#DejaVuSans-101"/>
      <use x="429.101562" xlink:href="#DejaVuSans-99"/>
      <use x="484.082031" xlink:href="#DejaVuSans-41"/>
     </g>
    </g>
   </g>
   <g id="matplotlib.axis_2">
    <g id="ytick_1">
     <g id="line2d_8">
      <defs>
       <path d="M 0 0 
L -3.5 0 
" id="me45c92ec90" style="stroke:#000000;stroke-width:0.8;"/>
      </defs>
      <g>
       <use style="stroke:#000000;stroke-width:0.8;" x="50.87" xlink:href="#me45c92ec90" y="254.155665"/>
      </g>
     </g>
     <g id="text_9">
      <!-- 20 -->
      <g transform="translate(31.145 257.954884)scale(0.1 -0.1)">
       <use xlink:href="#DejaVuSans-50"/>
       <use x="63.623047" xlink:href="#DejaVuSans-48"/>
      </g>
     </g>
    </g>
    <g id="ytick_2">
     <g id="line2d_9">
      <g>
       <use style="stroke:#000000;stroke-width:0.8;" x="50.87" xlink:href="#me45c92ec90" y="197.063088"/>
      </g>
     </g>
     <g id="text_10">
      <!-- 40 -->
      <g transform="translate(31.145 200.862307)scale(0.1 -0.1)">
       <use xlink:href="#DejaVuSans-52"/>
       <use x="63.623047" xlink:href="#DejaVuSans-48"/>
      </g>
     </g>
    </g>
    <g id="ytick_3">
     <g id="line2d_10">
      <g>
       <use style="stroke:#000000;stroke-width:0.8;" x="50.87" xlink:href="#me45c92ec90" y="139.970511"/>
      </g>
     </g>
     <g id="text_11">
      <!-- 60 -->
      <g transform="translate(31.145 143.76973)scale(0.1 -0.1)">
       <use xlink:href="#DejaVuSans-54"/>
       <use x="63.623047" xlink:href="#DejaVuSans-48"/>
      </g>
     </g>
    </g>
    <g id="ytick_4">
     <g id="line2d_11">
      <g>
       <use style="stroke:#000000;stroke-width:0.8;" x="50.87" xlink:href="#me45c92ec90" y="82.877934"/>
      </g>
     </g>
     <g id="text_12">
      <!-- 80 -->
      <g transform="translate(31.145 86.677153)scale(0.1 -0.1)">
       <use xlink:href="#DejaVuSans-56"/>
       <use x="63.623047" xlink:href="#DejaVuSans-48"/>
      </g>
     </g>
    </g>
    <g id="ytick_5">
     <g id="line2d_12">
      <g>
       <use style="stroke:#000000;stroke-width:0.8;" x="50.87" xlink:href="#me45c92ec90" y="25.785357"/>
      </g>
     </g>
     <g id="text_13">
      <!-- 100 -->
      <g transform="translate(24.7825 29.584576)scale(0.1 -0.1)">
       <use xlink:href="#DejaVuSans-49"/>
       <use x="63.623047" xlink:href="#DejaVuSans-48"/>
       <use x="127.246094" xlink:href="#DejaVuSans-48"/>
      </g>
     </g>
    </g>
    <g id="text_14">
     <!-- Test Accuracy (%) -->
     <g transform="translate(18.702813 201.723906)rotate(-90)scale(0.1 -0.1)">
      <defs>
       <path d="M 18.3125 70.21875 
L 18.3125 54.6875 
L 36.8125 54.6875 
L 36.8125 47.703125 
L 18.3125 47.703125 
L 18.3125 18.015625 
Q 18.3125 11.328125 20.140625 9.421875 
Q 21.96875 7.515625 27.59375 7.515625 
L 36.8125 7.515625 
L 36.8125 0 
L 27.59375 0 
Q 17.1875 0 13.234375 3.875 
Q 9.28125 7.765625 9.28125 18.015625 
L 9.28125 47.703125 
L 2.6875 47.703125 
L 2.6875 54.6875 
L 9.28125 54.6875 
L 9.28125 70.21875 
z
" id="DejaVuSans-116"/>
       <path d="M 34.1875 63.1875 
L 20.796875 26.90625 
L 47.609375 26.90625 
z
M 28.609375 72.90625 
L 39.796875 72.90625 
L 67.578125 0 
L 57.328125 0 
L 50.6875 18.703125 
L 17.828125 18.703125 
L 11.1875 0 
L 0.78125 0 
z
" id="DejaVuSans-65"/>
       <path d="M 8.5 21.578125 
L 8.5 54.6875 
L 17.484375 54.6875 
L 17.484375 21.921875 
Q 17.484375 14.15625 20.5 10.265625 
Q 23.53125 6.390625 29.59375 6.390625 
Q 36.859375 6.390625 41.078125 11.03125 
Q 45.3125 15.671875 45.3125 23.6875 
L 45.3125 54.6875 
L 54.296875 54.6875 
L 54.296875 0 
L 45.3125 0 
L 45.3125 8.40625 
Q 42.046875 3.421875 37.71875 1 
Q 33.40625 -1.421875 27.6875 -1.421875 
Q 18.265625 -1.421875 13.375 4.4375 
Q 8.5 10.296875 8.5 21.578125 
z
M 31.109375 56 
z
" id="DejaVuSans-117"/>
       <path d="M 41.109375 46.296875 
Q 39.59375 47.171875 37.8125 47.578125 
Q 36.03125 48 33.890625 48 
Q 26.265625 48 22.1875 43.046875 
Q 18.109375 38.09375 18.109375 28.8125 
L 18.109375 0 
L 9.078125 0 
L 9.078125 54.6875 
L 18.109375 54.6875 
L 18.109375 46.1875 
Q 20.953125 51.171875 25.484375 53.578125 
Q 30.03125 56 36.53125 56 
Q 37.453125 56 38.578125 55.875 
Q 39.703125 55.765625 41.0625 55.515625 
z
" id="DejaVuSans-114"/>
       <path d="M 34.28125 27.484375 
Q 23.390625 27.484375 19.1875 25 
Q 14.984375 22.515625 14.984375 16.5 
Q 14.984375 11.71875 18.140625 8.90625 
Q 21.296875 6.109375 26.703125 6.109375 
Q 34.1875 6.109375 38.703125 11.40625 
Q 43.21875 16.703125 43.21875 25.484375 
L 43.21875 27.484375 
z
M 52.203125 31.203125 
L 52.203125 0 
L 43.21875 0 
L 43.21875 8.296875 
Q 40.140625 3.328125 35.546875 0.953125 
Q 30.953125 -1.421875 24.3125 -1.421875 
Q 15.921875 -1.421875 10.953125 3.296875 
Q 6 8.015625 6 15.921875 
Q 6 25.140625 12.171875 29.828125 
Q 18.359375 34.515625 30.609375 34.515625 
L 43.21875 34.515625 
L 43.21875 35.40625 
Q 43.21875 41.609375 39.140625 45 
Q 35.0625 48.390625 27.6875 48.390625 
Q 23 48.390625 18.546875 47.265625 
Q 14.109375 46.140625 10.015625 43.890625 
L 10.015625 52.203125 
Q 14.9375 54.109375 19.578125 55.046875 
Q 24.21875 56 28.609375 56 
Q 40.484375 56 46.34375 49.84375 
Q 52.203125 43.703125 52.203125 31.203125 
z
" id="DejaVuSans-97"/>
       <path d="M 32.171875 -5.078125 
Q 28.375 -14.84375 24.75 -17.8125 
Q 21.140625 -20.796875 15.09375 -20.796875 
L 7.90625 -20.796875 
L 7.90625 -13.28125 
L 13.1875 -13.28125 
Q 16.890625 -13.28125 18.9375 -11.515625 
Q 21 -9.765625 23.484375 -3.21875 
L 25.09375 0.875 
L 2.984375 54.6875 
L 12.5 54.6875 
L 29.59375 11.921875 
L 46.6875 54.6875 
L 56.203125 54.6875 
z
" id="DejaVuSans-121"/>
       <path d="M 72.703125 32.078125 
Q 68.453125 32.078125 66.03125 28.46875 
Q 63.625 24.859375 63.625 18.40625 
Q 63.625 12.0625 66.03125 8.421875 
Q 68.453125 4.78125 72.703125 4.78125 
Q 76.859375 4.78125 79.265625 8.421875 
Q 81.6875 12.0625 81.6875 18.40625 
Q 81.6875 24.8125 79.265625 28.4375 
Q 76.859375 32.078125 72.703125 32.078125 
z
M 72.703125 38.28125 
Q 80.421875 38.28125 84.953125 32.90625 
Q 89.5 27.546875 89.5 18.40625 
Q 89.5 9.28125 84.9375 3.921875 
Q 80.375 -1.421875 72.703125 -1.421875 
Q 64.890625 -1.421875 60.34375 3.921875 
Q 55.8125 9.28125 55.8125 18.40625 
Q 55.8125 27.59375 60.375 32.9375 
Q 64.9375 38.28125 72.703125 38.28125 
z
M 22.3125 68.015625 
Q 18.109375 68.015625 15.6875 64.375 
Q 13.28125 60.75 13.28125 54.390625 
Q 13.28125 47.953125 15.671875 44.328125 
Q 18.0625 40.71875 22.3125 40.71875 
Q 26.5625 40.71875 28.96875 44.328125 
Q 31.390625 47.953125 31.390625 54.390625 
Q 31.390625 60.6875 28.953125 64.34375 
Q 26.515625 68.015625 22.3125 68.015625 
z
M 66.40625 74.21875 
L 74.21875 74.21875 
L 28.609375 -1.421875 
L 20.796875 -1.421875 
z
M 22.3125 74.21875 
Q 30.03125 74.21875 34.609375 68.875 
Q 39.203125 63.53125 39.203125 54.390625 
Q 39.203125 45.171875 34.640625 39.84375 
Q 30.078125 34.515625 22.3125 34.515625 
Q 14.546875 34.515625 10.03125 39.859375 
Q 5.515625 45.21875 5.515625 54.390625 
Q 5.515625 63.484375 10.046875 68.84375 
Q 14.59375 74.21875 22.3125 74.21875 
z
" id="DejaVuSans-37"/>
      </defs>
      <use xlink:href="#DejaVuSans-84"/>
      <use x="44.083984" xlink:href="#DejaVuSans-101"/>
      <use x="105.607422" xlink:href="#DejaVuSans-115"/>
      <use x="157.707031" xlink:href="#DejaVuSans-116"/>
      <use x="196.916016" xlink:href="#DejaVuSans-32"/>
      <use x="228.703125" xlink:href="#DejaVuSans-65"/>
      <use x="295.361328" xlink:href="#DejaVuSans-99"/>
      <use x="350.341797" xlink:href="#DejaVuSans-99"/>
      <use x="405.322266" xlink:href="#DejaVuSans-117"/>
      <use x="468.701172" xlink:href="#DejaVuSans-114"/>
      <use x="509.814453" xlink:href="#DejaVuSans-97"/>
      <use x="571.09375" xlink:href="#DejaVuSans-99"/>
      <use x="626.074219" xlink:href="#DejaVuSans-121"/>
      <use x="685.253906" xlink:href="#DejaVuSans-32"/>
      <use x="717.041016" xlink:href="#DejaVuSans-40"/>
      <use x="756.054688" xlink:href="#DejaVuSans-37"/>
      <use x="851.074219" xlink:href="#DejaVuSans-41"/>
     </g>
    </g>
   </g>
   <g id="line2d_13">
    <path clip-path="url(#p1d7894c4d2)" d="M 69.307957 276.903489 
L 71.745503 262.184309 
L 74.187565 246.573057 
L 76.630654 228.285591 
L 79.074945 185.912194 
L 81.506808 192.156695 
L 83.942444 176.545443 
L 86.380214 182.789944 
L 88.817586 163.164371 
L 91.264831 150.675369 
L 93.704554 142.20069 
L 96.138801 143.092762 
L 98.580267 131.049796 
L 101.01247 131.941868 
L 103.445921 127.48151 
L 105.890356 98.489186 
L 108.32283 109.64008 
L 110.760432 97.597114 
L 113.19645 119.452866 
L 115.630137 93.582792 
L 118.068539 100.719365 
L 120.501079 115.88458 
L 122.940591 74.849291 
L 125.373601 86.892256 
L 127.802101 83.770006 
L 130.232338 81.539827 
L 132.656561 98.04315 
L 135.089608 67.266683 
L 137.510795 86.44622 
L 139.947474 98.935222 
L 142.377969 72.173076 
L 144.805104 76.187398 
L 147.236796 73.511183 
L 149.659581 67.266683 
L 152.084513 69.942897 
L 154.510425 70.834969 
L 159.364979 73.511183 
L 161.797758 59.238039 
L 164.224135 88.676399 
L 166.657536 72.173076 
L 169.087469 69.942897 
L 171.521003 89.122435 
L 173.957542 56.115789 
L 176.392659 80.20172 
L 178.824181 67.266683 
L 181.260434 61.468218 
L 183.695906 84.216042 
L 186.134546 68.158754 
L 188.568391 61.022182 
L 191.007825 66.820647 
L 193.44355 71.72704 
L 195.871074 52.101467 
L 198.292001 58.792003 
L 200.717451 80.647756 
L 203.152485 69.050826 
L 205.60692 68.158754 
L 208.061624 66.820647 
L 210.502793 68.158754 
L 212.948474 57.453896 
L 215.400212 56.115789 
L 217.8437 59.684075 
L 220.293213 60.576146 
L 222.738384 64.144432 
L 225.189075 57.899932 
L 227.637595 43.626788 
L 230.079252 49.425253 
L 232.520659 52.101467 
L 234.958776 70.834969 
L 237.384634 57.00786 
L 239.813611 50.317324 
L 242.248648 60.576146 
L 244.685899 46.749038 
L 247.113775 52.547503 
L 249.551445 51.655431 
L 251.98093 60.130111 
L 254.409361 52.993539 
L 256.841999 44.072823 
L 259.268615 50.317324 
L 261.698021 53.88561 
L 264.130101 49.425253 
L 266.560156 54.331646 
L 268.988476 58.345968 
L 271.42284 48.979217 
L 273.851282 52.101467 
L 276.278392 60.130111 
L 278.704177 44.964895 
L 281.132411 45.410931 
L 283.565266 64.590468 
L 285.997796 52.101467 
L 288.424276 49.871288 
L 290.855054 50.317324 
L 293.284192 47.641109 
L 295.719641 46.303002 
L 298.151259 43.626788 
L 300.583061 39.16643 
L 303.011541 45.410931 
L 305.440564 60.576146 
L 307.877464 51.655431 
L 310.301751 40.950573 
L 312.730061 43.626788 
L 315.165253 55.669753 
L 317.59974 48.533181 
L 320.032047 50.317324 
L 322.46364 46.749038 
L 324.897004 37.382287 
L 327.329737 37.828323 
L 329.760976 48.087145 
L 332.192718 43.626788 
L 334.622698 47.195074 
L 337.052648 47.195074 
L 339.480779 47.641109 
L 341.911293 43.180752 
L 344.341189 43.180752 
L 346.766963 36.490216 
L 349.199916 36.490216 
L 351.633337 34.260037 
L 354.068494 36.04418 
L 356.498799 42.734716 
L 358.927149 44.072823 
L 361.354602 38.274359 
L 363.790016 38.274359 
L 366.218832 34.706073 
L 368.646748 34.706073 
L 371.078562 41.842645 
L 373.509668 36.490216 
L 375.943346 32.029858 
L 378.375663 35.598144 
L 380.807201 33.814001 
L 385.680599 36.490216 
L 388.103103 35.598144 
L 390.531579 35.598144 
L 392.962345 33.814001 
L 395.395991 34.260037 
L 397.830442 30.691751 
L 400.259633 33.367965 
L 402.690648 33.814001 
L 405.124155 36.490216 
L 407.559497 36.936251 
L 414.84461 32.921929 
L 417.272268 34.706073 
L 419.705291 32.921929 
L 422.137975 32.475894 
L 424.568551 32.921929 
L 426.996148 33.814001 
L 431.857727 33.814001 
L 431.857727 33.814001 
" style="fill:none;stroke:#1f77b4;stroke-linecap:square;stroke-width:1.5;"/>
   </g>
   <g id="line2d_14">
    <path clip-path="url(#p1d7894c4d2)" d="M 69.012273 262.780185 
L 70.961816 245.158288 
L 72.865313 193.773574 
L 74.742724 230.174274 
L 76.630255 169.785214 
L 78.49823 169.11616 
L 80.378298 188.37933 
L 82.266099 117.975373 
L 84.140884 129.209899 
L 86.026823 84.522691 
L 87.902211 120.540079 
L 89.778762 106.462075 
L 91.665377 85.721412 
L 93.543929 78.58484 
L 95.421768 62.945711 
L 97.290383 68.939317 
L 99.163955 66.681261 
L 101.048406 69.552616 
L 102.925679 65.48254 
L 104.797055 69.218089 
L 106.693843 53.997119 
L 108.570276 63.67052 
L 110.45242 64.646223 
L 112.33476 65.844944 
L 114.203185 73.120902 
L 116.081232 72.674866 
L 117.954962 74.626273 
L 119.827085 67.656964 
L 121.713279 59.990725 
L 123.599897 79.170262 
L 125.479991 55.50249 
L 127.35534 57.035738 
L 129.226843 62.165149 
L 131.096797 64.813486 
L 132.975261 55.809139 
L 134.868282 69.10658 
L 136.749005 51.070009 
L 138.629169 49.285866 
L 140.516401 47.33446 
L 142.389172 50.317324 
L 144.267272 71.643409 
L 146.140278 68.827808 
L 148.030085 52.965661 
L 149.902259 58.792003 
L 151.781696 57.175124 
L 153.657095 54.052873 
L 155.525284 63.308115 
L 157.394731 84.216042 
L 159.258572 54.582541 
L 161.119189 52.826275 
L 162.990641 52.07359 
L 164.858603 56.840597 
L 166.744104 62.499676 
L 168.621908 58.067195 
L 170.49382 52.88203 
L 172.373015 69.468984 
L 174.242027 48.811953 
L 176.117147 58.764126 
L 178.002711 54.610418 
L 179.882281 51.348782 
L 181.760879 54.052873 
L 183.641328 52.88203 
L 185.512934 49.927043 
L 187.383806 56.645456 
L 189.261309 50.623974 
L 191.134506 45.884844 
L 192.999114 49.927043 
L 194.86713 47.696864 
L 196.749834 55.363104 
L 200.501687 53.88561 
L 202.3835 42.874102 
L 204.250805 40.671801 
L 206.121249 51.26515 
L 207.988492 48.839831 
L 209.867059 43.626788 
L 211.748025 44.351596 
L 213.618186 73.065148 
L 215.503034 51.794817 
L 217.366109 53.049293 
L 219.234729 47.864127 
L 221.127807 49.564639 
L 223.010952 48.728322 
L 224.885795 49.45313 
L 226.756285 43.264384 
L 228.638867 48.895585 
L 230.515149 47.947759 
L 232.390817 48.003514 
L 234.260267 47.613232 
L 236.131615 50.484587 
L 238.009009 50.038552 
L 239.882061 49.815534 
L 241.753631 39.835484 
L 243.626776 40.225765 
L 245.507214 43.59891 
L 247.376222 39.16643 
L 249.247976 41.173591 
L 251.114865 42.762593 
L 252.994443 39.751852 
L 254.868994 43.877683 
L 256.748111 44.351596 
L 258.616746 40.532415 
L 260.496176 49.14648 
L 262.373912 39.333694 
L 264.249095 41.535995 
L 266.112226 41.340854 
L 267.994299 39.97487 
L 269.861425 42.037785 
L 271.746732 42.344435 
L 273.615765 40.671801 
L 275.493185 43.041366 
L 277.360004 41.368732 
L 279.238307 40.643924 
L 281.118388 37.688937 
L 282.978837 33.953387 
L 284.845654 33.953387 
L 286.714716 38.553131 
L 288.584551 37.605305 
L 290.45052 39.194307 
L 292.33299 34.706073 
L 294.204121 34.064896 
L 296.078834 36.016303 
L 297.950495 36.183566 
L 299.824313 39.361571 
L 301.704484 40.253642 
L 303.585503 35.904794 
L 305.460196 36.183566 
L 307.323848 35.876916 
L 309.193099 36.518093 
L 311.065356 36.964129 
L 312.941977 36.155689 
L 314.826513 34.064896 
L 316.704457 33.897633 
L 318.590699 34.761827 
L 320.465754 34.761827 
L 322.347406 34.455177 
L 324.211004 35.598144 
L 326.092841 34.73395 
L 327.974709 33.590983 
L 329.854018 34.4273 
L 333.620725 34.510932 
L 335.494079 33.200702 
L 337.384252 35.179986 
L 339.254032 33.200702 
L 341.140309 33.200702 
L 343.021677 32.448016 
L 344.895092 35.179986 
L 346.763144 36.23932 
L 348.643479 32.921929 
L 348.643479 32.921929 
" style="fill:none;stroke:#ff7f0e;stroke-linecap:square;stroke-width:1.5;"/>
   </g>
   <g id="line2d_15">
    <path clip-path="url(#p1d7894c4d2)" d="M 69.056713 252.378491 
L 71.041155 237.26903 
L 72.967755 180.880353 
L 74.885033 208.785465 
L 76.799968 146.84225 
L 78.70005 168.238027 
L 80.617542 133.405422 
L 82.536179 91.213228 
L 84.453539 83.01732 
L 86.364152 68.158754 
L 88.274408 70.388933 
L 90.192932 68.186632 
L 92.100879 84.383305 
L 94.012949 61.496095 
L 95.930447 56.255175 
L 97.842077 68.688422 
L 99.753438 65.17589 
L 101.657445 54.024996 
L 103.563537 63.698397 
L 105.483939 59.293794 
L 107.390276 50.317324 
L 109.289317 50.317324 
L 115.019119 57.00786 
L 116.927303 59.990725 
L 118.839172 57.00786 
L 120.735099 54.777682 
L 124.536686 47.362337 
L 126.439278 53.272311 
L 128.350819 44.379473 
L 130.257771 48.839831 
L 132.15991 54.777682 
L 134.062508 54.805559 
L 135.982354 48.059268 
L 137.88456 47.33446 
L 139.786054 53.300188 
L 141.699589 50.400956 
L 143.608819 52.854152 
L 145.507543 50.345201 
L 147.412679 56.00428 
L 149.316212 43.654665 
L 151.222715 68.019368 
L 153.128961 48.087145 
L 155.040706 59.098653 
L 156.954878 42.90198 
L 158.873479 55.140086 
L 160.770822 53.300188 
L 162.680721 53.913487 
L 164.593901 48.087145 
L 166.513394 49.090726 
L 168.428803 46.609652 
L 170.336831 53.411697 
L 172.240004 46.609652 
L 174.139804 54.024996 
L 176.041863 54.080751 
L 177.96172 42.149294 
L 179.86938 50.26157 
L 181.78404 36.183566 
L 183.688877 50.317324 
L 185.605102 48.170777 
L 187.507755 46.609652 
L 189.410767 44.351596 
L 191.324718 44.937018 
L 193.22927 47.362337 
L 195.13273 42.90198 
L 197.036626 40.643924 
L 198.941183 44.351596 
L 200.8541 48.839831 
L 202.763794 44.044946 
L 204.678314 46.079984 
L 206.591702 36.211443 
L 208.494367 38.413745 
L 210.399067 43.654665 
L 212.296499 45.856966 
L 214.209844 44.741877 
L 216.128082 42.874102 
L 218.032586 49.564639 
L 219.939416 42.874102 
L 221.846736 39.891238 
L 223.754118 39.16643 
L 225.666238 32.503771 
L 227.570509 39.138553 
L 229.477843 40.671801 
L 231.380563 38.413745 
L 235.187195 41.368732 
L 237.09563 35.458758 
L 239.002247 38.413745 
L 240.906518 37.688937 
L 242.807523 41.368732 
L 244.715979 39.919115 
L 246.625304 34.678195 
L 248.52569 36.936251 
L 252.336539 38.441622 
L 254.254597 35.458758 
L 256.16368 36.183566 
L 258.062361 37.688937 
L 259.970079 38.413745 
L 261.877959 37.688937 
L 263.782333 32.475894 
L 265.692961 39.194307 
L 267.603608 31.723208 
L 269.505366 40.671801 
L 271.40908 33.200702 
L 273.326981 38.023463 
L 275.242065 35.626021 
L 277.152645 36.211443 
L 279.053505 36.211443 
L 280.953394 34.706073 
L 282.863066 32.503771 
L 284.761174 36.183566 
L 286.661362 36.183566 
L 288.569721 34.73395 
L 290.477816 35.458758 
L 292.382474 33.200702 
L 294.288988 34.706073 
L 296.184526 32.475894 
L 298.091578 36.657479 
L 299.990038 30.9984 
L 301.89395 36.211443 
L 303.80081 31.723208 
L 305.699355 31.723208 
L 307.601741 34.678195 
L 311.423483 33.200702 
L 313.325399 33.953387 
L 315.237302 30.273592 
L 317.145324 34.678195 
L 319.054673 30.9984 
L 320.94922 30.9984 
L 322.845572 30.245715 
L 324.755471 30.970523 
L 326.669497 30.970523 
L 328.58342 31.723208 
L 330.492622 30.245715 
L 332.398747 30.245715 
L 334.301436 30.9984 
L 338.109013 29.520907 
L 340.01143 31.695331 
L 341.913695 31.695331 
L 343.820328 30.970523 
L 345.730202 30.970523 
L 347.642397 29.520907 
L 349.543276 31.695331 
L 351.445678 32.475894 
L 353.356166 31.751086 
L 353.356166 31.751086 
" style="fill:none;stroke:#2ca02c;stroke-linecap:square;stroke-width:1.5;"/>
   </g>
   <g id="patch_3">
    <path d="M 50.87 303.64 
L 50.87 10.8 
" style="fill:none;stroke:#000000;stroke-linecap:square;stroke-linejoin:miter;stroke-width:0.8;"/>
   </g>
   <g id="patch_4">
    <path d="M 450 303.64 
L 450 10.8 
" style="fill:none;stroke:#000000;stroke-linecap:square;stroke-linejoin:miter;stroke-width:0.8;"/>
   </g>
   <g id="patch_5">
    <path d="M 50.87 303.64 
L 450 303.64 
" style="fill:none;stroke:#000000;stroke-linecap:square;stroke-linejoin:miter;stroke-width:0.8;"/>
   </g>
   <g id="patch_6">
    <path d="M 50.87 10.8 
L 450 10.8 
" style="fill:none;stroke:#000000;stroke-linecap:square;stroke-linejoin:miter;stroke-width:0.8;"/>
   </g>
   <g id="legend_1">
    <g id="patch_7">
     <path d="M 361.492188 298.64 
L 443 298.64 
Q 445 298.64 445 296.64 
L 445 253.605625 
Q 445 251.605625 443 251.605625 
L 361.492188 251.605625 
Q 359.492188 251.605625 359.492188 253.605625 
L 359.492188 296.64 
Q 359.492188 298.64 361.492188 298.64 
z
" style="fill:#ffffff;opacity:0.8;stroke:#cccccc;stroke-linejoin:miter;"/>
    </g>
    <g id="line2d_16">
     <path d="M 363.492188 259.704062 
L 383.492188 259.704062 
" style="fill:none;stroke:#1f77b4;stroke-linecap:square;stroke-width:1.5;"/>
    </g>
    <g id="line2d_17"/>
    <g id="text_15">
     <!-- Sync-SGD -->
     <g transform="translate(391.492188 263.204062)scale(0.1 -0.1)">
      <defs>
       <path d="M 53.515625 70.515625 
L 53.515625 60.890625 
Q 47.90625 63.578125 42.921875 64.890625 
Q 37.9375 66.21875 33.296875 66.21875 
Q 25.25 66.21875 20.875 63.09375 
Q 16.5 59.96875 16.5 54.203125 
Q 16.5 49.359375 19.40625 46.890625 
Q 22.3125 44.4375 30.421875 42.921875 
L 36.375 41.703125 
Q 47.40625 39.59375 52.65625 34.296875 
Q 57.90625 29 57.90625 20.125 
Q 57.90625 9.515625 50.796875 4.046875 
Q 43.703125 -1.421875 29.984375 -1.421875 
Q 24.8125 -1.421875 18.96875 -0.25 
Q 13.140625 0.921875 6.890625 3.21875 
L 6.890625 13.375 
Q 12.890625 10.015625 18.65625 8.296875 
Q 24.421875 6.59375 29.984375 6.59375 
Q 38.421875 6.59375 43.015625 9.90625 
Q 47.609375 13.234375 47.609375 19.390625 
Q 47.609375 24.75 44.3125 27.78125 
Q 41.015625 30.8125 33.5 32.328125 
L 27.484375 33.5 
Q 16.453125 35.6875 11.515625 40.375 
Q 6.59375 45.0625 6.59375 53.421875 
Q 6.59375 63.09375 13.40625 68.65625 
Q 20.21875 74.21875 32.171875 74.21875 
Q 37.3125 74.21875 42.625 73.28125 
Q 47.953125 72.359375 53.515625 70.515625 
z
" id="DejaVuSans-83"/>
       <path d="M 54.890625 33.015625 
L 54.890625 0 
L 45.90625 0 
L 45.90625 32.71875 
Q 45.90625 40.484375 42.875 44.328125 
Q 39.84375 48.1875 33.796875 48.1875 
Q 26.515625 48.1875 22.3125 43.546875 
Q 18.109375 38.921875 18.109375 30.90625 
L 18.109375 0 
L 9.078125 0 
L 9.078125 54.6875 
L 18.109375 54.6875 
L 18.109375 46.1875 
Q 21.34375 51.125 25.703125 53.5625 
Q 30.078125 56 35.796875 56 
Q 45.21875 56 50.046875 50.171875 
Q 54.890625 44.34375 54.890625 33.015625 
z
" id="DejaVuSans-110"/>
       <path d="M 4.890625 31.390625 
L 31.203125 31.390625 
L 31.203125 23.390625 
L 4.890625 23.390625 
z
" id="DejaVuSans-45"/>
       <path d="M 59.515625 10.40625 
L 59.515625 29.984375 
L 43.40625 29.984375 
L 43.40625 38.09375 
L 69.28125 38.09375 
L 69.28125 6.78125 
Q 63.578125 2.734375 56.6875 0.65625 
Q 49.8125 -1.421875 42 -1.421875 
Q 24.90625 -1.421875 15.25 8.5625 
Q 5.609375 18.5625 5.609375 36.375 
Q 5.609375 54.25 15.25 64.234375 
Q 24.90625 74.21875 42 74.21875 
Q 49.125 74.21875 55.546875 72.453125 
Q 61.96875 70.703125 67.390625 67.28125 
L 67.390625 56.78125 
Q 61.921875 61.421875 55.765625 63.765625 
Q 49.609375 66.109375 42.828125 66.109375 
Q 29.4375 66.109375 22.71875 58.640625 
Q 16.015625 51.171875 16.015625 36.375 
Q 16.015625 21.625 22.71875 14.15625 
Q 29.4375 6.6875 42.828125 6.6875 
Q 48.046875 6.6875 52.140625 7.59375 
Q 56.25 8.5 59.515625 10.40625 
z
" id="DejaVuSans-71"/>
       <path d="M 19.671875 64.796875 
L 19.671875 8.109375 
L 31.59375 8.109375 
Q 46.6875 8.109375 53.6875 14.9375 
Q 60.6875 21.78125 60.6875 36.53125 
Q 60.6875 51.171875 53.6875 57.984375 
Q 46.6875 64.796875 31.59375 64.796875 
z
M 9.8125 72.90625 
L 30.078125 72.90625 
Q 51.265625 72.90625 61.171875 64.09375 
Q 71.09375 55.28125 71.09375 36.53125 
Q 71.09375 17.671875 61.125 8.828125 
Q 51.171875 0 30.078125 0 
L 9.8125 0 
z
" id="DejaVuSans-68"/>
      </defs>
      <use xlink:href="#DejaVuSans-83"/>
      <use x="63.476562" xlink:href="#DejaVuSans-121"/>
      <use x="122.65625" xlink:href="#DejaVuSans-110"/>
      <use x="186.035156" xlink:href="#DejaVuSans-99"/>
      <use x="241.015625" xlink:href="#DejaVuSans-45"/>
      <use x="277.099609" xlink:href="#DejaVuSans-83"/>
      <use x="340.576172" xlink:href="#DejaVuSans-71"/>
      <use x="418.066406" xlink:href="#DejaVuSans-68"/>
     </g>
    </g>
    <g id="line2d_18">
     <path d="M 363.492188 274.382187 
L 383.492188 274.382187 
" style="fill:none;stroke:#ff7f0e;stroke-linecap:square;stroke-width:1.5;"/>
    </g>
    <g id="line2d_19"/>
    <g id="text_16">
     <!-- DP-SGD -->
     <g transform="translate(391.492188 277.882187)scale(0.1 -0.1)">
      <defs>
       <path d="M 19.671875 64.796875 
L 19.671875 37.40625 
L 32.078125 37.40625 
Q 38.96875 37.40625 42.71875 40.96875 
Q 46.484375 44.53125 46.484375 51.125 
Q 46.484375 57.671875 42.71875 61.234375 
Q 38.96875 64.796875 32.078125 64.796875 
z
M 9.8125 72.90625 
L 32.078125 72.90625 
Q 44.34375 72.90625 50.609375 67.359375 
Q 56.890625 61.8125 56.890625 51.125 
Q 56.890625 40.328125 50.609375 34.8125 
Q 44.34375 29.296875 32.078125 29.296875 
L 19.671875 29.296875 
L 19.671875 0 
L 9.8125 0 
z
" id="DejaVuSans-80"/>
      </defs>
      <use xlink:href="#DejaVuSans-68"/>
      <use x="77.001953" xlink:href="#DejaVuSans-80"/>
      <use x="135.054688" xlink:href="#DejaVuSans-45"/>
      <use x="171.138672" xlink:href="#DejaVuSans-83"/>
      <use x="234.615234" xlink:href="#DejaVuSans-71"/>
      <use x="312.105469" xlink:href="#DejaVuSans-68"/>
     </g>
    </g>
    <g id="line2d_20">
     <path d="M 363.492188 289.060312 
L 383.492188 289.060312 
" style="fill:none;stroke:#2ca02c;stroke-linecap:square;stroke-width:1.5;"/>
    </g>
    <g id="line2d_21"/>
    <g id="text_17">
     <!-- EDP-SGD -->
     <g transform="translate(391.492188 292.560312)scale(0.1 -0.1)">
      <defs>
       <path d="M 9.8125 72.90625 
L 55.90625 72.90625 
L 55.90625 64.59375 
L 19.671875 64.59375 
L 19.671875 43.015625 
L 54.390625 43.015625 
L 54.390625 34.71875 
L 19.671875 34.71875 
L 19.671875 8.296875 
L 56.78125 8.296875 
L 56.78125 0 
L 9.8125 0 
z
" id="DejaVuSans-69"/>
      </defs>
      <use xlink:href="#DejaVuSans-69"/>
      <use x="63.183594" xlink:href="#DejaVuSans-68"/>
      <use x="140.185547" xlink:href="#DejaVuSans-80"/>
      <use x="198.238281" xlink:href="#DejaVuSans-45"/>
      <use x="234.322266" xlink:href="#DejaVuSans-83"/>
      <use x="297.798828" xlink:href="#DejaVuSans-71"/>
      <use x="375.289062" xlink:href="#DejaVuSans-68"/>
     </g>
    </g>
   </g>
  </g>
 </g>
 <defs>
  <clipPath id="p1d7894c4d2">
   <rect height="292.84" width="399.13" x="50.87" y="10.8"/>
  </clipPath>
 </defs>
</svg>
