<?xml version="1.0" encoding="utf-8" standalone="no"?>
<!DOCTYPE svg PUBLIC "-//W3C//DTD SVG 1.1//EN"
  "http://www.w3.org/Graphics/SVG/1.1/DTD/svg11.dtd">
<!-- Created with matplotlib (https://matplotlib.org/) -->
<svg height="345.6pt" version="1.1" viewBox="0 0 460.8 345.6" width="460.8pt" xmlns="http://www.w3.org/2000/svg" xmlns:xlink="http://www.w3.org/1999/xlink">
 <metadata>
  <rdf:RDF xmlns:cc="http://creativecommons.org/ns#" xmlns:dc="http://purl.org/dc/elements/1.1/" xmlns:rdf="http://www.w3.org/1999/02/22-rdf-syntax-ns#">
   <cc:Work>
    <dc:type rdf:resource="http://purl.org/dc/dcmitype/StillImage"/>
    <dc:date>2021-06-24T12:03:25.106938</dc:date>
    <dc:format>image/svg+xml</dc:format>
    <dc:creator>
     <cc:Agent>
      <dc:title>Matplotlib v3.3.1, https://matplotlib.org/</dc:title>
     </cc:Agent>
    </dc:creator>
   </cc:Work>
  </rdf:RDF>
 </metadata>
 <defs>
  <style type="text/css">*{stroke-linecap:butt;stroke-linejoin:round;}</style>
 </defs>
 <g id="figure_1">
  <g id="patch_1">
   <path d="M 0 345.6 
L 460.8 345.6 
L 460.8 0 
L 0 0 
z
" style="fill:#ffffff;"/>
  </g>
  <g id="axes_1">
   <g id="patch_2">
    <path d="M 50.87 303.64 
L 450 303.64 
L 450 10.8 
L 50.87 10.8 
z
" style="fill:#ffffff;"/>
   </g>
   <g id="PolyCollection_1">
    <path clip-path="url(#p4e27bc56d8)" d="M 69.012273 242.334254 
L 69.012273 246.96502 
L 71.342766 257.488235 
L 73.631612 285.324591 
L 75.944751 268.612349 
L 78.276441 242.540034 
L 80.59497 248.181088 
L 82.932934 250.583382 
L 85.257348 199.038237 
L 87.59808 194.749696 
L 89.951009 164.062336 
L 92.328863 147.85396 
L 94.673301 128.543664 
L 96.970889 167.541897 
L 99.295662 124.576506 
L 101.60563 140.118021 
L 103.933279 106.833221 
L 106.250321 121.59936 
L 108.569661 109.249702 
L 110.898341 106.909975 
L 113.258796 94.16669 
L 115.583649 113.663299 
L 117.920324 117.960203 
L 120.248417 85.845731 
L 122.572363 99.846084 
L 124.874228 102.867547 
L 127.188642 116.381791 
L 129.501147 118.185599 
L 131.821408 87.37575 
L 134.119652 72.173053 
L 136.44295 94.21022 
L 138.753884 85.906096 
L 141.059195 84.275082 
L 143.365434 74.074211 
L 145.680978 70.848288 
L 147.997431 64.945023 
L 150.31271 65.602211 
L 152.617052 86.664182 
L 154.94729 77.723883 
L 157.26538 67.266574 
L 159.578767 74.945306 
L 161.862792 73.067429 
L 164.224208 71.901599 
L 166.507843 84.804745 
L 168.8038 80.600253 
L 171.094563 89.954031 
L 173.42828 72.430171 
L 175.739518 95.493362 
L 178.03138 78.178231 
L 180.342748 68.58813 
L 182.696792 94.730794 
L 184.996569 63.770683 
L 187.312766 95.860617 
L 189.608453 56.658864 
L 191.907979 81.379237 
L 194.220559 92.176878 
L 196.525512 77.211728 
L 198.840035 85.274561 
L 201.16841 67.3483 
L 203.484332 66.047994 
L 205.798445 71.322533 
L 208.117603 66.588755 
L 210.45464 51.18142 
L 212.748345 72.776528 
L 215.048315 61.28963 
L 217.362155 69.827299 
L 219.678814 51.322503 
L 221.997847 50.735089 
L 224.297706 61.046179 
L 226.623699 61.978745 
L 228.929178 57.567032 
L 231.248966 69.642994 
L 233.554296 85.583499 
L 235.859893 59.254241 
L 238.167108 64.276753 
L 240.492268 67.061429 
L 242.812474 62.040803 
L 245.151581 63.051814 
L 247.479057 46.335945 
L 249.760077 57.764829 
L 252.07084 65.557056 
L 254.368292 51.271397 
L 256.688714 59.882747 
L 259.004332 69.956382 
L 261.297462 65.989035 
L 263.630598 55.275929 
L 265.926501 65.484257 
L 268.266156 54.447166 
L 270.585161 70.428419 
L 272.88125 74.443559 
L 275.198114 56.723405 
L 277.526724 54.342572 
L 279.815093 55.296612 
L 282.125485 64.945023 
L 284.431515 47.1231 
L 286.744458 56.258685 
L 289.054873 56.475376 
L 291.366678 54.481372 
L 293.697724 67.566746 
L 296.018286 56.475376 
L 298.330196 55.296612 
L 300.628153 49.301776 
L 302.948798 61.448195 
L 305.226073 54.814092 
L 307.532347 51.504606 
L 309.849648 60.035249 
L 312.16485 54.481372 
L 314.477055 49.39352 
L 316.788316 53.867291 
L 319.104927 55.897731 
L 321.410018 54.644847 
L 323.720095 51.9645 
L 326.024209 55.386538 
L 328.339455 41.439473 
L 330.657576 51.942406 
L 332.956976 56.658864 
L 335.27597 44.760936 
L 337.609999 42.128176 
L 339.942715 58.550619 
L 342.265579 47.577184 
L 344.562054 46.16906 
L 346.870858 42.444644 
L 349.161644 43.011039 
L 351.462867 43.89864 
L 353.773834 39.857756 
L 356.09054 48.80182 
L 358.392655 44.85268 
L 360.691913 41.439473 
L 363.018297 42.128176 
L 365.332528 38.58543 
L 367.619302 38.449632 
L 369.91742 39.551047 
L 372.211733 38.495504 
L 374.505621 40.740619 
L 376.807328 40.740619 
L 379.093224 37.08738 
L 381.394938 39.551047 
L 383.706168 38.495504 
L 386.005247 39.857756 
L 388.299038 41.281549 
L 390.612004 39.169053 
L 392.933723 38.495504 
L 395.252987 39.169053 
L 397.57542 38.495504 
L 399.877546 38.495504 
L 402.218283 38.495504 
L 404.538624 38.495504 
L 406.853429 38.495504 
L 409.175452 38.495504 
L 411.50407 38.495504 
L 413.829684 38.495504 
L 413.829684 31.23016 
L 413.829684 31.23016 
L 411.50407 31.23016 
L 409.175452 31.23016 
L 406.853429 31.23016 
L 404.538624 31.23016 
L 402.218283 31.23016 
L 399.877546 31.23016 
L 397.57542 31.23016 
L 395.252987 32.372946 
L 392.933723 31.23016 
L 390.612004 32.372946 
L 388.299038 31.168618 
L 386.005247 32.592412 
L 383.706168 31.23016 
L 381.394938 33.807288 
L 379.093224 32.638284 
L 376.807328 32.617717 
L 374.505621 32.617717 
L 372.211733 31.23016 
L 369.91742 33.807288 
L 367.619302 34.000536 
L 365.332528 29.323898 
L 363.018297 34.862832 
L 360.691913 34.643366 
L 358.392655 33.954664 
L 356.09054 35.454531 
L 353.773834 32.592412 
L 351.462867 39.449544 
L 349.161644 34.888137 
L 346.870858 29.097355 
L 344.562054 41.719964 
L 342.265579 40.31184 
L 339.942715 36.603748 
L 337.609999 38.495504 
L 335.27597 35.862743 
L 332.956976 42.128176 
L 330.657576 36.854786 
L 328.339455 34.643366 
L 326.024209 46.125005 
L 323.720095 41.373532 
L 321.410018 42.325857 
L 319.104927 34.715796 
L 316.788316 38.562572 
L 314.477055 34.862832 
L 312.16485 38.856659 
L 309.849648 44.200799 
L 307.532347 40.017089 
L 305.226073 40.340276 
L 302.948798 44.604188 
L 300.628153 40.403583 
L 298.330196 42.58226 
L 296.018286 38.678991 
L 293.697724 46.659149 
L 291.366678 38.856659 
L 289.054873 38.678991 
L 286.744458 37.079347 
L 284.431515 41.674092 
L 282.125485 50.18904 
L 279.815093 42.58226 
L 277.526724 49.893475 
L 275.198114 43.87997 
L 272.88125 52.496688 
L 270.585161 49.246484 
L 268.266156 29.809186 
L 265.926501 49.649807 
L 263.630598 45.327447 
L 261.297462 49.145028 
L 259.004332 44.269513 
L 256.688714 41.628796 
L 254.368292 41.158466 
L 252.07084 47.760671 
L 249.760077 41.930379 
L 247.479057 34.287735 
L 245.151581 45.725073 
L 242.812474 46.736084 
L 240.492268 47.164466 
L 238.167108 48.132806 
L 235.859893 38.62463 
L 233.554296 49.53026 
L 231.248966 41.858397 
L 228.929178 46.669016 
L 226.623699 41.349134 
L 224.297706 50.455212 
L 221.997847 40.786607 
L 219.678814 36.56652 
L 217.362155 55.296612 
L 215.048315 52.028097 
L 212.748345 50.531047 
L 210.45464 36.707604 
L 208.117603 49.453476 
L 205.798445 40.178858 
L 203.484332 56.351413 
L 201.16841 47.785763 
L 198.840035 60.737213 
L 196.525512 42.463175 
L 194.220559 69.273753 
L 191.907979 49.193682 
L 189.608453 49.39352 
L 187.312766 68.314518 
L 184.996569 53.179716 
L 182.696792 65.811668 
L 180.342748 48.362269 
L 178.03138 60.5682 
L 175.739518 60.50826 
L 173.42828 45.428396 
L 171.094563 68.772096 
L 168.8038 52.69717 
L 166.507843 56.666189 
L 164.224208 46.865136 
L 161.862792 62.954498 
L 159.578767 54.719445 
L 157.26538 46.959321 
L 154.94729 51.940868 
L 152.617052 69.337441 
L 150.31271 56.797196 
L 147.997431 50.18904 
L 145.680978 52.459287 
L 143.365434 61.039548 
L 141.059195 64.461196 
L 138.753884 54.656671 
L 136.44295 80.862931 
L 134.119652 55.675362 
L 131.821408 63.176865 
L 129.501147 86.857094 
L 127.188642 83.211895 
L 124.874228 68.572931 
L 122.572363 78.859738 
L 120.248417 61.074211 
L 117.920324 101.613179 
L 115.583649 92.287563 
L 113.258796 77.273789 
L 110.898341 79.969359 
L 108.569661 89.435816 
L 106.250321 89.80051 
L 103.933279 80.046113 
L 101.60563 106.7004 
L 99.295662 100.445883 
L 96.970889 117.41958 
L 94.673301 109.193078 
L 92.328863 93.515453 
L 89.951009 135.429829 
L 87.59808 152.875371 
L 85.257348 184.005382 
L 82.932934 216.91986 
L 80.59497 215.689482 
L 78.276441 223.146872 
L 75.944751 248.840132 
L 73.631612 274.811786 
L 71.342766 249.066231 
L 69.012273 242.334254 
z
" style="fill:#1f77b4;fill-opacity:0.25;"/>
   </g>
   <g id="PolyCollection_2">
    <path clip-path="url(#p4e27bc56d8)" d="M 69.021837 274.271275 
L 69.021837 281.381023 
L 71.327469 282.585467 
L 73.707945 282.231182 
L 76.135182 275.344866 
L 78.480846 281.350343 
L 80.880826 260.976472 
L 83.281205 238.04467 
L 85.676212 220.507762 
L 88.097491 165.857914 
L 90.480696 171.945783 
L 92.841451 151.93449 
L 95.251903 126.857464 
L 97.613253 139.552588 
L 99.995053 138.219151 
L 102.329175 143.685065 
L 104.69628 171.453536 
L 107.097571 91.37633 
L 109.542275 93.993536 
L 111.888449 143.631887 
L 114.271971 119.967173 
L 116.661953 102.24902 
L 119.019662 123.66348 
L 121.429418 100.704445 
L 123.86743 84.064171 
L 126.293437 91.012875 
L 128.619864 100.270145 
L 131.066553 82.609314 
L 133.431684 102.979864 
L 135.830343 77.826241 
L 138.202537 85.394571 
L 140.588278 96.607944 
L 142.910766 114.837516 
L 145.305442 95.076674 
L 147.67252 102.831909 
L 150.103704 92.03955 
L 152.4684 76.529858 
L 154.877081 78.336187 
L 157.255756 98.453938 
L 159.610827 74.880671 
L 162.01002 77.310262 
L 164.337177 67.339412 
L 166.72063 69.106199 
L 169.149695 86.331906 
L 171.507871 95.542814 
L 173.874703 66.647726 
L 176.226176 106.992874 
L 178.605285 71.884116 
L 180.947434 89.653918 
L 183.338008 76.407896 
L 185.718902 92.935677 
L 188.020308 112.127978 
L 190.363489 73.583197 
L 192.711509 85.332828 
L 195.087775 78.596676 
L 197.480754 103.093252 
L 199.878126 87.232775 
L 202.237216 88.88764 
L 204.62835 85.170611 
L 207.056819 63.349325 
L 209.423598 64.780904 
L 211.868998 65.513947 
L 214.25883 77.211072 
L 216.610158 73.95529 
L 218.966387 68.686978 
L 221.297175 93.583108 
L 223.679221 71.837005 
L 226.139545 74.804076 
L 228.52611 63.25456 
L 230.929804 75.216448 
L 233.330939 68.123069 
L 235.665161 73.783026 
L 238.018949 62.606009 
L 240.370093 95.918957 
L 242.722438 78.625306 
L 245.112108 82.085736 
L 247.485867 76.10727 
L 249.905305 61.83061 
L 252.296516 79.237429 
L 254.643369 104.399378 
L 257.003845 88.288221 
L 259.384123 93.538012 
L 261.722966 95.814642 
L 264.058829 74.367981 
L 266.425127 71.656125 
L 268.759912 55.848856 
L 271.181052 67.850277 
L 273.582441 63.589288 
L 275.954378 72.009731 
L 278.340624 58.157197 
L 280.726291 64.124067 
L 283.134504 53.152996 
L 285.541296 54.057385 
L 287.9335 75.072554 
L 290.294931 70.857158 
L 292.714696 53.779715 
L 295.111777 59.441519 
L 297.498862 58.139882 
L 299.84456 58.265902 
L 302.191674 67.218499 
L 304.581453 56.685754 
L 306.975866 67.109948 
L 309.365418 76.94655 
L 311.721691 68.858867 
L 314.09728 50.770346 
L 316.512733 57.917214 
L 318.885239 53.04056 
L 321.242532 69.510268 
L 323.59011 51.290777 
L 325.955777 56.588791 
L 328.337906 55.883235 
L 330.754033 54.67385 
L 333.115838 49.102219 
L 335.454675 53.484294 
L 337.836804 64.032549 
L 340.235017 50.632001 
L 342.631554 63.838544 
L 345.064099 62.944297 
L 347.462136 46.953123 
L 349.845772 51.432371 
L 352.182396 70.789367 
L 354.573739 55.343797 
L 356.951591 48.173704 
L 359.351616 51.494215 
L 361.720737 52.525497 
L 364.047412 52.270481 
L 366.423101 49.312418 
L 368.844948 43.196293 
L 371.204236 42.029213 
L 373.602268 43.036715 
L 375.972939 47.517091 
L 378.320538 49.867107 
L 380.631971 42.549046 
L 382.987178 46.993684 
L 385.40697 52.499183 
L 387.780954 46.685441 
L 390.157007 40.4723 
L 392.560652 42.234675 
L 394.922865 50.086958 
L 397.318012 48.938292 
L 399.703926 50.40638 
L 402.13814 46.421161 
L 404.508221 53.469261 
L 406.94038 44.576071 
L 409.279489 41.534755 
L 411.637317 47.743659 
L 413.996243 40.024109 
L 416.447626 44.945974 
L 418.807884 45.225995 
L 421.186992 44.091878 
L 423.586434 46.416678 
L 423.586434 28.133628 
L 423.586434 28.133628 
L 421.186992 30.969273 
L 418.807884 28.643185 
L 416.447626 28.639403 
L 413.996243 24.64987 
L 411.637317 25.103832 
L 409.279489 27.396262 
L 406.94038 32.81226 
L 404.508221 27.154418 
L 402.13814 30.342804 
L 399.703926 34.8149 
L 397.318012 36.964114 
L 394.922865 37.972347 
L 392.560652 31.918308 
L 390.157007 29.820969 
L 387.780954 35.24373 
L 385.40697 33.630265 
L 382.987178 31.756899 
L 380.631971 26.722533 
L 378.320538 28.372632 
L 375.972939 34.468841 
L 373.602268 32.194717 
L 371.204236 33.826585 
L 368.844948 34.475841 
L 366.423101 32.957316 
L 364.047412 32.269673 
L 361.720737 43.707319 
L 359.351616 32.705376 
L 356.951591 30.122795 
L 354.573739 28.855794 
L 352.182396 42.074276 
L 349.845772 33.107783 
L 347.462136 33.727317 
L 345.064099 34.196687 
L 342.631554 42.2706 
L 340.235017 39.640964 
L 337.836804 32.938155 
L 335.454675 33.837125 
L 333.115838 39.978775 
L 330.754033 35.08827 
L 328.337906 34.900574 
L 325.955777 42.141488 
L 323.59011 30.297831 
L 321.242532 46.759005 
L 318.885239 36.097194 
L 316.512733 39.904897 
L 314.09728 42.908248 
L 311.721691 32.085071 
L 309.365418 24.110909 
L 306.975866 33.209624 
L 304.581453 36.141433 
L 302.191674 50.980631 
L 299.84456 46.083666 
L 297.498862 49.842359 
L 295.111777 47.859595 
L 292.714696 45.007325 
L 290.294931 37.919729 
L 287.9335 34.896304 
L 285.541296 44.048528 
L 283.134504 44.044749 
L 280.726291 41.928316 
L 278.340624 43.354346 
L 275.954378 38.640253 
L 273.582441 57.73167 
L 271.181052 42.572665 
L 268.759912 41.916494 
L 266.425127 36.496397 
L 264.058829 54.048039 
L 261.722966 44.350801 
L 259.384123 49.238415 
L 257.003845 46.712017 
L 254.643369 43.996338 
L 252.296516 42.878175 
L 249.905305 34.856291 
L 247.485867 43.113549 
L 245.112108 46.897889 
L 242.722438 47.577054 
L 240.370093 49.752255 
L 238.018949 55.139037 
L 235.665161 42.656529 
L 233.330939 48.202964 
L 230.929804 59.102663 
L 228.52611 56.647385 
L 226.139545 45.041109 
L 223.679221 41.253681 
L 221.297175 45.447126 
L 218.966387 34.811182 
L 216.610158 46.060176 
L 214.25883 50.126499 
L 211.868998 52.855465 
L 209.423598 51.374848 
L 207.056819 45.427562 
L 204.62835 49.489064 
L 202.237216 47.645131 
L 199.878126 37.834376 
L 197.480754 64.317231 
L 195.087775 45.164983 
L 192.711509 54.037969 
L 190.363489 50.916348 
L 188.020308 51.876875 
L 185.718902 45.924275 
L 183.338008 57.059808 
L 180.947434 59.252642 
L 178.605285 50.174728 
L 176.226176 56.955218 
L 173.874703 58.476185 
L 171.507871 63.410355 
L 169.149695 57.295928 
L 166.72063 59.25306 
L 164.337177 54.038306 
L 162.01002 57.746737 
L 159.610827 53.875912 
L 157.255756 69.126826 
L 154.877081 58.310105 
L 152.4684 64.827556 
L 150.103704 55.447997 
L 147.67252 70.538427 
L 145.305442 56.894953 
L 142.910766 67.955062 
L 140.588278 58.031427 
L 138.202537 65.101283 
L 135.830343 66.936802 
L 133.431684 54.100208 
L 131.066553 73.732872 
L 128.619864 70.82977 
L 126.293437 73.105499 
L 123.86743 69.837313 
L 121.429418 65.116744 
L 119.019662 52.374598 
L 116.661953 57.669077 
L 114.271971 68.501455 
L 111.888449 67.626081 
L 109.542275 76.709056 
L 107.097571 69.847259 
L 104.69628 75.563547 
L 102.329175 90.873088 
L 99.995053 105.477443 
L 97.613253 86.718532 
L 95.251903 100.094783 
L 92.841451 119.74503 
L 90.480696 122.437936 
L 88.097491 125.347218 
L 85.676212 156.803047 
L 83.281205 179.495142 
L 80.880826 214.224912 
L 78.480846 236.527842 
L 76.135182 234.189526 
L 73.707945 253.668461 
L 71.327469 271.3853 
L 69.021837 274.271275 
z
" style="fill:#ff7f0e;fill-opacity:0.25;"/>
   </g>
   <g id="PolyCollection_3">
    <path clip-path="url(#p4e27bc56d8)" d="M 69.043844 280.222838 
L 69.043844 290.329091 
L 71.442293 272.840977 
L 73.938635 255.273096 
L 76.369076 232.970554 
L 78.809892 204.219701 
L 81.242086 188.483411 
L 83.656795 146.219572 
L 86.085704 137.539631 
L 88.531478 161.264157 
L 90.977502 114.778229 
L 93.390663 118.547684 
L 95.843814 105.15928 
L 98.258476 96.2525 
L 100.642775 106.772388 
L 103.134498 116.464364 
L 105.567276 109.809893 
L 108.035397 91.251389 
L 110.481289 101.02541 
L 112.918966 91.186508 
L 115.346546 82.016389 
L 117.741573 95.771466 
L 120.182059 100.024985 
L 122.597309 88.810693 
L 124.995027 81.065124 
L 127.450268 108.594924 
L 129.838351 73.864077 
L 132.301038 94.410168 
L 134.728805 87.493659 
L 137.180432 82.308093 
L 139.590237 94.633964 
L 141.998106 76.257843 
L 144.433028 77.152012 
L 146.825043 86.966834 
L 149.279602 80.41295 
L 151.718469 89.675904 
L 154.163901 99.688423 
L 156.598187 86.967405 
L 159.011352 91.76408 
L 161.463989 72.246986 
L 163.903909 85.965416 
L 166.336068 85.845032 
L 168.758735 81.06265 
L 171.236721 70.483409 
L 173.654721 81.509536 
L 176.11637 84.392845 
L 178.538553 91.673683 
L 180.91561 70.280629 
L 183.315113 62.511948 
L 185.714109 88.915264 
L 188.159612 59.208189 
L 190.635989 77.868913 
L 193.025269 78.657928 
L 195.456285 71.155676 
L 197.891911 67.839581 
L 200.313644 80.039256 
L 202.718339 81.722874 
L 205.101905 76.432283 
L 207.566126 72.644795 
L 210.025429 69.108405 
L 212.422034 79.832154 
L 214.858822 82.988022 
L 217.287893 63.311142 
L 219.75471 89.937445 
L 222.234433 95.525001 
L 224.651674 74.721783 
L 227.09195 64.469106 
L 229.541792 68.661387 
L 231.943429 65.77324 
L 234.325778 64.216965 
L 236.75261 76.234597 
L 239.211966 69.073246 
L 241.703992 70.947724 
L 244.152 74.271922 
L 246.592346 75.979361 
L 249.054051 80.694958 
L 251.513229 70.309355 
L 254.015731 74.677791 
L 256.452034 73.998527 
L 258.903086 82.404852 
L 261.341839 72.913887 
L 263.783757 75.469145 
L 266.200757 61.868609 
L 268.655814 67.770325 
L 271.095113 60.656824 
L 273.50219 69.814748 
L 275.971175 61.892702 
L 278.413411 64.478049 
L 280.861681 63.281251 
L 283.284072 80.376862 
L 285.660353 67.81541 
L 288.105482 67.700167 
L 290.527734 71.804939 
L 292.943281 59.553176 
L 295.411892 76.233572 
L 297.855663 71.538492 
L 300.305905 68.036943 
L 302.726486 53.819114 
L 305.148465 52.51743 
L 307.553312 57.984006 
L 309.983596 60.680465 
L 312.400012 51.358848 
L 314.806824 54.583269 
L 317.19987 63.460422 
L 319.636301 50.074961 
L 322.089937 59.939049 
L 324.563562 54.962694 
L 326.991565 57.457183 
L 329.460756 49.952324 
L 331.894908 60.810558 
L 334.310629 46.960499 
L 336.710797 45.849437 
L 339.172212 63.580544 
L 341.695457 64.410354 
L 344.149366 64.123217 
L 346.56837 62.077324 
L 349.04093 60.180432 
L 351.440001 56.788464 
L 353.839431 63.644115 
L 356.278423 51.883131 
L 358.670826 56.679609 
L 361.133152 52.8278 
L 363.570954 57.508621 
L 366.011121 45.192675 
L 368.382806 52.114805 
L 370.812778 42.935406 
L 373.250968 45.661099 
L 375.699547 45.047915 
L 378.155238 59.554 
L 380.644744 56.678343 
L 383.103533 44.914445 
L 385.560605 51.084995 
L 387.973386 47.012824 
L 390.426027 46.589485 
L 392.872919 44.774689 
L 395.335732 45.922639 
L 397.798818 46.364482 
L 400.247416 47.4228 
L 402.677636 42.351316 
L 405.12509 41.970531 
L 407.568731 44.263662 
L 410.001982 45.894689 
L 412.42984 43.382361 
L 414.870843 39.770723 
L 417.331668 43.840979 
L 419.777881 41.142474 
L 422.204924 48.502988 
L 424.627933 40.272483 
L 427.099286 48.96349 
L 429.513307 41.2226 
L 431.857727 39.923371 
L 431.857727 34.456654 
L 431.857727 34.456654 
L 429.513307 35.938689 
L 427.099286 37.052437 
L 424.627933 36.321202 
L 422.204924 35.469561 
L 419.777881 35.735012 
L 417.331668 35.363688 
L 414.870843 32.963248 
L 412.42984 33.778928 
L 410.001982 35.410117 
L 407.568731 34.430161 
L 405.12509 33.544703 
L 402.677636 32.653074 
L 400.247416 39.047211 
L 397.798818 38.459474 
L 395.335732 35.495687 
L 392.872919 38.346453 
L 390.426027 33.807152 
L 387.973386 38.321977 
L 385.560605 35.89586 
L 383.103533 37.185007 
L 380.644744 41.484331 
L 378.155238 36.622056 
L 375.699547 36.824496 
L 373.250968 37.460042 
L 370.812778 34.793488 
L 368.382806 36.852668 
L 366.011121 38.098748 
L 363.570954 42.867712 
L 361.133152 40.907555 
L 358.670826 45.399539 
L 356.278423 37.424905 
L 353.839431 45.189532 
L 351.440001 40.693084 
L 349.04093 44.850263 
L 346.56837 42.385766 
L 344.149366 45.618598 
L 341.695457 51.064272 
L 339.172212 40.201419 
L 336.710797 41.642263 
L 334.310629 42.234016 
L 331.894908 45.241825 
L 329.460756 45.202043 
L 326.991565 46.26802 
L 324.563562 43.19998 
L 322.089937 40.834608 
L 319.636301 47.520108 
L 317.19987 43.046045 
L 314.806824 41.990111 
L 312.400012 39.31144 
L 309.983596 37.084886 
L 307.553312 42.67613 
L 305.148465 44.396512 
L 302.726486 41.675816 
L 300.305905 45.224024 
L 297.855663 56.820767 
L 295.411892 52.068927 
L 292.943281 49.337232 
L 290.527734 50.82151 
L 288.105482 55.493887 
L 285.660353 47.602455 
L 283.284072 45.371415 
L 280.861681 49.695913 
L 278.413411 46.058414 
L 275.971175 50.687139 
L 273.50219 49.29255 
L 271.095113 51.185131 
L 268.655814 49.123313 
L 266.200757 51.335597 
L 263.783757 56.806589 
L 261.341839 42.390457 
L 258.903086 56.51186 
L 256.452034 52.317354 
L 254.015731 53.681469 
L 251.513229 54.530753 
L 249.054051 52.999789 
L 246.592346 57.261301 
L 244.152 57.77677 
L 241.703992 51.678725 
L 239.211966 46.968985 
L 236.75261 60.468455 
L 234.325778 53.41456 
L 231.943429 57.931658 
L 229.541792 49.935067 
L 227.09195 52.538054 
L 224.651674 54.205081 
L 222.234433 63.71197 
L 219.75471 61.182775 
L 217.287893 51.539119 
L 214.858822 49.685035 
L 212.422034 48.527105 
L 210.025429 55.391141 
L 207.566126 54.06841 
L 205.101905 60.043727 
L 202.718339 57.080318 
L 200.313644 61.431679 
L 197.891911 53.93546 
L 195.456285 53.570911 
L 193.025269 57.647801 
L 190.635989 59.742308 
L 188.159612 52.633765 
L 185.714109 63.907771 
L 183.315113 50.578737 
L 180.91561 59.611164 
L 178.538553 64.157658 
L 176.11637 58.894426 
L 173.654721 55.023235 
L 171.236721 53.959376 
L 168.758735 65.346448 
L 166.336068 55.966465 
L 163.903909 63.962833 
L 161.463989 59.007059 
L 159.011352 65.202471 
L 156.598187 56.603668 
L 154.163901 60.683758 
L 151.718469 61.501076 
L 149.279602 58.333481 
L 146.825043 69.999717 
L 144.433028 61.70794 
L 141.998106 58.345071 
L 139.590237 66.930188 
L 137.180432 68.471564 
L 134.728805 63.626561 
L 132.301038 67.664828 
L 129.838351 63.406581 
L 127.450268 68.975689 
L 124.995027 58.646235 
L 122.597309 65.942199 
L 120.182059 56.090159 
L 117.741573 66.814375 
L 115.346546 66.946931 
L 112.918966 74.464399 
L 110.481289 75.920837 
L 108.035397 65.204318 
L 105.567276 72.642123 
L 103.134498 67.633705 
L 100.642775 69.435972 
L 98.258476 76.039386 
L 95.843814 77.008933 
L 93.390663 94.214438 
L 90.977502 91.229393 
L 88.531478 104.228469 
L 86.085704 107.178652 
L 83.656795 126.197834 
L 81.242086 137.91323 
L 78.809892 175.929133 
L 76.369076 210.86356 
L 73.938635 228.378508 
L 71.442293 246.47041 
L 69.043844 280.222838 
z
" style="fill:#2ca02c;fill-opacity:0.25;"/>
   </g>
   <g id="matplotlib.axis_1">
    <g id="xtick_1">
     <g id="line2d_1">
      <defs>
       <path d="M 0 0 
L 0 3.5 
" id="m5b74316cd4" style="stroke:#000000;stroke-width:0.8;"/>
      </defs>
      <g>
       <use style="stroke:#000000;stroke-width:0.8;" x="66.281633" xlink:href="#m5b74316cd4" y="303.64"/>
      </g>
     </g>
     <g id="text_1">
      <!-- 0 -->
      <g transform="translate(63.100383 318.238437)scale(0.1 -0.1)">
       <defs>
        <path d="M 31.78125 66.40625 
Q 24.171875 66.40625 20.328125 58.90625 
Q 16.5 51.421875 16.5 36.375 
Q 16.5 21.390625 20.328125 13.890625 
Q 24.171875 6.390625 31.78125 6.390625 
Q 39.453125 6.390625 43.28125 13.890625 
Q 47.125 21.390625 47.125 36.375 
Q 47.125 51.421875 43.28125 58.90625 
Q 39.453125 66.40625 31.78125 66.40625 
z
M 31.78125 74.21875 
Q 44.046875 74.21875 50.515625 64.515625 
Q 56.984375 54.828125 56.984375 36.375 
Q 56.984375 17.96875 50.515625 8.265625 
Q 44.046875 -1.421875 31.78125 -1.421875 
Q 19.53125 -1.421875 13.0625 8.265625 
Q 6.59375 17.96875 6.59375 36.375 
Q 6.59375 54.828125 13.0625 64.515625 
Q 19.53125 74.21875 31.78125 74.21875 
z
" id="DejaVuSans-48"/>
       </defs>
       <use xlink:href="#DejaVuSans-48"/>
      </g>
     </g>
    </g>
    <g id="xtick_2">
     <g id="line2d_2">
      <g>
       <use style="stroke:#000000;stroke-width:0.8;" x="148.653165" xlink:href="#m5b74316cd4" y="303.64"/>
      </g>
     </g>
     <g id="text_2">
      <!-- 500 -->
      <g transform="translate(139.109415 318.238437)scale(0.1 -0.1)">
       <defs>
        <path d="M 10.796875 72.90625 
L 49.515625 72.90625 
L 49.515625 64.59375 
L 19.828125 64.59375 
L 19.828125 46.734375 
Q 21.96875 47.46875 24.109375 47.828125 
Q 26.265625 48.1875 28.421875 48.1875 
Q 40.625 48.1875 47.75 41.5 
Q 54.890625 34.8125 54.890625 23.390625 
Q 54.890625 11.625 47.5625 5.09375 
Q 40.234375 -1.421875 26.90625 -1.421875 
Q 22.3125 -1.421875 17.546875 -0.640625 
Q 12.796875 0.140625 7.71875 1.703125 
L 7.71875 11.625 
Q 12.109375 9.234375 16.796875 8.0625 
Q 21.484375 6.890625 26.703125 6.890625 
Q 35.15625 6.890625 40.078125 11.328125 
Q 45.015625 15.765625 45.015625 23.390625 
Q 45.015625 31 40.078125 35.4375 
Q 35.15625 39.890625 26.703125 39.890625 
Q 22.75 39.890625 18.8125 39.015625 
Q 14.890625 38.140625 10.796875 36.28125 
z
" id="DejaVuSans-53"/>
       </defs>
       <use xlink:href="#DejaVuSans-53"/>
       <use x="63.623047" xlink:href="#DejaVuSans-48"/>
       <use x="127.246094" xlink:href="#DejaVuSans-48"/>
      </g>
     </g>
    </g>
    <g id="xtick_3">
     <g id="line2d_3">
      <g>
       <use style="stroke:#000000;stroke-width:0.8;" x="231.024698" xlink:href="#m5b74316cd4" y="303.64"/>
      </g>
     </g>
     <g id="text_3">
      <!-- 1000 -->
      <g transform="translate(218.299698 318.238437)scale(0.1 -0.1)">
       <defs>
        <path d="M 12.40625 8.296875 
L 28.515625 8.296875 
L 28.515625 63.921875 
L 10.984375 60.40625 
L 10.984375 69.390625 
L 28.421875 72.90625 
L 38.28125 72.90625 
L 38.28125 8.296875 
L 54.390625 8.296875 
L 54.390625 0 
L 12.40625 0 
z
" id="DejaVuSans-49"/>
       </defs>
       <use xlink:href="#DejaVuSans-49"/>
       <use x="63.623047" xlink:href="#DejaVuSans-48"/>
       <use x="127.246094" xlink:href="#DejaVuSans-48"/>
       <use x="190.869141" xlink:href="#DejaVuSans-48"/>
      </g>
     </g>
    </g>
    <g id="xtick_4">
     <g id="line2d_4">
      <g>
       <use style="stroke:#000000;stroke-width:0.8;" x="313.39623" xlink:href="#m5b74316cd4" y="303.64"/>
      </g>
     </g>
     <g id="text_4">
      <!-- 1500 -->
      <g transform="translate(300.67123 318.238437)scale(0.1 -0.1)">
       <use xlink:href="#DejaVuSans-49"/>
       <use x="63.623047" xlink:href="#DejaVuSans-53"/>
       <use x="127.246094" xlink:href="#DejaVuSans-48"/>
       <use x="190.869141" xlink:href="#DejaVuSans-48"/>
      </g>
     </g>
    </g>
    <g id="xtick_5">
     <g id="line2d_5">
      <g>
       <use style="stroke:#000000;stroke-width:0.8;" x="395.767762" xlink:href="#m5b74316cd4" y="303.64"/>
      </g>
     </g>
     <g id="text_5">
      <!-- 2000 -->
      <g transform="translate(383.042762 318.238437)scale(0.1 -0.1)">
       <defs>
        <path d="M 19.1875 8.296875 
L 53.609375 8.296875 
L 53.609375 0 
L 7.328125 0 
L 7.328125 8.296875 
Q 12.9375 14.109375 22.625 23.890625 
Q 32.328125 33.6875 34.8125 36.53125 
Q 39.546875 41.84375 41.421875 45.53125 
Q 43.3125 49.21875 43.3125 52.78125 
Q 43.3125 58.59375 39.234375 62.25 
Q 35.15625 65.921875 28.609375 65.921875 
Q 23.96875 65.921875 18.8125 64.3125 
Q 13.671875 62.703125 7.8125 59.421875 
L 7.8125 69.390625 
Q 13.765625 71.78125 18.9375 73 
Q 24.125 74.21875 28.421875 74.21875 
Q 39.75 74.21875 46.484375 68.546875 
Q 53.21875 62.890625 53.21875 53.421875 
Q 53.21875 48.921875 51.53125 44.890625 
Q 49.859375 40.875 45.40625 35.40625 
Q 44.1875 33.984375 37.640625 27.21875 
Q 31.109375 20.453125 19.1875 8.296875 
z
" id="DejaVuSans-50"/>
       </defs>
       <use xlink:href="#DejaVuSans-50"/>
       <use x="63.623047" xlink:href="#DejaVuSans-48"/>
       <use x="127.246094" xlink:href="#DejaVuSans-48"/>
       <use x="190.869141" xlink:href="#DejaVuSans-48"/>
      </g>
     </g>
    </g>
    <g id="text_6">
     <!-- Time (sec) -->
     <g transform="translate(224.280313 331.916562)scale(0.1 -0.1)">
      <defs>
       <path d="M -0.296875 72.90625 
L 61.375 72.90625 
L 61.375 64.59375 
L 35.5 64.59375 
L 35.5 0 
L 25.59375 0 
L 25.59375 64.59375 
L -0.296875 64.59375 
z
" id="DejaVuSans-84"/>
       <path d="M 9.421875 54.6875 
L 18.40625 54.6875 
L 18.40625 0 
L 9.421875 0 
z
M 9.421875 75.984375 
L 18.40625 75.984375 
L 18.40625 64.59375 
L 9.421875 64.59375 
z
" id="DejaVuSans-105"/>
       <path d="M 52 44.1875 
Q 55.375 50.25 60.0625 53.125 
Q 64.75 56 71.09375 56 
Q 79.640625 56 84.28125 50.015625 
Q 88.921875 44.046875 88.921875 33.015625 
L 88.921875 0 
L 79.890625 0 
L 79.890625 32.71875 
Q 79.890625 40.578125 77.09375 44.375 
Q 74.3125 48.1875 68.609375 48.1875 
Q 61.625 48.1875 57.5625 43.546875 
Q 53.515625 38.921875 53.515625 30.90625 
L 53.515625 0 
L 44.484375 0 
L 44.484375 32.71875 
Q 44.484375 40.625 41.703125 44.40625 
Q 38.921875 48.1875 33.109375 48.1875 
Q 26.21875 48.1875 22.15625 43.53125 
Q 18.109375 38.875 18.109375 30.90625 
L 18.109375 0 
L 9.078125 0 
L 9.078125 54.6875 
L 18.109375 54.6875 
L 18.109375 46.1875 
Q 21.1875 51.21875 25.484375 53.609375 
Q 29.78125 56 35.6875 56 
Q 41.65625 56 45.828125 52.96875 
Q 50 49.953125 52 44.1875 
z
" id="DejaVuSans-109"/>
       <path d="M 56.203125 29.59375 
L 56.203125 25.203125 
L 14.890625 25.203125 
Q 15.484375 15.921875 20.484375 11.0625 
Q 25.484375 6.203125 34.421875 6.203125 
Q 39.59375 6.203125 44.453125 7.46875 
Q 49.3125 8.734375 54.109375 11.28125 
L 54.109375 2.78125 
Q 49.265625 0.734375 44.1875 -0.34375 
Q 39.109375 -1.421875 33.890625 -1.421875 
Q 20.796875 -1.421875 13.15625 6.1875 
Q 5.515625 13.8125 5.515625 26.8125 
Q 5.515625 40.234375 12.765625 48.109375 
Q 20.015625 56 32.328125 56 
Q 43.359375 56 49.78125 48.890625 
Q 56.203125 41.796875 56.203125 29.59375 
z
M 47.21875 32.234375 
Q 47.125 39.59375 43.09375 43.984375 
Q 39.0625 48.390625 32.421875 48.390625 
Q 24.90625 48.390625 20.390625 44.140625 
Q 15.875 39.890625 15.1875 32.171875 
z
" id="DejaVuSans-101"/>
       <path id="DejaVuSans-32"/>
       <path d="M 31 75.875 
Q 24.46875 64.65625 21.28125 53.65625 
Q 18.109375 42.671875 18.109375 31.390625 
Q 18.109375 20.125 21.3125 9.0625 
Q 24.515625 -2 31 -13.1875 
L 23.1875 -13.1875 
Q 15.875 -1.703125 12.234375 9.375 
Q 8.59375 20.453125 8.59375 31.390625 
Q 8.59375 42.28125 12.203125 53.3125 
Q 15.828125 64.359375 23.1875 75.875 
z
" id="DejaVuSans-40"/>
       <path d="M 44.28125 53.078125 
L 44.28125 44.578125 
Q 40.484375 46.53125 36.375 47.5 
Q 32.28125 48.484375 27.875 48.484375 
Q 21.1875 48.484375 17.84375 46.4375 
Q 14.5 44.390625 14.5 40.28125 
Q 14.5 37.15625 16.890625 35.375 
Q 19.28125 33.59375 26.515625 31.984375 
L 29.59375 31.296875 
Q 39.15625 29.25 43.1875 25.515625 
Q 47.21875 21.78125 47.21875 15.09375 
Q 47.21875 7.46875 41.1875 3.015625 
Q 35.15625 -1.421875 24.609375 -1.421875 
Q 20.21875 -1.421875 15.453125 -0.5625 
Q 10.6875 0.296875 5.421875 2 
L 5.421875 11.28125 
Q 10.40625 8.6875 15.234375 7.390625 
Q 20.0625 6.109375 24.8125 6.109375 
Q 31.15625 6.109375 34.5625 8.28125 
Q 37.984375 10.453125 37.984375 14.40625 
Q 37.984375 18.0625 35.515625 20.015625 
Q 33.0625 21.96875 24.703125 23.78125 
L 21.578125 24.515625 
Q 13.234375 26.265625 9.515625 29.90625 
Q 5.8125 33.546875 5.8125 39.890625 
Q 5.8125 47.609375 11.28125 51.796875 
Q 16.75 56 26.8125 56 
Q 31.78125 56 36.171875 55.265625 
Q 40.578125 54.546875 44.28125 53.078125 
z
" id="DejaVuSans-115"/>
       <path d="M 48.78125 52.59375 
L 48.78125 44.1875 
Q 44.96875 46.296875 41.140625 47.34375 
Q 37.3125 48.390625 33.40625 48.390625 
Q 24.65625 48.390625 19.8125 42.84375 
Q 14.984375 37.3125 14.984375 27.296875 
Q 14.984375 17.28125 19.8125 11.734375 
Q 24.65625 6.203125 33.40625 6.203125 
Q 37.3125 6.203125 41.140625 7.25 
Q 44.96875 8.296875 48.78125 10.40625 
L 48.78125 2.09375 
Q 45.015625 0.34375 40.984375 -0.53125 
Q 36.96875 -1.421875 32.421875 -1.421875 
Q 20.0625 -1.421875 12.78125 6.34375 
Q 5.515625 14.109375 5.515625 27.296875 
Q 5.515625 40.671875 12.859375 48.328125 
Q 20.21875 56 33.015625 56 
Q 37.15625 56 41.109375 55.140625 
Q 45.0625 54.296875 48.78125 52.59375 
z
" id="DejaVuSans-99"/>
       <path d="M 8.015625 75.875 
L 15.828125 75.875 
Q 23.140625 64.359375 26.78125 53.3125 
Q 30.421875 42.28125 30.421875 31.390625 
Q 30.421875 20.453125 26.78125 9.375 
Q 23.140625 -1.703125 15.828125 -13.1875 
L 8.015625 -13.1875 
Q 14.5 -2 17.703125 9.0625 
Q 20.90625 20.125 20.90625 31.390625 
Q 20.90625 42.671875 17.703125 53.65625 
Q 14.5 64.65625 8.015625 75.875 
z
" id="DejaVuSans-41"/>
      </defs>
      <use xlink:href="#DejaVuSans-84"/>
      <use x="57.958984" xlink:href="#DejaVuSans-105"/>
      <use x="85.742188" xlink:href="#DejaVuSans-109"/>
      <use x="183.154297" xlink:href="#DejaVuSans-101"/>
      <use x="244.677734" xlink:href="#DejaVuSans-32"/>
      <use x="276.464844" xlink:href="#DejaVuSans-40"/>
      <use x="315.478516" xlink:href="#DejaVuSans-115"/>
      <use x="367.578125" xlink:href="#DejaVuSans-101"/>
      <use x="429.101562" xlink:href="#DejaVuSans-99"/>
      <use x="484.082031" xlink:href="#DejaVuSans-41"/>
     </g>
    </g>
   </g>
   <g id="matplotlib.axis_2">
    <g id="ytick_1">
     <g id="line2d_6">
      <defs>
       <path d="M 0 0 
L -3.5 0 
" id="mc012706acd" style="stroke:#000000;stroke-width:0.8;"/>
      </defs>
      <g>
       <use style="stroke:#000000;stroke-width:0.8;" x="50.87" xlink:href="#mc012706acd" y="255.547653"/>
      </g>
     </g>
     <g id="text_7">
      <!-- 20 -->
      <g transform="translate(31.145 259.346872)scale(0.1 -0.1)">
       <use xlink:href="#DejaVuSans-50"/>
       <use x="63.623047" xlink:href="#DejaVuSans-48"/>
      </g>
     </g>
    </g>
    <g id="ytick_2">
     <g id="line2d_7">
      <g>
       <use style="stroke:#000000;stroke-width:0.8;" x="50.87" xlink:href="#mc012706acd" y="197.424902"/>
      </g>
     </g>
     <g id="text_8">
      <!-- 40 -->
      <g transform="translate(31.145 201.22412)scale(0.1 -0.1)">
       <defs>
        <path d="M 37.796875 64.3125 
L 12.890625 25.390625 
L 37.796875 25.390625 
z
M 35.203125 72.90625 
L 47.609375 72.90625 
L 47.609375 25.390625 
L 58.015625 25.390625 
L 58.015625 17.1875 
L 47.609375 17.1875 
L 47.609375 0 
L 37.796875 0 
L 37.796875 17.1875 
L 4.890625 17.1875 
L 4.890625 26.703125 
z
" id="DejaVuSans-52"/>
       </defs>
       <use xlink:href="#DejaVuSans-52"/>
       <use x="63.623047" xlink:href="#DejaVuSans-48"/>
      </g>
     </g>
    </g>
    <g id="ytick_3">
     <g id="line2d_8">
      <g>
       <use style="stroke:#000000;stroke-width:0.8;" x="50.87" xlink:href="#mc012706acd" y="139.30215"/>
      </g>
     </g>
     <g id="text_9">
      <!-- 60 -->
      <g transform="translate(31.145 143.101369)scale(0.1 -0.1)">
       <defs>
        <path d="M 33.015625 40.375 
Q 26.375 40.375 22.484375 35.828125 
Q 18.609375 31.296875 18.609375 23.390625 
Q 18.609375 15.53125 22.484375 10.953125 
Q 26.375 6.390625 33.015625 6.390625 
Q 39.65625 6.390625 43.53125 10.953125 
Q 47.40625 15.53125 47.40625 23.390625 
Q 47.40625 31.296875 43.53125 35.828125 
Q 39.65625 40.375 33.015625 40.375 
z
M 52.59375 71.296875 
L 52.59375 62.3125 
Q 48.875 64.0625 45.09375 64.984375 
Q 41.3125 65.921875 37.59375 65.921875 
Q 27.828125 65.921875 22.671875 59.328125 
Q 17.53125 52.734375 16.796875 39.40625 
Q 19.671875 43.65625 24.015625 45.921875 
Q 28.375 48.1875 33.59375 48.1875 
Q 44.578125 48.1875 50.953125 41.515625 
Q 57.328125 34.859375 57.328125 23.390625 
Q 57.328125 12.15625 50.6875 5.359375 
Q 44.046875 -1.421875 33.015625 -1.421875 
Q 20.359375 -1.421875 13.671875 8.265625 
Q 6.984375 17.96875 6.984375 36.375 
Q 6.984375 53.65625 15.1875 63.9375 
Q 23.390625 74.21875 37.203125 74.21875 
Q 40.921875 74.21875 44.703125 73.484375 
Q 48.484375 72.75 52.59375 71.296875 
z
" id="DejaVuSans-54"/>
       </defs>
       <use xlink:href="#DejaVuSans-54"/>
       <use x="63.623047" xlink:href="#DejaVuSans-48"/>
      </g>
     </g>
    </g>
    <g id="ytick_4">
     <g id="line2d_9">
      <g>
       <use style="stroke:#000000;stroke-width:0.8;" x="50.87" xlink:href="#mc012706acd" y="81.179399"/>
      </g>
     </g>
     <g id="text_10">
      <!-- 80 -->
      <g transform="translate(31.145 84.978618)scale(0.1 -0.1)">
       <defs>
        <path d="M 31.78125 34.625 
Q 24.75 34.625 20.71875 30.859375 
Q 16.703125 27.09375 16.703125 20.515625 
Q 16.703125 13.921875 20.71875 10.15625 
Q 24.75 6.390625 31.78125 6.390625 
Q 38.8125 6.390625 42.859375 10.171875 
Q 46.921875 13.96875 46.921875 20.515625 
Q 46.921875 27.09375 42.890625 30.859375 
Q 38.875 34.625 31.78125 34.625 
z
M 21.921875 38.8125 
Q 15.578125 40.375 12.03125 44.71875 
Q 8.5 49.078125 8.5 55.328125 
Q 8.5 64.0625 14.71875 69.140625 
Q 20.953125 74.21875 31.78125 74.21875 
Q 42.671875 74.21875 48.875 69.140625 
Q 55.078125 64.0625 55.078125 55.328125 
Q 55.078125 49.078125 51.53125 44.71875 
Q 48 40.375 41.703125 38.8125 
Q 48.828125 37.15625 52.796875 32.3125 
Q 56.78125 27.484375 56.78125 20.515625 
Q 56.78125 9.90625 50.3125 4.234375 
Q 43.84375 -1.421875 31.78125 -1.421875 
Q 19.734375 -1.421875 13.25 4.234375 
Q 6.78125 9.90625 6.78125 20.515625 
Q 6.78125 27.484375 10.78125 32.3125 
Q 14.796875 37.15625 21.921875 38.8125 
z
M 18.3125 54.390625 
Q 18.3125 48.734375 21.84375 45.5625 
Q 25.390625 42.390625 31.78125 42.390625 
Q 38.140625 42.390625 41.71875 45.5625 
Q 45.3125 48.734375 45.3125 54.390625 
Q 45.3125 60.0625 41.71875 63.234375 
Q 38.140625 66.40625 31.78125 66.40625 
Q 25.390625 66.40625 21.84375 63.234375 
Q 18.3125 60.0625 18.3125 54.390625 
z
" id="DejaVuSans-56"/>
       </defs>
       <use xlink:href="#DejaVuSans-56"/>
       <use x="63.623047" xlink:href="#DejaVuSans-48"/>
      </g>
     </g>
    </g>
    <g id="ytick_5">
     <g id="line2d_10">
      <g>
       <use style="stroke:#000000;stroke-width:0.8;" x="50.87" xlink:href="#mc012706acd" y="23.056648"/>
      </g>
     </g>
     <g id="text_11">
      <!-- 100 -->
      <g transform="translate(24.7825 26.855867)scale(0.1 -0.1)">
       <use xlink:href="#DejaVuSans-49"/>
       <use x="63.623047" xlink:href="#DejaVuSans-48"/>
       <use x="127.246094" xlink:href="#DejaVuSans-48"/>
      </g>
     </g>
    </g>
    <g id="text_12">
     <!-- Test Accuracy (%) -->
     <g transform="translate(18.702813 201.723906)rotate(-90)scale(0.1 -0.1)">
      <defs>
       <path d="M 18.3125 70.21875 
L 18.3125 54.6875 
L 36.8125 54.6875 
L 36.8125 47.703125 
L 18.3125 47.703125 
L 18.3125 18.015625 
Q 18.3125 11.328125 20.140625 9.421875 
Q 21.96875 7.515625 27.59375 7.515625 
L 36.8125 7.515625 
L 36.8125 0 
L 27.59375 0 
Q 17.1875 0 13.234375 3.875 
Q 9.28125 7.765625 9.28125 18.015625 
L 9.28125 47.703125 
L 2.6875 47.703125 
L 2.6875 54.6875 
L 9.28125 54.6875 
L 9.28125 70.21875 
z
" id="DejaVuSans-116"/>
       <path d="M 34.1875 63.1875 
L 20.796875 26.90625 
L 47.609375 26.90625 
z
M 28.609375 72.90625 
L 39.796875 72.90625 
L 67.578125 0 
L 57.328125 0 
L 50.6875 18.703125 
L 17.828125 18.703125 
L 11.1875 0 
L 0.78125 0 
z
" id="DejaVuSans-65"/>
       <path d="M 8.5 21.578125 
L 8.5 54.6875 
L 17.484375 54.6875 
L 17.484375 21.921875 
Q 17.484375 14.15625 20.5 10.265625 
Q 23.53125 6.390625 29.59375 6.390625 
Q 36.859375 6.390625 41.078125 11.03125 
Q 45.3125 15.671875 45.3125 23.6875 
L 45.3125 54.6875 
L 54.296875 54.6875 
L 54.296875 0 
L 45.3125 0 
L 45.3125 8.40625 
Q 42.046875 3.421875 37.71875 1 
Q 33.40625 -1.421875 27.6875 -1.421875 
Q 18.265625 -1.421875 13.375 4.4375 
Q 8.5 10.296875 8.5 21.578125 
z
M 31.109375 56 
z
" id="DejaVuSans-117"/>
       <path d="M 41.109375 46.296875 
Q 39.59375 47.171875 37.8125 47.578125 
Q 36.03125 48 33.890625 48 
Q 26.265625 48 22.1875 43.046875 
Q 18.109375 38.09375 18.109375 28.8125 
L 18.109375 0 
L 9.078125 0 
L 9.078125 54.6875 
L 18.109375 54.6875 
L 18.109375 46.1875 
Q 20.953125 51.171875 25.484375 53.578125 
Q 30.03125 56 36.53125 56 
Q 37.453125 56 38.578125 55.875 
Q 39.703125 55.765625 41.0625 55.515625 
z
" id="DejaVuSans-114"/>
       <path d="M 34.28125 27.484375 
Q 23.390625 27.484375 19.1875 25 
Q 14.984375 22.515625 14.984375 16.5 
Q 14.984375 11.71875 18.140625 8.90625 
Q 21.296875 6.109375 26.703125 6.109375 
Q 34.1875 6.109375 38.703125 11.40625 
Q 43.21875 16.703125 43.21875 25.484375 
L 43.21875 27.484375 
z
M 52.203125 31.203125 
L 52.203125 0 
L 43.21875 0 
L 43.21875 8.296875 
Q 40.140625 3.328125 35.546875 0.953125 
Q 30.953125 -1.421875 24.3125 -1.421875 
Q 15.921875 -1.421875 10.953125 3.296875 
Q 6 8.015625 6 15.921875 
Q 6 25.140625 12.171875 29.828125 
Q 18.359375 34.515625 30.609375 34.515625 
L 43.21875 34.515625 
L 43.21875 35.40625 
Q 43.21875 41.609375 39.140625 45 
Q 35.0625 48.390625 27.6875 48.390625 
Q 23 48.390625 18.546875 47.265625 
Q 14.109375 46.140625 10.015625 43.890625 
L 10.015625 52.203125 
Q 14.9375 54.109375 19.578125 55.046875 
Q 24.21875 56 28.609375 56 
Q 40.484375 56 46.34375 49.84375 
Q 52.203125 43.703125 52.203125 31.203125 
z
" id="DejaVuSans-97"/>
       <path d="M 32.171875 -5.078125 
Q 28.375 -14.84375 24.75 -17.8125 
Q 21.140625 -20.796875 15.09375 -20.796875 
L 7.90625 -20.796875 
L 7.90625 -13.28125 
L 13.1875 -13.28125 
Q 16.890625 -13.28125 18.9375 -11.515625 
Q 21 -9.765625 23.484375 -3.21875 
L 25.09375 0.875 
L 2.984375 54.6875 
L 12.5 54.6875 
L 29.59375 11.921875 
L 46.6875 54.6875 
L 56.203125 54.6875 
z
" id="DejaVuSans-121"/>
       <path d="M 72.703125 32.078125 
Q 68.453125 32.078125 66.03125 28.46875 
Q 63.625 24.859375 63.625 18.40625 
Q 63.625 12.0625 66.03125 8.421875 
Q 68.453125 4.78125 72.703125 4.78125 
Q 76.859375 4.78125 79.265625 8.421875 
Q 81.6875 12.0625 81.6875 18.40625 
Q 81.6875 24.8125 79.265625 28.4375 
Q 76.859375 32.078125 72.703125 32.078125 
z
M 72.703125 38.28125 
Q 80.421875 38.28125 84.953125 32.90625 
Q 89.5 27.546875 89.5 18.40625 
Q 89.5 9.28125 84.9375 3.921875 
Q 80.375 -1.421875 72.703125 -1.421875 
Q 64.890625 -1.421875 60.34375 3.921875 
Q 55.8125 9.28125 55.8125 18.40625 
Q 55.8125 27.59375 60.375 32.9375 
Q 64.9375 38.28125 72.703125 38.28125 
z
M 22.3125 68.015625 
Q 18.109375 68.015625 15.6875 64.375 
Q 13.28125 60.75 13.28125 54.390625 
Q 13.28125 47.953125 15.671875 44.328125 
Q 18.0625 40.71875 22.3125 40.71875 
Q 26.5625 40.71875 28.96875 44.328125 
Q 31.390625 47.953125 31.390625 54.390625 
Q 31.390625 60.6875 28.953125 64.34375 
Q 26.515625 68.015625 22.3125 68.015625 
z
M 66.40625 74.21875 
L 74.21875 74.21875 
L 28.609375 -1.421875 
L 20.796875 -1.421875 
z
M 22.3125 74.21875 
Q 30.03125 74.21875 34.609375 68.875 
Q 39.203125 63.53125 39.203125 54.390625 
Q 39.203125 45.171875 34.640625 39.84375 
Q 30.078125 34.515625 22.3125 34.515625 
Q 14.546875 34.515625 10.03125 39.859375 
Q 5.515625 45.21875 5.515625 54.390625 
Q 5.515625 63.484375 10.046875 68.84375 
Q 14.59375 74.21875 22.3125 74.21875 
z
" id="DejaVuSans-37"/>
      </defs>
      <use xlink:href="#DejaVuSans-84"/>
      <use x="44.083984" xlink:href="#DejaVuSans-101"/>
      <use x="105.607422" xlink:href="#DejaVuSans-115"/>
      <use x="157.707031" xlink:href="#DejaVuSans-116"/>
      <use x="196.916016" xlink:href="#DejaVuSans-32"/>
      <use x="228.703125" xlink:href="#DejaVuSans-65"/>
      <use x="295.361328" xlink:href="#DejaVuSans-99"/>
      <use x="350.341797" xlink:href="#DejaVuSans-99"/>
      <use x="405.322266" xlink:href="#DejaVuSans-117"/>
      <use x="468.701172" xlink:href="#DejaVuSans-114"/>
      <use x="509.814453" xlink:href="#DejaVuSans-97"/>
      <use x="571.09375" xlink:href="#DejaVuSans-99"/>
      <use x="626.074219" xlink:href="#DejaVuSans-121"/>
      <use x="685.253906" xlink:href="#DejaVuSans-32"/>
      <use x="717.041016" xlink:href="#DejaVuSans-40"/>
      <use x="756.054688" xlink:href="#DejaVuSans-37"/>
      <use x="851.074219" xlink:href="#DejaVuSans-41"/>
     </g>
    </g>
   </g>
   <g id="line2d_11">
    <path clip-path="url(#p4e27bc56d8)" d="M 69.012273 244.649637 
L 71.342766 253.277233 
L 73.631612 280.068188 
L 75.944751 258.726241 
L 78.276441 232.843453 
L 80.59497 231.935285 
L 82.932934 233.751621 
L 85.257348 191.52181 
L 87.59808 173.812534 
L 89.951009 149.746082 
L 92.328863 120.684707 
L 94.673301 118.868371 
L 96.970889 142.480738 
L 99.295662 112.511195 
L 101.60563 123.409211 
L 103.933279 93.439667 
L 106.250321 105.699935 
L 108.569661 99.342759 
L 110.898341 93.439667 
L 113.258796 85.720239 
L 115.583649 102.975431 
L 117.920324 109.786691 
L 120.248417 73.459971 
L 122.572363 89.352911 
L 124.874228 85.720239 
L 127.188642 99.796843 
L 129.501147 102.521347 
L 131.821408 75.276307 
L 134.119652 63.924207 
L 136.44295 87.536575 
L 138.753884 70.281383 
L 141.059195 74.368139 
L 143.365434 67.556879 
L 145.680978 61.653787 
L 147.997431 57.567032 
L 150.31271 61.199703 
L 152.617052 78.000811 
L 154.94729 64.832375 
L 157.26538 57.112948 
L 159.578767 64.832375 
L 161.862792 68.010963 
L 164.224208 59.383368 
L 166.507843 70.735467 
L 168.8038 66.648711 
L 171.094563 79.363063 
L 173.42828 58.929284 
L 175.739518 78.000811 
L 178.03138 69.373215 
L 180.342748 58.4752 
L 182.696792 80.271231 
L 184.996569 58.4752 
L 187.312766 82.087567 
L 189.608453 53.026192 
L 191.907979 65.286459 
L 194.220559 80.725315 
L 196.525512 59.837452 
L 198.840035 73.005887 
L 201.16841 57.567032 
L 203.484332 61.199703 
L 205.798445 55.750696 
L 208.117603 58.021116 
L 210.45464 43.944512 
L 212.748345 61.653787 
L 215.048315 56.658864 
L 217.362155 62.561955 
L 219.678814 43.944512 
L 221.997847 45.760848 
L 224.297706 55.750696 
L 226.623699 51.66394 
L 228.929178 52.118024 
L 231.248966 55.750696 
L 233.554296 67.556879 
L 235.859893 48.939436 
L 238.167108 56.20478 
L 240.492268 57.112948 
L 242.812474 54.388444 
L 245.151581 54.388444 
L 247.479057 40.31184 
L 249.760077 49.847604 
L 252.07084 56.658864 
L 254.368292 46.214932 
L 256.688714 50.755772 
L 259.004332 57.112948 
L 261.297462 57.567032 
L 263.630598 50.301688 
L 265.926501 57.567032 
L 268.266156 42.128176 
L 270.585161 59.837452 
L 272.88125 63.470123 
L 275.198114 50.301688 
L 277.526724 52.118024 
L 279.815093 48.939436 
L 282.125485 57.567032 
L 284.431515 44.398596 
L 286.744458 46.669016 
L 289.054873 47.577184 
L 291.366678 46.669016 
L 293.697724 57.112948 
L 296.018286 47.577184 
L 298.330196 48.939436 
L 300.628153 44.85268 
L 302.948798 53.026192 
L 305.226073 47.577184 
L 307.532347 45.760848 
L 309.849648 52.118024 
L 312.16485 46.669016 
L 314.477055 42.128176 
L 316.788316 46.214932 
L 319.104927 45.306764 
L 321.410018 48.485352 
L 323.720095 46.669016 
L 326.024209 50.755772 
L 328.339455 38.04142 
L 330.657576 44.398596 
L 332.956976 49.39352 
L 335.27597 40.31184 
L 337.609999 40.31184 
L 339.942715 47.577184 
L 342.265579 43.944512 
L 344.562054 43.944512 
L 346.870858 35.771 
L 349.161644 38.949588 
L 351.462867 41.674092 
L 353.773834 36.225084 
L 356.09054 42.128176 
L 358.392655 39.403672 
L 360.691913 38.04142 
L 363.018297 38.495504 
L 365.332528 33.954664 
L 367.619302 36.225084 
L 369.91742 36.679168 
L 372.211733 34.862832 
L 374.505621 36.679168 
L 376.807328 36.679168 
L 379.093224 34.862832 
L 381.394938 36.679168 
L 383.706168 34.862832 
L 386.005247 36.225084 
L 388.299038 36.225084 
L 390.612004 35.771 
L 392.933723 34.862832 
L 395.252987 35.771 
L 397.57542 34.862832 
L 413.829684 34.862832 
L 413.829684 34.862832 
" style="fill:none;stroke:#1f77b4;stroke-linecap:square;stroke-width:1.5;"/>
   </g>
   <g id="line2d_12">
    <path clip-path="url(#p4e27bc56d8)" d="M 69.021837 277.826149 
L 71.327469 276.985384 
L 73.707945 267.949822 
L 76.135182 254.767196 
L 78.480846 258.939093 
L 80.880826 237.600692 
L 83.281205 208.769906 
L 85.676212 188.655404 
L 88.097491 145.602566 
L 90.480696 147.19186 
L 92.841451 135.83976 
L 95.251903 113.476123 
L 97.613253 113.13556 
L 99.995053 121.848297 
L 102.329175 117.279077 
L 104.69628 123.508542 
L 107.097571 80.611794 
L 109.542275 85.351296 
L 111.888449 105.628984 
L 114.271971 94.234314 
L 116.661953 79.959048 
L 119.019662 88.019039 
L 121.429418 82.910594 
L 123.86743 76.950742 
L 126.293437 82.059187 
L 128.619864 85.549958 
L 131.066553 78.171093 
L 133.431684 78.540036 
L 135.830343 72.381522 
L 138.202537 75.247927 
L 140.588278 77.319685 
L 142.910766 91.396289 
L 145.305442 75.985814 
L 147.67252 86.685168 
L 150.103704 73.743774 
L 152.4684 70.678707 
L 154.877081 68.323146 
L 157.255756 83.790382 
L 159.610827 64.378291 
L 162.01002 67.528499 
L 164.337177 60.688859 
L 166.72063 64.17963 
L 171.507871 79.476584 
L 173.874703 62.561955 
L 176.226176 81.974046 
L 178.605285 61.029422 
L 180.947434 74.45328 
L 183.338008 66.733852 
L 185.718902 69.429976 
L 188.020308 82.002426 
L 190.363489 62.249773 
L 192.711509 69.685398 
L 195.087775 61.880829 
L 197.480754 83.705241 
L 199.878126 62.533575 
L 202.237216 68.266386 
L 204.62835 67.329837 
L 207.056819 54.388444 
L 209.423598 58.077876 
L 211.868998 59.184706 
L 214.25883 63.668785 
L 216.610158 60.007733 
L 218.966387 51.74908 
L 221.297175 69.515117 
L 223.679221 56.545343 
L 226.139545 59.922592 
L 228.52611 59.950973 
L 230.929804 67.159556 
L 233.330939 58.163017 
L 235.665161 58.219777 
L 238.018949 58.872523 
L 240.370093 72.835606 
L 242.722438 63.10118 
L 245.112108 64.491812 
L 247.485867 59.61041 
L 249.905305 48.34345 
L 252.296516 61.057802 
L 254.643369 74.197858 
L 257.003845 67.500119 
L 259.384123 71.388213 
L 261.722966 70.082722 
L 264.058829 64.20801 
L 266.425127 54.076261 
L 268.759912 48.882675 
L 271.181052 55.211471 
L 273.582441 60.660479 
L 275.954378 55.324992 
L 278.340624 50.755772 
L 280.726291 53.026192 
L 283.134504 48.598873 
L 285.541296 49.052957 
L 287.9335 54.984429 
L 290.294931 54.388444 
L 292.714696 49.39352 
L 295.111777 53.650557 
L 297.498862 53.99112 
L 299.84456 52.174784 
L 302.191674 59.099565 
L 304.581453 46.413593 
L 306.975866 50.159786 
L 309.365418 50.52873 
L 311.721691 50.471969 
L 314.09728 46.839297 
L 316.512733 48.911055 
L 318.885239 44.568877 
L 321.242532 58.134637 
L 323.59011 40.794304 
L 325.955777 49.365139 
L 328.337906 45.391904 
L 330.754033 44.88106 
L 333.115838 44.540497 
L 335.454675 43.660709 
L 337.836804 48.485352 
L 340.235017 45.136482 
L 342.631554 53.054572 
L 345.064099 48.570492 
L 347.462136 40.34022 
L 349.845772 42.270077 
L 352.182396 56.431822 
L 354.573739 42.099796 
L 356.951591 39.14825 
L 359.351616 42.099796 
L 361.720737 48.116408 
L 364.047412 42.270077 
L 366.423101 41.134867 
L 368.844948 38.836067 
L 371.204236 37.927899 
L 373.602268 37.615716 
L 375.972939 40.992966 
L 378.320538 39.119869 
L 380.631971 34.63579 
L 382.987178 39.375292 
L 385.40697 43.064724 
L 387.780954 40.964586 
L 390.157007 35.146634 
L 392.560652 37.076491 
L 394.922865 44.029652 
L 397.318012 42.951203 
L 399.703926 42.61064 
L 402.13814 38.381983 
L 404.508221 40.31184 
L 406.94038 38.694166 
L 409.279489 34.465508 
L 411.637317 36.423746 
L 413.996243 32.33699 
L 416.447626 36.792689 
L 418.807884 36.93459 
L 421.186992 37.530575 
L 423.586434 37.275153 
L 423.586434 37.275153 
" style="fill:none;stroke:#ff7f0e;stroke-linecap:square;stroke-width:1.5;"/>
   </g>
   <g id="line2d_13">
    <path clip-path="url(#p4e27bc56d8)" d="M 69.043844 285.275964 
L 71.442293 259.655694 
L 73.938635 241.825802 
L 76.369076 221.917057 
L 78.809892 190.074417 
L 83.656795 136.208703 
L 86.085704 122.359141 
L 88.531478 132.746313 
L 90.977502 103.003811 
L 93.390663 106.381061 
L 95.843814 91.084106 
L 98.258476 86.145943 
L 100.642775 88.10418 
L 103.134498 92.049035 
L 105.567276 91.226008 
L 108.035397 78.227853 
L 110.481289 88.473123 
L 112.918966 82.825454 
L 115.346546 74.48166 
L 117.741573 81.29292 
L 120.182059 78.057572 
L 122.597309 77.376446 
L 124.995027 69.85568 
L 127.450268 88.785306 
L 129.838351 68.635329 
L 132.301038 81.037498 
L 134.728805 75.56011 
L 137.180432 75.389828 
L 139.590237 80.782076 
L 141.998106 67.301457 
L 144.433028 69.429976 
L 146.825043 78.483276 
L 149.279602 69.373215 
L 151.718469 75.58849 
L 154.163901 80.18609 
L 156.598187 71.785537 
L 159.011352 78.483276 
L 161.463989 65.627022 
L 163.903909 74.964125 
L 166.336068 70.905749 
L 168.758735 73.204549 
L 171.236721 62.221392 
L 173.654721 68.266386 
L 176.11637 71.643635 
L 178.538553 77.915671 
L 180.91561 64.945896 
L 183.315113 56.545343 
L 185.714109 76.411517 
L 188.159612 55.920977 
L 190.635989 68.80561 
L 193.025269 68.152865 
L 195.456285 62.363294 
L 197.891911 60.887521 
L 200.313644 70.735467 
L 202.718339 69.401596 
L 205.101905 68.238005 
L 207.566126 63.356602 
L 210.025429 62.249773 
L 212.422034 64.17963 
L 214.858822 66.336529 
L 217.287893 57.42513 
L 219.75471 75.56011 
L 222.234433 79.618485 
L 224.651674 64.463432 
L 227.09195 58.50358 
L 229.541792 59.298227 
L 231.943429 61.852449 
L 234.325778 58.815763 
L 236.75261 68.351526 
L 239.211966 58.021116 
L 241.703992 61.313224 
L 244.152 66.024346 
L 246.592346 66.620331 
L 249.054051 66.847373 
L 251.513229 62.420054 
L 254.015731 64.17963 
L 256.452034 63.157941 
L 258.903086 69.458356 
L 261.341839 57.652172 
L 263.783757 66.137867 
L 266.200757 56.602103 
L 268.655814 58.446819 
L 271.095113 55.920977 
L 273.50219 59.553649 
L 275.971175 56.28992 
L 278.413411 55.268231 
L 280.861681 56.488582 
L 283.284072 62.874138 
L 285.660353 57.708933 
L 288.105482 61.597027 
L 290.527734 61.313224 
L 292.943281 54.445204 
L 295.411892 64.151249 
L 297.855663 64.17963 
L 300.305905 56.630483 
L 302.726486 47.747465 
L 305.148465 48.456971 
L 307.553312 50.330068 
L 309.983596 48.882675 
L 312.400012 45.335144 
L 314.806824 48.28669 
L 317.19987 53.253234 
L 319.636301 48.797534 
L 322.089937 50.386828 
L 324.563562 49.081337 
L 326.991565 51.862601 
L 329.460756 47.577184 
L 331.894908 53.026192 
L 334.310629 44.597257 
L 336.710797 43.74585 
L 339.172212 51.890982 
L 341.695457 57.737313 
L 344.149366 54.870908 
L 346.56837 52.231545 
L 349.04093 52.515347 
L 351.440001 48.740774 
L 353.839431 54.416824 
L 356.278423 44.654018 
L 358.670826 51.039574 
L 361.133152 46.867677 
L 363.570954 50.188167 
L 366.011121 41.645712 
L 368.382806 44.483736 
L 370.812778 38.864447 
L 373.250968 41.560571 
L 375.699547 40.936205 
L 378.155238 48.088028 
L 380.644744 49.081337 
L 383.103533 41.049726 
L 385.560605 43.490428 
L 387.973386 42.667401 
L 390.426027 40.198319 
L 392.872919 41.560571 
L 395.335732 40.709163 
L 397.798818 42.411978 
L 400.247416 43.235005 
L 402.677636 37.502195 
L 405.12509 37.757617 
L 407.568731 39.346911 
L 410.001982 40.652403 
L 414.870843 36.366985 
L 417.331668 39.602334 
L 419.777881 38.438743 
L 422.204924 41.986275 
L 424.627933 38.296842 
L 427.099286 43.007963 
L 429.513307 38.580645 
L 431.857727 37.190012 
L 431.857727 37.190012 
" style="fill:none;stroke:#2ca02c;stroke-linecap:square;stroke-width:1.5;"/>
   </g>
   <g id="patch_3">
    <path d="M 50.87 303.64 
L 50.87 10.8 
" style="fill:none;stroke:#000000;stroke-linecap:square;stroke-linejoin:miter;stroke-width:0.8;"/>
   </g>
   <g id="patch_4">
    <path d="M 450 303.64 
L 450 10.8 
" style="fill:none;stroke:#000000;stroke-linecap:square;stroke-linejoin:miter;stroke-width:0.8;"/>
   </g>
   <g id="patch_5">
    <path d="M 50.87 303.64 
L 450 303.64 
" style="fill:none;stroke:#000000;stroke-linecap:square;stroke-linejoin:miter;stroke-width:0.8;"/>
   </g>
   <g id="patch_6">
    <path d="M 50.87 10.8 
L 450 10.8 
" style="fill:none;stroke:#000000;stroke-linecap:square;stroke-linejoin:miter;stroke-width:0.8;"/>
   </g>
   <g id="legend_1">
    <g id="patch_7">
     <path d="M 57.87 62.834375 
L 139.377813 62.834375 
Q 141.377813 62.834375 141.377813 60.834375 
L 141.377813 17.8 
Q 141.377813 15.8 139.377813 15.8 
L 57.87 15.8 
Q 55.87 15.8 55.87 17.8 
L 55.87 60.834375 
Q 55.87 62.834375 57.87 62.834375 
z
" style="fill:#ffffff;opacity:0.8;stroke:#cccccc;stroke-linejoin:miter;"/>
    </g>
    <g id="line2d_14">
     <path d="M 59.87 23.898438 
L 79.87 23.898438 
" style="fill:none;stroke:#1f77b4;stroke-linecap:square;stroke-width:1.5;"/>
    </g>
    <g id="line2d_15"/>
    <g id="text_13">
     <!-- Sync-SGD -->
     <g transform="translate(87.87 27.398438)scale(0.1 -0.1)">
      <defs>
       <path d="M 53.515625 70.515625 
L 53.515625 60.890625 
Q 47.90625 63.578125 42.921875 64.890625 
Q 37.9375 66.21875 33.296875 66.21875 
Q 25.25 66.21875 20.875 63.09375 
Q 16.5 59.96875 16.5 54.203125 
Q 16.5 49.359375 19.40625 46.890625 
Q 22.3125 44.4375 30.421875 42.921875 
L 36.375 41.703125 
Q 47.40625 39.59375 52.65625 34.296875 
Q 57.90625 29 57.90625 20.125 
Q 57.90625 9.515625 50.796875 4.046875 
Q 43.703125 -1.421875 29.984375 -1.421875 
Q 24.8125 -1.421875 18.96875 -0.25 
Q 13.140625 0.921875 6.890625 3.21875 
L 6.890625 13.375 
Q 12.890625 10.015625 18.65625 8.296875 
Q 24.421875 6.59375 29.984375 6.59375 
Q 38.421875 6.59375 43.015625 9.90625 
Q 47.609375 13.234375 47.609375 19.390625 
Q 47.609375 24.75 44.3125 27.78125 
Q 41.015625 30.8125 33.5 32.328125 
L 27.484375 33.5 
Q 16.453125 35.6875 11.515625 40.375 
Q 6.59375 45.0625 6.59375 53.421875 
Q 6.59375 63.09375 13.40625 68.65625 
Q 20.21875 74.21875 32.171875 74.21875 
Q 37.3125 74.21875 42.625 73.28125 
Q 47.953125 72.359375 53.515625 70.515625 
z
" id="DejaVuSans-83"/>
       <path d="M 54.890625 33.015625 
L 54.890625 0 
L 45.90625 0 
L 45.90625 32.71875 
Q 45.90625 40.484375 42.875 44.328125 
Q 39.84375 48.1875 33.796875 48.1875 
Q 26.515625 48.1875 22.3125 43.546875 
Q 18.109375 38.921875 18.109375 30.90625 
L 18.109375 0 
L 9.078125 0 
L 9.078125 54.6875 
L 18.109375 54.6875 
L 18.109375 46.1875 
Q 21.34375 51.125 25.703125 53.5625 
Q 30.078125 56 35.796875 56 
Q 45.21875 56 50.046875 50.171875 
Q 54.890625 44.34375 54.890625 33.015625 
z
" id="DejaVuSans-110"/>
       <path d="M 4.890625 31.390625 
L 31.203125 31.390625 
L 31.203125 23.390625 
L 4.890625 23.390625 
z
" id="DejaVuSans-45"/>
       <path d="M 59.515625 10.40625 
L 59.515625 29.984375 
L 43.40625 29.984375 
L 43.40625 38.09375 
L 69.28125 38.09375 
L 69.28125 6.78125 
Q 63.578125 2.734375 56.6875 0.65625 
Q 49.8125 -1.421875 42 -1.421875 
Q 24.90625 -1.421875 15.25 8.5625 
Q 5.609375 18.5625 5.609375 36.375 
Q 5.609375 54.25 15.25 64.234375 
Q 24.90625 74.21875 42 74.21875 
Q 49.125 74.21875 55.546875 72.453125 
Q 61.96875 70.703125 67.390625 67.28125 
L 67.390625 56.78125 
Q 61.921875 61.421875 55.765625 63.765625 
Q 49.609375 66.109375 42.828125 66.109375 
Q 29.4375 66.109375 22.71875 58.640625 
Q 16.015625 51.171875 16.015625 36.375 
Q 16.015625 21.625 22.71875 14.15625 
Q 29.4375 6.6875 42.828125 6.6875 
Q 48.046875 6.6875 52.140625 7.59375 
Q 56.25 8.5 59.515625 10.40625 
z
" id="DejaVuSans-71"/>
       <path d="M 19.671875 64.796875 
L 19.671875 8.109375 
L 31.59375 8.109375 
Q 46.6875 8.109375 53.6875 14.9375 
Q 60.6875 21.78125 60.6875 36.53125 
Q 60.6875 51.171875 53.6875 57.984375 
Q 46.6875 64.796875 31.59375 64.796875 
z
M 9.8125 72.90625 
L 30.078125 72.90625 
Q 51.265625 72.90625 61.171875 64.09375 
Q 71.09375 55.28125 71.09375 36.53125 
Q 71.09375 17.671875 61.125 8.828125 
Q 51.171875 0 30.078125 0 
L 9.8125 0 
z
" id="DejaVuSans-68"/>
      </defs>
      <use xlink:href="#DejaVuSans-83"/>
      <use x="63.476562" xlink:href="#DejaVuSans-121"/>
      <use x="122.65625" xlink:href="#DejaVuSans-110"/>
      <use x="186.035156" xlink:href="#DejaVuSans-99"/>
      <use x="241.015625" xlink:href="#DejaVuSans-45"/>
      <use x="277.099609" xlink:href="#DejaVuSans-83"/>
      <use x="340.576172" xlink:href="#DejaVuSans-71"/>
      <use x="418.066406" xlink:href="#DejaVuSans-68"/>
     </g>
    </g>
    <g id="line2d_16">
     <path d="M 59.87 38.576563 
L 79.87 38.576563 
" style="fill:none;stroke:#ff7f0e;stroke-linecap:square;stroke-width:1.5;"/>
    </g>
    <g id="line2d_17"/>
    <g id="text_14">
     <!-- DP-SGD -->
     <g transform="translate(87.87 42.076563)scale(0.1 -0.1)">
      <defs>
       <path d="M 19.671875 64.796875 
L 19.671875 37.40625 
L 32.078125 37.40625 
Q 38.96875 37.40625 42.71875 40.96875 
Q 46.484375 44.53125 46.484375 51.125 
Q 46.484375 57.671875 42.71875 61.234375 
Q 38.96875 64.796875 32.078125 64.796875 
z
M 9.8125 72.90625 
L 32.078125 72.90625 
Q 44.34375 72.90625 50.609375 67.359375 
Q 56.890625 61.8125 56.890625 51.125 
Q 56.890625 40.328125 50.609375 34.8125 
Q 44.34375 29.296875 32.078125 29.296875 
L 19.671875 29.296875 
L 19.671875 0 
L 9.8125 0 
z
" id="DejaVuSans-80"/>
      </defs>
      <use xlink:href="#DejaVuSans-68"/>
      <use x="77.001953" xlink:href="#DejaVuSans-80"/>
      <use x="135.054688" xlink:href="#DejaVuSans-45"/>
      <use x="171.138672" xlink:href="#DejaVuSans-83"/>
      <use x="234.615234" xlink:href="#DejaVuSans-71"/>
      <use x="312.105469" xlink:href="#DejaVuSans-68"/>
     </g>
    </g>
    <g id="line2d_18">
     <path d="M 59.87 53.254688 
L 79.87 53.254688 
" style="fill:none;stroke:#2ca02c;stroke-linecap:square;stroke-width:1.5;"/>
    </g>
    <g id="line2d_19"/>
    <g id="text_15">
     <!-- EDP-SGD -->
     <g transform="translate(87.87 56.754688)scale(0.1 -0.1)">
      <defs>
       <path d="M 9.8125 72.90625 
L 55.90625 72.90625 
L 55.90625 64.59375 
L 19.671875 64.59375 
L 19.671875 43.015625 
L 54.390625 43.015625 
L 54.390625 34.71875 
L 19.671875 34.71875 
L 19.671875 8.296875 
L 56.78125 8.296875 
L 56.78125 0 
L 9.8125 0 
z
" id="DejaVuSans-69"/>
      </defs>
      <use xlink:href="#DejaVuSans-69"/>
      <use x="63.183594" xlink:href="#DejaVuSans-68"/>
      <use x="140.185547" xlink:href="#DejaVuSans-80"/>
      <use x="198.238281" xlink:href="#DejaVuSans-45"/>
      <use x="234.322266" xlink:href="#DejaVuSans-83"/>
      <use x="297.798828" xlink:href="#DejaVuSans-71"/>
      <use x="375.289062" xlink:href="#DejaVuSans-68"/>
     </g>
    </g>
   </g>
  </g>
 </g>
 <defs>
  <clipPath id="p4e27bc56d8">
   <rect height="292.84" width="399.13" x="50.87" y="10.8"/>
  </clipPath>
 </defs>
</svg>
