<?xml version="1.0" encoding="utf-8" standalone="no"?>
<!DOCTYPE svg PUBLIC "-//W3C//DTD SVG 1.1//EN"
  "http://www.w3.org/Graphics/SVG/1.1/DTD/svg11.dtd">
<!-- Created with matplotlib (https://matplotlib.org/) -->
<svg height="345.6pt" version="1.1" viewBox="0 0 460.8 345.6" width="460.8pt" xmlns="http://www.w3.org/2000/svg" xmlns:xlink="http://www.w3.org/1999/xlink">
 <metadata>
  <rdf:RDF xmlns:cc="http://creativecommons.org/ns#" xmlns:dc="http://purl.org/dc/elements/1.1/" xmlns:rdf="http://www.w3.org/1999/02/22-rdf-syntax-ns#">
   <cc:Work>
    <dc:type rdf:resource="http://purl.org/dc/dcmitype/StillImage"/>
    <dc:date>2021-06-24T12:03:24.441118</dc:date>
    <dc:format>image/svg+xml</dc:format>
    <dc:creator>
     <cc:Agent>
      <dc:title>Matplotlib v3.3.1, https://matplotlib.org/</dc:title>
     </cc:Agent>
    </dc:creator>
   </cc:Work>
  </rdf:RDF>
 </metadata>
 <defs>
  <style type="text/css">*{stroke-linecap:butt;stroke-linejoin:round;}</style>
 </defs>
 <g id="figure_1">
  <g id="patch_1">
   <path d="M 0 345.6 
L 460.8 345.6 
L 460.8 0 
L 0 0 
z
" style="fill:#ffffff;"/>
  </g>
  <g id="axes_1">
   <g id="patch_2">
    <path d="M 50.87 303.64 
L 450 303.64 
L 450 10.8 
L 50.87 10.8 
z
" style="fill:#ffffff;"/>
   </g>
   <g id="PolyCollection_1">
    <path clip-path="url(#p9c46d76c4d)" d="M 69.012273 242.334254 
L 69.012273 246.96502 
L 71.447477 257.488235 
L 73.882682 285.324591 
L 76.317886 268.612349 
L 78.75309 242.540034 
L 81.188295 248.181088 
L 83.623499 250.583382 
L 86.058703 199.038237 
L 88.493908 194.749696 
L 90.929112 164.062336 
L 93.364317 147.85396 
L 95.799521 128.543664 
L 98.234725 167.541897 
L 100.66993 124.576506 
L 103.105134 140.118021 
L 105.540339 106.833221 
L 107.975543 121.59936 
L 110.410747 109.249702 
L 112.845952 106.909975 
L 115.281156 94.16669 
L 117.716361 113.663299 
L 120.151565 117.960203 
L 122.586769 85.845731 
L 125.021974 99.846084 
L 127.457178 102.867547 
L 129.892383 116.381791 
L 132.327587 118.185599 
L 134.762791 87.37575 
L 137.197996 72.173053 
L 139.6332 94.21022 
L 142.068405 85.906096 
L 144.503609 84.275082 
L 146.938813 74.074211 
L 149.374018 70.848288 
L 151.809222 64.945023 
L 154.244426 65.602211 
L 156.679631 86.664182 
L 159.114835 77.723883 
L 161.55004 67.266574 
L 163.985244 74.945306 
L 166.420448 73.067429 
L 168.855653 71.901599 
L 171.290857 84.804745 
L 173.726062 80.600253 
L 176.161266 89.954031 
L 178.59647 72.430171 
L 181.031675 95.493362 
L 183.466879 78.178231 
L 185.902084 68.58813 
L 188.337288 94.730794 
L 190.772492 63.770683 
L 193.207697 95.860617 
L 195.642901 56.658864 
L 198.078106 81.379237 
L 200.51331 92.176878 
L 202.948514 77.211728 
L 205.383719 85.274561 
L 207.818923 67.3483 
L 210.254128 66.047994 
L 212.689332 71.322533 
L 215.124536 66.588755 
L 217.559741 51.18142 
L 219.994945 72.776528 
L 222.430149 61.28963 
L 224.865354 69.827299 
L 227.300558 51.322503 
L 229.735763 50.735089 
L 232.170967 61.046179 
L 234.606171 61.978745 
L 237.041376 57.567032 
L 239.47658 69.642994 
L 241.911785 85.583499 
L 244.346989 59.254241 
L 246.782193 64.276753 
L 249.217398 67.061429 
L 251.652602 62.040803 
L 254.087807 63.051814 
L 256.523011 46.335945 
L 258.958215 57.764829 
L 261.39342 65.557056 
L 263.828624 51.271397 
L 266.263829 59.882747 
L 268.699033 69.956382 
L 271.134237 65.989035 
L 273.569442 55.275929 
L 276.004646 65.484257 
L 278.439851 54.447166 
L 280.875055 70.428419 
L 283.310259 74.443559 
L 285.745464 56.723405 
L 288.180668 54.342572 
L 290.615872 55.296612 
L 293.051077 64.945023 
L 295.486281 47.1231 
L 297.921486 56.258685 
L 300.35669 56.475376 
L 302.791894 54.481372 
L 305.227099 67.566746 
L 307.662303 56.475376 
L 310.097508 55.296612 
L 312.532712 49.301776 
L 314.967916 61.448195 
L 317.403121 54.814092 
L 319.838325 51.504606 
L 322.27353 60.035249 
L 324.708734 54.481372 
L 327.143938 49.39352 
L 329.579143 53.867291 
L 332.014347 55.897731 
L 334.449552 54.644847 
L 336.884756 51.9645 
L 339.31996 55.386538 
L 341.755165 41.439473 
L 344.190369 51.942406 
L 346.625574 56.658864 
L 349.060778 44.760936 
L 351.495982 42.128176 
L 353.931187 58.550619 
L 356.366391 47.577184 
L 358.801595 46.16906 
L 361.2368 42.444644 
L 363.672004 43.011039 
L 366.107209 43.89864 
L 368.542413 39.857756 
L 370.977617 48.80182 
L 373.412822 44.85268 
L 375.848026 41.439473 
L 378.283231 42.128176 
L 380.718435 38.58543 
L 383.153639 38.449632 
L 385.588844 39.551047 
L 388.024048 38.495504 
L 390.459253 40.740619 
L 392.894457 40.740619 
L 395.329661 37.08738 
L 397.764866 39.551047 
L 400.20007 38.495504 
L 402.635275 39.857756 
L 405.070479 41.281549 
L 407.505683 39.169053 
L 409.940888 38.495504 
L 412.376092 39.169053 
L 414.811297 38.495504 
L 417.246501 38.495504 
L 419.681705 38.495504 
L 422.11691 38.495504 
L 424.552114 38.495504 
L 426.987318 38.495504 
L 429.422523 38.495504 
L 431.857727 38.495504 
L 431.857727 31.23016 
L 431.857727 31.23016 
L 429.422523 31.23016 
L 426.987318 31.23016 
L 424.552114 31.23016 
L 422.11691 31.23016 
L 419.681705 31.23016 
L 417.246501 31.23016 
L 414.811297 31.23016 
L 412.376092 32.372946 
L 409.940888 31.23016 
L 407.505683 32.372946 
L 405.070479 31.168618 
L 402.635275 32.592412 
L 400.20007 31.23016 
L 397.764866 33.807288 
L 395.329661 32.638284 
L 392.894457 32.617717 
L 390.459253 32.617717 
L 388.024048 31.23016 
L 385.588844 33.807288 
L 383.153639 34.000536 
L 380.718435 29.323898 
L 378.283231 34.862832 
L 375.848026 34.643366 
L 373.412822 33.954664 
L 370.977617 35.454531 
L 368.542413 32.592412 
L 366.107209 39.449544 
L 363.672004 34.888137 
L 361.2368 29.097355 
L 358.801595 41.719964 
L 356.366391 40.31184 
L 353.931187 36.603748 
L 351.495982 38.495504 
L 349.060778 35.862743 
L 346.625574 42.128176 
L 344.190369 36.854786 
L 341.755165 34.643366 
L 339.31996 46.125005 
L 336.884756 41.373532 
L 334.449552 42.325857 
L 332.014347 34.715796 
L 329.579143 38.562572 
L 327.143938 34.862832 
L 324.708734 38.856659 
L 322.27353 44.200799 
L 319.838325 40.017089 
L 317.403121 40.340276 
L 314.967916 44.604188 
L 312.532712 40.403583 
L 310.097508 42.58226 
L 307.662303 38.678991 
L 305.227099 46.659149 
L 302.791894 38.856659 
L 300.35669 38.678991 
L 297.921486 37.079347 
L 295.486281 41.674092 
L 293.051077 50.18904 
L 290.615872 42.58226 
L 288.180668 49.893475 
L 285.745464 43.87997 
L 283.310259 52.496688 
L 280.875055 49.246484 
L 278.439851 29.809186 
L 276.004646 49.649807 
L 273.569442 45.327447 
L 271.134237 49.145028 
L 268.699033 44.269513 
L 266.263829 41.628796 
L 263.828624 41.158466 
L 261.39342 47.760671 
L 258.958215 41.930379 
L 256.523011 34.287735 
L 254.087807 45.725073 
L 251.652602 46.736084 
L 249.217398 47.164466 
L 246.782193 48.132806 
L 244.346989 38.62463 
L 241.911785 49.53026 
L 239.47658 41.858397 
L 237.041376 46.669016 
L 234.606171 41.349134 
L 232.170967 50.455212 
L 229.735763 40.786607 
L 227.300558 36.56652 
L 224.865354 55.296612 
L 222.430149 52.028097 
L 219.994945 50.531047 
L 217.559741 36.707604 
L 215.124536 49.453476 
L 212.689332 40.178858 
L 210.254128 56.351413 
L 207.818923 47.785763 
L 205.383719 60.737213 
L 202.948514 42.463175 
L 200.51331 69.273753 
L 198.078106 49.193682 
L 195.642901 49.39352 
L 193.207697 68.314518 
L 190.772492 53.179716 
L 188.337288 65.811668 
L 185.902084 48.362269 
L 183.466879 60.5682 
L 181.031675 60.50826 
L 178.59647 45.428396 
L 176.161266 68.772096 
L 173.726062 52.69717 
L 171.290857 56.666189 
L 168.855653 46.865136 
L 166.420448 62.954498 
L 163.985244 54.719445 
L 161.55004 46.959321 
L 159.114835 51.940868 
L 156.679631 69.337441 
L 154.244426 56.797196 
L 151.809222 50.18904 
L 149.374018 52.459287 
L 146.938813 61.039548 
L 144.503609 64.461196 
L 142.068405 54.656671 
L 139.6332 80.862931 
L 137.197996 55.675362 
L 134.762791 63.176865 
L 132.327587 86.857094 
L 129.892383 83.211895 
L 127.457178 68.572931 
L 125.021974 78.859738 
L 122.586769 61.074211 
L 120.151565 101.613179 
L 117.716361 92.287563 
L 115.281156 77.273789 
L 112.845952 79.969359 
L 110.410747 89.435816 
L 107.975543 89.80051 
L 105.540339 80.046113 
L 103.105134 106.7004 
L 100.66993 100.445883 
L 98.234725 117.41958 
L 95.799521 109.193078 
L 93.364317 93.515453 
L 90.929112 135.429829 
L 88.493908 152.875371 
L 86.058703 184.005382 
L 83.623499 216.91986 
L 81.188295 215.689482 
L 78.75309 223.146872 
L 76.317886 248.840132 
L 73.882682 274.811786 
L 71.447477 249.066231 
L 69.012273 242.334254 
z
" style="fill:#1f77b4;fill-opacity:0.25;"/>
   </g>
   <g id="PolyCollection_2">
    <path clip-path="url(#p9c46d76c4d)" d="M 69.012273 274.271275 
L 69.012273 281.381023 
L 71.447477 282.585467 
L 73.882682 282.231182 
L 76.317886 275.344866 
L 78.75309 281.350343 
L 81.188295 260.976472 
L 83.623499 238.04467 
L 86.058703 220.507762 
L 88.493908 165.857914 
L 90.929112 171.945783 
L 93.364317 151.93449 
L 95.799521 126.857464 
L 98.234725 139.552588 
L 100.66993 138.219151 
L 103.105134 143.685065 
L 105.540339 171.453536 
L 107.975543 91.37633 
L 110.410747 93.993536 
L 112.845952 143.631887 
L 115.281156 119.967173 
L 117.716361 102.24902 
L 120.151565 123.66348 
L 122.586769 100.704445 
L 125.021974 84.064171 
L 127.457178 91.012875 
L 129.892383 100.270145 
L 132.327587 82.609314 
L 134.762791 102.979864 
L 137.197996 77.826241 
L 139.6332 85.394571 
L 142.068405 96.607944 
L 144.503609 114.837516 
L 146.938813 95.076674 
L 149.374018 102.831909 
L 151.809222 92.03955 
L 154.244426 76.529858 
L 156.679631 78.336187 
L 159.114835 98.453938 
L 161.55004 74.880671 
L 163.985244 77.310262 
L 166.420448 67.339412 
L 168.855653 69.106199 
L 171.290857 86.331906 
L 173.726062 95.542814 
L 176.161266 66.647726 
L 178.59647 106.992874 
L 181.031675 71.884116 
L 183.466879 89.653918 
L 185.902084 76.407896 
L 188.337288 92.935677 
L 190.772492 112.127978 
L 193.207697 73.583197 
L 195.642901 85.332828 
L 198.078106 78.596676 
L 200.51331 103.093252 
L 202.948514 87.232775 
L 205.383719 88.88764 
L 207.818923 85.170611 
L 210.254128 63.349325 
L 212.689332 64.780904 
L 215.124536 65.513947 
L 217.559741 77.211072 
L 219.994945 73.95529 
L 222.430149 68.686978 
L 224.865354 93.583108 
L 227.300558 71.837005 
L 229.735763 74.804076 
L 232.170967 63.25456 
L 234.606171 75.216448 
L 237.041376 68.123069 
L 239.47658 73.783026 
L 241.911785 62.606009 
L 244.346989 95.918957 
L 246.782193 78.625306 
L 249.217398 82.085736 
L 251.652602 76.10727 
L 254.087807 61.83061 
L 256.523011 79.237429 
L 258.958215 104.399378 
L 261.39342 88.288221 
L 263.828624 93.538012 
L 266.263829 95.814642 
L 268.699033 74.367981 
L 271.134237 71.656125 
L 273.569442 55.848856 
L 276.004646 67.850277 
L 278.439851 63.589288 
L 280.875055 72.009731 
L 283.310259 58.157197 
L 285.745464 64.124067 
L 288.180668 53.152996 
L 290.615872 54.057385 
L 293.051077 75.072554 
L 295.486281 70.857158 
L 297.921486 53.779715 
L 300.35669 59.441519 
L 302.791894 58.139882 
L 305.227099 58.265902 
L 307.662303 67.218499 
L 310.097508 56.685754 
L 312.532712 67.109948 
L 314.967916 76.94655 
L 317.403121 68.858867 
L 319.838325 50.770346 
L 322.27353 57.917214 
L 324.708734 53.04056 
L 327.143938 69.510268 
L 329.579143 51.290777 
L 332.014347 56.588791 
L 334.449552 55.883235 
L 336.884756 54.67385 
L 339.31996 49.102219 
L 341.755165 53.484294 
L 344.190369 64.032549 
L 346.625574 50.632001 
L 349.060778 63.838544 
L 351.495982 62.944297 
L 353.931187 46.953123 
L 356.366391 51.432371 
L 358.801595 70.789367 
L 361.2368 55.343797 
L 363.672004 48.173704 
L 366.107209 51.494215 
L 368.542413 52.525497 
L 370.977617 52.270481 
L 373.412822 49.312418 
L 375.848026 43.196293 
L 378.283231 42.029213 
L 380.718435 43.036715 
L 383.153639 47.517091 
L 385.588844 49.867107 
L 388.024048 42.549046 
L 390.459253 46.993684 
L 392.894457 52.499183 
L 395.329661 46.685441 
L 397.764866 40.4723 
L 400.20007 42.234675 
L 402.635275 50.086958 
L 405.070479 48.938292 
L 407.505683 50.40638 
L 409.940888 46.421161 
L 412.376092 53.469261 
L 414.811297 44.576071 
L 417.246501 41.534755 
L 419.681705 47.743659 
L 422.11691 40.024109 
L 424.552114 44.945974 
L 426.987318 45.225995 
L 429.422523 44.091878 
L 431.857727 46.416678 
L 431.857727 28.133628 
L 431.857727 28.133628 
L 429.422523 30.969273 
L 426.987318 28.643185 
L 424.552114 28.639403 
L 422.11691 24.64987 
L 419.681705 25.103832 
L 417.246501 27.396262 
L 414.811297 32.81226 
L 412.376092 27.154418 
L 409.940888 30.342804 
L 407.505683 34.8149 
L 405.070479 36.964114 
L 402.635275 37.972347 
L 400.20007 31.918308 
L 397.764866 29.820969 
L 395.329661 35.24373 
L 392.894457 33.630265 
L 390.459253 31.756899 
L 388.024048 26.722533 
L 385.588844 28.372632 
L 383.153639 34.468841 
L 380.718435 32.194717 
L 378.283231 33.826585 
L 375.848026 34.475841 
L 373.412822 32.957316 
L 370.977617 32.269673 
L 368.542413 43.707319 
L 366.107209 32.705376 
L 363.672004 30.122795 
L 361.2368 28.855794 
L 358.801595 42.074276 
L 356.366391 33.107783 
L 353.931187 33.727317 
L 351.495982 34.196687 
L 349.060778 42.2706 
L 346.625574 39.640964 
L 344.190369 32.938155 
L 341.755165 33.837125 
L 339.31996 39.978775 
L 336.884756 35.08827 
L 334.449552 34.900574 
L 332.014347 42.141488 
L 329.579143 30.297831 
L 327.143938 46.759005 
L 324.708734 36.097194 
L 322.27353 39.904897 
L 319.838325 42.908248 
L 317.403121 32.085071 
L 314.967916 24.110909 
L 312.532712 33.209624 
L 310.097508 36.141433 
L 307.662303 50.980631 
L 305.227099 46.083666 
L 302.791894 49.842359 
L 300.35669 47.859595 
L 297.921486 45.007325 
L 295.486281 37.919729 
L 293.051077 34.896304 
L 290.615872 44.048528 
L 288.180668 44.044749 
L 285.745464 41.928316 
L 283.310259 43.354346 
L 280.875055 38.640253 
L 278.439851 57.73167 
L 276.004646 42.572665 
L 273.569442 41.916494 
L 271.134237 36.496397 
L 268.699033 54.048039 
L 266.263829 44.350801 
L 263.828624 49.238415 
L 261.39342 46.712017 
L 258.958215 43.996338 
L 256.523011 42.878175 
L 254.087807 34.856291 
L 251.652602 43.113549 
L 249.217398 46.897889 
L 246.782193 47.577054 
L 244.346989 49.752255 
L 241.911785 55.139037 
L 239.47658 42.656529 
L 237.041376 48.202964 
L 234.606171 59.102663 
L 232.170967 56.647385 
L 229.735763 45.041109 
L 227.300558 41.253681 
L 224.865354 45.447126 
L 222.430149 34.811182 
L 219.994945 46.060176 
L 217.559741 50.126499 
L 215.124536 52.855465 
L 212.689332 51.374848 
L 210.254128 45.427562 
L 207.818923 49.489064 
L 205.383719 47.645131 
L 202.948514 37.834376 
L 200.51331 64.317231 
L 198.078106 45.164983 
L 195.642901 54.037969 
L 193.207697 50.916348 
L 190.772492 51.876875 
L 188.337288 45.924275 
L 185.902084 57.059808 
L 183.466879 59.252642 
L 181.031675 50.174728 
L 178.59647 56.955218 
L 176.161266 58.476185 
L 173.726062 63.410355 
L 171.290857 57.295928 
L 168.855653 59.25306 
L 166.420448 54.038306 
L 163.985244 57.746737 
L 161.55004 53.875912 
L 159.114835 69.126826 
L 156.679631 58.310105 
L 154.244426 64.827556 
L 151.809222 55.447997 
L 149.374018 70.538427 
L 146.938813 56.894953 
L 144.503609 67.955062 
L 142.068405 58.031427 
L 139.6332 65.101283 
L 137.197996 66.936802 
L 134.762791 54.100208 
L 132.327587 73.732872 
L 129.892383 70.82977 
L 127.457178 73.105499 
L 125.021974 69.837313 
L 122.586769 65.116744 
L 120.151565 52.374598 
L 117.716361 57.669077 
L 115.281156 68.501455 
L 112.845952 67.626081 
L 110.410747 76.709056 
L 107.975543 69.847259 
L 105.540339 75.563547 
L 103.105134 90.873088 
L 100.66993 105.477443 
L 98.234725 86.718532 
L 95.799521 100.094783 
L 93.364317 119.74503 
L 90.929112 122.437936 
L 88.493908 125.347218 
L 86.058703 156.803047 
L 83.623499 179.495142 
L 81.188295 214.224912 
L 78.75309 236.527842 
L 76.317886 234.189526 
L 73.882682 253.668461 
L 71.447477 271.3853 
L 69.012273 274.271275 
z
" style="fill:#ff7f0e;fill-opacity:0.25;"/>
   </g>
   <g id="PolyCollection_3">
    <path clip-path="url(#p9c46d76c4d)" d="M 69.012273 280.222838 
L 69.012273 290.329091 
L 71.447477 272.840977 
L 73.882682 255.273096 
L 76.317886 232.970554 
L 78.75309 204.219701 
L 81.188295 188.483411 
L 83.623499 146.219572 
L 86.058703 137.539631 
L 88.493908 161.264157 
L 90.929112 114.778229 
L 93.364317 118.547684 
L 95.799521 105.15928 
L 98.234725 96.2525 
L 100.66993 106.772388 
L 103.105134 116.464364 
L 105.540339 109.809893 
L 107.975543 91.251389 
L 110.410747 101.02541 
L 112.845952 91.186508 
L 115.281156 82.016389 
L 117.716361 95.771466 
L 120.151565 100.024985 
L 122.586769 88.810693 
L 125.021974 81.065124 
L 127.457178 108.594924 
L 129.892383 73.864077 
L 132.327587 94.410168 
L 134.762791 87.493659 
L 137.197996 82.308093 
L 139.6332 94.633964 
L 142.068405 76.257843 
L 144.503609 77.152012 
L 146.938813 86.966834 
L 149.374018 80.41295 
L 151.809222 89.675904 
L 154.244426 99.688423 
L 156.679631 86.967405 
L 159.114835 91.76408 
L 161.55004 72.246986 
L 163.985244 85.965416 
L 166.420448 85.845032 
L 168.855653 81.06265 
L 171.290857 70.483409 
L 173.726062 81.509536 
L 176.161266 84.392845 
L 178.59647 91.673683 
L 181.031675 70.280629 
L 183.466879 62.511948 
L 185.902084 88.915264 
L 188.337288 59.208189 
L 190.772492 77.868913 
L 193.207697 78.657928 
L 195.642901 71.155676 
L 198.078106 67.839581 
L 200.51331 80.039256 
L 202.948514 81.722874 
L 205.383719 76.432283 
L 207.818923 72.644795 
L 210.254128 69.108405 
L 212.689332 79.832154 
L 215.124536 82.988022 
L 217.559741 63.311142 
L 219.994945 89.937445 
L 222.430149 95.525001 
L 224.865354 74.721783 
L 227.300558 64.469106 
L 229.735763 68.661387 
L 232.170967 65.77324 
L 234.606171 64.216965 
L 237.041376 76.234597 
L 239.47658 69.073246 
L 241.911785 70.947724 
L 244.346989 74.271922 
L 246.782193 75.979361 
L 249.217398 80.694958 
L 251.652602 70.309355 
L 254.087807 74.677791 
L 256.523011 73.998527 
L 258.958215 82.404852 
L 261.39342 72.913887 
L 263.828624 75.469145 
L 266.263829 61.868609 
L 268.699033 67.770325 
L 271.134237 60.656824 
L 273.569442 69.814748 
L 276.004646 61.892702 
L 278.439851 64.478049 
L 280.875055 63.281251 
L 283.310259 80.376862 
L 285.745464 67.81541 
L 288.180668 67.700167 
L 290.615872 71.804939 
L 293.051077 59.553176 
L 295.486281 76.233572 
L 297.921486 71.538492 
L 300.35669 68.036943 
L 302.791894 53.819114 
L 305.227099 52.51743 
L 307.662303 57.984006 
L 310.097508 60.680465 
L 312.532712 51.358848 
L 314.967916 54.583269 
L 317.403121 63.460422 
L 319.838325 50.074961 
L 322.27353 59.939049 
L 324.708734 54.962694 
L 327.143938 57.457183 
L 329.579143 49.952324 
L 332.014347 60.810558 
L 334.449552 46.960499 
L 336.884756 45.849437 
L 339.31996 63.580544 
L 341.755165 64.410354 
L 344.190369 64.123217 
L 346.625574 62.077324 
L 349.060778 60.180432 
L 351.495982 56.788464 
L 353.931187 63.644115 
L 356.366391 51.883131 
L 358.801595 56.679609 
L 361.2368 52.8278 
L 363.672004 57.508621 
L 366.107209 45.192675 
L 368.542413 52.114805 
L 370.977617 42.935406 
L 373.412822 45.661099 
L 375.848026 45.047915 
L 378.283231 59.554 
L 380.718435 56.678343 
L 383.153639 44.914445 
L 385.588844 51.084995 
L 388.024048 47.012824 
L 390.459253 46.589485 
L 392.894457 44.774689 
L 395.329661 45.922639 
L 397.764866 46.364482 
L 400.20007 47.4228 
L 402.635275 42.351316 
L 405.070479 41.970531 
L 407.505683 44.263662 
L 409.940888 45.894689 
L 412.376092 43.382361 
L 414.811297 39.770723 
L 417.246501 43.840979 
L 419.681705 41.142474 
L 422.11691 48.502988 
L 424.552114 40.272483 
L 426.987318 48.96349 
L 429.422523 41.2226 
L 431.857727 39.923371 
L 431.857727 34.456654 
L 431.857727 34.456654 
L 429.422523 35.938689 
L 426.987318 37.052437 
L 424.552114 36.321202 
L 422.11691 35.469561 
L 419.681705 35.735012 
L 417.246501 35.363688 
L 414.811297 32.963248 
L 412.376092 33.778928 
L 409.940888 35.410117 
L 407.505683 34.430161 
L 405.070479 33.544703 
L 402.635275 32.653074 
L 400.20007 39.047211 
L 397.764866 38.459474 
L 395.329661 35.495687 
L 392.894457 38.346453 
L 390.459253 33.807152 
L 388.024048 38.321977 
L 385.588844 35.89586 
L 383.153639 37.185007 
L 380.718435 41.484331 
L 378.283231 36.622056 
L 375.848026 36.824496 
L 373.412822 37.460042 
L 370.977617 34.793488 
L 368.542413 36.852668 
L 366.107209 38.098748 
L 363.672004 42.867712 
L 361.2368 40.907555 
L 358.801595 45.399539 
L 356.366391 37.424905 
L 353.931187 45.189532 
L 351.495982 40.693084 
L 349.060778 44.850263 
L 346.625574 42.385766 
L 344.190369 45.618598 
L 341.755165 51.064272 
L 339.31996 40.201419 
L 336.884756 41.642263 
L 334.449552 42.234016 
L 332.014347 45.241825 
L 329.579143 45.202043 
L 327.143938 46.26802 
L 324.708734 43.19998 
L 322.27353 40.834608 
L 319.838325 47.520108 
L 317.403121 43.046045 
L 314.967916 41.990111 
L 312.532712 39.31144 
L 310.097508 37.084886 
L 307.662303 42.67613 
L 305.227099 44.396512 
L 302.791894 41.675816 
L 300.35669 45.224024 
L 297.921486 56.820767 
L 295.486281 52.068927 
L 293.051077 49.337232 
L 290.615872 50.82151 
L 288.180668 55.493887 
L 285.745464 47.602455 
L 283.310259 45.371415 
L 280.875055 49.695913 
L 278.439851 46.058414 
L 276.004646 50.687139 
L 273.569442 49.29255 
L 271.134237 51.185131 
L 268.699033 49.123313 
L 266.263829 51.335597 
L 263.828624 56.806589 
L 261.39342 42.390457 
L 258.958215 56.51186 
L 256.523011 52.317354 
L 254.087807 53.681469 
L 251.652602 54.530753 
L 249.217398 52.999789 
L 246.782193 57.261301 
L 244.346989 57.77677 
L 241.911785 51.678725 
L 239.47658 46.968985 
L 237.041376 60.468455 
L 234.606171 53.41456 
L 232.170967 57.931658 
L 229.735763 49.935067 
L 227.300558 52.538054 
L 224.865354 54.205081 
L 222.430149 63.71197 
L 219.994945 61.182775 
L 217.559741 51.539119 
L 215.124536 49.685035 
L 212.689332 48.527105 
L 210.254128 55.391141 
L 207.818923 54.06841 
L 205.383719 60.043727 
L 202.948514 57.080318 
L 200.51331 61.431679 
L 198.078106 53.93546 
L 195.642901 53.570911 
L 193.207697 57.647801 
L 190.772492 59.742308 
L 188.337288 52.633765 
L 185.902084 63.907771 
L 183.466879 50.578737 
L 181.031675 59.611164 
L 178.59647 64.157658 
L 176.161266 58.894426 
L 173.726062 55.023235 
L 171.290857 53.959376 
L 168.855653 65.346448 
L 166.420448 55.966465 
L 163.985244 63.962833 
L 161.55004 59.007059 
L 159.114835 65.202471 
L 156.679631 56.603668 
L 154.244426 60.683758 
L 151.809222 61.501076 
L 149.374018 58.333481 
L 146.938813 69.999717 
L 144.503609 61.70794 
L 142.068405 58.345071 
L 139.6332 66.930188 
L 137.197996 68.471564 
L 134.762791 63.626561 
L 132.327587 67.664828 
L 129.892383 63.406581 
L 127.457178 68.975689 
L 125.021974 58.646235 
L 122.586769 65.942199 
L 120.151565 56.090159 
L 117.716361 66.814375 
L 115.281156 66.946931 
L 112.845952 74.464399 
L 110.410747 75.920837 
L 107.975543 65.204318 
L 105.540339 72.642123 
L 103.105134 67.633705 
L 100.66993 69.435972 
L 98.234725 76.039386 
L 95.799521 77.008933 
L 93.364317 94.214438 
L 90.929112 91.229393 
L 88.493908 104.228469 
L 86.058703 107.178652 
L 83.623499 126.197834 
L 81.188295 137.91323 
L 78.75309 175.929133 
L 76.317886 210.86356 
L 73.882682 228.378508 
L 71.447477 246.47041 
L 69.012273 280.222838 
z
" style="fill:#2ca02c;fill-opacity:0.25;"/>
   </g>
   <g id="matplotlib.axis_1">
    <g id="xtick_1">
     <g id="line2d_1">
      <defs>
       <path d="M 0 0 
L 0 3.5 
" id="mf0f16e0cda" style="stroke:#000000;stroke-width:0.8;"/>
      </defs>
      <g>
       <use style="stroke:#000000;stroke-width:0.8;" x="69.012273" xlink:href="#mf0f16e0cda" y="303.64"/>
      </g>
     </g>
     <g id="text_1">
      <!-- 0 -->
      <g transform="translate(65.831023 318.238437)scale(0.1 -0.1)">
       <defs>
        <path d="M 31.78125 66.40625 
Q 24.171875 66.40625 20.328125 58.90625 
Q 16.5 51.421875 16.5 36.375 
Q 16.5 21.390625 20.328125 13.890625 
Q 24.171875 6.390625 31.78125 6.390625 
Q 39.453125 6.390625 43.28125 13.890625 
Q 47.125 21.390625 47.125 36.375 
Q 47.125 51.421875 43.28125 58.90625 
Q 39.453125 66.40625 31.78125 66.40625 
z
M 31.78125 74.21875 
Q 44.046875 74.21875 50.515625 64.515625 
Q 56.984375 54.828125 56.984375 36.375 
Q 56.984375 17.96875 50.515625 8.265625 
Q 44.046875 -1.421875 31.78125 -1.421875 
Q 19.53125 -1.421875 13.0625 8.265625 
Q 6.59375 17.96875 6.59375 36.375 
Q 6.59375 54.828125 13.0625 64.515625 
Q 19.53125 74.21875 31.78125 74.21875 
z
" id="DejaVuSans-48"/>
       </defs>
       <use xlink:href="#DejaVuSans-48"/>
      </g>
     </g>
    </g>
    <g id="xtick_2">
     <g id="line2d_2">
      <g>
       <use style="stroke:#000000;stroke-width:0.8;" x="117.716361" xlink:href="#mf0f16e0cda" y="303.64"/>
      </g>
     </g>
     <g id="text_2">
      <!-- 20 -->
      <g transform="translate(111.353861 318.238437)scale(0.1 -0.1)">
       <defs>
        <path d="M 19.1875 8.296875 
L 53.609375 8.296875 
L 53.609375 0 
L 7.328125 0 
L 7.328125 8.296875 
Q 12.9375 14.109375 22.625 23.890625 
Q 32.328125 33.6875 34.8125 36.53125 
Q 39.546875 41.84375 41.421875 45.53125 
Q 43.3125 49.21875 43.3125 52.78125 
Q 43.3125 58.59375 39.234375 62.25 
Q 35.15625 65.921875 28.609375 65.921875 
Q 23.96875 65.921875 18.8125 64.3125 
Q 13.671875 62.703125 7.8125 59.421875 
L 7.8125 69.390625 
Q 13.765625 71.78125 18.9375 73 
Q 24.125 74.21875 28.421875 74.21875 
Q 39.75 74.21875 46.484375 68.546875 
Q 53.21875 62.890625 53.21875 53.421875 
Q 53.21875 48.921875 51.53125 44.890625 
Q 49.859375 40.875 45.40625 35.40625 
Q 44.1875 33.984375 37.640625 27.21875 
Q 31.109375 20.453125 19.1875 8.296875 
z
" id="DejaVuSans-50"/>
       </defs>
       <use xlink:href="#DejaVuSans-50"/>
       <use x="63.623047" xlink:href="#DejaVuSans-48"/>
      </g>
     </g>
    </g>
    <g id="xtick_3">
     <g id="line2d_3">
      <g>
       <use style="stroke:#000000;stroke-width:0.8;" x="166.420448" xlink:href="#mf0f16e0cda" y="303.64"/>
      </g>
     </g>
     <g id="text_3">
      <!-- 40 -->
      <g transform="translate(160.057948 318.238437)scale(0.1 -0.1)">
       <defs>
        <path d="M 37.796875 64.3125 
L 12.890625 25.390625 
L 37.796875 25.390625 
z
M 35.203125 72.90625 
L 47.609375 72.90625 
L 47.609375 25.390625 
L 58.015625 25.390625 
L 58.015625 17.1875 
L 47.609375 17.1875 
L 47.609375 0 
L 37.796875 0 
L 37.796875 17.1875 
L 4.890625 17.1875 
L 4.890625 26.703125 
z
" id="DejaVuSans-52"/>
       </defs>
       <use xlink:href="#DejaVuSans-52"/>
       <use x="63.623047" xlink:href="#DejaVuSans-48"/>
      </g>
     </g>
    </g>
    <g id="xtick_4">
     <g id="line2d_4">
      <g>
       <use style="stroke:#000000;stroke-width:0.8;" x="215.124536" xlink:href="#mf0f16e0cda" y="303.64"/>
      </g>
     </g>
     <g id="text_4">
      <!-- 60 -->
      <g transform="translate(208.762036 318.238437)scale(0.1 -0.1)">
       <defs>
        <path d="M 33.015625 40.375 
Q 26.375 40.375 22.484375 35.828125 
Q 18.609375 31.296875 18.609375 23.390625 
Q 18.609375 15.53125 22.484375 10.953125 
Q 26.375 6.390625 33.015625 6.390625 
Q 39.65625 6.390625 43.53125 10.953125 
Q 47.40625 15.53125 47.40625 23.390625 
Q 47.40625 31.296875 43.53125 35.828125 
Q 39.65625 40.375 33.015625 40.375 
z
M 52.59375 71.296875 
L 52.59375 62.3125 
Q 48.875 64.0625 45.09375 64.984375 
Q 41.3125 65.921875 37.59375 65.921875 
Q 27.828125 65.921875 22.671875 59.328125 
Q 17.53125 52.734375 16.796875 39.40625 
Q 19.671875 43.65625 24.015625 45.921875 
Q 28.375 48.1875 33.59375 48.1875 
Q 44.578125 48.1875 50.953125 41.515625 
Q 57.328125 34.859375 57.328125 23.390625 
Q 57.328125 12.15625 50.6875 5.359375 
Q 44.046875 -1.421875 33.015625 -1.421875 
Q 20.359375 -1.421875 13.671875 8.265625 
Q 6.984375 17.96875 6.984375 36.375 
Q 6.984375 53.65625 15.1875 63.9375 
Q 23.390625 74.21875 37.203125 74.21875 
Q 40.921875 74.21875 44.703125 73.484375 
Q 48.484375 72.75 52.59375 71.296875 
z
" id="DejaVuSans-54"/>
       </defs>
       <use xlink:href="#DejaVuSans-54"/>
       <use x="63.623047" xlink:href="#DejaVuSans-48"/>
      </g>
     </g>
    </g>
    <g id="xtick_5">
     <g id="line2d_5">
      <g>
       <use style="stroke:#000000;stroke-width:0.8;" x="263.828624" xlink:href="#mf0f16e0cda" y="303.64"/>
      </g>
     </g>
     <g id="text_5">
      <!-- 80 -->
      <g transform="translate(257.466124 318.238437)scale(0.1 -0.1)">
       <defs>
        <path d="M 31.78125 34.625 
Q 24.75 34.625 20.71875 30.859375 
Q 16.703125 27.09375 16.703125 20.515625 
Q 16.703125 13.921875 20.71875 10.15625 
Q 24.75 6.390625 31.78125 6.390625 
Q 38.8125 6.390625 42.859375 10.171875 
Q 46.921875 13.96875 46.921875 20.515625 
Q 46.921875 27.09375 42.890625 30.859375 
Q 38.875 34.625 31.78125 34.625 
z
M 21.921875 38.8125 
Q 15.578125 40.375 12.03125 44.71875 
Q 8.5 49.078125 8.5 55.328125 
Q 8.5 64.0625 14.71875 69.140625 
Q 20.953125 74.21875 31.78125 74.21875 
Q 42.671875 74.21875 48.875 69.140625 
Q 55.078125 64.0625 55.078125 55.328125 
Q 55.078125 49.078125 51.53125 44.71875 
Q 48 40.375 41.703125 38.8125 
Q 48.828125 37.15625 52.796875 32.3125 
Q 56.78125 27.484375 56.78125 20.515625 
Q 56.78125 9.90625 50.3125 4.234375 
Q 43.84375 -1.421875 31.78125 -1.421875 
Q 19.734375 -1.421875 13.25 4.234375 
Q 6.78125 9.90625 6.78125 20.515625 
Q 6.78125 27.484375 10.78125 32.3125 
Q 14.796875 37.15625 21.921875 38.8125 
z
M 18.3125 54.390625 
Q 18.3125 48.734375 21.84375 45.5625 
Q 25.390625 42.390625 31.78125 42.390625 
Q 38.140625 42.390625 41.71875 45.5625 
Q 45.3125 48.734375 45.3125 54.390625 
Q 45.3125 60.0625 41.71875 63.234375 
Q 38.140625 66.40625 31.78125 66.40625 
Q 25.390625 66.40625 21.84375 63.234375 
Q 18.3125 60.0625 18.3125 54.390625 
z
" id="DejaVuSans-56"/>
       </defs>
       <use xlink:href="#DejaVuSans-56"/>
       <use x="63.623047" xlink:href="#DejaVuSans-48"/>
      </g>
     </g>
    </g>
    <g id="xtick_6">
     <g id="line2d_6">
      <g>
       <use style="stroke:#000000;stroke-width:0.8;" x="312.532712" xlink:href="#mf0f16e0cda" y="303.64"/>
      </g>
     </g>
     <g id="text_6">
      <!-- 100 -->
      <g transform="translate(302.988962 318.238437)scale(0.1 -0.1)">
       <defs>
        <path d="M 12.40625 8.296875 
L 28.515625 8.296875 
L 28.515625 63.921875 
L 10.984375 60.40625 
L 10.984375 69.390625 
L 28.421875 72.90625 
L 38.28125 72.90625 
L 38.28125 8.296875 
L 54.390625 8.296875 
L 54.390625 0 
L 12.40625 0 
z
" id="DejaVuSans-49"/>
       </defs>
       <use xlink:href="#DejaVuSans-49"/>
       <use x="63.623047" xlink:href="#DejaVuSans-48"/>
       <use x="127.246094" xlink:href="#DejaVuSans-48"/>
      </g>
     </g>
    </g>
    <g id="xtick_7">
     <g id="line2d_7">
      <g>
       <use style="stroke:#000000;stroke-width:0.8;" x="361.2368" xlink:href="#mf0f16e0cda" y="303.64"/>
      </g>
     </g>
     <g id="text_7">
      <!-- 120 -->
      <g transform="translate(351.69305 318.238437)scale(0.1 -0.1)">
       <use xlink:href="#DejaVuSans-49"/>
       <use x="63.623047" xlink:href="#DejaVuSans-50"/>
       <use x="127.246094" xlink:href="#DejaVuSans-48"/>
      </g>
     </g>
    </g>
    <g id="xtick_8">
     <g id="line2d_8">
      <g>
       <use style="stroke:#000000;stroke-width:0.8;" x="409.940888" xlink:href="#mf0f16e0cda" y="303.64"/>
      </g>
     </g>
     <g id="text_8">
      <!-- 140 -->
      <g transform="translate(400.397138 318.238437)scale(0.1 -0.1)">
       <use xlink:href="#DejaVuSans-49"/>
       <use x="63.623047" xlink:href="#DejaVuSans-52"/>
       <use x="127.246094" xlink:href="#DejaVuSans-48"/>
      </g>
     </g>
    </g>
    <g id="text_9">
     <!-- Epochs -->
     <g transform="translate(232.519375 331.916562)scale(0.1 -0.1)">
      <defs>
       <path d="M 9.8125 72.90625 
L 55.90625 72.90625 
L 55.90625 64.59375 
L 19.671875 64.59375 
L 19.671875 43.015625 
L 54.390625 43.015625 
L 54.390625 34.71875 
L 19.671875 34.71875 
L 19.671875 8.296875 
L 56.78125 8.296875 
L 56.78125 0 
L 9.8125 0 
z
" id="DejaVuSans-69"/>
       <path d="M 18.109375 8.203125 
L 18.109375 -20.796875 
L 9.078125 -20.796875 
L 9.078125 54.6875 
L 18.109375 54.6875 
L 18.109375 46.390625 
Q 20.953125 51.265625 25.265625 53.625 
Q 29.59375 56 35.59375 56 
Q 45.5625 56 51.78125 48.09375 
Q 58.015625 40.1875 58.015625 27.296875 
Q 58.015625 14.40625 51.78125 6.484375 
Q 45.5625 -1.421875 35.59375 -1.421875 
Q 29.59375 -1.421875 25.265625 0.953125 
Q 20.953125 3.328125 18.109375 8.203125 
z
M 48.6875 27.296875 
Q 48.6875 37.203125 44.609375 42.84375 
Q 40.53125 48.484375 33.40625 48.484375 
Q 26.265625 48.484375 22.1875 42.84375 
Q 18.109375 37.203125 18.109375 27.296875 
Q 18.109375 17.390625 22.1875 11.75 
Q 26.265625 6.109375 33.40625 6.109375 
Q 40.53125 6.109375 44.609375 11.75 
Q 48.6875 17.390625 48.6875 27.296875 
z
" id="DejaVuSans-112"/>
       <path d="M 30.609375 48.390625 
Q 23.390625 48.390625 19.1875 42.75 
Q 14.984375 37.109375 14.984375 27.296875 
Q 14.984375 17.484375 19.15625 11.84375 
Q 23.34375 6.203125 30.609375 6.203125 
Q 37.796875 6.203125 41.984375 11.859375 
Q 46.1875 17.53125 46.1875 27.296875 
Q 46.1875 37.015625 41.984375 42.703125 
Q 37.796875 48.390625 30.609375 48.390625 
z
M 30.609375 56 
Q 42.328125 56 49.015625 48.375 
Q 55.71875 40.765625 55.71875 27.296875 
Q 55.71875 13.875 49.015625 6.21875 
Q 42.328125 -1.421875 30.609375 -1.421875 
Q 18.84375 -1.421875 12.171875 6.21875 
Q 5.515625 13.875 5.515625 27.296875 
Q 5.515625 40.765625 12.171875 48.375 
Q 18.84375 56 30.609375 56 
z
" id="DejaVuSans-111"/>
       <path d="M 48.78125 52.59375 
L 48.78125 44.1875 
Q 44.96875 46.296875 41.140625 47.34375 
Q 37.3125 48.390625 33.40625 48.390625 
Q 24.65625 48.390625 19.8125 42.84375 
Q 14.984375 37.3125 14.984375 27.296875 
Q 14.984375 17.28125 19.8125 11.734375 
Q 24.65625 6.203125 33.40625 6.203125 
Q 37.3125 6.203125 41.140625 7.25 
Q 44.96875 8.296875 48.78125 10.40625 
L 48.78125 2.09375 
Q 45.015625 0.34375 40.984375 -0.53125 
Q 36.96875 -1.421875 32.421875 -1.421875 
Q 20.0625 -1.421875 12.78125 6.34375 
Q 5.515625 14.109375 5.515625 27.296875 
Q 5.515625 40.671875 12.859375 48.328125 
Q 20.21875 56 33.015625 56 
Q 37.15625 56 41.109375 55.140625 
Q 45.0625 54.296875 48.78125 52.59375 
z
" id="DejaVuSans-99"/>
       <path d="M 54.890625 33.015625 
L 54.890625 0 
L 45.90625 0 
L 45.90625 32.71875 
Q 45.90625 40.484375 42.875 44.328125 
Q 39.84375 48.1875 33.796875 48.1875 
Q 26.515625 48.1875 22.3125 43.546875 
Q 18.109375 38.921875 18.109375 30.90625 
L 18.109375 0 
L 9.078125 0 
L 9.078125 75.984375 
L 18.109375 75.984375 
L 18.109375 46.1875 
Q 21.34375 51.125 25.703125 53.5625 
Q 30.078125 56 35.796875 56 
Q 45.21875 56 50.046875 50.171875 
Q 54.890625 44.34375 54.890625 33.015625 
z
" id="DejaVuSans-104"/>
       <path d="M 44.28125 53.078125 
L 44.28125 44.578125 
Q 40.484375 46.53125 36.375 47.5 
Q 32.28125 48.484375 27.875 48.484375 
Q 21.1875 48.484375 17.84375 46.4375 
Q 14.5 44.390625 14.5 40.28125 
Q 14.5 37.15625 16.890625 35.375 
Q 19.28125 33.59375 26.515625 31.984375 
L 29.59375 31.296875 
Q 39.15625 29.25 43.1875 25.515625 
Q 47.21875 21.78125 47.21875 15.09375 
Q 47.21875 7.46875 41.1875 3.015625 
Q 35.15625 -1.421875 24.609375 -1.421875 
Q 20.21875 -1.421875 15.453125 -0.5625 
Q 10.6875 0.296875 5.421875 2 
L 5.421875 11.28125 
Q 10.40625 8.6875 15.234375 7.390625 
Q 20.0625 6.109375 24.8125 6.109375 
Q 31.15625 6.109375 34.5625 8.28125 
Q 37.984375 10.453125 37.984375 14.40625 
Q 37.984375 18.0625 35.515625 20.015625 
Q 33.0625 21.96875 24.703125 23.78125 
L 21.578125 24.515625 
Q 13.234375 26.265625 9.515625 29.90625 
Q 5.8125 33.546875 5.8125 39.890625 
Q 5.8125 47.609375 11.28125 51.796875 
Q 16.75 56 26.8125 56 
Q 31.78125 56 36.171875 55.265625 
Q 40.578125 54.546875 44.28125 53.078125 
z
" id="DejaVuSans-115"/>
      </defs>
      <use xlink:href="#DejaVuSans-69"/>
      <use x="63.183594" xlink:href="#DejaVuSans-112"/>
      <use x="126.660156" xlink:href="#DejaVuSans-111"/>
      <use x="187.841797" xlink:href="#DejaVuSans-99"/>
      <use x="242.822266" xlink:href="#DejaVuSans-104"/>
      <use x="306.201172" xlink:href="#DejaVuSans-115"/>
     </g>
    </g>
   </g>
   <g id="matplotlib.axis_2">
    <g id="ytick_1">
     <g id="line2d_9">
      <defs>
       <path d="M 0 0 
L -3.5 0 
" id="mef3c895a1e" style="stroke:#000000;stroke-width:0.8;"/>
      </defs>
      <g>
       <use style="stroke:#000000;stroke-width:0.8;" x="50.87" xlink:href="#mef3c895a1e" y="255.547653"/>
      </g>
     </g>
     <g id="text_10">
      <!-- 20 -->
      <g transform="translate(31.145 259.346872)scale(0.1 -0.1)">
       <use xlink:href="#DejaVuSans-50"/>
       <use x="63.623047" xlink:href="#DejaVuSans-48"/>
      </g>
     </g>
    </g>
    <g id="ytick_2">
     <g id="line2d_10">
      <g>
       <use style="stroke:#000000;stroke-width:0.8;" x="50.87" xlink:href="#mef3c895a1e" y="197.424902"/>
      </g>
     </g>
     <g id="text_11">
      <!-- 40 -->
      <g transform="translate(31.145 201.22412)scale(0.1 -0.1)">
       <use xlink:href="#DejaVuSans-52"/>
       <use x="63.623047" xlink:href="#DejaVuSans-48"/>
      </g>
     </g>
    </g>
    <g id="ytick_3">
     <g id="line2d_11">
      <g>
       <use style="stroke:#000000;stroke-width:0.8;" x="50.87" xlink:href="#mef3c895a1e" y="139.30215"/>
      </g>
     </g>
     <g id="text_12">
      <!-- 60 -->
      <g transform="translate(31.145 143.101369)scale(0.1 -0.1)">
       <use xlink:href="#DejaVuSans-54"/>
       <use x="63.623047" xlink:href="#DejaVuSans-48"/>
      </g>
     </g>
    </g>
    <g id="ytick_4">
     <g id="line2d_12">
      <g>
       <use style="stroke:#000000;stroke-width:0.8;" x="50.87" xlink:href="#mef3c895a1e" y="81.179399"/>
      </g>
     </g>
     <g id="text_13">
      <!-- 80 -->
      <g transform="translate(31.145 84.978618)scale(0.1 -0.1)">
       <use xlink:href="#DejaVuSans-56"/>
       <use x="63.623047" xlink:href="#DejaVuSans-48"/>
      </g>
     </g>
    </g>
    <g id="ytick_5">
     <g id="line2d_13">
      <g>
       <use style="stroke:#000000;stroke-width:0.8;" x="50.87" xlink:href="#mef3c895a1e" y="23.056648"/>
      </g>
     </g>
     <g id="text_14">
      <!-- 100 -->
      <g transform="translate(24.7825 26.855867)scale(0.1 -0.1)">
       <use xlink:href="#DejaVuSans-49"/>
       <use x="63.623047" xlink:href="#DejaVuSans-48"/>
       <use x="127.246094" xlink:href="#DejaVuSans-48"/>
      </g>
     </g>
    </g>
    <g id="text_15">
     <!-- Test Accuracy (%) -->
     <g transform="translate(18.702813 201.723906)rotate(-90)scale(0.1 -0.1)">
      <defs>
       <path d="M -0.296875 72.90625 
L 61.375 72.90625 
L 61.375 64.59375 
L 35.5 64.59375 
L 35.5 0 
L 25.59375 0 
L 25.59375 64.59375 
L -0.296875 64.59375 
z
" id="DejaVuSans-84"/>
       <path d="M 56.203125 29.59375 
L 56.203125 25.203125 
L 14.890625 25.203125 
Q 15.484375 15.921875 20.484375 11.0625 
Q 25.484375 6.203125 34.421875 6.203125 
Q 39.59375 6.203125 44.453125 7.46875 
Q 49.3125 8.734375 54.109375 11.28125 
L 54.109375 2.78125 
Q 49.265625 0.734375 44.1875 -0.34375 
Q 39.109375 -1.421875 33.890625 -1.421875 
Q 20.796875 -1.421875 13.15625 6.1875 
Q 5.515625 13.8125 5.515625 26.8125 
Q 5.515625 40.234375 12.765625 48.109375 
Q 20.015625 56 32.328125 56 
Q 43.359375 56 49.78125 48.890625 
Q 56.203125 41.796875 56.203125 29.59375 
z
M 47.21875 32.234375 
Q 47.125 39.59375 43.09375 43.984375 
Q 39.0625 48.390625 32.421875 48.390625 
Q 24.90625 48.390625 20.390625 44.140625 
Q 15.875 39.890625 15.1875 32.171875 
z
" id="DejaVuSans-101"/>
       <path d="M 18.3125 70.21875 
L 18.3125 54.6875 
L 36.8125 54.6875 
L 36.8125 47.703125 
L 18.3125 47.703125 
L 18.3125 18.015625 
Q 18.3125 11.328125 20.140625 9.421875 
Q 21.96875 7.515625 27.59375 7.515625 
L 36.8125 7.515625 
L 36.8125 0 
L 27.59375 0 
Q 17.1875 0 13.234375 3.875 
Q 9.28125 7.765625 9.28125 18.015625 
L 9.28125 47.703125 
L 2.6875 47.703125 
L 2.6875 54.6875 
L 9.28125 54.6875 
L 9.28125 70.21875 
z
" id="DejaVuSans-116"/>
       <path id="DejaVuSans-32"/>
       <path d="M 34.1875 63.1875 
L 20.796875 26.90625 
L 47.609375 26.90625 
z
M 28.609375 72.90625 
L 39.796875 72.90625 
L 67.578125 0 
L 57.328125 0 
L 50.6875 18.703125 
L 17.828125 18.703125 
L 11.1875 0 
L 0.78125 0 
z
" id="DejaVuSans-65"/>
       <path d="M 8.5 21.578125 
L 8.5 54.6875 
L 17.484375 54.6875 
L 17.484375 21.921875 
Q 17.484375 14.15625 20.5 10.265625 
Q 23.53125 6.390625 29.59375 6.390625 
Q 36.859375 6.390625 41.078125 11.03125 
Q 45.3125 15.671875 45.3125 23.6875 
L 45.3125 54.6875 
L 54.296875 54.6875 
L 54.296875 0 
L 45.3125 0 
L 45.3125 8.40625 
Q 42.046875 3.421875 37.71875 1 
Q 33.40625 -1.421875 27.6875 -1.421875 
Q 18.265625 -1.421875 13.375 4.4375 
Q 8.5 10.296875 8.5 21.578125 
z
M 31.109375 56 
z
" id="DejaVuSans-117"/>
       <path d="M 41.109375 46.296875 
Q 39.59375 47.171875 37.8125 47.578125 
Q 36.03125 48 33.890625 48 
Q 26.265625 48 22.1875 43.046875 
Q 18.109375 38.09375 18.109375 28.8125 
L 18.109375 0 
L 9.078125 0 
L 9.078125 54.6875 
L 18.109375 54.6875 
L 18.109375 46.1875 
Q 20.953125 51.171875 25.484375 53.578125 
Q 30.03125 56 36.53125 56 
Q 37.453125 56 38.578125 55.875 
Q 39.703125 55.765625 41.0625 55.515625 
z
" id="DejaVuSans-114"/>
       <path d="M 34.28125 27.484375 
Q 23.390625 27.484375 19.1875 25 
Q 14.984375 22.515625 14.984375 16.5 
Q 14.984375 11.71875 18.140625 8.90625 
Q 21.296875 6.109375 26.703125 6.109375 
Q 34.1875 6.109375 38.703125 11.40625 
Q 43.21875 16.703125 43.21875 25.484375 
L 43.21875 27.484375 
z
M 52.203125 31.203125 
L 52.203125 0 
L 43.21875 0 
L 43.21875 8.296875 
Q 40.140625 3.328125 35.546875 0.953125 
Q 30.953125 -1.421875 24.3125 -1.421875 
Q 15.921875 -1.421875 10.953125 3.296875 
Q 6 8.015625 6 15.921875 
Q 6 25.140625 12.171875 29.828125 
Q 18.359375 34.515625 30.609375 34.515625 
L 43.21875 34.515625 
L 43.21875 35.40625 
Q 43.21875 41.609375 39.140625 45 
Q 35.0625 48.390625 27.6875 48.390625 
Q 23 48.390625 18.546875 47.265625 
Q 14.109375 46.140625 10.015625 43.890625 
L 10.015625 52.203125 
Q 14.9375 54.109375 19.578125 55.046875 
Q 24.21875 56 28.609375 56 
Q 40.484375 56 46.34375 49.84375 
Q 52.203125 43.703125 52.203125 31.203125 
z
" id="DejaVuSans-97"/>
       <path d="M 32.171875 -5.078125 
Q 28.375 -14.84375 24.75 -17.8125 
Q 21.140625 -20.796875 15.09375 -20.796875 
L 7.90625 -20.796875 
L 7.90625 -13.28125 
L 13.1875 -13.28125 
Q 16.890625 -13.28125 18.9375 -11.515625 
Q 21 -9.765625 23.484375 -3.21875 
L 25.09375 0.875 
L 2.984375 54.6875 
L 12.5 54.6875 
L 29.59375 11.921875 
L 46.6875 54.6875 
L 56.203125 54.6875 
z
" id="DejaVuSans-121"/>
       <path d="M 31 75.875 
Q 24.46875 64.65625 21.28125 53.65625 
Q 18.109375 42.671875 18.109375 31.390625 
Q 18.109375 20.125 21.3125 9.0625 
Q 24.515625 -2 31 -13.1875 
L 23.1875 -13.1875 
Q 15.875 -1.703125 12.234375 9.375 
Q 8.59375 20.453125 8.59375 31.390625 
Q 8.59375 42.28125 12.203125 53.3125 
Q 15.828125 64.359375 23.1875 75.875 
z
" id="DejaVuSans-40"/>
       <path d="M 72.703125 32.078125 
Q 68.453125 32.078125 66.03125 28.46875 
Q 63.625 24.859375 63.625 18.40625 
Q 63.625 12.0625 66.03125 8.421875 
Q 68.453125 4.78125 72.703125 4.78125 
Q 76.859375 4.78125 79.265625 8.421875 
Q 81.6875 12.0625 81.6875 18.40625 
Q 81.6875 24.8125 79.265625 28.4375 
Q 76.859375 32.078125 72.703125 32.078125 
z
M 72.703125 38.28125 
Q 80.421875 38.28125 84.953125 32.90625 
Q 89.5 27.546875 89.5 18.40625 
Q 89.5 9.28125 84.9375 3.921875 
Q 80.375 -1.421875 72.703125 -1.421875 
Q 64.890625 -1.421875 60.34375 3.921875 
Q 55.8125 9.28125 55.8125 18.40625 
Q 55.8125 27.59375 60.375 32.9375 
Q 64.9375 38.28125 72.703125 38.28125 
z
M 22.3125 68.015625 
Q 18.109375 68.015625 15.6875 64.375 
Q 13.28125 60.75 13.28125 54.390625 
Q 13.28125 47.953125 15.671875 44.328125 
Q 18.0625 40.71875 22.3125 40.71875 
Q 26.5625 40.71875 28.96875 44.328125 
Q 31.390625 47.953125 31.390625 54.390625 
Q 31.390625 60.6875 28.953125 64.34375 
Q 26.515625 68.015625 22.3125 68.015625 
z
M 66.40625 74.21875 
L 74.21875 74.21875 
L 28.609375 -1.421875 
L 20.796875 -1.421875 
z
M 22.3125 74.21875 
Q 30.03125 74.21875 34.609375 68.875 
Q 39.203125 63.53125 39.203125 54.390625 
Q 39.203125 45.171875 34.640625 39.84375 
Q 30.078125 34.515625 22.3125 34.515625 
Q 14.546875 34.515625 10.03125 39.859375 
Q 5.515625 45.21875 5.515625 54.390625 
Q 5.515625 63.484375 10.046875 68.84375 
Q 14.59375 74.21875 22.3125 74.21875 
z
" id="DejaVuSans-37"/>
       <path d="M 8.015625 75.875 
L 15.828125 75.875 
Q 23.140625 64.359375 26.78125 53.3125 
Q 30.421875 42.28125 30.421875 31.390625 
Q 30.421875 20.453125 26.78125 9.375 
Q 23.140625 -1.703125 15.828125 -13.1875 
L 8.015625 -13.1875 
Q 14.5 -2 17.703125 9.0625 
Q 20.90625 20.125 20.90625 31.390625 
Q 20.90625 42.671875 17.703125 53.65625 
Q 14.5 64.65625 8.015625 75.875 
z
" id="DejaVuSans-41"/>
      </defs>
      <use xlink:href="#DejaVuSans-84"/>
      <use x="44.083984" xlink:href="#DejaVuSans-101"/>
      <use x="105.607422" xlink:href="#DejaVuSans-115"/>
      <use x="157.707031" xlink:href="#DejaVuSans-116"/>
      <use x="196.916016" xlink:href="#DejaVuSans-32"/>
      <use x="228.703125" xlink:href="#DejaVuSans-65"/>
      <use x="295.361328" xlink:href="#DejaVuSans-99"/>
      <use x="350.341797" xlink:href="#DejaVuSans-99"/>
      <use x="405.322266" xlink:href="#DejaVuSans-117"/>
      <use x="468.701172" xlink:href="#DejaVuSans-114"/>
      <use x="509.814453" xlink:href="#DejaVuSans-97"/>
      <use x="571.09375" xlink:href="#DejaVuSans-99"/>
      <use x="626.074219" xlink:href="#DejaVuSans-121"/>
      <use x="685.253906" xlink:href="#DejaVuSans-32"/>
      <use x="717.041016" xlink:href="#DejaVuSans-40"/>
      <use x="756.054688" xlink:href="#DejaVuSans-37"/>
      <use x="851.074219" xlink:href="#DejaVuSans-41"/>
     </g>
    </g>
   </g>
   <g id="line2d_14">
    <path clip-path="url(#p9c46d76c4d)" d="M 69.012273 244.649637 
L 71.447477 253.277233 
L 73.882682 280.068188 
L 76.317886 258.726241 
L 78.75309 232.843453 
L 81.188295 231.935285 
L 83.623499 233.751621 
L 86.058703 191.52181 
L 88.493908 173.812534 
L 90.929112 149.746082 
L 93.364317 120.684707 
L 95.799521 118.868371 
L 98.234725 142.480738 
L 100.66993 112.511195 
L 103.105134 123.409211 
L 105.540339 93.439667 
L 107.975543 105.699935 
L 110.410747 99.342759 
L 112.845952 93.439667 
L 115.281156 85.720239 
L 117.716361 102.975431 
L 120.151565 109.786691 
L 122.586769 73.459971 
L 125.021974 89.352911 
L 127.457178 85.720239 
L 129.892383 99.796843 
L 132.327587 102.521347 
L 134.762791 75.276307 
L 137.197996 63.924207 
L 139.6332 87.536575 
L 142.068405 70.281383 
L 144.503609 74.368139 
L 146.938813 67.556879 
L 149.374018 61.653787 
L 151.809222 57.567032 
L 154.244426 61.199703 
L 156.679631 78.000811 
L 159.114835 64.832375 
L 161.55004 57.112948 
L 163.985244 64.832375 
L 166.420448 68.010963 
L 168.855653 59.383368 
L 171.290857 70.735467 
L 173.726062 66.648711 
L 176.161266 79.363063 
L 178.59647 58.929284 
L 181.031675 78.000811 
L 183.466879 69.373215 
L 185.902084 58.4752 
L 188.337288 80.271231 
L 190.772492 58.4752 
L 193.207697 82.087567 
L 195.642901 53.026192 
L 198.078106 65.286459 
L 200.51331 80.725315 
L 202.948514 59.837452 
L 205.383719 73.005887 
L 207.818923 57.567032 
L 210.254128 61.199703 
L 212.689332 55.750696 
L 215.124536 58.021116 
L 217.559741 43.944512 
L 219.994945 61.653787 
L 222.430149 56.658864 
L 224.865354 62.561955 
L 227.300558 43.944512 
L 229.735763 45.760848 
L 232.170967 55.750696 
L 234.606171 51.66394 
L 237.041376 52.118024 
L 239.47658 55.750696 
L 241.911785 67.556879 
L 244.346989 48.939436 
L 246.782193 56.20478 
L 249.217398 57.112948 
L 251.652602 54.388444 
L 254.087807 54.388444 
L 256.523011 40.31184 
L 258.958215 49.847604 
L 261.39342 56.658864 
L 263.828624 46.214932 
L 266.263829 50.755772 
L 268.699033 57.112948 
L 271.134237 57.567032 
L 273.569442 50.301688 
L 276.004646 57.567032 
L 278.439851 42.128176 
L 280.875055 59.837452 
L 283.310259 63.470123 
L 285.745464 50.301688 
L 288.180668 52.118024 
L 290.615872 48.939436 
L 293.051077 57.567032 
L 295.486281 44.398596 
L 297.921486 46.669016 
L 300.35669 47.577184 
L 302.791894 46.669016 
L 305.227099 57.112948 
L 307.662303 47.577184 
L 310.097508 48.939436 
L 312.532712 44.85268 
L 314.967916 53.026192 
L 317.403121 47.577184 
L 319.838325 45.760848 
L 322.27353 52.118024 
L 324.708734 46.669016 
L 327.143938 42.128176 
L 329.579143 46.214932 
L 332.014347 45.306764 
L 334.449552 48.485352 
L 336.884756 46.669016 
L 339.31996 50.755772 
L 341.755165 38.04142 
L 344.190369 44.398596 
L 346.625574 49.39352 
L 349.060778 40.31184 
L 351.495982 40.31184 
L 353.931187 47.577184 
L 356.366391 43.944512 
L 358.801595 43.944512 
L 361.2368 35.771 
L 363.672004 38.949588 
L 366.107209 41.674092 
L 368.542413 36.225084 
L 370.977617 42.128176 
L 373.412822 39.403672 
L 375.848026 38.04142 
L 378.283231 38.495504 
L 380.718435 33.954664 
L 383.153639 36.225084 
L 385.588844 36.679168 
L 388.024048 34.862832 
L 390.459253 36.679168 
L 392.894457 36.679168 
L 395.329661 34.862832 
L 397.764866 36.679168 
L 400.20007 34.862832 
L 402.635275 36.225084 
L 405.070479 36.225084 
L 407.505683 35.771 
L 409.940888 34.862832 
L 412.376092 35.771 
L 414.811297 34.862832 
L 431.857727 34.862832 
L 431.857727 34.862832 
" style="fill:none;stroke:#1f77b4;stroke-linecap:square;stroke-width:1.5;"/>
   </g>
   <g id="line2d_15">
    <path clip-path="url(#p9c46d76c4d)" d="M 69.012273 277.826149 
L 71.447477 276.985384 
L 73.882682 267.949822 
L 76.317886 254.767196 
L 78.75309 258.939093 
L 81.188295 237.600692 
L 83.623499 208.769906 
L 86.058703 188.655404 
L 88.493908 145.602566 
L 90.929112 147.19186 
L 93.364317 135.83976 
L 95.799521 113.476123 
L 98.234725 113.13556 
L 100.66993 121.848297 
L 103.105134 117.279077 
L 105.540339 123.508542 
L 107.975543 80.611794 
L 110.410747 85.351296 
L 112.845952 105.628984 
L 115.281156 94.234314 
L 117.716361 79.959048 
L 120.151565 88.019039 
L 122.586769 82.910594 
L 125.021974 76.950742 
L 127.457178 82.059187 
L 129.892383 85.549958 
L 132.327587 78.171093 
L 134.762791 78.540036 
L 137.197996 72.381522 
L 139.6332 75.247927 
L 142.068405 77.319685 
L 144.503609 91.396289 
L 146.938813 75.985814 
L 149.374018 86.685168 
L 151.809222 73.743774 
L 154.244426 70.678707 
L 156.679631 68.323146 
L 159.114835 83.790382 
L 161.55004 64.378291 
L 163.985244 67.528499 
L 166.420448 60.688859 
L 168.855653 64.17963 
L 173.726062 79.476584 
L 176.161266 62.561955 
L 178.59647 81.974046 
L 181.031675 61.029422 
L 183.466879 74.45328 
L 185.902084 66.733852 
L 188.337288 69.429976 
L 190.772492 82.002426 
L 193.207697 62.249773 
L 195.642901 69.685398 
L 198.078106 61.880829 
L 200.51331 83.705241 
L 202.948514 62.533575 
L 205.383719 68.266386 
L 207.818923 67.329837 
L 210.254128 54.388444 
L 212.689332 58.077876 
L 215.124536 59.184706 
L 217.559741 63.668785 
L 219.994945 60.007733 
L 222.430149 51.74908 
L 224.865354 69.515117 
L 227.300558 56.545343 
L 229.735763 59.922592 
L 232.170967 59.950973 
L 234.606171 67.159556 
L 237.041376 58.163017 
L 239.47658 58.219777 
L 241.911785 58.872523 
L 244.346989 72.835606 
L 246.782193 63.10118 
L 249.217398 64.491812 
L 251.652602 59.61041 
L 254.087807 48.34345 
L 258.958215 74.197858 
L 261.39342 67.500119 
L 263.828624 71.388213 
L 266.263829 70.082722 
L 268.699033 64.20801 
L 271.134237 54.076261 
L 273.569442 48.882675 
L 276.004646 55.211471 
L 278.439851 60.660479 
L 280.875055 55.324992 
L 283.310259 50.755772 
L 285.745464 53.026192 
L 288.180668 48.598873 
L 290.615872 49.052957 
L 293.051077 54.984429 
L 295.486281 54.388444 
L 297.921486 49.39352 
L 300.35669 53.650557 
L 302.791894 53.99112 
L 305.227099 52.174784 
L 307.662303 59.099565 
L 310.097508 46.413593 
L 312.532712 50.159786 
L 314.967916 50.52873 
L 317.403121 50.471969 
L 319.838325 46.839297 
L 322.27353 48.911055 
L 324.708734 44.568877 
L 327.143938 58.134637 
L 329.579143 40.794304 
L 332.014347 49.365139 
L 334.449552 45.391904 
L 336.884756 44.88106 
L 339.31996 44.540497 
L 341.755165 43.660709 
L 344.190369 48.485352 
L 346.625574 45.136482 
L 349.060778 53.054572 
L 351.495982 48.570492 
L 353.931187 40.34022 
L 356.366391 42.270077 
L 358.801595 56.431822 
L 361.2368 42.099796 
L 363.672004 39.14825 
L 366.107209 42.099796 
L 368.542413 48.116408 
L 370.977617 42.270077 
L 373.412822 41.134867 
L 375.848026 38.836067 
L 378.283231 37.927899 
L 380.718435 37.615716 
L 383.153639 40.992966 
L 385.588844 39.119869 
L 388.024048 34.63579 
L 390.459253 39.375292 
L 392.894457 43.064724 
L 395.329661 40.964586 
L 397.764866 35.146634 
L 400.20007 37.076491 
L 402.635275 44.029652 
L 405.070479 42.951203 
L 407.505683 42.61064 
L 409.940888 38.381983 
L 412.376092 40.31184 
L 414.811297 38.694166 
L 417.246501 34.465508 
L 419.681705 36.423746 
L 422.11691 32.33699 
L 424.552114 36.792689 
L 426.987318 36.93459 
L 429.422523 37.530575 
L 431.857727 37.275153 
L 431.857727 37.275153 
" style="fill:none;stroke:#ff7f0e;stroke-linecap:square;stroke-width:1.5;"/>
   </g>
   <g id="line2d_16">
    <path clip-path="url(#p9c46d76c4d)" d="M 69.012273 285.275964 
L 71.447477 259.655694 
L 73.882682 241.825802 
L 76.317886 221.917057 
L 78.75309 190.074417 
L 83.623499 136.208703 
L 86.058703 122.359141 
L 88.493908 132.746313 
L 90.929112 103.003811 
L 93.364317 106.381061 
L 95.799521 91.084106 
L 98.234725 86.145943 
L 100.66993 88.10418 
L 103.105134 92.049035 
L 105.540339 91.226008 
L 107.975543 78.227853 
L 110.410747 88.473123 
L 112.845952 82.825454 
L 115.281156 74.48166 
L 117.716361 81.29292 
L 120.151565 78.057572 
L 122.586769 77.376446 
L 125.021974 69.85568 
L 127.457178 88.785306 
L 129.892383 68.635329 
L 132.327587 81.037498 
L 134.762791 75.56011 
L 137.197996 75.389828 
L 139.6332 80.782076 
L 142.068405 67.301457 
L 144.503609 69.429976 
L 146.938813 78.483276 
L 149.374018 69.373215 
L 151.809222 75.58849 
L 154.244426 80.18609 
L 156.679631 71.785537 
L 159.114835 78.483276 
L 161.55004 65.627022 
L 163.985244 74.964125 
L 166.420448 70.905749 
L 168.855653 73.204549 
L 171.290857 62.221392 
L 173.726062 68.266386 
L 176.161266 71.643635 
L 178.59647 77.915671 
L 181.031675 64.945896 
L 183.466879 56.545343 
L 185.902084 76.411517 
L 188.337288 55.920977 
L 190.772492 68.80561 
L 193.207697 68.152865 
L 195.642901 62.363294 
L 198.078106 60.887521 
L 200.51331 70.735467 
L 202.948514 69.401596 
L 205.383719 68.238005 
L 207.818923 63.356602 
L 210.254128 62.249773 
L 212.689332 64.17963 
L 215.124536 66.336529 
L 217.559741 57.42513 
L 219.994945 75.56011 
L 222.430149 79.618485 
L 224.865354 64.463432 
L 227.300558 58.50358 
L 229.735763 59.298227 
L 232.170967 61.852449 
L 234.606171 58.815763 
L 237.041376 68.351526 
L 239.47658 58.021116 
L 241.911785 61.313224 
L 244.346989 66.024346 
L 246.782193 66.620331 
L 249.217398 66.847373 
L 251.652602 62.420054 
L 254.087807 64.17963 
L 256.523011 63.157941 
L 258.958215 69.458356 
L 261.39342 57.652172 
L 263.828624 66.137867 
L 266.263829 56.602103 
L 268.699033 58.446819 
L 271.134237 55.920977 
L 273.569442 59.553649 
L 276.004646 56.28992 
L 278.439851 55.268231 
L 280.875055 56.488582 
L 283.310259 62.874138 
L 285.745464 57.708933 
L 288.180668 61.597027 
L 290.615872 61.313224 
L 293.051077 54.445204 
L 295.486281 64.151249 
L 297.921486 64.17963 
L 300.35669 56.630483 
L 302.791894 47.747465 
L 305.227099 48.456971 
L 307.662303 50.330068 
L 310.097508 48.882675 
L 312.532712 45.335144 
L 314.967916 48.28669 
L 317.403121 53.253234 
L 319.838325 48.797534 
L 322.27353 50.386828 
L 324.708734 49.081337 
L 327.143938 51.862601 
L 329.579143 47.577184 
L 332.014347 53.026192 
L 334.449552 44.597257 
L 336.884756 43.74585 
L 339.31996 51.890982 
L 341.755165 57.737313 
L 344.190369 54.870908 
L 346.625574 52.231545 
L 349.060778 52.515347 
L 351.495982 48.740774 
L 353.931187 54.416824 
L 356.366391 44.654018 
L 358.801595 51.039574 
L 361.2368 46.867677 
L 363.672004 50.188167 
L 366.107209 41.645712 
L 368.542413 44.483736 
L 370.977617 38.864447 
L 373.412822 41.560571 
L 375.848026 40.936205 
L 378.283231 48.088028 
L 380.718435 49.081337 
L 383.153639 41.049726 
L 385.588844 43.490428 
L 388.024048 42.667401 
L 390.459253 40.198319 
L 392.894457 41.560571 
L 395.329661 40.709163 
L 397.764866 42.411978 
L 400.20007 43.235005 
L 402.635275 37.502195 
L 405.070479 37.757617 
L 407.505683 39.346911 
L 409.940888 40.652403 
L 414.811297 36.366985 
L 417.246501 39.602334 
L 419.681705 38.438743 
L 422.11691 41.986275 
L 424.552114 38.296842 
L 426.987318 43.007963 
L 429.422523 38.580645 
L 431.857727 37.190012 
L 431.857727 37.190012 
" style="fill:none;stroke:#2ca02c;stroke-linecap:square;stroke-width:1.5;"/>
   </g>
   <g id="patch_3">
    <path d="M 50.87 303.64 
L 50.87 10.8 
" style="fill:none;stroke:#000000;stroke-linecap:square;stroke-linejoin:miter;stroke-width:0.8;"/>
   </g>
   <g id="patch_4">
    <path d="M 450 303.64 
L 450 10.8 
" style="fill:none;stroke:#000000;stroke-linecap:square;stroke-linejoin:miter;stroke-width:0.8;"/>
   </g>
   <g id="patch_5">
    <path d="M 50.87 303.64 
L 450 303.64 
" style="fill:none;stroke:#000000;stroke-linecap:square;stroke-linejoin:miter;stroke-width:0.8;"/>
   </g>
   <g id="patch_6">
    <path d="M 50.87 10.8 
L 450 10.8 
" style="fill:none;stroke:#000000;stroke-linecap:square;stroke-linejoin:miter;stroke-width:0.8;"/>
   </g>
   <g id="legend_1">
    <g id="patch_7">
     <path d="M 57.87 62.834375 
L 139.377813 62.834375 
Q 141.377813 62.834375 141.377813 60.834375 
L 141.377813 17.8 
Q 141.377813 15.8 139.377813 15.8 
L 57.87 15.8 
Q 55.87 15.8 55.87 17.8 
L 55.87 60.834375 
Q 55.87 62.834375 57.87 62.834375 
z
" style="fill:#ffffff;opacity:0.8;stroke:#cccccc;stroke-linejoin:miter;"/>
    </g>
    <g id="line2d_17">
     <path d="M 59.87 23.898438 
L 79.87 23.898438 
" style="fill:none;stroke:#1f77b4;stroke-linecap:square;stroke-width:1.5;"/>
    </g>
    <g id="line2d_18"/>
    <g id="text_16">
     <!-- Sync-SGD -->
     <g transform="translate(87.87 27.398438)scale(0.1 -0.1)">
      <defs>
       <path d="M 53.515625 70.515625 
L 53.515625 60.890625 
Q 47.90625 63.578125 42.921875 64.890625 
Q 37.9375 66.21875 33.296875 66.21875 
Q 25.25 66.21875 20.875 63.09375 
Q 16.5 59.96875 16.5 54.203125 
Q 16.5 49.359375 19.40625 46.890625 
Q 22.3125 44.4375 30.421875 42.921875 
L 36.375 41.703125 
Q 47.40625 39.59375 52.65625 34.296875 
Q 57.90625 29 57.90625 20.125 
Q 57.90625 9.515625 50.796875 4.046875 
Q 43.703125 -1.421875 29.984375 -1.421875 
Q 24.8125 -1.421875 18.96875 -0.25 
Q 13.140625 0.921875 6.890625 3.21875 
L 6.890625 13.375 
Q 12.890625 10.015625 18.65625 8.296875 
Q 24.421875 6.59375 29.984375 6.59375 
Q 38.421875 6.59375 43.015625 9.90625 
Q 47.609375 13.234375 47.609375 19.390625 
Q 47.609375 24.75 44.3125 27.78125 
Q 41.015625 30.8125 33.5 32.328125 
L 27.484375 33.5 
Q 16.453125 35.6875 11.515625 40.375 
Q 6.59375 45.0625 6.59375 53.421875 
Q 6.59375 63.09375 13.40625 68.65625 
Q 20.21875 74.21875 32.171875 74.21875 
Q 37.3125 74.21875 42.625 73.28125 
Q 47.953125 72.359375 53.515625 70.515625 
z
" id="DejaVuSans-83"/>
       <path d="M 54.890625 33.015625 
L 54.890625 0 
L 45.90625 0 
L 45.90625 32.71875 
Q 45.90625 40.484375 42.875 44.328125 
Q 39.84375 48.1875 33.796875 48.1875 
Q 26.515625 48.1875 22.3125 43.546875 
Q 18.109375 38.921875 18.109375 30.90625 
L 18.109375 0 
L 9.078125 0 
L 9.078125 54.6875 
L 18.109375 54.6875 
L 18.109375 46.1875 
Q 21.34375 51.125 25.703125 53.5625 
Q 30.078125 56 35.796875 56 
Q 45.21875 56 50.046875 50.171875 
Q 54.890625 44.34375 54.890625 33.015625 
z
" id="DejaVuSans-110"/>
       <path d="M 4.890625 31.390625 
L 31.203125 31.390625 
L 31.203125 23.390625 
L 4.890625 23.390625 
z
" id="DejaVuSans-45"/>
       <path d="M 59.515625 10.40625 
L 59.515625 29.984375 
L 43.40625 29.984375 
L 43.40625 38.09375 
L 69.28125 38.09375 
L 69.28125 6.78125 
Q 63.578125 2.734375 56.6875 0.65625 
Q 49.8125 -1.421875 42 -1.421875 
Q 24.90625 -1.421875 15.25 8.5625 
Q 5.609375 18.5625 5.609375 36.375 
Q 5.609375 54.25 15.25 64.234375 
Q 24.90625 74.21875 42 74.21875 
Q 49.125 74.21875 55.546875 72.453125 
Q 61.96875 70.703125 67.390625 67.28125 
L 67.390625 56.78125 
Q 61.921875 61.421875 55.765625 63.765625 
Q 49.609375 66.109375 42.828125 66.109375 
Q 29.4375 66.109375 22.71875 58.640625 
Q 16.015625 51.171875 16.015625 36.375 
Q 16.015625 21.625 22.71875 14.15625 
Q 29.4375 6.6875 42.828125 6.6875 
Q 48.046875 6.6875 52.140625 7.59375 
Q 56.25 8.5 59.515625 10.40625 
z
" id="DejaVuSans-71"/>
       <path d="M 19.671875 64.796875 
L 19.671875 8.109375 
L 31.59375 8.109375 
Q 46.6875 8.109375 53.6875 14.9375 
Q 60.6875 21.78125 60.6875 36.53125 
Q 60.6875 51.171875 53.6875 57.984375 
Q 46.6875 64.796875 31.59375 64.796875 
z
M 9.8125 72.90625 
L 30.078125 72.90625 
Q 51.265625 72.90625 61.171875 64.09375 
Q 71.09375 55.28125 71.09375 36.53125 
Q 71.09375 17.671875 61.125 8.828125 
Q 51.171875 0 30.078125 0 
L 9.8125 0 
z
" id="DejaVuSans-68"/>
      </defs>
      <use xlink:href="#DejaVuSans-83"/>
      <use x="63.476562" xlink:href="#DejaVuSans-121"/>
      <use x="122.65625" xlink:href="#DejaVuSans-110"/>
      <use x="186.035156" xlink:href="#DejaVuSans-99"/>
      <use x="241.015625" xlink:href="#DejaVuSans-45"/>
      <use x="277.099609" xlink:href="#DejaVuSans-83"/>
      <use x="340.576172" xlink:href="#DejaVuSans-71"/>
      <use x="418.066406" xlink:href="#DejaVuSans-68"/>
     </g>
    </g>
    <g id="line2d_19">
     <path d="M 59.87 38.576563 
L 79.87 38.576563 
" style="fill:none;stroke:#ff7f0e;stroke-linecap:square;stroke-width:1.5;"/>
    </g>
    <g id="line2d_20"/>
    <g id="text_17">
     <!-- DP-SGD -->
     <g transform="translate(87.87 42.076563)scale(0.1 -0.1)">
      <defs>
       <path d="M 19.671875 64.796875 
L 19.671875 37.40625 
L 32.078125 37.40625 
Q 38.96875 37.40625 42.71875 40.96875 
Q 46.484375 44.53125 46.484375 51.125 
Q 46.484375 57.671875 42.71875 61.234375 
Q 38.96875 64.796875 32.078125 64.796875 
z
M 9.8125 72.90625 
L 32.078125 72.90625 
Q 44.34375 72.90625 50.609375 67.359375 
Q 56.890625 61.8125 56.890625 51.125 
Q 56.890625 40.328125 50.609375 34.8125 
Q 44.34375 29.296875 32.078125 29.296875 
L 19.671875 29.296875 
L 19.671875 0 
L 9.8125 0 
z
" id="DejaVuSans-80"/>
      </defs>
      <use xlink:href="#DejaVuSans-68"/>
      <use x="77.001953" xlink:href="#DejaVuSans-80"/>
      <use x="135.054688" xlink:href="#DejaVuSans-45"/>
      <use x="171.138672" xlink:href="#DejaVuSans-83"/>
      <use x="234.615234" xlink:href="#DejaVuSans-71"/>
      <use x="312.105469" xlink:href="#DejaVuSans-68"/>
     </g>
    </g>
    <g id="line2d_21">
     <path d="M 59.87 53.254688 
L 79.87 53.254688 
" style="fill:none;stroke:#2ca02c;stroke-linecap:square;stroke-width:1.5;"/>
    </g>
    <g id="line2d_22"/>
    <g id="text_18">
     <!-- EDP-SGD -->
     <g transform="translate(87.87 56.754688)scale(0.1 -0.1)">
      <use xlink:href="#DejaVuSans-69"/>
      <use x="63.183594" xlink:href="#DejaVuSans-68"/>
      <use x="140.185547" xlink:href="#DejaVuSans-80"/>
      <use x="198.238281" xlink:href="#DejaVuSans-45"/>
      <use x="234.322266" xlink:href="#DejaVuSans-83"/>
      <use x="297.798828" xlink:href="#DejaVuSans-71"/>
      <use x="375.289062" xlink:href="#DejaVuSans-68"/>
     </g>
    </g>
   </g>
  </g>
 </g>
 <defs>
  <clipPath id="p9c46d76c4d">
   <rect height="292.84" width="399.13" x="50.87" y="10.8"/>
  </clipPath>
 </defs>
</svg>
