<?xml version="1.0" encoding="utf-8" standalone="no"?>
<!DOCTYPE svg PUBLIC "-//W3C//DTD SVG 1.1//EN"
  "http://www.w3.org/Graphics/SVG/1.1/DTD/svg11.dtd">
<!-- Created with matplotlib (https://matplotlib.org/) -->
<svg height="345.6pt" version="1.1" viewBox="0 0 460.8 345.6" width="460.8pt" xmlns="http://www.w3.org/2000/svg" xmlns:xlink="http://www.w3.org/1999/xlink">
 <metadata>
  <rdf:RDF xmlns:cc="http://creativecommons.org/ns#" xmlns:dc="http://purl.org/dc/elements/1.1/" xmlns:rdf="http://www.w3.org/1999/02/22-rdf-syntax-ns#">
   <cc:Work>
    <dc:type rdf:resource="http://purl.org/dc/dcmitype/StillImage"/>
    <dc:date>2021-06-20T12:16:24.315153</dc:date>
    <dc:format>image/svg+xml</dc:format>
    <dc:creator>
     <cc:Agent>
      <dc:title>Matplotlib v3.3.1, https://matplotlib.org/</dc:title>
     </cc:Agent>
    </dc:creator>
   </cc:Work>
  </rdf:RDF>
 </metadata>
 <defs>
  <style type="text/css">*{stroke-linecap:butt;stroke-linejoin:round;}</style>
 </defs>
 <g id="figure_1">
  <g id="patch_1">
   <path d="M 0 345.6 
L 460.8 345.6 
L 460.8 0 
L 0 0 
z
" style="fill:#ffffff;"/>
  </g>
  <g id="axes_1">
   <g id="patch_2">
    <path d="M 50.87 303.64 
L 450 303.64 
L 450 10.8 
L 50.87 10.8 
z
" style="fill:#ffffff;"/>
   </g>
   <g id="PolyCollection_1">
    <path clip-path="url(#p4eefa66cfe)" d="M 69.012273 238.913154 
L 69.012273 250.584354 
L 71.447477 169.567785 
L 73.882682 282.964881 
L 76.317886 137.293891 
L 78.75309 100.754745 
L 81.188295 109.539186 
L 83.623499 87.439522 
L 86.058703 61.569477 
L 88.493908 83.14892 
L 90.929112 69.465845 
L 93.364317 53.694111 
L 95.799521 71.482771 
L 98.234725 67.334581 
L 100.66993 63.594141 
L 103.105134 72.157849 
L 105.540339 72.201614 
L 107.975543 50.496074 
L 110.410747 58.373 
L 112.845952 50.496074 
L 115.281156 53.965852 
L 117.716361 60.185723 
L 120.151565 62.272074 
L 122.586769 52.914296 
L 125.021974 48.235407 
L 127.457178 54.473926 
L 129.892383 54.850822 
L 132.327587 54.473926 
L 134.762791 51.354666 
L 137.197996 43.556518 
L 139.6332 50.496074 
L 142.068405 55.630637 
L 144.503609 48.235407 
L 146.938813 52.055704 
L 149.374018 50.496074 
L 151.809222 43.556518 
L 154.244426 48.235407 
L 156.679631 52.914296 
L 159.114835 53.694111 
L 161.55004 51.354666 
L 163.985244 48.235407 
L 166.420448 50.496074 
L 168.855653 43.556518 
L 171.290857 52.914296 
L 173.726062 50.496074 
L 176.161266 58.329543 
L 178.59647 50.574851 
L 181.031675 58.749896 
L 183.466879 48.235407 
L 185.902084 48.235407 
L 188.337288 48.235407 
L 190.772492 43.556518 
L 193.207697 58.889163 
L 195.642901 48.235407 
L 198.078106 43.556518 
L 200.51331 50.496074 
L 202.948514 43.556518 
L 205.383719 51.354666 
L 207.818923 50.496074 
L 210.254128 43.556518 
L 212.689332 52.914296 
L 215.124536 43.556518 
L 217.559741 48.235407 
L 219.994945 48.235407 
L 222.430149 43.556518 
L 224.865354 54.473926 
L 227.300558 48.235407 
L 229.735763 43.556518 
L 232.170967 43.556518 
L 234.606171 48.235407 
L 237.041376 43.556518 
L 239.47658 48.235407 
L 241.911785 43.556518 
L 244.346989 48.235407 
L 246.782193 54.473926 
L 249.217398 48.235407 
L 251.652602 50.496074 
L 254.087807 48.235407 
L 256.523011 43.556518 
L 258.958215 43.556518 
L 261.39342 52.055704 
L 263.828624 43.556518 
L 266.263829 48.235407 
L 268.699033 52.055704 
L 271.134237 48.235407 
L 273.569442 50.496074 
L 276.004646 48.235407 
L 278.439851 43.556518 
L 280.875055 58.889163 
L 283.310259 43.556518 
L 285.745464 43.556518 
L 288.180668 43.556518 
L 290.615872 48.235407 
L 293.051077 54.473926 
L 295.486281 45.895962 
L 297.921486 48.235407 
L 300.35669 43.556518 
L 302.791894 43.556518 
L 305.227099 43.556518 
L 307.662303 48.235407 
L 310.097508 43.556518 
L 312.532712 43.556518 
L 314.967916 43.556518 
L 317.403121 48.235407 
L 319.838325 48.235407 
L 322.27353 43.556518 
L 324.708734 43.556518 
L 327.143938 48.235407 
L 329.579143 43.556518 
L 332.014347 50.496074 
L 334.449552 48.235407 
L 336.884756 43.556518 
L 339.31996 48.235407 
L 341.755165 48.235407 
L 344.190369 48.235407 
L 346.625574 48.235407 
L 349.060778 43.556518 
L 351.495982 48.235407 
L 353.931187 50.496074 
L 356.366391 52.055704 
L 358.801595 50.496074 
L 361.2368 48.235407 
L 363.672004 50.496074 
L 366.107209 50.496074 
L 368.542413 48.235407 
L 370.977617 50.496074 
L 373.412822 50.496074 
L 375.848026 50.496074 
L 378.283231 50.496074 
L 380.718435 50.496074 
L 383.153639 50.496074 
L 385.588844 48.235407 
L 388.024048 49.015222 
L 390.459253 50.496074 
L 392.894457 52.914296 
L 395.329661 48.235407 
L 397.764866 48.235407 
L 400.20007 48.235407 
L 402.635275 48.235407 
L 405.070479 48.235407 
L 407.505683 48.235407 
L 409.940888 48.235407 
L 412.376092 50.496074 
L 414.811297 50.496074 
L 417.246501 49.015222 
L 419.681705 48.235407 
L 422.11691 48.235407 
L 424.552114 48.235407 
L 426.987318 48.235407 
L 429.422523 48.235407 
L 431.857727 48.235407 
L 431.857727 41.996888 
L 431.857727 41.996888 
L 429.422523 41.996888 
L 426.987318 41.996888 
L 424.552114 41.996888 
L 422.11691 41.996888 
L 419.681705 41.996888 
L 417.246501 42.776703 
L 414.811297 42.85548 
L 412.376092 42.85548 
L 409.940888 41.996888 
L 407.505683 41.996888 
L 405.070479 41.996888 
L 402.635275 41.996888 
L 400.20007 41.996888 
L 397.764866 41.996888 
L 395.329661 41.996888 
L 392.894457 40.437258 
L 390.459253 42.85548 
L 388.024048 42.776703 
L 385.588844 41.996888 
L 383.153639 42.85548 
L 380.718435 42.85548 
L 378.283231 42.85548 
L 375.848026 42.85548 
L 373.412822 42.85548 
L 370.977617 42.85548 
L 368.542413 41.996888 
L 366.107209 42.85548 
L 363.672004 42.85548 
L 361.2368 41.996888 
L 358.801595 42.85548 
L 356.366391 44.41511 
L 353.931187 42.85548 
L 351.495982 41.996888 
L 349.060778 43.556518 
L 346.625574 41.996888 
L 344.190369 41.996888 
L 341.755165 41.996888 
L 339.31996 41.996888 
L 336.884756 43.556518 
L 334.449552 41.996888 
L 332.014347 42.85548 
L 329.579143 43.556518 
L 327.143938 41.996888 
L 324.708734 43.556518 
L 322.27353 43.556518 
L 319.838325 41.996888 
L 317.403121 41.996888 
L 314.967916 43.556518 
L 312.532712 43.556518 
L 310.097508 43.556518 
L 307.662303 41.996888 
L 305.227099 43.556518 
L 302.791894 43.556518 
L 300.35669 43.556518 
L 297.921486 41.996888 
L 295.486281 42.776703 
L 293.051077 41.996888 
L 290.615872 41.996888 
L 288.180668 43.556518 
L 285.745464 43.556518 
L 283.310259 43.556518 
L 280.875055 40.700911 
L 278.439851 43.556518 
L 276.004646 41.996888 
L 273.569442 42.85548 
L 271.134237 41.996888 
L 268.699033 44.41511 
L 266.263829 41.996888 
L 263.828624 43.556518 
L 261.39342 44.41511 
L 258.958215 43.556518 
L 256.523011 43.556518 
L 254.087807 41.996888 
L 251.652602 42.85548 
L 249.217398 41.996888 
L 246.782193 41.996888 
L 244.346989 41.996888 
L 241.911785 43.556518 
L 239.47658 41.996888 
L 237.041376 43.556518 
L 234.606171 41.996888 
L 232.170967 43.556518 
L 229.735763 43.556518 
L 227.300558 41.996888 
L 224.865354 41.996888 
L 222.430149 43.556518 
L 219.994945 41.996888 
L 217.559741 41.996888 
L 215.124536 43.556518 
L 212.689332 40.437258 
L 210.254128 43.556518 
L 207.818923 42.85548 
L 205.383719 51.354666 
L 202.948514 43.556518 
L 200.51331 42.85548 
L 198.078106 43.556518 
L 195.642901 41.996888 
L 193.207697 40.700911 
L 190.772492 43.556518 
L 188.337288 41.996888 
L 185.902084 41.996888 
L 183.466879 41.996888 
L 181.031675 47.078696 
L 178.59647 41.217073 
L 176.161266 44.37979 
L 173.726062 42.85548 
L 171.290857 46.675777 
L 168.855653 43.556518 
L 166.420448 42.85548 
L 163.985244 41.996888 
L 161.55004 51.354666 
L 159.114835 44.336332 
L 156.679631 46.675777 
L 154.244426 41.996888 
L 151.809222 43.556518 
L 149.374018 42.85548 
L 146.938813 44.41511 
L 144.503609 41.996888 
L 142.068405 43.959436 
L 139.6332 42.85548 
L 137.197996 43.556518 
L 134.762791 51.354666 
L 132.327587 41.996888 
L 129.892383 43.179622 
L 127.457178 41.996888 
L 125.021974 41.996888 
L 122.586769 46.675777 
L 120.151565 49.795037 
L 117.716361 50.321758 
L 115.281156 42.504961 
L 112.845952 42.85548 
L 110.410747 45.895962 
L 107.975543 42.85548 
L 105.540339 46.104016 
L 103.105134 55.50556 
L 100.66993 48.47297 
L 98.234725 43.172901 
L 95.799521 46.822859 
L 93.364317 44.336332 
L 90.929112 51.959045 
L 88.493908 49.193377 
L 86.058703 53.616894 
L 83.623499 72.976111 
L 81.188295 83.628671 
L 78.75309 89.293853 
L 76.317886 110.461007 
L 73.882682 165.982254 
L 71.447477 137.453043 
L 69.012273 238.913154 
z
" style="fill:#1f77b4;fill-opacity:0.25;"/>
   </g>
   <g id="PolyCollection_2">
    <path clip-path="url(#p4eefa66cfe)" d="M 69.012273 224.658729 
L 69.012273 254.993616 
L 71.447477 280.542101 
L 73.882682 250.720631 
L 76.317886 205.515202 
L 78.75309 270.469261 
L 81.188295 219.905405 
L 83.623499 126.070491 
L 86.058703 103.905494 
L 88.493908 91.841557 
L 90.929112 68.710187 
L 93.364317 85.147797 
L 95.799521 72.611299 
L 98.234725 82.736988 
L 100.66993 95.633879 
L 103.105134 83.26232 
L 105.540339 90.14359 
L 107.975543 50.275588 
L 110.410747 57.593422 
L 112.845952 88.870248 
L 115.281156 100.227459 
L 117.716361 72.833516 
L 120.151565 71.812288 
L 122.586769 59.262652 
L 125.021974 58.197549 
L 127.457178 55.256061 
L 129.892383 50.251026 
L 132.327587 59.324055 
L 134.762791 73.468416 
L 137.197996 50.638168 
L 139.6332 50.045817 
L 142.068405 49.775254 
L 144.503609 50.721067 
L 146.938813 52.499509 
L 149.374018 70.784726 
L 151.809222 77.020197 
L 154.244426 52.00261 
L 156.679631 48.228426 
L 159.114835 74.481336 
L 161.55004 49.58745 
L 163.985244 70.659092 
L 166.420448 46.627039 
L 168.855653 50.000853 
L 171.290857 47.443907 
L 173.726062 119.148797 
L 176.161266 48.22625 
L 178.59647 50.089464 
L 181.031675 49.494174 
L 183.466879 80.967086 
L 185.902084 69.377009 
L 188.337288 51.547685 
L 190.772492 90.330056 
L 193.207697 45.948755 
L 195.642901 45.738449 
L 198.078106 48.444938 
L 200.51331 80.932626 
L 202.948514 50.583387 
L 205.383719 95.755375 
L 207.818923 48.667398 
L 210.254128 46.750238 
L 212.689332 47.888273 
L 215.124536 50.355441 
L 217.559741 73.573517 
L 219.994945 47.037355 
L 222.430149 47.710446 
L 224.865354 72.364584 
L 227.300558 50.480527 
L 229.735763 51.857964 
L 232.170967 55.876947 
L 234.606171 52.997261 
L 237.041376 48.110135 
L 239.47658 47.710446 
L 241.911785 48.654205 
L 244.346989 48.110602 
L 246.782193 48.110602 
L 249.217398 81.048166 
L 251.652602 44.433809 
L 254.087807 50.530701 
L 256.523011 50.037336 
L 258.958215 74.986459 
L 261.39342 82.593987 
L 263.828624 47.527409 
L 266.263829 69.046716 
L 268.699033 68.413117 
L 271.134237 46.855816 
L 273.569442 47.473784 
L 276.004646 68.861698 
L 278.439851 69.720026 
L 280.875055 58.048862 
L 283.310259 48.331981 
L 285.745464 46.416078 
L 288.180668 50.190656 
L 290.615872 46.406028 
L 293.051077 46.919469 
L 295.486281 45.164886 
L 297.921486 46.21254 
L 300.35669 48.143545 
L 302.791894 48.754849 
L 305.227099 45.738449 
L 307.662303 50.029435 
L 310.097508 44.857684 
L 312.532712 48.878738 
L 314.967916 69.565402 
L 317.403121 47.731342 
L 319.838325 44.433809 
L 322.27353 45.470527 
L 324.708734 69.120099 
L 327.143938 47.594017 
L 329.579143 43.556518 
L 332.014347 44.857684 
L 334.449552 50.389026 
L 336.884756 55.692387 
L 339.31996 43.556518 
L 341.755165 47.140845 
L 344.190369 46.919469 
L 346.625574 46.919469 
L 349.060778 69.652886 
L 351.495982 45.164886 
L 353.931187 45.457316 
L 356.366391 45.94199 
L 358.801595 80.422912 
L 361.2368 69.982743 
L 363.672004 48.527837 
L 366.107209 45.164886 
L 368.542413 46.375712 
L 370.977617 47.140845 
L 373.412822 45.164886 
L 375.848026 46.06975 
L 378.283231 45.018671 
L 380.718435 48.913311 
L 383.153639 50.344539 
L 385.588844 45.018671 
L 388.024048 45.018671 
L 390.459253 45.339918 
L 392.894457 45.457316 
L 395.329661 48.67909 
L 397.764866 43.556518 
L 400.20007 43.556518 
L 402.635275 46.919469 
L 405.070479 47.140845 
L 407.505683 45.457316 
L 409.940888 45.457316 
L 412.376092 45.457316 
L 414.811297 50.428636 
L 417.246501 43.556518 
L 419.681705 43.556518 
L 422.11691 45.457316 
L 424.552114 50.428636 
L 426.987318 43.556518 
L 429.422523 45.835926 
L 431.857727 43.556518 
L 431.857727 43.556518 
L 431.857727 43.556518 
L 429.422523 43.324123 
L 426.987318 43.556518 
L 424.552114 41.265811 
L 422.11691 42.922918 
L 419.681705 43.556518 
L 417.246501 43.556518 
L 414.811297 41.265811 
L 412.376092 42.922918 
L 409.940888 42.922918 
L 407.505683 42.922918 
L 405.070479 42.799019 
L 402.635275 42.435534 
L 400.20007 43.556518 
L 397.764866 43.556518 
L 395.329661 43.015357 
L 392.894457 42.922918 
L 390.459253 43.332747 
L 388.024048 43.069133 
L 385.588844 43.069133 
L 383.153639 42.51963 
L 380.718435 42.488706 
L 378.283231 43.069133 
L 375.848026 43.285253 
L 373.412822 43.020395 
L 370.977617 42.799019 
L 368.542413 43.271721 
L 366.107209 43.020395 
L 363.672004 41.899411 
L 361.2368 37.892863 
L 358.801595 39.832256 
L 356.366391 43.315536 
L 353.931187 42.922918 
L 351.495982 43.020395 
L 349.060778 38.417674 
L 346.625574 42.435534 
L 344.190369 42.435534 
L 341.755165 42.799019 
L 339.31996 43.556518 
L 336.884756 39.511228 
L 334.449552 42.572621 
L 332.014347 43.425073 
L 329.579143 43.556518 
L 327.143938 43.028186 
L 324.708734 36.805969 
L 322.27353 43.299615 
L 319.838325 43.264087 
L 317.403121 43.475721 
L 314.967916 37.432913 
L 312.532712 43.010663 
L 310.097508 43.425073 
L 307.662303 41.859967 
L 305.227099 43.226646 
L 302.791894 44.499228 
L 300.35669 44.330717 
L 297.921486 43.53237 
L 295.486281 43.020395 
L 293.051077 42.435534 
L 290.615872 43.241406 
L 288.180668 42.283606 
L 285.745464 44.206124 
L 283.310259 43.070036 
L 280.875055 39.201767 
L 278.439851 38.15558 
L 276.004646 36.576986 
L 273.569442 43.538326 
L 271.134237 42.889095 
L 268.699033 35.270985 
L 266.263829 36.684399 
L 263.828624 43.387224 
L 261.39342 40.098101 
L 258.958215 34.936161 
L 256.523011 43.216741 
L 254.087807 43.795622 
L 251.652602 43.264087 
L 249.217398 43.983367 
L 246.782193 43.096462 
L 244.346989 43.096462 
L 241.911785 43.527627 
L 239.47658 44.081478 
L 237.041376 43.779266 
L 234.606171 46.300381 
L 232.170967 44.687895 
L 229.735763 43.930512 
L 227.300558 42.188689 
L 224.865354 37.265605 
L 222.430149 44.081478 
L 219.994945 43.292416 
L 217.559741 41.222946 
L 215.124536 43.580974 
L 212.689332 43.513744 
L 210.254128 43.67701 
L 207.818923 43.31948 
L 205.383719 26.156898 
L 202.948514 43.060598 
L 200.51331 43.41657 
L 198.078106 43.54194 
L 195.642901 43.226646 
L 193.207697 43.601202 
L 190.772492 49.81039 
L 188.337288 45.410513 
L 185.902084 37.718782 
L 183.466879 42.602294 
L 181.031675 44.14981 
L 178.59647 44.139382 
L 176.161266 43.565674 
L 173.726062 24.110909 
L 171.290857 42.983342 
L 168.855653 45.397715 
L 166.420448 42.533011 
L 163.985244 41.018112 
L 161.55004 43.959058 
L 159.114835 43.239433 
L 156.679631 45.513035 
L 154.244426 44.370726 
L 151.809222 40.115711 
L 149.374018 38.553033 
L 146.938813 42.021767 
L 144.503609 42.533011 
L 142.068405 46.793036 
L 139.6332 42.330969 
L 137.197996 45.735169 
L 134.762791 39.865894 
L 132.327587 45.724723 
L 129.892383 45.439973 
L 127.457178 47.063364 
L 125.021974 44.414307 
L 122.586769 46.56594 
L 120.151565 35.770887 
L 117.716361 44.594822 
L 115.281156 29.28801 
L 112.845952 48.345893 
L 110.410747 47.552832 
L 107.975543 45.415411 
L 105.540339 44.830583 
L 103.105134 42.938935 
L 100.66993 56.593698 
L 98.234725 45.023898 
L 95.799521 46.279192 
L 93.364317 46.902071 
L 90.929112 56.418823 
L 88.493908 51.418149 
L 86.058703 64.308287 
L 83.623499 75.382899 
L 81.188295 81.851673 
L 78.75309 159.372409 
L 76.317886 122.170721 
L 73.882682 180.875622 
L 71.447477 217.143463 
L 69.012273 224.658729 
z
" style="fill:#ff7f0e;fill-opacity:0.25;"/>
   </g>
   <g id="PolyCollection_3">
    <path clip-path="url(#p4eefa66cfe)" d="M 69.012273 254.827703 
L 69.012273 290.329091 
L 71.447477 195.257033 
L 73.882682 145.559937 
L 76.317886 126.639315 
L 78.75309 99.495727 
L 81.188295 82.769126 
L 83.623499 85.58819 
L 86.058703 74.588822 
L 88.493908 84.265978 
L 90.929112 77.567366 
L 93.364317 65.244585 
L 95.799521 67.253481 
L 98.234725 54.687118 
L 100.66993 59.383732 
L 103.105134 66.351113 
L 105.540339 59.208578 
L 107.975543 53.659676 
L 110.410747 64.195958 
L 112.845952 54.748442 
L 115.281156 53.698982 
L 117.716361 60.72859 
L 120.151565 69.548139 
L 122.586769 71.636005 
L 125.021974 51.433046 
L 127.457178 53.944209 
L 129.892383 48.329398 
L 132.327587 58.471963 
L 134.762791 70.158 
L 137.197996 53.279732 
L 139.6332 58.080727 
L 142.068405 51.402708 
L 144.503609 47.888273 
L 146.938813 59.943697 
L 149.374018 51.438237 
L 151.809222 52.519378 
L 154.244426 57.743022 
L 156.679631 57.884666 
L 159.114835 51.591911 
L 161.55004 51.717643 
L 163.985244 64.217061 
L 166.420448 52.592232 
L 168.855653 50.105876 
L 171.290857 50.963405 
L 173.726062 57.16749 
L 176.161266 46.599665 
L 178.59647 71.1101 
L 181.031675 49.059269 
L 183.466879 48.933208 
L 185.902084 72.686939 
L 188.337288 47.963841 
L 190.772492 54.01566 
L 193.207697 57.415396 
L 195.642901 49.154057 
L 198.078106 49.524882 
L 200.51331 57.85757 
L 202.948514 57.914103 
L 205.383719 69.841668 
L 207.818923 50.301045 
L 210.254128 52.603865 
L 212.689332 50.662242 
L 215.124536 50.855364 
L 217.559741 49.643943 
L 219.994945 72.569621 
L 222.430149 59.343186 
L 224.865354 53.580736 
L 227.300558 56.712492 
L 229.735763 50.068133 
L 232.170967 50.190109 
L 234.606171 50.011192 
L 237.041376 50.515461 
L 239.47658 52.088009 
L 241.911785 63.019477 
L 244.346989 45.457316 
L 246.782193 47.594017 
L 249.217398 51.965884 
L 251.652602 51.86311 
L 254.087807 52.964241 
L 256.523011 53.613149 
L 258.958215 58.094647 
L 261.39342 53.297685 
L 263.828624 68.551923 
L 266.263829 46.666503 
L 268.699033 52.417148 
L 271.134237 54.259398 
L 273.569442 50.094726 
L 276.004646 52.740915 
L 278.439851 46.704388 
L 280.875055 51.848689 
L 283.310259 50.749082 
L 285.745464 51.110093 
L 288.180668 51.679332 
L 290.615872 63.387554 
L 293.051077 51.845267 
L 295.486281 53.308113 
L 297.921486 53.113702 
L 300.35669 49.841066 
L 302.791894 49.380511 
L 305.227099 46.666503 
L 307.662303 48.724268 
L 310.097508 46.919469 
L 312.532712 50.485287 
L 314.967916 47.318639 
L 317.403121 56.17195 
L 319.838325 45.470527 
L 322.27353 50.878096 
L 324.708734 56.55953 
L 327.143938 48.014581 
L 329.579143 49.058853 
L 332.014347 53.080859 
L 334.449552 48.878738 
L 336.884756 47.443907 
L 339.31996 70.694859 
L 341.755165 52.881547 
L 344.190369 50.661517 
L 346.625574 53.080859 
L 349.060778 53.24359 
L 351.495982 51.224364 
L 353.931187 51.003682 
L 356.366391 50.246873 
L 358.801595 50.661517 
L 361.2368 48.981729 
L 363.672004 47.443907 
L 366.107209 46.518427 
L 368.542413 47.591012 
L 370.977617 47.443907 
L 373.412822 46.33551 
L 375.848026 46.188393 
L 378.283231 54.936354 
L 380.718435 53.080859 
L 383.153639 48.384592 
L 385.588844 50.828349 
L 388.024048 45.164886 
L 390.459253 56.55953 
L 392.894457 46.392685 
L 395.329661 50.246873 
L 397.764866 45.94199 
L 400.20007 50.571457 
L 402.635275 50.571457 
L 405.070479 46.478113 
L 407.505683 49.843775 
L 409.940888 53.189363 
L 412.376092 50.246873 
L 414.811297 50.246873 
L 417.246501 53.080859 
L 419.681705 45.94199 
L 422.11691 50.571457 
L 424.552114 46.478113 
L 426.987318 53.189363 
L 429.422523 46.773254 
L 431.857727 45.94199 
L 431.857727 43.315536 
L 431.857727 43.315536 
L 429.422523 44.628763 
L 426.987318 44.451173 
L 424.552114 43.851659 
L 422.11691 42.877574 
L 419.681705 43.315536 
L 417.246501 43.487432 
L 414.811297 42.129912 
L 412.376092 42.129912 
L 409.940888 44.451173 
L 407.505683 41.460765 
L 405.070479 43.851659 
L 402.635275 42.877574 
L 400.20007 42.877574 
L 397.764866 43.315536 
L 395.329661 42.129912 
L 392.894457 43.83961 
L 390.459253 40.886052 
L 388.024048 43.020395 
L 385.588844 44.277788 
L 383.153639 44.382101 
L 380.718435 43.487432 
L 378.283231 45.823441 
L 375.848026 42.679226 
L 373.412822 43.701831 
L 370.977617 42.983342 
L 368.542413 43.421098 
L 366.107209 44.396206 
L 363.672004 42.983342 
L 361.2368 44.759732 
L 358.801595 42.982468 
L 356.366391 42.129912 
L 353.931187 42.542826 
L 351.495982 43.296912 
L 349.060778 46.054052 
L 346.625574 43.487432 
L 344.190369 42.982468 
L 341.755165 42.614498 
L 339.31996 40.494961 
L 336.884756 42.983342 
L 334.449552 43.010663 
L 332.014347 43.487432 
L 329.579143 44.877562 
L 327.143938 44.459681 
L 324.708734 40.886052 
L 322.27353 43.838134 
L 319.838325 43.299615 
L 317.403121 40.688771 
L 314.967916 43.206086 
L 312.532712 42.671314 
L 310.097508 42.435534 
L 307.662303 42.287842 
L 305.227099 43.858222 
L 302.791894 46.992826 
L 300.35669 42.82815 
L 297.921486 44.03945 
L 295.486281 45.404669 
L 293.051077 46.672561 
L 290.615872 42.246084 
L 288.180668 44.499051 
L 285.745464 43.021276 
L 283.310259 43.089857 
L 280.875055 46.474185 
L 278.439851 44.600152 
L 276.004646 47.434019 
L 273.569442 44.524028 
L 271.134237 49.424703 
L 268.699033 46.588064 
L 266.263829 43.858222 
L 263.828624 48.681462 
L 261.39342 43.46556 
L 258.958215 43.737394 
L 256.523011 48.706276 
L 254.087807 43.116666 
L 251.652602 44.510227 
L 249.217398 45.089791 
L 246.782193 43.028186 
L 244.346989 42.922918 
L 241.911785 46.415759 
L 239.47658 43.700467 
L 237.041376 46.735168 
L 234.606171 43.827747 
L 232.170967 43.746306 
L 229.735763 43.575852 
L 227.300558 48.336285 
L 224.865354 45.229523 
L 222.430149 46.387929 
L 219.994945 44.371333 
L 217.559741 44.779857 
L 215.124536 42.49619 
L 212.689332 43.37165 
L 210.254128 45.231624 
L 207.818923 44.415186 
L 205.383719 38.91123 
L 202.948514 44.210368 
L 200.51331 43.487087 
L 198.078106 44.703964 
L 195.642901 44.977313 
L 193.207697 42.174678 
L 190.772492 47.134043 
L 188.337288 43.730606 
L 185.902084 38.697834 
L 183.466879 43.541055 
L 181.031675 43.999854 
L 178.59647 41.346918 
L 176.161266 43.242723 
L 173.726062 43.397352 
L 171.290857 43.947779 
L 168.855653 43.635586 
L 166.420448 47.97261 
L 163.985244 40.73424 
L 161.55004 44.070833 
L 159.114835 43.124319 
L 156.679631 42.875129 
L 154.244426 43.309204 
L 151.809222 45.413589 
L 149.374018 43.765378 
L 146.938813 47.054617 
L 144.503609 43.513744 
L 142.068405 47.992411 
L 139.6332 42.971499 
L 137.197996 47.480064 
L 134.762791 42.006588 
L 132.327587 42.482786 
L 129.892383 45.607017 
L 127.457178 48.375217 
L 125.021974 45.232721 
L 122.586769 42.673073 
L 120.151565 38.229991 
L 117.716361 50.266276 
L 115.281156 45.891091 
L 112.845952 47.473507 
L 110.410747 41.535157 
L 107.975543 47.002642 
L 105.540339 49.056935 
L 103.105134 45.131137 
L 100.66993 43.03317 
L 98.234725 46.072678 
L 95.799521 47.932889 
L 93.364317 51.891323 
L 90.929112 52.922872 
L 88.493908 41.25294 
L 86.058703 50.637665 
L 83.623499 54.552256 
L 81.188295 62.440117 
L 78.75309 84.314352 
L 76.317886 102.205073 
L 73.882682 114.866953 
L 71.447477 155.823336 
L 69.012273 254.827703 
z
" style="fill:#2ca02c;fill-opacity:0.25;"/>
   </g>
   <g id="matplotlib.axis_1">
    <g id="xtick_1">
     <g id="line2d_1">
      <defs>
       <path d="M 0 0 
L 0 3.5 
" id="m229b785008" style="stroke:#000000;stroke-width:0.8;"/>
      </defs>
      <g>
       <use style="stroke:#000000;stroke-width:0.8;" x="69.012273" xlink:href="#m229b785008" y="303.64"/>
      </g>
     </g>
     <g id="text_1">
      <!-- 0 -->
      <g transform="translate(65.831023 318.238437)scale(0.1 -0.1)">
       <defs>
        <path d="M 31.78125 66.40625 
Q 24.171875 66.40625 20.328125 58.90625 
Q 16.5 51.421875 16.5 36.375 
Q 16.5 21.390625 20.328125 13.890625 
Q 24.171875 6.390625 31.78125 6.390625 
Q 39.453125 6.390625 43.28125 13.890625 
Q 47.125 21.390625 47.125 36.375 
Q 47.125 51.421875 43.28125 58.90625 
Q 39.453125 66.40625 31.78125 66.40625 
z
M 31.78125 74.21875 
Q 44.046875 74.21875 50.515625 64.515625 
Q 56.984375 54.828125 56.984375 36.375 
Q 56.984375 17.96875 50.515625 8.265625 
Q 44.046875 -1.421875 31.78125 -1.421875 
Q 19.53125 -1.421875 13.0625 8.265625 
Q 6.59375 17.96875 6.59375 36.375 
Q 6.59375 54.828125 13.0625 64.515625 
Q 19.53125 74.21875 31.78125 74.21875 
z
" id="DejaVuSans-48"/>
       </defs>
       <use xlink:href="#DejaVuSans-48"/>
      </g>
     </g>
    </g>
    <g id="xtick_2">
     <g id="line2d_2">
      <g>
       <use style="stroke:#000000;stroke-width:0.8;" x="117.716361" xlink:href="#m229b785008" y="303.64"/>
      </g>
     </g>
     <g id="text_2">
      <!-- 20 -->
      <g transform="translate(111.353861 318.238437)scale(0.1 -0.1)">
       <defs>
        <path d="M 19.1875 8.296875 
L 53.609375 8.296875 
L 53.609375 0 
L 7.328125 0 
L 7.328125 8.296875 
Q 12.9375 14.109375 22.625 23.890625 
Q 32.328125 33.6875 34.8125 36.53125 
Q 39.546875 41.84375 41.421875 45.53125 
Q 43.3125 49.21875 43.3125 52.78125 
Q 43.3125 58.59375 39.234375 62.25 
Q 35.15625 65.921875 28.609375 65.921875 
Q 23.96875 65.921875 18.8125 64.3125 
Q 13.671875 62.703125 7.8125 59.421875 
L 7.8125 69.390625 
Q 13.765625 71.78125 18.9375 73 
Q 24.125 74.21875 28.421875 74.21875 
Q 39.75 74.21875 46.484375 68.546875 
Q 53.21875 62.890625 53.21875 53.421875 
Q 53.21875 48.921875 51.53125 44.890625 
Q 49.859375 40.875 45.40625 35.40625 
Q 44.1875 33.984375 37.640625 27.21875 
Q 31.109375 20.453125 19.1875 8.296875 
z
" id="DejaVuSans-50"/>
       </defs>
       <use xlink:href="#DejaVuSans-50"/>
       <use x="63.623047" xlink:href="#DejaVuSans-48"/>
      </g>
     </g>
    </g>
    <g id="xtick_3">
     <g id="line2d_3">
      <g>
       <use style="stroke:#000000;stroke-width:0.8;" x="166.420448" xlink:href="#m229b785008" y="303.64"/>
      </g>
     </g>
     <g id="text_3">
      <!-- 40 -->
      <g transform="translate(160.057948 318.238437)scale(0.1 -0.1)">
       <defs>
        <path d="M 37.796875 64.3125 
L 12.890625 25.390625 
L 37.796875 25.390625 
z
M 35.203125 72.90625 
L 47.609375 72.90625 
L 47.609375 25.390625 
L 58.015625 25.390625 
L 58.015625 17.1875 
L 47.609375 17.1875 
L 47.609375 0 
L 37.796875 0 
L 37.796875 17.1875 
L 4.890625 17.1875 
L 4.890625 26.703125 
z
" id="DejaVuSans-52"/>
       </defs>
       <use xlink:href="#DejaVuSans-52"/>
       <use x="63.623047" xlink:href="#DejaVuSans-48"/>
      </g>
     </g>
    </g>
    <g id="xtick_4">
     <g id="line2d_4">
      <g>
       <use style="stroke:#000000;stroke-width:0.8;" x="215.124536" xlink:href="#m229b785008" y="303.64"/>
      </g>
     </g>
     <g id="text_4">
      <!-- 60 -->
      <g transform="translate(208.762036 318.238437)scale(0.1 -0.1)">
       <defs>
        <path d="M 33.015625 40.375 
Q 26.375 40.375 22.484375 35.828125 
Q 18.609375 31.296875 18.609375 23.390625 
Q 18.609375 15.53125 22.484375 10.953125 
Q 26.375 6.390625 33.015625 6.390625 
Q 39.65625 6.390625 43.53125 10.953125 
Q 47.40625 15.53125 47.40625 23.390625 
Q 47.40625 31.296875 43.53125 35.828125 
Q 39.65625 40.375 33.015625 40.375 
z
M 52.59375 71.296875 
L 52.59375 62.3125 
Q 48.875 64.0625 45.09375 64.984375 
Q 41.3125 65.921875 37.59375 65.921875 
Q 27.828125 65.921875 22.671875 59.328125 
Q 17.53125 52.734375 16.796875 39.40625 
Q 19.671875 43.65625 24.015625 45.921875 
Q 28.375 48.1875 33.59375 48.1875 
Q 44.578125 48.1875 50.953125 41.515625 
Q 57.328125 34.859375 57.328125 23.390625 
Q 57.328125 12.15625 50.6875 5.359375 
Q 44.046875 -1.421875 33.015625 -1.421875 
Q 20.359375 -1.421875 13.671875 8.265625 
Q 6.984375 17.96875 6.984375 36.375 
Q 6.984375 53.65625 15.1875 63.9375 
Q 23.390625 74.21875 37.203125 74.21875 
Q 40.921875 74.21875 44.703125 73.484375 
Q 48.484375 72.75 52.59375 71.296875 
z
" id="DejaVuSans-54"/>
       </defs>
       <use xlink:href="#DejaVuSans-54"/>
       <use x="63.623047" xlink:href="#DejaVuSans-48"/>
      </g>
     </g>
    </g>
    <g id="xtick_5">
     <g id="line2d_5">
      <g>
       <use style="stroke:#000000;stroke-width:0.8;" x="263.828624" xlink:href="#m229b785008" y="303.64"/>
      </g>
     </g>
     <g id="text_5">
      <!-- 80 -->
      <g transform="translate(257.466124 318.238437)scale(0.1 -0.1)">
       <defs>
        <path d="M 31.78125 34.625 
Q 24.75 34.625 20.71875 30.859375 
Q 16.703125 27.09375 16.703125 20.515625 
Q 16.703125 13.921875 20.71875 10.15625 
Q 24.75 6.390625 31.78125 6.390625 
Q 38.8125 6.390625 42.859375 10.171875 
Q 46.921875 13.96875 46.921875 20.515625 
Q 46.921875 27.09375 42.890625 30.859375 
Q 38.875 34.625 31.78125 34.625 
z
M 21.921875 38.8125 
Q 15.578125 40.375 12.03125 44.71875 
Q 8.5 49.078125 8.5 55.328125 
Q 8.5 64.0625 14.71875 69.140625 
Q 20.953125 74.21875 31.78125 74.21875 
Q 42.671875 74.21875 48.875 69.140625 
Q 55.078125 64.0625 55.078125 55.328125 
Q 55.078125 49.078125 51.53125 44.71875 
Q 48 40.375 41.703125 38.8125 
Q 48.828125 37.15625 52.796875 32.3125 
Q 56.78125 27.484375 56.78125 20.515625 
Q 56.78125 9.90625 50.3125 4.234375 
Q 43.84375 -1.421875 31.78125 -1.421875 
Q 19.734375 -1.421875 13.25 4.234375 
Q 6.78125 9.90625 6.78125 20.515625 
Q 6.78125 27.484375 10.78125 32.3125 
Q 14.796875 37.15625 21.921875 38.8125 
z
M 18.3125 54.390625 
Q 18.3125 48.734375 21.84375 45.5625 
Q 25.390625 42.390625 31.78125 42.390625 
Q 38.140625 42.390625 41.71875 45.5625 
Q 45.3125 48.734375 45.3125 54.390625 
Q 45.3125 60.0625 41.71875 63.234375 
Q 38.140625 66.40625 31.78125 66.40625 
Q 25.390625 66.40625 21.84375 63.234375 
Q 18.3125 60.0625 18.3125 54.390625 
z
" id="DejaVuSans-56"/>
       </defs>
       <use xlink:href="#DejaVuSans-56"/>
       <use x="63.623047" xlink:href="#DejaVuSans-48"/>
      </g>
     </g>
    </g>
    <g id="xtick_6">
     <g id="line2d_6">
      <g>
       <use style="stroke:#000000;stroke-width:0.8;" x="312.532712" xlink:href="#m229b785008" y="303.64"/>
      </g>
     </g>
     <g id="text_6">
      <!-- 100 -->
      <g transform="translate(302.988962 318.238437)scale(0.1 -0.1)">
       <defs>
        <path d="M 12.40625 8.296875 
L 28.515625 8.296875 
L 28.515625 63.921875 
L 10.984375 60.40625 
L 10.984375 69.390625 
L 28.421875 72.90625 
L 38.28125 72.90625 
L 38.28125 8.296875 
L 54.390625 8.296875 
L 54.390625 0 
L 12.40625 0 
z
" id="DejaVuSans-49"/>
       </defs>
       <use xlink:href="#DejaVuSans-49"/>
       <use x="63.623047" xlink:href="#DejaVuSans-48"/>
       <use x="127.246094" xlink:href="#DejaVuSans-48"/>
      </g>
     </g>
    </g>
    <g id="xtick_7">
     <g id="line2d_7">
      <g>
       <use style="stroke:#000000;stroke-width:0.8;" x="361.2368" xlink:href="#m229b785008" y="303.64"/>
      </g>
     </g>
     <g id="text_7">
      <!-- 120 -->
      <g transform="translate(351.69305 318.238437)scale(0.1 -0.1)">
       <use xlink:href="#DejaVuSans-49"/>
       <use x="63.623047" xlink:href="#DejaVuSans-50"/>
       <use x="127.246094" xlink:href="#DejaVuSans-48"/>
      </g>
     </g>
    </g>
    <g id="xtick_8">
     <g id="line2d_8">
      <g>
       <use style="stroke:#000000;stroke-width:0.8;" x="409.940888" xlink:href="#m229b785008" y="303.64"/>
      </g>
     </g>
     <g id="text_8">
      <!-- 140 -->
      <g transform="translate(400.397138 318.238437)scale(0.1 -0.1)">
       <use xlink:href="#DejaVuSans-49"/>
       <use x="63.623047" xlink:href="#DejaVuSans-52"/>
       <use x="127.246094" xlink:href="#DejaVuSans-48"/>
      </g>
     </g>
    </g>
    <g id="text_9">
     <!-- Epochs -->
     <g transform="translate(232.519375 331.916562)scale(0.1 -0.1)">
      <defs>
       <path d="M 9.8125 72.90625 
L 55.90625 72.90625 
L 55.90625 64.59375 
L 19.671875 64.59375 
L 19.671875 43.015625 
L 54.390625 43.015625 
L 54.390625 34.71875 
L 19.671875 34.71875 
L 19.671875 8.296875 
L 56.78125 8.296875 
L 56.78125 0 
L 9.8125 0 
z
" id="DejaVuSans-69"/>
       <path d="M 18.109375 8.203125 
L 18.109375 -20.796875 
L 9.078125 -20.796875 
L 9.078125 54.6875 
L 18.109375 54.6875 
L 18.109375 46.390625 
Q 20.953125 51.265625 25.265625 53.625 
Q 29.59375 56 35.59375 56 
Q 45.5625 56 51.78125 48.09375 
Q 58.015625 40.1875 58.015625 27.296875 
Q 58.015625 14.40625 51.78125 6.484375 
Q 45.5625 -1.421875 35.59375 -1.421875 
Q 29.59375 -1.421875 25.265625 0.953125 
Q 20.953125 3.328125 18.109375 8.203125 
z
M 48.6875 27.296875 
Q 48.6875 37.203125 44.609375 42.84375 
Q 40.53125 48.484375 33.40625 48.484375 
Q 26.265625 48.484375 22.1875 42.84375 
Q 18.109375 37.203125 18.109375 27.296875 
Q 18.109375 17.390625 22.1875 11.75 
Q 26.265625 6.109375 33.40625 6.109375 
Q 40.53125 6.109375 44.609375 11.75 
Q 48.6875 17.390625 48.6875 27.296875 
z
" id="DejaVuSans-112"/>
       <path d="M 30.609375 48.390625 
Q 23.390625 48.390625 19.1875 42.75 
Q 14.984375 37.109375 14.984375 27.296875 
Q 14.984375 17.484375 19.15625 11.84375 
Q 23.34375 6.203125 30.609375 6.203125 
Q 37.796875 6.203125 41.984375 11.859375 
Q 46.1875 17.53125 46.1875 27.296875 
Q 46.1875 37.015625 41.984375 42.703125 
Q 37.796875 48.390625 30.609375 48.390625 
z
M 30.609375 56 
Q 42.328125 56 49.015625 48.375 
Q 55.71875 40.765625 55.71875 27.296875 
Q 55.71875 13.875 49.015625 6.21875 
Q 42.328125 -1.421875 30.609375 -1.421875 
Q 18.84375 -1.421875 12.171875 6.21875 
Q 5.515625 13.875 5.515625 27.296875 
Q 5.515625 40.765625 12.171875 48.375 
Q 18.84375 56 30.609375 56 
z
" id="DejaVuSans-111"/>
       <path d="M 48.78125 52.59375 
L 48.78125 44.1875 
Q 44.96875 46.296875 41.140625 47.34375 
Q 37.3125 48.390625 33.40625 48.390625 
Q 24.65625 48.390625 19.8125 42.84375 
Q 14.984375 37.3125 14.984375 27.296875 
Q 14.984375 17.28125 19.8125 11.734375 
Q 24.65625 6.203125 33.40625 6.203125 
Q 37.3125 6.203125 41.140625 7.25 
Q 44.96875 8.296875 48.78125 10.40625 
L 48.78125 2.09375 
Q 45.015625 0.34375 40.984375 -0.53125 
Q 36.96875 -1.421875 32.421875 -1.421875 
Q 20.0625 -1.421875 12.78125 6.34375 
Q 5.515625 14.109375 5.515625 27.296875 
Q 5.515625 40.671875 12.859375 48.328125 
Q 20.21875 56 33.015625 56 
Q 37.15625 56 41.109375 55.140625 
Q 45.0625 54.296875 48.78125 52.59375 
z
" id="DejaVuSans-99"/>
       <path d="M 54.890625 33.015625 
L 54.890625 0 
L 45.90625 0 
L 45.90625 32.71875 
Q 45.90625 40.484375 42.875 44.328125 
Q 39.84375 48.1875 33.796875 48.1875 
Q 26.515625 48.1875 22.3125 43.546875 
Q 18.109375 38.921875 18.109375 30.90625 
L 18.109375 0 
L 9.078125 0 
L 9.078125 75.984375 
L 18.109375 75.984375 
L 18.109375 46.1875 
Q 21.34375 51.125 25.703125 53.5625 
Q 30.078125 56 35.796875 56 
Q 45.21875 56 50.046875 50.171875 
Q 54.890625 44.34375 54.890625 33.015625 
z
" id="DejaVuSans-104"/>
       <path d="M 44.28125 53.078125 
L 44.28125 44.578125 
Q 40.484375 46.53125 36.375 47.5 
Q 32.28125 48.484375 27.875 48.484375 
Q 21.1875 48.484375 17.84375 46.4375 
Q 14.5 44.390625 14.5 40.28125 
Q 14.5 37.15625 16.890625 35.375 
Q 19.28125 33.59375 26.515625 31.984375 
L 29.59375 31.296875 
Q 39.15625 29.25 43.1875 25.515625 
Q 47.21875 21.78125 47.21875 15.09375 
Q 47.21875 7.46875 41.1875 3.015625 
Q 35.15625 -1.421875 24.609375 -1.421875 
Q 20.21875 -1.421875 15.453125 -0.5625 
Q 10.6875 0.296875 5.421875 2 
L 5.421875 11.28125 
Q 10.40625 8.6875 15.234375 7.390625 
Q 20.0625 6.109375 24.8125 6.109375 
Q 31.15625 6.109375 34.5625 8.28125 
Q 37.984375 10.453125 37.984375 14.40625 
Q 37.984375 18.0625 35.515625 20.015625 
Q 33.0625 21.96875 24.703125 23.78125 
L 21.578125 24.515625 
Q 13.234375 26.265625 9.515625 29.90625 
Q 5.8125 33.546875 5.8125 39.890625 
Q 5.8125 47.609375 11.28125 51.796875 
Q 16.75 56 26.8125 56 
Q 31.78125 56 36.171875 55.265625 
Q 40.578125 54.546875 44.28125 53.078125 
z
" id="DejaVuSans-115"/>
      </defs>
      <use xlink:href="#DejaVuSans-69"/>
      <use x="63.183594" xlink:href="#DejaVuSans-112"/>
      <use x="126.660156" xlink:href="#DejaVuSans-111"/>
      <use x="187.841797" xlink:href="#DejaVuSans-99"/>
      <use x="242.822266" xlink:href="#DejaVuSans-104"/>
      <use x="306.201172" xlink:href="#DejaVuSans-115"/>
     </g>
    </g>
   </g>
   <g id="matplotlib.axis_2">
    <g id="ytick_1">
     <g id="line2d_9">
      <defs>
       <path d="M 0 0 
L -3.5 0 
" id="mfcddeedd3e" style="stroke:#000000;stroke-width:0.8;"/>
      </defs>
      <g>
       <use style="stroke:#000000;stroke-width:0.8;" x="50.87" xlink:href="#mfcddeedd3e" y="293.097276"/>
      </g>
     </g>
     <g id="text_10">
      <!-- 50 -->
      <g transform="translate(31.145 296.896495)scale(0.1 -0.1)">
       <defs>
        <path d="M 10.796875 72.90625 
L 49.515625 72.90625 
L 49.515625 64.59375 
L 19.828125 64.59375 
L 19.828125 46.734375 
Q 21.96875 47.46875 24.109375 47.828125 
Q 26.265625 48.1875 28.421875 48.1875 
Q 40.625 48.1875 47.75 41.5 
Q 54.890625 34.8125 54.890625 23.390625 
Q 54.890625 11.625 47.5625 5.09375 
Q 40.234375 -1.421875 26.90625 -1.421875 
Q 22.3125 -1.421875 17.546875 -0.640625 
Q 12.796875 0.140625 7.71875 1.703125 
L 7.71875 11.625 
Q 12.109375 9.234375 16.796875 8.0625 
Q 21.484375 6.890625 26.703125 6.890625 
Q 35.15625 6.890625 40.078125 11.328125 
Q 45.015625 15.765625 45.015625 23.390625 
Q 45.015625 31 40.078125 35.4375 
Q 35.15625 39.890625 26.703125 39.890625 
Q 22.75 39.890625 18.8125 39.015625 
Q 14.890625 38.140625 10.796875 36.28125 
z
" id="DejaVuSans-53"/>
       </defs>
       <use xlink:href="#DejaVuSans-53"/>
       <use x="63.623047" xlink:href="#DejaVuSans-48"/>
      </g>
     </g>
    </g>
    <g id="ytick_2">
     <g id="line2d_10">
      <g>
       <use style="stroke:#000000;stroke-width:0.8;" x="50.87" xlink:href="#mfcddeedd3e" y="243.189124"/>
      </g>
     </g>
     <g id="text_11">
      <!-- 60 -->
      <g transform="translate(31.145 246.988343)scale(0.1 -0.1)">
       <use xlink:href="#DejaVuSans-54"/>
       <use x="63.623047" xlink:href="#DejaVuSans-48"/>
      </g>
     </g>
    </g>
    <g id="ytick_3">
     <g id="line2d_11">
      <g>
       <use style="stroke:#000000;stroke-width:0.8;" x="50.87" xlink:href="#mfcddeedd3e" y="193.280973"/>
      </g>
     </g>
     <g id="text_12">
      <!-- 70 -->
      <g transform="translate(31.145 197.080191)scale(0.1 -0.1)">
       <defs>
        <path d="M 8.203125 72.90625 
L 55.078125 72.90625 
L 55.078125 68.703125 
L 28.609375 0 
L 18.3125 0 
L 43.21875 64.59375 
L 8.203125 64.59375 
z
" id="DejaVuSans-55"/>
       </defs>
       <use xlink:href="#DejaVuSans-55"/>
       <use x="63.623047" xlink:href="#DejaVuSans-48"/>
      </g>
     </g>
    </g>
    <g id="ytick_4">
     <g id="line2d_12">
      <g>
       <use style="stroke:#000000;stroke-width:0.8;" x="50.87" xlink:href="#mfcddeedd3e" y="143.372821"/>
      </g>
     </g>
     <g id="text_13">
      <!-- 80 -->
      <g transform="translate(31.145 147.17204)scale(0.1 -0.1)">
       <use xlink:href="#DejaVuSans-56"/>
       <use x="63.623047" xlink:href="#DejaVuSans-48"/>
      </g>
     </g>
    </g>
    <g id="ytick_5">
     <g id="line2d_13">
      <g>
       <use style="stroke:#000000;stroke-width:0.8;" x="50.87" xlink:href="#mfcddeedd3e" y="93.464669"/>
      </g>
     </g>
     <g id="text_14">
      <!-- 90 -->
      <g transform="translate(31.145 97.263888)scale(0.1 -0.1)">
       <defs>
        <path d="M 10.984375 1.515625 
L 10.984375 10.5 
Q 14.703125 8.734375 18.5 7.8125 
Q 22.3125 6.890625 25.984375 6.890625 
Q 35.75 6.890625 40.890625 13.453125 
Q 46.046875 20.015625 46.78125 33.40625 
Q 43.953125 29.203125 39.59375 26.953125 
Q 35.25 24.703125 29.984375 24.703125 
Q 19.046875 24.703125 12.671875 31.3125 
Q 6.296875 37.9375 6.296875 49.421875 
Q 6.296875 60.640625 12.9375 67.421875 
Q 19.578125 74.21875 30.609375 74.21875 
Q 43.265625 74.21875 49.921875 64.515625 
Q 56.59375 54.828125 56.59375 36.375 
Q 56.59375 19.140625 48.40625 8.859375 
Q 40.234375 -1.421875 26.421875 -1.421875 
Q 22.703125 -1.421875 18.890625 -0.6875 
Q 15.09375 0.046875 10.984375 1.515625 
z
M 30.609375 32.421875 
Q 37.25 32.421875 41.125 36.953125 
Q 45.015625 41.5 45.015625 49.421875 
Q 45.015625 57.28125 41.125 61.84375 
Q 37.25 66.40625 30.609375 66.40625 
Q 23.96875 66.40625 20.09375 61.84375 
Q 16.21875 57.28125 16.21875 49.421875 
Q 16.21875 41.5 20.09375 36.953125 
Q 23.96875 32.421875 30.609375 32.421875 
z
" id="DejaVuSans-57"/>
       </defs>
       <use xlink:href="#DejaVuSans-57"/>
       <use x="63.623047" xlink:href="#DejaVuSans-48"/>
      </g>
     </g>
    </g>
    <g id="ytick_6">
     <g id="line2d_14">
      <g>
       <use style="stroke:#000000;stroke-width:0.8;" x="50.87" xlink:href="#mfcddeedd3e" y="43.556518"/>
      </g>
     </g>
     <g id="text_15">
      <!-- 100 -->
      <g transform="translate(24.7825 47.355736)scale(0.1 -0.1)">
       <use xlink:href="#DejaVuSans-49"/>
       <use x="63.623047" xlink:href="#DejaVuSans-48"/>
       <use x="127.246094" xlink:href="#DejaVuSans-48"/>
      </g>
     </g>
    </g>
    <g id="text_16">
     <!-- Test Accuracy (%) -->
     <g transform="translate(18.702813 201.723906)rotate(-90)scale(0.1 -0.1)">
      <defs>
       <path d="M -0.296875 72.90625 
L 61.375 72.90625 
L 61.375 64.59375 
L 35.5 64.59375 
L 35.5 0 
L 25.59375 0 
L 25.59375 64.59375 
L -0.296875 64.59375 
z
" id="DejaVuSans-84"/>
       <path d="M 56.203125 29.59375 
L 56.203125 25.203125 
L 14.890625 25.203125 
Q 15.484375 15.921875 20.484375 11.0625 
Q 25.484375 6.203125 34.421875 6.203125 
Q 39.59375 6.203125 44.453125 7.46875 
Q 49.3125 8.734375 54.109375 11.28125 
L 54.109375 2.78125 
Q 49.265625 0.734375 44.1875 -0.34375 
Q 39.109375 -1.421875 33.890625 -1.421875 
Q 20.796875 -1.421875 13.15625 6.1875 
Q 5.515625 13.8125 5.515625 26.8125 
Q 5.515625 40.234375 12.765625 48.109375 
Q 20.015625 56 32.328125 56 
Q 43.359375 56 49.78125 48.890625 
Q 56.203125 41.796875 56.203125 29.59375 
z
M 47.21875 32.234375 
Q 47.125 39.59375 43.09375 43.984375 
Q 39.0625 48.390625 32.421875 48.390625 
Q 24.90625 48.390625 20.390625 44.140625 
Q 15.875 39.890625 15.1875 32.171875 
z
" id="DejaVuSans-101"/>
       <path d="M 18.3125 70.21875 
L 18.3125 54.6875 
L 36.8125 54.6875 
L 36.8125 47.703125 
L 18.3125 47.703125 
L 18.3125 18.015625 
Q 18.3125 11.328125 20.140625 9.421875 
Q 21.96875 7.515625 27.59375 7.515625 
L 36.8125 7.515625 
L 36.8125 0 
L 27.59375 0 
Q 17.1875 0 13.234375 3.875 
Q 9.28125 7.765625 9.28125 18.015625 
L 9.28125 47.703125 
L 2.6875 47.703125 
L 2.6875 54.6875 
L 9.28125 54.6875 
L 9.28125 70.21875 
z
" id="DejaVuSans-116"/>
       <path id="DejaVuSans-32"/>
       <path d="M 34.1875 63.1875 
L 20.796875 26.90625 
L 47.609375 26.90625 
z
M 28.609375 72.90625 
L 39.796875 72.90625 
L 67.578125 0 
L 57.328125 0 
L 50.6875 18.703125 
L 17.828125 18.703125 
L 11.1875 0 
L 0.78125 0 
z
" id="DejaVuSans-65"/>
       <path d="M 8.5 21.578125 
L 8.5 54.6875 
L 17.484375 54.6875 
L 17.484375 21.921875 
Q 17.484375 14.15625 20.5 10.265625 
Q 23.53125 6.390625 29.59375 6.390625 
Q 36.859375 6.390625 41.078125 11.03125 
Q 45.3125 15.671875 45.3125 23.6875 
L 45.3125 54.6875 
L 54.296875 54.6875 
L 54.296875 0 
L 45.3125 0 
L 45.3125 8.40625 
Q 42.046875 3.421875 37.71875 1 
Q 33.40625 -1.421875 27.6875 -1.421875 
Q 18.265625 -1.421875 13.375 4.4375 
Q 8.5 10.296875 8.5 21.578125 
z
M 31.109375 56 
z
" id="DejaVuSans-117"/>
       <path d="M 41.109375 46.296875 
Q 39.59375 47.171875 37.8125 47.578125 
Q 36.03125 48 33.890625 48 
Q 26.265625 48 22.1875 43.046875 
Q 18.109375 38.09375 18.109375 28.8125 
L 18.109375 0 
L 9.078125 0 
L 9.078125 54.6875 
L 18.109375 54.6875 
L 18.109375 46.1875 
Q 20.953125 51.171875 25.484375 53.578125 
Q 30.03125 56 36.53125 56 
Q 37.453125 56 38.578125 55.875 
Q 39.703125 55.765625 41.0625 55.515625 
z
" id="DejaVuSans-114"/>
       <path d="M 34.28125 27.484375 
Q 23.390625 27.484375 19.1875 25 
Q 14.984375 22.515625 14.984375 16.5 
Q 14.984375 11.71875 18.140625 8.90625 
Q 21.296875 6.109375 26.703125 6.109375 
Q 34.1875 6.109375 38.703125 11.40625 
Q 43.21875 16.703125 43.21875 25.484375 
L 43.21875 27.484375 
z
M 52.203125 31.203125 
L 52.203125 0 
L 43.21875 0 
L 43.21875 8.296875 
Q 40.140625 3.328125 35.546875 0.953125 
Q 30.953125 -1.421875 24.3125 -1.421875 
Q 15.921875 -1.421875 10.953125 3.296875 
Q 6 8.015625 6 15.921875 
Q 6 25.140625 12.171875 29.828125 
Q 18.359375 34.515625 30.609375 34.515625 
L 43.21875 34.515625 
L 43.21875 35.40625 
Q 43.21875 41.609375 39.140625 45 
Q 35.0625 48.390625 27.6875 48.390625 
Q 23 48.390625 18.546875 47.265625 
Q 14.109375 46.140625 10.015625 43.890625 
L 10.015625 52.203125 
Q 14.9375 54.109375 19.578125 55.046875 
Q 24.21875 56 28.609375 56 
Q 40.484375 56 46.34375 49.84375 
Q 52.203125 43.703125 52.203125 31.203125 
z
" id="DejaVuSans-97"/>
       <path d="M 32.171875 -5.078125 
Q 28.375 -14.84375 24.75 -17.8125 
Q 21.140625 -20.796875 15.09375 -20.796875 
L 7.90625 -20.796875 
L 7.90625 -13.28125 
L 13.1875 -13.28125 
Q 16.890625 -13.28125 18.9375 -11.515625 
Q 21 -9.765625 23.484375 -3.21875 
L 25.09375 0.875 
L 2.984375 54.6875 
L 12.5 54.6875 
L 29.59375 11.921875 
L 46.6875 54.6875 
L 56.203125 54.6875 
z
" id="DejaVuSans-121"/>
       <path d="M 31 75.875 
Q 24.46875 64.65625 21.28125 53.65625 
Q 18.109375 42.671875 18.109375 31.390625 
Q 18.109375 20.125 21.3125 9.0625 
Q 24.515625 -2 31 -13.1875 
L 23.1875 -13.1875 
Q 15.875 -1.703125 12.234375 9.375 
Q 8.59375 20.453125 8.59375 31.390625 
Q 8.59375 42.28125 12.203125 53.3125 
Q 15.828125 64.359375 23.1875 75.875 
z
" id="DejaVuSans-40"/>
       <path d="M 72.703125 32.078125 
Q 68.453125 32.078125 66.03125 28.46875 
Q 63.625 24.859375 63.625 18.40625 
Q 63.625 12.0625 66.03125 8.421875 
Q 68.453125 4.78125 72.703125 4.78125 
Q 76.859375 4.78125 79.265625 8.421875 
Q 81.6875 12.0625 81.6875 18.40625 
Q 81.6875 24.8125 79.265625 28.4375 
Q 76.859375 32.078125 72.703125 32.078125 
z
M 72.703125 38.28125 
Q 80.421875 38.28125 84.953125 32.90625 
Q 89.5 27.546875 89.5 18.40625 
Q 89.5 9.28125 84.9375 3.921875 
Q 80.375 -1.421875 72.703125 -1.421875 
Q 64.890625 -1.421875 60.34375 3.921875 
Q 55.8125 9.28125 55.8125 18.40625 
Q 55.8125 27.59375 60.375 32.9375 
Q 64.9375 38.28125 72.703125 38.28125 
z
M 22.3125 68.015625 
Q 18.109375 68.015625 15.6875 64.375 
Q 13.28125 60.75 13.28125 54.390625 
Q 13.28125 47.953125 15.671875 44.328125 
Q 18.0625 40.71875 22.3125 40.71875 
Q 26.5625 40.71875 28.96875 44.328125 
Q 31.390625 47.953125 31.390625 54.390625 
Q 31.390625 60.6875 28.953125 64.34375 
Q 26.515625 68.015625 22.3125 68.015625 
z
M 66.40625 74.21875 
L 74.21875 74.21875 
L 28.609375 -1.421875 
L 20.796875 -1.421875 
z
M 22.3125 74.21875 
Q 30.03125 74.21875 34.609375 68.875 
Q 39.203125 63.53125 39.203125 54.390625 
Q 39.203125 45.171875 34.640625 39.84375 
Q 30.078125 34.515625 22.3125 34.515625 
Q 14.546875 34.515625 10.03125 39.859375 
Q 5.515625 45.21875 5.515625 54.390625 
Q 5.515625 63.484375 10.046875 68.84375 
Q 14.59375 74.21875 22.3125 74.21875 
z
" id="DejaVuSans-37"/>
       <path d="M 8.015625 75.875 
L 15.828125 75.875 
Q 23.140625 64.359375 26.78125 53.3125 
Q 30.421875 42.28125 30.421875 31.390625 
Q 30.421875 20.453125 26.78125 9.375 
Q 23.140625 -1.703125 15.828125 -13.1875 
L 8.015625 -13.1875 
Q 14.5 -2 17.703125 9.0625 
Q 20.90625 20.125 20.90625 31.390625 
Q 20.90625 42.671875 17.703125 53.65625 
Q 14.5 64.65625 8.015625 75.875 
z
" id="DejaVuSans-41"/>
      </defs>
      <use xlink:href="#DejaVuSans-84"/>
      <use x="44.083984" xlink:href="#DejaVuSans-101"/>
      <use x="105.607422" xlink:href="#DejaVuSans-115"/>
      <use x="157.707031" xlink:href="#DejaVuSans-116"/>
      <use x="196.916016" xlink:href="#DejaVuSans-32"/>
      <use x="228.703125" xlink:href="#DejaVuSans-65"/>
      <use x="295.361328" xlink:href="#DejaVuSans-99"/>
      <use x="350.341797" xlink:href="#DejaVuSans-99"/>
      <use x="405.322266" xlink:href="#DejaVuSans-117"/>
      <use x="468.701172" xlink:href="#DejaVuSans-114"/>
      <use x="509.814453" xlink:href="#DejaVuSans-97"/>
      <use x="571.09375" xlink:href="#DejaVuSans-99"/>
      <use x="626.074219" xlink:href="#DejaVuSans-121"/>
      <use x="685.253906" xlink:href="#DejaVuSans-32"/>
      <use x="717.041016" xlink:href="#DejaVuSans-40"/>
      <use x="756.054688" xlink:href="#DejaVuSans-37"/>
      <use x="851.074219" xlink:href="#DejaVuSans-41"/>
     </g>
    </g>
   </g>
   <g id="line2d_15">
    <path clip-path="url(#p4eefa66cfe)" d="M 69.012273 244.748754 
L 71.447477 153.510414 
L 73.882682 224.473567 
L 76.317886 123.877449 
L 78.75309 95.024299 
L 81.188295 96.583929 
L 83.623499 80.207816 
L 86.058703 57.593185 
L 88.493908 66.171149 
L 90.929112 60.712445 
L 93.364317 49.015222 
L 95.799521 59.152815 
L 98.234725 55.253741 
L 100.66993 56.033556 
L 103.105134 63.831704 
L 105.540339 59.152815 
L 107.975543 46.675777 
L 110.410747 52.134481 
L 112.845952 46.675777 
L 115.281156 48.235407 
L 117.716361 55.253741 
L 120.151565 56.033556 
L 122.586769 49.795037 
L 125.021974 45.116147 
L 127.457178 48.235407 
L 129.892383 49.015222 
L 132.327587 48.235407 
L 134.762791 51.354666 
L 137.197996 43.556518 
L 142.068405 49.795037 
L 144.503609 45.116147 
L 146.938813 48.235407 
L 149.374018 46.675777 
L 151.809222 43.556518 
L 154.244426 45.116147 
L 156.679631 49.795037 
L 159.114835 49.015222 
L 161.55004 51.354666 
L 163.985244 45.116147 
L 166.420448 46.675777 
L 168.855653 43.556518 
L 171.290857 49.795037 
L 173.726062 46.675777 
L 176.161266 51.354666 
L 178.59647 45.895962 
L 181.031675 52.914296 
L 183.466879 45.116147 
L 188.337288 45.116147 
L 190.772492 43.556518 
L 193.207697 49.795037 
L 195.642901 45.116147 
L 198.078106 43.556518 
L 200.51331 46.675777 
L 202.948514 43.556518 
L 205.383719 51.354666 
L 207.818923 46.675777 
L 210.254128 43.556518 
L 212.689332 46.675777 
L 215.124536 43.556518 
L 217.559741 45.116147 
L 219.994945 45.116147 
L 222.430149 43.556518 
L 224.865354 48.235407 
L 227.300558 45.116147 
L 229.735763 43.556518 
L 232.170967 43.556518 
L 234.606171 45.116147 
L 237.041376 43.556518 
L 239.47658 45.116147 
L 241.911785 43.556518 
L 244.346989 45.116147 
L 246.782193 48.235407 
L 249.217398 45.116147 
L 251.652602 46.675777 
L 256.523011 43.556518 
L 258.958215 43.556518 
L 261.39342 48.235407 
L 263.828624 43.556518 
L 266.263829 45.116147 
L 268.699033 48.235407 
L 271.134237 45.116147 
L 273.569442 46.675777 
L 278.439851 43.556518 
L 280.875055 49.795037 
L 283.310259 43.556518 
L 288.180668 43.556518 
L 290.615872 45.116147 
L 293.051077 48.235407 
L 295.486281 44.336332 
L 297.921486 45.116147 
L 300.35669 43.556518 
L 305.227099 43.556518 
L 307.662303 45.116147 
L 310.097508 43.556518 
L 314.967916 43.556518 
L 317.403121 45.116147 
L 319.838325 45.116147 
L 322.27353 43.556518 
L 324.708734 43.556518 
L 327.143938 45.116147 
L 329.579143 43.556518 
L 332.014347 46.675777 
L 336.884756 43.556518 
L 339.31996 45.116147 
L 346.625574 45.116147 
L 349.060778 43.556518 
L 356.366391 48.235407 
L 361.2368 45.116147 
L 363.672004 46.675777 
L 366.107209 46.675777 
L 368.542413 45.116147 
L 370.977617 46.675777 
L 383.153639 46.675777 
L 385.588844 45.116147 
L 390.459253 46.675777 
L 392.894457 46.675777 
L 395.329661 45.116147 
L 409.940888 45.116147 
L 412.376092 46.675777 
L 414.811297 46.675777 
L 419.681705 45.116147 
L 431.857727 45.116147 
L 431.857727 45.116147 
" style="fill:none;stroke:#1f77b4;stroke-linecap:square;stroke-width:1.5;"/>
   </g>
   <g id="line2d_16">
    <path clip-path="url(#p4eefa66cfe)" d="M 69.012273 239.826173 
L 71.447477 248.842782 
L 73.882682 215.798127 
L 76.317886 163.842961 
L 78.75309 214.920835 
L 81.188295 150.878539 
L 83.623499 100.726695 
L 86.058703 84.106891 
L 88.493908 71.629853 
L 90.929112 62.564505 
L 93.364317 66.024934 
L 95.799521 59.445246 
L 98.234725 63.880443 
L 100.66993 76.113788 
L 103.105134 63.100628 
L 105.540339 67.487086 
L 107.975543 47.845499 
L 110.410747 52.573127 
L 112.845952 68.60807 
L 115.281156 64.757734 
L 117.716361 58.714169 
L 120.151565 53.791588 
L 122.586769 52.914296 
L 125.021974 51.305928 
L 127.457178 51.159713 
L 129.892383 47.845499 
L 132.327587 52.524389 
L 134.762791 56.667155 
L 137.197996 48.186668 
L 139.6332 46.188393 
L 142.068405 48.284145 
L 144.503609 46.627039 
L 146.938813 47.260638 
L 149.374018 54.66888 
L 151.809222 58.567954 
L 154.244426 48.186668 
L 156.679631 46.870731 
L 159.114835 58.860384 
L 161.55004 46.773254 
L 163.985244 55.838602 
L 166.420448 44.580025 
L 168.855653 47.699284 
L 171.290857 45.213624 
L 173.726062 71.629853 
L 176.161266 45.895962 
L 178.59647 47.114423 
L 181.031675 46.821992 
L 183.466879 61.78469 
L 185.902084 53.547896 
L 188.337288 48.479099 
L 190.772492 70.070223 
L 193.207697 44.774978 
L 195.642901 44.482548 
L 198.078106 45.993439 
L 200.51331 62.174598 
L 202.948514 46.821992 
L 205.383719 60.956137 
L 207.818923 45.993439 
L 210.254128 45.213624 
L 212.689332 45.701009 
L 215.124536 46.968208 
L 217.559741 57.398232 
L 219.994945 45.164886 
L 222.430149 45.895962 
L 224.865354 54.815095 
L 227.300558 46.334608 
L 229.735763 47.894238 
L 232.170967 50.282421 
L 234.606171 49.648821 
L 237.041376 45.944701 
L 239.47658 45.895962 
L 241.911785 46.090916 
L 244.346989 45.603532 
L 246.782193 45.603532 
L 249.217398 62.515767 
L 251.652602 43.848948 
L 254.087807 47.163161 
L 256.523011 46.627039 
L 258.958215 54.96131 
L 261.39342 61.346044 
L 263.828624 45.457316 
L 266.263829 52.865558 
L 268.699033 51.842051 
L 271.134237 44.872455 
L 273.569442 45.506055 
L 276.004646 52.719342 
L 278.439851 53.937803 
L 280.875055 48.625314 
L 283.310259 45.701009 
L 285.745464 45.311101 
L 288.180668 46.237131 
L 290.615872 44.823717 
L 293.051077 44.677501 
L 295.486281 44.09264 
L 297.921486 44.872455 
L 300.35669 46.237131 
L 302.791894 46.627039 
L 305.227099 44.482548 
L 307.662303 45.944701 
L 310.097508 44.141379 
L 312.532712 45.944701 
L 314.967916 53.499157 
L 317.403121 45.603532 
L 319.838325 43.848948 
L 322.27353 44.385071 
L 324.708734 52.963034 
L 327.143938 45.311101 
L 329.579143 43.556518 
L 332.014347 44.141379 
L 334.449552 46.480823 
L 336.884756 47.601807 
L 339.31996 43.556518 
L 341.755165 44.969932 
L 344.190369 44.677501 
L 346.625574 44.677501 
L 349.060778 54.03528 
L 351.495982 44.09264 
L 353.931187 44.190117 
L 356.366391 44.628763 
L 358.801595 60.127584 
L 361.2368 53.937803 
L 363.672004 45.213624 
L 366.107209 44.09264 
L 368.542413 44.823717 
L 370.977617 44.969932 
L 373.412822 44.09264 
L 375.848026 44.677501 
L 378.283231 44.043902 
L 380.718435 45.701009 
L 383.153639 46.432085 
L 385.588844 44.043902 
L 388.024048 44.043902 
L 390.459253 44.336332 
L 392.894457 44.190117 
L 395.329661 45.847224 
L 397.764866 43.556518 
L 400.20007 43.556518 
L 402.635275 44.677501 
L 405.070479 44.969932 
L 407.505683 44.190117 
L 412.376092 44.190117 
L 414.811297 45.847224 
L 417.246501 43.556518 
L 419.681705 43.556518 
L 422.11691 44.190117 
L 424.552114 45.847224 
L 426.987318 43.556518 
L 429.422523 44.580025 
L 431.857727 43.556518 
L 431.857727 43.556518 
" style="fill:none;stroke:#ff7f0e;stroke-linecap:square;stroke-width:1.5;"/>
   </g>
   <g id="line2d_17">
    <path clip-path="url(#p4eefa66cfe)" d="M 69.012273 272.578397 
L 71.447477 175.540184 
L 73.882682 130.213445 
L 76.317886 114.422194 
L 78.75309 91.90504 
L 81.188295 72.604622 
L 83.623499 70.070223 
L 86.058703 62.613243 
L 88.493908 62.759459 
L 90.929112 65.245119 
L 93.364317 58.567954 
L 95.799521 57.593185 
L 98.234725 50.379898 
L 100.66993 51.208451 
L 103.105134 55.741125 
L 105.540339 54.132757 
L 107.975543 50.331159 
L 110.410747 52.865558 
L 112.845952 51.110974 
L 115.281156 49.795037 
L 117.716361 55.497433 
L 120.151565 53.889065 
L 122.586769 57.154539 
L 125.021974 48.332884 
L 127.457178 51.159713 
L 129.892383 46.968208 
L 132.327587 50.477375 
L 134.762791 56.082294 
L 137.197996 50.379898 
L 139.6332 50.526113 
L 142.068405 49.69756 
L 144.503609 45.701009 
L 146.938813 53.499157 
L 149.374018 47.601807 
L 151.809222 48.966483 
L 154.244426 50.526113 
L 156.679631 50.379898 
L 159.114835 47.358115 
L 161.55004 47.894238 
L 163.985244 52.47565 
L 166.420448 50.282421 
L 168.855653 46.870731 
L 171.290857 47.455592 
L 173.726062 50.282421 
L 176.161266 44.921194 
L 178.59647 56.228509 
L 181.031675 46.529562 
L 183.466879 46.237131 
L 185.902084 55.692387 
L 188.337288 45.847224 
L 190.772492 50.574851 
L 193.207697 49.795037 
L 195.642901 47.065685 
L 198.078106 47.114423 
L 200.51331 50.672328 
L 202.948514 51.062236 
L 205.383719 54.376449 
L 207.818923 47.358115 
L 210.254128 48.917745 
L 212.689332 47.016946 
L 215.124536 46.675777 
L 217.559741 47.2119 
L 219.994945 58.470477 
L 222.430149 52.865558 
L 224.865354 49.405129 
L 227.300558 52.524389 
L 229.735763 46.821992 
L 232.170967 46.968208 
L 234.606171 46.919469 
L 237.041376 48.625314 
L 239.47658 47.894238 
L 241.911785 54.717618 
L 244.346989 44.190117 
L 246.782193 45.311101 
L 249.217398 48.527837 
L 251.652602 48.186668 
L 254.087807 48.040453 
L 256.523011 51.159713 
L 258.958215 50.91602 
L 261.39342 48.381622 
L 263.828624 58.616692 
L 266.263829 45.262363 
L 268.699033 49.502606 
L 271.134237 51.842051 
L 273.569442 47.309377 
L 276.004646 50.087467 
L 278.439851 45.65227 
L 280.875055 49.161437 
L 283.310259 46.919469 
L 285.745464 47.065685 
L 288.180668 48.089192 
L 290.615872 52.816819 
L 293.051077 49.258914 
L 295.486281 49.356391 
L 297.921486 48.576576 
L 300.35669 46.334608 
L 302.791894 48.186668 
L 305.227099 45.262363 
L 307.662303 45.506055 
L 310.097508 44.677501 
L 312.532712 46.5783 
L 314.967916 45.262363 
L 317.403121 48.430361 
L 319.838325 44.385071 
L 322.27353 47.358115 
L 324.708734 48.722791 
L 327.143938 46.237131 
L 329.579143 46.968208 
L 332.014347 48.284145 
L 334.449552 45.944701 
L 336.884756 45.213624 
L 339.31996 55.59491 
L 341.755165 47.748023 
L 344.190369 46.821992 
L 349.060778 49.648821 
L 351.495982 47.260638 
L 356.366391 46.188393 
L 358.801595 46.821992 
L 361.2368 46.870731 
L 363.672004 45.213624 
L 366.107209 45.457316 
L 368.542413 45.506055 
L 373.412822 45.018671 
L 375.848026 44.433809 
L 378.283231 50.379898 
L 380.718435 48.284145 
L 383.153639 46.383347 
L 385.588844 47.553069 
L 388.024048 44.09264 
L 390.459253 48.722791 
L 392.894457 45.116147 
L 395.329661 46.188393 
L 397.764866 44.628763 
L 400.20007 46.724516 
L 402.635275 46.724516 
L 405.070479 45.164886 
L 407.505683 45.65227 
L 409.940888 48.820268 
L 412.376092 46.188393 
L 414.811297 46.188393 
L 417.246501 48.284145 
L 419.681705 44.628763 
L 422.11691 46.724516 
L 424.552114 45.164886 
L 426.987318 48.820268 
L 429.422523 45.701009 
L 431.857727 44.628763 
L 431.857727 44.628763 
" style="fill:none;stroke:#2ca02c;stroke-linecap:square;stroke-width:1.5;"/>
   </g>
   <g id="patch_3">
    <path d="M 50.87 303.64 
L 50.87 10.8 
" style="fill:none;stroke:#000000;stroke-linecap:square;stroke-linejoin:miter;stroke-width:0.8;"/>
   </g>
   <g id="patch_4">
    <path d="M 450 303.64 
L 450 10.8 
" style="fill:none;stroke:#000000;stroke-linecap:square;stroke-linejoin:miter;stroke-width:0.8;"/>
   </g>
   <g id="patch_5">
    <path d="M 50.87 303.64 
L 450 303.64 
" style="fill:none;stroke:#000000;stroke-linecap:square;stroke-linejoin:miter;stroke-width:0.8;"/>
   </g>
   <g id="patch_6">
    <path d="M 50.87 10.8 
L 450 10.8 
" style="fill:none;stroke:#000000;stroke-linecap:square;stroke-linejoin:miter;stroke-width:0.8;"/>
   </g>
   <g id="legend_1">
    <g id="patch_7">
     <path d="M 361.492188 298.64 
L 443 298.64 
Q 445 298.64 445 296.64 
L 445 253.605625 
Q 445 251.605625 443 251.605625 
L 361.492188 251.605625 
Q 359.492188 251.605625 359.492188 253.605625 
L 359.492188 296.64 
Q 359.492188 298.64 361.492188 298.64 
z
" style="fill:#ffffff;opacity:0.8;stroke:#cccccc;stroke-linejoin:miter;"/>
    </g>
    <g id="line2d_18">
     <path d="M 363.492188 259.704062 
L 383.492188 259.704062 
" style="fill:none;stroke:#1f77b4;stroke-linecap:square;stroke-width:1.5;"/>
    </g>
    <g id="line2d_19"/>
    <g id="text_17">
     <!-- Sync-SGD -->
     <g transform="translate(391.492188 263.204062)scale(0.1 -0.1)">
      <defs>
       <path d="M 53.515625 70.515625 
L 53.515625 60.890625 
Q 47.90625 63.578125 42.921875 64.890625 
Q 37.9375 66.21875 33.296875 66.21875 
Q 25.25 66.21875 20.875 63.09375 
Q 16.5 59.96875 16.5 54.203125 
Q 16.5 49.359375 19.40625 46.890625 
Q 22.3125 44.4375 30.421875 42.921875 
L 36.375 41.703125 
Q 47.40625 39.59375 52.65625 34.296875 
Q 57.90625 29 57.90625 20.125 
Q 57.90625 9.515625 50.796875 4.046875 
Q 43.703125 -1.421875 29.984375 -1.421875 
Q 24.8125 -1.421875 18.96875 -0.25 
Q 13.140625 0.921875 6.890625 3.21875 
L 6.890625 13.375 
Q 12.890625 10.015625 18.65625 8.296875 
Q 24.421875 6.59375 29.984375 6.59375 
Q 38.421875 6.59375 43.015625 9.90625 
Q 47.609375 13.234375 47.609375 19.390625 
Q 47.609375 24.75 44.3125 27.78125 
Q 41.015625 30.8125 33.5 32.328125 
L 27.484375 33.5 
Q 16.453125 35.6875 11.515625 40.375 
Q 6.59375 45.0625 6.59375 53.421875 
Q 6.59375 63.09375 13.40625 68.65625 
Q 20.21875 74.21875 32.171875 74.21875 
Q 37.3125 74.21875 42.625 73.28125 
Q 47.953125 72.359375 53.515625 70.515625 
z
" id="DejaVuSans-83"/>
       <path d="M 54.890625 33.015625 
L 54.890625 0 
L 45.90625 0 
L 45.90625 32.71875 
Q 45.90625 40.484375 42.875 44.328125 
Q 39.84375 48.1875 33.796875 48.1875 
Q 26.515625 48.1875 22.3125 43.546875 
Q 18.109375 38.921875 18.109375 30.90625 
L 18.109375 0 
L 9.078125 0 
L 9.078125 54.6875 
L 18.109375 54.6875 
L 18.109375 46.1875 
Q 21.34375 51.125 25.703125 53.5625 
Q 30.078125 56 35.796875 56 
Q 45.21875 56 50.046875 50.171875 
Q 54.890625 44.34375 54.890625 33.015625 
z
" id="DejaVuSans-110"/>
       <path d="M 4.890625 31.390625 
L 31.203125 31.390625 
L 31.203125 23.390625 
L 4.890625 23.390625 
z
" id="DejaVuSans-45"/>
       <path d="M 59.515625 10.40625 
L 59.515625 29.984375 
L 43.40625 29.984375 
L 43.40625 38.09375 
L 69.28125 38.09375 
L 69.28125 6.78125 
Q 63.578125 2.734375 56.6875 0.65625 
Q 49.8125 -1.421875 42 -1.421875 
Q 24.90625 -1.421875 15.25 8.5625 
Q 5.609375 18.5625 5.609375 36.375 
Q 5.609375 54.25 15.25 64.234375 
Q 24.90625 74.21875 42 74.21875 
Q 49.125 74.21875 55.546875 72.453125 
Q 61.96875 70.703125 67.390625 67.28125 
L 67.390625 56.78125 
Q 61.921875 61.421875 55.765625 63.765625 
Q 49.609375 66.109375 42.828125 66.109375 
Q 29.4375 66.109375 22.71875 58.640625 
Q 16.015625 51.171875 16.015625 36.375 
Q 16.015625 21.625 22.71875 14.15625 
Q 29.4375 6.6875 42.828125 6.6875 
Q 48.046875 6.6875 52.140625 7.59375 
Q 56.25 8.5 59.515625 10.40625 
z
" id="DejaVuSans-71"/>
       <path d="M 19.671875 64.796875 
L 19.671875 8.109375 
L 31.59375 8.109375 
Q 46.6875 8.109375 53.6875 14.9375 
Q 60.6875 21.78125 60.6875 36.53125 
Q 60.6875 51.171875 53.6875 57.984375 
Q 46.6875 64.796875 31.59375 64.796875 
z
M 9.8125 72.90625 
L 30.078125 72.90625 
Q 51.265625 72.90625 61.171875 64.09375 
Q 71.09375 55.28125 71.09375 36.53125 
Q 71.09375 17.671875 61.125 8.828125 
Q 51.171875 0 30.078125 0 
L 9.8125 0 
z
" id="DejaVuSans-68"/>
      </defs>
      <use xlink:href="#DejaVuSans-83"/>
      <use x="63.476562" xlink:href="#DejaVuSans-121"/>
      <use x="122.65625" xlink:href="#DejaVuSans-110"/>
      <use x="186.035156" xlink:href="#DejaVuSans-99"/>
      <use x="241.015625" xlink:href="#DejaVuSans-45"/>
      <use x="277.099609" xlink:href="#DejaVuSans-83"/>
      <use x="340.576172" xlink:href="#DejaVuSans-71"/>
      <use x="418.066406" xlink:href="#DejaVuSans-68"/>
     </g>
    </g>
    <g id="line2d_20">
     <path d="M 363.492188 274.382187 
L 383.492188 274.382187 
" style="fill:none;stroke:#ff7f0e;stroke-linecap:square;stroke-width:1.5;"/>
    </g>
    <g id="line2d_21"/>
    <g id="text_18">
     <!-- DP-SGD -->
     <g transform="translate(391.492188 277.882187)scale(0.1 -0.1)">
      <defs>
       <path d="M 19.671875 64.796875 
L 19.671875 37.40625 
L 32.078125 37.40625 
Q 38.96875 37.40625 42.71875 40.96875 
Q 46.484375 44.53125 46.484375 51.125 
Q 46.484375 57.671875 42.71875 61.234375 
Q 38.96875 64.796875 32.078125 64.796875 
z
M 9.8125 72.90625 
L 32.078125 72.90625 
Q 44.34375 72.90625 50.609375 67.359375 
Q 56.890625 61.8125 56.890625 51.125 
Q 56.890625 40.328125 50.609375 34.8125 
Q 44.34375 29.296875 32.078125 29.296875 
L 19.671875 29.296875 
L 19.671875 0 
L 9.8125 0 
z
" id="DejaVuSans-80"/>
      </defs>
      <use xlink:href="#DejaVuSans-68"/>
      <use x="77.001953" xlink:href="#DejaVuSans-80"/>
      <use x="135.054688" xlink:href="#DejaVuSans-45"/>
      <use x="171.138672" xlink:href="#DejaVuSans-83"/>
      <use x="234.615234" xlink:href="#DejaVuSans-71"/>
      <use x="312.105469" xlink:href="#DejaVuSans-68"/>
     </g>
    </g>
    <g id="line2d_22">
     <path d="M 363.492188 289.060312 
L 383.492188 289.060312 
" style="fill:none;stroke:#2ca02c;stroke-linecap:square;stroke-width:1.5;"/>
    </g>
    <g id="line2d_23"/>
    <g id="text_19">
     <!-- EDP-SGD -->
     <g transform="translate(391.492188 292.560312)scale(0.1 -0.1)">
      <use xlink:href="#DejaVuSans-69"/>
      <use x="63.183594" xlink:href="#DejaVuSans-68"/>
      <use x="140.185547" xlink:href="#DejaVuSans-80"/>
      <use x="198.238281" xlink:href="#DejaVuSans-45"/>
      <use x="234.322266" xlink:href="#DejaVuSans-83"/>
      <use x="297.798828" xlink:href="#DejaVuSans-71"/>
      <use x="375.289062" xlink:href="#DejaVuSans-68"/>
     </g>
    </g>
   </g>
  </g>
 </g>
 <defs>
  <clipPath id="p4eefa66cfe">
   <rect height="292.84" width="399.13" x="50.87" y="10.8"/>
  </clipPath>
 </defs>
</svg>
