<?xml version="1.0" encoding="utf-8" standalone="no"?>
<!DOCTYPE svg PUBLIC "-//W3C//DTD SVG 1.1//EN"
  "http://www.w3.org/Graphics/SVG/1.1/DTD/svg11.dtd">
<!-- Created with matplotlib (https://matplotlib.org/) -->
<svg height="345.6pt" version="1.1" viewBox="0 0 460.8 345.6" width="460.8pt" xmlns="http://www.w3.org/2000/svg" xmlns:xlink="http://www.w3.org/1999/xlink">
 <metadata>
  <rdf:RDF xmlns:cc="http://creativecommons.org/ns#" xmlns:dc="http://purl.org/dc/elements/1.1/" xmlns:rdf="http://www.w3.org/1999/02/22-rdf-syntax-ns#">
   <cc:Work>
    <dc:type rdf:resource="http://purl.org/dc/dcmitype/StillImage"/>
    <dc:date>2021-06-24T12:03:25.486910</dc:date>
    <dc:format>image/svg+xml</dc:format>
    <dc:creator>
     <cc:Agent>
      <dc:title>Matplotlib v3.3.1, https://matplotlib.org/</dc:title>
     </cc:Agent>
    </dc:creator>
   </cc:Work>
  </rdf:RDF>
 </metadata>
 <defs>
  <style type="text/css">*{stroke-linecap:butt;stroke-linejoin:round;}</style>
 </defs>
 <g id="figure_1">
  <g id="patch_1">
   <path d="M 0 345.6 
L 460.8 345.6 
L 460.8 0 
L 0 0 
z
" style="fill:#ffffff;"/>
  </g>
  <g id="axes_1">
   <g id="patch_2">
    <path d="M 50.87 303.64 
L 450 303.64 
L 450 10.8 
L 50.87 10.8 
z
" style="fill:#ffffff;"/>
   </g>
   <g id="PolyCollection_1">
    <path clip-path="url(#p80bc91cc54)" d="M 69.012273 97.028122 
L 69.012273 249.43494 
L 71.447477 138.013264 
L 73.882682 110.192407 
L 76.317886 146.741139 
L 78.75309 81.181698 
L 81.188295 88.827912 
L 83.623499 63.246487 
L 86.058703 60.66489 
L 88.493908 62.737898 
L 90.929112 56.555688 
L 93.364317 47.157742 
L 95.799521 51.509958 
L 98.234725 45.641694 
L 100.66993 38.836903 
L 103.105134 43.089897 
L 105.540339 48.784963 
L 107.975543 47.823191 
L 110.410747 34.49798 
L 112.845952 44.351603 
L 115.281156 43.089897 
L 117.716361 44.705167 
L 120.151565 43.503997 
L 122.586769 32.88271 
L 125.021974 34.49798 
L 127.457178 50.43333 
L 129.892383 36.561172 
L 132.327587 34.49798 
L 134.762791 34.49798 
L 137.197996 32.032111 
L 139.6332 39.24801 
L 142.068405 26.928518 
L 144.503609 36.199178 
L 146.938813 36.199178 
L 149.374018 26.928518 
L 151.809222 29.480315 
L 154.244426 43.089897 
L 156.679631 32.032111 
L 159.114835 34.49798 
L 161.55004 36.199178 
L 163.985244 32.032111 
L 166.420448 38.836903 
L 168.855653 40.814167 
L 171.290857 47.342892 
L 173.726062 32.032111 
L 176.161266 38.836903 
L 178.59647 34.985507 
L 181.031675 35.434507 
L 183.466879 32.032111 
L 185.902084 37.135705 
L 188.337288 32.032111 
L 190.772492 34.985507 
L 193.207697 34.49798 
L 195.642901 32.032111 
L 198.078106 34.49798 
L 200.51331 32.032111 
L 202.948514 26.928518 
L 205.383719 37.135705 
L 207.818923 32.032111 
L 210.254128 26.928518 
L 212.689332 36.199178 
L 215.124536 32.032111 
L 217.559741 26.928518 
L 219.994945 26.928518 
L 222.430149 32.032111 
L 224.865354 34.49798 
L 227.300558 36.199178 
L 229.735763 32.032111 
L 232.170967 32.032111 
L 234.606171 32.032111 
L 237.041376 32.032111 
L 239.47658 34.49798 
L 241.911785 32.032111 
L 244.346989 26.928518 
L 246.782193 26.928518 
L 249.217398 26.928518 
L 251.652602 26.928518 
L 254.087807 32.032111 
L 256.523011 32.032111 
L 258.958215 32.032111 
L 261.39342 32.032111 
L 263.828624 26.928518 
L 266.263829 26.928518 
L 268.699033 32.032111 
L 271.134237 32.032111 
L 273.569442 32.032111 
L 276.004646 32.032111 
L 278.439851 26.928518 
L 280.875055 32.032111 
L 283.310259 36.199178 
L 285.745464 26.928518 
L 288.180668 26.928518 
L 290.615872 26.928518 
L 293.051077 32.032111 
L 295.486281 26.928518 
L 297.921486 34.49798 
L 300.35669 32.032111 
L 302.791894 32.032111 
L 305.227099 26.928518 
L 307.662303 32.032111 
L 310.097508 26.928518 
L 312.532712 26.928518 
L 314.967916 26.928518 
L 317.403121 26.928518 
L 319.838325 26.928518 
L 322.27353 26.928518 
L 324.708734 26.928518 
L 327.143938 26.928518 
L 329.579143 26.928518 
L 332.014347 26.928518 
L 334.449552 26.928518 
L 336.884756 26.928518 
L 339.31996 34.49798 
L 341.755165 32.032111 
L 344.190369 26.928518 
L 346.625574 26.928518 
L 349.060778 26.928518 
L 351.495982 32.032111 
L 353.931187 26.928518 
L 356.366391 32.032111 
L 358.801595 26.928518 
L 361.2368 26.928518 
L 363.672004 26.928518 
L 366.107209 26.928518 
L 368.542413 26.928518 
L 370.977617 26.928518 
L 373.412822 26.928518 
L 375.848026 26.928518 
L 378.283231 26.928518 
L 380.718435 26.928518 
L 383.153639 26.928518 
L 385.588844 26.928518 
L 388.024048 26.928518 
L 390.459253 26.928518 
L 392.894457 26.928518 
L 395.329661 26.928518 
L 397.764866 26.928518 
L 400.20007 26.928518 
L 402.635275 26.928518 
L 405.070479 26.928518 
L 407.505683 26.928518 
L 409.940888 26.928518 
L 412.376092 26.928518 
L 414.811297 26.928518 
L 417.246501 26.928518 
L 419.681705 26.928518 
L 422.11691 26.928518 
L 424.552114 26.928518 
L 426.987318 26.928518 
L 429.422523 26.928518 
L 431.857727 26.928518 
L 431.857727 26.928518 
L 431.857727 26.928518 
L 429.422523 26.928518 
L 426.987318 26.928518 
L 424.552114 26.928518 
L 422.11691 26.928518 
L 419.681705 26.928518 
L 417.246501 26.928518 
L 414.811297 26.928518 
L 412.376092 26.928518 
L 409.940888 26.928518 
L 407.505683 26.928518 
L 405.070479 26.928518 
L 402.635275 26.928518 
L 400.20007 26.928518 
L 397.764866 26.928518 
L 395.329661 26.928518 
L 392.894457 26.928518 
L 390.459253 26.928518 
L 388.024048 26.928518 
L 385.588844 26.928518 
L 383.153639 26.928518 
L 380.718435 26.928518 
L 378.283231 26.928518 
L 375.848026 26.928518 
L 373.412822 26.928518 
L 370.977617 26.928518 
L 368.542413 26.928518 
L 366.107209 26.928518 
L 363.672004 26.928518 
L 361.2368 26.928518 
L 358.801595 26.928518 
L 356.366391 25.22732 
L 353.931187 26.928518 
L 351.495982 25.22732 
L 349.060778 26.928518 
L 346.625574 26.928518 
L 344.190369 26.928518 
L 341.755165 25.22732 
L 339.31996 26.163847 
L 336.884756 26.928518 
L 334.449552 26.928518 
L 332.014347 26.928518 
L 329.579143 26.928518 
L 327.143938 26.928518 
L 324.708734 26.928518 
L 322.27353 26.928518 
L 319.838325 26.928518 
L 317.403121 26.928518 
L 314.967916 26.928518 
L 312.532712 26.928518 
L 310.097508 26.928518 
L 307.662303 25.22732 
L 305.227099 26.928518 
L 302.791894 25.22732 
L 300.35669 25.22732 
L 297.921486 26.163847 
L 295.486281 26.928518 
L 293.051077 25.22732 
L 290.615872 26.928518 
L 288.180668 26.928518 
L 285.745464 26.928518 
L 283.310259 27.865045 
L 280.875055 25.22732 
L 278.439851 26.928518 
L 276.004646 25.22732 
L 273.569442 25.22732 
L 271.134237 25.22732 
L 268.699033 25.22732 
L 266.263829 26.928518 
L 263.828624 26.928518 
L 261.39342 25.22732 
L 258.958215 25.22732 
L 256.523011 25.22732 
L 254.087807 25.22732 
L 251.652602 26.928518 
L 249.217398 26.928518 
L 246.782193 26.928518 
L 244.346989 26.928518 
L 241.911785 25.22732 
L 239.47658 26.163847 
L 237.041376 25.22732 
L 234.606171 25.22732 
L 232.170967 25.22732 
L 229.735763 25.22732 
L 227.300558 27.865045 
L 224.865354 26.163847 
L 222.430149 25.22732 
L 219.994945 26.928518 
L 217.559741 26.928518 
L 215.124536 25.22732 
L 212.689332 27.865045 
L 210.254128 26.928518 
L 207.818923 25.22732 
L 205.383719 30.330914 
L 202.948514 26.928518 
L 200.51331 25.22732 
L 198.078106 26.163847 
L 195.642901 25.22732 
L 193.207697 26.163847 
L 190.772492 27.377519 
L 188.337288 25.22732 
L 185.902084 30.330914 
L 183.466879 25.22732 
L 181.031675 35.434507 
L 178.59647 27.377519 
L 176.161266 25.22732 
L 173.726062 25.22732 
L 171.290857 33.733309 
L 168.855653 30.054847 
L 166.420448 25.22732 
L 163.985244 25.22732 
L 161.55004 27.865045 
L 159.114835 26.163847 
L 156.679631 25.22732 
L 154.244426 29.480315 
L 151.809222 26.077919 
L 149.374018 26.928518 
L 146.938813 27.865045 
L 144.503609 27.865045 
L 142.068405 26.928518 
L 139.6332 26.517411 
L 137.197996 25.22732 
L 134.762791 26.163847 
L 132.327587 26.163847 
L 129.892383 25.801853 
L 127.457178 39.14886 
L 125.021974 26.163847 
L 122.586769 26.077919 
L 120.151565 27.365017 
L 117.716361 36.371034 
L 115.281156 29.480315 
L 112.845952 31.621004 
L 110.410747 26.163847 
L 107.975543 24.747021 
L 105.540339 32.291238 
L 103.105134 29.480315 
L 100.66993 25.22732 
L 98.234725 32.032111 
L 95.799521 43.175825 
L 93.364317 35.619657 
L 90.929112 46.636085 
L 88.493908 54.063457 
L 86.058703 40.825685 
L 83.623499 38.244088 
L 81.188295 51.790213 
L 78.75309 69.643613 
L 76.317886 99.351251 
L 73.882682 79.760455 
L 71.447477 104.676731 
L 69.012273 97.028122 
z
" style="fill:#1f77b4;fill-opacity:0.25;"/>
   </g>
   <g id="PolyCollection_2">
    <path clip-path="url(#p80bc91cc54)" d="M 69.012273 191.64501 
L 69.012273 290.329091 
L 71.447477 167.681722 
L 73.882682 88.08866 
L 76.317886 100.353791 
L 78.75309 72.238227 
L 81.188295 72.643768 
L 83.623499 55.021726 
L 86.058703 33.315252 
L 88.493908 48.376497 
L 90.929112 36.830255 
L 93.364317 52.475535 
L 95.799521 48.767024 
L 98.234725 40.637837 
L 100.66993 39.46544 
L 103.105134 33.315252 
L 105.540339 31.234675 
L 107.975543 26.928518 
L 110.410747 34.648362 
L 112.845952 26.928518 
L 115.281156 30.773421 
L 117.716361 31.234675 
L 120.151565 31.234675 
L 122.586769 26.928518 
L 125.021974 34.851321 
L 127.457178 33.232114 
L 129.892383 32.670061 
L 132.327587 32.462552 
L 134.762791 31.766299 
L 137.197996 31.234675 
L 139.6332 26.928518 
L 142.068405 26.928518 
L 144.503609 26.928518 
L 146.938813 37.273703 
L 149.374018 33.315252 
L 151.809222 31.075188 
L 154.244426 32.670061 
L 156.679631 26.928518 
L 159.114835 29.001853 
L 161.55004 33.315252 
L 163.985244 26.928518 
L 166.420448 31.422886 
L 168.855653 30.003612 
L 171.290857 31.234675 
L 173.726062 30.773421 
L 176.161266 31.234675 
L 178.59647 31.234675 
L 181.031675 31.696537 
L 183.466879 31.332502 
L 185.902084 28.523391 
L 188.337288 26.928518 
L 190.772492 28.523391 
L 193.207697 28.523391 
L 195.642901 29.293975 
L 198.078106 26.928518 
L 200.51331 29.001853 
L 202.948514 26.928518 
L 205.383719 26.928518 
L 207.818923 30.144603 
L 210.254128 30.596726 
L 212.689332 28.523391 
L 215.124536 26.928518 
L 217.559741 26.928518 
L 219.994945 28.523391 
L 222.430149 26.928518 
L 224.865354 30.596726 
L 227.300558 26.928518 
L 229.735763 26.928518 
L 232.170967 26.928518 
L 234.606171 28.523391 
L 237.041376 28.523391 
L 239.47658 32.670061 
L 241.911785 26.928518 
L 244.346989 26.928518 
L 246.782193 29.001853 
L 249.217398 26.928518 
L 251.652602 26.928518 
L 254.087807 26.928518 
L 256.523011 26.928518 
L 258.958215 26.928518 
L 261.39342 26.928518 
L 263.828624 29.001853 
L 266.263829 26.928518 
L 268.699033 26.928518 
L 271.134237 26.928518 
L 273.569442 26.928518 
L 276.004646 26.928518 
L 278.439851 26.928518 
L 280.875055 26.928518 
L 283.310259 28.523391 
L 285.745464 26.928518 
L 288.180668 26.928518 
L 290.615872 26.928518 
L 293.051077 26.928518 
L 295.486281 29.669877 
L 297.921486 26.928518 
L 300.35669 31.234675 
L 302.791894 29.001853 
L 305.227099 26.928518 
L 307.662303 26.928518 
L 310.097508 26.928518 
L 312.532712 26.928518 
L 314.967916 31.234675 
L 317.403121 26.928518 
L 319.838325 26.928518 
L 322.27353 26.928518 
L 324.708734 26.928518 
L 327.143938 26.928518 
L 329.579143 26.928518 
L 332.014347 28.523391 
L 334.449552 26.928518 
L 336.884756 29.001853 
L 339.31996 26.928518 
L 341.755165 26.928518 
L 344.190369 31.234675 
L 346.625574 26.928518 
L 349.060778 26.928518 
L 351.495982 26.928518 
L 353.931187 26.928518 
L 356.366391 26.928518 
L 358.801595 26.928518 
L 361.2368 26.928518 
L 363.672004 26.928518 
L 366.107209 26.928518 
L 368.542413 26.928518 
L 370.977617 26.928518 
L 373.412822 26.928518 
L 375.848026 26.928518 
L 378.283231 26.928518 
L 380.718435 26.928518 
L 383.153639 26.928518 
L 385.588844 26.928518 
L 388.024048 26.928518 
L 390.459253 26.928518 
L 392.894457 26.928518 
L 395.329661 26.928518 
L 397.764866 26.928518 
L 400.20007 26.928518 
L 402.635275 26.928518 
L 405.070479 26.928518 
L 407.505683 26.928518 
L 409.940888 26.928518 
L 412.376092 26.928518 
L 414.811297 26.928518 
L 417.246501 26.928518 
L 419.681705 26.928518 
L 422.11691 26.928518 
L 424.552114 26.928518 
L 426.987318 26.928518 
L 429.422523 26.928518 
L 431.857727 26.928518 
L 431.857727 26.928518 
L 431.857727 26.928518 
L 429.422523 26.928518 
L 426.987318 26.928518 
L 424.552114 26.928518 
L 422.11691 26.928518 
L 419.681705 26.928518 
L 417.246501 26.928518 
L 414.811297 26.928518 
L 412.376092 26.928518 
L 409.940888 26.928518 
L 407.505683 26.928518 
L 405.070479 26.928518 
L 402.635275 26.928518 
L 400.20007 26.928518 
L 397.764866 26.928518 
L 395.329661 26.928518 
L 392.894457 26.928518 
L 390.459253 26.928518 
L 388.024048 26.928518 
L 385.588844 26.928518 
L 383.153639 26.928518 
L 380.718435 26.928518 
L 378.283231 26.928518 
L 375.848026 26.928518 
L 373.412822 26.928518 
L 370.977617 26.928518 
L 368.542413 26.928518 
L 366.107209 26.928518 
L 363.672004 26.928518 
L 361.2368 26.928518 
L 358.801595 26.928518 
L 356.366391 26.928518 
L 353.931187 26.928518 
L 351.495982 26.928518 
L 349.060778 26.928518 
L 346.625574 26.928518 
L 344.190369 25.493132 
L 341.755165 26.928518 
L 339.31996 26.928518 
L 336.884756 26.237406 
L 334.449552 26.928518 
L 332.014347 26.396894 
L 329.579143 26.928518 
L 327.143938 26.928518 
L 324.708734 26.928518 
L 322.27353 26.928518 
L 319.838325 26.928518 
L 317.403121 26.928518 
L 314.967916 25.493132 
L 312.532712 26.928518 
L 310.097508 26.928518 
L 307.662303 26.928518 
L 305.227099 26.928518 
L 302.791894 26.237406 
L 300.35669 25.493132 
L 297.921486 26.928518 
L 295.486281 26.632631 
L 293.051077 26.928518 
L 290.615872 26.928518 
L 288.180668 26.928518 
L 285.745464 26.928518 
L 283.310259 26.396894 
L 280.875055 26.928518 
L 278.439851 26.928518 
L 276.004646 26.928518 
L 273.569442 26.928518 
L 271.134237 26.928518 
L 268.699033 26.928518 
L 266.263829 26.928518 
L 263.828624 26.237406 
L 261.39342 26.928518 
L 258.958215 26.928518 
L 256.523011 26.928518 
L 254.087807 26.928518 
L 251.652602 26.928518 
L 249.217398 26.928518 
L 246.782193 26.237406 
L 244.346989 26.928518 
L 241.911785 26.928518 
L 239.47658 25.01467 
L 237.041376 26.396894 
L 234.606171 26.396894 
L 232.170967 26.928518 
L 229.735763 26.928518 
L 227.300558 26.928518 
L 224.865354 25.705782 
L 222.430149 26.928518 
L 219.994945 26.396894 
L 217.559741 26.928518 
L 215.124536 26.928518 
L 212.689332 26.396894 
L 210.254128 25.705782 
L 207.818923 27.221153 
L 205.383719 26.928518 
L 202.948514 26.928518 
L 200.51331 26.237406 
L 198.078106 26.928518 
L 195.642901 26.689558 
L 193.207697 26.396894 
L 190.772492 26.396894 
L 188.337288 26.928518 
L 185.902084 26.396894 
L 183.466879 26.352229 
L 181.031675 26.094519 
L 178.59647 25.493132 
L 176.161266 25.493132 
L 173.726062 26.48601 
L 171.290857 25.493132 
L 168.855653 26.61787 
L 166.420448 26.474495 
L 163.985244 26.928518 
L 161.55004 26.283327 
L 159.114835 26.237406 
L 156.679631 26.928518 
L 154.244426 25.01467 
L 151.809222 25.546295 
L 149.374018 26.283327 
L 146.938813 25.195647 
L 144.503609 26.928518 
L 142.068405 26.928518 
L 139.6332 26.928518 
L 137.197996 25.493132 
L 134.762791 26.237406 
L 132.327587 25.860129 
L 129.892383 25.01467 
L 127.457178 27.536038 
L 125.021974 26.023156 
L 122.586769 26.928518 
L 120.151565 25.493132 
L 117.716361 25.493132 
L 115.281156 26.48601 
L 112.845952 26.928518 
L 110.410747 25.375517 
L 107.975543 26.928518 
L 105.540339 25.493132 
L 103.105134 26.283327 
L 100.66993 25.662032 
L 98.234725 29.061603 
L 95.799521 32.202852 
L 93.364317 39.020503 
L 90.929112 25.53277 
L 88.493908 26.001238 
L 86.058703 26.283327 
L 83.623499 33.178241 
L 81.188295 30.016381 
L 78.75309 36.057139 
L 76.317886 54.511866 
L 73.882682 73.900763 
L 71.447477 126.894806 
L 69.012273 191.64501 
z
" style="fill:#ff7f0e;fill-opacity:0.25;"/>
   </g>
   <g id="PolyCollection_3">
    <path clip-path="url(#p80bc91cc54)" d="M 69.012273 159.779339 
L 69.012273 193.488514 
L 71.447477 124.931326 
L 73.882682 85.153811 
L 76.317886 58.193117 
L 78.75309 48.001223 
L 81.188295 43.834171 
L 83.623499 43.927441 
L 86.058703 31.234675 
L 88.493908 26.928518 
L 90.929112 33.315252 
L 93.364317 26.928518 
L 95.799521 33.315252 
L 98.234725 26.928518 
L 100.66993 26.928518 
L 103.105134 26.928518 
L 105.540339 35.262922 
L 107.975543 26.928518 
L 110.410747 26.928518 
L 112.845952 26.928518 
L 115.281156 26.928518 
L 117.716361 26.928518 
L 120.151565 26.928518 
L 122.586769 26.928518 
L 125.021974 26.928518 
L 127.457178 26.928518 
L 129.892383 26.928518 
L 132.327587 26.928518 
L 134.762791 26.928518 
L 137.197996 26.928518 
L 139.6332 26.928518 
L 142.068405 35.381345 
L 144.503609 26.928518 
L 146.938813 26.928518 
L 149.374018 26.928518 
L 151.809222 33.315252 
L 154.244426 26.928518 
L 156.679631 31.234675 
L 159.114835 26.928518 
L 161.55004 26.928518 
L 163.985244 32.032111 
L 166.420448 31.234675 
L 168.855653 33.626984 
L 171.290857 26.928518 
L 173.726062 26.928518 
L 176.161266 26.928518 
L 178.59647 31.234675 
L 181.031675 31.234675 
L 183.466879 31.696537 
L 185.902084 26.928518 
L 188.337288 31.234675 
L 190.772492 26.928518 
L 193.207697 26.928518 
L 195.642901 26.928518 
L 198.078106 26.928518 
L 200.51331 26.928518 
L 202.948514 26.928518 
L 205.383719 26.928518 
L 207.818923 26.928518 
L 210.254128 29.001853 
L 212.689332 26.928518 
L 215.124536 31.234675 
L 217.559741 26.928518 
L 219.994945 26.928518 
L 222.430149 26.928518 
L 224.865354 28.523391 
L 227.300558 26.928518 
L 229.735763 26.928518 
L 232.170967 26.928518 
L 234.606171 26.928518 
L 237.041376 26.928518 
L 239.47658 26.928518 
L 241.911785 26.928518 
L 244.346989 26.928518 
L 246.782193 26.928518 
L 249.217398 26.928518 
L 251.652602 31.234675 
L 254.087807 31.234675 
L 256.523011 26.928518 
L 258.958215 26.928518 
L 261.39342 26.928518 
L 263.828624 26.928518 
L 266.263829 26.928518 
L 268.699033 26.928518 
L 271.134237 26.928518 
L 273.569442 26.928518 
L 276.004646 26.928518 
L 278.439851 26.928518 
L 280.875055 26.928518 
L 283.310259 26.928518 
L 285.745464 26.928518 
L 288.180668 26.928518 
L 290.615872 26.928518 
L 293.051077 26.928518 
L 295.486281 26.928518 
L 297.921486 26.928518 
L 300.35669 26.928518 
L 302.791894 26.928518 
L 305.227099 26.928518 
L 307.662303 26.928518 
L 310.097508 26.928518 
L 312.532712 26.928518 
L 314.967916 26.928518 
L 317.403121 26.928518 
L 319.838325 26.928518 
L 322.27353 26.928518 
L 324.708734 26.928518 
L 327.143938 26.928518 
L 329.579143 26.928518 
L 332.014347 26.928518 
L 334.449552 26.928518 
L 336.884756 26.928518 
L 339.31996 26.928518 
L 341.755165 26.928518 
L 344.190369 26.928518 
L 346.625574 26.928518 
L 349.060778 26.928518 
L 351.495982 26.928518 
L 353.931187 26.928518 
L 356.366391 26.928518 
L 358.801595 26.928518 
L 361.2368 28.523391 
L 363.672004 26.928518 
L 366.107209 26.928518 
L 368.542413 26.928518 
L 370.977617 26.928518 
L 373.412822 26.928518 
L 375.848026 26.928518 
L 378.283231 26.928518 
L 380.718435 26.928518 
L 383.153639 26.928518 
L 385.588844 26.928518 
L 388.024048 26.928518 
L 390.459253 26.928518 
L 392.894457 26.928518 
L 395.329661 26.928518 
L 397.764866 26.928518 
L 400.20007 26.928518 
L 402.635275 26.928518 
L 405.070479 26.928518 
L 407.505683 26.928518 
L 409.940888 26.928518 
L 412.376092 26.928518 
L 414.811297 26.928518 
L 417.246501 26.928518 
L 419.681705 26.928518 
L 422.11691 26.928518 
L 424.552114 26.928518 
L 426.987318 26.928518 
L 429.422523 26.928518 
L 431.857727 26.928518 
L 431.857727 26.928518 
L 431.857727 26.928518 
L 429.422523 26.928518 
L 426.987318 26.928518 
L 424.552114 26.928518 
L 422.11691 26.928518 
L 419.681705 26.928518 
L 417.246501 26.928518 
L 414.811297 26.928518 
L 412.376092 26.928518 
L 409.940888 26.928518 
L 407.505683 26.928518 
L 405.070479 26.928518 
L 402.635275 26.928518 
L 400.20007 26.928518 
L 397.764866 26.928518 
L 395.329661 26.928518 
L 392.894457 26.928518 
L 390.459253 26.928518 
L 388.024048 26.928518 
L 385.588844 26.928518 
L 383.153639 26.928518 
L 380.718435 26.928518 
L 378.283231 26.928518 
L 375.848026 26.928518 
L 373.412822 26.928518 
L 370.977617 26.928518 
L 368.542413 26.928518 
L 366.107209 26.928518 
L 363.672004 26.928518 
L 361.2368 26.396894 
L 358.801595 26.928518 
L 356.366391 26.928518 
L 353.931187 26.928518 
L 351.495982 26.928518 
L 349.060778 26.928518 
L 346.625574 26.928518 
L 344.190369 26.928518 
L 341.755165 26.928518 
L 339.31996 26.928518 
L 336.884756 26.928518 
L 334.449552 26.928518 
L 332.014347 26.928518 
L 329.579143 26.928518 
L 327.143938 26.928518 
L 324.708734 26.928518 
L 322.27353 26.928518 
L 319.838325 26.928518 
L 317.403121 26.928518 
L 314.967916 26.928518 
L 312.532712 26.928518 
L 310.097508 26.928518 
L 307.662303 26.928518 
L 305.227099 26.928518 
L 302.791894 26.928518 
L 300.35669 26.928518 
L 297.921486 26.928518 
L 295.486281 26.928518 
L 293.051077 26.928518 
L 290.615872 26.928518 
L 288.180668 26.928518 
L 285.745464 26.928518 
L 283.310259 26.928518 
L 280.875055 26.928518 
L 278.439851 26.928518 
L 276.004646 26.928518 
L 273.569442 26.928518 
L 271.134237 26.928518 
L 268.699033 26.928518 
L 266.263829 26.928518 
L 263.828624 26.928518 
L 261.39342 26.928518 
L 258.958215 26.928518 
L 256.523011 26.928518 
L 254.087807 25.493132 
L 251.652602 25.493132 
L 249.217398 26.928518 
L 246.782193 26.928518 
L 244.346989 26.928518 
L 241.911785 26.928518 
L 239.47658 26.928518 
L 237.041376 26.928518 
L 234.606171 26.928518 
L 232.170967 26.928518 
L 229.735763 26.928518 
L 227.300558 26.928518 
L 224.865354 26.396894 
L 222.430149 26.928518 
L 219.994945 26.928518 
L 217.559741 26.928518 
L 215.124536 25.493132 
L 212.689332 26.928518 
L 210.254128 26.237406 
L 207.818923 26.928518 
L 205.383719 26.928518 
L 202.948514 26.928518 
L 200.51331 26.928518 
L 198.078106 26.928518 
L 195.642901 26.928518 
L 193.207697 26.928518 
L 190.772492 26.928518 
L 188.337288 25.493132 
L 185.902084 26.928518 
L 183.466879 26.094519 
L 181.031675 25.493132 
L 178.59647 25.493132 
L 176.161266 26.928518 
L 173.726062 26.928518 
L 171.290857 26.928518 
L 168.855653 24.695696 
L 166.420448 25.493132 
L 163.985244 25.22732 
L 161.55004 26.928518 
L 159.114835 26.928518 
L 156.679631 25.493132 
L 154.244426 26.928518 
L 151.809222 26.283327 
L 149.374018 26.928518 
L 146.938813 26.928518 
L 144.503609 26.928518 
L 142.068405 24.110909 
L 139.6332 26.928518 
L 137.197996 26.928518 
L 134.762791 26.928518 
L 132.327587 26.928518 
L 129.892383 26.928518 
L 127.457178 26.928518 
L 125.021974 26.928518 
L 122.586769 26.928518 
L 120.151565 26.928518 
L 117.716361 26.928518 
L 115.281156 26.928518 
L 112.845952 26.928518 
L 110.410747 26.928518 
L 107.975543 26.928518 
L 105.540339 25.93053 
L 103.105134 26.928518 
L 100.66993 26.928518 
L 98.234725 26.928518 
L 95.799521 26.283327 
L 93.364317 26.928518 
L 90.929112 26.283327 
L 88.493908 26.928518 
L 86.058703 25.493132 
L 83.623499 32.683116 
L 81.188295 32.563736 
L 78.75309 31.480105 
L 76.317886 38.193865 
L 73.882682 47.170974 
L 71.447477 108.721055 
L 69.012273 159.779339 
z
" style="fill:#2ca02c;fill-opacity:0.25;"/>
   </g>
   <g id="matplotlib.axis_1">
    <g id="xtick_1">
     <g id="line2d_1">
      <defs>
       <path d="M 0 0 
L 0 3.5 
" id="meccfee608d" style="stroke:#000000;stroke-width:0.8;"/>
      </defs>
      <g>
       <use style="stroke:#000000;stroke-width:0.8;" x="69.012273" xlink:href="#meccfee608d" y="303.64"/>
      </g>
     </g>
     <g id="text_1">
      <!-- 0 -->
      <g transform="translate(65.831023 318.238437)scale(0.1 -0.1)">
       <defs>
        <path d="M 31.78125 66.40625 
Q 24.171875 66.40625 20.328125 58.90625 
Q 16.5 51.421875 16.5 36.375 
Q 16.5 21.390625 20.328125 13.890625 
Q 24.171875 6.390625 31.78125 6.390625 
Q 39.453125 6.390625 43.28125 13.890625 
Q 47.125 21.390625 47.125 36.375 
Q 47.125 51.421875 43.28125 58.90625 
Q 39.453125 66.40625 31.78125 66.40625 
z
M 31.78125 74.21875 
Q 44.046875 74.21875 50.515625 64.515625 
Q 56.984375 54.828125 56.984375 36.375 
Q 56.984375 17.96875 50.515625 8.265625 
Q 44.046875 -1.421875 31.78125 -1.421875 
Q 19.53125 -1.421875 13.0625 8.265625 
Q 6.59375 17.96875 6.59375 36.375 
Q 6.59375 54.828125 13.0625 64.515625 
Q 19.53125 74.21875 31.78125 74.21875 
z
" id="DejaVuSans-48"/>
       </defs>
       <use xlink:href="#DejaVuSans-48"/>
      </g>
     </g>
    </g>
    <g id="xtick_2">
     <g id="line2d_2">
      <g>
       <use style="stroke:#000000;stroke-width:0.8;" x="117.716361" xlink:href="#meccfee608d" y="303.64"/>
      </g>
     </g>
     <g id="text_2">
      <!-- 20 -->
      <g transform="translate(111.353861 318.238437)scale(0.1 -0.1)">
       <defs>
        <path d="M 19.1875 8.296875 
L 53.609375 8.296875 
L 53.609375 0 
L 7.328125 0 
L 7.328125 8.296875 
Q 12.9375 14.109375 22.625 23.890625 
Q 32.328125 33.6875 34.8125 36.53125 
Q 39.546875 41.84375 41.421875 45.53125 
Q 43.3125 49.21875 43.3125 52.78125 
Q 43.3125 58.59375 39.234375 62.25 
Q 35.15625 65.921875 28.609375 65.921875 
Q 23.96875 65.921875 18.8125 64.3125 
Q 13.671875 62.703125 7.8125 59.421875 
L 7.8125 69.390625 
Q 13.765625 71.78125 18.9375 73 
Q 24.125 74.21875 28.421875 74.21875 
Q 39.75 74.21875 46.484375 68.546875 
Q 53.21875 62.890625 53.21875 53.421875 
Q 53.21875 48.921875 51.53125 44.890625 
Q 49.859375 40.875 45.40625 35.40625 
Q 44.1875 33.984375 37.640625 27.21875 
Q 31.109375 20.453125 19.1875 8.296875 
z
" id="DejaVuSans-50"/>
       </defs>
       <use xlink:href="#DejaVuSans-50"/>
       <use x="63.623047" xlink:href="#DejaVuSans-48"/>
      </g>
     </g>
    </g>
    <g id="xtick_3">
     <g id="line2d_3">
      <g>
       <use style="stroke:#000000;stroke-width:0.8;" x="166.420448" xlink:href="#meccfee608d" y="303.64"/>
      </g>
     </g>
     <g id="text_3">
      <!-- 40 -->
      <g transform="translate(160.057948 318.238437)scale(0.1 -0.1)">
       <defs>
        <path d="M 37.796875 64.3125 
L 12.890625 25.390625 
L 37.796875 25.390625 
z
M 35.203125 72.90625 
L 47.609375 72.90625 
L 47.609375 25.390625 
L 58.015625 25.390625 
L 58.015625 17.1875 
L 47.609375 17.1875 
L 47.609375 0 
L 37.796875 0 
L 37.796875 17.1875 
L 4.890625 17.1875 
L 4.890625 26.703125 
z
" id="DejaVuSans-52"/>
       </defs>
       <use xlink:href="#DejaVuSans-52"/>
       <use x="63.623047" xlink:href="#DejaVuSans-48"/>
      </g>
     </g>
    </g>
    <g id="xtick_4">
     <g id="line2d_4">
      <g>
       <use style="stroke:#000000;stroke-width:0.8;" x="215.124536" xlink:href="#meccfee608d" y="303.64"/>
      </g>
     </g>
     <g id="text_4">
      <!-- 60 -->
      <g transform="translate(208.762036 318.238437)scale(0.1 -0.1)">
       <defs>
        <path d="M 33.015625 40.375 
Q 26.375 40.375 22.484375 35.828125 
Q 18.609375 31.296875 18.609375 23.390625 
Q 18.609375 15.53125 22.484375 10.953125 
Q 26.375 6.390625 33.015625 6.390625 
Q 39.65625 6.390625 43.53125 10.953125 
Q 47.40625 15.53125 47.40625 23.390625 
Q 47.40625 31.296875 43.53125 35.828125 
Q 39.65625 40.375 33.015625 40.375 
z
M 52.59375 71.296875 
L 52.59375 62.3125 
Q 48.875 64.0625 45.09375 64.984375 
Q 41.3125 65.921875 37.59375 65.921875 
Q 27.828125 65.921875 22.671875 59.328125 
Q 17.53125 52.734375 16.796875 39.40625 
Q 19.671875 43.65625 24.015625 45.921875 
Q 28.375 48.1875 33.59375 48.1875 
Q 44.578125 48.1875 50.953125 41.515625 
Q 57.328125 34.859375 57.328125 23.390625 
Q 57.328125 12.15625 50.6875 5.359375 
Q 44.046875 -1.421875 33.015625 -1.421875 
Q 20.359375 -1.421875 13.671875 8.265625 
Q 6.984375 17.96875 6.984375 36.375 
Q 6.984375 53.65625 15.1875 63.9375 
Q 23.390625 74.21875 37.203125 74.21875 
Q 40.921875 74.21875 44.703125 73.484375 
Q 48.484375 72.75 52.59375 71.296875 
z
" id="DejaVuSans-54"/>
       </defs>
       <use xlink:href="#DejaVuSans-54"/>
       <use x="63.623047" xlink:href="#DejaVuSans-48"/>
      </g>
     </g>
    </g>
    <g id="xtick_5">
     <g id="line2d_5">
      <g>
       <use style="stroke:#000000;stroke-width:0.8;" x="263.828624" xlink:href="#meccfee608d" y="303.64"/>
      </g>
     </g>
     <g id="text_5">
      <!-- 80 -->
      <g transform="translate(257.466124 318.238437)scale(0.1 -0.1)">
       <defs>
        <path d="M 31.78125 34.625 
Q 24.75 34.625 20.71875 30.859375 
Q 16.703125 27.09375 16.703125 20.515625 
Q 16.703125 13.921875 20.71875 10.15625 
Q 24.75 6.390625 31.78125 6.390625 
Q 38.8125 6.390625 42.859375 10.171875 
Q 46.921875 13.96875 46.921875 20.515625 
Q 46.921875 27.09375 42.890625 30.859375 
Q 38.875 34.625 31.78125 34.625 
z
M 21.921875 38.8125 
Q 15.578125 40.375 12.03125 44.71875 
Q 8.5 49.078125 8.5 55.328125 
Q 8.5 64.0625 14.71875 69.140625 
Q 20.953125 74.21875 31.78125 74.21875 
Q 42.671875 74.21875 48.875 69.140625 
Q 55.078125 64.0625 55.078125 55.328125 
Q 55.078125 49.078125 51.53125 44.71875 
Q 48 40.375 41.703125 38.8125 
Q 48.828125 37.15625 52.796875 32.3125 
Q 56.78125 27.484375 56.78125 20.515625 
Q 56.78125 9.90625 50.3125 4.234375 
Q 43.84375 -1.421875 31.78125 -1.421875 
Q 19.734375 -1.421875 13.25 4.234375 
Q 6.78125 9.90625 6.78125 20.515625 
Q 6.78125 27.484375 10.78125 32.3125 
Q 14.796875 37.15625 21.921875 38.8125 
z
M 18.3125 54.390625 
Q 18.3125 48.734375 21.84375 45.5625 
Q 25.390625 42.390625 31.78125 42.390625 
Q 38.140625 42.390625 41.71875 45.5625 
Q 45.3125 48.734375 45.3125 54.390625 
Q 45.3125 60.0625 41.71875 63.234375 
Q 38.140625 66.40625 31.78125 66.40625 
Q 25.390625 66.40625 21.84375 63.234375 
Q 18.3125 60.0625 18.3125 54.390625 
z
" id="DejaVuSans-56"/>
       </defs>
       <use xlink:href="#DejaVuSans-56"/>
       <use x="63.623047" xlink:href="#DejaVuSans-48"/>
      </g>
     </g>
    </g>
    <g id="xtick_6">
     <g id="line2d_6">
      <g>
       <use style="stroke:#000000;stroke-width:0.8;" x="312.532712" xlink:href="#meccfee608d" y="303.64"/>
      </g>
     </g>
     <g id="text_6">
      <!-- 100 -->
      <g transform="translate(302.988962 318.238437)scale(0.1 -0.1)">
       <defs>
        <path d="M 12.40625 8.296875 
L 28.515625 8.296875 
L 28.515625 63.921875 
L 10.984375 60.40625 
L 10.984375 69.390625 
L 28.421875 72.90625 
L 38.28125 72.90625 
L 38.28125 8.296875 
L 54.390625 8.296875 
L 54.390625 0 
L 12.40625 0 
z
" id="DejaVuSans-49"/>
       </defs>
       <use xlink:href="#DejaVuSans-49"/>
       <use x="63.623047" xlink:href="#DejaVuSans-48"/>
       <use x="127.246094" xlink:href="#DejaVuSans-48"/>
      </g>
     </g>
    </g>
    <g id="xtick_7">
     <g id="line2d_7">
      <g>
       <use style="stroke:#000000;stroke-width:0.8;" x="361.2368" xlink:href="#meccfee608d" y="303.64"/>
      </g>
     </g>
     <g id="text_7">
      <!-- 120 -->
      <g transform="translate(351.69305 318.238437)scale(0.1 -0.1)">
       <use xlink:href="#DejaVuSans-49"/>
       <use x="63.623047" xlink:href="#DejaVuSans-50"/>
       <use x="127.246094" xlink:href="#DejaVuSans-48"/>
      </g>
     </g>
    </g>
    <g id="xtick_8">
     <g id="line2d_8">
      <g>
       <use style="stroke:#000000;stroke-width:0.8;" x="409.940888" xlink:href="#meccfee608d" y="303.64"/>
      </g>
     </g>
     <g id="text_8">
      <!-- 140 -->
      <g transform="translate(400.397138 318.238437)scale(0.1 -0.1)">
       <use xlink:href="#DejaVuSans-49"/>
       <use x="63.623047" xlink:href="#DejaVuSans-52"/>
       <use x="127.246094" xlink:href="#DejaVuSans-48"/>
      </g>
     </g>
    </g>
    <g id="text_9">
     <!-- Epochs -->
     <g transform="translate(232.519375 331.916562)scale(0.1 -0.1)">
      <defs>
       <path d="M 9.8125 72.90625 
L 55.90625 72.90625 
L 55.90625 64.59375 
L 19.671875 64.59375 
L 19.671875 43.015625 
L 54.390625 43.015625 
L 54.390625 34.71875 
L 19.671875 34.71875 
L 19.671875 8.296875 
L 56.78125 8.296875 
L 56.78125 0 
L 9.8125 0 
z
" id="DejaVuSans-69"/>
       <path d="M 18.109375 8.203125 
L 18.109375 -20.796875 
L 9.078125 -20.796875 
L 9.078125 54.6875 
L 18.109375 54.6875 
L 18.109375 46.390625 
Q 20.953125 51.265625 25.265625 53.625 
Q 29.59375 56 35.59375 56 
Q 45.5625 56 51.78125 48.09375 
Q 58.015625 40.1875 58.015625 27.296875 
Q 58.015625 14.40625 51.78125 6.484375 
Q 45.5625 -1.421875 35.59375 -1.421875 
Q 29.59375 -1.421875 25.265625 0.953125 
Q 20.953125 3.328125 18.109375 8.203125 
z
M 48.6875 27.296875 
Q 48.6875 37.203125 44.609375 42.84375 
Q 40.53125 48.484375 33.40625 48.484375 
Q 26.265625 48.484375 22.1875 42.84375 
Q 18.109375 37.203125 18.109375 27.296875 
Q 18.109375 17.390625 22.1875 11.75 
Q 26.265625 6.109375 33.40625 6.109375 
Q 40.53125 6.109375 44.609375 11.75 
Q 48.6875 17.390625 48.6875 27.296875 
z
" id="DejaVuSans-112"/>
       <path d="M 30.609375 48.390625 
Q 23.390625 48.390625 19.1875 42.75 
Q 14.984375 37.109375 14.984375 27.296875 
Q 14.984375 17.484375 19.15625 11.84375 
Q 23.34375 6.203125 30.609375 6.203125 
Q 37.796875 6.203125 41.984375 11.859375 
Q 46.1875 17.53125 46.1875 27.296875 
Q 46.1875 37.015625 41.984375 42.703125 
Q 37.796875 48.390625 30.609375 48.390625 
z
M 30.609375 56 
Q 42.328125 56 49.015625 48.375 
Q 55.71875 40.765625 55.71875 27.296875 
Q 55.71875 13.875 49.015625 6.21875 
Q 42.328125 -1.421875 30.609375 -1.421875 
Q 18.84375 -1.421875 12.171875 6.21875 
Q 5.515625 13.875 5.515625 27.296875 
Q 5.515625 40.765625 12.171875 48.375 
Q 18.84375 56 30.609375 56 
z
" id="DejaVuSans-111"/>
       <path d="M 48.78125 52.59375 
L 48.78125 44.1875 
Q 44.96875 46.296875 41.140625 47.34375 
Q 37.3125 48.390625 33.40625 48.390625 
Q 24.65625 48.390625 19.8125 42.84375 
Q 14.984375 37.3125 14.984375 27.296875 
Q 14.984375 17.28125 19.8125 11.734375 
Q 24.65625 6.203125 33.40625 6.203125 
Q 37.3125 6.203125 41.140625 7.25 
Q 44.96875 8.296875 48.78125 10.40625 
L 48.78125 2.09375 
Q 45.015625 0.34375 40.984375 -0.53125 
Q 36.96875 -1.421875 32.421875 -1.421875 
Q 20.0625 -1.421875 12.78125 6.34375 
Q 5.515625 14.109375 5.515625 27.296875 
Q 5.515625 40.671875 12.859375 48.328125 
Q 20.21875 56 33.015625 56 
Q 37.15625 56 41.109375 55.140625 
Q 45.0625 54.296875 48.78125 52.59375 
z
" id="DejaVuSans-99"/>
       <path d="M 54.890625 33.015625 
L 54.890625 0 
L 45.90625 0 
L 45.90625 32.71875 
Q 45.90625 40.484375 42.875 44.328125 
Q 39.84375 48.1875 33.796875 48.1875 
Q 26.515625 48.1875 22.3125 43.546875 
Q 18.109375 38.921875 18.109375 30.90625 
L 18.109375 0 
L 9.078125 0 
L 9.078125 75.984375 
L 18.109375 75.984375 
L 18.109375 46.1875 
Q 21.34375 51.125 25.703125 53.5625 
Q 30.078125 56 35.796875 56 
Q 45.21875 56 50.046875 50.171875 
Q 54.890625 44.34375 54.890625 33.015625 
z
" id="DejaVuSans-104"/>
       <path d="M 44.28125 53.078125 
L 44.28125 44.578125 
Q 40.484375 46.53125 36.375 47.5 
Q 32.28125 48.484375 27.875 48.484375 
Q 21.1875 48.484375 17.84375 46.4375 
Q 14.5 44.390625 14.5 40.28125 
Q 14.5 37.15625 16.890625 35.375 
Q 19.28125 33.59375 26.515625 31.984375 
L 29.59375 31.296875 
Q 39.15625 29.25 43.1875 25.515625 
Q 47.21875 21.78125 47.21875 15.09375 
Q 47.21875 7.46875 41.1875 3.015625 
Q 35.15625 -1.421875 24.609375 -1.421875 
Q 20.21875 -1.421875 15.453125 -0.5625 
Q 10.6875 0.296875 5.421875 2 
L 5.421875 11.28125 
Q 10.40625 8.6875 15.234375 7.390625 
Q 20.0625 6.109375 24.8125 6.109375 
Q 31.15625 6.109375 34.5625 8.28125 
Q 37.984375 10.453125 37.984375 14.40625 
Q 37.984375 18.0625 35.515625 20.015625 
Q 33.0625 21.96875 24.703125 23.78125 
L 21.578125 24.515625 
Q 13.234375 26.265625 9.515625 29.90625 
Q 5.8125 33.546875 5.8125 39.890625 
Q 5.8125 47.609375 11.28125 51.796875 
Q 16.75 56 26.8125 56 
Q 31.78125 56 36.171875 55.265625 
Q 40.578125 54.546875 44.28125 53.078125 
z
" id="DejaVuSans-115"/>
      </defs>
      <use xlink:href="#DejaVuSans-69"/>
      <use x="63.183594" xlink:href="#DejaVuSans-112"/>
      <use x="126.660156" xlink:href="#DejaVuSans-111"/>
      <use x="187.841797" xlink:href="#DejaVuSans-99"/>
      <use x="242.822266" xlink:href="#DejaVuSans-104"/>
      <use x="306.201172" xlink:href="#DejaVuSans-115"/>
     </g>
    </g>
   </g>
   <g id="matplotlib.axis_2">
    <g id="ytick_1">
     <g id="line2d_9">
      <defs>
       <path d="M 0 0 
L -3.5 0 
" id="med4534ef19" style="stroke:#000000;stroke-width:0.8;"/>
      </defs>
      <g>
       <use style="stroke:#000000;stroke-width:0.8;" x="50.87" xlink:href="#med4534ef19" y="299.12017"/>
      </g>
     </g>
     <g id="text_10">
      <!-- 50 -->
      <g transform="translate(31.145 302.919389)scale(0.1 -0.1)">
       <defs>
        <path d="M 10.796875 72.90625 
L 49.515625 72.90625 
L 49.515625 64.59375 
L 19.828125 64.59375 
L 19.828125 46.734375 
Q 21.96875 47.46875 24.109375 47.828125 
Q 26.265625 48.1875 28.421875 48.1875 
Q 40.625 48.1875 47.75 41.5 
Q 54.890625 34.8125 54.890625 23.390625 
Q 54.890625 11.625 47.5625 5.09375 
Q 40.234375 -1.421875 26.90625 -1.421875 
Q 22.3125 -1.421875 17.546875 -0.640625 
Q 12.796875 0.140625 7.71875 1.703125 
L 7.71875 11.625 
Q 12.109375 9.234375 16.796875 8.0625 
Q 21.484375 6.890625 26.703125 6.890625 
Q 35.15625 6.890625 40.078125 11.328125 
Q 45.015625 15.765625 45.015625 23.390625 
Q 45.015625 31 40.078125 35.4375 
Q 35.15625 39.890625 26.703125 39.890625 
Q 22.75 39.890625 18.8125 39.015625 
Q 14.890625 38.140625 10.796875 36.28125 
z
" id="DejaVuSans-53"/>
       </defs>
       <use xlink:href="#DejaVuSans-53"/>
       <use x="63.623047" xlink:href="#DejaVuSans-48"/>
      </g>
     </g>
    </g>
    <g id="ytick_2">
     <g id="line2d_10">
      <g>
       <use style="stroke:#000000;stroke-width:0.8;" x="50.87" xlink:href="#med4534ef19" y="244.681839"/>
      </g>
     </g>
     <g id="text_11">
      <!-- 60 -->
      <g transform="translate(31.145 248.481058)scale(0.1 -0.1)">
       <use xlink:href="#DejaVuSans-54"/>
       <use x="63.623047" xlink:href="#DejaVuSans-48"/>
      </g>
     </g>
    </g>
    <g id="ytick_3">
     <g id="line2d_11">
      <g>
       <use style="stroke:#000000;stroke-width:0.8;" x="50.87" xlink:href="#med4534ef19" y="190.243509"/>
      </g>
     </g>
     <g id="text_12">
      <!-- 70 -->
      <g transform="translate(31.145 194.042728)scale(0.1 -0.1)">
       <defs>
        <path d="M 8.203125 72.90625 
L 55.078125 72.90625 
L 55.078125 68.703125 
L 28.609375 0 
L 18.3125 0 
L 43.21875 64.59375 
L 8.203125 64.59375 
z
" id="DejaVuSans-55"/>
       </defs>
       <use xlink:href="#DejaVuSans-55"/>
       <use x="63.623047" xlink:href="#DejaVuSans-48"/>
      </g>
     </g>
    </g>
    <g id="ytick_4">
     <g id="line2d_12">
      <g>
       <use style="stroke:#000000;stroke-width:0.8;" x="50.87" xlink:href="#med4534ef19" y="135.805179"/>
      </g>
     </g>
     <g id="text_13">
      <!-- 80 -->
      <g transform="translate(31.145 139.604397)scale(0.1 -0.1)">
       <use xlink:href="#DejaVuSans-56"/>
       <use x="63.623047" xlink:href="#DejaVuSans-48"/>
      </g>
     </g>
    </g>
    <g id="ytick_5">
     <g id="line2d_13">
      <g>
       <use style="stroke:#000000;stroke-width:0.8;" x="50.87" xlink:href="#med4534ef19" y="81.366848"/>
      </g>
     </g>
     <g id="text_14">
      <!-- 90 -->
      <g transform="translate(31.145 85.166067)scale(0.1 -0.1)">
       <defs>
        <path d="M 10.984375 1.515625 
L 10.984375 10.5 
Q 14.703125 8.734375 18.5 7.8125 
Q 22.3125 6.890625 25.984375 6.890625 
Q 35.75 6.890625 40.890625 13.453125 
Q 46.046875 20.015625 46.78125 33.40625 
Q 43.953125 29.203125 39.59375 26.953125 
Q 35.25 24.703125 29.984375 24.703125 
Q 19.046875 24.703125 12.671875 31.3125 
Q 6.296875 37.9375 6.296875 49.421875 
Q 6.296875 60.640625 12.9375 67.421875 
Q 19.578125 74.21875 30.609375 74.21875 
Q 43.265625 74.21875 49.921875 64.515625 
Q 56.59375 54.828125 56.59375 36.375 
Q 56.59375 19.140625 48.40625 8.859375 
Q 40.234375 -1.421875 26.421875 -1.421875 
Q 22.703125 -1.421875 18.890625 -0.6875 
Q 15.09375 0.046875 10.984375 1.515625 
z
M 30.609375 32.421875 
Q 37.25 32.421875 41.125 36.953125 
Q 45.015625 41.5 45.015625 49.421875 
Q 45.015625 57.28125 41.125 61.84375 
Q 37.25 66.40625 30.609375 66.40625 
Q 23.96875 66.40625 20.09375 61.84375 
Q 16.21875 57.28125 16.21875 49.421875 
Q 16.21875 41.5 20.09375 36.953125 
Q 23.96875 32.421875 30.609375 32.421875 
z
" id="DejaVuSans-57"/>
       </defs>
       <use xlink:href="#DejaVuSans-57"/>
       <use x="63.623047" xlink:href="#DejaVuSans-48"/>
      </g>
     </g>
    </g>
    <g id="ytick_6">
     <g id="line2d_14">
      <g>
       <use style="stroke:#000000;stroke-width:0.8;" x="50.87" xlink:href="#med4534ef19" y="26.928518"/>
      </g>
     </g>
     <g id="text_15">
      <!-- 100 -->
      <g transform="translate(24.7825 30.727737)scale(0.1 -0.1)">
       <use xlink:href="#DejaVuSans-49"/>
       <use x="63.623047" xlink:href="#DejaVuSans-48"/>
       <use x="127.246094" xlink:href="#DejaVuSans-48"/>
      </g>
     </g>
    </g>
    <g id="text_16">
     <!-- Test Accuracy (%) -->
     <g transform="translate(18.702813 201.723906)rotate(-90)scale(0.1 -0.1)">
      <defs>
       <path d="M -0.296875 72.90625 
L 61.375 72.90625 
L 61.375 64.59375 
L 35.5 64.59375 
L 35.5 0 
L 25.59375 0 
L 25.59375 64.59375 
L -0.296875 64.59375 
z
" id="DejaVuSans-84"/>
       <path d="M 56.203125 29.59375 
L 56.203125 25.203125 
L 14.890625 25.203125 
Q 15.484375 15.921875 20.484375 11.0625 
Q 25.484375 6.203125 34.421875 6.203125 
Q 39.59375 6.203125 44.453125 7.46875 
Q 49.3125 8.734375 54.109375 11.28125 
L 54.109375 2.78125 
Q 49.265625 0.734375 44.1875 -0.34375 
Q 39.109375 -1.421875 33.890625 -1.421875 
Q 20.796875 -1.421875 13.15625 6.1875 
Q 5.515625 13.8125 5.515625 26.8125 
Q 5.515625 40.234375 12.765625 48.109375 
Q 20.015625 56 32.328125 56 
Q 43.359375 56 49.78125 48.890625 
Q 56.203125 41.796875 56.203125 29.59375 
z
M 47.21875 32.234375 
Q 47.125 39.59375 43.09375 43.984375 
Q 39.0625 48.390625 32.421875 48.390625 
Q 24.90625 48.390625 20.390625 44.140625 
Q 15.875 39.890625 15.1875 32.171875 
z
" id="DejaVuSans-101"/>
       <path d="M 18.3125 70.21875 
L 18.3125 54.6875 
L 36.8125 54.6875 
L 36.8125 47.703125 
L 18.3125 47.703125 
L 18.3125 18.015625 
Q 18.3125 11.328125 20.140625 9.421875 
Q 21.96875 7.515625 27.59375 7.515625 
L 36.8125 7.515625 
L 36.8125 0 
L 27.59375 0 
Q 17.1875 0 13.234375 3.875 
Q 9.28125 7.765625 9.28125 18.015625 
L 9.28125 47.703125 
L 2.6875 47.703125 
L 2.6875 54.6875 
L 9.28125 54.6875 
L 9.28125 70.21875 
z
" id="DejaVuSans-116"/>
       <path id="DejaVuSans-32"/>
       <path d="M 34.1875 63.1875 
L 20.796875 26.90625 
L 47.609375 26.90625 
z
M 28.609375 72.90625 
L 39.796875 72.90625 
L 67.578125 0 
L 57.328125 0 
L 50.6875 18.703125 
L 17.828125 18.703125 
L 11.1875 0 
L 0.78125 0 
z
" id="DejaVuSans-65"/>
       <path d="M 8.5 21.578125 
L 8.5 54.6875 
L 17.484375 54.6875 
L 17.484375 21.921875 
Q 17.484375 14.15625 20.5 10.265625 
Q 23.53125 6.390625 29.59375 6.390625 
Q 36.859375 6.390625 41.078125 11.03125 
Q 45.3125 15.671875 45.3125 23.6875 
L 45.3125 54.6875 
L 54.296875 54.6875 
L 54.296875 0 
L 45.3125 0 
L 45.3125 8.40625 
Q 42.046875 3.421875 37.71875 1 
Q 33.40625 -1.421875 27.6875 -1.421875 
Q 18.265625 -1.421875 13.375 4.4375 
Q 8.5 10.296875 8.5 21.578125 
z
M 31.109375 56 
z
" id="DejaVuSans-117"/>
       <path d="M 41.109375 46.296875 
Q 39.59375 47.171875 37.8125 47.578125 
Q 36.03125 48 33.890625 48 
Q 26.265625 48 22.1875 43.046875 
Q 18.109375 38.09375 18.109375 28.8125 
L 18.109375 0 
L 9.078125 0 
L 9.078125 54.6875 
L 18.109375 54.6875 
L 18.109375 46.1875 
Q 20.953125 51.171875 25.484375 53.578125 
Q 30.03125 56 36.53125 56 
Q 37.453125 56 38.578125 55.875 
Q 39.703125 55.765625 41.0625 55.515625 
z
" id="DejaVuSans-114"/>
       <path d="M 34.28125 27.484375 
Q 23.390625 27.484375 19.1875 25 
Q 14.984375 22.515625 14.984375 16.5 
Q 14.984375 11.71875 18.140625 8.90625 
Q 21.296875 6.109375 26.703125 6.109375 
Q 34.1875 6.109375 38.703125 11.40625 
Q 43.21875 16.703125 43.21875 25.484375 
L 43.21875 27.484375 
z
M 52.203125 31.203125 
L 52.203125 0 
L 43.21875 0 
L 43.21875 8.296875 
Q 40.140625 3.328125 35.546875 0.953125 
Q 30.953125 -1.421875 24.3125 -1.421875 
Q 15.921875 -1.421875 10.953125 3.296875 
Q 6 8.015625 6 15.921875 
Q 6 25.140625 12.171875 29.828125 
Q 18.359375 34.515625 30.609375 34.515625 
L 43.21875 34.515625 
L 43.21875 35.40625 
Q 43.21875 41.609375 39.140625 45 
Q 35.0625 48.390625 27.6875 48.390625 
Q 23 48.390625 18.546875 47.265625 
Q 14.109375 46.140625 10.015625 43.890625 
L 10.015625 52.203125 
Q 14.9375 54.109375 19.578125 55.046875 
Q 24.21875 56 28.609375 56 
Q 40.484375 56 46.34375 49.84375 
Q 52.203125 43.703125 52.203125 31.203125 
z
" id="DejaVuSans-97"/>
       <path d="M 32.171875 -5.078125 
Q 28.375 -14.84375 24.75 -17.8125 
Q 21.140625 -20.796875 15.09375 -20.796875 
L 7.90625 -20.796875 
L 7.90625 -13.28125 
L 13.1875 -13.28125 
Q 16.890625 -13.28125 18.9375 -11.515625 
Q 21 -9.765625 23.484375 -3.21875 
L 25.09375 0.875 
L 2.984375 54.6875 
L 12.5 54.6875 
L 29.59375 11.921875 
L 46.6875 54.6875 
L 56.203125 54.6875 
z
" id="DejaVuSans-121"/>
       <path d="M 31 75.875 
Q 24.46875 64.65625 21.28125 53.65625 
Q 18.109375 42.671875 18.109375 31.390625 
Q 18.109375 20.125 21.3125 9.0625 
Q 24.515625 -2 31 -13.1875 
L 23.1875 -13.1875 
Q 15.875 -1.703125 12.234375 9.375 
Q 8.59375 20.453125 8.59375 31.390625 
Q 8.59375 42.28125 12.203125 53.3125 
Q 15.828125 64.359375 23.1875 75.875 
z
" id="DejaVuSans-40"/>
       <path d="M 72.703125 32.078125 
Q 68.453125 32.078125 66.03125 28.46875 
Q 63.625 24.859375 63.625 18.40625 
Q 63.625 12.0625 66.03125 8.421875 
Q 68.453125 4.78125 72.703125 4.78125 
Q 76.859375 4.78125 79.265625 8.421875 
Q 81.6875 12.0625 81.6875 18.40625 
Q 81.6875 24.8125 79.265625 28.4375 
Q 76.859375 32.078125 72.703125 32.078125 
z
M 72.703125 38.28125 
Q 80.421875 38.28125 84.953125 32.90625 
Q 89.5 27.546875 89.5 18.40625 
Q 89.5 9.28125 84.9375 3.921875 
Q 80.375 -1.421875 72.703125 -1.421875 
Q 64.890625 -1.421875 60.34375 3.921875 
Q 55.8125 9.28125 55.8125 18.40625 
Q 55.8125 27.59375 60.375 32.9375 
Q 64.9375 38.28125 72.703125 38.28125 
z
M 22.3125 68.015625 
Q 18.109375 68.015625 15.6875 64.375 
Q 13.28125 60.75 13.28125 54.390625 
Q 13.28125 47.953125 15.671875 44.328125 
Q 18.0625 40.71875 22.3125 40.71875 
Q 26.5625 40.71875 28.96875 44.328125 
Q 31.390625 47.953125 31.390625 54.390625 
Q 31.390625 60.6875 28.953125 64.34375 
Q 26.515625 68.015625 22.3125 68.015625 
z
M 66.40625 74.21875 
L 74.21875 74.21875 
L 28.609375 -1.421875 
L 20.796875 -1.421875 
z
M 22.3125 74.21875 
Q 30.03125 74.21875 34.609375 68.875 
Q 39.203125 63.53125 39.203125 54.390625 
Q 39.203125 45.171875 34.640625 39.84375 
Q 30.078125 34.515625 22.3125 34.515625 
Q 14.546875 34.515625 10.03125 39.859375 
Q 5.515625 45.21875 5.515625 54.390625 
Q 5.515625 63.484375 10.046875 68.84375 
Q 14.59375 74.21875 22.3125 74.21875 
z
" id="DejaVuSans-37"/>
       <path d="M 8.015625 75.875 
L 15.828125 75.875 
Q 23.140625 64.359375 26.78125 53.3125 
Q 30.421875 42.28125 30.421875 31.390625 
Q 30.421875 20.453125 26.78125 9.375 
Q 23.140625 -1.703125 15.828125 -13.1875 
L 8.015625 -13.1875 
Q 14.5 -2 17.703125 9.0625 
Q 20.90625 20.125 20.90625 31.390625 
Q 20.90625 42.671875 17.703125 53.65625 
Q 14.5 64.65625 8.015625 75.875 
z
" id="DejaVuSans-41"/>
      </defs>
      <use xlink:href="#DejaVuSans-84"/>
      <use x="44.083984" xlink:href="#DejaVuSans-101"/>
      <use x="105.607422" xlink:href="#DejaVuSans-115"/>
      <use x="157.707031" xlink:href="#DejaVuSans-116"/>
      <use x="196.916016" xlink:href="#DejaVuSans-32"/>
      <use x="228.703125" xlink:href="#DejaVuSans-65"/>
      <use x="295.361328" xlink:href="#DejaVuSans-99"/>
      <use x="350.341797" xlink:href="#DejaVuSans-99"/>
      <use x="405.322266" xlink:href="#DejaVuSans-117"/>
      <use x="468.701172" xlink:href="#DejaVuSans-114"/>
      <use x="509.814453" xlink:href="#DejaVuSans-97"/>
      <use x="571.09375" xlink:href="#DejaVuSans-99"/>
      <use x="626.074219" xlink:href="#DejaVuSans-121"/>
      <use x="685.253906" xlink:href="#DejaVuSans-32"/>
      <use x="717.041016" xlink:href="#DejaVuSans-40"/>
      <use x="756.054688" xlink:href="#DejaVuSans-37"/>
      <use x="851.074219" xlink:href="#DejaVuSans-41"/>
     </g>
    </g>
   </g>
   <g id="line2d_15">
    <path clip-path="url(#p80bc91cc54)" d="M 69.012273 173.231531 
L 71.447477 121.344997 
L 73.882682 94.976431 
L 76.317886 123.046195 
L 78.75309 75.412656 
L 81.188295 70.309063 
L 83.623499 50.745288 
L 86.058703 50.745288 
L 88.493908 58.400678 
L 90.929112 51.595886 
L 93.364317 41.388699 
L 95.799521 47.342892 
L 98.234725 38.836903 
L 100.66993 32.032111 
L 105.540339 40.538101 
L 107.975543 36.285106 
L 110.410747 30.330914 
L 112.845952 37.986304 
L 115.281156 36.285106 
L 117.716361 40.538101 
L 120.151565 35.434507 
L 122.586769 29.480315 
L 125.021974 30.330914 
L 127.457178 44.791095 
L 129.892383 31.181513 
L 132.327587 30.330914 
L 134.762791 30.330914 
L 137.197996 28.629716 
L 139.6332 32.88271 
L 142.068405 26.928518 
L 144.503609 32.032111 
L 146.938813 32.032111 
L 149.374018 26.928518 
L 151.809222 27.779117 
L 154.244426 36.285106 
L 156.679631 28.629716 
L 161.55004 32.032111 
L 163.985244 28.629716 
L 168.855653 35.434507 
L 171.290857 40.538101 
L 173.726062 28.629716 
L 176.161266 32.032111 
L 178.59647 31.181513 
L 181.031675 35.434507 
L 183.466879 28.629716 
L 185.902084 33.733309 
L 188.337288 28.629716 
L 190.772492 31.181513 
L 193.207697 30.330914 
L 195.642901 28.629716 
L 198.078106 30.330914 
L 202.948514 26.928518 
L 205.383719 33.733309 
L 207.818923 28.629716 
L 210.254128 26.928518 
L 212.689332 32.032111 
L 215.124536 28.629716 
L 217.559741 26.928518 
L 219.994945 26.928518 
L 227.300558 32.032111 
L 229.735763 28.629716 
L 237.041376 28.629716 
L 239.47658 30.330914 
L 244.346989 26.928518 
L 251.652602 26.928518 
L 254.087807 28.629716 
L 261.39342 28.629716 
L 263.828624 26.928518 
L 266.263829 26.928518 
L 268.699033 28.629716 
L 276.004646 28.629716 
L 278.439851 26.928518 
L 280.875055 28.629716 
L 283.310259 32.032111 
L 285.745464 26.928518 
L 290.615872 26.928518 
L 293.051077 28.629716 
L 295.486281 26.928518 
L 297.921486 30.330914 
L 300.35669 28.629716 
L 302.791894 28.629716 
L 305.227099 26.928518 
L 307.662303 28.629716 
L 310.097508 26.928518 
L 336.884756 26.928518 
L 339.31996 30.330914 
L 344.190369 26.928518 
L 349.060778 26.928518 
L 351.495982 28.629716 
L 353.931187 26.928518 
L 356.366391 28.629716 
L 358.801595 26.928518 
L 431.857727 26.928518 
L 431.857727 26.928518 
" style="fill:none;stroke:#1f77b4;stroke-linecap:square;stroke-width:1.5;"/>
   </g>
   <g id="line2d_16">
    <path clip-path="url(#p80bc91cc54)" d="M 69.012273 240.98705 
L 71.447477 147.288264 
L 73.882682 80.994711 
L 76.317886 77.432828 
L 78.75309 54.147683 
L 81.188295 51.330074 
L 83.623499 44.099984 
L 86.058703 29.799289 
L 88.493908 37.188867 
L 90.929112 31.181513 
L 93.364317 45.748019 
L 95.799521 40.484938 
L 98.234725 34.84972 
L 100.66993 32.563736 
L 103.105134 29.799289 
L 107.975543 26.928518 
L 110.410747 30.011939 
L 112.845952 26.928518 
L 115.281156 28.629716 
L 117.716361 28.363904 
L 120.151565 28.363904 
L 122.586769 26.928518 
L 125.021974 30.437238 
L 127.457178 30.384076 
L 129.892383 28.842366 
L 132.327587 29.16134 
L 134.762791 29.001853 
L 137.197996 28.363904 
L 139.6332 26.928518 
L 144.503609 26.928518 
L 146.938813 31.234675 
L 151.809222 28.310741 
L 154.244426 28.842366 
L 156.679631 26.928518 
L 159.114835 27.61963 
L 161.55004 29.799289 
L 163.985244 26.928518 
L 166.420448 28.94869 
L 168.855653 28.310741 
L 171.290857 28.363904 
L 173.726062 28.629716 
L 176.161266 28.363904 
L 178.59647 28.363904 
L 181.031675 28.895528 
L 183.466879 28.842366 
L 185.902084 27.460142 
L 188.337288 26.928518 
L 190.772492 27.460142 
L 193.207697 27.460142 
L 195.642901 27.991767 
L 198.078106 26.928518 
L 200.51331 27.61963 
L 202.948514 26.928518 
L 205.383719 26.928518 
L 207.818923 28.682878 
L 210.254128 28.151254 
L 212.689332 27.460142 
L 215.124536 26.928518 
L 217.559741 26.928518 
L 219.994945 27.460142 
L 222.430149 26.928518 
L 224.865354 28.151254 
L 227.300558 26.928518 
L 232.170967 26.928518 
L 234.606171 27.460142 
L 237.041376 27.460142 
L 239.47658 28.842366 
L 241.911785 26.928518 
L 244.346989 26.928518 
L 246.782193 27.61963 
L 249.217398 26.928518 
L 261.39342 26.928518 
L 263.828624 27.61963 
L 266.263829 26.928518 
L 280.875055 26.928518 
L 283.310259 27.460142 
L 285.745464 26.928518 
L 293.051077 26.928518 
L 295.486281 28.151254 
L 297.921486 26.928518 
L 300.35669 28.363904 
L 305.227099 26.928518 
L 312.532712 26.928518 
L 314.967916 28.363904 
L 317.403121 26.928518 
L 329.579143 26.928518 
L 332.014347 27.460142 
L 334.449552 26.928518 
L 336.884756 27.61963 
L 339.31996 26.928518 
L 341.755165 26.928518 
L 344.190369 28.363904 
L 346.625574 26.928518 
L 431.857727 26.928518 
L 431.857727 26.928518 
" style="fill:none;stroke:#ff7f0e;stroke-linecap:square;stroke-width:1.5;"/>
   </g>
   <g id="line2d_17">
    <path clip-path="url(#p80bc91cc54)" d="M 69.012273 176.633927 
L 71.447477 116.826191 
L 73.882682 66.162393 
L 76.317886 48.193491 
L 78.75309 39.740664 
L 81.188295 38.198954 
L 83.623499 38.305278 
L 86.058703 28.363904 
L 88.493908 26.928518 
L 90.929112 29.799289 
L 93.364317 26.928518 
L 95.799521 29.799289 
L 98.234725 26.928518 
L 103.105134 26.928518 
L 105.540339 30.596726 
L 107.975543 26.928518 
L 139.6332 26.928518 
L 142.068405 29.746127 
L 144.503609 26.928518 
L 149.374018 26.928518 
L 151.809222 29.799289 
L 154.244426 26.928518 
L 156.679631 28.363904 
L 159.114835 26.928518 
L 161.55004 26.928518 
L 163.985244 28.629716 
L 166.420448 28.363904 
L 168.855653 29.16134 
L 171.290857 26.928518 
L 176.161266 26.928518 
L 178.59647 28.363904 
L 181.031675 28.363904 
L 183.466879 28.895528 
L 185.902084 26.928518 
L 188.337288 28.363904 
L 190.772492 26.928518 
L 207.818923 26.928518 
L 210.254128 27.61963 
L 212.689332 26.928518 
L 215.124536 28.363904 
L 217.559741 26.928518 
L 222.430149 26.928518 
L 224.865354 27.460142 
L 227.300558 26.928518 
L 249.217398 26.928518 
L 251.652602 28.363904 
L 254.087807 28.363904 
L 256.523011 26.928518 
L 358.801595 26.928518 
L 361.2368 27.460142 
L 363.672004 26.928518 
L 431.857727 26.928518 
L 431.857727 26.928518 
" style="fill:none;stroke:#2ca02c;stroke-linecap:square;stroke-width:1.5;"/>
   </g>
   <g id="patch_3">
    <path d="M 50.87 303.64 
L 50.87 10.8 
" style="fill:none;stroke:#000000;stroke-linecap:square;stroke-linejoin:miter;stroke-width:0.8;"/>
   </g>
   <g id="patch_4">
    <path d="M 450 303.64 
L 450 10.8 
" style="fill:none;stroke:#000000;stroke-linecap:square;stroke-linejoin:miter;stroke-width:0.8;"/>
   </g>
   <g id="patch_5">
    <path d="M 50.87 303.64 
L 450 303.64 
" style="fill:none;stroke:#000000;stroke-linecap:square;stroke-linejoin:miter;stroke-width:0.8;"/>
   </g>
   <g id="patch_6">
    <path d="M 50.87 10.8 
L 450 10.8 
" style="fill:none;stroke:#000000;stroke-linecap:square;stroke-linejoin:miter;stroke-width:0.8;"/>
   </g>
   <g id="legend_1">
    <g id="patch_7">
     <path d="M 57.87 298.64 
L 139.377813 298.64 
Q 141.377813 298.64 141.377813 296.64 
L 141.377813 253.605625 
Q 141.377813 251.605625 139.377813 251.605625 
L 57.87 251.605625 
Q 55.87 251.605625 55.87 253.605625 
L 55.87 296.64 
Q 55.87 298.64 57.87 298.64 
z
" style="fill:#ffffff;opacity:0.8;stroke:#cccccc;stroke-linejoin:miter;"/>
    </g>
    <g id="line2d_18">
     <path d="M 59.87 259.704062 
L 79.87 259.704062 
" style="fill:none;stroke:#1f77b4;stroke-linecap:square;stroke-width:1.5;"/>
    </g>
    <g id="line2d_19"/>
    <g id="text_17">
     <!-- Sync-SGD -->
     <g transform="translate(87.87 263.204062)scale(0.1 -0.1)">
      <defs>
       <path d="M 53.515625 70.515625 
L 53.515625 60.890625 
Q 47.90625 63.578125 42.921875 64.890625 
Q 37.9375 66.21875 33.296875 66.21875 
Q 25.25 66.21875 20.875 63.09375 
Q 16.5 59.96875 16.5 54.203125 
Q 16.5 49.359375 19.40625 46.890625 
Q 22.3125 44.4375 30.421875 42.921875 
L 36.375 41.703125 
Q 47.40625 39.59375 52.65625 34.296875 
Q 57.90625 29 57.90625 20.125 
Q 57.90625 9.515625 50.796875 4.046875 
Q 43.703125 -1.421875 29.984375 -1.421875 
Q 24.8125 -1.421875 18.96875 -0.25 
Q 13.140625 0.921875 6.890625 3.21875 
L 6.890625 13.375 
Q 12.890625 10.015625 18.65625 8.296875 
Q 24.421875 6.59375 29.984375 6.59375 
Q 38.421875 6.59375 43.015625 9.90625 
Q 47.609375 13.234375 47.609375 19.390625 
Q 47.609375 24.75 44.3125 27.78125 
Q 41.015625 30.8125 33.5 32.328125 
L 27.484375 33.5 
Q 16.453125 35.6875 11.515625 40.375 
Q 6.59375 45.0625 6.59375 53.421875 
Q 6.59375 63.09375 13.40625 68.65625 
Q 20.21875 74.21875 32.171875 74.21875 
Q 37.3125 74.21875 42.625 73.28125 
Q 47.953125 72.359375 53.515625 70.515625 
z
" id="DejaVuSans-83"/>
       <path d="M 54.890625 33.015625 
L 54.890625 0 
L 45.90625 0 
L 45.90625 32.71875 
Q 45.90625 40.484375 42.875 44.328125 
Q 39.84375 48.1875 33.796875 48.1875 
Q 26.515625 48.1875 22.3125 43.546875 
Q 18.109375 38.921875 18.109375 30.90625 
L 18.109375 0 
L 9.078125 0 
L 9.078125 54.6875 
L 18.109375 54.6875 
L 18.109375 46.1875 
Q 21.34375 51.125 25.703125 53.5625 
Q 30.078125 56 35.796875 56 
Q 45.21875 56 50.046875 50.171875 
Q 54.890625 44.34375 54.890625 33.015625 
z
" id="DejaVuSans-110"/>
       <path d="M 4.890625 31.390625 
L 31.203125 31.390625 
L 31.203125 23.390625 
L 4.890625 23.390625 
z
" id="DejaVuSans-45"/>
       <path d="M 59.515625 10.40625 
L 59.515625 29.984375 
L 43.40625 29.984375 
L 43.40625 38.09375 
L 69.28125 38.09375 
L 69.28125 6.78125 
Q 63.578125 2.734375 56.6875 0.65625 
Q 49.8125 -1.421875 42 -1.421875 
Q 24.90625 -1.421875 15.25 8.5625 
Q 5.609375 18.5625 5.609375 36.375 
Q 5.609375 54.25 15.25 64.234375 
Q 24.90625 74.21875 42 74.21875 
Q 49.125 74.21875 55.546875 72.453125 
Q 61.96875 70.703125 67.390625 67.28125 
L 67.390625 56.78125 
Q 61.921875 61.421875 55.765625 63.765625 
Q 49.609375 66.109375 42.828125 66.109375 
Q 29.4375 66.109375 22.71875 58.640625 
Q 16.015625 51.171875 16.015625 36.375 
Q 16.015625 21.625 22.71875 14.15625 
Q 29.4375 6.6875 42.828125 6.6875 
Q 48.046875 6.6875 52.140625 7.59375 
Q 56.25 8.5 59.515625 10.40625 
z
" id="DejaVuSans-71"/>
       <path d="M 19.671875 64.796875 
L 19.671875 8.109375 
L 31.59375 8.109375 
Q 46.6875 8.109375 53.6875 14.9375 
Q 60.6875 21.78125 60.6875 36.53125 
Q 60.6875 51.171875 53.6875 57.984375 
Q 46.6875 64.796875 31.59375 64.796875 
z
M 9.8125 72.90625 
L 30.078125 72.90625 
Q 51.265625 72.90625 61.171875 64.09375 
Q 71.09375 55.28125 71.09375 36.53125 
Q 71.09375 17.671875 61.125 8.828125 
Q 51.171875 0 30.078125 0 
L 9.8125 0 
z
" id="DejaVuSans-68"/>
      </defs>
      <use xlink:href="#DejaVuSans-83"/>
      <use x="63.476562" xlink:href="#DejaVuSans-121"/>
      <use x="122.65625" xlink:href="#DejaVuSans-110"/>
      <use x="186.035156" xlink:href="#DejaVuSans-99"/>
      <use x="241.015625" xlink:href="#DejaVuSans-45"/>
      <use x="277.099609" xlink:href="#DejaVuSans-83"/>
      <use x="340.576172" xlink:href="#DejaVuSans-71"/>
      <use x="418.066406" xlink:href="#DejaVuSans-68"/>
     </g>
    </g>
    <g id="line2d_20">
     <path d="M 59.87 274.382187 
L 79.87 274.382187 
" style="fill:none;stroke:#ff7f0e;stroke-linecap:square;stroke-width:1.5;"/>
    </g>
    <g id="line2d_21"/>
    <g id="text_18">
     <!-- DP-SGD -->
     <g transform="translate(87.87 277.882187)scale(0.1 -0.1)">
      <defs>
       <path d="M 19.671875 64.796875 
L 19.671875 37.40625 
L 32.078125 37.40625 
Q 38.96875 37.40625 42.71875 40.96875 
Q 46.484375 44.53125 46.484375 51.125 
Q 46.484375 57.671875 42.71875 61.234375 
Q 38.96875 64.796875 32.078125 64.796875 
z
M 9.8125 72.90625 
L 32.078125 72.90625 
Q 44.34375 72.90625 50.609375 67.359375 
Q 56.890625 61.8125 56.890625 51.125 
Q 56.890625 40.328125 50.609375 34.8125 
Q 44.34375 29.296875 32.078125 29.296875 
L 19.671875 29.296875 
L 19.671875 0 
L 9.8125 0 
z
" id="DejaVuSans-80"/>
      </defs>
      <use xlink:href="#DejaVuSans-68"/>
      <use x="77.001953" xlink:href="#DejaVuSans-80"/>
      <use x="135.054688" xlink:href="#DejaVuSans-45"/>
      <use x="171.138672" xlink:href="#DejaVuSans-83"/>
      <use x="234.615234" xlink:href="#DejaVuSans-71"/>
      <use x="312.105469" xlink:href="#DejaVuSans-68"/>
     </g>
    </g>
    <g id="line2d_22">
     <path d="M 59.87 289.060312 
L 79.87 289.060312 
" style="fill:none;stroke:#2ca02c;stroke-linecap:square;stroke-width:1.5;"/>
    </g>
    <g id="line2d_23"/>
    <g id="text_19">
     <!-- EDP-SGD -->
     <g transform="translate(87.87 292.560312)scale(0.1 -0.1)">
      <use xlink:href="#DejaVuSans-69"/>
      <use x="63.183594" xlink:href="#DejaVuSans-68"/>
      <use x="140.185547" xlink:href="#DejaVuSans-80"/>
      <use x="198.238281" xlink:href="#DejaVuSans-45"/>
      <use x="234.322266" xlink:href="#DejaVuSans-83"/>
      <use x="297.798828" xlink:href="#DejaVuSans-71"/>
      <use x="375.289062" xlink:href="#DejaVuSans-68"/>
     </g>
    </g>
   </g>
  </g>
 </g>
 <defs>
  <clipPath id="p80bc91cc54">
   <rect height="292.84" width="399.13" x="50.87" y="10.8"/>
  </clipPath>
 </defs>
</svg>
