<?xml version="1.0" encoding="utf-8" standalone="no"?>
<!DOCTYPE svg PUBLIC "-//W3C//DTD SVG 1.1//EN"
  "http://www.w3.org/Graphics/SVG/1.1/DTD/svg11.dtd">
<!-- Created with matplotlib (https://matplotlib.org/) -->
<svg height="345.6pt" version="1.1" viewBox="0 0 460.8 345.6" width="460.8pt" xmlns="http://www.w3.org/2000/svg" xmlns:xlink="http://www.w3.org/1999/xlink">
 <metadata>
  <rdf:RDF xmlns:cc="http://creativecommons.org/ns#" xmlns:dc="http://purl.org/dc/elements/1.1/" xmlns:rdf="http://www.w3.org/1999/02/22-rdf-syntax-ns#">
   <cc:Work>
    <dc:type rdf:resource="http://purl.org/dc/dcmitype/StillImage"/>
    <dc:date>2021-06-24T12:04:29.904674</dc:date>
    <dc:format>image/svg+xml</dc:format>
    <dc:creator>
     <cc:Agent>
      <dc:title>Matplotlib v3.3.1, https://matplotlib.org/</dc:title>
     </cc:Agent>
    </dc:creator>
   </cc:Work>
  </rdf:RDF>
 </metadata>
 <defs>
  <style type="text/css">*{stroke-linecap:butt;stroke-linejoin:round;}</style>
 </defs>
 <g id="figure_1">
  <g id="patch_1">
   <path d="M 0 345.6 
L 460.8 345.6 
L 460.8 0 
L 0 0 
z
" style="fill:#ffffff;"/>
  </g>
  <g id="axes_1">
   <g id="patch_2">
    <path d="M 47.72 303.64 
L 449.130127 303.64 
L 449.130127 14.76 
L 47.72 14.76 
z
" style="fill:#ffffff;"/>
   </g>
   <g id="PolyCollection_1">
    <path clip-path="url(#pbe48424a87)" d="M 65.970777 40.920427 
L 65.970777 44.840898 
L 68.321046 40.452135 
L 70.686701 66.668125 
L 73.040559 80.590996 
L 75.421106 94.41466 
L 77.779971 108.244982 
L 80.173688 129.737752 
L 82.625755 128.065734 
L 85.003301 171.012972 
L 87.385051 171.451598 
L 89.772089 203.289948 
L 92.175485 204.523861 
L 94.548767 200.888848 
L 96.940933 232.571006 
L 99.300628 225.782346 
L 101.698364 227.596913 
L 104.05357 241.10186 
L 106.408157 240.781144 
L 108.834334 232.722844 
L 111.202617 246.545182 
L 113.589809 233.178658 
L 115.960377 239.911698 
L 118.338289 252.324796 
L 120.714375 249.697651 
L 123.066916 259.328716 
L 125.441274 258.094628 
L 127.825391 256.63819 
L 130.194715 250.990331 
L 132.547271 264.861618 
L 134.924023 245.497769 
L 137.283742 260.851543 
L 139.662587 260.994805 
L 142.037581 262.620669 
L 144.391966 269.985327 
L 146.775114 256.276294 
L 149.160321 251.053612 
L 151.521416 264.765317 
L 153.888615 256.534113 
L 156.223832 258.038946 
L 158.620197 262.995774 
L 160.981293 253.444793 
L 163.355121 249.929023 
L 165.773283 270.431393 
L 168.111785 266.217808 
L 170.469794 266.362558 
L 172.827611 260.699058 
L 175.197673 264.911653 
L 177.555804 272.830253 
L 179.909363 260.278371 
L 182.281986 278.965172 
L 184.642271 268.476839 
L 187.03302 270.547604 
L 189.422799 256.964054 
L 191.800391 274.95133 
L 194.170485 276.637898 
L 196.55663 280.168193 
L 198.915448 280.856776 
L 201.278864 270.888607 
L 203.63273 273.00403 
L 206.018352 276.550814 
L 208.404055 280.823266 
L 210.783058 278.297603 
L 213.130871 276.883222 
L 215.484284 278.021051 
L 217.83205 281.109993 
L 220.232713 267.889307 
L 222.63066 281.843732 
L 224.986155 266.330858 
L 227.381033 286.832082 
L 229.737557 284.971095 
L 232.111725 279.43559 
L 234.460969 283.613195 
L 236.834532 275.464026 
L 239.209482 280.541818 
L 241.575692 288.511974 
L 243.942411 284.2952 
L 246.292806 280.872385 
L 248.639829 288.688507 
L 251.017592 276.702012 
L 253.384596 279.607341 
L 255.775777 283.37472 
L 258.12671 293.505327 
L 260.482193 285.000931 
L 262.839464 280.550247 
L 265.188634 290.101366 
L 267.544351 283.030685 
L 269.923887 288.547873 
L 272.299056 293.34827 
L 274.692033 283.697568 
L 277.062012 290.279818 
L 279.420747 282.467293 
L 281.776069 289.682481 
L 284.135839 293.088233 
L 286.513301 288.461386 
L 288.873065 292.810199 
L 291.230271 290.657956 
L 293.63205 289.813342 
L 296.002377 292.505496 
L 298.37293 287.144508 
L 300.735527 290.13208 
L 303.105926 295.011045 
L 305.454684 297.20809 
L 307.825178 297.607933 
L 310.188348 293.918254 
L 312.549737 297.113313 
L 314.908224 300.145161 
L 317.276357 301.870819 
L 319.636125 299.120053 
L 322.011819 298.35432 
L 324.366317 296.145649 
L 326.736463 301.050088 
L 329.109345 297.497748 
L 331.469717 300.390339 
L 333.836003 301.226769 
L 336.221042 301.481439 
L 338.576997 298.235506 
L 340.930916 300.943622 
L 343.302141 300.364914 
L 345.667954 303.315611 
L 348.04333 301.823757 
L 350.392824 301.866759 
L 352.777454 302.606657 
L 355.137201 303.176188 
L 357.491167 302.31564 
L 359.871088 303.21999 
L 362.225234 303.405934 
L 364.586188 303.316314 
L 366.962056 303.581444 
L 369.320299 303.451539 
L 371.696892 303.240333 
L 374.063305 303.306457 
L 376.425492 303.515308 
L 378.796868 303.334177 
L 381.164366 303.484192 
L 383.51328 303.307385 
L 385.863574 303.10087 
L 388.234823 303.997823 
L 390.597746 303.374188 
L 392.956405 303.578327 
L 395.325125 303.439895 
L 397.715198 303.556607 
L 400.084124 303.5166 
L 402.455465 303.948107 
L 404.82609 303.547823 
L 407.196298 303.648296 
L 409.559253 303.53244 
L 411.924986 303.547347 
L 414.297134 303.55413 
L 416.671279 303.543921 
L 419.011333 303.462085 
L 419.011333 303.389064 
L 419.011333 303.389064 
L 416.671279 303.4141 
L 414.297134 303.490705 
L 411.924986 303.155607 
L 409.559253 303.410395 
L 407.196298 303.094638 
L 404.82609 303.453726 
L 402.455465 302.134559 
L 400.084124 303.424009 
L 397.715198 303.1225 
L 395.325125 302.878685 
L 392.956405 303.147923 
L 390.597746 302.500069 
L 388.234823 301.824288 
L 385.863574 301.91194 
L 383.51328 302.673413 
L 381.164366 302.183024 
L 378.796868 302.282964 
L 376.425492 302.189288 
L 374.063305 302.719919 
L 371.696892 302.79962 
L 369.320299 301.500618 
L 366.962056 302.625614 
L 364.586188 302.938571 
L 362.225234 303.155083 
L 359.871088 301.344796 
L 357.491167 300.872011 
L 355.137201 301.461328 
L 352.777454 299.333762 
L 350.392824 298.932836 
L 348.04333 298.676802 
L 345.667954 299.816852 
L 343.302141 293.249708 
L 340.930916 296.856093 
L 338.576997 289.244647 
L 336.221042 298.60054 
L 333.836003 297.88828 
L 331.469717 297.090592 
L 329.109345 292.951607 
L 326.736463 295.236462 
L 324.366317 292.391004 
L 322.011819 292.120425 
L 319.636125 295.042567 
L 317.276357 297.839481 
L 314.908224 293.463818 
L 312.549737 292.819782 
L 310.188348 290.584235 
L 307.825178 288.008888 
L 305.454684 292.328641 
L 303.105926 289.976672 
L 300.735527 285.038231 
L 298.37293 281.717838 
L 296.002377 285.579005 
L 293.63205 284.967658 
L 291.230271 286.298107 
L 288.873065 288.775279 
L 286.513301 284.494366 
L 284.135839 286.956928 
L 281.776069 278.880829 
L 279.420747 273.028711 
L 277.062012 287.071199 
L 274.692033 276.334754 
L 272.299056 289.718282 
L 269.923887 281.93378 
L 267.544351 273.593756 
L 265.188634 287.097311 
L 262.839464 272.164157 
L 260.482193 278.783445 
L 258.12671 286.266187 
L 255.775777 275.297835 
L 253.384596 276.943751 
L 251.017592 271.086763 
L 248.639829 277.795656 
L 246.292806 268.648542 
L 243.942411 282.462609 
L 241.575692 281.924542 
L 239.209482 273.893454 
L 236.834532 268.87173 
L 234.460969 273.321566 
L 232.111725 270.677766 
L 229.737557 279.840159 
L 227.381033 276.867662 
L 224.986155 256.203485 
L 222.63066 270.960948 
L 220.232713 260.027684 
L 217.83205 272.332254 
L 215.484284 272.95556 
L 213.130871 271.283579 
L 210.783058 273.395565 
L 208.404055 270.711921 
L 206.018352 266.916046 
L 203.63273 266.163483 
L 201.278864 262.997818 
L 198.915448 273.036846 
L 196.55663 277.759593 
L 194.170485 265.519974 
L 191.800391 267.048561 
L 189.422799 243.678602 
L 187.03302 264.027168 
L 184.642271 265.138761 
L 182.281986 269.777133 
L 179.909363 249.798023 
L 177.555804 263.08736 
L 175.197673 257.216454 
L 172.827611 255.414476 
L 170.469794 261.825257 
L 168.111785 258.054329 
L 165.773283 261.378707 
L 163.355121 244.72163 
L 160.981293 245.155392 
L 158.620197 257.913619 
L 156.223832 251.563504 
L 153.888615 245.507806 
L 151.521416 256.268205 
L 149.160321 241.983375 
L 146.775114 250.121394 
L 144.391966 257.73983 
L 142.037581 255.162952 
L 139.662587 251.191767 
L 137.283742 252.203926 
L 134.924023 240.012541 
L 132.547271 254.355119 
L 130.194715 245.646372 
L 127.825391 251.215182 
L 125.441274 251.767363 
L 123.066916 253.896019 
L 120.714375 242.865393 
L 118.338289 245.654747 
L 115.960377 232.655433 
L 113.589809 223.093836 
L 111.202617 235.02688 
L 108.834334 218.426543 
L 106.408157 231.718281 
L 104.05357 231.578115 
L 101.698364 212.200393 
L 99.300628 217.716235 
L 96.940933 228.644044 
L 94.548767 196.072971 
L 92.175485 194.175751 
L 89.772089 197.576264 
L 87.385051 162.475702 
L 85.003301 155.963153 
L 82.625755 123.350216 
L 80.173688 117.660961 
L 77.779971 100.33548 
L 75.421106 92.590077 
L 73.040559 70.890529 
L 70.686701 59.446125 
L 68.321046 33.57344 
L 65.970777 40.920427 
z
" style="fill:#1f77b4;fill-opacity:0.25;"/>
   </g>
   <g id="PolyCollection_2">
    <path clip-path="url(#pbe48424a87)" d="M 65.965915 42.204854 
L 65.965915 45.452246 
L 68.3772 53.740768 
L 70.750039 72.38615 
L 73.131824 81.564474 
L 75.451452 103.485085 
L 77.771835 120.454789 
L 80.137823 137.209467 
L 82.516223 164.087552 
L 84.920441 187.122145 
L 87.323073 205.67043 
L 89.679952 214.5544 
L 92.041884 234.36422 
L 94.391556 235.99413 
L 96.760889 235.21903 
L 99.087112 243.806004 
L 101.429611 250.314052 
L 103.821845 246.33171 
L 106.163575 256.304561 
L 108.537657 257.149113 
L 110.929792 249.806909 
L 113.272029 251.863041 
L 115.650748 259.986596 
L 117.98375 264.167962 
L 120.354016 261.069399 
L 122.723326 259.288663 
L 125.112384 262.301924 
L 127.470468 268.764094 
L 129.810195 262.470813 
L 132.178987 265.720227 
L 134.539352 264.307187 
L 136.901152 269.296297 
L 139.257446 264.498175 
L 141.636587 267.994029 
L 144.034121 272.773715 
L 146.399029 272.028271 
L 148.800497 270.805244 
L 151.135667 269.52675 
L 153.484229 274.210842 
L 155.847494 270.994935 
L 158.19552 276.768136 
L 160.53465 271.47872 
L 162.883126 276.916935 
L 165.243087 268.211732 
L 167.609218 273.950284 
L 169.980959 273.034091 
L 172.313471 273.885276 
L 174.678779 276.558035 
L 177.061189 274.137715 
L 179.462712 281.847929 
L 181.820834 274.032538 
L 184.187702 267.353657 
L 186.562542 278.766623 
L 188.900096 275.459726 
L 191.231267 279.275135 
L 193.563854 279.777425 
L 195.928299 280.347603 
L 198.292749 275.831242 
L 200.641948 281.502306 
L 203.019183 284.744578 
L 205.415009 278.944482 
L 207.767224 282.162795 
L 210.091429 287.594166 
L 212.477678 284.268024 
L 214.842258 282.919366 
L 217.175133 284.756961 
L 219.563108 282.557615 
L 221.914187 283.738491 
L 224.283794 285.183458 
L 226.652547 281.857631 
L 229.058696 284.673957 
L 231.414257 290.207568 
L 233.747314 280.929126 
L 236.115565 286.923466 
L 238.43971 287.694383 
L 240.804717 283.151909 
L 243.151549 288.712376 
L 245.515075 283.008958 
L 247.900719 290.581046 
L 250.264995 289.769591 
L 252.64452 291.647471 
L 255.022139 285.444739 
L 257.343089 290.674703 
L 259.713546 289.04895 
L 262.118866 291.208024 
L 264.484093 292.611492 
L 266.775055 293.444574 
L 269.158558 291.734567 
L 271.508191 292.244507 
L 273.840067 291.651369 
L 276.22364 291.599932 
L 278.600435 292.433624 
L 280.969727 294.168262 
L 283.343918 293.363667 
L 285.724797 295.92512 
L 288.130499 294.646573 
L 290.491161 295.673301 
L 292.849261 294.340528 
L 295.182122 295.039013 
L 297.575868 297.008382 
L 299.938717 297.671018 
L 302.324217 297.396051 
L 304.694699 297.638991 
L 307.046265 299.561362 
L 309.407102 299.367941 
L 311.759767 295.378518 
L 314.115958 300.745765 
L 316.467242 297.863337 
L 318.827539 299.838584 
L 321.177247 300.372068 
L 323.544005 299.137306 
L 325.952668 300.187884 
L 328.296087 299.669313 
L 330.676764 299.613616 
L 333.031225 301.865429 
L 335.413431 300.680027 
L 337.749801 300.77302 
L 340.149434 301.589113 
L 342.580192 300.921374 
L 344.957252 302.854539 
L 347.316024 302.450856 
L 349.734789 301.949227 
L 352.121729 302.90826 
L 354.490756 302.96969 
L 356.82283 302.90728 
L 359.176836 302.09933 
L 361.547701 303.075051 
L 363.937092 304.188847 
L 366.306117 303.344426 
L 368.6906 303.356799 
L 371.072285 303.580802 
L 373.458208 303.532695 
L 375.804832 303.83031 
L 378.148261 303.826517 
L 380.543208 303.479221 
L 382.936917 303.592712 
L 385.28366 303.31374 
L 387.651839 303.552699 
L 390.032194 303.518563 
L 392.415561 303.507228 
L 394.794196 303.466259 
L 397.184779 303.576995 
L 399.527659 303.516488 
L 401.866829 303.727932 
L 404.241618 303.541067 
L 406.597424 303.526247 
L 408.976153 303.553367 
L 411.331741 303.550788 
L 413.701561 303.554534 
L 416.062745 303.536165 
L 418.418105 303.558682 
L 418.418105 303.454306 
L 418.418105 303.454306 
L 416.062745 303.311679 
L 413.701561 303.418606 
L 411.331741 303.497111 
L 408.976153 303.347152 
L 406.597424 303.455401 
L 404.241618 303.460592 
L 401.866829 302.760442 
L 399.527659 302.608318 
L 397.184779 303.304063 
L 394.794196 303.134386 
L 392.415561 303.403649 
L 390.032194 303.472583 
L 387.651839 303.458967 
L 385.28366 302.73494 
L 382.936917 303.047979 
L 380.543208 303.361306 
L 378.148261 302.158601 
L 375.804832 302.039099 
L 373.458208 302.74833 
L 371.072285 303.033288 
L 368.6906 303.034116 
L 366.306117 302.031424 
L 363.937092 297.832018 
L 361.547701 302.581586 
L 359.176836 300.591455 
L 356.82283 301.204102 
L 354.490756 301.730243 
L 352.121729 301.2636 
L 349.734789 300.405848 
L 347.316024 300.190914 
L 344.957252 295.634227 
L 342.580192 298.702883 
L 340.149434 298.3102 
L 337.749801 297.226992 
L 335.413431 296.985686 
L 333.031225 298.544855 
L 330.676764 295.831896 
L 328.296087 294.728162 
L 325.952668 296.153325 
L 323.544005 295.10924 
L 321.177247 296.713204 
L 318.827539 288.499182 
L 316.467242 291.047111 
L 314.115958 294.572797 
L 311.759767 293.290726 
L 309.407102 293.111896 
L 307.046265 292.775304 
L 304.694699 292.87807 
L 302.324217 293.594954 
L 299.938717 291.642846 
L 297.575868 289.251649 
L 295.182122 290.964298 
L 292.849261 287.002336 
L 290.491161 287.459547 
L 288.130499 285.754046 
L 285.724797 287.525101 
L 283.343918 287.55039 
L 280.969727 284.56509 
L 278.600435 288.480433 
L 276.22364 281.220408 
L 273.840067 285.662973 
L 271.508191 286.313937 
L 269.158558 288.214676 
L 266.775055 286.075863 
L 264.484093 287.377247 
L 262.118866 284.07231 
L 259.713546 283.607766 
L 257.343089 281.928413 
L 255.022139 278.892572 
L 252.64452 283.940362 
L 250.264995 281.978733 
L 247.900719 282.298537 
L 245.515075 275.229148 
L 243.151549 273.779939 
L 240.804717 278.048346 
L 238.43971 280.688376 
L 236.115565 280.895075 
L 233.747314 269.641248 
L 231.414257 283.047221 
L 229.058696 275.894373 
L 226.652547 272.690484 
L 224.283794 273.664004 
L 221.914187 272.959298 
L 219.563108 277.254661 
L 217.175133 277.080861 
L 214.842258 270.816275 
L 212.477678 273.620267 
L 210.091429 267.656402 
L 207.767224 269.028219 
L 205.415009 272.822035 
L 203.019183 271.157663 
L 200.641948 272.176912 
L 198.292749 257.908486 
L 195.928299 273.303405 
L 193.563854 269.292127 
L 191.231267 275.983896 
L 188.900096 268.864745 
L 186.562542 272.012512 
L 184.187702 265.336624 
L 181.820834 264.017822 
L 179.462712 262.899706 
L 177.061189 271.236204 
L 174.678779 270.282852 
L 172.313471 264.012744 
L 169.980959 267.510115 
L 167.609218 270.983544 
L 165.243087 259.772965 
L 162.883126 266.318594 
L 160.53465 263.242749 
L 158.19552 265.795974 
L 155.847494 263.489562 
L 153.484229 262.89163 
L 151.135667 258.627212 
L 148.800497 251.153597 
L 146.399029 265.581998 
L 144.034121 259.724732 
L 141.636587 258.692965 
L 139.257446 255.824431 
L 136.901152 260.031241 
L 134.539352 257.482388 
L 132.178987 259.578789 
L 129.810195 251.126306 
L 127.470468 256.444647 
L 125.112384 252.243082 
L 122.723326 246.296549 
L 120.354016 254.841017 
L 117.98375 250.771997 
L 115.650748 245.700176 
L 113.272029 243.99504 
L 110.929792 240.67981 
L 108.537657 249.812793 
L 106.163575 241.957092 
L 103.821845 223.741575 
L 101.429611 241.097985 
L 99.087112 233.297446 
L 96.760889 227.891795 
L 94.391556 219.488457 
L 92.041884 218.72608 
L 89.679952 204.118556 
L 87.323073 199.641827 
L 84.920441 165.559786 
L 82.516223 151.243098 
L 80.137823 113.980796 
L 77.771835 109.656261 
L 75.451452 87.491753 
L 73.131824 72.670439 
L 70.750039 56.842588 
L 68.3772 50.256107 
L 65.965915 42.204854 
z
" style="fill:#ff7f0e;fill-opacity:0.25;"/>
   </g>
   <g id="PolyCollection_3">
    <path clip-path="url(#pbe48424a87)" d="M 66.03244 24.212415 
L 66.03244 39.792635 
L 68.497891 84.803095 
L 70.93692 101.664453 
L 73.370613 120.946271 
L 75.839411 145.042877 
L 78.284759 178.252744 
L 80.764135 198.096479 
L 83.196735 213.630431 
L 85.635087 225.522849 
L 88.107804 240.901921 
L 90.506452 238.662565 
L 92.946702 252.319907 
L 95.32992 257.488398 
L 97.789604 253.876683 
L 100.227384 256.126394 
L 102.661189 267.944526 
L 105.100877 256.058162 
L 107.533583 262.396527 
L 109.965148 267.363046 
L 112.390991 260.418869 
L 114.862456 268.896972 
L 117.292742 273.323604 
L 119.703718 264.498023 
L 122.165052 271.376269 
L 124.655856 265.228356 
L 127.064871 272.203146 
L 129.473581 273.289734 
L 131.889937 269.208135 
L 134.323411 268.340308 
L 136.722966 270.794996 
L 139.183006 276.787825 
L 141.653022 280.505567 
L 144.115745 273.164008 
L 146.58312 281.593523 
L 149.020764 272.380236 
L 151.396807 276.831993 
L 153.845599 275.033217 
L 156.328676 277.946732 
L 158.786747 278.893643 
L 161.200537 280.204666 
L 163.722663 278.856835 
L 166.236239 283.781776 
L 168.706168 273.938692 
L 171.214206 275.660101 
L 173.688037 282.724525 
L 176.10456 285.776301 
L 178.574233 277.944073 
L 181.020544 281.015854 
L 183.455333 279.870722 
L 185.866048 282.576964 
L 188.323399 281.696955 
L 190.789096 284.227126 
L 193.255155 276.933505 
L 195.667725 282.433518 
L 198.113193 280.032493 
L 200.549541 285.500016 
L 202.988536 282.331659 
L 205.437399 282.020543 
L 207.879295 282.86889 
L 210.337369 287.38542 
L 212.736774 290.776686 
L 215.162611 284.458883 
L 217.596356 286.670454 
L 220.067604 290.187287 
L 222.4705 290.248906 
L 224.89825 286.330203 
L 227.375306 290.532666 
L 229.782802 287.414959 
L 232.208897 289.914783 
L 234.588076 285.7118 
L 237.034883 285.970989 
L 239.466676 288.564287 
L 241.93707 284.073101 
L 244.360225 292.836121 
L 246.801168 285.94978 
L 249.287177 290.629713 
L 251.733175 291.500594 
L 254.18101 291.296694 
L 256.614911 291.298765 
L 259.035882 292.662715 
L 261.51506 290.384123 
L 263.940915 290.602815 
L 266.403747 288.858394 
L 268.845176 294.538218 
L 271.345131 295.248114 
L 273.812656 294.788709 
L 276.22451 293.726525 
L 278.678347 296.962577 
L 281.081633 295.599405 
L 283.519913 294.990549 
L 285.944568 296.813806 
L 288.418577 294.05261 
L 290.910268 295.843439 
L 293.405844 296.977207 
L 295.890351 298.052196 
L 298.283822 297.933223 
L 300.70916 295.674637 
L 303.21086 297.783328 
L 305.668345 299.142306 
L 308.10169 297.157012 
L 310.538174 299.134308 
L 313.024625 299.630357 
L 315.477844 298.979376 
L 317.969836 298.131244 
L 320.433015 299.057705 
L 322.874078 298.926985 
L 325.312447 299.47521 
L 327.747393 300.167394 
L 330.252213 298.139268 
L 332.696425 300.203647 
L 335.181232 301.080537 
L 337.650079 300.699261 
L 340.123379 301.593159 
L 342.621339 301.309433 
L 345.096843 301.958845 
L 347.558212 303.111369 
L 350.022787 301.589505 
L 352.488738 302.940577 
L 354.986946 302.33265 
L 357.426067 303.023553 
L 359.853615 302.465153 
L 362.30619 302.978056 
L 364.773403 303.284043 
L 367.200189 303.239628 
L 369.646325 303.279488 
L 372.111934 303.264192 
L 374.569881 303.270838 
L 377.010956 303.333739 
L 379.453966 303.371937 
L 381.929585 303.312959 
L 384.334471 303.412466 
L 386.794314 303.443434 
L 389.224018 303.436452 
L 391.672348 303.408731 
L 394.11428 303.429529 
L 396.499835 303.408183 
L 398.989557 303.375435 
L 401.454553 303.423795 
L 403.920966 303.47971 
L 406.400238 303.62588 
L 408.825418 303.462896 
L 411.254279 303.456787 
L 413.721355 303.432627 
L 416.199022 303.441652 
L 418.598969 303.653038 
L 421.040191 303.470605 
L 423.515911 303.484978 
L 425.968664 303.543555 
L 428.419032 303.461489 
L 430.884212 303.412517 
L 430.884212 303.38631 
L 430.884212 303.38631 
L 428.419032 303.409849 
L 425.968664 303.098789 
L 423.515911 303.128626 
L 421.040191 303.362252 
L 418.598969 302.666776 
L 416.199022 303.358321 
L 413.721355 303.270723 
L 411.254279 303.252118 
L 408.825418 303.359823 
L 406.400238 302.137209 
L 403.920966 303.033702 
L 401.454553 303.16182 
L 398.989557 303.113512 
L 396.499835 303.0135 
L 394.11428 303.090274 
L 391.672348 302.965125 
L 389.224018 303.14947 
L 386.794314 303.358258 
L 384.334471 303.335141 
L 381.929585 303.116481 
L 379.453966 303.126532 
L 377.010956 302.217724 
L 374.569881 302.877287 
L 372.111934 303.036006 
L 369.646325 302.678036 
L 367.200189 301.593779 
L 364.773403 303.038724 
L 362.30619 301.755907 
L 359.853615 300.197069 
L 357.426067 299.380186 
L 354.986946 298.507498 
L 352.488738 297.43127 
L 350.022787 296.304716 
L 347.558212 298.004718 
L 345.096843 298.119961 
L 342.621339 297.80597 
L 340.123379 294.057587 
L 337.650079 297.689357 
L 335.181232 297.084861 
L 332.696425 296.553673 
L 330.252213 296.65175 
L 327.747393 294.699089 
L 325.312447 294.731136 
L 322.874078 295.428174 
L 320.433015 292.656911 
L 317.969836 294.283003 
L 315.477844 293.987805 
L 313.024625 290.81265 
L 310.538174 294.059266 
L 308.10169 292.725303 
L 305.668345 292.294432 
L 303.21086 292.221705 
L 300.70916 290.366759 
L 298.283822 293.142414 
L 295.890351 290.399824 
L 293.405844 291.762565 
L 290.910268 290.113324 
L 288.418577 289.13807 
L 285.944568 292.093821 
L 283.519913 286.459516 
L 281.081633 287.182217 
L 278.678347 292.742009 
L 276.22451 286.947739 
L 273.812656 293.640742 
L 271.345131 290.955494 
L 268.845176 288.976888 
L 266.403747 278.429781 
L 263.940915 283.594219 
L 261.51506 280.523516 
L 259.035882 284.355412 
L 256.614911 282.066046 
L 254.18101 287.541039 
L 251.733175 288.135508 
L 249.287177 282.647644 
L 246.801168 280.34537 
L 244.360225 282.328547 
L 241.93707 278.740819 
L 239.466676 281.245946 
L 237.034883 277.170178 
L 234.588076 279.844223 
L 232.208897 280.792558 
L 229.782802 276.423019 
L 227.375306 279.111122 
L 224.89825 276.252388 
L 222.4705 283.553174 
L 220.067604 281.761334 
L 217.596356 280.465382 
L 215.162611 267.91699 
L 212.736774 272.539389 
L 210.337369 281.996006 
L 207.879295 275.927793 
L 205.437399 278.16976 
L 202.988536 270.777699 
L 200.549541 279.192752 
L 198.113193 269.934166 
L 195.667725 278.608756 
L 193.255155 272.344807 
L 190.789096 274.767033 
L 188.323399 271.034376 
L 185.866048 265.375434 
L 183.455333 272.787261 
L 181.020544 275.715788 
L 178.574233 272.835061 
L 176.10456 272.207907 
L 173.688037 277.849447 
L 171.214206 268.562812 
L 168.706168 270.577615 
L 166.236239 268.012953 
L 163.722663 268.452354 
L 161.200537 272.069649 
L 158.786747 268.460684 
L 156.328676 269.926676 
L 153.845599 268.743962 
L 151.396807 262.46529 
L 149.020764 264.101595 
L 146.58312 266.392729 
L 144.115745 264.446261 
L 141.653022 273.404982 
L 139.183006 264.275463 
L 136.722966 263.475098 
L 134.323411 258.71907 
L 131.889937 257.851243 
L 129.473581 259.823711 
L 127.064871 264.820335 
L 124.655856 256.064707 
L 122.165052 267.452712 
L 119.703718 255.124952 
L 117.292742 261.623552 
L 114.862456 255.126909 
L 112.390991 246.881569 
L 109.965148 248.107279 
L 107.533583 255.03728 
L 105.100877 244.810182 
L 102.661189 254.048168 
L 100.227384 242.202966 
L 97.789604 244.125429 
L 95.32992 240.773256 
L 92.946702 235.76324 
L 90.506452 224.109728 
L 88.107804 221.960648 
L 85.635087 218.56252 
L 83.196735 194.254663 
L 80.764135 184.06024 
L 78.284759 166.913794 
L 75.839411 127.542561 
L 73.370613 100.724066 
L 70.93692 82.677172 
L 68.497891 56.838455 
L 66.03244 24.212415 
z
" style="fill:#2ca02c;fill-opacity:0.25;"/>
   </g>
   <g id="matplotlib.axis_1">
    <g id="xtick_1">
     <g id="line2d_1">
      <defs>
       <path d="M 0 0 
L 0 3.5 
" id="m8cd590694c" style="stroke:#000000;stroke-width:0.8;"/>
      </defs>
      <g>
       <use style="stroke:#000000;stroke-width:0.8;" x="63.213739" xlink:href="#m8cd590694c" y="303.64"/>
      </g>
     </g>
     <g id="text_1">
      <!-- 0 -->
      <g transform="translate(60.032489 318.238437)scale(0.1 -0.1)">
       <defs>
        <path d="M 31.78125 66.40625 
Q 24.171875 66.40625 20.328125 58.90625 
Q 16.5 51.421875 16.5 36.375 
Q 16.5 21.390625 20.328125 13.890625 
Q 24.171875 6.390625 31.78125 6.390625 
Q 39.453125 6.390625 43.28125 13.890625 
Q 47.125 21.390625 47.125 36.375 
Q 47.125 51.421875 43.28125 58.90625 
Q 39.453125 66.40625 31.78125 66.40625 
z
M 31.78125 74.21875 
Q 44.046875 74.21875 50.515625 64.515625 
Q 56.984375 54.828125 56.984375 36.375 
Q 56.984375 17.96875 50.515625 8.265625 
Q 44.046875 -1.421875 31.78125 -1.421875 
Q 19.53125 -1.421875 13.0625 8.265625 
Q 6.59375 17.96875 6.59375 36.375 
Q 6.59375 54.828125 13.0625 64.515625 
Q 19.53125 74.21875 31.78125 74.21875 
z
" id="DejaVuSans-48"/>
       </defs>
       <use xlink:href="#DejaVuSans-48"/>
      </g>
     </g>
    </g>
    <g id="xtick_2">
     <g id="line2d_2">
      <g>
       <use style="stroke:#000000;stroke-width:0.8;" x="137.760037" xlink:href="#m8cd590694c" y="303.64"/>
      </g>
     </g>
     <g id="text_2">
      <!-- 500 -->
      <g transform="translate(128.216287 318.238437)scale(0.1 -0.1)">
       <defs>
        <path d="M 10.796875 72.90625 
L 49.515625 72.90625 
L 49.515625 64.59375 
L 19.828125 64.59375 
L 19.828125 46.734375 
Q 21.96875 47.46875 24.109375 47.828125 
Q 26.265625 48.1875 28.421875 48.1875 
Q 40.625 48.1875 47.75 41.5 
Q 54.890625 34.8125 54.890625 23.390625 
Q 54.890625 11.625 47.5625 5.09375 
Q 40.234375 -1.421875 26.90625 -1.421875 
Q 22.3125 -1.421875 17.546875 -0.640625 
Q 12.796875 0.140625 7.71875 1.703125 
L 7.71875 11.625 
Q 12.109375 9.234375 16.796875 8.0625 
Q 21.484375 6.890625 26.703125 6.890625 
Q 35.15625 6.890625 40.078125 11.328125 
Q 45.015625 15.765625 45.015625 23.390625 
Q 45.015625 31 40.078125 35.4375 
Q 35.15625 39.890625 26.703125 39.890625 
Q 22.75 39.890625 18.8125 39.015625 
Q 14.890625 38.140625 10.796875 36.28125 
z
" id="DejaVuSans-53"/>
       </defs>
       <use xlink:href="#DejaVuSans-53"/>
       <use x="63.623047" xlink:href="#DejaVuSans-48"/>
       <use x="127.246094" xlink:href="#DejaVuSans-48"/>
      </g>
     </g>
    </g>
    <g id="xtick_3">
     <g id="line2d_3">
      <g>
       <use style="stroke:#000000;stroke-width:0.8;" x="212.306334" xlink:href="#m8cd590694c" y="303.64"/>
      </g>
     </g>
     <g id="text_3">
      <!-- 1000 -->
      <g transform="translate(199.581334 318.238437)scale(0.1 -0.1)">
       <defs>
        <path d="M 12.40625 8.296875 
L 28.515625 8.296875 
L 28.515625 63.921875 
L 10.984375 60.40625 
L 10.984375 69.390625 
L 28.421875 72.90625 
L 38.28125 72.90625 
L 38.28125 8.296875 
L 54.390625 8.296875 
L 54.390625 0 
L 12.40625 0 
z
" id="DejaVuSans-49"/>
       </defs>
       <use xlink:href="#DejaVuSans-49"/>
       <use x="63.623047" xlink:href="#DejaVuSans-48"/>
       <use x="127.246094" xlink:href="#DejaVuSans-48"/>
       <use x="190.869141" xlink:href="#DejaVuSans-48"/>
      </g>
     </g>
    </g>
    <g id="xtick_4">
     <g id="line2d_4">
      <g>
       <use style="stroke:#000000;stroke-width:0.8;" x="286.852632" xlink:href="#m8cd590694c" y="303.64"/>
      </g>
     </g>
     <g id="text_4">
      <!-- 1500 -->
      <g transform="translate(274.127632 318.238437)scale(0.1 -0.1)">
       <use xlink:href="#DejaVuSans-49"/>
       <use x="63.623047" xlink:href="#DejaVuSans-53"/>
       <use x="127.246094" xlink:href="#DejaVuSans-48"/>
       <use x="190.869141" xlink:href="#DejaVuSans-48"/>
      </g>
     </g>
    </g>
    <g id="xtick_5">
     <g id="line2d_5">
      <g>
       <use style="stroke:#000000;stroke-width:0.8;" x="361.398929" xlink:href="#m8cd590694c" y="303.64"/>
      </g>
     </g>
     <g id="text_5">
      <!-- 2000 -->
      <g transform="translate(348.673929 318.238437)scale(0.1 -0.1)">
       <defs>
        <path d="M 19.1875 8.296875 
L 53.609375 8.296875 
L 53.609375 0 
L 7.328125 0 
L 7.328125 8.296875 
Q 12.9375 14.109375 22.625 23.890625 
Q 32.328125 33.6875 34.8125 36.53125 
Q 39.546875 41.84375 41.421875 45.53125 
Q 43.3125 49.21875 43.3125 52.78125 
Q 43.3125 58.59375 39.234375 62.25 
Q 35.15625 65.921875 28.609375 65.921875 
Q 23.96875 65.921875 18.8125 64.3125 
Q 13.671875 62.703125 7.8125 59.421875 
L 7.8125 69.390625 
Q 13.765625 71.78125 18.9375 73 
Q 24.125 74.21875 28.421875 74.21875 
Q 39.75 74.21875 46.484375 68.546875 
Q 53.21875 62.890625 53.21875 53.421875 
Q 53.21875 48.921875 51.53125 44.890625 
Q 49.859375 40.875 45.40625 35.40625 
Q 44.1875 33.984375 37.640625 27.21875 
Q 31.109375 20.453125 19.1875 8.296875 
z
" id="DejaVuSans-50"/>
       </defs>
       <use xlink:href="#DejaVuSans-50"/>
       <use x="63.623047" xlink:href="#DejaVuSans-48"/>
       <use x="127.246094" xlink:href="#DejaVuSans-48"/>
       <use x="190.869141" xlink:href="#DejaVuSans-48"/>
      </g>
     </g>
    </g>
    <g id="xtick_6">
     <g id="line2d_6">
      <g>
       <use style="stroke:#000000;stroke-width:0.8;" x="435.945226" xlink:href="#m8cd590694c" y="303.64"/>
      </g>
     </g>
     <g id="text_6">
      <!-- 2500 -->
      <g transform="translate(423.220226 318.238437)scale(0.1 -0.1)">
       <use xlink:href="#DejaVuSans-50"/>
       <use x="63.623047" xlink:href="#DejaVuSans-53"/>
       <use x="127.246094" xlink:href="#DejaVuSans-48"/>
       <use x="190.869141" xlink:href="#DejaVuSans-48"/>
      </g>
     </g>
    </g>
    <g id="text_7">
     <!-- Time (sec) -->
     <g transform="translate(222.270376 331.916562)scale(0.1 -0.1)">
      <defs>
       <path d="M -0.296875 72.90625 
L 61.375 72.90625 
L 61.375 64.59375 
L 35.5 64.59375 
L 35.5 0 
L 25.59375 0 
L 25.59375 64.59375 
L -0.296875 64.59375 
z
" id="DejaVuSans-84"/>
       <path d="M 9.421875 54.6875 
L 18.40625 54.6875 
L 18.40625 0 
L 9.421875 0 
z
M 9.421875 75.984375 
L 18.40625 75.984375 
L 18.40625 64.59375 
L 9.421875 64.59375 
z
" id="DejaVuSans-105"/>
       <path d="M 52 44.1875 
Q 55.375 50.25 60.0625 53.125 
Q 64.75 56 71.09375 56 
Q 79.640625 56 84.28125 50.015625 
Q 88.921875 44.046875 88.921875 33.015625 
L 88.921875 0 
L 79.890625 0 
L 79.890625 32.71875 
Q 79.890625 40.578125 77.09375 44.375 
Q 74.3125 48.1875 68.609375 48.1875 
Q 61.625 48.1875 57.5625 43.546875 
Q 53.515625 38.921875 53.515625 30.90625 
L 53.515625 0 
L 44.484375 0 
L 44.484375 32.71875 
Q 44.484375 40.625 41.703125 44.40625 
Q 38.921875 48.1875 33.109375 48.1875 
Q 26.21875 48.1875 22.15625 43.53125 
Q 18.109375 38.875 18.109375 30.90625 
L 18.109375 0 
L 9.078125 0 
L 9.078125 54.6875 
L 18.109375 54.6875 
L 18.109375 46.1875 
Q 21.1875 51.21875 25.484375 53.609375 
Q 29.78125 56 35.6875 56 
Q 41.65625 56 45.828125 52.96875 
Q 50 49.953125 52 44.1875 
z
" id="DejaVuSans-109"/>
       <path d="M 56.203125 29.59375 
L 56.203125 25.203125 
L 14.890625 25.203125 
Q 15.484375 15.921875 20.484375 11.0625 
Q 25.484375 6.203125 34.421875 6.203125 
Q 39.59375 6.203125 44.453125 7.46875 
Q 49.3125 8.734375 54.109375 11.28125 
L 54.109375 2.78125 
Q 49.265625 0.734375 44.1875 -0.34375 
Q 39.109375 -1.421875 33.890625 -1.421875 
Q 20.796875 -1.421875 13.15625 6.1875 
Q 5.515625 13.8125 5.515625 26.8125 
Q 5.515625 40.234375 12.765625 48.109375 
Q 20.015625 56 32.328125 56 
Q 43.359375 56 49.78125 48.890625 
Q 56.203125 41.796875 56.203125 29.59375 
z
M 47.21875 32.234375 
Q 47.125 39.59375 43.09375 43.984375 
Q 39.0625 48.390625 32.421875 48.390625 
Q 24.90625 48.390625 20.390625 44.140625 
Q 15.875 39.890625 15.1875 32.171875 
z
" id="DejaVuSans-101"/>
       <path id="DejaVuSans-32"/>
       <path d="M 31 75.875 
Q 24.46875 64.65625 21.28125 53.65625 
Q 18.109375 42.671875 18.109375 31.390625 
Q 18.109375 20.125 21.3125 9.0625 
Q 24.515625 -2 31 -13.1875 
L 23.1875 -13.1875 
Q 15.875 -1.703125 12.234375 9.375 
Q 8.59375 20.453125 8.59375 31.390625 
Q 8.59375 42.28125 12.203125 53.3125 
Q 15.828125 64.359375 23.1875 75.875 
z
" id="DejaVuSans-40"/>
       <path d="M 44.28125 53.078125 
L 44.28125 44.578125 
Q 40.484375 46.53125 36.375 47.5 
Q 32.28125 48.484375 27.875 48.484375 
Q 21.1875 48.484375 17.84375 46.4375 
Q 14.5 44.390625 14.5 40.28125 
Q 14.5 37.15625 16.890625 35.375 
Q 19.28125 33.59375 26.515625 31.984375 
L 29.59375 31.296875 
Q 39.15625 29.25 43.1875 25.515625 
Q 47.21875 21.78125 47.21875 15.09375 
Q 47.21875 7.46875 41.1875 3.015625 
Q 35.15625 -1.421875 24.609375 -1.421875 
Q 20.21875 -1.421875 15.453125 -0.5625 
Q 10.6875 0.296875 5.421875 2 
L 5.421875 11.28125 
Q 10.40625 8.6875 15.234375 7.390625 
Q 20.0625 6.109375 24.8125 6.109375 
Q 31.15625 6.109375 34.5625 8.28125 
Q 37.984375 10.453125 37.984375 14.40625 
Q 37.984375 18.0625 35.515625 20.015625 
Q 33.0625 21.96875 24.703125 23.78125 
L 21.578125 24.515625 
Q 13.234375 26.265625 9.515625 29.90625 
Q 5.8125 33.546875 5.8125 39.890625 
Q 5.8125 47.609375 11.28125 51.796875 
Q 16.75 56 26.8125 56 
Q 31.78125 56 36.171875 55.265625 
Q 40.578125 54.546875 44.28125 53.078125 
z
" id="DejaVuSans-115"/>
       <path d="M 48.78125 52.59375 
L 48.78125 44.1875 
Q 44.96875 46.296875 41.140625 47.34375 
Q 37.3125 48.390625 33.40625 48.390625 
Q 24.65625 48.390625 19.8125 42.84375 
Q 14.984375 37.3125 14.984375 27.296875 
Q 14.984375 17.28125 19.8125 11.734375 
Q 24.65625 6.203125 33.40625 6.203125 
Q 37.3125 6.203125 41.140625 7.25 
Q 44.96875 8.296875 48.78125 10.40625 
L 48.78125 2.09375 
Q 45.015625 0.34375 40.984375 -0.53125 
Q 36.96875 -1.421875 32.421875 -1.421875 
Q 20.0625 -1.421875 12.78125 6.34375 
Q 5.515625 14.109375 5.515625 27.296875 
Q 5.515625 40.671875 12.859375 48.328125 
Q 20.21875 56 33.015625 56 
Q 37.15625 56 41.109375 55.140625 
Q 45.0625 54.296875 48.78125 52.59375 
z
" id="DejaVuSans-99"/>
       <path d="M 8.015625 75.875 
L 15.828125 75.875 
Q 23.140625 64.359375 26.78125 53.3125 
Q 30.421875 42.28125 30.421875 31.390625 
Q 30.421875 20.453125 26.78125 9.375 
Q 23.140625 -1.703125 15.828125 -13.1875 
L 8.015625 -13.1875 
Q 14.5 -2 17.703125 9.0625 
Q 20.90625 20.125 20.90625 31.390625 
Q 20.90625 42.671875 17.703125 53.65625 
Q 14.5 64.65625 8.015625 75.875 
z
" id="DejaVuSans-41"/>
      </defs>
      <use xlink:href="#DejaVuSans-84"/>
      <use x="57.958984" xlink:href="#DejaVuSans-105"/>
      <use x="85.742188" xlink:href="#DejaVuSans-109"/>
      <use x="183.154297" xlink:href="#DejaVuSans-101"/>
      <use x="244.677734" xlink:href="#DejaVuSans-32"/>
      <use x="276.464844" xlink:href="#DejaVuSans-40"/>
      <use x="315.478516" xlink:href="#DejaVuSans-115"/>
      <use x="367.578125" xlink:href="#DejaVuSans-101"/>
      <use x="429.101562" xlink:href="#DejaVuSans-99"/>
      <use x="484.082031" xlink:href="#DejaVuSans-41"/>
     </g>
    </g>
   </g>
   <g id="matplotlib.axis_2">
    <g id="ytick_1">
     <g id="line2d_7">
      <defs>
       <path d="M 0 0 
L -3.5 0 
" id="m4d0f52763e" style="stroke:#000000;stroke-width:0.8;"/>
      </defs>
      <g>
       <use style="stroke:#000000;stroke-width:0.8;" x="47.72" xlink:href="#m4d0f52763e" y="303.64"/>
      </g>
     </g>
     <g id="text_8">
      <!-- 0.0 -->
      <g transform="translate(24.816875 307.439219)scale(0.1 -0.1)">
       <defs>
        <path d="M 10.6875 12.40625 
L 21 12.40625 
L 21 0 
L 10.6875 0 
z
" id="DejaVuSans-46"/>
       </defs>
       <use xlink:href="#DejaVuSans-48"/>
       <use x="63.623047" xlink:href="#DejaVuSans-46"/>
       <use x="95.410156" xlink:href="#DejaVuSans-48"/>
      </g>
     </g>
    </g>
    <g id="ytick_2">
     <g id="line2d_8">
      <g>
       <use style="stroke:#000000;stroke-width:0.8;" x="47.72" xlink:href="#m4d0f52763e" y="245.864"/>
      </g>
     </g>
     <g id="text_9">
      <!-- 0.5 -->
      <g transform="translate(24.816875 249.663219)scale(0.1 -0.1)">
       <use xlink:href="#DejaVuSans-48"/>
       <use x="63.623047" xlink:href="#DejaVuSans-46"/>
       <use x="95.410156" xlink:href="#DejaVuSans-53"/>
      </g>
     </g>
    </g>
    <g id="ytick_3">
     <g id="line2d_9">
      <g>
       <use style="stroke:#000000;stroke-width:0.8;" x="47.72" xlink:href="#m4d0f52763e" y="188.088"/>
      </g>
     </g>
     <g id="text_10">
      <!-- 1.0 -->
      <g transform="translate(24.816875 191.887219)scale(0.1 -0.1)">
       <use xlink:href="#DejaVuSans-49"/>
       <use x="63.623047" xlink:href="#DejaVuSans-46"/>
       <use x="95.410156" xlink:href="#DejaVuSans-48"/>
      </g>
     </g>
    </g>
    <g id="ytick_4">
     <g id="line2d_10">
      <g>
       <use style="stroke:#000000;stroke-width:0.8;" x="47.72" xlink:href="#m4d0f52763e" y="130.312"/>
      </g>
     </g>
     <g id="text_11">
      <!-- 1.5 -->
      <g transform="translate(24.816875 134.111219)scale(0.1 -0.1)">
       <use xlink:href="#DejaVuSans-49"/>
       <use x="63.623047" xlink:href="#DejaVuSans-46"/>
       <use x="95.410156" xlink:href="#DejaVuSans-53"/>
      </g>
     </g>
    </g>
    <g id="ytick_5">
     <g id="line2d_11">
      <g>
       <use style="stroke:#000000;stroke-width:0.8;" x="47.72" xlink:href="#m4d0f52763e" y="72.536"/>
      </g>
     </g>
     <g id="text_12">
      <!-- 2.0 -->
      <g transform="translate(24.816875 76.335219)scale(0.1 -0.1)">
       <use xlink:href="#DejaVuSans-50"/>
       <use x="63.623047" xlink:href="#DejaVuSans-46"/>
       <use x="95.410156" xlink:href="#DejaVuSans-48"/>
      </g>
     </g>
    </g>
    <g id="ytick_6">
     <g id="line2d_12">
      <g>
       <use style="stroke:#000000;stroke-width:0.8;" x="47.72" xlink:href="#m4d0f52763e" y="14.76"/>
      </g>
     </g>
     <g id="text_13">
      <!-- 2.5 -->
      <g transform="translate(24.816875 18.559219)scale(0.1 -0.1)">
       <use xlink:href="#DejaVuSans-50"/>
       <use x="63.623047" xlink:href="#DejaVuSans-46"/>
       <use x="95.410156" xlink:href="#DejaVuSans-53"/>
      </g>
     </g>
    </g>
    <g id="text_14">
     <!-- Loss -->
     <g transform="translate(18.737188 170.167187)rotate(-90)scale(0.1 -0.1)">
      <defs>
       <path d="M 9.8125 72.90625 
L 19.671875 72.90625 
L 19.671875 8.296875 
L 55.171875 8.296875 
L 55.171875 0 
L 9.8125 0 
z
" id="DejaVuSans-76"/>
       <path d="M 30.609375 48.390625 
Q 23.390625 48.390625 19.1875 42.75 
Q 14.984375 37.109375 14.984375 27.296875 
Q 14.984375 17.484375 19.15625 11.84375 
Q 23.34375 6.203125 30.609375 6.203125 
Q 37.796875 6.203125 41.984375 11.859375 
Q 46.1875 17.53125 46.1875 27.296875 
Q 46.1875 37.015625 41.984375 42.703125 
Q 37.796875 48.390625 30.609375 48.390625 
z
M 30.609375 56 
Q 42.328125 56 49.015625 48.375 
Q 55.71875 40.765625 55.71875 27.296875 
Q 55.71875 13.875 49.015625 6.21875 
Q 42.328125 -1.421875 30.609375 -1.421875 
Q 18.84375 -1.421875 12.171875 6.21875 
Q 5.515625 13.875 5.515625 27.296875 
Q 5.515625 40.765625 12.171875 48.375 
Q 18.84375 56 30.609375 56 
z
" id="DejaVuSans-111"/>
      </defs>
      <use xlink:href="#DejaVuSans-76"/>
      <use x="53.962891" xlink:href="#DejaVuSans-111"/>
      <use x="115.144531" xlink:href="#DejaVuSans-115"/>
      <use x="167.244141" xlink:href="#DejaVuSans-115"/>
     </g>
    </g>
   </g>
   <g id="line2d_13">
    <path clip-path="url(#pbe48424a87)" d="M 65.970777 42.880662 
L 68.321046 37.012787 
L 70.686701 63.057125 
L 73.040559 75.740762 
L 75.421106 93.502369 
L 77.779971 104.290231 
L 80.173688 123.699356 
L 82.625755 125.707975 
L 85.003301 163.488062 
L 87.385051 166.96365 
L 89.772089 200.433106 
L 92.175485 199.349806 
L 94.548767 198.480909 
L 96.940933 230.607525 
L 99.300628 221.749291 
L 101.698364 219.898653 
L 104.05357 236.339987 
L 106.408157 236.249712 
L 108.834334 225.574694 
L 111.202617 240.786031 
L 113.589809 228.136247 
L 115.960377 236.283566 
L 118.338289 248.989772 
L 120.714375 246.281522 
L 123.066916 256.612367 
L 125.441274 254.930995 
L 127.825391 253.926686 
L 130.194715 248.318352 
L 132.547271 259.608369 
L 134.924023 242.755155 
L 137.283742 256.527734 
L 139.662587 256.093286 
L 142.037581 258.891811 
L 144.391966 263.862578 
L 146.775114 253.198844 
L 149.160321 246.518494 
L 151.521416 260.516761 
L 153.888615 251.020959 
L 156.223832 254.801225 
L 158.620197 260.454697 
L 160.981293 249.300092 
L 163.355121 247.325327 
L 165.773283 265.90505 
L 168.111785 262.136069 
L 170.469794 264.093908 
L 172.827611 258.056767 
L 175.197673 261.064053 
L 177.555804 267.958806 
L 179.909363 255.038197 
L 182.281986 274.371152 
L 184.642271 266.8078 
L 187.03302 267.287386 
L 189.422799 250.321328 
L 191.800391 270.999945 
L 194.170485 271.078936 
L 196.55663 278.963893 
L 198.915448 276.946811 
L 201.278864 266.943212 
L 203.63273 269.583756 
L 206.018352 271.73343 
L 208.404055 275.767594 
L 210.783058 275.846584 
L 213.130871 274.083401 
L 215.484284 275.488305 
L 217.83205 276.721123 
L 220.232713 263.958495 
L 222.63066 276.40234 
L 224.986155 261.267172 
L 227.381033 281.849872 
L 229.737557 282.405627 
L 232.111725 275.056678 
L 234.460969 278.46738 
L 236.834532 272.167878 
L 239.209482 277.217636 
L 241.575692 285.218258 
L 243.942411 283.378905 
L 246.292806 274.760463 
L 248.639829 283.242082 
L 251.017592 273.894387 
L 253.384596 278.275546 
L 255.775777 279.336277 
L 258.12671 289.885757 
L 260.482193 281.892188 
L 262.839464 276.357202 
L 265.188634 288.599339 
L 267.544351 278.31222 
L 269.923887 285.240827 
L 272.299056 291.533276 
L 274.692033 280.016161 
L 277.062012 288.675508 
L 279.420747 277.748002 
L 281.776069 284.281655 
L 284.135839 290.02258 
L 286.513301 286.477876 
L 288.873065 290.792739 
L 291.230271 288.478032 
L 293.63205 287.3905 
L 296.002377 289.04225 
L 298.37293 284.431173 
L 300.735527 287.585155 
L 303.105926 292.493859 
L 305.454684 294.768365 
L 307.825178 292.808411 
L 310.188348 292.251245 
L 312.549737 294.966547 
L 314.908224 296.80449 
L 317.276357 299.85515 
L 319.636125 297.08131 
L 322.011819 295.237372 
L 324.366317 294.268327 
L 326.736463 298.143275 
L 329.109345 295.224677 
L 331.469717 298.740465 
L 333.836003 299.557525 
L 336.221042 300.04099 
L 338.576997 293.740077 
L 340.930916 298.899857 
L 343.302141 296.807311 
L 345.667954 301.566232 
L 348.04333 300.25028 
L 350.392824 300.399798 
L 352.777454 300.970209 
L 355.137201 302.318758 
L 357.491167 301.593825 
L 359.871088 302.282393 
L 362.225234 303.280509 
L 364.586188 303.127443 
L 366.962056 303.103529 
L 369.320299 302.476078 
L 371.696892 303.019976 
L 374.063305 303.013188 
L 376.425492 302.852298 
L 381.164366 302.833608 
L 383.51328 302.990399 
L 385.863574 302.506405 
L 388.234823 302.911056 
L 390.597746 302.937129 
L 392.956405 303.363125 
L 395.325125 303.15929 
L 400.084124 303.470305 
L 402.455465 303.041333 
L 404.82609 303.500775 
L 407.196298 303.371467 
L 409.559253 303.471418 
L 411.924986 303.351477 
L 414.297134 303.522418 
L 419.011333 303.425575 
L 419.011333 303.425575 
" style="fill:none;stroke:#1f77b4;stroke-linecap:square;stroke-width:1.5;"/>
   </g>
   <g id="line2d_14">
    <path clip-path="url(#pbe48424a87)" d="M 65.965915 43.82855 
L 68.3772 51.998437 
L 73.131824 77.117456 
L 75.451452 95.488419 
L 77.771835 115.055525 
L 80.137823 125.595131 
L 82.516223 157.665325 
L 84.920441 176.340966 
L 87.323073 202.656128 
L 89.679952 209.336478 
L 92.041884 226.54515 
L 94.391556 227.741294 
L 96.760889 231.555412 
L 101.429611 245.706019 
L 103.821845 235.036642 
L 106.163575 249.130827 
L 108.537657 253.480953 
L 110.929792 245.243359 
L 113.272029 247.929041 
L 117.98375 257.46998 
L 120.354016 257.955208 
L 122.723326 252.792606 
L 125.112384 257.272503 
L 127.470468 262.60437 
L 129.810195 256.798559 
L 132.178987 262.649508 
L 134.539352 260.894788 
L 136.901152 264.663769 
L 139.257446 260.161303 
L 141.636587 263.343497 
L 144.034121 266.249223 
L 146.399029 268.805134 
L 148.800497 260.97942 
L 151.135667 264.076981 
L 153.484229 268.551236 
L 155.847494 267.242248 
L 158.19552 271.282055 
L 160.53465 267.360734 
L 162.883126 271.617765 
L 165.243087 263.992348 
L 167.609218 272.466914 
L 169.980959 270.272103 
L 172.313471 268.94901 
L 174.678779 273.420444 
L 177.061189 272.686959 
L 179.462712 272.373818 
L 181.820834 269.02518 
L 184.187702 266.345141 
L 186.562542 275.389567 
L 188.900096 272.162236 
L 191.231267 277.629516 
L 193.563854 274.534776 
L 195.928299 276.825504 
L 198.292749 266.869864 
L 200.641948 276.839609 
L 203.019183 277.95112 
L 205.415009 275.883259 
L 207.767224 275.595507 
L 210.091429 277.625284 
L 212.477678 278.944145 
L 214.842258 276.86782 
L 217.175133 280.918911 
L 219.563108 279.906138 
L 221.914187 278.348895 
L 224.283794 279.423731 
L 226.652547 277.274058 
L 229.058696 280.284165 
L 231.414257 286.627394 
L 233.747314 275.285187 
L 236.115565 283.90927 
L 238.43971 284.19138 
L 240.804717 280.600127 
L 243.151549 281.246158 
L 245.515075 279.119053 
L 247.900719 286.439791 
L 250.264995 285.874162 
L 252.64452 287.793916 
L 255.022139 282.168655 
L 257.343089 286.301558 
L 259.713546 286.328358 
L 262.118866 287.640167 
L 264.484093 289.99437 
L 266.775055 289.760219 
L 269.158558 289.974622 
L 273.840067 288.657171 
L 276.22364 286.41017 
L 278.600435 290.457029 
L 280.969727 289.366676 
L 283.343918 290.457029 
L 285.724797 291.725111 
L 288.130499 290.200309 
L 290.491161 291.566424 
L 292.849261 290.671432 
L 295.182122 293.001655 
L 297.575868 293.130015 
L 299.938717 294.656932 
L 302.324217 295.495502 
L 304.694699 295.25853 
L 307.046265 296.168333 
L 309.407102 296.239918 
L 311.759767 294.334622 
L 314.115958 297.659281 
L 316.467242 294.455224 
L 318.827539 294.168883 
L 321.177247 298.542636 
L 323.544005 297.123273 
L 325.952668 298.170604 
L 328.296087 297.198738 
L 330.676764 297.722756 
L 333.031225 300.205142 
L 335.413431 298.832856 
L 337.749801 299.000006 
L 340.149434 299.949657 
L 342.580192 299.812128 
L 344.957252 299.244383 
L 347.316024 301.320885 
L 349.734789 301.177538 
L 352.121729 302.08593 
L 354.490756 302.349967 
L 356.82283 302.055691 
L 359.176836 301.345393 
L 361.547701 302.828318 
L 363.937092 301.010432 
L 366.306117 302.687925 
L 368.6906 303.195457 
L 371.072285 303.307045 
L 375.804832 302.934705 
L 378.148261 302.992559 
L 380.543208 303.420263 
L 382.936917 303.320346 
L 385.28366 303.02434 
L 387.651839 303.505833 
L 392.415561 303.455439 
L 394.794196 303.300323 
L 397.184779 303.440529 
L 399.527659 303.062403 
L 404.241618 303.50083 
L 418.418105 303.506494 
L 418.418105 303.506494 
" style="fill:none;stroke:#ff7f0e;stroke-linecap:square;stroke-width:1.5;"/>
   </g>
   <g id="line2d_15">
    <path clip-path="url(#pbe48424a87)" d="M 66.03244 32.002525 
L 68.497891 70.820775 
L 70.93692 92.170812 
L 73.370613 110.835169 
L 75.839411 136.292719 
L 78.284759 172.583269 
L 80.764135 191.078359 
L 83.196735 203.942547 
L 85.635087 222.042684 
L 88.107804 231.431284 
L 90.506452 231.386147 
L 92.946702 244.041573 
L 95.32992 249.130827 
L 97.789604 249.001056 
L 100.227384 249.16468 
L 102.661189 260.996347 
L 105.100877 250.434172 
L 107.533583 258.716903 
L 109.965148 257.735163 
L 112.390991 253.650219 
L 114.862456 262.011941 
L 117.292742 267.473578 
L 119.703718 259.811487 
L 122.165052 269.414491 
L 124.655856 260.646531 
L 127.064871 268.511741 
L 129.473581 266.556723 
L 131.889937 263.529689 
L 134.323411 263.529689 
L 136.722966 267.135047 
L 139.183006 270.531644 
L 141.653022 276.955274 
L 144.115745 268.805134 
L 146.58312 273.993126 
L 149.020764 268.240916 
L 151.396807 269.648641 
L 153.845599 271.88859 
L 156.328676 273.936704 
L 158.786747 273.677163 
L 161.200537 276.137157 
L 163.722663 273.654595 
L 166.236239 275.897364 
L 168.706168 272.258153 
L 171.214206 272.111456 
L 173.688037 280.286986 
L 176.10456 278.992104 
L 178.574233 275.389567 
L 181.020544 278.365821 
L 183.455333 276.328991 
L 185.866048 273.976199 
L 188.323399 276.365666 
L 190.789096 279.49708 
L 193.255155 274.639156 
L 195.667725 280.521137 
L 198.113193 274.98333 
L 200.549541 282.346384 
L 202.988536 276.554679 
L 205.437399 280.095152 
L 207.879295 279.398341 
L 210.337369 284.690713 
L 212.736774 281.658037 
L 215.162611 276.187937 
L 217.596356 283.567918 
L 220.067604 285.974311 
L 222.4705 286.90104 
L 224.89825 281.291295 
L 227.375306 284.821894 
L 229.782802 281.918989 
L 232.208897 285.35367 
L 234.588076 282.778012 
L 237.034883 281.570584 
L 239.466676 284.905116 
L 241.93707 281.40696 
L 244.360225 287.582334 
L 246.801168 283.147575 
L 249.287177 286.638679 
L 251.733175 289.818051 
L 254.18101 289.418866 
L 256.614911 286.682405 
L 259.035882 288.509064 
L 261.51506 285.453819 
L 263.940915 287.098517 
L 266.403747 283.644088 
L 268.845176 291.757553 
L 271.345131 293.101804 
L 273.812656 294.214726 
L 276.22451 290.337132 
L 278.678347 294.852293 
L 281.081633 291.390811 
L 283.519913 290.725033 
L 285.944568 294.453813 
L 288.418577 291.59534 
L 293.405844 294.369886 
L 295.890351 294.22601 
L 298.283822 295.537819 
L 300.70916 293.020698 
L 303.21086 295.002516 
L 305.668345 295.718369 
L 308.10169 294.941157 
L 310.538174 296.596787 
L 313.024625 295.221504 
L 315.477844 296.48359 
L 320.433015 295.857308 
L 322.874078 297.177579 
L 325.312447 297.103173 
L 327.747393 297.433241 
L 330.252213 297.395509 
L 332.696425 298.37866 
L 335.181232 299.082699 
L 337.650079 299.194309 
L 340.123379 297.825373 
L 342.621339 299.557701 
L 347.558212 300.558043 
L 350.022787 298.947111 
L 352.488738 300.185923 
L 354.986946 300.420074 
L 357.426067 301.20187 
L 359.853615 301.331111 
L 362.30619 302.366981 
L 364.773403 303.161384 
L 367.200189 302.416703 
L 369.646325 302.978762 
L 372.111934 303.150099 
L 374.569881 303.074062 
L 377.010956 302.775731 
L 379.453966 303.249234 
L 381.929585 303.21472 
L 384.334471 303.373803 
L 386.794314 303.400846 
L 391.672348 303.186928 
L 394.11428 303.259902 
L 398.989557 303.244474 
L 403.920966 303.256706 
L 406.400238 302.881545 
L 408.825418 303.411359 
L 413.721355 303.351675 
L 416.199022 303.399987 
L 418.598969 303.159907 
L 421.040191 303.416428 
L 423.515911 303.306802 
L 430.884212 303.399414 
L 430.884212 303.399414 
" style="fill:none;stroke:#2ca02c;stroke-linecap:square;stroke-width:1.5;"/>
   </g>
   <g id="patch_3">
    <path d="M 47.72 303.64 
L 47.72 14.76 
" style="fill:none;stroke:#000000;stroke-linecap:square;stroke-linejoin:miter;stroke-width:0.8;"/>
   </g>
   <g id="patch_4">
    <path d="M 449.130127 303.64 
L 449.130127 14.76 
" style="fill:none;stroke:#000000;stroke-linecap:square;stroke-linejoin:miter;stroke-width:0.8;"/>
   </g>
   <g id="patch_5">
    <path d="M 47.72 303.64 
L 449.130127 303.64 
" style="fill:none;stroke:#000000;stroke-linecap:square;stroke-linejoin:miter;stroke-width:0.8;"/>
   </g>
   <g id="patch_6">
    <path d="M 47.72 14.76 
L 449.130127 14.76 
" style="fill:none;stroke:#000000;stroke-linecap:square;stroke-linejoin:miter;stroke-width:0.8;"/>
   </g>
   <g id="legend_1">
    <g id="patch_7">
     <path d="M 360.622314 66.794375 
L 442.130127 66.794375 
Q 444.130127 66.794375 444.130127 64.794375 
L 444.130127 21.76 
Q 444.130127 19.76 442.130127 19.76 
L 360.622314 19.76 
Q 358.622314 19.76 358.622314 21.76 
L 358.622314 64.794375 
Q 358.622314 66.794375 360.622314 66.794375 
z
" style="fill:#ffffff;opacity:0.8;stroke:#cccccc;stroke-linejoin:miter;"/>
    </g>
    <g id="line2d_16">
     <path d="M 362.622314 27.858437 
L 382.622314 27.858437 
" style="fill:none;stroke:#1f77b4;stroke-linecap:square;stroke-width:1.5;"/>
    </g>
    <g id="line2d_17"/>
    <g id="text_15">
     <!-- Sync-SGD -->
     <g transform="translate(390.622314 31.358437)scale(0.1 -0.1)">
      <defs>
       <path d="M 53.515625 70.515625 
L 53.515625 60.890625 
Q 47.90625 63.578125 42.921875 64.890625 
Q 37.9375 66.21875 33.296875 66.21875 
Q 25.25 66.21875 20.875 63.09375 
Q 16.5 59.96875 16.5 54.203125 
Q 16.5 49.359375 19.40625 46.890625 
Q 22.3125 44.4375 30.421875 42.921875 
L 36.375 41.703125 
Q 47.40625 39.59375 52.65625 34.296875 
Q 57.90625 29 57.90625 20.125 
Q 57.90625 9.515625 50.796875 4.046875 
Q 43.703125 -1.421875 29.984375 -1.421875 
Q 24.8125 -1.421875 18.96875 -0.25 
Q 13.140625 0.921875 6.890625 3.21875 
L 6.890625 13.375 
Q 12.890625 10.015625 18.65625 8.296875 
Q 24.421875 6.59375 29.984375 6.59375 
Q 38.421875 6.59375 43.015625 9.90625 
Q 47.609375 13.234375 47.609375 19.390625 
Q 47.609375 24.75 44.3125 27.78125 
Q 41.015625 30.8125 33.5 32.328125 
L 27.484375 33.5 
Q 16.453125 35.6875 11.515625 40.375 
Q 6.59375 45.0625 6.59375 53.421875 
Q 6.59375 63.09375 13.40625 68.65625 
Q 20.21875 74.21875 32.171875 74.21875 
Q 37.3125 74.21875 42.625 73.28125 
Q 47.953125 72.359375 53.515625 70.515625 
z
" id="DejaVuSans-83"/>
       <path d="M 32.171875 -5.078125 
Q 28.375 -14.84375 24.75 -17.8125 
Q 21.140625 -20.796875 15.09375 -20.796875 
L 7.90625 -20.796875 
L 7.90625 -13.28125 
L 13.1875 -13.28125 
Q 16.890625 -13.28125 18.9375 -11.515625 
Q 21 -9.765625 23.484375 -3.21875 
L 25.09375 0.875 
L 2.984375 54.6875 
L 12.5 54.6875 
L 29.59375 11.921875 
L 46.6875 54.6875 
L 56.203125 54.6875 
z
" id="DejaVuSans-121"/>
       <path d="M 54.890625 33.015625 
L 54.890625 0 
L 45.90625 0 
L 45.90625 32.71875 
Q 45.90625 40.484375 42.875 44.328125 
Q 39.84375 48.1875 33.796875 48.1875 
Q 26.515625 48.1875 22.3125 43.546875 
Q 18.109375 38.921875 18.109375 30.90625 
L 18.109375 0 
L 9.078125 0 
L 9.078125 54.6875 
L 18.109375 54.6875 
L 18.109375 46.1875 
Q 21.34375 51.125 25.703125 53.5625 
Q 30.078125 56 35.796875 56 
Q 45.21875 56 50.046875 50.171875 
Q 54.890625 44.34375 54.890625 33.015625 
z
" id="DejaVuSans-110"/>
       <path d="M 4.890625 31.390625 
L 31.203125 31.390625 
L 31.203125 23.390625 
L 4.890625 23.390625 
z
" id="DejaVuSans-45"/>
       <path d="M 59.515625 10.40625 
L 59.515625 29.984375 
L 43.40625 29.984375 
L 43.40625 38.09375 
L 69.28125 38.09375 
L 69.28125 6.78125 
Q 63.578125 2.734375 56.6875 0.65625 
Q 49.8125 -1.421875 42 -1.421875 
Q 24.90625 -1.421875 15.25 8.5625 
Q 5.609375 18.5625 5.609375 36.375 
Q 5.609375 54.25 15.25 64.234375 
Q 24.90625 74.21875 42 74.21875 
Q 49.125 74.21875 55.546875 72.453125 
Q 61.96875 70.703125 67.390625 67.28125 
L 67.390625 56.78125 
Q 61.921875 61.421875 55.765625 63.765625 
Q 49.609375 66.109375 42.828125 66.109375 
Q 29.4375 66.109375 22.71875 58.640625 
Q 16.015625 51.171875 16.015625 36.375 
Q 16.015625 21.625 22.71875 14.15625 
Q 29.4375 6.6875 42.828125 6.6875 
Q 48.046875 6.6875 52.140625 7.59375 
Q 56.25 8.5 59.515625 10.40625 
z
" id="DejaVuSans-71"/>
       <path d="M 19.671875 64.796875 
L 19.671875 8.109375 
L 31.59375 8.109375 
Q 46.6875 8.109375 53.6875 14.9375 
Q 60.6875 21.78125 60.6875 36.53125 
Q 60.6875 51.171875 53.6875 57.984375 
Q 46.6875 64.796875 31.59375 64.796875 
z
M 9.8125 72.90625 
L 30.078125 72.90625 
Q 51.265625 72.90625 61.171875 64.09375 
Q 71.09375 55.28125 71.09375 36.53125 
Q 71.09375 17.671875 61.125 8.828125 
Q 51.171875 0 30.078125 0 
L 9.8125 0 
z
" id="DejaVuSans-68"/>
      </defs>
      <use xlink:href="#DejaVuSans-83"/>
      <use x="63.476562" xlink:href="#DejaVuSans-121"/>
      <use x="122.65625" xlink:href="#DejaVuSans-110"/>
      <use x="186.035156" xlink:href="#DejaVuSans-99"/>
      <use x="241.015625" xlink:href="#DejaVuSans-45"/>
      <use x="277.099609" xlink:href="#DejaVuSans-83"/>
      <use x="340.576172" xlink:href="#DejaVuSans-71"/>
      <use x="418.066406" xlink:href="#DejaVuSans-68"/>
     </g>
    </g>
    <g id="line2d_18">
     <path d="M 362.622314 42.536563 
L 382.622314 42.536563 
" style="fill:none;stroke:#ff7f0e;stroke-linecap:square;stroke-width:1.5;"/>
    </g>
    <g id="line2d_19"/>
    <g id="text_16">
     <!-- DP-SGD -->
     <g transform="translate(390.622314 46.036563)scale(0.1 -0.1)">
      <defs>
       <path d="M 19.671875 64.796875 
L 19.671875 37.40625 
L 32.078125 37.40625 
Q 38.96875 37.40625 42.71875 40.96875 
Q 46.484375 44.53125 46.484375 51.125 
Q 46.484375 57.671875 42.71875 61.234375 
Q 38.96875 64.796875 32.078125 64.796875 
z
M 9.8125 72.90625 
L 32.078125 72.90625 
Q 44.34375 72.90625 50.609375 67.359375 
Q 56.890625 61.8125 56.890625 51.125 
Q 56.890625 40.328125 50.609375 34.8125 
Q 44.34375 29.296875 32.078125 29.296875 
L 19.671875 29.296875 
L 19.671875 0 
L 9.8125 0 
z
" id="DejaVuSans-80"/>
      </defs>
      <use xlink:href="#DejaVuSans-68"/>
      <use x="77.001953" xlink:href="#DejaVuSans-80"/>
      <use x="135.054688" xlink:href="#DejaVuSans-45"/>
      <use x="171.138672" xlink:href="#DejaVuSans-83"/>
      <use x="234.615234" xlink:href="#DejaVuSans-71"/>
      <use x="312.105469" xlink:href="#DejaVuSans-68"/>
     </g>
    </g>
    <g id="line2d_20">
     <path d="M 362.622314 57.214687 
L 382.622314 57.214687 
" style="fill:none;stroke:#2ca02c;stroke-linecap:square;stroke-width:1.5;"/>
    </g>
    <g id="line2d_21"/>
    <g id="text_17">
     <!-- EDP-SGD -->
     <g transform="translate(390.622314 60.714687)scale(0.1 -0.1)">
      <defs>
       <path d="M 9.8125 72.90625 
L 55.90625 72.90625 
L 55.90625 64.59375 
L 19.671875 64.59375 
L 19.671875 43.015625 
L 54.390625 43.015625 
L 54.390625 34.71875 
L 19.671875 34.71875 
L 19.671875 8.296875 
L 56.78125 8.296875 
L 56.78125 0 
L 9.8125 0 
z
" id="DejaVuSans-69"/>
      </defs>
      <use xlink:href="#DejaVuSans-69"/>
      <use x="63.183594" xlink:href="#DejaVuSans-68"/>
      <use x="140.185547" xlink:href="#DejaVuSans-80"/>
      <use x="198.238281" xlink:href="#DejaVuSans-45"/>
      <use x="234.322266" xlink:href="#DejaVuSans-83"/>
      <use x="297.798828" xlink:href="#DejaVuSans-71"/>
      <use x="375.289062" xlink:href="#DejaVuSans-68"/>
     </g>
    </g>
   </g>
  </g>
 </g>
 <defs>
  <clipPath id="pbe48424a87">
   <rect height="288.88" width="401.410127" x="47.72" y="14.76"/>
  </clipPath>
 </defs>
</svg>
