<?xml version="1.0" encoding="utf-8" standalone="no"?>
<!DOCTYPE svg PUBLIC "-//W3C//DTD SVG 1.1//EN"
  "http://www.w3.org/Graphics/SVG/1.1/DTD/svg11.dtd">
<!-- Created with matplotlib (https://matplotlib.org/) -->
<svg height="345.6pt" version="1.1" viewBox="0 0 460.8 345.6" width="460.8pt" xmlns="http://www.w3.org/2000/svg" xmlns:xlink="http://www.w3.org/1999/xlink">
 <metadata>
  <rdf:RDF xmlns:cc="http://creativecommons.org/ns#" xmlns:dc="http://purl.org/dc/elements/1.1/" xmlns:rdf="http://www.w3.org/1999/02/22-rdf-syntax-ns#">
   <cc:Work>
    <dc:type rdf:resource="http://purl.org/dc/dcmitype/StillImage"/>
    <dc:date>2021-06-24T12:04:28.627580</dc:date>
    <dc:format>image/svg+xml</dc:format>
    <dc:creator>
     <cc:Agent>
      <dc:title>Matplotlib v3.3.1, https://matplotlib.org/</dc:title>
     </cc:Agent>
    </dc:creator>
   </cc:Work>
  </rdf:RDF>
 </metadata>
 <defs>
  <style type="text/css">*{stroke-linecap:butt;stroke-linejoin:round;}</style>
 </defs>
 <g id="figure_1">
  <g id="patch_1">
   <path d="M 0 345.6 
L 460.8 345.6 
L 460.8 0 
L 0 0 
z
" style="fill:#ffffff;"/>
  </g>
  <g id="axes_1">
   <g id="patch_2">
    <path d="M 47.72 303.64 
L 450 303.64 
L 450 14.76 
L 47.72 14.76 
z
" style="fill:#ffffff;"/>
   </g>
   <g id="PolyCollection_1">
    <path clip-path="url(#p04e6da1651)" d="M 66.005455 42.819094 
L 66.005455 70.115006 
L 68.459878 52.752407 
L 70.914301 94.87979 
L 73.368725 110.084233 
L 75.823148 120.627493 
L 78.277572 135.8544 
L 80.731995 151.04086 
L 83.186419 151.865528 
L 85.640842 169.967747 
L 88.095265 162.46178 
L 90.549689 186.771049 
L 93.004112 193.783795 
L 95.458536 199.675525 
L 97.912959 226.433847 
L 100.367383 218.138732 
L 102.821806 217.814961 
L 105.276229 231.532597 
L 107.730653 231.082747 
L 110.185076 229.23094 
L 112.6395 234.966171 
L 115.093923 217.890731 
L 117.548347 231.175003 
L 120.00277 251.817786 
L 122.457193 239.254324 
L 124.911617 257.90889 
L 127.36604 258.201518 
L 129.820464 258.294904 
L 132.274887 248.24194 
L 134.729311 258.778379 
L 137.183734 243.256465 
L 139.638157 255.372592 
L 142.092581 254.656068 
L 144.547004 260.255248 
L 147.001428 262.730077 
L 149.455851 261.862961 
L 151.910275 243.239019 
L 154.364698 251.767086 
L 156.819121 257.271692 
L 159.273545 256.179245 
L 161.727968 269.577953 
L 164.182392 255.465963 
L 166.636815 248.265828 
L 169.091239 268.23642 
L 171.545662 264.018224 
L 174.000085 264.330972 
L 176.454509 260.895032 
L 178.908932 266.04238 
L 181.363356 277.031543 
L 183.817779 256.447099 
L 186.272203 279.156781 
L 188.726626 269.623524 
L 191.181049 266.12825 
L 193.635473 252.80872 
L 196.089896 271.484714 
L 198.54432 277.620873 
L 200.998743 274.18808 
L 203.453167 278.768575 
L 205.90759 272.942016 
L 208.362013 277.128388 
L 210.816437 273.169099 
L 213.27086 277.470949 
L 215.725284 276.245021 
L 218.179707 271.63152 
L 220.634131 279.554122 
L 223.088554 277.191833 
L 225.542977 273.193687 
L 227.997401 275.421118 
L 230.451824 266.944684 
L 232.906248 281.702633 
L 235.360671 286.170807 
L 237.815095 276.167229 
L 240.269518 271.639086 
L 242.723941 274.973536 
L 245.178365 279.26694 
L 247.632788 287.236869 
L 250.087212 281.689465 
L 252.541635 276.449647 
L 254.996059 276.89173 
L 257.450482 278.997765 
L 259.904905 286.270063 
L 262.359329 282.233714 
L 264.813752 291.323433 
L 267.268176 283.812262 
L 269.722599 279.453446 
L 272.177023 291.420631 
L 274.631446 286.036296 
L 277.085869 285.718619 
L 279.540293 292.683959 
L 281.994716 285.883601 
L 284.44914 288.004362 
L 286.903563 277.312603 
L 289.357987 286.7177 
L 291.81241 291.043278 
L 294.266833 286.83045 
L 296.721257 292.818964 
L 299.17568 289.530901 
L 301.630104 287.809759 
L 304.084527 290.480711 
L 306.538951 293.454056 
L 308.993374 289.269076 
L 311.447797 293.451412 
L 313.902221 297.655335 
L 316.356644 292.644044 
L 318.811068 296.300416 
L 321.265491 296.491051 
L 323.719915 298.901784 
L 326.174338 299.987022 
L 328.628761 297.134219 
L 331.083185 295.193503 
L 333.537608 293.658291 
L 335.992032 300.687692 
L 338.446455 297.74376 
L 340.900879 301.975843 
L 343.355302 300.073626 
L 345.809725 301.831274 
L 348.264149 299.784416 
L 350.718572 302.169703 
L 353.172996 300.052219 
L 355.627419 302.884207 
L 358.081843 302.20058 
L 360.536266 302.612556 
L 362.990689 303.327874 
L 365.445113 303.432867 
L 367.899536 302.267893 
L 370.35396 303.425766 
L 372.808383 302.944397 
L 375.262807 303.485428 
L 377.71723 303.263441 
L 380.171653 302.772727 
L 382.626077 303.492084 
L 385.0805 303.390368 
L 387.534924 303.32287 
L 389.989347 303.427561 
L 392.443771 303.417774 
L 394.898194 303.38137 
L 397.352617 303.427666 
L 399.807041 303.548678 
L 402.261464 303.487117 
L 404.715888 303.423993 
L 407.170311 303.474538 
L 409.624735 303.520832 
L 412.079158 303.498395 
L 414.533581 303.489381 
L 416.988005 303.613562 
L 419.442428 303.522819 
L 421.896852 303.472462 
L 424.351275 303.399452 
L 426.805699 303.515503 
L 429.260122 303.550136 
L 431.714545 303.520169 
L 431.714545 303.346233 
L 431.714545 303.346233 
L 429.260122 303.457276 
L 426.805699 303.442142 
L 424.351275 303.263081 
L 421.896852 303.404959 
L 419.442428 303.399784 
L 416.988005 303.334541 
L 414.533581 303.416119 
L 412.079158 303.405518 
L 409.624735 303.149503 
L 407.170311 303.311197 
L 404.715888 303.252205 
L 402.261464 303.321187 
L 399.807041 303.159478 
L 397.352617 303.30513 
L 394.898194 303.21813 
L 392.443771 303.115121 
L 389.989347 303.253573 
L 387.534924 303.012857 
L 385.0805 303.123265 
L 382.626077 302.714578 
L 380.171653 301.931085 
L 377.71723 302.494667 
L 375.262807 302.532133 
L 372.808383 302.635189 
L 370.35396 302.707106 
L 367.899536 300.272317 
L 365.445113 301.509945 
L 362.990689 301.957966 
L 360.536266 301.365001 
L 358.081843 301.095683 
L 355.627419 301.967183 
L 353.172996 294.951086 
L 350.718572 297.51027 
L 348.264149 295.814845 
L 345.809725 295.165839 
L 343.355302 298.078725 
L 340.900879 300.279084 
L 338.446455 295.110577 
L 335.992032 298.507054 
L 333.537608 291.710274 
L 331.083185 291.348637 
L 328.628761 290.931312 
L 326.174338 296.727276 
L 323.719915 294.364433 
L 321.265491 293.810197 
L 318.811068 290.398295 
L 316.356644 287.415222 
L 313.902221 294.03248 
L 311.447797 287.541637 
L 308.993374 285.884309 
L 306.538951 285.59808 
L 304.084527 286.088862 
L 301.630104 285.035971 
L 299.17568 285.140076 
L 296.721257 284.941111 
L 294.266833 280.782151 
L 291.81241 289.331951 
L 289.357987 280.508411 
L 286.903563 262.543257 
L 284.44914 278.674456 
L 281.994716 279.655495 
L 279.540293 290.797294 
L 277.085869 279.397314 
L 274.631446 279.796195 
L 272.177023 285.55518 
L 269.722599 271.094359 
L 267.268176 278.984732 
L 264.813752 287.17859 
L 262.359329 275.55866 
L 259.904905 279.994055 
L 257.450482 273.519163 
L 254.996059 267.29733 
L 252.541635 269.911654 
L 250.087212 276.763044 
L 247.632788 280.276993 
L 245.178365 272.194899 
L 242.723941 269.661256 
L 240.269518 266.478979 
L 237.815095 269.133342 
L 235.360671 280.028426 
L 232.906248 275.67786 
L 230.451824 258.636441 
L 227.997401 269.902021 
L 225.542977 265.923046 
L 223.088554 272.052627 
L 220.634131 271.840011 
L 218.179707 262.638574 
L 215.725284 272.734256 
L 213.27086 274.058596 
L 210.816437 269.564276 
L 208.362013 274.756615 
L 205.90759 267.195953 
L 203.453167 273.601656 
L 200.998743 268.133416 
L 198.54432 267.617633 
L 196.089896 262.830518 
L 193.635473 248.30788 
L 191.181049 259.667278 
L 188.726626 264.477304 
L 186.272203 270.110248 
L 183.817779 247.524448 
L 181.363356 268.522926 
L 178.908932 259.832138 
L 176.454509 251.505943 
L 174.000085 255.675672 
L 171.545662 259.971804 
L 169.091239 258.574702 
L 166.636815 240.234841 
L 164.182392 245.210546 
L 161.727968 263.642694 
L 159.273545 249.913764 
L 156.819121 249.261408 
L 154.364698 246.62998 
L 151.910275 238.175062 
L 149.455851 253.359108 
L 147.001428 258.11161 
L 144.547004 253.138752 
L 142.092581 245.659342 
L 139.638157 246.217952 
L 137.183734 232.695978 
L 134.729311 254.988005 
L 132.274887 238.216257 
L 129.820464 249.411771 
L 127.36604 252.16827 
L 124.911617 254.808047 
L 122.457193 234.102713 
L 120.00277 239.43627 
L 117.548347 226.248497 
L 115.093923 212.585682 
L 112.6395 224.827048 
L 110.185076 221.038266 
L 107.730653 225.302591 
L 105.276229 222.234765 
L 102.821806 211.894114 
L 100.367383 204.280637 
L 97.912959 215.191528 
L 95.458536 186.430725 
L 93.004112 177.133686 
L 90.549689 172.388114 
L 88.095265 150.70227 
L 85.640842 151.275916 
L 83.186419 131.327222 
L 80.731995 129.940153 
L 78.277572 118.676038 
L 75.823148 109.483557 
L 73.368725 99.353842 
L 70.914301 80.88571 
L 68.459878 44.383568 
L 66.005455 42.819094 
z
" style="fill:#1f77b4;fill-opacity:0.25;"/>
   </g>
   <g id="PolyCollection_2">
    <path clip-path="url(#p04e6da1651)" d="M 66.005455 41.401639 
L 66.005455 50.498386 
L 68.459878 73.990454 
L 70.914301 92.49888 
L 73.368725 111.93466 
L 75.823148 104.414635 
L 78.277572 121.603987 
L 80.731995 129.525393 
L 83.186419 156.068994 
L 85.640842 166.543009 
L 88.095265 170.549948 
L 90.549689 187.299496 
L 93.004112 190.314737 
L 95.458536 190.28914 
L 97.912959 204.455751 
L 100.367383 204.417682 
L 102.821806 228.96348 
L 105.276229 218.379993 
L 107.730653 226.270158 
L 110.185076 231.925258 
L 112.6395 234.677634 
L 115.093923 239.615462 
L 117.548347 232.979312 
L 120.00277 239.204298 
L 122.457193 236.047698 
L 124.911617 244.197508 
L 127.36604 246.427795 
L 129.820464 250.195083 
L 132.274887 253.273065 
L 134.729311 249.536137 
L 137.183734 251.993213 
L 139.638157 250.925819 
L 142.092581 237.56712 
L 144.547004 259.257661 
L 147.001428 256.023652 
L 149.455851 263.23663 
L 151.910275 263.179657 
L 154.364698 255.320606 
L 156.819121 259.075903 
L 159.273545 261.908455 
L 161.727968 266.081586 
L 164.182392 265.555302 
L 166.636815 261.386134 
L 169.091239 265.531265 
L 171.545662 268.990832 
L 174.000085 263.454036 
L 176.454509 269.040146 
L 178.908932 267.945137 
L 181.363356 264.780938 
L 183.817779 273.513836 
L 186.272203 263.474308 
L 188.726626 272.009406 
L 191.181049 269.633451 
L 193.635473 273.364358 
L 196.089896 261.793109 
L 198.54432 270.511404 
L 200.998743 275.668091 
L 203.453167 268.222449 
L 205.90759 279.180948 
L 208.362013 261.862084 
L 210.816437 273.337463 
L 213.27086 272.333623 
L 215.725284 285.441492 
L 218.179707 280.691771 
L 220.634131 272.569617 
L 223.088554 275.576241 
L 225.542977 273.563822 
L 227.997401 278.322445 
L 230.451824 283.566461 
L 232.906248 277.599349 
L 235.360671 279.693591 
L 237.815095 283.80866 
L 240.269518 285.338186 
L 242.723941 282.4419 
L 245.178365 283.636069 
L 247.632788 284.609841 
L 250.087212 279.263256 
L 252.541635 277.860232 
L 254.996059 280.448493 
L 257.450482 284.383949 
L 259.904905 281.778278 
L 262.359329 283.606595 
L 264.813752 278.359038 
L 267.268176 286.834449 
L 269.722599 280.591989 
L 272.177023 284.421547 
L 274.631446 287.431877 
L 277.085869 283.739522 
L 279.540293 284.659659 
L 281.994716 286.87197 
L 284.44914 288.769818 
L 286.903563 288.34006 
L 289.357987 285.567408 
L 291.81241 287.365677 
L 294.266833 290.28691 
L 296.721257 283.237353 
L 299.17568 293.344452 
L 301.630104 291.956368 
L 304.084527 292.809585 
L 306.538951 292.710586 
L 308.993374 294.174983 
L 311.447797 296.917518 
L 313.902221 291.889596 
L 316.356644 293.637084 
L 318.811068 297.351227 
L 321.265491 293.761263 
L 323.719915 291.446715 
L 326.174338 295.232455 
L 328.628761 294.909203 
L 331.083185 299.202691 
L 333.537608 296.678283 
L 335.992032 295.772985 
L 338.446455 298.790688 
L 340.900879 300.672692 
L 343.355302 300.907247 
L 345.809725 300.507932 
L 348.264149 299.212043 
L 350.718572 299.654345 
L 353.172996 301.363098 
L 355.627419 301.848454 
L 358.081843 301.400545 
L 360.536266 302.622039 
L 362.990689 302.613686 
L 365.445113 301.879709 
L 367.899536 302.729328 
L 370.35396 303.017205 
L 372.808383 302.128695 
L 375.262807 302.935124 
L 377.71723 303.11917 
L 380.171653 303.124836 
L 382.626077 303.084831 
L 385.0805 303.397351 
L 387.534924 303.110025 
L 389.989347 303.399968 
L 392.443771 303.495014 
L 394.898194 303.743566 
L 397.352617 303.445855 
L 399.807041 303.536273 
L 402.261464 303.470359 
L 404.715888 303.523296 
L 407.170311 303.471767 
L 409.624735 303.413129 
L 412.079158 303.478951 
L 414.533581 303.57084 
L 416.988005 303.439285 
L 419.442428 303.27429 
L 421.896852 303.539038 
L 424.351275 303.513817 
L 426.805699 303.520818 
L 429.260122 303.45486 
L 431.714545 303.479578 
L 431.714545 303.198604 
L 431.714545 303.198604 
L 429.260122 303.22601 
L 426.805699 303.269854 
L 424.351275 303.08101 
L 421.896852 303.225187 
L 419.442428 301.479244 
L 416.988005 302.714967 
L 414.533581 303.287318 
L 412.079158 303.134301 
L 409.624735 303.181697 
L 407.170311 303.339491 
L 404.715888 303.208707 
L 402.261464 303.171192 
L 399.807041 302.125565 
L 397.352617 302.887668 
L 394.898194 301.286171 
L 392.443771 302.900088 
L 389.989347 303.045341 
L 387.534924 302.089947 
L 385.0805 303.027593 
L 382.626077 302.7416 
L 380.171653 300.273251 
L 377.71723 301.852999 
L 375.262807 301.164975 
L 372.808383 298.981926 
L 370.35396 300.757763 
L 367.899536 301.796579 
L 365.445113 300.345596 
L 362.990689 301.387145 
L 360.536266 297.644017 
L 358.081843 299.914253 
L 355.627419 300.267181 
L 353.172996 298.955501 
L 350.718572 296.399112 
L 348.264149 298.002295 
L 345.809725 296.921514 
L 343.355302 297.216188 
L 340.900879 298.456463 
L 338.446455 294.271 
L 335.992032 287.431801 
L 333.537608 291.05859 
L 331.083185 295.503694 
L 328.628761 290.140578 
L 326.174338 286.779008 
L 323.719915 284.821002 
L 321.265491 289.914646 
L 318.811068 289.639466 
L 316.356644 287.367249 
L 313.902221 290.341913 
L 311.447797 284.845689 
L 308.993374 289.856383 
L 306.538951 284.555798 
L 304.084527 287.938029 
L 301.630104 286.308682 
L 299.17568 285.989793 
L 296.721257 274.679149 
L 294.266833 282.457261 
L 291.81241 281.68286 
L 289.357987 280.293294 
L 286.903563 281.729713 
L 284.44914 285.125358 
L 281.994716 281.256891 
L 279.540293 278.616921 
L 277.085869 277.889539 
L 274.631446 284.398258 
L 272.177023 279.808563 
L 269.722599 272.015214 
L 267.268176 279.110886 
L 264.813752 266.010572 
L 262.359329 281.215944 
L 259.904905 274.056256 
L 257.450482 270.601436 
L 254.996059 274.06577 
L 252.541635 271.632484 
L 250.087212 264.305163 
L 247.632788 277.408531 
L 245.178365 276.497812 
L 242.723941 272.630939 
L 240.269518 272.324417 
L 237.815095 276.945862 
L 235.360671 271.407148 
L 232.906248 261.415824 
L 230.451824 276.725402 
L 227.997401 266.679089 
L 225.542977 261.383334 
L 223.088554 270.706069 
L 220.634131 265.051936 
L 218.179707 268.005396 
L 215.725284 273.642943 
L 213.27086 261.67693 
L 210.816437 269.790865 
L 208.362013 256.192362 
L 205.90759 263.512932 
L 203.453167 261.714445 
L 200.998743 269.243168 
L 198.54432 258.601731 
L 196.089896 249.468144 
L 193.635473 249.711635 
L 191.181049 256.139509 
L 188.726626 265.20591 
L 186.272203 256.927289 
L 183.817779 264.361616 
L 181.363356 258.520743 
L 178.908932 262.567259 
L 176.454509 259.94886 
L 174.000085 261.867548 
L 171.545662 254.513968 
L 169.091239 254.554369 
L 166.636815 258.778491 
L 164.182392 260.81573 
L 161.727968 252.683777 
L 159.273545 244.974461 
L 156.819121 254.318097 
L 154.364698 252.137812 
L 151.910275 257.876433 
L 149.455851 252.786629 
L 147.001428 248.76037 
L 144.547004 249.092224 
L 142.092581 232.991393 
L 139.638157 244.164925 
L 137.183734 245.704221 
L 134.729311 240.092969 
L 132.274887 244.514645 
L 129.820464 234.107798 
L 127.36604 233.496748 
L 124.911617 237.46483 
L 122.457193 225.663865 
L 120.00277 232.708339 
L 117.548347 215.37155 
L 115.093923 230.717363 
L 112.6395 224.709347 
L 110.185076 224.053842 
L 107.730653 212.827517 
L 105.276229 193.4772 
L 102.821806 199.707433 
L 100.367383 190.738636 
L 97.912959 193.499093 
L 95.458536 181.395678 
L 93.004112 170.604788 
L 90.549689 172.040217 
L 88.095265 154.079027 
L 85.640842 149.193878 
L 83.186419 139.310881 
L 80.731995 119.949645 
L 78.277572 115.819338 
L 75.823148 93.784203 
L 73.368725 85.587115 
L 70.914301 77.759845 
L 68.459878 61.467258 
L 66.005455 41.401639 
z
" style="fill:#ff7f0e;fill-opacity:0.25;"/>
   </g>
   <g id="PolyCollection_3">
    <path clip-path="url(#p04e6da1651)" d="M 66.005455 53.374105 
L 66.005455 76.712245 
L 68.459878 90.063184 
L 70.914301 105.415035 
L 73.368725 127.133427 
L 75.823148 135.118758 
L 78.277572 150.814417 
L 80.731995 166.171917 
L 83.186419 171.640913 
L 85.640842 193.310114 
L 88.095265 199.694699 
L 90.549689 222.782507 
L 93.004112 216.001935 
L 95.458536 220.543638 
L 97.912959 240.841321 
L 100.367383 243.213297 
L 102.821806 245.802757 
L 105.276229 240.158453 
L 107.730653 247.093628 
L 110.185076 257.001676 
L 112.6395 233.048202 
L 115.093923 254.062236 
L 117.548347 249.355307 
L 120.00277 250.280753 
L 122.457193 265.072287 
L 124.911617 270.36263 
L 127.36604 262.245487 
L 129.820464 255.013245 
L 132.274887 258.289233 
L 134.729311 262.760919 
L 137.183734 255.678616 
L 139.638157 258.590866 
L 142.092581 268.506465 
L 144.547004 267.932797 
L 147.001428 264.172576 
L 149.455851 270.627148 
L 151.910275 269.839201 
L 154.364698 275.60366 
L 156.819121 263.596252 
L 159.273545 276.533848 
L 161.727968 276.49608 
L 164.182392 274.40183 
L 166.636815 277.391949 
L 169.091239 272.983275 
L 171.545662 278.533717 
L 174.000085 269.416231 
L 176.454509 275.440651 
L 178.908932 274.861556 
L 181.363356 282.511557 
L 183.817779 280.011111 
L 186.272203 286.912929 
L 188.726626 282.998951 
L 191.181049 281.632927 
L 193.635473 280.033194 
L 196.089896 275.815173 
L 198.54432 283.065907 
L 200.998743 279.791603 
L 203.453167 288.317029 
L 205.90759 277.705169 
L 208.362013 282.282333 
L 210.816437 279.501047 
L 213.27086 282.347107 
L 215.725284 279.748421 
L 218.179707 285.497791 
L 220.634131 279.271495 
L 223.088554 286.263325 
L 225.542977 282.442398 
L 227.997401 286.746034 
L 230.451824 283.182565 
L 232.906248 279.594895 
L 235.360671 280.010056 
L 237.815095 283.154093 
L 240.269518 292.259314 
L 242.723941 284.738751 
L 245.178365 286.780167 
L 247.632788 283.64891 
L 250.087212 290.597796 
L 252.541635 289.420718 
L 254.996059 290.75739 
L 257.450482 292.174102 
L 259.904905 293.486784 
L 262.359329 292.072139 
L 264.813752 293.638404 
L 267.268176 283.004399 
L 269.722599 290.060735 
L 272.177023 293.214742 
L 274.631446 293.774932 
L 277.085869 288.915666 
L 279.540293 294.959681 
L 281.994716 290.915383 
L 284.44914 295.206865 
L 286.903563 295.057786 
L 289.357987 293.460456 
L 291.81241 294.778284 
L 294.266833 296.043707 
L 296.721257 290.483686 
L 299.17568 293.889683 
L 301.630104 295.695126 
L 304.084527 297.348057 
L 306.538951 299.015374 
L 308.993374 299.563273 
L 311.447797 298.636331 
L 313.902221 298.419667 
L 316.356644 298.164968 
L 318.811068 300.000942 
L 321.265491 298.757844 
L 323.719915 296.621284 
L 326.174338 299.541264 
L 328.628761 301.263727 
L 331.083185 301.333486 
L 333.537608 301.060395 
L 335.992032 299.630583 
L 338.446455 299.406236 
L 340.900879 300.903837 
L 343.355302 300.02456 
L 345.809725 300.919993 
L 348.264149 301.832211 
L 350.718572 301.676423 
L 353.172996 301.86461 
L 355.627419 303.296173 
L 358.081843 301.925675 
L 360.536266 303.139821 
L 362.990689 303.022126 
L 365.445113 303.127374 
L 367.899536 302.276109 
L 370.35396 303.251992 
L 372.808383 303.453402 
L 375.262807 303.406208 
L 377.71723 303.247432 
L 380.171653 303.457335 
L 382.626077 303.450614 
L 385.0805 303.531061 
L 387.534924 303.436099 
L 389.989347 303.407034 
L 392.443771 303.472137 
L 394.898194 303.45355 
L 397.352617 303.448252 
L 399.807041 303.154751 
L 402.261464 303.853463 
L 404.715888 303.414441 
L 407.170311 303.447027 
L 409.624735 303.434882 
L 412.079158 303.43698 
L 414.533581 303.467163 
L 416.988005 303.376182 
L 419.442428 303.348999 
L 421.896852 303.437769 
L 424.351275 303.328289 
L 426.805699 303.434625 
L 429.260122 303.367218 
L 431.714545 303.447293 
L 431.714545 303.29498 
L 431.714545 303.29498 
L 429.260122 303.239422 
L 426.805699 303.387608 
L 424.351275 302.861799 
L 421.896852 303.303535 
L 419.442428 302.962837 
L 416.988005 303.264487 
L 414.533581 303.401795 
L 412.079158 301.69317 
L 409.624735 303.273758 
L 407.170311 303.420388 
L 404.715888 303.251178 
L 402.261464 301.874847 
L 399.807041 302.687549 
L 397.352617 303.363931 
L 394.898194 303.297274 
L 392.443771 303.231831 
L 389.989347 303.045944 
L 387.534924 303.346727 
L 385.0805 302.776543 
L 382.626077 303.081091 
L 380.171653 302.782299 
L 377.71723 301.456557 
L 375.262807 303.340253 
L 372.808383 301.281001 
L 370.35396 302.861662 
L 367.899536 299.332963 
L 365.445113 301.850701 
L 362.990689 302.146638 
L 360.536266 301.86911 
L 358.081843 299.364437 
L 355.627419 301.871004 
L 353.172996 300.328958 
L 350.718572 298.047278 
L 348.264149 300.473495 
L 345.809725 293.161872 
L 343.355302 296.011971 
L 340.900879 298.113179 
L 338.446455 295.065294 
L 335.992032 296.494107 
L 333.537608 297.303538 
L 331.083185 295.901305 
L 328.628761 299.117288 
L 326.174338 293.895629 
L 323.719915 291.035188 
L 321.265491 297.0798 
L 318.811068 289.08653 
L 316.356644 293.009408 
L 313.902221 293.424718 
L 311.447797 294.642581 
L 308.993374 295.961229 
L 306.538951 293.515243 
L 304.084527 290.158897 
L 301.630104 290.443598 
L 299.17568 288.426459 
L 296.721257 281.26746 
L 294.266833 291.432215 
L 291.81241 291.061403 
L 289.357987 289.078552 
L 286.903563 289.420724 
L 284.44914 293.310041 
L 281.994716 285.476461 
L 279.540293 290.265008 
L 277.085869 286.21515 
L 274.631446 288.840246 
L 272.177023 286.810671 
L 269.722599 283.910611 
L 267.268176 275.764072 
L 264.813752 290.206771 
L 262.359329 290.36531 
L 259.904905 290.115776 
L 257.450482 289.752729 
L 254.996059 289.000019 
L 252.541635 283.557603 
L 250.087212 284.896941 
L 247.632788 277.133823 
L 245.178365 278.386545 
L 242.723941 280.495668 
L 240.269518 289.989121 
L 237.815095 275.614378 
L 235.360671 273.477329 
L 232.906248 266.760765 
L 230.451824 275.856732 
L 227.997401 279.306502 
L 225.542977 275.028371 
L 223.088554 278.745407 
L 220.634131 275.389465 
L 218.179707 282.111989 
L 215.725284 275.984554 
L 213.27086 276.398796 
L 210.816437 270.115797 
L 208.362013 274.883758 
L 205.90759 273.632542 
L 203.453167 275.817163 
L 200.998743 271.517897 
L 198.54432 279.697233 
L 196.089896 270.354294 
L 193.635473 268.776817 
L 191.181049 276.932426 
L 188.726626 272.485768 
L 186.272203 262.51208 
L 183.817779 267.185234 
L 181.363356 277.927003 
L 178.908932 270.495436 
L 176.454509 269.284416 
L 174.000085 262.754969 
L 171.545662 270.817944 
L 169.091239 267.380381 
L 166.636815 266.622203 
L 164.182392 268.828057 
L 161.727968 270.42944 
L 159.273545 267.830119 
L 156.819121 256.162135 
L 154.364698 271.886079 
L 151.910275 255.945042 
L 149.455851 265.234043 
L 147.001428 259.535343 
L 144.547004 261.439878 
L 142.092581 258.95915 
L 139.638157 251.824059 
L 137.183734 243.621199 
L 134.729311 238.694212 
L 132.274887 245.366352 
L 129.820464 251.542424 
L 127.36604 251.599888 
L 124.911617 255.04923 
L 122.457193 250.556019 
L 120.00277 244.031369 
L 117.548347 240.917009 
L 115.093923 246.399871 
L 112.6395 221.531636 
L 110.185076 241.93704 
L 107.730653 237.694482 
L 105.276229 227.353278 
L 102.821806 227.238318 
L 100.367383 229.398972 
L 97.912959 220.791251 
L 95.458536 203.545818 
L 93.004112 198.856903 
L 90.549689 196.477237 
L 88.095265 182.755413 
L 85.640842 170.904448 
L 83.186419 155.154662 
L 80.731995 144.419295 
L 78.277572 136.530983 
L 75.823148 116.613154 
L 73.368725 112.501635 
L 70.914301 92.242152 
L 68.459878 70.536116 
L 66.005455 53.374105 
z
" style="fill:#2ca02c;fill-opacity:0.25;"/>
   </g>
   <g id="matplotlib.axis_1">
    <g id="xtick_1">
     <g id="line2d_1">
      <defs>
       <path d="M 0 0 
L 0 3.5 
" id="mb57134ddc3" style="stroke:#000000;stroke-width:0.8;"/>
      </defs>
      <g>
       <use style="stroke:#000000;stroke-width:0.8;" x="66.005455" xlink:href="#mb57134ddc3" y="303.64"/>
      </g>
     </g>
     <g id="text_1">
      <!-- 0 -->
      <g transform="translate(62.824205 318.238437)scale(0.1 -0.1)">
       <defs>
        <path d="M 31.78125 66.40625 
Q 24.171875 66.40625 20.328125 58.90625 
Q 16.5 51.421875 16.5 36.375 
Q 16.5 21.390625 20.328125 13.890625 
Q 24.171875 6.390625 31.78125 6.390625 
Q 39.453125 6.390625 43.28125 13.890625 
Q 47.125 21.390625 47.125 36.375 
Q 47.125 51.421875 43.28125 58.90625 
Q 39.453125 66.40625 31.78125 66.40625 
z
M 31.78125 74.21875 
Q 44.046875 74.21875 50.515625 64.515625 
Q 56.984375 54.828125 56.984375 36.375 
Q 56.984375 17.96875 50.515625 8.265625 
Q 44.046875 -1.421875 31.78125 -1.421875 
Q 19.53125 -1.421875 13.0625 8.265625 
Q 6.59375 17.96875 6.59375 36.375 
Q 6.59375 54.828125 13.0625 64.515625 
Q 19.53125 74.21875 31.78125 74.21875 
z
" id="DejaVuSans-48"/>
       </defs>
       <use xlink:href="#DejaVuSans-48"/>
      </g>
     </g>
    </g>
    <g id="xtick_2">
     <g id="line2d_2">
      <g>
       <use style="stroke:#000000;stroke-width:0.8;" x="115.093923" xlink:href="#mb57134ddc3" y="303.64"/>
      </g>
     </g>
     <g id="text_2">
      <!-- 20 -->
      <g transform="translate(108.731423 318.238437)scale(0.1 -0.1)">
       <defs>
        <path d="M 19.1875 8.296875 
L 53.609375 8.296875 
L 53.609375 0 
L 7.328125 0 
L 7.328125 8.296875 
Q 12.9375 14.109375 22.625 23.890625 
Q 32.328125 33.6875 34.8125 36.53125 
Q 39.546875 41.84375 41.421875 45.53125 
Q 43.3125 49.21875 43.3125 52.78125 
Q 43.3125 58.59375 39.234375 62.25 
Q 35.15625 65.921875 28.609375 65.921875 
Q 23.96875 65.921875 18.8125 64.3125 
Q 13.671875 62.703125 7.8125 59.421875 
L 7.8125 69.390625 
Q 13.765625 71.78125 18.9375 73 
Q 24.125 74.21875 28.421875 74.21875 
Q 39.75 74.21875 46.484375 68.546875 
Q 53.21875 62.890625 53.21875 53.421875 
Q 53.21875 48.921875 51.53125 44.890625 
Q 49.859375 40.875 45.40625 35.40625 
Q 44.1875 33.984375 37.640625 27.21875 
Q 31.109375 20.453125 19.1875 8.296875 
z
" id="DejaVuSans-50"/>
       </defs>
       <use xlink:href="#DejaVuSans-50"/>
       <use x="63.623047" xlink:href="#DejaVuSans-48"/>
      </g>
     </g>
    </g>
    <g id="xtick_3">
     <g id="line2d_3">
      <g>
       <use style="stroke:#000000;stroke-width:0.8;" x="164.182392" xlink:href="#mb57134ddc3" y="303.64"/>
      </g>
     </g>
     <g id="text_3">
      <!-- 40 -->
      <g transform="translate(157.819892 318.238437)scale(0.1 -0.1)">
       <defs>
        <path d="M 37.796875 64.3125 
L 12.890625 25.390625 
L 37.796875 25.390625 
z
M 35.203125 72.90625 
L 47.609375 72.90625 
L 47.609375 25.390625 
L 58.015625 25.390625 
L 58.015625 17.1875 
L 47.609375 17.1875 
L 47.609375 0 
L 37.796875 0 
L 37.796875 17.1875 
L 4.890625 17.1875 
L 4.890625 26.703125 
z
" id="DejaVuSans-52"/>
       </defs>
       <use xlink:href="#DejaVuSans-52"/>
       <use x="63.623047" xlink:href="#DejaVuSans-48"/>
      </g>
     </g>
    </g>
    <g id="xtick_4">
     <g id="line2d_4">
      <g>
       <use style="stroke:#000000;stroke-width:0.8;" x="213.27086" xlink:href="#mb57134ddc3" y="303.64"/>
      </g>
     </g>
     <g id="text_4">
      <!-- 60 -->
      <g transform="translate(206.90836 318.238437)scale(0.1 -0.1)">
       <defs>
        <path d="M 33.015625 40.375 
Q 26.375 40.375 22.484375 35.828125 
Q 18.609375 31.296875 18.609375 23.390625 
Q 18.609375 15.53125 22.484375 10.953125 
Q 26.375 6.390625 33.015625 6.390625 
Q 39.65625 6.390625 43.53125 10.953125 
Q 47.40625 15.53125 47.40625 23.390625 
Q 47.40625 31.296875 43.53125 35.828125 
Q 39.65625 40.375 33.015625 40.375 
z
M 52.59375 71.296875 
L 52.59375 62.3125 
Q 48.875 64.0625 45.09375 64.984375 
Q 41.3125 65.921875 37.59375 65.921875 
Q 27.828125 65.921875 22.671875 59.328125 
Q 17.53125 52.734375 16.796875 39.40625 
Q 19.671875 43.65625 24.015625 45.921875 
Q 28.375 48.1875 33.59375 48.1875 
Q 44.578125 48.1875 50.953125 41.515625 
Q 57.328125 34.859375 57.328125 23.390625 
Q 57.328125 12.15625 50.6875 5.359375 
Q 44.046875 -1.421875 33.015625 -1.421875 
Q 20.359375 -1.421875 13.671875 8.265625 
Q 6.984375 17.96875 6.984375 36.375 
Q 6.984375 53.65625 15.1875 63.9375 
Q 23.390625 74.21875 37.203125 74.21875 
Q 40.921875 74.21875 44.703125 73.484375 
Q 48.484375 72.75 52.59375 71.296875 
z
" id="DejaVuSans-54"/>
       </defs>
       <use xlink:href="#DejaVuSans-54"/>
       <use x="63.623047" xlink:href="#DejaVuSans-48"/>
      </g>
     </g>
    </g>
    <g id="xtick_5">
     <g id="line2d_5">
      <g>
       <use style="stroke:#000000;stroke-width:0.8;" x="262.359329" xlink:href="#mb57134ddc3" y="303.64"/>
      </g>
     </g>
     <g id="text_5">
      <!-- 80 -->
      <g transform="translate(255.996829 318.238437)scale(0.1 -0.1)">
       <defs>
        <path d="M 31.78125 34.625 
Q 24.75 34.625 20.71875 30.859375 
Q 16.703125 27.09375 16.703125 20.515625 
Q 16.703125 13.921875 20.71875 10.15625 
Q 24.75 6.390625 31.78125 6.390625 
Q 38.8125 6.390625 42.859375 10.171875 
Q 46.921875 13.96875 46.921875 20.515625 
Q 46.921875 27.09375 42.890625 30.859375 
Q 38.875 34.625 31.78125 34.625 
z
M 21.921875 38.8125 
Q 15.578125 40.375 12.03125 44.71875 
Q 8.5 49.078125 8.5 55.328125 
Q 8.5 64.0625 14.71875 69.140625 
Q 20.953125 74.21875 31.78125 74.21875 
Q 42.671875 74.21875 48.875 69.140625 
Q 55.078125 64.0625 55.078125 55.328125 
Q 55.078125 49.078125 51.53125 44.71875 
Q 48 40.375 41.703125 38.8125 
Q 48.828125 37.15625 52.796875 32.3125 
Q 56.78125 27.484375 56.78125 20.515625 
Q 56.78125 9.90625 50.3125 4.234375 
Q 43.84375 -1.421875 31.78125 -1.421875 
Q 19.734375 -1.421875 13.25 4.234375 
Q 6.78125 9.90625 6.78125 20.515625 
Q 6.78125 27.484375 10.78125 32.3125 
Q 14.796875 37.15625 21.921875 38.8125 
z
M 18.3125 54.390625 
Q 18.3125 48.734375 21.84375 45.5625 
Q 25.390625 42.390625 31.78125 42.390625 
Q 38.140625 42.390625 41.71875 45.5625 
Q 45.3125 48.734375 45.3125 54.390625 
Q 45.3125 60.0625 41.71875 63.234375 
Q 38.140625 66.40625 31.78125 66.40625 
Q 25.390625 66.40625 21.84375 63.234375 
Q 18.3125 60.0625 18.3125 54.390625 
z
" id="DejaVuSans-56"/>
       </defs>
       <use xlink:href="#DejaVuSans-56"/>
       <use x="63.623047" xlink:href="#DejaVuSans-48"/>
      </g>
     </g>
    </g>
    <g id="xtick_6">
     <g id="line2d_6">
      <g>
       <use style="stroke:#000000;stroke-width:0.8;" x="311.447797" xlink:href="#mb57134ddc3" y="303.64"/>
      </g>
     </g>
     <g id="text_6">
      <!-- 100 -->
      <g transform="translate(301.904047 318.238437)scale(0.1 -0.1)">
       <defs>
        <path d="M 12.40625 8.296875 
L 28.515625 8.296875 
L 28.515625 63.921875 
L 10.984375 60.40625 
L 10.984375 69.390625 
L 28.421875 72.90625 
L 38.28125 72.90625 
L 38.28125 8.296875 
L 54.390625 8.296875 
L 54.390625 0 
L 12.40625 0 
z
" id="DejaVuSans-49"/>
       </defs>
       <use xlink:href="#DejaVuSans-49"/>
       <use x="63.623047" xlink:href="#DejaVuSans-48"/>
       <use x="127.246094" xlink:href="#DejaVuSans-48"/>
      </g>
     </g>
    </g>
    <g id="xtick_7">
     <g id="line2d_7">
      <g>
       <use style="stroke:#000000;stroke-width:0.8;" x="360.536266" xlink:href="#mb57134ddc3" y="303.64"/>
      </g>
     </g>
     <g id="text_7">
      <!-- 120 -->
      <g transform="translate(350.992516 318.238437)scale(0.1 -0.1)">
       <use xlink:href="#DejaVuSans-49"/>
       <use x="63.623047" xlink:href="#DejaVuSans-50"/>
       <use x="127.246094" xlink:href="#DejaVuSans-48"/>
      </g>
     </g>
    </g>
    <g id="xtick_8">
     <g id="line2d_8">
      <g>
       <use style="stroke:#000000;stroke-width:0.8;" x="409.624735" xlink:href="#mb57134ddc3" y="303.64"/>
      </g>
     </g>
     <g id="text_8">
      <!-- 140 -->
      <g transform="translate(400.080985 318.238437)scale(0.1 -0.1)">
       <use xlink:href="#DejaVuSans-49"/>
       <use x="63.623047" xlink:href="#DejaVuSans-52"/>
       <use x="127.246094" xlink:href="#DejaVuSans-48"/>
      </g>
     </g>
    </g>
    <g id="text_9">
     <!-- Epochs -->
     <g transform="translate(230.944375 331.916562)scale(0.1 -0.1)">
      <defs>
       <path d="M 9.8125 72.90625 
L 55.90625 72.90625 
L 55.90625 64.59375 
L 19.671875 64.59375 
L 19.671875 43.015625 
L 54.390625 43.015625 
L 54.390625 34.71875 
L 19.671875 34.71875 
L 19.671875 8.296875 
L 56.78125 8.296875 
L 56.78125 0 
L 9.8125 0 
z
" id="DejaVuSans-69"/>
       <path d="M 18.109375 8.203125 
L 18.109375 -20.796875 
L 9.078125 -20.796875 
L 9.078125 54.6875 
L 18.109375 54.6875 
L 18.109375 46.390625 
Q 20.953125 51.265625 25.265625 53.625 
Q 29.59375 56 35.59375 56 
Q 45.5625 56 51.78125 48.09375 
Q 58.015625 40.1875 58.015625 27.296875 
Q 58.015625 14.40625 51.78125 6.484375 
Q 45.5625 -1.421875 35.59375 -1.421875 
Q 29.59375 -1.421875 25.265625 0.953125 
Q 20.953125 3.328125 18.109375 8.203125 
z
M 48.6875 27.296875 
Q 48.6875 37.203125 44.609375 42.84375 
Q 40.53125 48.484375 33.40625 48.484375 
Q 26.265625 48.484375 22.1875 42.84375 
Q 18.109375 37.203125 18.109375 27.296875 
Q 18.109375 17.390625 22.1875 11.75 
Q 26.265625 6.109375 33.40625 6.109375 
Q 40.53125 6.109375 44.609375 11.75 
Q 48.6875 17.390625 48.6875 27.296875 
z
" id="DejaVuSans-112"/>
       <path d="M 30.609375 48.390625 
Q 23.390625 48.390625 19.1875 42.75 
Q 14.984375 37.109375 14.984375 27.296875 
Q 14.984375 17.484375 19.15625 11.84375 
Q 23.34375 6.203125 30.609375 6.203125 
Q 37.796875 6.203125 41.984375 11.859375 
Q 46.1875 17.53125 46.1875 27.296875 
Q 46.1875 37.015625 41.984375 42.703125 
Q 37.796875 48.390625 30.609375 48.390625 
z
M 30.609375 56 
Q 42.328125 56 49.015625 48.375 
Q 55.71875 40.765625 55.71875 27.296875 
Q 55.71875 13.875 49.015625 6.21875 
Q 42.328125 -1.421875 30.609375 -1.421875 
Q 18.84375 -1.421875 12.171875 6.21875 
Q 5.515625 13.875 5.515625 27.296875 
Q 5.515625 40.765625 12.171875 48.375 
Q 18.84375 56 30.609375 56 
z
" id="DejaVuSans-111"/>
       <path d="M 48.78125 52.59375 
L 48.78125 44.1875 
Q 44.96875 46.296875 41.140625 47.34375 
Q 37.3125 48.390625 33.40625 48.390625 
Q 24.65625 48.390625 19.8125 42.84375 
Q 14.984375 37.3125 14.984375 27.296875 
Q 14.984375 17.28125 19.8125 11.734375 
Q 24.65625 6.203125 33.40625 6.203125 
Q 37.3125 6.203125 41.140625 7.25 
Q 44.96875 8.296875 48.78125 10.40625 
L 48.78125 2.09375 
Q 45.015625 0.34375 40.984375 -0.53125 
Q 36.96875 -1.421875 32.421875 -1.421875 
Q 20.0625 -1.421875 12.78125 6.34375 
Q 5.515625 14.109375 5.515625 27.296875 
Q 5.515625 40.671875 12.859375 48.328125 
Q 20.21875 56 33.015625 56 
Q 37.15625 56 41.109375 55.140625 
Q 45.0625 54.296875 48.78125 52.59375 
z
" id="DejaVuSans-99"/>
       <path d="M 54.890625 33.015625 
L 54.890625 0 
L 45.90625 0 
L 45.90625 32.71875 
Q 45.90625 40.484375 42.875 44.328125 
Q 39.84375 48.1875 33.796875 48.1875 
Q 26.515625 48.1875 22.3125 43.546875 
Q 18.109375 38.921875 18.109375 30.90625 
L 18.109375 0 
L 9.078125 0 
L 9.078125 75.984375 
L 18.109375 75.984375 
L 18.109375 46.1875 
Q 21.34375 51.125 25.703125 53.5625 
Q 30.078125 56 35.796875 56 
Q 45.21875 56 50.046875 50.171875 
Q 54.890625 44.34375 54.890625 33.015625 
z
" id="DejaVuSans-104"/>
       <path d="M 44.28125 53.078125 
L 44.28125 44.578125 
Q 40.484375 46.53125 36.375 47.5 
Q 32.28125 48.484375 27.875 48.484375 
Q 21.1875 48.484375 17.84375 46.4375 
Q 14.5 44.390625 14.5 40.28125 
Q 14.5 37.15625 16.890625 35.375 
Q 19.28125 33.59375 26.515625 31.984375 
L 29.59375 31.296875 
Q 39.15625 29.25 43.1875 25.515625 
Q 47.21875 21.78125 47.21875 15.09375 
Q 47.21875 7.46875 41.1875 3.015625 
Q 35.15625 -1.421875 24.609375 -1.421875 
Q 20.21875 -1.421875 15.453125 -0.5625 
Q 10.6875 0.296875 5.421875 2 
L 5.421875 11.28125 
Q 10.40625 8.6875 15.234375 7.390625 
Q 20.0625 6.109375 24.8125 6.109375 
Q 31.15625 6.109375 34.5625 8.28125 
Q 37.984375 10.453125 37.984375 14.40625 
Q 37.984375 18.0625 35.515625 20.015625 
Q 33.0625 21.96875 24.703125 23.78125 
L 21.578125 24.515625 
Q 13.234375 26.265625 9.515625 29.90625 
Q 5.8125 33.546875 5.8125 39.890625 
Q 5.8125 47.609375 11.28125 51.796875 
Q 16.75 56 26.8125 56 
Q 31.78125 56 36.171875 55.265625 
Q 40.578125 54.546875 44.28125 53.078125 
z
" id="DejaVuSans-115"/>
      </defs>
      <use xlink:href="#DejaVuSans-69"/>
      <use x="63.183594" xlink:href="#DejaVuSans-112"/>
      <use x="126.660156" xlink:href="#DejaVuSans-111"/>
      <use x="187.841797" xlink:href="#DejaVuSans-99"/>
      <use x="242.822266" xlink:href="#DejaVuSans-104"/>
      <use x="306.201172" xlink:href="#DejaVuSans-115"/>
     </g>
    </g>
   </g>
   <g id="matplotlib.axis_2">
    <g id="ytick_1">
     <g id="line2d_9">
      <defs>
       <path d="M 0 0 
L -3.5 0 
" id="m82d26463ca" style="stroke:#000000;stroke-width:0.8;"/>
      </defs>
      <g>
       <use style="stroke:#000000;stroke-width:0.8;" x="47.72" xlink:href="#m82d26463ca" y="303.64"/>
      </g>
     </g>
     <g id="text_10">
      <!-- 0.0 -->
      <g transform="translate(24.816875 307.439219)scale(0.1 -0.1)">
       <defs>
        <path d="M 10.6875 12.40625 
L 21 12.40625 
L 21 0 
L 10.6875 0 
z
" id="DejaVuSans-46"/>
       </defs>
       <use xlink:href="#DejaVuSans-48"/>
       <use x="63.623047" xlink:href="#DejaVuSans-46"/>
       <use x="95.410156" xlink:href="#DejaVuSans-48"/>
      </g>
     </g>
    </g>
    <g id="ytick_2">
     <g id="line2d_10">
      <g>
       <use style="stroke:#000000;stroke-width:0.8;" x="47.72" xlink:href="#m82d26463ca" y="245.864"/>
      </g>
     </g>
     <g id="text_11">
      <!-- 0.5 -->
      <g transform="translate(24.816875 249.663219)scale(0.1 -0.1)">
       <defs>
        <path d="M 10.796875 72.90625 
L 49.515625 72.90625 
L 49.515625 64.59375 
L 19.828125 64.59375 
L 19.828125 46.734375 
Q 21.96875 47.46875 24.109375 47.828125 
Q 26.265625 48.1875 28.421875 48.1875 
Q 40.625 48.1875 47.75 41.5 
Q 54.890625 34.8125 54.890625 23.390625 
Q 54.890625 11.625 47.5625 5.09375 
Q 40.234375 -1.421875 26.90625 -1.421875 
Q 22.3125 -1.421875 17.546875 -0.640625 
Q 12.796875 0.140625 7.71875 1.703125 
L 7.71875 11.625 
Q 12.109375 9.234375 16.796875 8.0625 
Q 21.484375 6.890625 26.703125 6.890625 
Q 35.15625 6.890625 40.078125 11.328125 
Q 45.015625 15.765625 45.015625 23.390625 
Q 45.015625 31 40.078125 35.4375 
Q 35.15625 39.890625 26.703125 39.890625 
Q 22.75 39.890625 18.8125 39.015625 
Q 14.890625 38.140625 10.796875 36.28125 
z
" id="DejaVuSans-53"/>
       </defs>
       <use xlink:href="#DejaVuSans-48"/>
       <use x="63.623047" xlink:href="#DejaVuSans-46"/>
       <use x="95.410156" xlink:href="#DejaVuSans-53"/>
      </g>
     </g>
    </g>
    <g id="ytick_3">
     <g id="line2d_11">
      <g>
       <use style="stroke:#000000;stroke-width:0.8;" x="47.72" xlink:href="#m82d26463ca" y="188.088"/>
      </g>
     </g>
     <g id="text_12">
      <!-- 1.0 -->
      <g transform="translate(24.816875 191.887219)scale(0.1 -0.1)">
       <use xlink:href="#DejaVuSans-49"/>
       <use x="63.623047" xlink:href="#DejaVuSans-46"/>
       <use x="95.410156" xlink:href="#DejaVuSans-48"/>
      </g>
     </g>
    </g>
    <g id="ytick_4">
     <g id="line2d_12">
      <g>
       <use style="stroke:#000000;stroke-width:0.8;" x="47.72" xlink:href="#m82d26463ca" y="130.312"/>
      </g>
     </g>
     <g id="text_13">
      <!-- 1.5 -->
      <g transform="translate(24.816875 134.111219)scale(0.1 -0.1)">
       <use xlink:href="#DejaVuSans-49"/>
       <use x="63.623047" xlink:href="#DejaVuSans-46"/>
       <use x="95.410156" xlink:href="#DejaVuSans-53"/>
      </g>
     </g>
    </g>
    <g id="ytick_5">
     <g id="line2d_13">
      <g>
       <use style="stroke:#000000;stroke-width:0.8;" x="47.72" xlink:href="#m82d26463ca" y="72.536"/>
      </g>
     </g>
     <g id="text_14">
      <!-- 2.0 -->
      <g transform="translate(24.816875 76.335219)scale(0.1 -0.1)">
       <use xlink:href="#DejaVuSans-50"/>
       <use x="63.623047" xlink:href="#DejaVuSans-46"/>
       <use x="95.410156" xlink:href="#DejaVuSans-48"/>
      </g>
     </g>
    </g>
    <g id="ytick_6">
     <g id="line2d_14">
      <g>
       <use style="stroke:#000000;stroke-width:0.8;" x="47.72" xlink:href="#m82d26463ca" y="14.76"/>
      </g>
     </g>
     <g id="text_15">
      <!-- 2.5 -->
      <g transform="translate(24.816875 18.559219)scale(0.1 -0.1)">
       <use xlink:href="#DejaVuSans-50"/>
       <use x="63.623047" xlink:href="#DejaVuSans-46"/>
       <use x="95.410156" xlink:href="#DejaVuSans-53"/>
      </g>
     </g>
    </g>
    <g id="text_16">
     <!-- Loss -->
     <g transform="translate(18.737188 170.167187)rotate(-90)scale(0.1 -0.1)">
      <defs>
       <path d="M 9.8125 72.90625 
L 19.671875 72.90625 
L 19.671875 8.296875 
L 55.171875 8.296875 
L 55.171875 0 
L 9.8125 0 
z
" id="DejaVuSans-76"/>
      </defs>
      <use xlink:href="#DejaVuSans-76"/>
      <use x="53.962891" xlink:href="#DejaVuSans-111"/>
      <use x="115.144531" xlink:href="#DejaVuSans-115"/>
      <use x="167.244141" xlink:href="#DejaVuSans-115"/>
     </g>
    </g>
   </g>
   <g id="line2d_15">
    <path clip-path="url(#p04e6da1651)" d="M 66.005455 56.46705 
L 68.459878 48.567987 
L 70.914301 87.88275 
L 73.368725 104.719037 
L 75.823148 115.055525 
L 78.277572 127.265219 
L 80.731995 140.490506 
L 83.186419 141.596375 
L 85.640842 160.621831 
L 88.095265 156.582025 
L 90.549689 179.579581 
L 93.004112 185.458741 
L 95.458536 193.053125 
L 97.912959 220.812687 
L 100.367383 211.209684 
L 102.821806 214.854537 
L 105.276229 226.883681 
L 107.730653 228.192669 
L 110.185076 225.134603 
L 112.6395 229.896609 
L 115.093923 215.238206 
L 117.548347 228.71175 
L 120.00277 245.627028 
L 122.457193 236.678519 
L 124.911617 256.358469 
L 127.36604 255.184894 
L 129.820464 253.853337 
L 132.274887 243.229098 
L 134.729311 256.883192 
L 137.183734 237.976222 
L 139.638157 250.795272 
L 142.092581 250.157705 
L 144.547004 256.697 
L 147.001428 260.420844 
L 149.455851 257.611034 
L 151.910275 240.707041 
L 154.364698 249.198533 
L 156.819121 253.26655 
L 159.273545 253.046505 
L 161.727968 266.610323 
L 164.182392 250.338255 
L 166.636815 244.250334 
L 169.091239 263.405561 
L 171.545662 261.995014 
L 174.000085 260.003322 
L 176.454509 256.200488 
L 178.908932 262.937259 
L 181.363356 272.777234 
L 183.817779 251.985773 
L 186.272203 274.633514 
L 188.726626 267.050414 
L 191.181049 262.897764 
L 193.635473 250.5583 
L 196.089896 267.157616 
L 198.54432 272.619253 
L 200.998743 271.160748 
L 203.453167 276.185116 
L 205.90759 270.068984 
L 208.362013 275.942502 
L 210.816437 271.366688 
L 213.27086 275.764773 
L 215.725284 274.489638 
L 218.179707 267.135047 
L 220.634131 275.697066 
L 223.088554 274.62223 
L 225.542977 269.558366 
L 227.997401 272.66157 
L 230.451824 262.790562 
L 232.906248 278.690247 
L 235.360671 283.099616 
L 237.815095 272.650285 
L 240.269518 269.059033 
L 245.178365 275.73092 
L 247.632788 283.756931 
L 250.087212 279.226255 
L 252.541635 273.180651 
L 254.996059 272.09453 
L 257.450482 276.258464 
L 259.904905 283.132059 
L 262.359329 278.896187 
L 264.813752 289.251011 
L 267.268176 281.398497 
L 269.722599 275.273902 
L 272.177023 288.487905 
L 274.631446 282.916245 
L 277.085869 282.557966 
L 279.540293 291.740627 
L 281.994716 282.769548 
L 284.44914 283.339409 
L 286.903563 269.92793 
L 289.357987 283.613055 
L 291.81241 290.187614 
L 294.266833 283.8063 
L 296.721257 288.880037 
L 299.17568 287.335489 
L 301.630104 286.422865 
L 304.084527 288.284787 
L 306.538951 289.526068 
L 308.993374 287.576692 
L 311.447797 290.496524 
L 313.902221 295.843907 
L 316.356644 290.029633 
L 318.811068 293.349355 
L 321.265491 295.150624 
L 323.719915 296.633108 
L 326.174338 298.357149 
L 328.628761 294.032765 
L 331.083185 293.27107 
L 333.537608 292.684282 
L 335.992032 299.597373 
L 338.446455 296.427169 
L 340.900879 301.127463 
L 343.355302 299.076176 
L 345.809725 298.498557 
L 348.264149 297.799631 
L 350.718572 299.839987 
L 353.172996 297.501653 
L 355.627419 302.425695 
L 358.081843 301.648131 
L 360.536266 301.988779 
L 362.990689 302.64292 
L 365.445113 302.471406 
L 367.899536 301.270105 
L 370.35396 303.066436 
L 372.808383 302.789793 
L 375.262807 303.00878 
L 377.71723 302.879054 
L 380.171653 302.351906 
L 382.626077 303.103331 
L 385.0805 303.256816 
L 387.534924 303.167864 
L 389.989347 303.340567 
L 394.898194 303.29975 
L 402.261464 303.404152 
L 404.715888 303.338099 
L 407.170311 303.392868 
L 409.624735 303.335168 
L 412.079158 303.451956 
L 421.896852 303.438711 
L 424.351275 303.331267 
L 426.805699 303.478823 
L 431.714545 303.433201 
L 431.714545 303.433201 
" style="fill:none;stroke:#1f77b4;stroke-linecap:square;stroke-width:1.5;"/>
   </g>
   <g id="line2d_16">
    <path clip-path="url(#p04e6da1651)" d="M 66.005455 45.950012 
L 68.459878 67.728856 
L 70.914301 85.129362 
L 73.368725 98.760887 
L 75.823148 99.099419 
L 78.277572 118.711662 
L 80.731995 124.737519 
L 83.186419 147.689937 
L 85.640842 157.868444 
L 88.095265 162.314487 
L 90.549689 179.669856 
L 93.004112 180.459763 
L 95.458536 185.842409 
L 97.912959 198.977422 
L 100.367383 197.578159 
L 102.821806 214.335456 
L 105.276229 205.928597 
L 107.730653 219.548837 
L 110.185076 227.98955 
L 112.6395 229.693491 
L 115.093923 235.166412 
L 117.548347 224.175431 
L 120.00277 235.956319 
L 122.457193 230.855781 
L 124.911617 240.831169 
L 127.36604 239.962272 
L 129.820464 242.151441 
L 132.274887 248.893855 
L 134.729311 244.814553 
L 137.183734 248.848717 
L 139.638157 247.545372 
L 142.092581 235.279256 
L 144.547004 254.174942 
L 147.001428 252.392011 
L 149.455851 258.01163 
L 151.910275 260.528045 
L 154.364698 253.729209 
L 156.819121 256.697 
L 159.273545 253.441458 
L 161.727968 259.382681 
L 164.182392 263.185516 
L 166.636815 260.082313 
L 169.091239 260.042817 
L 171.545662 261.7524 
L 174.000085 262.660792 
L 176.454509 264.494503 
L 178.908932 265.256198 
L 181.363356 261.650841 
L 183.817779 268.937726 
L 186.272203 260.200798 
L 188.726626 268.607658 
L 191.181049 262.88648 
L 193.635473 261.537997 
L 196.089896 255.630627 
L 198.54432 264.556567 
L 200.998743 272.45563 
L 203.453167 264.968447 
L 205.90759 271.34694 
L 208.362013 259.027223 
L 210.816437 271.564164 
L 213.27086 267.005277 
L 215.725284 279.542217 
L 218.179707 274.348584 
L 220.634131 268.810777 
L 223.088554 273.141155 
L 225.542977 267.473578 
L 227.997401 272.500767 
L 230.451824 280.145931 
L 232.906248 269.507587 
L 235.360671 275.55037 
L 237.815095 280.377261 
L 240.269518 278.831302 
L 242.723941 277.53642 
L 245.178365 280.066941 
L 247.632788 281.009186 
L 250.087212 271.784209 
L 252.541635 274.746358 
L 254.996059 277.257131 
L 257.450482 277.492693 
L 259.904905 277.917267 
L 262.359329 282.41127 
L 264.813752 272.184805 
L 267.268176 282.972667 
L 269.722599 276.303602 
L 272.177023 282.115055 
L 274.631446 285.915068 
L 277.085869 280.81453 
L 279.540293 281.63829 
L 281.994716 284.06443 
L 284.44914 286.947588 
L 286.903563 285.034887 
L 289.357987 282.930351 
L 291.81241 284.524269 
L 294.266833 286.372085 
L 296.721257 278.958251 
L 299.17568 289.667123 
L 301.630104 289.132525 
L 304.084527 290.373807 
L 306.538951 288.633192 
L 308.993374 292.015683 
L 311.447797 290.881604 
L 313.902221 291.115754 
L 316.356644 290.502166 
L 318.811068 293.495347 
L 321.265491 291.837954 
L 323.719915 288.133858 
L 326.174338 291.005732 
L 328.628761 292.524891 
L 331.083185 297.353193 
L 333.537608 293.868437 
L 335.992032 291.602393 
L 338.446455 296.530844 
L 340.900879 299.564577 
L 343.355302 299.061717 
L 345.809725 298.714723 
L 348.264149 298.607169 
L 350.718572 298.026729 
L 353.172996 300.159299 
L 355.627419 301.057818 
L 358.081843 300.657399 
L 360.536266 300.133028 
L 362.990689 302.000416 
L 365.445113 301.112653 
L 367.899536 302.262954 
L 370.35396 301.887484 
L 372.808383 300.55531 
L 375.262807 302.050049 
L 377.71723 302.486084 
L 380.171653 301.699043 
L 382.626077 302.913216 
L 385.0805 303.212472 
L 387.534924 302.599986 
L 389.989347 303.222654 
L 392.443771 303.197551 
L 394.898194 302.514868 
L 397.352617 303.166762 
L 399.807041 302.830919 
L 402.261464 303.320776 
L 407.170311 303.405629 
L 409.624735 303.297413 
L 412.079158 303.306626 
L 414.533581 303.429079 
L 416.988005 303.077126 
L 419.442428 302.376767 
L 421.896852 303.382112 
L 424.351275 303.297413 
L 426.805699 303.395336 
L 431.714545 303.339091 
L 431.714545 303.339091 
" style="fill:none;stroke:#ff7f0e;stroke-linecap:square;stroke-width:1.5;"/>
   </g>
   <g id="line2d_17">
    <path clip-path="url(#p04e6da1651)" d="M 66.005455 65.043175 
L 68.459878 80.29965 
L 70.914301 98.828594 
L 73.368725 119.817531 
L 75.823148 125.865956 
L 78.277572 143.6727 
L 80.731995 155.295606 
L 83.186419 163.397787 
L 85.640842 182.107281 
L 88.095265 191.225056 
L 90.549689 209.629872 
L 93.004112 207.429419 
L 95.458536 212.044728 
L 97.912959 230.816286 
L 100.367383 236.306134 
L 102.821806 236.520537 
L 105.276229 233.755866 
L 107.730653 242.394055 
L 110.185076 249.469358 
L 112.6395 227.289919 
L 115.093923 250.231053 
L 117.548347 245.136158 
L 120.00277 247.156061 
L 122.457193 257.814153 
L 124.911617 262.70593 
L 127.36604 256.922687 
L 129.820464 253.277834 
L 132.274887 251.827792 
L 137.183734 249.649908 
L 139.638157 255.207462 
L 142.092581 263.732808 
L 144.547004 264.686337 
L 147.001428 261.853959 
L 149.455851 267.930595 
L 151.910275 262.892122 
L 154.364698 273.74487 
L 156.819121 259.879194 
L 159.273545 272.181984 
L 161.727968 273.46276 
L 164.182392 271.614944 
L 166.636815 272.007076 
L 169.091239 270.181828 
L 171.545662 274.67583 
L 174.000085 266.0856 
L 176.454509 272.362534 
L 178.908932 272.678496 
L 181.363356 280.21928 
L 183.817779 273.598173 
L 186.272203 274.712505 
L 188.726626 277.742359 
L 191.181049 279.282677 
L 193.635473 274.405005 
L 196.089896 273.084734 
L 198.54432 281.38157 
L 200.998743 275.65475 
L 203.453167 282.067096 
L 205.90759 275.668855 
L 208.362013 278.583045 
L 210.816437 274.808422 
L 213.27086 279.372952 
L 215.725284 277.866488 
L 218.179707 283.80489 
L 220.634131 277.33048 
L 223.088554 282.504366 
L 225.542977 278.735384 
L 227.997401 283.026268 
L 230.451824 279.519648 
L 232.906248 273.17783 
L 235.360671 276.743692 
L 237.815095 279.384236 
L 240.269518 291.124218 
L 242.723941 282.617209 
L 245.178365 282.583356 
L 247.632788 280.391366 
L 250.087212 287.747368 
L 252.541635 286.489161 
L 254.996059 289.878705 
L 257.450482 290.963415 
L 259.904905 291.80128 
L 262.359329 291.218724 
L 264.813752 291.922587 
L 267.268176 279.384236 
L 269.722599 286.985673 
L 272.177023 290.012707 
L 274.631446 291.307589 
L 277.085869 287.565408 
L 279.540293 292.612345 
L 281.994716 288.195922 
L 284.44914 294.258453 
L 286.903563 292.239255 
L 289.357987 291.269504 
L 291.81241 292.919844 
L 294.266833 293.737961 
L 296.721257 285.875573 
L 299.17568 291.158071 
L 301.630104 293.069362 
L 304.084527 293.753477 
L 306.538951 296.265308 
L 308.993374 297.762251 
L 311.447797 296.639456 
L 313.902221 295.922193 
L 316.356644 295.587188 
L 318.811068 294.543736 
L 321.265491 297.918822 
L 323.719915 293.828236 
L 326.174338 296.718446 
L 328.628761 300.190508 
L 331.083185 298.617395 
L 333.537608 299.181967 
L 335.992032 298.062345 
L 338.446455 297.235765 
L 340.900879 299.508508 
L 343.355302 298.018265 
L 345.809725 297.040933 
L 348.264149 301.152853 
L 350.718572 299.86185 
L 353.172996 301.096784 
L 355.627419 302.583589 
L 358.081843 300.645056 
L 360.536266 302.504466 
L 362.990689 302.584382 
L 365.445113 302.489038 
L 367.899536 300.804536 
L 370.35396 303.056827 
L 372.808383 302.367202 
L 375.262807 303.37323 
L 377.71723 302.351994 
L 380.171653 303.119817 
L 382.626077 303.265852 
L 385.0805 303.153802 
L 387.534924 303.391413 
L 389.989347 303.226489 
L 394.898194 303.375412 
L 397.352617 303.406092 
L 399.807041 302.92115 
L 402.261464 302.864155 
L 404.715888 303.332809 
L 407.170311 303.433708 
L 409.624735 303.35432 
L 412.079158 302.565075 
L 414.533581 303.434479 
L 419.442428 303.155918 
L 421.896852 303.370652 
L 424.351275 303.095044 
L 426.805699 303.411117 
L 429.260122 303.30332 
L 431.714545 303.371137 
L 431.714545 303.371137 
" style="fill:none;stroke:#2ca02c;stroke-linecap:square;stroke-width:1.5;"/>
   </g>
   <g id="patch_3">
    <path d="M 47.72 303.64 
L 47.72 14.76 
" style="fill:none;stroke:#000000;stroke-linecap:square;stroke-linejoin:miter;stroke-width:0.8;"/>
   </g>
   <g id="patch_4">
    <path d="M 450 303.64 
L 450 14.76 
" style="fill:none;stroke:#000000;stroke-linecap:square;stroke-linejoin:miter;stroke-width:0.8;"/>
   </g>
   <g id="patch_5">
    <path d="M 47.72 303.64 
L 450 303.64 
" style="fill:none;stroke:#000000;stroke-linecap:square;stroke-linejoin:miter;stroke-width:0.8;"/>
   </g>
   <g id="patch_6">
    <path d="M 47.72 14.76 
L 450 14.76 
" style="fill:none;stroke:#000000;stroke-linecap:square;stroke-linejoin:miter;stroke-width:0.8;"/>
   </g>
   <g id="legend_1">
    <g id="patch_7">
     <path d="M 361.492188 66.794375 
L 443 66.794375 
Q 445 66.794375 445 64.794375 
L 445 21.76 
Q 445 19.76 443 19.76 
L 361.492188 19.76 
Q 359.492188 19.76 359.492188 21.76 
L 359.492188 64.794375 
Q 359.492188 66.794375 361.492188 66.794375 
z
" style="fill:#ffffff;opacity:0.8;stroke:#cccccc;stroke-linejoin:miter;"/>
    </g>
    <g id="line2d_18">
     <path d="M 363.492188 27.858437 
L 383.492188 27.858437 
" style="fill:none;stroke:#1f77b4;stroke-linecap:square;stroke-width:1.5;"/>
    </g>
    <g id="line2d_19"/>
    <g id="text_17">
     <!-- Sync-SGD -->
     <g transform="translate(391.492188 31.358437)scale(0.1 -0.1)">
      <defs>
       <path d="M 53.515625 70.515625 
L 53.515625 60.890625 
Q 47.90625 63.578125 42.921875 64.890625 
Q 37.9375 66.21875 33.296875 66.21875 
Q 25.25 66.21875 20.875 63.09375 
Q 16.5 59.96875 16.5 54.203125 
Q 16.5 49.359375 19.40625 46.890625 
Q 22.3125 44.4375 30.421875 42.921875 
L 36.375 41.703125 
Q 47.40625 39.59375 52.65625 34.296875 
Q 57.90625 29 57.90625 20.125 
Q 57.90625 9.515625 50.796875 4.046875 
Q 43.703125 -1.421875 29.984375 -1.421875 
Q 24.8125 -1.421875 18.96875 -0.25 
Q 13.140625 0.921875 6.890625 3.21875 
L 6.890625 13.375 
Q 12.890625 10.015625 18.65625 8.296875 
Q 24.421875 6.59375 29.984375 6.59375 
Q 38.421875 6.59375 43.015625 9.90625 
Q 47.609375 13.234375 47.609375 19.390625 
Q 47.609375 24.75 44.3125 27.78125 
Q 41.015625 30.8125 33.5 32.328125 
L 27.484375 33.5 
Q 16.453125 35.6875 11.515625 40.375 
Q 6.59375 45.0625 6.59375 53.421875 
Q 6.59375 63.09375 13.40625 68.65625 
Q 20.21875 74.21875 32.171875 74.21875 
Q 37.3125 74.21875 42.625 73.28125 
Q 47.953125 72.359375 53.515625 70.515625 
z
" id="DejaVuSans-83"/>
       <path d="M 32.171875 -5.078125 
Q 28.375 -14.84375 24.75 -17.8125 
Q 21.140625 -20.796875 15.09375 -20.796875 
L 7.90625 -20.796875 
L 7.90625 -13.28125 
L 13.1875 -13.28125 
Q 16.890625 -13.28125 18.9375 -11.515625 
Q 21 -9.765625 23.484375 -3.21875 
L 25.09375 0.875 
L 2.984375 54.6875 
L 12.5 54.6875 
L 29.59375 11.921875 
L 46.6875 54.6875 
L 56.203125 54.6875 
z
" id="DejaVuSans-121"/>
       <path d="M 54.890625 33.015625 
L 54.890625 0 
L 45.90625 0 
L 45.90625 32.71875 
Q 45.90625 40.484375 42.875 44.328125 
Q 39.84375 48.1875 33.796875 48.1875 
Q 26.515625 48.1875 22.3125 43.546875 
Q 18.109375 38.921875 18.109375 30.90625 
L 18.109375 0 
L 9.078125 0 
L 9.078125 54.6875 
L 18.109375 54.6875 
L 18.109375 46.1875 
Q 21.34375 51.125 25.703125 53.5625 
Q 30.078125 56 35.796875 56 
Q 45.21875 56 50.046875 50.171875 
Q 54.890625 44.34375 54.890625 33.015625 
z
" id="DejaVuSans-110"/>
       <path d="M 4.890625 31.390625 
L 31.203125 31.390625 
L 31.203125 23.390625 
L 4.890625 23.390625 
z
" id="DejaVuSans-45"/>
       <path d="M 59.515625 10.40625 
L 59.515625 29.984375 
L 43.40625 29.984375 
L 43.40625 38.09375 
L 69.28125 38.09375 
L 69.28125 6.78125 
Q 63.578125 2.734375 56.6875 0.65625 
Q 49.8125 -1.421875 42 -1.421875 
Q 24.90625 -1.421875 15.25 8.5625 
Q 5.609375 18.5625 5.609375 36.375 
Q 5.609375 54.25 15.25 64.234375 
Q 24.90625 74.21875 42 74.21875 
Q 49.125 74.21875 55.546875 72.453125 
Q 61.96875 70.703125 67.390625 67.28125 
L 67.390625 56.78125 
Q 61.921875 61.421875 55.765625 63.765625 
Q 49.609375 66.109375 42.828125 66.109375 
Q 29.4375 66.109375 22.71875 58.640625 
Q 16.015625 51.171875 16.015625 36.375 
Q 16.015625 21.625 22.71875 14.15625 
Q 29.4375 6.6875 42.828125 6.6875 
Q 48.046875 6.6875 52.140625 7.59375 
Q 56.25 8.5 59.515625 10.40625 
z
" id="DejaVuSans-71"/>
       <path d="M 19.671875 64.796875 
L 19.671875 8.109375 
L 31.59375 8.109375 
Q 46.6875 8.109375 53.6875 14.9375 
Q 60.6875 21.78125 60.6875 36.53125 
Q 60.6875 51.171875 53.6875 57.984375 
Q 46.6875 64.796875 31.59375 64.796875 
z
M 9.8125 72.90625 
L 30.078125 72.90625 
Q 51.265625 72.90625 61.171875 64.09375 
Q 71.09375 55.28125 71.09375 36.53125 
Q 71.09375 17.671875 61.125 8.828125 
Q 51.171875 0 30.078125 0 
L 9.8125 0 
z
" id="DejaVuSans-68"/>
      </defs>
      <use xlink:href="#DejaVuSans-83"/>
      <use x="63.476562" xlink:href="#DejaVuSans-121"/>
      <use x="122.65625" xlink:href="#DejaVuSans-110"/>
      <use x="186.035156" xlink:href="#DejaVuSans-99"/>
      <use x="241.015625" xlink:href="#DejaVuSans-45"/>
      <use x="277.099609" xlink:href="#DejaVuSans-83"/>
      <use x="340.576172" xlink:href="#DejaVuSans-71"/>
      <use x="418.066406" xlink:href="#DejaVuSans-68"/>
     </g>
    </g>
    <g id="line2d_20">
     <path d="M 363.492188 42.536563 
L 383.492188 42.536563 
" style="fill:none;stroke:#ff7f0e;stroke-linecap:square;stroke-width:1.5;"/>
    </g>
    <g id="line2d_21"/>
    <g id="text_18">
     <!-- DP-SGD -->
     <g transform="translate(391.492188 46.036563)scale(0.1 -0.1)">
      <defs>
       <path d="M 19.671875 64.796875 
L 19.671875 37.40625 
L 32.078125 37.40625 
Q 38.96875 37.40625 42.71875 40.96875 
Q 46.484375 44.53125 46.484375 51.125 
Q 46.484375 57.671875 42.71875 61.234375 
Q 38.96875 64.796875 32.078125 64.796875 
z
M 9.8125 72.90625 
L 32.078125 72.90625 
Q 44.34375 72.90625 50.609375 67.359375 
Q 56.890625 61.8125 56.890625 51.125 
Q 56.890625 40.328125 50.609375 34.8125 
Q 44.34375 29.296875 32.078125 29.296875 
L 19.671875 29.296875 
L 19.671875 0 
L 9.8125 0 
z
" id="DejaVuSans-80"/>
      </defs>
      <use xlink:href="#DejaVuSans-68"/>
      <use x="77.001953" xlink:href="#DejaVuSans-80"/>
      <use x="135.054688" xlink:href="#DejaVuSans-45"/>
      <use x="171.138672" xlink:href="#DejaVuSans-83"/>
      <use x="234.615234" xlink:href="#DejaVuSans-71"/>
      <use x="312.105469" xlink:href="#DejaVuSans-68"/>
     </g>
    </g>
    <g id="line2d_22">
     <path d="M 363.492188 57.214687 
L 383.492188 57.214687 
" style="fill:none;stroke:#2ca02c;stroke-linecap:square;stroke-width:1.5;"/>
    </g>
    <g id="line2d_23"/>
    <g id="text_19">
     <!-- EDP-SGD -->
     <g transform="translate(391.492188 60.714687)scale(0.1 -0.1)">
      <use xlink:href="#DejaVuSans-69"/>
      <use x="63.183594" xlink:href="#DejaVuSans-68"/>
      <use x="140.185547" xlink:href="#DejaVuSans-80"/>
      <use x="198.238281" xlink:href="#DejaVuSans-45"/>
      <use x="234.322266" xlink:href="#DejaVuSans-83"/>
      <use x="297.798828" xlink:href="#DejaVuSans-71"/>
      <use x="375.289062" xlink:href="#DejaVuSans-68"/>
     </g>
    </g>
   </g>
  </g>
 </g>
 <defs>
  <clipPath id="p04e6da1651">
   <rect height="288.88" width="402.28" x="47.72" y="14.76"/>
  </clipPath>
 </defs>
</svg>
