<?xml version="1.0" encoding="utf-8" standalone="no"?>
<!DOCTYPE svg PUBLIC "-//W3C//DTD SVG 1.1//EN"
  "http://www.w3.org/Graphics/SVG/1.1/DTD/svg11.dtd">
<!-- Created with matplotlib (https://matplotlib.org/) -->
<svg height="345.6pt" version="1.1" viewBox="0 0 460.8 345.6" width="460.8pt" xmlns="http://www.w3.org/2000/svg" xmlns:xlink="http://www.w3.org/1999/xlink">
 <metadata>
  <rdf:RDF xmlns:cc="http://creativecommons.org/ns#" xmlns:dc="http://purl.org/dc/elements/1.1/" xmlns:rdf="http://www.w3.org/1999/02/22-rdf-syntax-ns#">
   <cc:Work>
    <dc:type rdf:resource="http://purl.org/dc/dcmitype/StillImage"/>
    <dc:date>2021-06-24T12:04:29.524699</dc:date>
    <dc:format>image/svg+xml</dc:format>
    <dc:creator>
     <cc:Agent>
      <dc:title>Matplotlib v3.3.1, https://matplotlib.org/</dc:title>
     </cc:Agent>
    </dc:creator>
   </cc:Work>
  </rdf:RDF>
 </metadata>
 <defs>
  <style type="text/css">*{stroke-linecap:butt;stroke-linejoin:round;}</style>
 </defs>
 <g id="figure_1">
  <g id="patch_1">
   <path d="M 0 345.6 
L 460.8 345.6 
L 460.8 0 
L 0 0 
z
" style="fill:#ffffff;"/>
  </g>
  <g id="axes_1">
   <g id="patch_2">
    <path d="M 47.72 303.64 
L 450 303.64 
L 450 14.76 
L 47.72 14.76 
z
" style="fill:#ffffff;"/>
   </g>
   <g id="PolyCollection_1">
    <path clip-path="url(#pb755532a49)" d="M 66.062342 42.819094 
L 66.062342 70.115006 
L 68.519464 52.752407 
L 70.979306 94.87979 
L 73.432188 110.084233 
L 75.895367 120.627493 
L 78.347968 135.8544 
L 80.803411 151.04086 
L 83.25766 151.865528 
L 85.698799 169.967747 
L 88.154924 162.46178 
L 90.603696 186.771049 
L 93.051473 193.783795 
L 95.510116 199.675525 
L 97.953778 226.433847 
L 100.406923 218.138732 
L 102.876508 217.814961 
L 105.337417 231.532597 
L 107.796138 231.082747 
L 110.257753 229.23094 
L 112.69925 234.966171 
L 115.159804 217.890731 
L 117.6179 231.175003 
L 120.076992 251.817786 
L 122.534365 239.254324 
L 124.998243 257.90889 
L 127.447348 258.201518 
L 129.893314 258.294904 
L 132.345612 248.24194 
L 134.790438 258.778379 
L 137.245112 243.256465 
L 139.700417 255.372592 
L 142.148108 254.656068 
L 144.60429 260.255248 
L 147.061285 262.730077 
L 149.517372 261.862961 
L 151.977566 243.239019 
L 154.434654 251.767086 
L 156.905132 257.271692 
L 159.376198 256.179245 
L 161.837259 269.577953 
L 164.30293 255.465963 
L 166.76176 248.265828 
L 169.226531 268.23642 
L 171.691001 264.018224 
L 174.157548 264.330972 
L 176.6293 260.895032 
L 179.097967 266.04238 
L 181.561547 277.031543 
L 184.021013 256.447099 
L 186.490522 279.156781 
L 188.951767 269.623524 
L 191.412268 266.12825 
L 193.879852 252.80872 
L 196.351547 271.484714 
L 198.814532 277.620873 
L 201.276415 274.18808 
L 203.737793 278.768575 
L 206.205415 272.942016 
L 208.674245 277.128388 
L 211.136799 273.169099 
L 213.598693 277.470949 
L 216.069359 276.245021 
L 218.530288 271.63152 
L 220.993902 279.554122 
L 223.452641 277.191833 
L 225.918185 273.193687 
L 228.383899 275.421118 
L 230.854808 266.944684 
L 233.322894 281.702633 
L 235.785036 286.170807 
L 238.25403 276.167229 
L 240.718145 271.639086 
L 243.182972 274.973536 
L 245.644356 279.26694 
L 248.106896 287.236869 
L 250.578236 281.689465 
L 253.038255 276.449647 
L 255.504249 276.89173 
L 257.965138 278.997765 
L 260.434239 286.270063 
L 262.899985 282.233714 
L 265.36525 291.323433 
L 267.832123 283.812262 
L 270.307417 279.453446 
L 272.76477 291.420631 
L 275.222171 286.036296 
L 277.67364 285.718619 
L 280.127372 292.683959 
L 282.589277 285.883601 
L 285.044497 288.004362 
L 287.496949 277.312603 
L 289.958225 286.7177 
L 292.405436 291.043278 
L 294.868325 286.83045 
L 297.323559 292.818964 
L 299.781096 289.530901 
L 302.226274 287.809759 
L 304.690745 290.480711 
L 307.152732 293.454056 
L 309.598485 289.269076 
L 312.057687 293.451412 
L 314.503012 297.655335 
L 316.961233 292.644044 
L 319.418484 296.300416 
L 321.869482 296.491051 
L 324.327866 298.901784 
L 326.793446 299.987022 
L 329.247745 297.134219 
L 331.707913 295.193503 
L 334.171574 293.658291 
L 336.632084 300.687692 
L 339.089365 297.74376 
L 341.55399 301.975843 
L 344.01109 300.073626 
L 346.454783 301.831274 
L 348.911349 299.784416 
L 351.369548 302.169703 
L 353.820044 300.052219 
L 356.274522 302.884207 
L 358.721897 302.20058 
L 361.183765 302.612556 
L 363.630134 303.327874 
L 366.086997 303.432867 
L 368.538336 302.267893 
L 370.990779 303.425766 
L 373.447853 302.944397 
L 375.90828 303.485428 
L 378.355324 303.263441 
L 380.806208 302.772727 
L 383.228805 303.492084 
L 385.657353 303.390368 
L 388.081012 303.32287 
L 390.504507 303.427561 
L 392.928843 303.417774 
L 395.353788 303.38137 
L 397.774589 303.427666 
L 400.202042 303.548678 
L 402.621897 303.487117 
L 405.041663 303.423993 
L 407.466774 303.474538 
L 409.891345 303.520832 
L 412.319161 303.498395 
L 414.748874 303.489381 
L 417.170135 303.613562 
L 419.595584 303.522819 
L 422.022646 303.472462 
L 424.444566 303.399452 
L 426.864517 303.515503 
L 429.291243 303.550136 
L 431.714545 303.520169 
L 431.714545 303.346233 
L 431.714545 303.346233 
L 429.291243 303.457276 
L 426.864517 303.442142 
L 424.444566 303.263081 
L 422.022646 303.404959 
L 419.595584 303.399784 
L 417.170135 303.334541 
L 414.748874 303.416119 
L 412.319161 303.405518 
L 409.891345 303.149503 
L 407.466774 303.311197 
L 405.041663 303.252205 
L 402.621897 303.321187 
L 400.202042 303.159478 
L 397.774589 303.30513 
L 395.353788 303.21813 
L 392.928843 303.115121 
L 390.504507 303.253573 
L 388.081012 303.012857 
L 385.657353 303.123265 
L 383.228805 302.714578 
L 380.806208 301.931085 
L 378.355324 302.494667 
L 375.90828 302.532133 
L 373.447853 302.635189 
L 370.990779 302.707106 
L 368.538336 300.272317 
L 366.086997 301.509945 
L 363.630134 301.957966 
L 361.183765 301.365001 
L 358.721897 301.095683 
L 356.274522 301.967183 
L 353.820044 294.951086 
L 351.369548 297.51027 
L 348.911349 295.814845 
L 346.454783 295.165839 
L 344.01109 298.078725 
L 341.55399 300.279084 
L 339.089365 295.110577 
L 336.632084 298.507054 
L 334.171574 291.710274 
L 331.707913 291.348637 
L 329.247745 290.931312 
L 326.793446 296.727276 
L 324.327866 294.364433 
L 321.869482 293.810197 
L 319.418484 290.398295 
L 316.961233 287.415222 
L 314.503012 294.03248 
L 312.057687 287.541637 
L 309.598485 285.884309 
L 307.152732 285.59808 
L 304.690745 286.088862 
L 302.226274 285.035971 
L 299.781096 285.140076 
L 297.323559 284.941111 
L 294.868325 280.782151 
L 292.405436 289.331951 
L 289.958225 280.508411 
L 287.496949 262.543257 
L 285.044497 278.674456 
L 282.589277 279.655495 
L 280.127372 290.797294 
L 277.67364 279.397314 
L 275.222171 279.796195 
L 272.76477 285.55518 
L 270.307417 271.094359 
L 267.832123 278.984732 
L 265.36525 287.17859 
L 262.899985 275.55866 
L 260.434239 279.994055 
L 257.965138 273.519163 
L 255.504249 267.29733 
L 253.038255 269.911654 
L 250.578236 276.763044 
L 248.106896 280.276993 
L 245.644356 272.194899 
L 243.182972 269.661256 
L 240.718145 266.478979 
L 238.25403 269.133342 
L 235.785036 280.028426 
L 233.322894 275.67786 
L 230.854808 258.636441 
L 228.383899 269.902021 
L 225.918185 265.923046 
L 223.452641 272.052627 
L 220.993902 271.840011 
L 218.530288 262.638574 
L 216.069359 272.734256 
L 213.598693 274.058596 
L 211.136799 269.564276 
L 208.674245 274.756615 
L 206.205415 267.195953 
L 203.737793 273.601656 
L 201.276415 268.133416 
L 198.814532 267.617633 
L 196.351547 262.830518 
L 193.879852 248.30788 
L 191.412268 259.667278 
L 188.951767 264.477304 
L 186.490522 270.110248 
L 184.021013 247.524448 
L 181.561547 268.522926 
L 179.097967 259.832138 
L 176.6293 251.505943 
L 174.157548 255.675672 
L 171.691001 259.971804 
L 169.226531 258.574702 
L 166.76176 240.234841 
L 164.30293 245.210546 
L 161.837259 263.642694 
L 159.376198 249.913764 
L 156.905132 249.261408 
L 154.434654 246.62998 
L 151.977566 238.175062 
L 149.517372 253.359108 
L 147.061285 258.11161 
L 144.60429 253.138752 
L 142.148108 245.659342 
L 139.700417 246.217952 
L 137.245112 232.695978 
L 134.790438 254.988005 
L 132.345612 238.216257 
L 129.893314 249.411771 
L 127.447348 252.16827 
L 124.998243 254.808047 
L 122.534365 234.102713 
L 120.076992 239.43627 
L 117.6179 226.248497 
L 115.159804 212.585682 
L 112.69925 224.827048 
L 110.257753 221.038266 
L 107.796138 225.302591 
L 105.337417 222.234765 
L 102.876508 211.894114 
L 100.406923 204.280637 
L 97.953778 215.191528 
L 95.510116 186.430725 
L 93.051473 177.133686 
L 90.603696 172.388114 
L 88.154924 150.70227 
L 85.698799 151.275916 
L 83.25766 131.327222 
L 80.803411 129.940153 
L 78.347968 118.676038 
L 75.895367 109.483557 
L 73.432188 99.353842 
L 70.979306 80.88571 
L 68.519464 44.383568 
L 66.062342 42.819094 
z
" style="fill:#1f77b4;fill-opacity:0.25;"/>
   </g>
   <g id="PolyCollection_2">
    <path clip-path="url(#pb755532a49)" d="M 66.005455 41.401639 
L 66.005455 50.498386 
L 68.091613 73.990454 
L 70.094725 92.49888 
L 72.06636 111.93466 
L 74.026253 104.414635 
L 75.968229 121.603987 
L 77.908318 129.525393 
L 79.846463 156.068994 
L 81.792179 166.543009 
L 83.732023 170.549948 
L 85.679854 187.299496 
L 87.62233 190.314737 
L 89.570131 190.28914 
L 91.513096 204.455751 
L 93.454363 204.417682 
L 95.399678 228.96348 
L 97.343822 218.379993 
L 99.282821 226.270158 
L 101.232495 231.925258 
L 103.17826 234.677634 
L 105.122524 239.615462 
L 107.057542 232.979312 
L 109.008092 239.204298 
L 110.945942 236.047698 
L 112.890094 244.197508 
L 114.826713 246.427795 
L 116.768017 250.195083 
L 118.706456 253.273065 
L 120.647888 249.536137 
L 122.587397 251.993213 
L 124.53622 250.925819 
L 126.480858 237.56712 
L 128.423267 259.257661 
L 130.366073 256.023652 
L 132.313815 263.23663 
L 134.252082 263.179657 
L 136.195405 255.320606 
L 138.134129 259.075903 
L 140.075445 261.908455 
L 142.010096 266.081586 
L 143.958602 265.555302 
L 145.906482 261.386134 
L 147.855266 265.531265 
L 149.794996 268.990832 
L 151.734688 263.454036 
L 153.670471 269.040146 
L 155.61307 267.945137 
L 157.551476 264.780938 
L 159.49682 273.513836 
L 161.432398 263.474308 
L 163.373235 272.009406 
L 165.306104 269.633451 
L 167.256501 273.364358 
L 169.19372 261.793109 
L 171.130413 270.511404 
L 173.065067 275.668091 
L 175.005251 268.222449 
L 176.947929 279.180948 
L 178.889235 261.862084 
L 180.819419 273.337463 
L 182.749237 272.333623 
L 184.699916 285.441492 
L 186.640349 280.691771 
L 188.579273 272.569617 
L 190.520249 275.576241 
L 192.460554 273.563822 
L 194.397423 278.322445 
L 196.330938 283.566461 
L 198.281811 277.599349 
L 200.229721 279.693591 
L 202.166075 283.80866 
L 204.098061 285.338186 
L 206.043803 282.4419 
L 207.9848 283.636069 
L 209.929516 284.609841 
L 211.858776 279.263256 
L 213.806611 277.860232 
L 215.74793 280.448493 
L 217.682482 284.383949 
L 219.615786 281.778278 
L 221.557029 283.606595 
L 223.50271 278.359038 
L 225.447317 286.834449 
L 227.384662 280.591989 
L 229.321567 284.421547 
L 231.264365 287.431877 
L 233.209089 283.739522 
L 235.155249 284.659659 
L 237.096107 286.87197 
L 239.036629 288.769818 
L 240.986779 288.34006 
L 242.93088 285.567408 
L 244.864943 287.365677 
L 246.796761 290.28691 
L 248.75083 283.237353 
L 250.689256 293.344452 
L 252.642213 291.956368 
L 254.589428 292.809585 
L 256.523207 292.710586 
L 258.461685 294.174983 
L 260.405259 296.917518 
L 262.343853 291.889596 
L 264.281739 293.637084 
L 266.214464 297.351227 
L 268.151759 293.761263 
L 270.090103 291.446715 
L 272.027404 295.232455 
L 273.971847 294.909203 
L 275.913517 299.202691 
L 277.848186 296.678283 
L 279.791454 295.772985 
L 281.72931 298.790688 
L 283.663527 300.672692 
L 285.600632 300.907247 
L 287.552861 300.507932 
L 289.492595 299.212043 
L 291.437338 299.654345 
L 293.374993 301.363098 
L 295.324058 301.848454 
L 297.26822 301.400545 
L 299.203327 302.622039 
L 301.135728 302.613686 
L 303.075997 301.879709 
L 305.021377 302.729328 
L 306.963861 303.017205 
L 308.905335 302.128695 
L 310.844658 302.935124 
L 312.782924 303.11917 
L 314.725177 303.124836 
L 316.663479 303.084831 
L 318.607921 303.397351 
L 320.550395 303.110025 
L 322.486231 303.399968 
L 324.430649 303.495014 
L 326.37239 303.743566 
L 328.31376 303.445855 
L 330.254718 303.536273 
L 332.192932 303.470359 
L 334.13467 303.523296 
L 336.067627 303.471767 
L 338.005454 303.413129 
L 339.943727 303.478951 
L 341.884093 303.57084 
L 343.818575 303.439285 
L 345.761614 303.27429 
L 347.707237 303.539038 
L 349.64362 303.513817 
L 351.584643 303.520818 
L 353.524643 303.45486 
L 355.469838 303.479578 
L 355.469838 303.198604 
L 355.469838 303.198604 
L 353.524643 303.22601 
L 351.584643 303.269854 
L 349.64362 303.08101 
L 347.707237 303.225187 
L 345.761614 301.479244 
L 343.818575 302.714967 
L 341.884093 303.287318 
L 339.943727 303.134301 
L 338.005454 303.181697 
L 336.067627 303.339491 
L 334.13467 303.208707 
L 332.192932 303.171192 
L 330.254718 302.125565 
L 328.31376 302.887668 
L 326.37239 301.286171 
L 324.430649 302.900088 
L 322.486231 303.045341 
L 320.550395 302.089947 
L 318.607921 303.027593 
L 316.663479 302.7416 
L 314.725177 300.273251 
L 312.782924 301.852999 
L 310.844658 301.164975 
L 308.905335 298.981926 
L 306.963861 300.757763 
L 305.021377 301.796579 
L 303.075997 300.345596 
L 301.135728 301.387145 
L 299.203327 297.644017 
L 297.26822 299.914253 
L 295.324058 300.267181 
L 293.374993 298.955501 
L 291.437338 296.399112 
L 289.492595 298.002295 
L 287.552861 296.921514 
L 285.600632 297.216188 
L 283.663527 298.456463 
L 281.72931 294.271 
L 279.791454 287.431801 
L 277.848186 291.05859 
L 275.913517 295.503694 
L 273.971847 290.140578 
L 272.027404 286.779008 
L 270.090103 284.821002 
L 268.151759 289.914646 
L 266.214464 289.639466 
L 264.281739 287.367249 
L 262.343853 290.341913 
L 260.405259 284.845689 
L 258.461685 289.856383 
L 256.523207 284.555798 
L 254.589428 287.938029 
L 252.642213 286.308682 
L 250.689256 285.989793 
L 248.75083 274.679149 
L 246.796761 282.457261 
L 244.864943 281.68286 
L 242.93088 280.293294 
L 240.986779 281.729713 
L 239.036629 285.125358 
L 237.096107 281.256891 
L 235.155249 278.616921 
L 233.209089 277.889539 
L 231.264365 284.398258 
L 229.321567 279.808563 
L 227.384662 272.015214 
L 225.447317 279.110886 
L 223.50271 266.010572 
L 221.557029 281.215944 
L 219.615786 274.056256 
L 217.682482 270.601436 
L 215.74793 274.06577 
L 213.806611 271.632484 
L 211.858776 264.305163 
L 209.929516 277.408531 
L 207.9848 276.497812 
L 206.043803 272.630939 
L 204.098061 272.324417 
L 202.166075 276.945862 
L 200.229721 271.407148 
L 198.281811 261.415824 
L 196.330938 276.725402 
L 194.397423 266.679089 
L 192.460554 261.383334 
L 190.520249 270.706069 
L 188.579273 265.051936 
L 186.640349 268.005396 
L 184.699916 273.642943 
L 182.749237 261.67693 
L 180.819419 269.790865 
L 178.889235 256.192362 
L 176.947929 263.512932 
L 175.005251 261.714445 
L 173.065067 269.243168 
L 171.130413 258.601731 
L 169.19372 249.468144 
L 167.256501 249.711635 
L 165.306104 256.139509 
L 163.373235 265.20591 
L 161.432398 256.927289 
L 159.49682 264.361616 
L 157.551476 258.520743 
L 155.61307 262.567259 
L 153.670471 259.94886 
L 151.734688 261.867548 
L 149.794996 254.513968 
L 147.855266 254.554369 
L 145.906482 258.778491 
L 143.958602 260.81573 
L 142.010096 252.683777 
L 140.075445 244.974461 
L 138.134129 254.318097 
L 136.195405 252.137812 
L 134.252082 257.876433 
L 132.313815 252.786629 
L 130.366073 248.76037 
L 128.423267 249.092224 
L 126.480858 232.991393 
L 124.53622 244.164925 
L 122.587397 245.704221 
L 120.647888 240.092969 
L 118.706456 244.514645 
L 116.768017 234.107798 
L 114.826713 233.496748 
L 112.890094 237.46483 
L 110.945942 225.663865 
L 109.008092 232.708339 
L 107.057542 215.37155 
L 105.122524 230.717363 
L 103.17826 224.709347 
L 101.232495 224.053842 
L 99.282821 212.827517 
L 97.343822 193.4772 
L 95.399678 199.707433 
L 93.454363 190.738636 
L 91.513096 193.499093 
L 89.570131 181.395678 
L 87.62233 170.604788 
L 85.679854 172.040217 
L 83.732023 154.079027 
L 81.792179 149.193878 
L 79.846463 139.310881 
L 77.908318 119.949645 
L 75.968229 115.819338 
L 74.026253 93.784203 
L 72.06636 85.587115 
L 70.094725 77.759845 
L 68.091613 61.467258 
L 66.005455 41.401639 
z
" style="fill:#ff7f0e;fill-opacity:0.25;"/>
   </g>
   <g id="PolyCollection_3">
    <path clip-path="url(#pb755532a49)" d="M 66.099973 53.374105 
L 66.099973 76.712245 
L 68.265108 90.063184 
L 70.342893 105.415035 
L 72.379403 127.133427 
L 74.399541 135.118758 
L 76.409136 150.814417 
L 78.406 166.171917 
L 80.407203 171.640913 
L 82.407287 193.310114 
L 84.404547 199.694699 
L 86.409942 222.782507 
L 88.411412 216.001935 
L 90.406395 220.543638 
L 92.408319 240.841321 
L 94.40171 243.213297 
L 96.397515 245.802757 
L 98.396236 240.158453 
L 100.392211 247.093628 
L 102.392341 257.001676 
L 104.390011 233.048202 
L 106.37765 254.062236 
L 108.371365 249.355307 
L 110.363418 250.280753 
L 112.364954 265.072287 
L 114.357063 270.36263 
L 116.360607 262.245487 
L 118.348502 255.013245 
L 120.344749 258.289233 
L 122.338925 262.760919 
L 124.334468 255.678616 
L 126.324326 258.590866 
L 128.323275 268.506465 
L 130.314187 267.932797 
L 132.305567 264.172576 
L 134.298967 270.627148 
L 136.292951 269.839201 
L 138.285454 275.60366 
L 140.280019 263.596252 
L 142.270248 276.533848 
L 144.264149 276.49608 
L 146.25601 274.40183 
L 148.252672 277.391949 
L 150.245514 272.983275 
L 152.234667 278.533717 
L 154.220223 269.416231 
L 156.212842 275.440651 
L 158.204212 274.861556 
L 160.195756 282.511557 
L 162.191361 280.011111 
L 164.187118 286.912929 
L 166.179515 282.998951 
L 168.171864 281.632927 
L 170.162151 280.033194 
L 172.156012 275.815173 
L 174.150316 283.065907 
L 176.144926 279.791603 
L 178.138297 288.317029 
L 180.132804 277.705169 
L 182.122479 282.282333 
L 184.110771 279.501047 
L 186.106422 282.347107 
L 188.101878 279.748421 
L 190.095601 285.497791 
L 192.08927 279.271495 
L 194.08096 286.263325 
L 196.074617 282.442398 
L 198.070199 286.746034 
L 200.064036 283.182565 
L 202.059915 279.594895 
L 204.054554 280.010056 
L 206.048097 283.154093 
L 208.04166 292.259314 
L 210.037377 284.738751 
L 212.030481 286.780167 
L 214.025648 283.64891 
L 216.018282 290.597796 
L 218.01583 289.420718 
L 220.012342 290.75739 
L 222.005994 292.174102 
L 224.004321 293.486784 
L 225.999752 292.072139 
L 227.9938 293.638404 
L 229.989283 283.004399 
L 231.982969 290.060735 
L 233.981336 293.214742 
L 235.978916 293.774932 
L 237.972261 288.915666 
L 239.967103 294.959681 
L 241.963602 290.915383 
L 243.956414 295.206865 
L 245.951471 295.057786 
L 247.944966 293.460456 
L 249.940931 294.778284 
L 251.93413 296.043707 
L 253.929599 290.483686 
L 255.922333 293.889683 
L 257.916337 295.695126 
L 259.913261 297.348057 
L 261.90956 299.015374 
L 263.904152 299.563273 
L 265.901218 298.636331 
L 267.895577 298.419667 
L 269.893317 298.164968 
L 271.892103 300.000942 
L 273.893871 298.757844 
L 275.882278 296.621284 
L 277.878898 299.541264 
L 279.879476 301.263727 
L 281.879832 301.333486 
L 283.873582 301.060395 
L 285.869989 299.630583 
L 287.860459 299.406236 
L 289.855569 300.903837 
L 291.854383 300.02456 
L 293.84617 300.919993 
L 295.840485 301.832211 
L 297.835642 301.676423 
L 299.829093 301.86461 
L 301.820434 303.296173 
L 303.818443 301.925675 
L 305.813644 303.139821 
L 307.808189 303.022126 
L 309.807627 303.127374 
L 311.79817 302.276109 
L 313.791545 303.251992 
L 315.788394 303.453402 
L 317.783756 303.406208 
L 319.777498 303.247432 
L 321.770133 303.457335 
L 323.762042 303.450614 
L 325.758718 303.531061 
L 327.754318 303.436099 
L 329.746055 303.407034 
L 331.741937 303.472137 
L 333.734992 303.45355 
L 335.730764 303.448252 
L 337.72363 303.154751 
L 339.716654 303.853463 
L 341.708843 303.414441 
L 343.696926 303.447027 
L 345.693326 303.434882 
L 347.691013 303.43698 
L 349.685561 303.467163 
L 351.679515 303.376182 
L 353.675369 303.348999 
L 355.669487 303.437769 
L 357.663574 303.328289 
L 359.657524 303.434625 
L 361.648912 303.367218 
L 363.640254 303.447293 
L 363.640254 303.29498 
L 363.640254 303.29498 
L 361.648912 303.239422 
L 359.657524 303.387608 
L 357.663574 302.861799 
L 355.669487 303.303535 
L 353.675369 302.962837 
L 351.679515 303.264487 
L 349.685561 303.401795 
L 347.691013 301.69317 
L 345.693326 303.273758 
L 343.696926 303.420388 
L 341.708843 303.251178 
L 339.716654 301.874847 
L 337.72363 302.687549 
L 335.730764 303.363931 
L 333.734992 303.297274 
L 331.741937 303.231831 
L 329.746055 303.045944 
L 327.754318 303.346727 
L 325.758718 302.776543 
L 323.762042 303.081091 
L 321.770133 302.782299 
L 319.777498 301.456557 
L 317.783756 303.340253 
L 315.788394 301.281001 
L 313.791545 302.861662 
L 311.79817 299.332963 
L 309.807627 301.850701 
L 307.808189 302.146638 
L 305.813644 301.86911 
L 303.818443 299.364437 
L 301.820434 301.871004 
L 299.829093 300.328958 
L 297.835642 298.047278 
L 295.840485 300.473495 
L 293.84617 293.161872 
L 291.854383 296.011971 
L 289.855569 298.113179 
L 287.860459 295.065294 
L 285.869989 296.494107 
L 283.873582 297.303538 
L 281.879832 295.901305 
L 279.879476 299.117288 
L 277.878898 293.895629 
L 275.882278 291.035188 
L 273.893871 297.0798 
L 271.892103 289.08653 
L 269.893317 293.009408 
L 267.895577 293.424718 
L 265.901218 294.642581 
L 263.904152 295.961229 
L 261.90956 293.515243 
L 259.913261 290.158897 
L 257.916337 290.443598 
L 255.922333 288.426459 
L 253.929599 281.26746 
L 251.93413 291.432215 
L 249.940931 291.061403 
L 247.944966 289.078552 
L 245.951471 289.420724 
L 243.956414 293.310041 
L 241.963602 285.476461 
L 239.967103 290.265008 
L 237.972261 286.21515 
L 235.978916 288.840246 
L 233.981336 286.810671 
L 231.982969 283.910611 
L 229.989283 275.764072 
L 227.9938 290.206771 
L 225.999752 290.36531 
L 224.004321 290.115776 
L 222.005994 289.752729 
L 220.012342 289.000019 
L 218.01583 283.557603 
L 216.018282 284.896941 
L 214.025648 277.133823 
L 212.030481 278.386545 
L 210.037377 280.495668 
L 208.04166 289.989121 
L 206.048097 275.614378 
L 204.054554 273.477329 
L 202.059915 266.760765 
L 200.064036 275.856732 
L 198.070199 279.306502 
L 196.074617 275.028371 
L 194.08096 278.745407 
L 192.08927 275.389465 
L 190.095601 282.111989 
L 188.101878 275.984554 
L 186.106422 276.398796 
L 184.110771 270.115797 
L 182.122479 274.883758 
L 180.132804 273.632542 
L 178.138297 275.817163 
L 176.144926 271.517897 
L 174.150316 279.697233 
L 172.156012 270.354294 
L 170.162151 268.776817 
L 168.171864 276.932426 
L 166.179515 272.485768 
L 164.187118 262.51208 
L 162.191361 267.185234 
L 160.195756 277.927003 
L 158.204212 270.495436 
L 156.212842 269.284416 
L 154.220223 262.754969 
L 152.234667 270.817944 
L 150.245514 267.380381 
L 148.252672 266.622203 
L 146.25601 268.828057 
L 144.264149 270.42944 
L 142.270248 267.830119 
L 140.280019 256.162135 
L 138.285454 271.886079 
L 136.292951 255.945042 
L 134.298967 265.234043 
L 132.305567 259.535343 
L 130.314187 261.439878 
L 128.323275 258.95915 
L 126.324326 251.824059 
L 124.334468 243.621199 
L 122.338925 238.694212 
L 120.344749 245.366352 
L 118.348502 251.542424 
L 116.360607 251.599888 
L 114.357063 255.04923 
L 112.364954 250.556019 
L 110.363418 244.031369 
L 108.371365 240.917009 
L 106.37765 246.399871 
L 104.390011 221.531636 
L 102.392341 241.93704 
L 100.392211 237.694482 
L 98.396236 227.353278 
L 96.397515 227.238318 
L 94.40171 229.398972 
L 92.408319 220.791251 
L 90.406395 203.545818 
L 88.411412 198.856903 
L 86.409942 196.477237 
L 84.404547 182.755413 
L 82.407287 170.904448 
L 80.407203 155.154662 
L 78.406 144.419295 
L 76.409136 136.530983 
L 74.399541 116.613154 
L 72.379403 112.501635 
L 70.342893 92.242152 
L 68.265108 70.536116 
L 66.099973 53.374105 
z
" style="fill:#2ca02c;fill-opacity:0.25;"/>
   </g>
   <g id="matplotlib.axis_1">
    <g id="xtick_1">
     <g id="line2d_1">
      <defs>
       <path d="M 0 0 
L 0 3.5 
" id="mf05ded8a0c" style="stroke:#000000;stroke-width:0.8;"/>
      </defs>
      <g>
       <use style="stroke:#000000;stroke-width:0.8;" x="63.542635" xlink:href="#mf05ded8a0c" y="303.64"/>
      </g>
     </g>
     <g id="text_1">
      <!-- 0 -->
      <g transform="translate(60.361385 318.238437)scale(0.1 -0.1)">
       <defs>
        <path d="M 31.78125 66.40625 
Q 24.171875 66.40625 20.328125 58.90625 
Q 16.5 51.421875 16.5 36.375 
Q 16.5 21.390625 20.328125 13.890625 
Q 24.171875 6.390625 31.78125 6.390625 
Q 39.453125 6.390625 43.28125 13.890625 
Q 47.125 21.390625 47.125 36.375 
Q 47.125 51.421875 43.28125 58.90625 
Q 39.453125 66.40625 31.78125 66.40625 
z
M 31.78125 74.21875 
Q 44.046875 74.21875 50.515625 64.515625 
Q 56.984375 54.828125 56.984375 36.375 
Q 56.984375 17.96875 50.515625 8.265625 
Q 44.046875 -1.421875 31.78125 -1.421875 
Q 19.53125 -1.421875 13.0625 8.265625 
Q 6.59375 17.96875 6.59375 36.375 
Q 6.59375 54.828125 13.0625 64.515625 
Q 19.53125 74.21875 31.78125 74.21875 
z
" id="DejaVuSans-48"/>
       </defs>
       <use xlink:href="#DejaVuSans-48"/>
      </g>
     </g>
    </g>
    <g id="xtick_2">
     <g id="line2d_2">
      <g>
       <use style="stroke:#000000;stroke-width:0.8;" x="113.324355" xlink:href="#mf05ded8a0c" y="303.64"/>
      </g>
     </g>
     <g id="text_2">
      <!-- 2000 -->
      <g transform="translate(100.599355 318.238437)scale(0.1 -0.1)">
       <defs>
        <path d="M 19.1875 8.296875 
L 53.609375 8.296875 
L 53.609375 0 
L 7.328125 0 
L 7.328125 8.296875 
Q 12.9375 14.109375 22.625 23.890625 
Q 32.328125 33.6875 34.8125 36.53125 
Q 39.546875 41.84375 41.421875 45.53125 
Q 43.3125 49.21875 43.3125 52.78125 
Q 43.3125 58.59375 39.234375 62.25 
Q 35.15625 65.921875 28.609375 65.921875 
Q 23.96875 65.921875 18.8125 64.3125 
Q 13.671875 62.703125 7.8125 59.421875 
L 7.8125 69.390625 
Q 13.765625 71.78125 18.9375 73 
Q 24.125 74.21875 28.421875 74.21875 
Q 39.75 74.21875 46.484375 68.546875 
Q 53.21875 62.890625 53.21875 53.421875 
Q 53.21875 48.921875 51.53125 44.890625 
Q 49.859375 40.875 45.40625 35.40625 
Q 44.1875 33.984375 37.640625 27.21875 
Q 31.109375 20.453125 19.1875 8.296875 
z
" id="DejaVuSans-50"/>
       </defs>
       <use xlink:href="#DejaVuSans-50"/>
       <use x="63.623047" xlink:href="#DejaVuSans-48"/>
       <use x="127.246094" xlink:href="#DejaVuSans-48"/>
       <use x="190.869141" xlink:href="#DejaVuSans-48"/>
      </g>
     </g>
    </g>
    <g id="xtick_3">
     <g id="line2d_3">
      <g>
       <use style="stroke:#000000;stroke-width:0.8;" x="163.106074" xlink:href="#mf05ded8a0c" y="303.64"/>
      </g>
     </g>
     <g id="text_3">
      <!-- 4000 -->
      <g transform="translate(150.381074 318.238437)scale(0.1 -0.1)">
       <defs>
        <path d="M 37.796875 64.3125 
L 12.890625 25.390625 
L 37.796875 25.390625 
z
M 35.203125 72.90625 
L 47.609375 72.90625 
L 47.609375 25.390625 
L 58.015625 25.390625 
L 58.015625 17.1875 
L 47.609375 17.1875 
L 47.609375 0 
L 37.796875 0 
L 37.796875 17.1875 
L 4.890625 17.1875 
L 4.890625 26.703125 
z
" id="DejaVuSans-52"/>
       </defs>
       <use xlink:href="#DejaVuSans-52"/>
       <use x="63.623047" xlink:href="#DejaVuSans-48"/>
       <use x="127.246094" xlink:href="#DejaVuSans-48"/>
       <use x="190.869141" xlink:href="#DejaVuSans-48"/>
      </g>
     </g>
    </g>
    <g id="xtick_4">
     <g id="line2d_4">
      <g>
       <use style="stroke:#000000;stroke-width:0.8;" x="212.887794" xlink:href="#mf05ded8a0c" y="303.64"/>
      </g>
     </g>
     <g id="text_4">
      <!-- 6000 -->
      <g transform="translate(200.162794 318.238437)scale(0.1 -0.1)">
       <defs>
        <path d="M 33.015625 40.375 
Q 26.375 40.375 22.484375 35.828125 
Q 18.609375 31.296875 18.609375 23.390625 
Q 18.609375 15.53125 22.484375 10.953125 
Q 26.375 6.390625 33.015625 6.390625 
Q 39.65625 6.390625 43.53125 10.953125 
Q 47.40625 15.53125 47.40625 23.390625 
Q 47.40625 31.296875 43.53125 35.828125 
Q 39.65625 40.375 33.015625 40.375 
z
M 52.59375 71.296875 
L 52.59375 62.3125 
Q 48.875 64.0625 45.09375 64.984375 
Q 41.3125 65.921875 37.59375 65.921875 
Q 27.828125 65.921875 22.671875 59.328125 
Q 17.53125 52.734375 16.796875 39.40625 
Q 19.671875 43.65625 24.015625 45.921875 
Q 28.375 48.1875 33.59375 48.1875 
Q 44.578125 48.1875 50.953125 41.515625 
Q 57.328125 34.859375 57.328125 23.390625 
Q 57.328125 12.15625 50.6875 5.359375 
Q 44.046875 -1.421875 33.015625 -1.421875 
Q 20.359375 -1.421875 13.671875 8.265625 
Q 6.984375 17.96875 6.984375 36.375 
Q 6.984375 53.65625 15.1875 63.9375 
Q 23.390625 74.21875 37.203125 74.21875 
Q 40.921875 74.21875 44.703125 73.484375 
Q 48.484375 72.75 52.59375 71.296875 
z
" id="DejaVuSans-54"/>
       </defs>
       <use xlink:href="#DejaVuSans-54"/>
       <use x="63.623047" xlink:href="#DejaVuSans-48"/>
       <use x="127.246094" xlink:href="#DejaVuSans-48"/>
       <use x="190.869141" xlink:href="#DejaVuSans-48"/>
      </g>
     </g>
    </g>
    <g id="xtick_5">
     <g id="line2d_5">
      <g>
       <use style="stroke:#000000;stroke-width:0.8;" x="262.669513" xlink:href="#mf05ded8a0c" y="303.64"/>
      </g>
     </g>
     <g id="text_5">
      <!-- 8000 -->
      <g transform="translate(249.944513 318.238437)scale(0.1 -0.1)">
       <defs>
        <path d="M 31.78125 34.625 
Q 24.75 34.625 20.71875 30.859375 
Q 16.703125 27.09375 16.703125 20.515625 
Q 16.703125 13.921875 20.71875 10.15625 
Q 24.75 6.390625 31.78125 6.390625 
Q 38.8125 6.390625 42.859375 10.171875 
Q 46.921875 13.96875 46.921875 20.515625 
Q 46.921875 27.09375 42.890625 30.859375 
Q 38.875 34.625 31.78125 34.625 
z
M 21.921875 38.8125 
Q 15.578125 40.375 12.03125 44.71875 
Q 8.5 49.078125 8.5 55.328125 
Q 8.5 64.0625 14.71875 69.140625 
Q 20.953125 74.21875 31.78125 74.21875 
Q 42.671875 74.21875 48.875 69.140625 
Q 55.078125 64.0625 55.078125 55.328125 
Q 55.078125 49.078125 51.53125 44.71875 
Q 48 40.375 41.703125 38.8125 
Q 48.828125 37.15625 52.796875 32.3125 
Q 56.78125 27.484375 56.78125 20.515625 
Q 56.78125 9.90625 50.3125 4.234375 
Q 43.84375 -1.421875 31.78125 -1.421875 
Q 19.734375 -1.421875 13.25 4.234375 
Q 6.78125 9.90625 6.78125 20.515625 
Q 6.78125 27.484375 10.78125 32.3125 
Q 14.796875 37.15625 21.921875 38.8125 
z
M 18.3125 54.390625 
Q 18.3125 48.734375 21.84375 45.5625 
Q 25.390625 42.390625 31.78125 42.390625 
Q 38.140625 42.390625 41.71875 45.5625 
Q 45.3125 48.734375 45.3125 54.390625 
Q 45.3125 60.0625 41.71875 63.234375 
Q 38.140625 66.40625 31.78125 66.40625 
Q 25.390625 66.40625 21.84375 63.234375 
Q 18.3125 60.0625 18.3125 54.390625 
z
" id="DejaVuSans-56"/>
       </defs>
       <use xlink:href="#DejaVuSans-56"/>
       <use x="63.623047" xlink:href="#DejaVuSans-48"/>
       <use x="127.246094" xlink:href="#DejaVuSans-48"/>
       <use x="190.869141" xlink:href="#DejaVuSans-48"/>
      </g>
     </g>
    </g>
    <g id="xtick_6">
     <g id="line2d_6">
      <g>
       <use style="stroke:#000000;stroke-width:0.8;" x="312.451233" xlink:href="#mf05ded8a0c" y="303.64"/>
      </g>
     </g>
     <g id="text_6">
      <!-- 10000 -->
      <g transform="translate(296.544983 318.238437)scale(0.1 -0.1)">
       <defs>
        <path d="M 12.40625 8.296875 
L 28.515625 8.296875 
L 28.515625 63.921875 
L 10.984375 60.40625 
L 10.984375 69.390625 
L 28.421875 72.90625 
L 38.28125 72.90625 
L 38.28125 8.296875 
L 54.390625 8.296875 
L 54.390625 0 
L 12.40625 0 
z
" id="DejaVuSans-49"/>
       </defs>
       <use xlink:href="#DejaVuSans-49"/>
       <use x="63.623047" xlink:href="#DejaVuSans-48"/>
       <use x="127.246094" xlink:href="#DejaVuSans-48"/>
       <use x="190.869141" xlink:href="#DejaVuSans-48"/>
       <use x="254.492188" xlink:href="#DejaVuSans-48"/>
      </g>
     </g>
    </g>
    <g id="xtick_7">
     <g id="line2d_7">
      <g>
       <use style="stroke:#000000;stroke-width:0.8;" x="362.232952" xlink:href="#mf05ded8a0c" y="303.64"/>
      </g>
     </g>
     <g id="text_7">
      <!-- 12000 -->
      <g transform="translate(346.326702 318.238437)scale(0.1 -0.1)">
       <use xlink:href="#DejaVuSans-49"/>
       <use x="63.623047" xlink:href="#DejaVuSans-50"/>
       <use x="127.246094" xlink:href="#DejaVuSans-48"/>
       <use x="190.869141" xlink:href="#DejaVuSans-48"/>
       <use x="254.492188" xlink:href="#DejaVuSans-48"/>
      </g>
     </g>
    </g>
    <g id="xtick_8">
     <g id="line2d_8">
      <g>
       <use style="stroke:#000000;stroke-width:0.8;" x="412.014672" xlink:href="#mf05ded8a0c" y="303.64"/>
      </g>
     </g>
     <g id="text_8">
      <!-- 14000 -->
      <g transform="translate(396.108422 318.238437)scale(0.1 -0.1)">
       <use xlink:href="#DejaVuSans-49"/>
       <use x="63.623047" xlink:href="#DejaVuSans-52"/>
       <use x="127.246094" xlink:href="#DejaVuSans-48"/>
       <use x="190.869141" xlink:href="#DejaVuSans-48"/>
       <use x="254.492188" xlink:href="#DejaVuSans-48"/>
      </g>
     </g>
    </g>
    <g id="text_9">
     <!-- Time (sec) -->
     <g transform="translate(222.705312 331.916562)scale(0.1 -0.1)">
      <defs>
       <path d="M -0.296875 72.90625 
L 61.375 72.90625 
L 61.375 64.59375 
L 35.5 64.59375 
L 35.5 0 
L 25.59375 0 
L 25.59375 64.59375 
L -0.296875 64.59375 
z
" id="DejaVuSans-84"/>
       <path d="M 9.421875 54.6875 
L 18.40625 54.6875 
L 18.40625 0 
L 9.421875 0 
z
M 9.421875 75.984375 
L 18.40625 75.984375 
L 18.40625 64.59375 
L 9.421875 64.59375 
z
" id="DejaVuSans-105"/>
       <path d="M 52 44.1875 
Q 55.375 50.25 60.0625 53.125 
Q 64.75 56 71.09375 56 
Q 79.640625 56 84.28125 50.015625 
Q 88.921875 44.046875 88.921875 33.015625 
L 88.921875 0 
L 79.890625 0 
L 79.890625 32.71875 
Q 79.890625 40.578125 77.09375 44.375 
Q 74.3125 48.1875 68.609375 48.1875 
Q 61.625 48.1875 57.5625 43.546875 
Q 53.515625 38.921875 53.515625 30.90625 
L 53.515625 0 
L 44.484375 0 
L 44.484375 32.71875 
Q 44.484375 40.625 41.703125 44.40625 
Q 38.921875 48.1875 33.109375 48.1875 
Q 26.21875 48.1875 22.15625 43.53125 
Q 18.109375 38.875 18.109375 30.90625 
L 18.109375 0 
L 9.078125 0 
L 9.078125 54.6875 
L 18.109375 54.6875 
L 18.109375 46.1875 
Q 21.1875 51.21875 25.484375 53.609375 
Q 29.78125 56 35.6875 56 
Q 41.65625 56 45.828125 52.96875 
Q 50 49.953125 52 44.1875 
z
" id="DejaVuSans-109"/>
       <path d="M 56.203125 29.59375 
L 56.203125 25.203125 
L 14.890625 25.203125 
Q 15.484375 15.921875 20.484375 11.0625 
Q 25.484375 6.203125 34.421875 6.203125 
Q 39.59375 6.203125 44.453125 7.46875 
Q 49.3125 8.734375 54.109375 11.28125 
L 54.109375 2.78125 
Q 49.265625 0.734375 44.1875 -0.34375 
Q 39.109375 -1.421875 33.890625 -1.421875 
Q 20.796875 -1.421875 13.15625 6.1875 
Q 5.515625 13.8125 5.515625 26.8125 
Q 5.515625 40.234375 12.765625 48.109375 
Q 20.015625 56 32.328125 56 
Q 43.359375 56 49.78125 48.890625 
Q 56.203125 41.796875 56.203125 29.59375 
z
M 47.21875 32.234375 
Q 47.125 39.59375 43.09375 43.984375 
Q 39.0625 48.390625 32.421875 48.390625 
Q 24.90625 48.390625 20.390625 44.140625 
Q 15.875 39.890625 15.1875 32.171875 
z
" id="DejaVuSans-101"/>
       <path id="DejaVuSans-32"/>
       <path d="M 31 75.875 
Q 24.46875 64.65625 21.28125 53.65625 
Q 18.109375 42.671875 18.109375 31.390625 
Q 18.109375 20.125 21.3125 9.0625 
Q 24.515625 -2 31 -13.1875 
L 23.1875 -13.1875 
Q 15.875 -1.703125 12.234375 9.375 
Q 8.59375 20.453125 8.59375 31.390625 
Q 8.59375 42.28125 12.203125 53.3125 
Q 15.828125 64.359375 23.1875 75.875 
z
" id="DejaVuSans-40"/>
       <path d="M 44.28125 53.078125 
L 44.28125 44.578125 
Q 40.484375 46.53125 36.375 47.5 
Q 32.28125 48.484375 27.875 48.484375 
Q 21.1875 48.484375 17.84375 46.4375 
Q 14.5 44.390625 14.5 40.28125 
Q 14.5 37.15625 16.890625 35.375 
Q 19.28125 33.59375 26.515625 31.984375 
L 29.59375 31.296875 
Q 39.15625 29.25 43.1875 25.515625 
Q 47.21875 21.78125 47.21875 15.09375 
Q 47.21875 7.46875 41.1875 3.015625 
Q 35.15625 -1.421875 24.609375 -1.421875 
Q 20.21875 -1.421875 15.453125 -0.5625 
Q 10.6875 0.296875 5.421875 2 
L 5.421875 11.28125 
Q 10.40625 8.6875 15.234375 7.390625 
Q 20.0625 6.109375 24.8125 6.109375 
Q 31.15625 6.109375 34.5625 8.28125 
Q 37.984375 10.453125 37.984375 14.40625 
Q 37.984375 18.0625 35.515625 20.015625 
Q 33.0625 21.96875 24.703125 23.78125 
L 21.578125 24.515625 
Q 13.234375 26.265625 9.515625 29.90625 
Q 5.8125 33.546875 5.8125 39.890625 
Q 5.8125 47.609375 11.28125 51.796875 
Q 16.75 56 26.8125 56 
Q 31.78125 56 36.171875 55.265625 
Q 40.578125 54.546875 44.28125 53.078125 
z
" id="DejaVuSans-115"/>
       <path d="M 48.78125 52.59375 
L 48.78125 44.1875 
Q 44.96875 46.296875 41.140625 47.34375 
Q 37.3125 48.390625 33.40625 48.390625 
Q 24.65625 48.390625 19.8125 42.84375 
Q 14.984375 37.3125 14.984375 27.296875 
Q 14.984375 17.28125 19.8125 11.734375 
Q 24.65625 6.203125 33.40625 6.203125 
Q 37.3125 6.203125 41.140625 7.25 
Q 44.96875 8.296875 48.78125 10.40625 
L 48.78125 2.09375 
Q 45.015625 0.34375 40.984375 -0.53125 
Q 36.96875 -1.421875 32.421875 -1.421875 
Q 20.0625 -1.421875 12.78125 6.34375 
Q 5.515625 14.109375 5.515625 27.296875 
Q 5.515625 40.671875 12.859375 48.328125 
Q 20.21875 56 33.015625 56 
Q 37.15625 56 41.109375 55.140625 
Q 45.0625 54.296875 48.78125 52.59375 
z
" id="DejaVuSans-99"/>
       <path d="M 8.015625 75.875 
L 15.828125 75.875 
Q 23.140625 64.359375 26.78125 53.3125 
Q 30.421875 42.28125 30.421875 31.390625 
Q 30.421875 20.453125 26.78125 9.375 
Q 23.140625 -1.703125 15.828125 -13.1875 
L 8.015625 -13.1875 
Q 14.5 -2 17.703125 9.0625 
Q 20.90625 20.125 20.90625 31.390625 
Q 20.90625 42.671875 17.703125 53.65625 
Q 14.5 64.65625 8.015625 75.875 
z
" id="DejaVuSans-41"/>
      </defs>
      <use xlink:href="#DejaVuSans-84"/>
      <use x="57.958984" xlink:href="#DejaVuSans-105"/>
      <use x="85.742188" xlink:href="#DejaVuSans-109"/>
      <use x="183.154297" xlink:href="#DejaVuSans-101"/>
      <use x="244.677734" xlink:href="#DejaVuSans-32"/>
      <use x="276.464844" xlink:href="#DejaVuSans-40"/>
      <use x="315.478516" xlink:href="#DejaVuSans-115"/>
      <use x="367.578125" xlink:href="#DejaVuSans-101"/>
      <use x="429.101562" xlink:href="#DejaVuSans-99"/>
      <use x="484.082031" xlink:href="#DejaVuSans-41"/>
     </g>
    </g>
   </g>
   <g id="matplotlib.axis_2">
    <g id="ytick_1">
     <g id="line2d_9">
      <defs>
       <path d="M 0 0 
L -3.5 0 
" id="m3e32e66e74" style="stroke:#000000;stroke-width:0.8;"/>
      </defs>
      <g>
       <use style="stroke:#000000;stroke-width:0.8;" x="47.72" xlink:href="#m3e32e66e74" y="303.64"/>
      </g>
     </g>
     <g id="text_10">
      <!-- 0.0 -->
      <g transform="translate(24.816875 307.439219)scale(0.1 -0.1)">
       <defs>
        <path d="M 10.6875 12.40625 
L 21 12.40625 
L 21 0 
L 10.6875 0 
z
" id="DejaVuSans-46"/>
       </defs>
       <use xlink:href="#DejaVuSans-48"/>
       <use x="63.623047" xlink:href="#DejaVuSans-46"/>
       <use x="95.410156" xlink:href="#DejaVuSans-48"/>
      </g>
     </g>
    </g>
    <g id="ytick_2">
     <g id="line2d_10">
      <g>
       <use style="stroke:#000000;stroke-width:0.8;" x="47.72" xlink:href="#m3e32e66e74" y="245.864"/>
      </g>
     </g>
     <g id="text_11">
      <!-- 0.5 -->
      <g transform="translate(24.816875 249.663219)scale(0.1 -0.1)">
       <defs>
        <path d="M 10.796875 72.90625 
L 49.515625 72.90625 
L 49.515625 64.59375 
L 19.828125 64.59375 
L 19.828125 46.734375 
Q 21.96875 47.46875 24.109375 47.828125 
Q 26.265625 48.1875 28.421875 48.1875 
Q 40.625 48.1875 47.75 41.5 
Q 54.890625 34.8125 54.890625 23.390625 
Q 54.890625 11.625 47.5625 5.09375 
Q 40.234375 -1.421875 26.90625 -1.421875 
Q 22.3125 -1.421875 17.546875 -0.640625 
Q 12.796875 0.140625 7.71875 1.703125 
L 7.71875 11.625 
Q 12.109375 9.234375 16.796875 8.0625 
Q 21.484375 6.890625 26.703125 6.890625 
Q 35.15625 6.890625 40.078125 11.328125 
Q 45.015625 15.765625 45.015625 23.390625 
Q 45.015625 31 40.078125 35.4375 
Q 35.15625 39.890625 26.703125 39.890625 
Q 22.75 39.890625 18.8125 39.015625 
Q 14.890625 38.140625 10.796875 36.28125 
z
" id="DejaVuSans-53"/>
       </defs>
       <use xlink:href="#DejaVuSans-48"/>
       <use x="63.623047" xlink:href="#DejaVuSans-46"/>
       <use x="95.410156" xlink:href="#DejaVuSans-53"/>
      </g>
     </g>
    </g>
    <g id="ytick_3">
     <g id="line2d_11">
      <g>
       <use style="stroke:#000000;stroke-width:0.8;" x="47.72" xlink:href="#m3e32e66e74" y="188.088"/>
      </g>
     </g>
     <g id="text_12">
      <!-- 1.0 -->
      <g transform="translate(24.816875 191.887219)scale(0.1 -0.1)">
       <use xlink:href="#DejaVuSans-49"/>
       <use x="63.623047" xlink:href="#DejaVuSans-46"/>
       <use x="95.410156" xlink:href="#DejaVuSans-48"/>
      </g>
     </g>
    </g>
    <g id="ytick_4">
     <g id="line2d_12">
      <g>
       <use style="stroke:#000000;stroke-width:0.8;" x="47.72" xlink:href="#m3e32e66e74" y="130.312"/>
      </g>
     </g>
     <g id="text_13">
      <!-- 1.5 -->
      <g transform="translate(24.816875 134.111219)scale(0.1 -0.1)">
       <use xlink:href="#DejaVuSans-49"/>
       <use x="63.623047" xlink:href="#DejaVuSans-46"/>
       <use x="95.410156" xlink:href="#DejaVuSans-53"/>
      </g>
     </g>
    </g>
    <g id="ytick_5">
     <g id="line2d_13">
      <g>
       <use style="stroke:#000000;stroke-width:0.8;" x="47.72" xlink:href="#m3e32e66e74" y="72.536"/>
      </g>
     </g>
     <g id="text_14">
      <!-- 2.0 -->
      <g transform="translate(24.816875 76.335219)scale(0.1 -0.1)">
       <use xlink:href="#DejaVuSans-50"/>
       <use x="63.623047" xlink:href="#DejaVuSans-46"/>
       <use x="95.410156" xlink:href="#DejaVuSans-48"/>
      </g>
     </g>
    </g>
    <g id="ytick_6">
     <g id="line2d_14">
      <g>
       <use style="stroke:#000000;stroke-width:0.8;" x="47.72" xlink:href="#m3e32e66e74" y="14.76"/>
      </g>
     </g>
     <g id="text_15">
      <!-- 2.5 -->
      <g transform="translate(24.816875 18.559219)scale(0.1 -0.1)">
       <use xlink:href="#DejaVuSans-50"/>
       <use x="63.623047" xlink:href="#DejaVuSans-46"/>
       <use x="95.410156" xlink:href="#DejaVuSans-53"/>
      </g>
     </g>
    </g>
    <g id="text_16">
     <!-- Loss -->
     <g transform="translate(18.737188 170.167187)rotate(-90)scale(0.1 -0.1)">
      <defs>
       <path d="M 9.8125 72.90625 
L 19.671875 72.90625 
L 19.671875 8.296875 
L 55.171875 8.296875 
L 55.171875 0 
L 9.8125 0 
z
" id="DejaVuSans-76"/>
       <path d="M 30.609375 48.390625 
Q 23.390625 48.390625 19.1875 42.75 
Q 14.984375 37.109375 14.984375 27.296875 
Q 14.984375 17.484375 19.15625 11.84375 
Q 23.34375 6.203125 30.609375 6.203125 
Q 37.796875 6.203125 41.984375 11.859375 
Q 46.1875 17.53125 46.1875 27.296875 
Q 46.1875 37.015625 41.984375 42.703125 
Q 37.796875 48.390625 30.609375 48.390625 
z
M 30.609375 56 
Q 42.328125 56 49.015625 48.375 
Q 55.71875 40.765625 55.71875 27.296875 
Q 55.71875 13.875 49.015625 6.21875 
Q 42.328125 -1.421875 30.609375 -1.421875 
Q 18.84375 -1.421875 12.171875 6.21875 
Q 5.515625 13.875 5.515625 27.296875 
Q 5.515625 40.765625 12.171875 48.375 
Q 18.84375 56 30.609375 56 
z
" id="DejaVuSans-111"/>
      </defs>
      <use xlink:href="#DejaVuSans-76"/>
      <use x="53.962891" xlink:href="#DejaVuSans-111"/>
      <use x="115.144531" xlink:href="#DejaVuSans-115"/>
      <use x="167.244141" xlink:href="#DejaVuSans-115"/>
     </g>
    </g>
   </g>
   <g id="line2d_15">
    <path clip-path="url(#pb755532a49)" d="M 66.062342 56.46705 
L 68.519464 48.567987 
L 70.979306 87.88275 
L 73.432188 104.719037 
L 75.895367 115.055525 
L 78.347968 127.265219 
L 80.803411 140.490506 
L 83.25766 141.596375 
L 85.698799 160.621831 
L 88.154924 156.582025 
L 90.603696 179.579581 
L 93.051473 185.458741 
L 95.510116 193.053125 
L 97.953778 220.812687 
L 100.406923 211.209684 
L 102.876508 214.854537 
L 105.337417 226.883681 
L 107.796138 228.192669 
L 110.257753 225.134603 
L 112.69925 229.896609 
L 115.159804 215.238206 
L 117.6179 228.71175 
L 120.076992 245.627028 
L 122.534365 236.678519 
L 124.998243 256.358469 
L 127.447348 255.184894 
L 129.893314 253.853337 
L 132.345612 243.229098 
L 134.790438 256.883192 
L 137.245112 237.976222 
L 139.700417 250.795272 
L 142.148108 250.157705 
L 144.60429 256.697 
L 147.061285 260.420844 
L 149.517372 257.611034 
L 151.977566 240.707041 
L 154.434654 249.198533 
L 156.905132 253.26655 
L 159.376198 253.046505 
L 161.837259 266.610323 
L 164.30293 250.338255 
L 166.76176 244.250334 
L 169.226531 263.405561 
L 171.691001 261.995014 
L 174.157548 260.003322 
L 176.6293 256.200488 
L 179.097967 262.937259 
L 181.561547 272.777234 
L 184.021013 251.985773 
L 186.490522 274.633514 
L 188.951767 267.050414 
L 191.412268 262.897764 
L 193.879852 250.5583 
L 196.351547 267.157616 
L 198.814532 272.619253 
L 201.276415 271.160748 
L 203.737793 276.185116 
L 206.205415 270.068984 
L 208.674245 275.942502 
L 211.136799 271.366688 
L 213.598693 275.764773 
L 216.069359 274.489638 
L 218.530288 267.135047 
L 220.993902 275.697066 
L 223.452641 274.62223 
L 225.918185 269.558366 
L 228.383899 272.66157 
L 230.854808 262.790562 
L 233.322894 278.690247 
L 235.785036 283.099616 
L 238.25403 272.650285 
L 240.718145 269.059033 
L 245.644356 275.73092 
L 248.106896 283.756931 
L 250.578236 279.226255 
L 253.038255 273.180651 
L 255.504249 272.09453 
L 257.965138 276.258464 
L 260.434239 283.132059 
L 262.899985 278.896187 
L 265.36525 289.251011 
L 267.832123 281.398497 
L 270.307417 275.273902 
L 272.76477 288.487905 
L 275.222171 282.916245 
L 277.67364 282.557966 
L 280.127372 291.740627 
L 282.589277 282.769548 
L 285.044497 283.339409 
L 287.496949 269.92793 
L 289.958225 283.613055 
L 292.405436 290.187614 
L 294.868325 283.8063 
L 297.323559 288.880037 
L 299.781096 287.335489 
L 302.226274 286.422865 
L 304.690745 288.284787 
L 307.152732 289.526068 
L 309.598485 287.576692 
L 312.057687 290.496524 
L 314.503012 295.843907 
L 316.961233 290.029633 
L 319.418484 293.349355 
L 321.869482 295.150624 
L 324.327866 296.633108 
L 326.793446 298.357149 
L 329.247745 294.032765 
L 331.707913 293.27107 
L 334.171574 292.684282 
L 336.632084 299.597373 
L 339.089365 296.427169 
L 341.55399 301.127463 
L 344.01109 299.076176 
L 346.454783 298.498557 
L 348.911349 297.799631 
L 351.369548 299.839987 
L 353.820044 297.501653 
L 356.274522 302.425695 
L 358.721897 301.648131 
L 361.183765 301.988779 
L 363.630134 302.64292 
L 366.086997 302.471406 
L 368.538336 301.270105 
L 370.990779 303.066436 
L 373.447853 302.789793 
L 375.90828 303.00878 
L 378.355324 302.879054 
L 380.806208 302.351906 
L 383.228805 303.103331 
L 385.657353 303.256816 
L 388.081012 303.167864 
L 390.504507 303.340567 
L 395.353788 303.29975 
L 402.621897 303.404152 
L 405.041663 303.338099 
L 407.466774 303.392868 
L 409.891345 303.335168 
L 412.319161 303.451956 
L 422.022646 303.438711 
L 424.444566 303.331267 
L 426.864517 303.478823 
L 431.714545 303.433201 
L 431.714545 303.433201 
" style="fill:none;stroke:#1f77b4;stroke-linecap:square;stroke-width:1.5;"/>
   </g>
   <g id="line2d_16">
    <path clip-path="url(#pb755532a49)" d="M 66.005455 45.950012 
L 68.091613 67.728856 
L 70.094725 85.129362 
L 72.06636 98.760887 
L 74.026253 99.099419 
L 75.968229 118.711662 
L 77.908318 124.737519 
L 79.846463 147.689937 
L 81.792179 157.868444 
L 83.732023 162.314487 
L 85.679854 179.669856 
L 87.62233 180.459763 
L 89.570131 185.842409 
L 91.513096 198.977422 
L 93.454363 197.578159 
L 95.399678 214.335456 
L 97.343822 205.928597 
L 99.282821 219.548837 
L 101.232495 227.98955 
L 103.17826 229.693491 
L 105.122524 235.166412 
L 107.057542 224.175431 
L 109.008092 235.956319 
L 110.945942 230.855781 
L 112.890094 240.831169 
L 114.826713 239.962272 
L 116.768017 242.151441 
L 118.706456 248.893855 
L 120.647888 244.814553 
L 122.587397 248.848717 
L 124.53622 247.545372 
L 126.480858 235.279256 
L 128.423267 254.174942 
L 130.366073 252.392011 
L 132.313815 258.01163 
L 134.252082 260.528045 
L 136.195405 253.729209 
L 138.134129 256.697 
L 140.075445 253.441458 
L 142.010096 259.382681 
L 143.958602 263.185516 
L 145.906482 260.082313 
L 147.855266 260.042817 
L 149.794996 261.7524 
L 151.734688 262.660792 
L 153.670471 264.494503 
L 155.61307 265.256198 
L 157.551476 261.650841 
L 159.49682 268.937726 
L 161.432398 260.200798 
L 163.373235 268.607658 
L 165.306104 262.88648 
L 167.256501 261.537997 
L 169.19372 255.630627 
L 171.130413 264.556567 
L 173.065067 272.45563 
L 175.005251 264.968447 
L 176.947929 271.34694 
L 178.889235 259.027223 
L 180.819419 271.564164 
L 182.749237 267.005277 
L 184.699916 279.542217 
L 186.640349 274.348584 
L 188.579273 268.810777 
L 190.520249 273.141155 
L 192.460554 267.473578 
L 194.397423 272.500767 
L 196.330938 280.145931 
L 198.281811 269.507587 
L 200.229721 275.55037 
L 202.166075 280.377261 
L 204.098061 278.831302 
L 206.043803 277.53642 
L 207.9848 280.066941 
L 209.929516 281.009186 
L 211.858776 271.784209 
L 213.806611 274.746358 
L 215.74793 277.257131 
L 217.682482 277.492693 
L 219.615786 277.917267 
L 221.557029 282.41127 
L 223.50271 272.184805 
L 225.447317 282.972667 
L 227.384662 276.303602 
L 229.321567 282.115055 
L 231.264365 285.915068 
L 233.209089 280.81453 
L 235.155249 281.63829 
L 237.096107 284.06443 
L 239.036629 286.947588 
L 240.986779 285.034887 
L 242.93088 282.930351 
L 244.864943 284.524269 
L 246.796761 286.372085 
L 248.75083 278.958251 
L 250.689256 289.667123 
L 252.642213 289.132525 
L 254.589428 290.373807 
L 256.523207 288.633192 
L 258.461685 292.015683 
L 260.405259 290.881604 
L 262.343853 291.115754 
L 264.281739 290.502166 
L 266.214464 293.495347 
L 268.151759 291.837954 
L 270.090103 288.133858 
L 272.027404 291.005732 
L 273.971847 292.524891 
L 275.913517 297.353193 
L 277.848186 293.868437 
L 279.791454 291.602393 
L 281.72931 296.530844 
L 283.663527 299.564577 
L 285.600632 299.061717 
L 287.552861 298.714723 
L 289.492595 298.607169 
L 291.437338 298.026729 
L 293.374993 300.159299 
L 295.324058 301.057818 
L 297.26822 300.657399 
L 299.203327 300.133028 
L 301.135728 302.000416 
L 303.075997 301.112653 
L 305.021377 302.262954 
L 306.963861 301.887484 
L 308.905335 300.55531 
L 310.844658 302.050049 
L 312.782924 302.486084 
L 314.725177 301.699043 
L 316.663479 302.913216 
L 318.607921 303.212472 
L 320.550395 302.599986 
L 322.486231 303.222654 
L 324.430649 303.197551 
L 326.37239 302.514868 
L 328.31376 303.166762 
L 330.254718 302.830919 
L 332.192932 303.320776 
L 336.067627 303.405629 
L 338.005454 303.297413 
L 339.943727 303.306626 
L 341.884093 303.429079 
L 343.818575 303.077126 
L 345.761614 302.376767 
L 347.707237 303.382112 
L 349.64362 303.297413 
L 351.584643 303.395336 
L 355.469838 303.339091 
L 355.469838 303.339091 
" style="fill:none;stroke:#ff7f0e;stroke-linecap:square;stroke-width:1.5;"/>
   </g>
   <g id="line2d_17">
    <path clip-path="url(#pb755532a49)" d="M 66.099973 65.043175 
L 68.265108 80.29965 
L 70.342893 98.828594 
L 72.379403 119.817531 
L 74.399541 125.865956 
L 76.409136 143.6727 
L 78.406 155.295606 
L 80.407203 163.397787 
L 82.407287 182.107281 
L 84.404547 191.225056 
L 86.409942 209.629872 
L 88.411412 207.429419 
L 90.406395 212.044728 
L 92.408319 230.816286 
L 94.40171 236.306134 
L 96.397515 236.520537 
L 98.396236 233.755866 
L 100.392211 242.394055 
L 102.392341 249.469358 
L 104.390011 227.289919 
L 106.37765 250.231053 
L 108.371365 245.136158 
L 110.363418 247.156061 
L 112.364954 257.814153 
L 114.357063 262.70593 
L 116.360607 256.922687 
L 118.348502 253.277834 
L 120.344749 251.827792 
L 124.334468 249.649908 
L 126.324326 255.207462 
L 128.323275 263.732808 
L 130.314187 264.686337 
L 132.305567 261.853959 
L 134.298967 267.930595 
L 136.292951 262.892122 
L 138.285454 273.74487 
L 140.280019 259.879194 
L 142.270248 272.181984 
L 144.264149 273.46276 
L 146.25601 271.614944 
L 148.252672 272.007076 
L 150.245514 270.181828 
L 152.234667 274.67583 
L 154.220223 266.0856 
L 156.212842 272.362534 
L 158.204212 272.678496 
L 160.195756 280.21928 
L 162.191361 273.598173 
L 164.187118 274.712505 
L 166.179515 277.742359 
L 168.171864 279.282677 
L 170.162151 274.405005 
L 172.156012 273.084734 
L 174.150316 281.38157 
L 176.144926 275.65475 
L 178.138297 282.067096 
L 180.132804 275.668855 
L 182.122479 278.583045 
L 184.110771 274.808422 
L 186.106422 279.372952 
L 188.101878 277.866488 
L 190.095601 283.80489 
L 192.08927 277.33048 
L 194.08096 282.504366 
L 196.074617 278.735384 
L 198.070199 283.026268 
L 200.064036 279.519648 
L 202.059915 273.17783 
L 204.054554 276.743692 
L 206.048097 279.384236 
L 208.04166 291.124218 
L 210.037377 282.617209 
L 212.030481 282.583356 
L 214.025648 280.391366 
L 216.018282 287.747368 
L 218.01583 286.489161 
L 220.012342 289.878705 
L 222.005994 290.963415 
L 224.004321 291.80128 
L 225.999752 291.218724 
L 227.9938 291.922587 
L 229.989283 279.384236 
L 231.982969 286.985673 
L 233.981336 290.012707 
L 235.978916 291.307589 
L 237.972261 287.565408 
L 239.967103 292.612345 
L 241.963602 288.195922 
L 243.956414 294.258453 
L 245.951471 292.239255 
L 247.944966 291.269504 
L 249.940931 292.919844 
L 251.93413 293.737961 
L 253.929599 285.875573 
L 255.922333 291.158071 
L 257.916337 293.069362 
L 259.913261 293.753477 
L 261.90956 296.265308 
L 263.904152 297.762251 
L 265.901218 296.639456 
L 267.895577 295.922193 
L 269.893317 295.587188 
L 271.892103 294.543736 
L 273.893871 297.918822 
L 275.882278 293.828236 
L 277.878898 296.718446 
L 279.879476 300.190508 
L 281.879832 298.617395 
L 283.873582 299.181967 
L 285.869989 298.062345 
L 287.860459 297.235765 
L 289.855569 299.508508 
L 291.854383 298.018265 
L 293.84617 297.040933 
L 295.840485 301.152853 
L 297.835642 299.86185 
L 299.829093 301.096784 
L 301.820434 302.583589 
L 303.818443 300.645056 
L 305.813644 302.504466 
L 307.808189 302.584382 
L 309.807627 302.489038 
L 311.79817 300.804536 
L 313.791545 303.056827 
L 315.788394 302.367202 
L 317.783756 303.37323 
L 319.777498 302.351994 
L 321.770133 303.119817 
L 323.762042 303.265852 
L 325.758718 303.153802 
L 327.754318 303.391413 
L 329.746055 303.226489 
L 333.734992 303.375412 
L 335.730764 303.406092 
L 337.72363 302.92115 
L 339.716654 302.864155 
L 341.708843 303.332809 
L 343.696926 303.433708 
L 345.693326 303.35432 
L 347.691013 302.565075 
L 349.685561 303.434479 
L 353.675369 303.155918 
L 355.669487 303.370652 
L 357.663574 303.095044 
L 359.657524 303.411117 
L 361.648912 303.30332 
L 363.640254 303.371137 
L 363.640254 303.371137 
" style="fill:none;stroke:#2ca02c;stroke-linecap:square;stroke-width:1.5;"/>
   </g>
   <g id="patch_3">
    <path d="M 47.72 303.64 
L 47.72 14.76 
" style="fill:none;stroke:#000000;stroke-linecap:square;stroke-linejoin:miter;stroke-width:0.8;"/>
   </g>
   <g id="patch_4">
    <path d="M 450 303.64 
L 450 14.76 
" style="fill:none;stroke:#000000;stroke-linecap:square;stroke-linejoin:miter;stroke-width:0.8;"/>
   </g>
   <g id="patch_5">
    <path d="M 47.72 303.64 
L 450 303.64 
" style="fill:none;stroke:#000000;stroke-linecap:square;stroke-linejoin:miter;stroke-width:0.8;"/>
   </g>
   <g id="patch_6">
    <path d="M 47.72 14.76 
L 450 14.76 
" style="fill:none;stroke:#000000;stroke-linecap:square;stroke-linejoin:miter;stroke-width:0.8;"/>
   </g>
   <g id="legend_1">
    <g id="patch_7">
     <path d="M 361.492188 66.794375 
L 443 66.794375 
Q 445 66.794375 445 64.794375 
L 445 21.76 
Q 445 19.76 443 19.76 
L 361.492188 19.76 
Q 359.492188 19.76 359.492188 21.76 
L 359.492188 64.794375 
Q 359.492188 66.794375 361.492188 66.794375 
z
" style="fill:#ffffff;opacity:0.8;stroke:#cccccc;stroke-linejoin:miter;"/>
    </g>
    <g id="line2d_18">
     <path d="M 363.492188 27.858437 
L 383.492188 27.858437 
" style="fill:none;stroke:#1f77b4;stroke-linecap:square;stroke-width:1.5;"/>
    </g>
    <g id="line2d_19"/>
    <g id="text_17">
     <!-- Sync-SGD -->
     <g transform="translate(391.492188 31.358437)scale(0.1 -0.1)">
      <defs>
       <path d="M 53.515625 70.515625 
L 53.515625 60.890625 
Q 47.90625 63.578125 42.921875 64.890625 
Q 37.9375 66.21875 33.296875 66.21875 
Q 25.25 66.21875 20.875 63.09375 
Q 16.5 59.96875 16.5 54.203125 
Q 16.5 49.359375 19.40625 46.890625 
Q 22.3125 44.4375 30.421875 42.921875 
L 36.375 41.703125 
Q 47.40625 39.59375 52.65625 34.296875 
Q 57.90625 29 57.90625 20.125 
Q 57.90625 9.515625 50.796875 4.046875 
Q 43.703125 -1.421875 29.984375 -1.421875 
Q 24.8125 -1.421875 18.96875 -0.25 
Q 13.140625 0.921875 6.890625 3.21875 
L 6.890625 13.375 
Q 12.890625 10.015625 18.65625 8.296875 
Q 24.421875 6.59375 29.984375 6.59375 
Q 38.421875 6.59375 43.015625 9.90625 
Q 47.609375 13.234375 47.609375 19.390625 
Q 47.609375 24.75 44.3125 27.78125 
Q 41.015625 30.8125 33.5 32.328125 
L 27.484375 33.5 
Q 16.453125 35.6875 11.515625 40.375 
Q 6.59375 45.0625 6.59375 53.421875 
Q 6.59375 63.09375 13.40625 68.65625 
Q 20.21875 74.21875 32.171875 74.21875 
Q 37.3125 74.21875 42.625 73.28125 
Q 47.953125 72.359375 53.515625 70.515625 
z
" id="DejaVuSans-83"/>
       <path d="M 32.171875 -5.078125 
Q 28.375 -14.84375 24.75 -17.8125 
Q 21.140625 -20.796875 15.09375 -20.796875 
L 7.90625 -20.796875 
L 7.90625 -13.28125 
L 13.1875 -13.28125 
Q 16.890625 -13.28125 18.9375 -11.515625 
Q 21 -9.765625 23.484375 -3.21875 
L 25.09375 0.875 
L 2.984375 54.6875 
L 12.5 54.6875 
L 29.59375 11.921875 
L 46.6875 54.6875 
L 56.203125 54.6875 
z
" id="DejaVuSans-121"/>
       <path d="M 54.890625 33.015625 
L 54.890625 0 
L 45.90625 0 
L 45.90625 32.71875 
Q 45.90625 40.484375 42.875 44.328125 
Q 39.84375 48.1875 33.796875 48.1875 
Q 26.515625 48.1875 22.3125 43.546875 
Q 18.109375 38.921875 18.109375 30.90625 
L 18.109375 0 
L 9.078125 0 
L 9.078125 54.6875 
L 18.109375 54.6875 
L 18.109375 46.1875 
Q 21.34375 51.125 25.703125 53.5625 
Q 30.078125 56 35.796875 56 
Q 45.21875 56 50.046875 50.171875 
Q 54.890625 44.34375 54.890625 33.015625 
z
" id="DejaVuSans-110"/>
       <path d="M 4.890625 31.390625 
L 31.203125 31.390625 
L 31.203125 23.390625 
L 4.890625 23.390625 
z
" id="DejaVuSans-45"/>
       <path d="M 59.515625 10.40625 
L 59.515625 29.984375 
L 43.40625 29.984375 
L 43.40625 38.09375 
L 69.28125 38.09375 
L 69.28125 6.78125 
Q 63.578125 2.734375 56.6875 0.65625 
Q 49.8125 -1.421875 42 -1.421875 
Q 24.90625 -1.421875 15.25 8.5625 
Q 5.609375 18.5625 5.609375 36.375 
Q 5.609375 54.25 15.25 64.234375 
Q 24.90625 74.21875 42 74.21875 
Q 49.125 74.21875 55.546875 72.453125 
Q 61.96875 70.703125 67.390625 67.28125 
L 67.390625 56.78125 
Q 61.921875 61.421875 55.765625 63.765625 
Q 49.609375 66.109375 42.828125 66.109375 
Q 29.4375 66.109375 22.71875 58.640625 
Q 16.015625 51.171875 16.015625 36.375 
Q 16.015625 21.625 22.71875 14.15625 
Q 29.4375 6.6875 42.828125 6.6875 
Q 48.046875 6.6875 52.140625 7.59375 
Q 56.25 8.5 59.515625 10.40625 
z
" id="DejaVuSans-71"/>
       <path d="M 19.671875 64.796875 
L 19.671875 8.109375 
L 31.59375 8.109375 
Q 46.6875 8.109375 53.6875 14.9375 
Q 60.6875 21.78125 60.6875 36.53125 
Q 60.6875 51.171875 53.6875 57.984375 
Q 46.6875 64.796875 31.59375 64.796875 
z
M 9.8125 72.90625 
L 30.078125 72.90625 
Q 51.265625 72.90625 61.171875 64.09375 
Q 71.09375 55.28125 71.09375 36.53125 
Q 71.09375 17.671875 61.125 8.828125 
Q 51.171875 0 30.078125 0 
L 9.8125 0 
z
" id="DejaVuSans-68"/>
      </defs>
      <use xlink:href="#DejaVuSans-83"/>
      <use x="63.476562" xlink:href="#DejaVuSans-121"/>
      <use x="122.65625" xlink:href="#DejaVuSans-110"/>
      <use x="186.035156" xlink:href="#DejaVuSans-99"/>
      <use x="241.015625" xlink:href="#DejaVuSans-45"/>
      <use x="277.099609" xlink:href="#DejaVuSans-83"/>
      <use x="340.576172" xlink:href="#DejaVuSans-71"/>
      <use x="418.066406" xlink:href="#DejaVuSans-68"/>
     </g>
    </g>
    <g id="line2d_20">
     <path d="M 363.492188 42.536563 
L 383.492188 42.536563 
" style="fill:none;stroke:#ff7f0e;stroke-linecap:square;stroke-width:1.5;"/>
    </g>
    <g id="line2d_21"/>
    <g id="text_18">
     <!-- DP-SGD -->
     <g transform="translate(391.492188 46.036563)scale(0.1 -0.1)">
      <defs>
       <path d="M 19.671875 64.796875 
L 19.671875 37.40625 
L 32.078125 37.40625 
Q 38.96875 37.40625 42.71875 40.96875 
Q 46.484375 44.53125 46.484375 51.125 
Q 46.484375 57.671875 42.71875 61.234375 
Q 38.96875 64.796875 32.078125 64.796875 
z
M 9.8125 72.90625 
L 32.078125 72.90625 
Q 44.34375 72.90625 50.609375 67.359375 
Q 56.890625 61.8125 56.890625 51.125 
Q 56.890625 40.328125 50.609375 34.8125 
Q 44.34375 29.296875 32.078125 29.296875 
L 19.671875 29.296875 
L 19.671875 0 
L 9.8125 0 
z
" id="DejaVuSans-80"/>
      </defs>
      <use xlink:href="#DejaVuSans-68"/>
      <use x="77.001953" xlink:href="#DejaVuSans-80"/>
      <use x="135.054688" xlink:href="#DejaVuSans-45"/>
      <use x="171.138672" xlink:href="#DejaVuSans-83"/>
      <use x="234.615234" xlink:href="#DejaVuSans-71"/>
      <use x="312.105469" xlink:href="#DejaVuSans-68"/>
     </g>
    </g>
    <g id="line2d_22">
     <path d="M 363.492188 57.214687 
L 383.492188 57.214687 
" style="fill:none;stroke:#2ca02c;stroke-linecap:square;stroke-width:1.5;"/>
    </g>
    <g id="line2d_23"/>
    <g id="text_19">
     <!-- EDP-SGD -->
     <g transform="translate(391.492188 60.714687)scale(0.1 -0.1)">
      <defs>
       <path d="M 9.8125 72.90625 
L 55.90625 72.90625 
L 55.90625 64.59375 
L 19.671875 64.59375 
L 19.671875 43.015625 
L 54.390625 43.015625 
L 54.390625 34.71875 
L 19.671875 34.71875 
L 19.671875 8.296875 
L 56.78125 8.296875 
L 56.78125 0 
L 9.8125 0 
z
" id="DejaVuSans-69"/>
      </defs>
      <use xlink:href="#DejaVuSans-69"/>
      <use x="63.183594" xlink:href="#DejaVuSans-68"/>
      <use x="140.185547" xlink:href="#DejaVuSans-80"/>
      <use x="198.238281" xlink:href="#DejaVuSans-45"/>
      <use x="234.322266" xlink:href="#DejaVuSans-83"/>
      <use x="297.798828" xlink:href="#DejaVuSans-71"/>
      <use x="375.289062" xlink:href="#DejaVuSans-68"/>
     </g>
    </g>
   </g>
  </g>
 </g>
 <defs>
  <clipPath id="pb755532a49">
   <rect height="288.88" width="402.28" x="47.72" y="14.76"/>
  </clipPath>
 </defs>
</svg>
