<?xml version="1.0" encoding="utf-8" standalone="no"?>
<!DOCTYPE svg PUBLIC "-//W3C//DTD SVG 1.1//EN"
  "http://www.w3.org/Graphics/SVG/1.1/DTD/svg11.dtd">
<!-- Created with matplotlib (https://matplotlib.org/) -->
<svg height="345.6pt" version="1.1" viewBox="0 0 460.8 345.6" width="460.8pt" xmlns="http://www.w3.org/2000/svg" xmlns:xlink="http://www.w3.org/1999/xlink">
 <metadata>
  <rdf:RDF xmlns:cc="http://creativecommons.org/ns#" xmlns:dc="http://purl.org/dc/elements/1.1/" xmlns:rdf="http://www.w3.org/1999/02/22-rdf-syntax-ns#">
   <cc:Work>
    <dc:type rdf:resource="http://purl.org/dc/dcmitype/StillImage"/>
    <dc:date>2021-06-24T12:04:29.186828</dc:date>
    <dc:format>image/svg+xml</dc:format>
    <dc:creator>
     <cc:Agent>
      <dc:title>Matplotlib v3.3.1, https://matplotlib.org/</dc:title>
     </cc:Agent>
    </dc:creator>
   </cc:Work>
  </rdf:RDF>
 </metadata>
 <defs>
  <style type="text/css">*{stroke-linecap:butt;stroke-linejoin:round;}</style>
 </defs>
 <g id="figure_1">
  <g id="patch_1">
   <path d="M 0 345.6 
L 460.8 345.6 
L 460.8 0 
L 0 0 
z
" style="fill:#ffffff;"/>
  </g>
  <g id="axes_1">
   <g id="patch_2">
    <path d="M 47.72 303.64 
L 450 303.64 
L 450 14.76 
L 47.72 14.76 
z
" style="fill:#ffffff;"/>
   </g>
   <g id="PolyCollection_1">
    <path clip-path="url(#p646a26c215)" d="M 66.005455 40.920427 
L 66.005455 44.840898 
L 68.459878 40.452135 
L 70.914301 66.668125 
L 73.368725 80.590996 
L 75.823148 94.41466 
L 78.277572 108.244982 
L 80.731995 129.737752 
L 83.186419 128.065734 
L 85.640842 171.012972 
L 88.095265 171.451598 
L 90.549689 203.289948 
L 93.004112 204.523861 
L 95.458536 200.888848 
L 97.912959 232.571006 
L 100.367383 225.782346 
L 102.821806 227.596913 
L 105.276229 241.10186 
L 107.730653 240.781144 
L 110.185076 232.722844 
L 112.6395 246.545182 
L 115.093923 233.178658 
L 117.548347 239.911698 
L 120.00277 252.324796 
L 122.457193 249.697651 
L 124.911617 259.328716 
L 127.36604 258.094628 
L 129.820464 256.63819 
L 132.274887 250.990331 
L 134.729311 264.861618 
L 137.183734 245.497769 
L 139.638157 260.851543 
L 142.092581 260.994805 
L 144.547004 262.620669 
L 147.001428 269.985327 
L 149.455851 256.276294 
L 151.910275 251.053612 
L 154.364698 264.765317 
L 156.819121 256.534113 
L 159.273545 258.038946 
L 161.727968 262.995774 
L 164.182392 253.444793 
L 166.636815 249.929023 
L 169.091239 270.431393 
L 171.545662 266.217808 
L 174.000085 266.362558 
L 176.454509 260.699058 
L 178.908932 264.911653 
L 181.363356 272.830253 
L 183.817779 260.278371 
L 186.272203 278.965172 
L 188.726626 268.476839 
L 191.181049 270.547604 
L 193.635473 256.964054 
L 196.089896 274.95133 
L 198.54432 276.637898 
L 200.998743 280.168193 
L 203.453167 280.856776 
L 205.90759 270.888607 
L 208.362013 273.00403 
L 210.816437 276.550814 
L 213.27086 280.823266 
L 215.725284 278.297603 
L 218.179707 276.883222 
L 220.634131 278.021051 
L 223.088554 281.109993 
L 225.542977 267.889307 
L 227.997401 281.843732 
L 230.451824 266.330858 
L 232.906248 286.832082 
L 235.360671 284.971095 
L 237.815095 279.43559 
L 240.269518 283.613195 
L 242.723941 275.464026 
L 245.178365 280.541818 
L 247.632788 288.511974 
L 250.087212 284.2952 
L 252.541635 280.872385 
L 254.996059 288.688507 
L 257.450482 276.702012 
L 259.904905 279.607341 
L 262.359329 283.37472 
L 264.813752 293.505327 
L 267.268176 285.000931 
L 269.722599 280.550247 
L 272.177023 290.101366 
L 274.631446 283.030685 
L 277.085869 288.547873 
L 279.540293 293.34827 
L 281.994716 283.697568 
L 284.44914 290.279818 
L 286.903563 282.467293 
L 289.357987 289.682481 
L 291.81241 293.088233 
L 294.266833 288.461386 
L 296.721257 292.810199 
L 299.17568 290.657956 
L 301.630104 289.813342 
L 304.084527 292.505496 
L 306.538951 287.144508 
L 308.993374 290.13208 
L 311.447797 295.011045 
L 313.902221 297.20809 
L 316.356644 297.607933 
L 318.811068 293.918254 
L 321.265491 297.113313 
L 323.719915 300.145161 
L 326.174338 301.870819 
L 328.628761 299.120053 
L 331.083185 298.35432 
L 333.537608 296.145649 
L 335.992032 301.050088 
L 338.446455 297.497748 
L 340.900879 300.390339 
L 343.355302 301.226769 
L 345.809725 301.481439 
L 348.264149 298.235506 
L 350.718572 300.943622 
L 353.172996 300.364914 
L 355.627419 303.315611 
L 358.081843 301.823757 
L 360.536266 301.866759 
L 362.990689 302.606657 
L 365.445113 303.176188 
L 367.899536 302.31564 
L 370.35396 303.21999 
L 372.808383 303.405934 
L 375.262807 303.316314 
L 377.71723 303.581444 
L 380.171653 303.451539 
L 382.626077 303.240333 
L 385.0805 303.306457 
L 387.534924 303.515308 
L 389.989347 303.334177 
L 392.443771 303.484192 
L 394.898194 303.307385 
L 397.352617 303.10087 
L 399.807041 303.997823 
L 402.261464 303.374188 
L 404.715888 303.578327 
L 407.170311 303.439895 
L 409.624735 303.556607 
L 412.079158 303.5166 
L 414.533581 303.948107 
L 416.988005 303.547823 
L 419.442428 303.648296 
L 421.896852 303.53244 
L 424.351275 303.547347 
L 426.805699 303.55413 
L 429.260122 303.543921 
L 431.714545 303.462085 
L 431.714545 303.389064 
L 431.714545 303.389064 
L 429.260122 303.4141 
L 426.805699 303.490705 
L 424.351275 303.155607 
L 421.896852 303.410395 
L 419.442428 303.094638 
L 416.988005 303.453726 
L 414.533581 302.134559 
L 412.079158 303.424009 
L 409.624735 303.1225 
L 407.170311 302.878685 
L 404.715888 303.147923 
L 402.261464 302.500069 
L 399.807041 301.824288 
L 397.352617 301.91194 
L 394.898194 302.673413 
L 392.443771 302.183024 
L 389.989347 302.282964 
L 387.534924 302.189288 
L 385.0805 302.719919 
L 382.626077 302.79962 
L 380.171653 301.500618 
L 377.71723 302.625614 
L 375.262807 302.938571 
L 372.808383 303.155083 
L 370.35396 301.344796 
L 367.899536 300.872011 
L 365.445113 301.461328 
L 362.990689 299.333762 
L 360.536266 298.932836 
L 358.081843 298.676802 
L 355.627419 299.816852 
L 353.172996 293.249708 
L 350.718572 296.856093 
L 348.264149 289.244647 
L 345.809725 298.60054 
L 343.355302 297.88828 
L 340.900879 297.090592 
L 338.446455 292.951607 
L 335.992032 295.236462 
L 333.537608 292.391004 
L 331.083185 292.120425 
L 328.628761 295.042567 
L 326.174338 297.839481 
L 323.719915 293.463818 
L 321.265491 292.819782 
L 318.811068 290.584235 
L 316.356644 288.008888 
L 313.902221 292.328641 
L 311.447797 289.976672 
L 308.993374 285.038231 
L 306.538951 281.717838 
L 304.084527 285.579005 
L 301.630104 284.967658 
L 299.17568 286.298107 
L 296.721257 288.775279 
L 294.266833 284.494366 
L 291.81241 286.956928 
L 289.357987 278.880829 
L 286.903563 273.028711 
L 284.44914 287.071199 
L 281.994716 276.334754 
L 279.540293 289.718282 
L 277.085869 281.93378 
L 274.631446 273.593756 
L 272.177023 287.097311 
L 269.722599 272.164157 
L 267.268176 278.783445 
L 264.813752 286.266187 
L 262.359329 275.297835 
L 259.904905 276.943751 
L 257.450482 271.086763 
L 254.996059 277.795656 
L 252.541635 268.648542 
L 250.087212 282.462609 
L 247.632788 281.924542 
L 245.178365 273.893454 
L 242.723941 268.87173 
L 240.269518 273.321566 
L 237.815095 270.677766 
L 235.360671 279.840159 
L 232.906248 276.867662 
L 230.451824 256.203485 
L 227.997401 270.960948 
L 225.542977 260.027684 
L 223.088554 272.332254 
L 220.634131 272.95556 
L 218.179707 271.283579 
L 215.725284 273.395565 
L 213.27086 270.711921 
L 210.816437 266.916046 
L 208.362013 266.163483 
L 205.90759 262.997818 
L 203.453167 273.036846 
L 200.998743 277.759593 
L 198.54432 265.519974 
L 196.089896 267.048561 
L 193.635473 243.678602 
L 191.181049 264.027168 
L 188.726626 265.138761 
L 186.272203 269.777133 
L 183.817779 249.798023 
L 181.363356 263.08736 
L 178.908932 257.216454 
L 176.454509 255.414476 
L 174.000085 261.825257 
L 171.545662 258.054329 
L 169.091239 261.378707 
L 166.636815 244.72163 
L 164.182392 245.155392 
L 161.727968 257.913619 
L 159.273545 251.563504 
L 156.819121 245.507806 
L 154.364698 256.268205 
L 151.910275 241.983375 
L 149.455851 250.121394 
L 147.001428 257.73983 
L 144.547004 255.162952 
L 142.092581 251.191767 
L 139.638157 252.203926 
L 137.183734 240.012541 
L 134.729311 254.355119 
L 132.274887 245.646372 
L 129.820464 251.215182 
L 127.36604 251.767363 
L 124.911617 253.896019 
L 122.457193 242.865393 
L 120.00277 245.654747 
L 117.548347 232.655433 
L 115.093923 223.093836 
L 112.6395 235.02688 
L 110.185076 218.426543 
L 107.730653 231.718281 
L 105.276229 231.578115 
L 102.821806 212.200393 
L 100.367383 217.716235 
L 97.912959 228.644044 
L 95.458536 196.072971 
L 93.004112 194.175751 
L 90.549689 197.576264 
L 88.095265 162.475702 
L 85.640842 155.963153 
L 83.186419 123.350216 
L 80.731995 117.660961 
L 78.277572 100.33548 
L 75.823148 92.590077 
L 73.368725 70.890529 
L 70.914301 59.446125 
L 68.459878 33.57344 
L 66.005455 40.920427 
z
" style="fill:#1f77b4;fill-opacity:0.25;"/>
   </g>
   <g id="PolyCollection_2">
    <path clip-path="url(#p646a26c215)" d="M 66.005455 42.204854 
L 66.005455 45.452246 
L 68.459878 53.740768 
L 70.914301 72.38615 
L 73.368725 81.564474 
L 75.823148 103.485085 
L 78.277572 120.454789 
L 80.731995 137.209467 
L 83.186419 164.087552 
L 85.640842 187.122145 
L 88.095265 205.67043 
L 90.549689 214.5544 
L 93.004112 234.36422 
L 95.458536 235.99413 
L 97.912959 235.21903 
L 100.367383 243.806004 
L 102.821806 250.314052 
L 105.276229 246.33171 
L 107.730653 256.304561 
L 110.185076 257.149113 
L 112.6395 249.806909 
L 115.093923 251.863041 
L 117.548347 259.986596 
L 120.00277 264.167962 
L 122.457193 261.069399 
L 124.911617 259.288663 
L 127.36604 262.301924 
L 129.820464 268.764094 
L 132.274887 262.470813 
L 134.729311 265.720227 
L 137.183734 264.307187 
L 139.638157 269.296297 
L 142.092581 264.498175 
L 144.547004 267.994029 
L 147.001428 272.773715 
L 149.455851 272.028271 
L 151.910275 270.805244 
L 154.364698 269.52675 
L 156.819121 274.210842 
L 159.273545 270.994935 
L 161.727968 276.768136 
L 164.182392 271.47872 
L 166.636815 276.916935 
L 169.091239 268.211732 
L 171.545662 273.950284 
L 174.000085 273.034091 
L 176.454509 273.885276 
L 178.908932 276.558035 
L 181.363356 274.137715 
L 183.817779 281.847929 
L 186.272203 274.032538 
L 188.726626 267.353657 
L 191.181049 278.766623 
L 193.635473 275.459726 
L 196.089896 279.275135 
L 198.54432 279.777425 
L 200.998743 280.347603 
L 203.453167 275.831242 
L 205.90759 281.502306 
L 208.362013 284.744578 
L 210.816437 278.944482 
L 213.27086 282.162795 
L 215.725284 287.594166 
L 218.179707 284.268024 
L 220.634131 282.919366 
L 223.088554 284.756961 
L 225.542977 282.557615 
L 227.997401 283.738491 
L 230.451824 285.183458 
L 232.906248 281.857631 
L 235.360671 284.673957 
L 237.815095 290.207568 
L 240.269518 280.929126 
L 242.723941 286.923466 
L 245.178365 287.694383 
L 247.632788 283.151909 
L 250.087212 288.712376 
L 252.541635 283.008958 
L 254.996059 290.581046 
L 257.450482 289.769591 
L 259.904905 291.647471 
L 262.359329 285.444739 
L 264.813752 290.674703 
L 267.268176 289.04895 
L 269.722599 291.208024 
L 272.177023 292.611492 
L 274.631446 293.444574 
L 277.085869 291.734567 
L 279.540293 292.244507 
L 281.994716 291.651369 
L 284.44914 291.599932 
L 286.903563 292.433624 
L 289.357987 294.168262 
L 291.81241 293.363667 
L 294.266833 295.92512 
L 296.721257 294.646573 
L 299.17568 295.673301 
L 301.630104 294.340528 
L 304.084527 295.039013 
L 306.538951 297.008382 
L 308.993374 297.671018 
L 311.447797 297.396051 
L 313.902221 297.638991 
L 316.356644 299.561362 
L 318.811068 299.367941 
L 321.265491 295.378518 
L 323.719915 300.745765 
L 326.174338 297.863337 
L 328.628761 299.838584 
L 331.083185 300.372068 
L 333.537608 299.137306 
L 335.992032 300.187884 
L 338.446455 299.669313 
L 340.900879 299.613616 
L 343.355302 301.865429 
L 345.809725 300.680027 
L 348.264149 300.77302 
L 350.718572 301.589113 
L 353.172996 300.921374 
L 355.627419 302.854539 
L 358.081843 302.450856 
L 360.536266 301.949227 
L 362.990689 302.90826 
L 365.445113 302.96969 
L 367.899536 302.90728 
L 370.35396 302.09933 
L 372.808383 303.075051 
L 375.262807 304.188847 
L 377.71723 303.344426 
L 380.171653 303.356799 
L 382.626077 303.580802 
L 385.0805 303.532695 
L 387.534924 303.83031 
L 389.989347 303.826517 
L 392.443771 303.479221 
L 394.898194 303.592712 
L 397.352617 303.31374 
L 399.807041 303.552699 
L 402.261464 303.518563 
L 404.715888 303.507228 
L 407.170311 303.466259 
L 409.624735 303.576995 
L 412.079158 303.516488 
L 414.533581 303.727932 
L 416.988005 303.541067 
L 419.442428 303.526247 
L 421.896852 303.553367 
L 424.351275 303.550788 
L 426.805699 303.554534 
L 429.260122 303.536165 
L 431.714545 303.558682 
L 431.714545 303.454306 
L 431.714545 303.454306 
L 429.260122 303.311679 
L 426.805699 303.418606 
L 424.351275 303.497111 
L 421.896852 303.347152 
L 419.442428 303.455401 
L 416.988005 303.460592 
L 414.533581 302.760442 
L 412.079158 302.608318 
L 409.624735 303.304063 
L 407.170311 303.134386 
L 404.715888 303.403649 
L 402.261464 303.472583 
L 399.807041 303.458967 
L 397.352617 302.73494 
L 394.898194 303.047979 
L 392.443771 303.361306 
L 389.989347 302.158601 
L 387.534924 302.039099 
L 385.0805 302.74833 
L 382.626077 303.033288 
L 380.171653 303.034116 
L 377.71723 302.031424 
L 375.262807 297.832018 
L 372.808383 302.581586 
L 370.35396 300.591455 
L 367.899536 301.204102 
L 365.445113 301.730243 
L 362.990689 301.2636 
L 360.536266 300.405848 
L 358.081843 300.190914 
L 355.627419 295.634227 
L 353.172996 298.702883 
L 350.718572 298.3102 
L 348.264149 297.226992 
L 345.809725 296.985686 
L 343.355302 298.544855 
L 340.900879 295.831896 
L 338.446455 294.728162 
L 335.992032 296.153325 
L 333.537608 295.10924 
L 331.083185 296.713204 
L 328.628761 288.499182 
L 326.174338 291.047111 
L 323.719915 294.572797 
L 321.265491 293.290726 
L 318.811068 293.111896 
L 316.356644 292.775304 
L 313.902221 292.87807 
L 311.447797 293.594954 
L 308.993374 291.642846 
L 306.538951 289.251649 
L 304.084527 290.964298 
L 301.630104 287.002336 
L 299.17568 287.459547 
L 296.721257 285.754046 
L 294.266833 287.525101 
L 291.81241 287.55039 
L 289.357987 284.56509 
L 286.903563 288.480433 
L 284.44914 281.220408 
L 281.994716 285.662973 
L 279.540293 286.313937 
L 277.085869 288.214676 
L 274.631446 286.075863 
L 272.177023 287.377247 
L 269.722599 284.07231 
L 267.268176 283.607766 
L 264.813752 281.928413 
L 262.359329 278.892572 
L 259.904905 283.940362 
L 257.450482 281.978733 
L 254.996059 282.298537 
L 252.541635 275.229148 
L 250.087212 273.779939 
L 247.632788 278.048346 
L 245.178365 280.688376 
L 242.723941 280.895075 
L 240.269518 269.641248 
L 237.815095 283.047221 
L 235.360671 275.894373 
L 232.906248 272.690484 
L 230.451824 273.664004 
L 227.997401 272.959298 
L 225.542977 277.254661 
L 223.088554 277.080861 
L 220.634131 270.816275 
L 218.179707 273.620267 
L 215.725284 267.656402 
L 213.27086 269.028219 
L 210.816437 272.822035 
L 208.362013 271.157663 
L 205.90759 272.176912 
L 203.453167 257.908486 
L 200.998743 273.303405 
L 198.54432 269.292127 
L 196.089896 275.983896 
L 193.635473 268.864745 
L 191.181049 272.012512 
L 188.726626 265.336624 
L 186.272203 264.017822 
L 183.817779 262.899706 
L 181.363356 271.236204 
L 178.908932 270.282852 
L 176.454509 264.012744 
L 174.000085 267.510115 
L 171.545662 270.983544 
L 169.091239 259.772965 
L 166.636815 266.318594 
L 164.182392 263.242749 
L 161.727968 265.795974 
L 159.273545 263.489562 
L 156.819121 262.89163 
L 154.364698 258.627212 
L 151.910275 251.153597 
L 149.455851 265.581998 
L 147.001428 259.724732 
L 144.547004 258.692965 
L 142.092581 255.824431 
L 139.638157 260.031241 
L 137.183734 257.482388 
L 134.729311 259.578789 
L 132.274887 251.126306 
L 129.820464 256.444647 
L 127.36604 252.243082 
L 124.911617 246.296549 
L 122.457193 254.841017 
L 120.00277 250.771997 
L 117.548347 245.700176 
L 115.093923 243.99504 
L 112.6395 240.67981 
L 110.185076 249.812793 
L 107.730653 241.957092 
L 105.276229 223.741575 
L 102.821806 241.097985 
L 100.367383 233.297446 
L 97.912959 227.891795 
L 95.458536 219.488457 
L 93.004112 218.72608 
L 90.549689 204.118556 
L 88.095265 199.641827 
L 85.640842 165.559786 
L 83.186419 151.243098 
L 80.731995 113.980796 
L 78.277572 109.656261 
L 75.823148 87.491753 
L 73.368725 72.670439 
L 70.914301 56.842588 
L 68.459878 50.256107 
L 66.005455 42.204854 
z
" style="fill:#ff7f0e;fill-opacity:0.25;"/>
   </g>
   <g id="PolyCollection_3">
    <path clip-path="url(#p646a26c215)" d="M 66.005455 24.212415 
L 66.005455 39.792635 
L 68.459878 84.803095 
L 70.914301 101.664453 
L 73.368725 120.946271 
L 75.823148 145.042877 
L 78.277572 178.252744 
L 80.731995 198.096479 
L 83.186419 213.630431 
L 85.640842 225.522849 
L 88.095265 240.901921 
L 90.549689 238.662565 
L 93.004112 252.319907 
L 95.458536 257.488398 
L 97.912959 253.876683 
L 100.367383 256.126394 
L 102.821806 267.944526 
L 105.276229 256.058162 
L 107.730653 262.396527 
L 110.185076 267.363046 
L 112.6395 260.418869 
L 115.093923 268.896972 
L 117.548347 273.323604 
L 120.00277 264.498023 
L 122.457193 271.376269 
L 124.911617 265.228356 
L 127.36604 272.203146 
L 129.820464 273.289734 
L 132.274887 269.208135 
L 134.729311 268.340308 
L 137.183734 270.794996 
L 139.638157 276.787825 
L 142.092581 280.505567 
L 144.547004 273.164008 
L 147.001428 281.593523 
L 149.455851 272.380236 
L 151.910275 276.831993 
L 154.364698 275.033217 
L 156.819121 277.946732 
L 159.273545 278.893643 
L 161.727968 280.204666 
L 164.182392 278.856835 
L 166.636815 283.781776 
L 169.091239 273.938692 
L 171.545662 275.660101 
L 174.000085 282.724525 
L 176.454509 285.776301 
L 178.908932 277.944073 
L 181.363356 281.015854 
L 183.817779 279.870722 
L 186.272203 282.576964 
L 188.726626 281.696955 
L 191.181049 284.227126 
L 193.635473 276.933505 
L 196.089896 282.433518 
L 198.54432 280.032493 
L 200.998743 285.500016 
L 203.453167 282.331659 
L 205.90759 282.020543 
L 208.362013 282.86889 
L 210.816437 287.38542 
L 213.27086 290.776686 
L 215.725284 284.458883 
L 218.179707 286.670454 
L 220.634131 290.187287 
L 223.088554 290.248906 
L 225.542977 286.330203 
L 227.997401 290.532666 
L 230.451824 287.414959 
L 232.906248 289.914783 
L 235.360671 285.7118 
L 237.815095 285.970989 
L 240.269518 288.564287 
L 242.723941 284.073101 
L 245.178365 292.836121 
L 247.632788 285.94978 
L 250.087212 290.629713 
L 252.541635 291.500594 
L 254.996059 291.296694 
L 257.450482 291.298765 
L 259.904905 292.662715 
L 262.359329 290.384123 
L 264.813752 290.602815 
L 267.268176 288.858394 
L 269.722599 294.538218 
L 272.177023 295.248114 
L 274.631446 294.788709 
L 277.085869 293.726525 
L 279.540293 296.962577 
L 281.994716 295.599405 
L 284.44914 294.990549 
L 286.903563 296.813806 
L 289.357987 294.05261 
L 291.81241 295.843439 
L 294.266833 296.977207 
L 296.721257 298.052196 
L 299.17568 297.933223 
L 301.630104 295.674637 
L 304.084527 297.783328 
L 306.538951 299.142306 
L 308.993374 297.157012 
L 311.447797 299.134308 
L 313.902221 299.630357 
L 316.356644 298.979376 
L 318.811068 298.131244 
L 321.265491 299.057705 
L 323.719915 298.926985 
L 326.174338 299.47521 
L 328.628761 300.167394 
L 331.083185 298.139268 
L 333.537608 300.203647 
L 335.992032 301.080537 
L 338.446455 300.699261 
L 340.900879 301.593159 
L 343.355302 301.309433 
L 345.809725 301.958845 
L 348.264149 303.111369 
L 350.718572 301.589505 
L 353.172996 302.940577 
L 355.627419 302.33265 
L 358.081843 303.023553 
L 360.536266 302.465153 
L 362.990689 302.978056 
L 365.445113 303.284043 
L 367.899536 303.239628 
L 370.35396 303.279488 
L 372.808383 303.264192 
L 375.262807 303.270838 
L 377.71723 303.333739 
L 380.171653 303.371937 
L 382.626077 303.312959 
L 385.0805 303.412466 
L 387.534924 303.443434 
L 389.989347 303.436452 
L 392.443771 303.408731 
L 394.898194 303.429529 
L 397.352617 303.408183 
L 399.807041 303.375435 
L 402.261464 303.423795 
L 404.715888 303.47971 
L 407.170311 303.62588 
L 409.624735 303.462896 
L 412.079158 303.456787 
L 414.533581 303.432627 
L 416.988005 303.441652 
L 419.442428 303.653038 
L 421.896852 303.470605 
L 424.351275 303.484978 
L 426.805699 303.543555 
L 429.260122 303.461489 
L 431.714545 303.412517 
L 431.714545 303.38631 
L 431.714545 303.38631 
L 429.260122 303.409849 
L 426.805699 303.098789 
L 424.351275 303.128626 
L 421.896852 303.362252 
L 419.442428 302.666776 
L 416.988005 303.358321 
L 414.533581 303.270723 
L 412.079158 303.252118 
L 409.624735 303.359823 
L 407.170311 302.137209 
L 404.715888 303.033702 
L 402.261464 303.16182 
L 399.807041 303.113512 
L 397.352617 303.0135 
L 394.898194 303.090274 
L 392.443771 302.965125 
L 389.989347 303.14947 
L 387.534924 303.358258 
L 385.0805 303.335141 
L 382.626077 303.116481 
L 380.171653 303.126532 
L 377.71723 302.217724 
L 375.262807 302.877287 
L 372.808383 303.036006 
L 370.35396 302.678036 
L 367.899536 301.593779 
L 365.445113 303.038724 
L 362.990689 301.755907 
L 360.536266 300.197069 
L 358.081843 299.380186 
L 355.627419 298.507498 
L 353.172996 297.43127 
L 350.718572 296.304716 
L 348.264149 298.004718 
L 345.809725 298.119961 
L 343.355302 297.80597 
L 340.900879 294.057587 
L 338.446455 297.689357 
L 335.992032 297.084861 
L 333.537608 296.553673 
L 331.083185 296.65175 
L 328.628761 294.699089 
L 326.174338 294.731136 
L 323.719915 295.428174 
L 321.265491 292.656911 
L 318.811068 294.283003 
L 316.356644 293.987805 
L 313.902221 290.81265 
L 311.447797 294.059266 
L 308.993374 292.725303 
L 306.538951 292.294432 
L 304.084527 292.221705 
L 301.630104 290.366759 
L 299.17568 293.142414 
L 296.721257 290.399824 
L 294.266833 291.762565 
L 291.81241 290.113324 
L 289.357987 289.13807 
L 286.903563 292.093821 
L 284.44914 286.459516 
L 281.994716 287.182217 
L 279.540293 292.742009 
L 277.085869 286.947739 
L 274.631446 293.640742 
L 272.177023 290.955494 
L 269.722599 288.976888 
L 267.268176 278.429781 
L 264.813752 283.594219 
L 262.359329 280.523516 
L 259.904905 284.355412 
L 257.450482 282.066046 
L 254.996059 287.541039 
L 252.541635 288.135508 
L 250.087212 282.647644 
L 247.632788 280.34537 
L 245.178365 282.328547 
L 242.723941 278.740819 
L 240.269518 281.245946 
L 237.815095 277.170178 
L 235.360671 279.844223 
L 232.906248 280.792558 
L 230.451824 276.423019 
L 227.997401 279.111122 
L 225.542977 276.252388 
L 223.088554 283.553174 
L 220.634131 281.761334 
L 218.179707 280.465382 
L 215.725284 267.91699 
L 213.27086 272.539389 
L 210.816437 281.996006 
L 208.362013 275.927793 
L 205.90759 278.16976 
L 203.453167 270.777699 
L 200.998743 279.192752 
L 198.54432 269.934166 
L 196.089896 278.608756 
L 193.635473 272.344807 
L 191.181049 274.767033 
L 188.726626 271.034376 
L 186.272203 265.375434 
L 183.817779 272.787261 
L 181.363356 275.715788 
L 178.908932 272.835061 
L 176.454509 272.207907 
L 174.000085 277.849447 
L 171.545662 268.562812 
L 169.091239 270.577615 
L 166.636815 268.012953 
L 164.182392 268.452354 
L 161.727968 272.069649 
L 159.273545 268.460684 
L 156.819121 269.926676 
L 154.364698 268.743962 
L 151.910275 262.46529 
L 149.455851 264.101595 
L 147.001428 266.392729 
L 144.547004 264.446261 
L 142.092581 273.404982 
L 139.638157 264.275463 
L 137.183734 263.475098 
L 134.729311 258.71907 
L 132.274887 257.851243 
L 129.820464 259.823711 
L 127.36604 264.820335 
L 124.911617 256.064707 
L 122.457193 267.452712 
L 120.00277 255.124952 
L 117.548347 261.623552 
L 115.093923 255.126909 
L 112.6395 246.881569 
L 110.185076 248.107279 
L 107.730653 255.03728 
L 105.276229 244.810182 
L 102.821806 254.048168 
L 100.367383 242.202966 
L 97.912959 244.125429 
L 95.458536 240.773256 
L 93.004112 235.76324 
L 90.549689 224.109728 
L 88.095265 221.960648 
L 85.640842 218.56252 
L 83.186419 194.254663 
L 80.731995 184.06024 
L 78.277572 166.913794 
L 75.823148 127.542561 
L 73.368725 100.724066 
L 70.914301 82.677172 
L 68.459878 56.838455 
L 66.005455 24.212415 
z
" style="fill:#2ca02c;fill-opacity:0.25;"/>
   </g>
   <g id="matplotlib.axis_1">
    <g id="xtick_1">
     <g id="line2d_1">
      <defs>
       <path d="M 0 0 
L 0 3.5 
" id="m7c9f1f01c2" style="stroke:#000000;stroke-width:0.8;"/>
      </defs>
      <g>
       <use style="stroke:#000000;stroke-width:0.8;" x="66.005455" xlink:href="#m7c9f1f01c2" y="303.64"/>
      </g>
     </g>
     <g id="text_1">
      <!-- 0 -->
      <g transform="translate(62.824205 318.238437)scale(0.1 -0.1)">
       <defs>
        <path d="M 31.78125 66.40625 
Q 24.171875 66.40625 20.328125 58.90625 
Q 16.5 51.421875 16.5 36.375 
Q 16.5 21.390625 20.328125 13.890625 
Q 24.171875 6.390625 31.78125 6.390625 
Q 39.453125 6.390625 43.28125 13.890625 
Q 47.125 21.390625 47.125 36.375 
Q 47.125 51.421875 43.28125 58.90625 
Q 39.453125 66.40625 31.78125 66.40625 
z
M 31.78125 74.21875 
Q 44.046875 74.21875 50.515625 64.515625 
Q 56.984375 54.828125 56.984375 36.375 
Q 56.984375 17.96875 50.515625 8.265625 
Q 44.046875 -1.421875 31.78125 -1.421875 
Q 19.53125 -1.421875 13.0625 8.265625 
Q 6.59375 17.96875 6.59375 36.375 
Q 6.59375 54.828125 13.0625 64.515625 
Q 19.53125 74.21875 31.78125 74.21875 
z
" id="DejaVuSans-48"/>
       </defs>
       <use xlink:href="#DejaVuSans-48"/>
      </g>
     </g>
    </g>
    <g id="xtick_2">
     <g id="line2d_2">
      <g>
       <use style="stroke:#000000;stroke-width:0.8;" x="115.093923" xlink:href="#m7c9f1f01c2" y="303.64"/>
      </g>
     </g>
     <g id="text_2">
      <!-- 20 -->
      <g transform="translate(108.731423 318.238437)scale(0.1 -0.1)">
       <defs>
        <path d="M 19.1875 8.296875 
L 53.609375 8.296875 
L 53.609375 0 
L 7.328125 0 
L 7.328125 8.296875 
Q 12.9375 14.109375 22.625 23.890625 
Q 32.328125 33.6875 34.8125 36.53125 
Q 39.546875 41.84375 41.421875 45.53125 
Q 43.3125 49.21875 43.3125 52.78125 
Q 43.3125 58.59375 39.234375 62.25 
Q 35.15625 65.921875 28.609375 65.921875 
Q 23.96875 65.921875 18.8125 64.3125 
Q 13.671875 62.703125 7.8125 59.421875 
L 7.8125 69.390625 
Q 13.765625 71.78125 18.9375 73 
Q 24.125 74.21875 28.421875 74.21875 
Q 39.75 74.21875 46.484375 68.546875 
Q 53.21875 62.890625 53.21875 53.421875 
Q 53.21875 48.921875 51.53125 44.890625 
Q 49.859375 40.875 45.40625 35.40625 
Q 44.1875 33.984375 37.640625 27.21875 
Q 31.109375 20.453125 19.1875 8.296875 
z
" id="DejaVuSans-50"/>
       </defs>
       <use xlink:href="#DejaVuSans-50"/>
       <use x="63.623047" xlink:href="#DejaVuSans-48"/>
      </g>
     </g>
    </g>
    <g id="xtick_3">
     <g id="line2d_3">
      <g>
       <use style="stroke:#000000;stroke-width:0.8;" x="164.182392" xlink:href="#m7c9f1f01c2" y="303.64"/>
      </g>
     </g>
     <g id="text_3">
      <!-- 40 -->
      <g transform="translate(157.819892 318.238437)scale(0.1 -0.1)">
       <defs>
        <path d="M 37.796875 64.3125 
L 12.890625 25.390625 
L 37.796875 25.390625 
z
M 35.203125 72.90625 
L 47.609375 72.90625 
L 47.609375 25.390625 
L 58.015625 25.390625 
L 58.015625 17.1875 
L 47.609375 17.1875 
L 47.609375 0 
L 37.796875 0 
L 37.796875 17.1875 
L 4.890625 17.1875 
L 4.890625 26.703125 
z
" id="DejaVuSans-52"/>
       </defs>
       <use xlink:href="#DejaVuSans-52"/>
       <use x="63.623047" xlink:href="#DejaVuSans-48"/>
      </g>
     </g>
    </g>
    <g id="xtick_4">
     <g id="line2d_4">
      <g>
       <use style="stroke:#000000;stroke-width:0.8;" x="213.27086" xlink:href="#m7c9f1f01c2" y="303.64"/>
      </g>
     </g>
     <g id="text_4">
      <!-- 60 -->
      <g transform="translate(206.90836 318.238437)scale(0.1 -0.1)">
       <defs>
        <path d="M 33.015625 40.375 
Q 26.375 40.375 22.484375 35.828125 
Q 18.609375 31.296875 18.609375 23.390625 
Q 18.609375 15.53125 22.484375 10.953125 
Q 26.375 6.390625 33.015625 6.390625 
Q 39.65625 6.390625 43.53125 10.953125 
Q 47.40625 15.53125 47.40625 23.390625 
Q 47.40625 31.296875 43.53125 35.828125 
Q 39.65625 40.375 33.015625 40.375 
z
M 52.59375 71.296875 
L 52.59375 62.3125 
Q 48.875 64.0625 45.09375 64.984375 
Q 41.3125 65.921875 37.59375 65.921875 
Q 27.828125 65.921875 22.671875 59.328125 
Q 17.53125 52.734375 16.796875 39.40625 
Q 19.671875 43.65625 24.015625 45.921875 
Q 28.375 48.1875 33.59375 48.1875 
Q 44.578125 48.1875 50.953125 41.515625 
Q 57.328125 34.859375 57.328125 23.390625 
Q 57.328125 12.15625 50.6875 5.359375 
Q 44.046875 -1.421875 33.015625 -1.421875 
Q 20.359375 -1.421875 13.671875 8.265625 
Q 6.984375 17.96875 6.984375 36.375 
Q 6.984375 53.65625 15.1875 63.9375 
Q 23.390625 74.21875 37.203125 74.21875 
Q 40.921875 74.21875 44.703125 73.484375 
Q 48.484375 72.75 52.59375 71.296875 
z
" id="DejaVuSans-54"/>
       </defs>
       <use xlink:href="#DejaVuSans-54"/>
       <use x="63.623047" xlink:href="#DejaVuSans-48"/>
      </g>
     </g>
    </g>
    <g id="xtick_5">
     <g id="line2d_5">
      <g>
       <use style="stroke:#000000;stroke-width:0.8;" x="262.359329" xlink:href="#m7c9f1f01c2" y="303.64"/>
      </g>
     </g>
     <g id="text_5">
      <!-- 80 -->
      <g transform="translate(255.996829 318.238437)scale(0.1 -0.1)">
       <defs>
        <path d="M 31.78125 34.625 
Q 24.75 34.625 20.71875 30.859375 
Q 16.703125 27.09375 16.703125 20.515625 
Q 16.703125 13.921875 20.71875 10.15625 
Q 24.75 6.390625 31.78125 6.390625 
Q 38.8125 6.390625 42.859375 10.171875 
Q 46.921875 13.96875 46.921875 20.515625 
Q 46.921875 27.09375 42.890625 30.859375 
Q 38.875 34.625 31.78125 34.625 
z
M 21.921875 38.8125 
Q 15.578125 40.375 12.03125 44.71875 
Q 8.5 49.078125 8.5 55.328125 
Q 8.5 64.0625 14.71875 69.140625 
Q 20.953125 74.21875 31.78125 74.21875 
Q 42.671875 74.21875 48.875 69.140625 
Q 55.078125 64.0625 55.078125 55.328125 
Q 55.078125 49.078125 51.53125 44.71875 
Q 48 40.375 41.703125 38.8125 
Q 48.828125 37.15625 52.796875 32.3125 
Q 56.78125 27.484375 56.78125 20.515625 
Q 56.78125 9.90625 50.3125 4.234375 
Q 43.84375 -1.421875 31.78125 -1.421875 
Q 19.734375 -1.421875 13.25 4.234375 
Q 6.78125 9.90625 6.78125 20.515625 
Q 6.78125 27.484375 10.78125 32.3125 
Q 14.796875 37.15625 21.921875 38.8125 
z
M 18.3125 54.390625 
Q 18.3125 48.734375 21.84375 45.5625 
Q 25.390625 42.390625 31.78125 42.390625 
Q 38.140625 42.390625 41.71875 45.5625 
Q 45.3125 48.734375 45.3125 54.390625 
Q 45.3125 60.0625 41.71875 63.234375 
Q 38.140625 66.40625 31.78125 66.40625 
Q 25.390625 66.40625 21.84375 63.234375 
Q 18.3125 60.0625 18.3125 54.390625 
z
" id="DejaVuSans-56"/>
       </defs>
       <use xlink:href="#DejaVuSans-56"/>
       <use x="63.623047" xlink:href="#DejaVuSans-48"/>
      </g>
     </g>
    </g>
    <g id="xtick_6">
     <g id="line2d_6">
      <g>
       <use style="stroke:#000000;stroke-width:0.8;" x="311.447797" xlink:href="#m7c9f1f01c2" y="303.64"/>
      </g>
     </g>
     <g id="text_6">
      <!-- 100 -->
      <g transform="translate(301.904047 318.238437)scale(0.1 -0.1)">
       <defs>
        <path d="M 12.40625 8.296875 
L 28.515625 8.296875 
L 28.515625 63.921875 
L 10.984375 60.40625 
L 10.984375 69.390625 
L 28.421875 72.90625 
L 38.28125 72.90625 
L 38.28125 8.296875 
L 54.390625 8.296875 
L 54.390625 0 
L 12.40625 0 
z
" id="DejaVuSans-49"/>
       </defs>
       <use xlink:href="#DejaVuSans-49"/>
       <use x="63.623047" xlink:href="#DejaVuSans-48"/>
       <use x="127.246094" xlink:href="#DejaVuSans-48"/>
      </g>
     </g>
    </g>
    <g id="xtick_7">
     <g id="line2d_7">
      <g>
       <use style="stroke:#000000;stroke-width:0.8;" x="360.536266" xlink:href="#m7c9f1f01c2" y="303.64"/>
      </g>
     </g>
     <g id="text_7">
      <!-- 120 -->
      <g transform="translate(350.992516 318.238437)scale(0.1 -0.1)">
       <use xlink:href="#DejaVuSans-49"/>
       <use x="63.623047" xlink:href="#DejaVuSans-50"/>
       <use x="127.246094" xlink:href="#DejaVuSans-48"/>
      </g>
     </g>
    </g>
    <g id="xtick_8">
     <g id="line2d_8">
      <g>
       <use style="stroke:#000000;stroke-width:0.8;" x="409.624735" xlink:href="#m7c9f1f01c2" y="303.64"/>
      </g>
     </g>
     <g id="text_8">
      <!-- 140 -->
      <g transform="translate(400.080985 318.238437)scale(0.1 -0.1)">
       <use xlink:href="#DejaVuSans-49"/>
       <use x="63.623047" xlink:href="#DejaVuSans-52"/>
       <use x="127.246094" xlink:href="#DejaVuSans-48"/>
      </g>
     </g>
    </g>
    <g id="text_9">
     <!-- Epochs -->
     <g transform="translate(230.944375 331.916562)scale(0.1 -0.1)">
      <defs>
       <path d="M 9.8125 72.90625 
L 55.90625 72.90625 
L 55.90625 64.59375 
L 19.671875 64.59375 
L 19.671875 43.015625 
L 54.390625 43.015625 
L 54.390625 34.71875 
L 19.671875 34.71875 
L 19.671875 8.296875 
L 56.78125 8.296875 
L 56.78125 0 
L 9.8125 0 
z
" id="DejaVuSans-69"/>
       <path d="M 18.109375 8.203125 
L 18.109375 -20.796875 
L 9.078125 -20.796875 
L 9.078125 54.6875 
L 18.109375 54.6875 
L 18.109375 46.390625 
Q 20.953125 51.265625 25.265625 53.625 
Q 29.59375 56 35.59375 56 
Q 45.5625 56 51.78125 48.09375 
Q 58.015625 40.1875 58.015625 27.296875 
Q 58.015625 14.40625 51.78125 6.484375 
Q 45.5625 -1.421875 35.59375 -1.421875 
Q 29.59375 -1.421875 25.265625 0.953125 
Q 20.953125 3.328125 18.109375 8.203125 
z
M 48.6875 27.296875 
Q 48.6875 37.203125 44.609375 42.84375 
Q 40.53125 48.484375 33.40625 48.484375 
Q 26.265625 48.484375 22.1875 42.84375 
Q 18.109375 37.203125 18.109375 27.296875 
Q 18.109375 17.390625 22.1875 11.75 
Q 26.265625 6.109375 33.40625 6.109375 
Q 40.53125 6.109375 44.609375 11.75 
Q 48.6875 17.390625 48.6875 27.296875 
z
" id="DejaVuSans-112"/>
       <path d="M 30.609375 48.390625 
Q 23.390625 48.390625 19.1875 42.75 
Q 14.984375 37.109375 14.984375 27.296875 
Q 14.984375 17.484375 19.15625 11.84375 
Q 23.34375 6.203125 30.609375 6.203125 
Q 37.796875 6.203125 41.984375 11.859375 
Q 46.1875 17.53125 46.1875 27.296875 
Q 46.1875 37.015625 41.984375 42.703125 
Q 37.796875 48.390625 30.609375 48.390625 
z
M 30.609375 56 
Q 42.328125 56 49.015625 48.375 
Q 55.71875 40.765625 55.71875 27.296875 
Q 55.71875 13.875 49.015625 6.21875 
Q 42.328125 -1.421875 30.609375 -1.421875 
Q 18.84375 -1.421875 12.171875 6.21875 
Q 5.515625 13.875 5.515625 27.296875 
Q 5.515625 40.765625 12.171875 48.375 
Q 18.84375 56 30.609375 56 
z
" id="DejaVuSans-111"/>
       <path d="M 48.78125 52.59375 
L 48.78125 44.1875 
Q 44.96875 46.296875 41.140625 47.34375 
Q 37.3125 48.390625 33.40625 48.390625 
Q 24.65625 48.390625 19.8125 42.84375 
Q 14.984375 37.3125 14.984375 27.296875 
Q 14.984375 17.28125 19.8125 11.734375 
Q 24.65625 6.203125 33.40625 6.203125 
Q 37.3125 6.203125 41.140625 7.25 
Q 44.96875 8.296875 48.78125 10.40625 
L 48.78125 2.09375 
Q 45.015625 0.34375 40.984375 -0.53125 
Q 36.96875 -1.421875 32.421875 -1.421875 
Q 20.0625 -1.421875 12.78125 6.34375 
Q 5.515625 14.109375 5.515625 27.296875 
Q 5.515625 40.671875 12.859375 48.328125 
Q 20.21875 56 33.015625 56 
Q 37.15625 56 41.109375 55.140625 
Q 45.0625 54.296875 48.78125 52.59375 
z
" id="DejaVuSans-99"/>
       <path d="M 54.890625 33.015625 
L 54.890625 0 
L 45.90625 0 
L 45.90625 32.71875 
Q 45.90625 40.484375 42.875 44.328125 
Q 39.84375 48.1875 33.796875 48.1875 
Q 26.515625 48.1875 22.3125 43.546875 
Q 18.109375 38.921875 18.109375 30.90625 
L 18.109375 0 
L 9.078125 0 
L 9.078125 75.984375 
L 18.109375 75.984375 
L 18.109375 46.1875 
Q 21.34375 51.125 25.703125 53.5625 
Q 30.078125 56 35.796875 56 
Q 45.21875 56 50.046875 50.171875 
Q 54.890625 44.34375 54.890625 33.015625 
z
" id="DejaVuSans-104"/>
       <path d="M 44.28125 53.078125 
L 44.28125 44.578125 
Q 40.484375 46.53125 36.375 47.5 
Q 32.28125 48.484375 27.875 48.484375 
Q 21.1875 48.484375 17.84375 46.4375 
Q 14.5 44.390625 14.5 40.28125 
Q 14.5 37.15625 16.890625 35.375 
Q 19.28125 33.59375 26.515625 31.984375 
L 29.59375 31.296875 
Q 39.15625 29.25 43.1875 25.515625 
Q 47.21875 21.78125 47.21875 15.09375 
Q 47.21875 7.46875 41.1875 3.015625 
Q 35.15625 -1.421875 24.609375 -1.421875 
Q 20.21875 -1.421875 15.453125 -0.5625 
Q 10.6875 0.296875 5.421875 2 
L 5.421875 11.28125 
Q 10.40625 8.6875 15.234375 7.390625 
Q 20.0625 6.109375 24.8125 6.109375 
Q 31.15625 6.109375 34.5625 8.28125 
Q 37.984375 10.453125 37.984375 14.40625 
Q 37.984375 18.0625 35.515625 20.015625 
Q 33.0625 21.96875 24.703125 23.78125 
L 21.578125 24.515625 
Q 13.234375 26.265625 9.515625 29.90625 
Q 5.8125 33.546875 5.8125 39.890625 
Q 5.8125 47.609375 11.28125 51.796875 
Q 16.75 56 26.8125 56 
Q 31.78125 56 36.171875 55.265625 
Q 40.578125 54.546875 44.28125 53.078125 
z
" id="DejaVuSans-115"/>
      </defs>
      <use xlink:href="#DejaVuSans-69"/>
      <use x="63.183594" xlink:href="#DejaVuSans-112"/>
      <use x="126.660156" xlink:href="#DejaVuSans-111"/>
      <use x="187.841797" xlink:href="#DejaVuSans-99"/>
      <use x="242.822266" xlink:href="#DejaVuSans-104"/>
      <use x="306.201172" xlink:href="#DejaVuSans-115"/>
     </g>
    </g>
   </g>
   <g id="matplotlib.axis_2">
    <g id="ytick_1">
     <g id="line2d_9">
      <defs>
       <path d="M 0 0 
L -3.5 0 
" id="m98948bca44" style="stroke:#000000;stroke-width:0.8;"/>
      </defs>
      <g>
       <use style="stroke:#000000;stroke-width:0.8;" x="47.72" xlink:href="#m98948bca44" y="303.64"/>
      </g>
     </g>
     <g id="text_10">
      <!-- 0.0 -->
      <g transform="translate(24.816875 307.439219)scale(0.1 -0.1)">
       <defs>
        <path d="M 10.6875 12.40625 
L 21 12.40625 
L 21 0 
L 10.6875 0 
z
" id="DejaVuSans-46"/>
       </defs>
       <use xlink:href="#DejaVuSans-48"/>
       <use x="63.623047" xlink:href="#DejaVuSans-46"/>
       <use x="95.410156" xlink:href="#DejaVuSans-48"/>
      </g>
     </g>
    </g>
    <g id="ytick_2">
     <g id="line2d_10">
      <g>
       <use style="stroke:#000000;stroke-width:0.8;" x="47.72" xlink:href="#m98948bca44" y="245.864"/>
      </g>
     </g>
     <g id="text_11">
      <!-- 0.5 -->
      <g transform="translate(24.816875 249.663219)scale(0.1 -0.1)">
       <defs>
        <path d="M 10.796875 72.90625 
L 49.515625 72.90625 
L 49.515625 64.59375 
L 19.828125 64.59375 
L 19.828125 46.734375 
Q 21.96875 47.46875 24.109375 47.828125 
Q 26.265625 48.1875 28.421875 48.1875 
Q 40.625 48.1875 47.75 41.5 
Q 54.890625 34.8125 54.890625 23.390625 
Q 54.890625 11.625 47.5625 5.09375 
Q 40.234375 -1.421875 26.90625 -1.421875 
Q 22.3125 -1.421875 17.546875 -0.640625 
Q 12.796875 0.140625 7.71875 1.703125 
L 7.71875 11.625 
Q 12.109375 9.234375 16.796875 8.0625 
Q 21.484375 6.890625 26.703125 6.890625 
Q 35.15625 6.890625 40.078125 11.328125 
Q 45.015625 15.765625 45.015625 23.390625 
Q 45.015625 31 40.078125 35.4375 
Q 35.15625 39.890625 26.703125 39.890625 
Q 22.75 39.890625 18.8125 39.015625 
Q 14.890625 38.140625 10.796875 36.28125 
z
" id="DejaVuSans-53"/>
       </defs>
       <use xlink:href="#DejaVuSans-48"/>
       <use x="63.623047" xlink:href="#DejaVuSans-46"/>
       <use x="95.410156" xlink:href="#DejaVuSans-53"/>
      </g>
     </g>
    </g>
    <g id="ytick_3">
     <g id="line2d_11">
      <g>
       <use style="stroke:#000000;stroke-width:0.8;" x="47.72" xlink:href="#m98948bca44" y="188.088"/>
      </g>
     </g>
     <g id="text_12">
      <!-- 1.0 -->
      <g transform="translate(24.816875 191.887219)scale(0.1 -0.1)">
       <use xlink:href="#DejaVuSans-49"/>
       <use x="63.623047" xlink:href="#DejaVuSans-46"/>
       <use x="95.410156" xlink:href="#DejaVuSans-48"/>
      </g>
     </g>
    </g>
    <g id="ytick_4">
     <g id="line2d_12">
      <g>
       <use style="stroke:#000000;stroke-width:0.8;" x="47.72" xlink:href="#m98948bca44" y="130.312"/>
      </g>
     </g>
     <g id="text_13">
      <!-- 1.5 -->
      <g transform="translate(24.816875 134.111219)scale(0.1 -0.1)">
       <use xlink:href="#DejaVuSans-49"/>
       <use x="63.623047" xlink:href="#DejaVuSans-46"/>
       <use x="95.410156" xlink:href="#DejaVuSans-53"/>
      </g>
     </g>
    </g>
    <g id="ytick_5">
     <g id="line2d_13">
      <g>
       <use style="stroke:#000000;stroke-width:0.8;" x="47.72" xlink:href="#m98948bca44" y="72.536"/>
      </g>
     </g>
     <g id="text_14">
      <!-- 2.0 -->
      <g transform="translate(24.816875 76.335219)scale(0.1 -0.1)">
       <use xlink:href="#DejaVuSans-50"/>
       <use x="63.623047" xlink:href="#DejaVuSans-46"/>
       <use x="95.410156" xlink:href="#DejaVuSans-48"/>
      </g>
     </g>
    </g>
    <g id="ytick_6">
     <g id="line2d_14">
      <g>
       <use style="stroke:#000000;stroke-width:0.8;" x="47.72" xlink:href="#m98948bca44" y="14.76"/>
      </g>
     </g>
     <g id="text_15">
      <!-- 2.5 -->
      <g transform="translate(24.816875 18.559219)scale(0.1 -0.1)">
       <use xlink:href="#DejaVuSans-50"/>
       <use x="63.623047" xlink:href="#DejaVuSans-46"/>
       <use x="95.410156" xlink:href="#DejaVuSans-53"/>
      </g>
     </g>
    </g>
    <g id="text_16">
     <!-- Loss -->
     <g transform="translate(18.737188 170.167187)rotate(-90)scale(0.1 -0.1)">
      <defs>
       <path d="M 9.8125 72.90625 
L 19.671875 72.90625 
L 19.671875 8.296875 
L 55.171875 8.296875 
L 55.171875 0 
L 9.8125 0 
z
" id="DejaVuSans-76"/>
      </defs>
      <use xlink:href="#DejaVuSans-76"/>
      <use x="53.962891" xlink:href="#DejaVuSans-111"/>
      <use x="115.144531" xlink:href="#DejaVuSans-115"/>
      <use x="167.244141" xlink:href="#DejaVuSans-115"/>
     </g>
    </g>
   </g>
   <g id="line2d_15">
    <path clip-path="url(#p646a26c215)" d="M 66.005455 42.880662 
L 68.459878 37.012787 
L 70.914301 63.057125 
L 73.368725 75.740762 
L 75.823148 93.502369 
L 78.277572 104.290231 
L 80.731995 123.699356 
L 83.186419 125.707975 
L 85.640842 163.488062 
L 88.095265 166.96365 
L 90.549689 200.433106 
L 93.004112 199.349806 
L 95.458536 198.480909 
L 97.912959 230.607525 
L 100.367383 221.749291 
L 102.821806 219.898653 
L 105.276229 236.339987 
L 107.730653 236.249712 
L 110.185076 225.574694 
L 112.6395 240.786031 
L 115.093923 228.136247 
L 117.548347 236.283566 
L 120.00277 248.989772 
L 122.457193 246.281522 
L 124.911617 256.612367 
L 127.36604 254.930995 
L 129.820464 253.926686 
L 132.274887 248.318352 
L 134.729311 259.608369 
L 137.183734 242.755155 
L 139.638157 256.527734 
L 142.092581 256.093286 
L 144.547004 258.891811 
L 147.001428 263.862578 
L 149.455851 253.198844 
L 151.910275 246.518494 
L 154.364698 260.516761 
L 156.819121 251.020959 
L 159.273545 254.801225 
L 161.727968 260.454697 
L 164.182392 249.300092 
L 166.636815 247.325327 
L 169.091239 265.90505 
L 171.545662 262.136069 
L 174.000085 264.093908 
L 176.454509 258.056767 
L 178.908932 261.064053 
L 181.363356 267.958806 
L 183.817779 255.038197 
L 186.272203 274.371152 
L 188.726626 266.8078 
L 191.181049 267.287386 
L 193.635473 250.321328 
L 196.089896 270.999945 
L 198.54432 271.078936 
L 200.998743 278.963893 
L 203.453167 276.946811 
L 205.90759 266.943212 
L 208.362013 269.583756 
L 210.816437 271.73343 
L 213.27086 275.767594 
L 215.725284 275.846584 
L 218.179707 274.083401 
L 220.634131 275.488305 
L 223.088554 276.721123 
L 225.542977 263.958495 
L 227.997401 276.40234 
L 230.451824 261.267172 
L 232.906248 281.849872 
L 235.360671 282.405627 
L 237.815095 275.056678 
L 240.269518 278.46738 
L 242.723941 272.167878 
L 245.178365 277.217636 
L 247.632788 285.218258 
L 250.087212 283.378905 
L 252.541635 274.760463 
L 254.996059 283.242082 
L 257.450482 273.894387 
L 259.904905 278.275546 
L 262.359329 279.336277 
L 264.813752 289.885757 
L 267.268176 281.892188 
L 269.722599 276.357202 
L 272.177023 288.599339 
L 274.631446 278.31222 
L 277.085869 285.240827 
L 279.540293 291.533276 
L 281.994716 280.016161 
L 284.44914 288.675508 
L 286.903563 277.748002 
L 289.357987 284.281655 
L 291.81241 290.02258 
L 294.266833 286.477876 
L 296.721257 290.792739 
L 299.17568 288.478032 
L 301.630104 287.3905 
L 304.084527 289.04225 
L 306.538951 284.431173 
L 308.993374 287.585155 
L 311.447797 292.493859 
L 313.902221 294.768365 
L 316.356644 292.808411 
L 318.811068 292.251245 
L 321.265491 294.966547 
L 323.719915 296.80449 
L 326.174338 299.85515 
L 328.628761 297.08131 
L 331.083185 295.237372 
L 333.537608 294.268327 
L 335.992032 298.143275 
L 338.446455 295.224677 
L 340.900879 298.740465 
L 343.355302 299.557525 
L 345.809725 300.04099 
L 348.264149 293.740077 
L 350.718572 298.899857 
L 353.172996 296.807311 
L 355.627419 301.566232 
L 358.081843 300.25028 
L 360.536266 300.399798 
L 362.990689 300.970209 
L 365.445113 302.318758 
L 367.899536 301.593825 
L 370.35396 302.282393 
L 372.808383 303.280509 
L 375.262807 303.127443 
L 377.71723 303.103529 
L 380.171653 302.476078 
L 382.626077 303.019976 
L 385.0805 303.013188 
L 387.534924 302.852298 
L 392.443771 302.833608 
L 394.898194 302.990399 
L 397.352617 302.506405 
L 399.807041 302.911056 
L 402.261464 302.937129 
L 404.715888 303.363125 
L 407.170311 303.15929 
L 412.079158 303.470305 
L 414.533581 303.041333 
L 416.988005 303.500775 
L 419.442428 303.371467 
L 421.896852 303.471418 
L 424.351275 303.351477 
L 426.805699 303.522418 
L 431.714545 303.425575 
L 431.714545 303.425575 
" style="fill:none;stroke:#1f77b4;stroke-linecap:square;stroke-width:1.5;"/>
   </g>
   <g id="line2d_16">
    <path clip-path="url(#p646a26c215)" d="M 66.005455 43.82855 
L 68.459878 51.998437 
L 73.368725 77.117456 
L 75.823148 95.488419 
L 78.277572 115.055525 
L 80.731995 125.595131 
L 83.186419 157.665325 
L 85.640842 176.340966 
L 88.095265 202.656128 
L 90.549689 209.336478 
L 93.004112 226.54515 
L 95.458536 227.741294 
L 97.912959 231.555412 
L 102.821806 245.706019 
L 105.276229 235.036642 
L 107.730653 249.130827 
L 110.185076 253.480953 
L 112.6395 245.243359 
L 115.093923 247.929041 
L 117.548347 252.843386 
L 120.00277 257.46998 
L 122.457193 257.955208 
L 124.911617 252.792606 
L 127.36604 257.272503 
L 129.820464 262.60437 
L 132.274887 256.798559 
L 134.729311 262.649508 
L 137.183734 260.894788 
L 139.638157 264.663769 
L 142.092581 260.161303 
L 144.547004 263.343497 
L 147.001428 266.249223 
L 149.455851 268.805134 
L 151.910275 260.97942 
L 154.364698 264.076981 
L 156.819121 268.551236 
L 159.273545 267.242248 
L 161.727968 271.282055 
L 164.182392 267.360734 
L 166.636815 271.617765 
L 169.091239 263.992348 
L 171.545662 272.466914 
L 174.000085 270.272103 
L 176.454509 268.94901 
L 178.908932 273.420444 
L 181.363356 272.686959 
L 183.817779 272.373818 
L 186.272203 269.02518 
L 188.726626 266.345141 
L 191.181049 275.389567 
L 193.635473 272.162236 
L 196.089896 277.629516 
L 198.54432 274.534776 
L 200.998743 276.825504 
L 203.453167 266.869864 
L 205.90759 276.839609 
L 208.362013 277.95112 
L 210.816437 275.883259 
L 213.27086 275.595507 
L 215.725284 277.625284 
L 218.179707 278.944145 
L 220.634131 276.86782 
L 223.088554 280.918911 
L 225.542977 279.906138 
L 227.997401 278.348895 
L 230.451824 279.423731 
L 232.906248 277.274058 
L 235.360671 280.284165 
L 237.815095 286.627394 
L 240.269518 275.285187 
L 242.723941 283.90927 
L 245.178365 284.19138 
L 247.632788 280.600127 
L 250.087212 281.246158 
L 252.541635 279.119053 
L 254.996059 286.439791 
L 257.450482 285.874162 
L 259.904905 287.793916 
L 262.359329 282.168655 
L 264.813752 286.301558 
L 267.268176 286.328358 
L 269.722599 287.640167 
L 272.177023 289.99437 
L 274.631446 289.760219 
L 277.085869 289.974622 
L 281.994716 288.657171 
L 284.44914 286.41017 
L 286.903563 290.457029 
L 289.357987 289.366676 
L 291.81241 290.457029 
L 294.266833 291.725111 
L 296.721257 290.200309 
L 299.17568 291.566424 
L 301.630104 290.671432 
L 304.084527 293.001655 
L 306.538951 293.130015 
L 308.993374 294.656932 
L 311.447797 295.495502 
L 313.902221 295.25853 
L 316.356644 296.168333 
L 318.811068 296.239918 
L 321.265491 294.334622 
L 323.719915 297.659281 
L 326.174338 294.455224 
L 328.628761 294.168883 
L 331.083185 298.542636 
L 333.537608 297.123273 
L 335.992032 298.170604 
L 338.446455 297.198738 
L 340.900879 297.722756 
L 343.355302 300.205142 
L 345.809725 298.832856 
L 348.264149 299.000006 
L 350.718572 299.949657 
L 353.172996 299.812128 
L 355.627419 299.244383 
L 358.081843 301.320885 
L 360.536266 301.177538 
L 362.990689 302.08593 
L 365.445113 302.349967 
L 367.899536 302.055691 
L 370.35396 301.345393 
L 372.808383 302.828318 
L 375.262807 301.010432 
L 377.71723 302.687925 
L 380.171653 303.195457 
L 382.626077 303.307045 
L 387.534924 302.934705 
L 389.989347 302.992559 
L 392.443771 303.420263 
L 394.898194 303.320346 
L 397.352617 303.02434 
L 399.807041 303.505833 
L 404.715888 303.455439 
L 407.170311 303.300323 
L 409.624735 303.440529 
L 412.079158 303.062403 
L 416.988005 303.50083 
L 431.714545 303.506494 
L 431.714545 303.506494 
" style="fill:none;stroke:#ff7f0e;stroke-linecap:square;stroke-width:1.5;"/>
   </g>
   <g id="line2d_17">
    <path clip-path="url(#p646a26c215)" d="M 66.005455 32.002525 
L 68.459878 70.820775 
L 70.914301 92.170812 
L 73.368725 110.835169 
L 75.823148 136.292719 
L 78.277572 172.583269 
L 80.731995 191.078359 
L 83.186419 203.942547 
L 85.640842 222.042684 
L 88.095265 231.431284 
L 90.549689 231.386147 
L 93.004112 244.041573 
L 95.458536 249.130827 
L 97.912959 249.001056 
L 100.367383 249.16468 
L 102.821806 260.996347 
L 105.276229 250.434172 
L 107.730653 258.716903 
L 110.185076 257.735163 
L 112.6395 253.650219 
L 115.093923 262.011941 
L 117.548347 267.473578 
L 120.00277 259.811487 
L 122.457193 269.414491 
L 124.911617 260.646531 
L 127.36604 268.511741 
L 129.820464 266.556723 
L 132.274887 263.529689 
L 134.729311 263.529689 
L 137.183734 267.135047 
L 139.638157 270.531644 
L 142.092581 276.955274 
L 144.547004 268.805134 
L 147.001428 273.993126 
L 149.455851 268.240916 
L 151.910275 269.648641 
L 154.364698 271.88859 
L 156.819121 273.936704 
L 159.273545 273.677163 
L 161.727968 276.137157 
L 164.182392 273.654595 
L 166.636815 275.897364 
L 169.091239 272.258153 
L 171.545662 272.111456 
L 174.000085 280.286986 
L 176.454509 278.992104 
L 178.908932 275.389567 
L 181.363356 278.365821 
L 183.817779 276.328991 
L 186.272203 273.976199 
L 188.726626 276.365666 
L 191.181049 279.49708 
L 193.635473 274.639156 
L 196.089896 280.521137 
L 198.54432 274.98333 
L 200.998743 282.346384 
L 203.453167 276.554679 
L 205.90759 280.095152 
L 208.362013 279.398341 
L 210.816437 284.690713 
L 213.27086 281.658037 
L 215.725284 276.187937 
L 218.179707 283.567918 
L 220.634131 285.974311 
L 223.088554 286.90104 
L 225.542977 281.291295 
L 227.997401 284.821894 
L 230.451824 281.918989 
L 232.906248 285.35367 
L 235.360671 282.778012 
L 237.815095 281.570584 
L 240.269518 284.905116 
L 242.723941 281.40696 
L 245.178365 287.582334 
L 247.632788 283.147575 
L 250.087212 286.638679 
L 252.541635 289.818051 
L 254.996059 289.418866 
L 257.450482 286.682405 
L 259.904905 288.509064 
L 262.359329 285.453819 
L 264.813752 287.098517 
L 267.268176 283.644088 
L 269.722599 291.757553 
L 272.177023 293.101804 
L 274.631446 294.214726 
L 277.085869 290.337132 
L 279.540293 294.852293 
L 281.994716 291.390811 
L 284.44914 290.725033 
L 286.903563 294.453813 
L 289.357987 291.59534 
L 294.266833 294.369886 
L 296.721257 294.22601 
L 299.17568 295.537819 
L 301.630104 293.020698 
L 304.084527 295.002516 
L 306.538951 295.718369 
L 308.993374 294.941157 
L 311.447797 296.596787 
L 313.902221 295.221504 
L 316.356644 296.48359 
L 321.265491 295.857308 
L 323.719915 297.177579 
L 326.174338 297.103173 
L 328.628761 297.433241 
L 331.083185 297.395509 
L 333.537608 298.37866 
L 335.992032 299.082699 
L 338.446455 299.194309 
L 340.900879 297.825373 
L 343.355302 299.557701 
L 348.264149 300.558043 
L 350.718572 298.947111 
L 353.172996 300.185923 
L 355.627419 300.420074 
L 358.081843 301.20187 
L 360.536266 301.331111 
L 362.990689 302.366981 
L 365.445113 303.161384 
L 367.899536 302.416703 
L 370.35396 302.978762 
L 372.808383 303.150099 
L 375.262807 303.074062 
L 377.71723 302.775731 
L 380.171653 303.249234 
L 382.626077 303.21472 
L 385.0805 303.373803 
L 387.534924 303.400846 
L 392.443771 303.186928 
L 394.898194 303.259902 
L 399.807041 303.244474 
L 404.715888 303.256706 
L 407.170311 302.881545 
L 409.624735 303.411359 
L 414.533581 303.351675 
L 416.988005 303.399987 
L 419.442428 303.159907 
L 421.896852 303.416428 
L 424.351275 303.306802 
L 431.714545 303.399414 
L 431.714545 303.399414 
" style="fill:none;stroke:#2ca02c;stroke-linecap:square;stroke-width:1.5;"/>
   </g>
   <g id="patch_3">
    <path d="M 47.72 303.64 
L 47.72 14.76 
" style="fill:none;stroke:#000000;stroke-linecap:square;stroke-linejoin:miter;stroke-width:0.8;"/>
   </g>
   <g id="patch_4">
    <path d="M 450 303.64 
L 450 14.76 
" style="fill:none;stroke:#000000;stroke-linecap:square;stroke-linejoin:miter;stroke-width:0.8;"/>
   </g>
   <g id="patch_5">
    <path d="M 47.72 303.64 
L 450 303.64 
" style="fill:none;stroke:#000000;stroke-linecap:square;stroke-linejoin:miter;stroke-width:0.8;"/>
   </g>
   <g id="patch_6">
    <path d="M 47.72 14.76 
L 450 14.76 
" style="fill:none;stroke:#000000;stroke-linecap:square;stroke-linejoin:miter;stroke-width:0.8;"/>
   </g>
   <g id="legend_1">
    <g id="patch_7">
     <path d="M 361.492188 66.794375 
L 443 66.794375 
Q 445 66.794375 445 64.794375 
L 445 21.76 
Q 445 19.76 443 19.76 
L 361.492188 19.76 
Q 359.492188 19.76 359.492188 21.76 
L 359.492188 64.794375 
Q 359.492188 66.794375 361.492188 66.794375 
z
" style="fill:#ffffff;opacity:0.8;stroke:#cccccc;stroke-linejoin:miter;"/>
    </g>
    <g id="line2d_18">
     <path d="M 363.492188 27.858437 
L 383.492188 27.858437 
" style="fill:none;stroke:#1f77b4;stroke-linecap:square;stroke-width:1.5;"/>
    </g>
    <g id="line2d_19"/>
    <g id="text_17">
     <!-- Sync-SGD -->
     <g transform="translate(391.492188 31.358437)scale(0.1 -0.1)">
      <defs>
       <path d="M 53.515625 70.515625 
L 53.515625 60.890625 
Q 47.90625 63.578125 42.921875 64.890625 
Q 37.9375 66.21875 33.296875 66.21875 
Q 25.25 66.21875 20.875 63.09375 
Q 16.5 59.96875 16.5 54.203125 
Q 16.5 49.359375 19.40625 46.890625 
Q 22.3125 44.4375 30.421875 42.921875 
L 36.375 41.703125 
Q 47.40625 39.59375 52.65625 34.296875 
Q 57.90625 29 57.90625 20.125 
Q 57.90625 9.515625 50.796875 4.046875 
Q 43.703125 -1.421875 29.984375 -1.421875 
Q 24.8125 -1.421875 18.96875 -0.25 
Q 13.140625 0.921875 6.890625 3.21875 
L 6.890625 13.375 
Q 12.890625 10.015625 18.65625 8.296875 
Q 24.421875 6.59375 29.984375 6.59375 
Q 38.421875 6.59375 43.015625 9.90625 
Q 47.609375 13.234375 47.609375 19.390625 
Q 47.609375 24.75 44.3125 27.78125 
Q 41.015625 30.8125 33.5 32.328125 
L 27.484375 33.5 
Q 16.453125 35.6875 11.515625 40.375 
Q 6.59375 45.0625 6.59375 53.421875 
Q 6.59375 63.09375 13.40625 68.65625 
Q 20.21875 74.21875 32.171875 74.21875 
Q 37.3125 74.21875 42.625 73.28125 
Q 47.953125 72.359375 53.515625 70.515625 
z
" id="DejaVuSans-83"/>
       <path d="M 32.171875 -5.078125 
Q 28.375 -14.84375 24.75 -17.8125 
Q 21.140625 -20.796875 15.09375 -20.796875 
L 7.90625 -20.796875 
L 7.90625 -13.28125 
L 13.1875 -13.28125 
Q 16.890625 -13.28125 18.9375 -11.515625 
Q 21 -9.765625 23.484375 -3.21875 
L 25.09375 0.875 
L 2.984375 54.6875 
L 12.5 54.6875 
L 29.59375 11.921875 
L 46.6875 54.6875 
L 56.203125 54.6875 
z
" id="DejaVuSans-121"/>
       <path d="M 54.890625 33.015625 
L 54.890625 0 
L 45.90625 0 
L 45.90625 32.71875 
Q 45.90625 40.484375 42.875 44.328125 
Q 39.84375 48.1875 33.796875 48.1875 
Q 26.515625 48.1875 22.3125 43.546875 
Q 18.109375 38.921875 18.109375 30.90625 
L 18.109375 0 
L 9.078125 0 
L 9.078125 54.6875 
L 18.109375 54.6875 
L 18.109375 46.1875 
Q 21.34375 51.125 25.703125 53.5625 
Q 30.078125 56 35.796875 56 
Q 45.21875 56 50.046875 50.171875 
Q 54.890625 44.34375 54.890625 33.015625 
z
" id="DejaVuSans-110"/>
       <path d="M 4.890625 31.390625 
L 31.203125 31.390625 
L 31.203125 23.390625 
L 4.890625 23.390625 
z
" id="DejaVuSans-45"/>
       <path d="M 59.515625 10.40625 
L 59.515625 29.984375 
L 43.40625 29.984375 
L 43.40625 38.09375 
L 69.28125 38.09375 
L 69.28125 6.78125 
Q 63.578125 2.734375 56.6875 0.65625 
Q 49.8125 -1.421875 42 -1.421875 
Q 24.90625 -1.421875 15.25 8.5625 
Q 5.609375 18.5625 5.609375 36.375 
Q 5.609375 54.25 15.25 64.234375 
Q 24.90625 74.21875 42 74.21875 
Q 49.125 74.21875 55.546875 72.453125 
Q 61.96875 70.703125 67.390625 67.28125 
L 67.390625 56.78125 
Q 61.921875 61.421875 55.765625 63.765625 
Q 49.609375 66.109375 42.828125 66.109375 
Q 29.4375 66.109375 22.71875 58.640625 
Q 16.015625 51.171875 16.015625 36.375 
Q 16.015625 21.625 22.71875 14.15625 
Q 29.4375 6.6875 42.828125 6.6875 
Q 48.046875 6.6875 52.140625 7.59375 
Q 56.25 8.5 59.515625 10.40625 
z
" id="DejaVuSans-71"/>
       <path d="M 19.671875 64.796875 
L 19.671875 8.109375 
L 31.59375 8.109375 
Q 46.6875 8.109375 53.6875 14.9375 
Q 60.6875 21.78125 60.6875 36.53125 
Q 60.6875 51.171875 53.6875 57.984375 
Q 46.6875 64.796875 31.59375 64.796875 
z
M 9.8125 72.90625 
L 30.078125 72.90625 
Q 51.265625 72.90625 61.171875 64.09375 
Q 71.09375 55.28125 71.09375 36.53125 
Q 71.09375 17.671875 61.125 8.828125 
Q 51.171875 0 30.078125 0 
L 9.8125 0 
z
" id="DejaVuSans-68"/>
      </defs>
      <use xlink:href="#DejaVuSans-83"/>
      <use x="63.476562" xlink:href="#DejaVuSans-121"/>
      <use x="122.65625" xlink:href="#DejaVuSans-110"/>
      <use x="186.035156" xlink:href="#DejaVuSans-99"/>
      <use x="241.015625" xlink:href="#DejaVuSans-45"/>
      <use x="277.099609" xlink:href="#DejaVuSans-83"/>
      <use x="340.576172" xlink:href="#DejaVuSans-71"/>
      <use x="418.066406" xlink:href="#DejaVuSans-68"/>
     </g>
    </g>
    <g id="line2d_20">
     <path d="M 363.492188 42.536563 
L 383.492188 42.536563 
" style="fill:none;stroke:#ff7f0e;stroke-linecap:square;stroke-width:1.5;"/>
    </g>
    <g id="line2d_21"/>
    <g id="text_18">
     <!-- DP-SGD -->
     <g transform="translate(391.492188 46.036563)scale(0.1 -0.1)">
      <defs>
       <path d="M 19.671875 64.796875 
L 19.671875 37.40625 
L 32.078125 37.40625 
Q 38.96875 37.40625 42.71875 40.96875 
Q 46.484375 44.53125 46.484375 51.125 
Q 46.484375 57.671875 42.71875 61.234375 
Q 38.96875 64.796875 32.078125 64.796875 
z
M 9.8125 72.90625 
L 32.078125 72.90625 
Q 44.34375 72.90625 50.609375 67.359375 
Q 56.890625 61.8125 56.890625 51.125 
Q 56.890625 40.328125 50.609375 34.8125 
Q 44.34375 29.296875 32.078125 29.296875 
L 19.671875 29.296875 
L 19.671875 0 
L 9.8125 0 
z
" id="DejaVuSans-80"/>
      </defs>
      <use xlink:href="#DejaVuSans-68"/>
      <use x="77.001953" xlink:href="#DejaVuSans-80"/>
      <use x="135.054688" xlink:href="#DejaVuSans-45"/>
      <use x="171.138672" xlink:href="#DejaVuSans-83"/>
      <use x="234.615234" xlink:href="#DejaVuSans-71"/>
      <use x="312.105469" xlink:href="#DejaVuSans-68"/>
     </g>
    </g>
    <g id="line2d_22">
     <path d="M 363.492188 57.214687 
L 383.492188 57.214687 
" style="fill:none;stroke:#2ca02c;stroke-linecap:square;stroke-width:1.5;"/>
    </g>
    <g id="line2d_23"/>
    <g id="text_19">
     <!-- EDP-SGD -->
     <g transform="translate(391.492188 60.714687)scale(0.1 -0.1)">
      <use xlink:href="#DejaVuSans-69"/>
      <use x="63.183594" xlink:href="#DejaVuSans-68"/>
      <use x="140.185547" xlink:href="#DejaVuSans-80"/>
      <use x="198.238281" xlink:href="#DejaVuSans-45"/>
      <use x="234.322266" xlink:href="#DejaVuSans-83"/>
      <use x="297.798828" xlink:href="#DejaVuSans-71"/>
      <use x="375.289062" xlink:href="#DejaVuSans-68"/>
     </g>
    </g>
   </g>
  </g>
 </g>
 <defs>
  <clipPath id="p646a26c215">
   <rect height="288.88" width="402.28" x="47.72" y="14.76"/>
  </clipPath>
 </defs>
</svg>
