<?xml version="1.0" encoding="utf-8" standalone="no"?>
<!DOCTYPE svg PUBLIC "-//W3C//DTD SVG 1.1//EN"
  "http://www.w3.org/Graphics/SVG/1.1/DTD/svg11.dtd">
<!-- Created with matplotlib (https://matplotlib.org/) -->
<svg height="345.6pt" version="1.1" viewBox="0 0 460.8 345.6" width="460.8pt" xmlns="http://www.w3.org/2000/svg" xmlns:xlink="http://www.w3.org/1999/xlink">
 <metadata>
  <rdf:RDF xmlns:cc="http://creativecommons.org/ns#" xmlns:dc="http://purl.org/dc/elements/1.1/" xmlns:rdf="http://www.w3.org/1999/02/22-rdf-syntax-ns#">
   <cc:Work>
    <dc:type rdf:resource="http://purl.org/dc/dcmitype/StillImage"/>
    <dc:date>2021-06-20T12:17:57.023881</dc:date>
    <dc:format>image/svg+xml</dc:format>
    <dc:creator>
     <cc:Agent>
      <dc:title>Matplotlib v3.3.1, https://matplotlib.org/</dc:title>
     </cc:Agent>
    </dc:creator>
   </cc:Work>
  </rdf:RDF>
 </metadata>
 <defs>
  <style type="text/css">*{stroke-linecap:butt;stroke-linejoin:round;}</style>
 </defs>
 <g id="figure_1">
  <g id="patch_1">
   <path d="M 0 345.6 
L 460.8 345.6 
L 460.8 0 
L 0 0 
z
" style="fill:#ffffff;"/>
  </g>
  <g id="axes_1">
   <g id="patch_2">
    <path d="M 50.87 303.64 
L 450 303.64 
L 450 10.8 
L 50.87 10.8 
z
" style="fill:#ffffff;"/>
   </g>
   <g id="PolyCollection_1">
    <path clip-path="url(#pcf2e801223)" d="M 69.012273 240.004859 
L 69.012273 261.025258 
L 71.447477 269.412071 
L 73.882682 284.297216 
L 76.317886 267.164947 
L 78.75309 232.600288 
L 81.188295 246.397627 
L 83.623499 234.33728 
L 86.058703 205.644739 
L 88.493908 172.553098 
L 90.929112 164.106839 
L 93.364317 142.976991 
L 95.799521 141.769099 
L 98.234725 149.701978 
L 100.66993 136.590532 
L 103.105134 129.566425 
L 105.540339 91.001934 
L 107.975543 101.011453 
L 110.410747 113.441336 
L 112.845952 98.006229 
L 115.281156 120.027448 
L 117.716361 116.392359 
L 120.151565 114.175834 
L 122.586769 104.036403 
L 125.021974 95.014338 
L 127.457178 95.267297 
L 129.892383 110.10969 
L 132.327587 100.880161 
L 134.762791 102.538462 
L 137.197996 85.213533 
L 139.6332 99.536167 
L 142.068405 68.358149 
L 144.503609 98.208472 
L 146.938813 79.318951 
L 149.374018 69.528002 
L 151.809222 74.05694 
L 154.244426 81.148508 
L 156.679631 91.204544 
L 159.114835 71.864876 
L 161.55004 69.724097 
L 163.985244 80.105973 
L 166.420448 75.441921 
L 168.855653 82.716357 
L 171.290857 65.537227 
L 173.726062 93.36815 
L 176.161266 79.374672 
L 178.59647 69.494618 
L 181.031675 91.077003 
L 183.466879 69.562832 
L 185.902084 76.013001 
L 188.337288 86.875362 
L 190.772492 74.885426 
L 193.207697 84.734332 
L 195.642901 66.42862 
L 198.078106 68.535025 
L 200.51331 83.387445 
L 202.948514 81.02152 
L 205.383719 80.629341 
L 207.818923 73.350749 
L 210.254128 80.006608 
L 212.689332 73.021318 
L 215.124536 62.749039 
L 217.559741 56.832842 
L 219.994945 56.569326 
L 222.430149 82.865131 
L 224.865354 65.94528 
L 227.300558 45.536166 
L 229.735763 60.786358 
L 232.170967 57.396807 
L 234.606171 63.198205 
L 237.041376 65.920553 
L 239.47658 68.919376 
L 241.911785 66.295584 
L 244.346989 68.043546 
L 246.782193 56.566279 
L 249.217398 69.560362 
L 251.652602 68.047551 
L 254.087807 65.758567 
L 256.523011 56.177331 
L 258.958215 63.476532 
L 261.39342 67.744048 
L 263.828624 52.844949 
L 266.263829 62.168395 
L 268.699033 68.351635 
L 271.134237 60.329205 
L 273.569442 52.273458 
L 276.004646 55.0713 
L 278.439851 56.141476 
L 280.875055 73.404945 
L 283.310259 65.693057 
L 285.745464 51.776674 
L 288.180668 54.475561 
L 290.615872 61.682383 
L 293.051077 58.764135 
L 295.486281 57.335951 
L 297.921486 50.672086 
L 300.35669 64.721034 
L 302.791894 51.990905 
L 305.227099 60.055385 
L 307.662303 48.270029 
L 310.097508 54.631391 
L 312.532712 56.599933 
L 314.967916 55.852373 
L 317.403121 61.356543 
L 319.838325 56.569326 
L 322.27353 47.151091 
L 324.708734 47.322458 
L 327.143938 44.290881 
L 329.579143 60.532563 
L 332.014347 47.101117 
L 334.449552 41.244218 
L 336.884756 49.177023 
L 339.31996 53.202477 
L 341.755165 49.405631 
L 344.190369 50.472286 
L 346.625574 51.058508 
L 349.060778 44.385675 
L 351.495982 43.331583 
L 353.931187 40.566167 
L 356.366391 53.262227 
L 358.801595 40.603659 
L 361.2368 40.648479 
L 363.672004 46.335141 
L 366.107209 35.180354 
L 368.542413 40.648479 
L 370.977617 39.083528 
L 373.412822 39.681853 
L 375.848026 34.501258 
L 378.283231 35.957139 
L 380.718435 41.388041 
L 383.153639 37.883062 
L 385.588844 35.104439 
L 388.024048 35.957139 
L 390.459253 35.957139 
L 392.894457 34.35167 
L 395.329661 33.383304 
L 397.764866 42.025291 
L 400.20007 34.501258 
L 402.635275 34.812573 
L 405.070479 41.986367 
L 407.505683 42.632539 
L 409.940888 40.771302 
L 412.376092 41.388041 
L 414.811297 39.328479 
L 417.246501 37.883062 
L 419.681705 35.734378 
L 422.11691 36.782295 
L 424.552114 34.501258 
L 426.987318 35.957139 
L 429.422523 37.883062 
L 431.857727 41.388041 
L 431.857727 29.15891 
L 431.857727 29.15891 
L 429.422523 27.133055 
L 426.987318 29.058979 
L 424.552114 28.671249 
L 422.11691 28.233823 
L 419.681705 28.359934 
L 417.246501 27.133055 
L 414.811297 30.296666 
L 412.376092 29.15891 
L 409.940888 27.932038 
L 407.505683 28.836217 
L 405.070479 29.482389 
L 402.635275 27.438129 
L 400.20007 28.671249 
L 397.764866 30.365271 
L 395.329661 28.867398 
L 392.894457 30.664448 
L 390.459253 29.058979 
L 388.024048 29.058979 
L 385.588844 28.989873 
L 383.153639 27.133055 
L 380.718435 29.15891 
L 378.283231 29.058979 
L 375.848026 28.671249 
L 373.412822 27.177875 
L 370.977617 26.854396 
L 368.542413 29.898472 
L 366.107209 26.148542 
L 363.672004 38.960697 
L 361.2368 29.898472 
L 358.801595 28.099681 
L 356.366391 37.564445 
L 353.931187 33.668006 
L 351.495982 36.433423 
L 349.060778 34.457526 
L 346.625574 36.080942 
L 344.190369 31.136331 
L 341.755165 38.655624 
L 339.31996 34.858779 
L 336.884756 32.431594 
L 334.449552 31.146344 
L 332.014347 36.35111 
L 329.579143 39.512164 
L 327.143938 31.786903 
L 324.708734 34.286159 
L 322.27353 37.222942 
L 319.838325 40.709984 
L 317.403121 42.375406 
L 314.967916 44.192354 
L 312.532712 36.07035 
L 310.097508 36.195281 
L 307.662303 38.869421 
L 305.227099 36.302119 
L 302.791894 31.461322 
L 300.35669 43.619942 
L 297.921486 39.23278 
L 295.486281 39.943359 
L 293.051077 44.967814 
L 290.615872 38.362344 
L 288.180668 43.725554 
L 285.745464 39.971804 
L 283.310259 50.944169 
L 280.875055 45.997697 
L 278.439851 30.997974 
L 276.004646 44.973427 
L 273.569442 40.396825 
L 271.134237 46.16816 
L 268.699033 44.598369 
L 266.263829 48.937997 
L 263.828624 45.356166 
L 261.39342 47.049566 
L 258.958215 51.317083 
L 256.523011 36.492952 
L 254.087807 52.722269 
L 251.652602 46.746064 
L 249.217398 51.685891 
L 246.782193 47.16567 
L 244.346989 49.515485 
L 241.911785 46.65442 
L 239.47658 48.639655 
L 237.041376 47.951256 
L 234.606171 43.29916 
L 232.170967 46.335141 
L 229.735763 41.101979 
L 227.300558 33.307034 
L 224.865354 48.848335 
L 222.430149 55.895427 
L 219.994945 40.709984 
L 217.559741 40.446469 
L 215.124536 39.139299 
L 212.689332 50.068546 
L 210.254128 63.362977 
L 207.818923 34.068421 
L 205.383719 49.834967 
L 202.948514 54.051816 
L 200.51331 65.512973 
L 198.078106 46.258589 
L 195.642901 48.364995 
L 193.207697 59.557058 
L 190.772492 66.640547 
L 188.337288 64.790472 
L 185.902084 58.138529 
L 183.466879 50.761615 
L 181.031675 47.683554 
L 178.59647 54.517052 
L 176.161266 64.916718 
L 173.726062 73.046572 
L 171.290857 54.78722 
L 168.855653 61.575034 
L 166.420448 54.100581 
L 163.985244 59.57639 
L 161.55004 62.583822 
L 159.114835 53.990404 
L 156.679631 59.539485 
L 154.244426 56.690244 
L 151.809222 42.580286 
L 149.374018 53.561862 
L 146.938813 52.067163 
L 144.503609 81.111527 
L 142.068405 62.106159 
L 139.6332 72.409388 
L 137.197996 71.983135 
L 134.762791 62.954455 
L 132.327587 76.596228 
L 129.892383 81.193781 
L 127.457178 78.521869 
L 125.021974 72.32219 
L 122.586769 67.909153 
L 120.151565 102.016385 
L 117.716361 90.581805 
L 115.281156 91.555743 
L 112.845952 76.704742 
L 110.410747 86.158385 
L 107.975543 87.526601 
L 105.540339 75.412788 
L 103.105134 108.749126 
L 100.66993 105.412241 
L 98.234725 117.189544 
L 95.799521 110.373535 
L 93.364317 122.992724 
L 90.929112 130.438847 
L 88.493908 154.255781 
L 86.058703 187.534135 
L 83.623499 211.384508 
L 81.188295 218.682076 
L 78.75309 214.96511 
L 76.317886 252.30128 
L 73.882682 274.806647 
L 71.447477 256.506794 
L 69.012273 240.004859 
z
" style="fill:#1f77b4;fill-opacity:0.25;"/>
   </g>
   <g id="PolyCollection_2">
    <path clip-path="url(#pcf2e801223)" d="M 69.012273 285.017101 
L 69.012273 289.001288 
L 71.447477 290.329091 
L 73.882682 275.991316 
L 76.317886 255.671332 
L 78.75309 230.476663 
L 81.188295 209.557264 
L 83.623499 195.242951 
L 86.058703 173.807392 
L 88.493908 142.917614 
L 90.929112 139.680296 
L 93.364317 124.364988 
L 95.799521 108.310002 
L 98.234725 103.700643 
L 100.66993 98.835159 
L 103.105134 92.248899 
L 105.540339 91.392813 
L 107.975543 89.339065 
L 110.410747 88.580285 
L 112.845952 89.398424 
L 115.281156 93.496184 
L 117.716361 81.060954 
L 120.151565 90.401369 
L 122.586769 87.063661 
L 125.021974 72.979752 
L 127.457178 76.470229 
L 129.892383 91.753379 
L 132.327587 80.741759 
L 134.762791 81.208165 
L 137.197996 84.294375 
L 139.6332 75.516047 
L 142.068405 80.895875 
L 144.503609 80.607941 
L 146.938813 85.554515 
L 149.374018 75.769981 
L 151.809222 76.005601 
L 154.244426 95.714764 
L 156.679631 75.105464 
L 159.114835 78.733751 
L 161.55004 83.654506 
L 163.985244 77.610112 
L 166.420448 80.281501 
L 168.855653 67.14118 
L 171.290857 69.911426 
L 173.726062 76.342544 
L 176.161266 77.65548 
L 178.59647 62.652817 
L 181.031675 68.80656 
L 183.466879 74.498019 
L 185.902084 67.016159 
L 188.337288 69.073201 
L 190.772492 74.626668 
L 193.207697 68.89633 
L 195.642901 66.126809 
L 198.078106 72.815657 
L 200.51331 78.203798 
L 202.948514 56.632952 
L 205.383719 72.268614 
L 207.818923 73.586319 
L 210.254128 73.042029 
L 212.689332 57.767689 
L 215.124536 68.975802 
L 217.559741 55.143045 
L 219.994945 62.820124 
L 222.430149 63.843683 
L 224.865354 60.749561 
L 227.300558 62.566624 
L 229.735763 66.055107 
L 232.170967 55.807231 
L 234.606171 65.368317 
L 237.041376 63.657469 
L 239.47658 63.501384 
L 241.911785 65.617717 
L 244.346989 60.130102 
L 246.782193 67.528227 
L 249.217398 61.160234 
L 251.652602 62.963611 
L 254.087807 59.546727 
L 256.523011 61.703428 
L 258.958215 66.474839 
L 261.39342 57.595814 
L 263.828624 63.485116 
L 266.263829 51.436773 
L 268.699033 56.564617 
L 271.134237 71.513694 
L 273.569442 57.063802 
L 276.004646 58.320589 
L 278.439851 55.976784 
L 280.875055 55.418843 
L 283.310259 66.629116 
L 285.745464 64.392148 
L 288.180668 65.328995 
L 290.615872 48.865183 
L 293.051077 52.200422 
L 295.486281 64.550878 
L 297.921486 48.528103 
L 300.35669 46.037432 
L 302.791894 50.450572 
L 305.227099 53.054128 
L 307.662303 54.613011 
L 310.097508 49.003429 
L 312.532712 54.690525 
L 314.967916 51.543263 
L 317.403121 48.736191 
L 319.838325 45.323933 
L 322.27353 48.839966 
L 324.708734 51.513344 
L 327.143938 47.1852 
L 329.579143 47.663049 
L 332.014347 43.539292 
L 334.449552 49.692824 
L 336.884756 49.350911 
L 339.31996 46.134047 
L 341.755165 52.41543 
L 344.190369 44.761503 
L 346.625574 51.191578 
L 349.060778 44.10578 
L 351.495982 50.33761 
L 353.931187 53.02132 
L 356.366391 50.195549 
L 358.801595 45.814672 
L 361.2368 51.294933 
L 363.672004 46.080118 
L 366.107209 46.090001 
L 368.542413 36.445789 
L 370.977617 44.970327 
L 373.412822 41.221296 
L 375.848026 48.784839 
L 378.283231 44.136652 
L 380.718435 38.671049 
L 383.153639 44.176527 
L 385.588844 41.238573 
L 388.024048 42.024454 
L 390.459253 36.764838 
L 392.894457 42.898157 
L 395.329661 44.194396 
L 397.764866 40.446416 
L 400.20007 41.730868 
L 402.635275 42.550949 
L 405.070479 41.592382 
L 407.505683 45.097354 
L 409.940888 36.476177 
L 412.376092 44.630218 
L 414.811297 39.460674 
L 417.246501 45.14932 
L 419.681705 42.139473 
L 422.11691 44.859242 
L 424.552114 42.949961 
L 426.987318 43.256636 
L 429.422523 39.849955 
L 431.857727 41.484584 
L 431.857727 30.560301 
L 431.857727 30.560301 
L 429.422523 29.429513 
L 426.987318 30.747085 
L 424.552114 30.765696 
L 422.11691 28.568351 
L 419.681705 27.543285 
L 417.246501 32.944913 
L 414.811297 34.19737 
L 412.376092 32.369371 
L 409.940888 25.716911 
L 407.505683 31.095655 
L 405.070479 30.625342 
L 402.635275 33.123545 
L 400.20007 29.334598 
L 397.764866 30.676664 
L 395.329661 27.735263 
L 392.894457 26.899827 
L 390.459253 28.942634 
L 388.024048 33.131524 
L 385.588844 30.518248 
L 383.153639 31.728419 
L 380.718435 27.670164 
L 378.283231 29.175716 
L 375.848026 37.259966 
L 373.412822 31.514943 
L 370.977617 32.663004 
L 368.542413 26.496266 
L 366.107209 39.551515 
L 363.672004 33.33921 
L 361.2368 30.083233 
L 358.801595 27.555308 
L 356.366391 40.631123 
L 353.931187 35.55845 
L 351.495982 34.497326 
L 349.060778 33.585164 
L 346.625574 35.026067 
L 344.190369 33.908858 
L 341.755165 33.744602 
L 339.31996 35.589795 
L 336.884756 35.195961 
L 334.449552 31.627729 
L 332.014347 29.25456 
L 329.579143 32.908536 
L 327.143938 35.633286 
L 324.708734 28.366887 
L 322.27353 42.620447 
L 319.838325 35.59333 
L 317.403121 37.078164 
L 314.967916 34.501543 
L 312.532712 38.325435 
L 310.097508 30.185448 
L 307.662303 38.287723 
L 305.227099 37.599705 
L 302.791894 35.939911 
L 300.35669 31.077383 
L 297.921486 37.228639 
L 295.486281 40.333328 
L 293.051077 40.757925 
L 290.615872 44.150777 
L 288.180668 39.439985 
L 285.745464 40.14638 
L 283.310259 54.156235 
L 280.875055 49.40775 
L 278.439851 36.578273 
L 276.004646 46.563616 
L 273.569442 39.696993 
L 271.134237 38.61328 
L 268.699033 35.529537 
L 266.263829 28.501072 
L 263.828624 45.086312 
L 261.39342 45.329554 
L 258.958215 40.598654 
L 256.523011 37.707558 
L 254.087807 46.201672 
L 251.652602 50.332069 
L 249.217398 36.637592 
L 246.782193 51.413512 
L 244.346989 46.367263 
L 241.911785 39.09365 
L 239.47658 46.107075 
L 237.041376 31.374941 
L 234.606171 37.960342 
L 232.170967 37.381567 
L 229.735763 60.261076 
L 227.300558 35.749717 
L 224.865354 51.854765 
L 222.430149 37.929429 
L 219.994945 53.125747 
L 217.559741 40.638332 
L 215.124536 43.110009 
L 212.689332 42.104199 
L 210.254128 62.08892 
L 207.818923 46.162 
L 205.383719 42.813065 
L 202.948514 39.090811 
L 200.51331 46.441613 
L 198.078106 47.624017 
L 195.642901 46.074228 
L 193.207697 40.078388 
L 190.772492 53.994029 
L 188.337288 52.11544 
L 185.902084 44.954426 
L 183.466879 49.2832 
L 181.031675 37.806031 
L 178.59647 45.342482 
L 176.161266 49.409671 
L 173.726062 45.076547 
L 171.290857 57.614627 
L 168.855653 43.734761 
L 166.420448 57.038735 
L 163.985244 50.376844 
L 161.55004 50.554637 
L 159.114835 44.644177 
L 156.679631 69.992507 
L 154.244426 47.136306 
L 151.809222 65.289922 
L 149.374018 37.583312 
L 146.938813 64.786224 
L 144.503609 59.996227 
L 142.068405 64.835836 
L 139.6332 61.688964 
L 137.197996 71.577197 
L 134.762791 66.136706 
L 132.327587 55.022931 
L 129.892383 53.286978 
L 127.457178 62.52078 
L 125.021974 58.003072 
L 122.586769 49.33477 
L 120.151565 71.404326 
L 117.716361 60.234569 
L 115.281156 63.700483 
L 112.845952 59.329156 
L 110.410747 66.887997 
L 107.975543 78.112688 
L 105.540339 67.589852 
L 103.105134 81.425042 
L 100.66993 67.810014 
L 98.234725 74.928002 
L 95.799521 57.413367 
L 93.364317 103.3498 
L 90.929112 100.017964 
L 88.493908 106.747667 
L 86.058703 154.326582 
L 83.623499 151.010262 
L 81.188295 196.526887 
L 78.75309 192.862535 
L 76.317886 210.935112 
L 73.882682 236.222895 
L 71.447477 270.863238 
L 69.012273 285.017101 
z
" style="fill:#ff7f0e;fill-opacity:0.25;"/>
   </g>
   <g id="PolyCollection_3">
    <path clip-path="url(#pcf2e801223)" d="M 69.012273 274.416986 
L 69.012273 289.238292 
L 71.447477 278.329657 
L 73.882682 227.263403 
L 76.317886 241.110577 
L 78.75309 187.146736 
L 81.188295 192.891747 
L 83.623499 135.977585 
L 86.058703 129.273301 
L 88.493908 118.222847 
L 90.929112 105.983332 
L 93.364317 81.856972 
L 95.799521 81.277545 
L 98.234725 92.770702 
L 100.66993 89.848869 
L 103.105134 85.680839 
L 105.540339 90.175276 
L 107.975543 88.756873 
L 110.410747 70.603283 
L 112.845952 80.138004 
L 115.281156 73.952862 
L 117.716361 77.080678 
L 120.151565 70.387737 
L 122.586769 104.89094 
L 125.021974 75.053679 
L 127.457178 66.47581 
L 129.892383 61.716114 
L 132.327587 71.500597 
L 134.762791 72.961516 
L 137.197996 64.077652 
L 139.6332 68.701591 
L 142.068405 77.66165 
L 144.503609 70.343971 
L 146.938813 74.102042 
L 149.374018 94.841414 
L 151.809222 72.243094 
L 154.244426 73.628246 
L 156.679631 68.658468 
L 159.114835 73.384589 
L 161.55004 71.601779 
L 163.985244 67.435408 
L 166.420448 67.937329 
L 168.855653 64.376544 
L 171.290857 73.198935 
L 173.726062 76.54306 
L 176.161266 82.191981 
L 178.59647 76.007657 
L 181.031675 76.984789 
L 183.466879 76.782491 
L 185.902084 75.954188 
L 188.337288 68.65281 
L 190.772492 70.823155 
L 193.207697 76.260763 
L 195.642901 67.13716 
L 198.078106 56.957319 
L 200.51331 67.320674 
L 202.948514 64.388467 
L 205.383719 69.20317 
L 207.818923 71.565574 
L 210.254128 62.487567 
L 212.689332 64.489019 
L 215.124536 64.326341 
L 217.559741 55.02236 
L 219.994945 50.683154 
L 222.430149 64.131096 
L 224.865354 60.187495 
L 227.300558 64.356528 
L 229.735763 61.746117 
L 232.170967 47.781208 
L 234.606171 55.518364 
L 237.041376 62.173796 
L 239.47658 60.842597 
L 241.911785 55.927119 
L 244.346989 62.631529 
L 246.782193 53.368245 
L 249.217398 70.027651 
L 251.652602 72.648872 
L 254.087807 55.721303 
L 256.523011 49.336844 
L 258.958215 56.677888 
L 261.39342 53.622287 
L 263.828624 76.638018 
L 266.263829 61.764812 
L 268.699033 59.380571 
L 271.134237 55.976431 
L 273.569442 61.034886 
L 276.004646 62.239963 
L 278.439851 56.547287 
L 280.875055 60.391013 
L 283.310259 53.717156 
L 285.745464 59.426454 
L 288.180668 56.858788 
L 290.615872 69.361425 
L 293.051077 62.197484 
L 295.486281 56.778573 
L 297.921486 56.514629 
L 300.35669 61.103037 
L 302.791894 53.786258 
L 305.227099 58.301853 
L 307.662303 58.234369 
L 310.097508 60.804517 
L 312.532712 50.977114 
L 314.967916 54.412821 
L 317.403121 57.31386 
L 319.838325 53.415604 
L 322.27353 55.941664 
L 324.708734 51.271719 
L 327.143938 52.695926 
L 329.579143 46.814892 
L 332.014347 51.558729 
L 334.449552 48.20689 
L 336.884756 51.161224 
L 339.31996 56.55084 
L 341.755165 45.004054 
L 344.190369 47.626916 
L 346.625574 43.686407 
L 349.060778 69.505277 
L 351.495982 40.466229 
L 353.931187 53.226915 
L 356.366391 55.776603 
L 358.801595 46.943482 
L 361.2368 42.663407 
L 363.672004 41.104293 
L 366.107209 42.74882 
L 368.542413 41.024377 
L 370.977617 44.006405 
L 373.412822 41.121483 
L 375.848026 43.498492 
L 378.283231 48.145609 
L 380.718435 45.689515 
L 383.153639 41.671406 
L 385.588844 43.801814 
L 388.024048 41.687339 
L 390.459253 43.93843 
L 392.894457 46.062809 
L 395.329661 42.461478 
L 397.764866 42.29379 
L 400.20007 49.275238 
L 402.635275 46.674815 
L 405.070479 44.554848 
L 407.505683 41.56648 
L 409.940888 37.616073 
L 412.376092 34.758965 
L 414.811297 41.813278 
L 417.246501 46.248722 
L 419.681705 41.085239 
L 422.11691 37.616073 
L 424.552114 44.902757 
L 426.987318 45.035389 
L 429.422523 46.15532 
L 431.857727 50.365031 
L 431.857727 29.688039 
L 431.857727 29.688039 
L 429.422523 31.189947 
L 426.987318 33.058844 
L 424.552114 29.734706 
L 422.11691 26.247788 
L 419.681705 29.692163 
L 417.246501 36.68499 
L 414.811297 28.445609 
L 412.376092 27.088447 
L 409.940888 26.247788 
L 407.505683 26.157441 
L 405.070479 29.276035 
L 402.635275 30.094323 
L 400.20007 31.699638 
L 397.764866 28.656451 
L 395.329661 38.571011 
L 392.894457 31.224845 
L 390.459253 32.024128 
L 388.024048 31.625029 
L 385.588844 29.107263 
L 383.153639 28.241804 
L 380.718435 29.293625 
L 378.283231 31.504171 
L 375.848026 35.287095 
L 373.412822 27.466631 
L 370.977617 26.079643 
L 368.542413 27.448512 
L 366.107209 24.110909 
L 363.672004 30.998205 
L 361.2368 35.200375 
L 358.801595 29.883269 
L 356.366391 29.634462 
L 353.931187 29.994862 
L 351.495982 31.175366 
L 349.060778 34.341897 
L 346.625574 28.300865 
L 344.190369 30.352091 
L 341.755165 26.867992 
L 339.31996 38.366343 
L 336.884756 34.883582 
L 334.449552 29.599279 
L 332.014347 43.531293 
L 329.579143 34.90895 
L 327.143938 29.949722 
L 324.708734 41.859466 
L 322.27353 35.633975 
L 319.838325 41.50158 
L 317.403121 42.730867 
L 314.967916 41.829458 
L 312.532712 41.750781 
L 310.097508 41.48711 
L 307.662303 36.106686 
L 305.227099 42.722292 
L 302.791894 32.085709 
L 300.35669 39.517818 
L 297.921486 40.246166 
L 295.486281 31.397908 
L 293.051077 42.283432 
L 290.615872 36.502199 
L 288.180668 39.902006 
L 285.745464 41.36724 
L 283.310259 34.747389 
L 280.875055 45.414998 
L 278.439851 44.995373 
L 276.004646 29.738965 
L 273.569442 37.511907 
L 271.134237 34.44695 
L 268.699033 50.400726 
L 266.263829 49.687258 
L 263.828624 40.172046 
L 261.39342 31.904003 
L 258.958215 29.943046 
L 256.523011 31.695644 
L 254.087807 32.051888 
L 251.652602 45.831965 
L 249.217398 48.280347 
L 246.782193 39.013973 
L 244.346989 40.985194 
L 241.911785 51.492052 
L 239.47658 38.107486 
L 237.041376 40.060219 
L 234.606171 34.73218 
L 232.170967 35.498182 
L 229.735763 40.084608 
L 227.300558 35.918651 
L 224.865354 41.412778 
L 222.430149 31.535055 
L 219.994945 34.151782 
L 217.559741 28.026578 
L 215.124536 49.833533 
L 212.689332 46.271696 
L 210.254128 50.11676 
L 207.818923 43.516105 
L 205.383719 36.948518 
L 202.948514 36.405226 
L 200.51331 40.444174 
L 198.078106 39.227347 
L 195.642901 54.627609 
L 193.207697 54.203545 
L 190.772492 43.221492 
L 188.337288 56.511117 
L 185.902084 51.514252 
L 183.466879 44.002859 
L 181.031675 55.438356 
L 178.59647 47.197433 
L 176.161266 47.408134 
L 173.726062 57.666082 
L 171.290857 64.121301 
L 168.855653 35.264893 
L 166.420448 52.156667 
L 163.985244 47.991948 
L 161.55004 54.541566 
L 159.114835 39.104512 
L 156.679631 38.991154 
L 154.244426 48.021297 
L 151.809222 65.883722 
L 149.374018 52.042555 
L 146.938813 57.111234 
L 144.503609 41.33855 
L 142.068405 45.773891 
L 139.6332 53.293629 
L 137.197996 40.057587 
L 134.762791 58.136533 
L 132.327587 49.227141 
L 129.892383 38.67429 
L 127.457178 57.305409 
L 125.021974 43.88806 
L 122.586769 60.141074 
L 120.151565 59.558055 
L 117.716361 63.004975 
L 115.281156 61.46615 
L 112.845952 59.717197 
L 110.410747 46.898135 
L 107.975543 42.22595 
L 105.540339 58.667529 
L 103.105134 71.976731 
L 100.66993 48.162722 
L 98.234725 69.438283 
L 95.799521 34.72594 
L 93.364317 58.228681 
L 90.929112 66.884029 
L 88.493908 62.652699 
L 86.058703 100.688388 
L 83.623499 96.34623 
L 81.188295 142.328607 
L 78.75309 157.406899 
L 76.317886 189.242985 
L 73.882682 206.791784 
L 71.447477 238.1335 
L 69.012273 274.416986 
z
" style="fill:#2ca02c;fill-opacity:0.25;"/>
   </g>
   <g id="matplotlib.axis_1">
    <g id="xtick_1">
     <g id="line2d_1">
      <defs>
       <path d="M 0 0 
L 0 3.5 
" id="m280b500dd9" style="stroke:#000000;stroke-width:0.8;"/>
      </defs>
      <g>
       <use style="stroke:#000000;stroke-width:0.8;" x="69.012273" xlink:href="#m280b500dd9" y="303.64"/>
      </g>
     </g>
     <g id="text_1">
      <!-- 0 -->
      <g transform="translate(65.831023 318.238437)scale(0.1 -0.1)">
       <defs>
        <path d="M 31.78125 66.40625 
Q 24.171875 66.40625 20.328125 58.90625 
Q 16.5 51.421875 16.5 36.375 
Q 16.5 21.390625 20.328125 13.890625 
Q 24.171875 6.390625 31.78125 6.390625 
Q 39.453125 6.390625 43.28125 13.890625 
Q 47.125 21.390625 47.125 36.375 
Q 47.125 51.421875 43.28125 58.90625 
Q 39.453125 66.40625 31.78125 66.40625 
z
M 31.78125 74.21875 
Q 44.046875 74.21875 50.515625 64.515625 
Q 56.984375 54.828125 56.984375 36.375 
Q 56.984375 17.96875 50.515625 8.265625 
Q 44.046875 -1.421875 31.78125 -1.421875 
Q 19.53125 -1.421875 13.0625 8.265625 
Q 6.59375 17.96875 6.59375 36.375 
Q 6.59375 54.828125 13.0625 64.515625 
Q 19.53125 74.21875 31.78125 74.21875 
z
" id="DejaVuSans-48"/>
       </defs>
       <use xlink:href="#DejaVuSans-48"/>
      </g>
     </g>
    </g>
    <g id="xtick_2">
     <g id="line2d_2">
      <g>
       <use style="stroke:#000000;stroke-width:0.8;" x="117.716361" xlink:href="#m280b500dd9" y="303.64"/>
      </g>
     </g>
     <g id="text_2">
      <!-- 20 -->
      <g transform="translate(111.353861 318.238437)scale(0.1 -0.1)">
       <defs>
        <path d="M 19.1875 8.296875 
L 53.609375 8.296875 
L 53.609375 0 
L 7.328125 0 
L 7.328125 8.296875 
Q 12.9375 14.109375 22.625 23.890625 
Q 32.328125 33.6875 34.8125 36.53125 
Q 39.546875 41.84375 41.421875 45.53125 
Q 43.3125 49.21875 43.3125 52.78125 
Q 43.3125 58.59375 39.234375 62.25 
Q 35.15625 65.921875 28.609375 65.921875 
Q 23.96875 65.921875 18.8125 64.3125 
Q 13.671875 62.703125 7.8125 59.421875 
L 7.8125 69.390625 
Q 13.765625 71.78125 18.9375 73 
Q 24.125 74.21875 28.421875 74.21875 
Q 39.75 74.21875 46.484375 68.546875 
Q 53.21875 62.890625 53.21875 53.421875 
Q 53.21875 48.921875 51.53125 44.890625 
Q 49.859375 40.875 45.40625 35.40625 
Q 44.1875 33.984375 37.640625 27.21875 
Q 31.109375 20.453125 19.1875 8.296875 
z
" id="DejaVuSans-50"/>
       </defs>
       <use xlink:href="#DejaVuSans-50"/>
       <use x="63.623047" xlink:href="#DejaVuSans-48"/>
      </g>
     </g>
    </g>
    <g id="xtick_3">
     <g id="line2d_3">
      <g>
       <use style="stroke:#000000;stroke-width:0.8;" x="166.420448" xlink:href="#m280b500dd9" y="303.64"/>
      </g>
     </g>
     <g id="text_3">
      <!-- 40 -->
      <g transform="translate(160.057948 318.238437)scale(0.1 -0.1)">
       <defs>
        <path d="M 37.796875 64.3125 
L 12.890625 25.390625 
L 37.796875 25.390625 
z
M 35.203125 72.90625 
L 47.609375 72.90625 
L 47.609375 25.390625 
L 58.015625 25.390625 
L 58.015625 17.1875 
L 47.609375 17.1875 
L 47.609375 0 
L 37.796875 0 
L 37.796875 17.1875 
L 4.890625 17.1875 
L 4.890625 26.703125 
z
" id="DejaVuSans-52"/>
       </defs>
       <use xlink:href="#DejaVuSans-52"/>
       <use x="63.623047" xlink:href="#DejaVuSans-48"/>
      </g>
     </g>
    </g>
    <g id="xtick_4">
     <g id="line2d_4">
      <g>
       <use style="stroke:#000000;stroke-width:0.8;" x="215.124536" xlink:href="#m280b500dd9" y="303.64"/>
      </g>
     </g>
     <g id="text_4">
      <!-- 60 -->
      <g transform="translate(208.762036 318.238437)scale(0.1 -0.1)">
       <defs>
        <path d="M 33.015625 40.375 
Q 26.375 40.375 22.484375 35.828125 
Q 18.609375 31.296875 18.609375 23.390625 
Q 18.609375 15.53125 22.484375 10.953125 
Q 26.375 6.390625 33.015625 6.390625 
Q 39.65625 6.390625 43.53125 10.953125 
Q 47.40625 15.53125 47.40625 23.390625 
Q 47.40625 31.296875 43.53125 35.828125 
Q 39.65625 40.375 33.015625 40.375 
z
M 52.59375 71.296875 
L 52.59375 62.3125 
Q 48.875 64.0625 45.09375 64.984375 
Q 41.3125 65.921875 37.59375 65.921875 
Q 27.828125 65.921875 22.671875 59.328125 
Q 17.53125 52.734375 16.796875 39.40625 
Q 19.671875 43.65625 24.015625 45.921875 
Q 28.375 48.1875 33.59375 48.1875 
Q 44.578125 48.1875 50.953125 41.515625 
Q 57.328125 34.859375 57.328125 23.390625 
Q 57.328125 12.15625 50.6875 5.359375 
Q 44.046875 -1.421875 33.015625 -1.421875 
Q 20.359375 -1.421875 13.671875 8.265625 
Q 6.984375 17.96875 6.984375 36.375 
Q 6.984375 53.65625 15.1875 63.9375 
Q 23.390625 74.21875 37.203125 74.21875 
Q 40.921875 74.21875 44.703125 73.484375 
Q 48.484375 72.75 52.59375 71.296875 
z
" id="DejaVuSans-54"/>
       </defs>
       <use xlink:href="#DejaVuSans-54"/>
       <use x="63.623047" xlink:href="#DejaVuSans-48"/>
      </g>
     </g>
    </g>
    <g id="xtick_5">
     <g id="line2d_5">
      <g>
       <use style="stroke:#000000;stroke-width:0.8;" x="263.828624" xlink:href="#m280b500dd9" y="303.64"/>
      </g>
     </g>
     <g id="text_5">
      <!-- 80 -->
      <g transform="translate(257.466124 318.238437)scale(0.1 -0.1)">
       <defs>
        <path d="M 31.78125 34.625 
Q 24.75 34.625 20.71875 30.859375 
Q 16.703125 27.09375 16.703125 20.515625 
Q 16.703125 13.921875 20.71875 10.15625 
Q 24.75 6.390625 31.78125 6.390625 
Q 38.8125 6.390625 42.859375 10.171875 
Q 46.921875 13.96875 46.921875 20.515625 
Q 46.921875 27.09375 42.890625 30.859375 
Q 38.875 34.625 31.78125 34.625 
z
M 21.921875 38.8125 
Q 15.578125 40.375 12.03125 44.71875 
Q 8.5 49.078125 8.5 55.328125 
Q 8.5 64.0625 14.71875 69.140625 
Q 20.953125 74.21875 31.78125 74.21875 
Q 42.671875 74.21875 48.875 69.140625 
Q 55.078125 64.0625 55.078125 55.328125 
Q 55.078125 49.078125 51.53125 44.71875 
Q 48 40.375 41.703125 38.8125 
Q 48.828125 37.15625 52.796875 32.3125 
Q 56.78125 27.484375 56.78125 20.515625 
Q 56.78125 9.90625 50.3125 4.234375 
Q 43.84375 -1.421875 31.78125 -1.421875 
Q 19.734375 -1.421875 13.25 4.234375 
Q 6.78125 9.90625 6.78125 20.515625 
Q 6.78125 27.484375 10.78125 32.3125 
Q 14.796875 37.15625 21.921875 38.8125 
z
M 18.3125 54.390625 
Q 18.3125 48.734375 21.84375 45.5625 
Q 25.390625 42.390625 31.78125 42.390625 
Q 38.140625 42.390625 41.71875 45.5625 
Q 45.3125 48.734375 45.3125 54.390625 
Q 45.3125 60.0625 41.71875 63.234375 
Q 38.140625 66.40625 31.78125 66.40625 
Q 25.390625 66.40625 21.84375 63.234375 
Q 18.3125 60.0625 18.3125 54.390625 
z
" id="DejaVuSans-56"/>
       </defs>
       <use xlink:href="#DejaVuSans-56"/>
       <use x="63.623047" xlink:href="#DejaVuSans-48"/>
      </g>
     </g>
    </g>
    <g id="xtick_6">
     <g id="line2d_6">
      <g>
       <use style="stroke:#000000;stroke-width:0.8;" x="312.532712" xlink:href="#m280b500dd9" y="303.64"/>
      </g>
     </g>
     <g id="text_6">
      <!-- 100 -->
      <g transform="translate(302.988962 318.238437)scale(0.1 -0.1)">
       <defs>
        <path d="M 12.40625 8.296875 
L 28.515625 8.296875 
L 28.515625 63.921875 
L 10.984375 60.40625 
L 10.984375 69.390625 
L 28.421875 72.90625 
L 38.28125 72.90625 
L 38.28125 8.296875 
L 54.390625 8.296875 
L 54.390625 0 
L 12.40625 0 
z
" id="DejaVuSans-49"/>
       </defs>
       <use xlink:href="#DejaVuSans-49"/>
       <use x="63.623047" xlink:href="#DejaVuSans-48"/>
       <use x="127.246094" xlink:href="#DejaVuSans-48"/>
      </g>
     </g>
    </g>
    <g id="xtick_7">
     <g id="line2d_7">
      <g>
       <use style="stroke:#000000;stroke-width:0.8;" x="361.2368" xlink:href="#m280b500dd9" y="303.64"/>
      </g>
     </g>
     <g id="text_7">
      <!-- 120 -->
      <g transform="translate(351.69305 318.238437)scale(0.1 -0.1)">
       <use xlink:href="#DejaVuSans-49"/>
       <use x="63.623047" xlink:href="#DejaVuSans-50"/>
       <use x="127.246094" xlink:href="#DejaVuSans-48"/>
      </g>
     </g>
    </g>
    <g id="xtick_8">
     <g id="line2d_8">
      <g>
       <use style="stroke:#000000;stroke-width:0.8;" x="409.940888" xlink:href="#m280b500dd9" y="303.64"/>
      </g>
     </g>
     <g id="text_8">
      <!-- 140 -->
      <g transform="translate(400.397138 318.238437)scale(0.1 -0.1)">
       <use xlink:href="#DejaVuSans-49"/>
       <use x="63.623047" xlink:href="#DejaVuSans-52"/>
       <use x="127.246094" xlink:href="#DejaVuSans-48"/>
      </g>
     </g>
    </g>
    <g id="text_9">
     <!-- Epochs -->
     <g transform="translate(232.519375 331.916562)scale(0.1 -0.1)">
      <defs>
       <path d="M 9.8125 72.90625 
L 55.90625 72.90625 
L 55.90625 64.59375 
L 19.671875 64.59375 
L 19.671875 43.015625 
L 54.390625 43.015625 
L 54.390625 34.71875 
L 19.671875 34.71875 
L 19.671875 8.296875 
L 56.78125 8.296875 
L 56.78125 0 
L 9.8125 0 
z
" id="DejaVuSans-69"/>
       <path d="M 18.109375 8.203125 
L 18.109375 -20.796875 
L 9.078125 -20.796875 
L 9.078125 54.6875 
L 18.109375 54.6875 
L 18.109375 46.390625 
Q 20.953125 51.265625 25.265625 53.625 
Q 29.59375 56 35.59375 56 
Q 45.5625 56 51.78125 48.09375 
Q 58.015625 40.1875 58.015625 27.296875 
Q 58.015625 14.40625 51.78125 6.484375 
Q 45.5625 -1.421875 35.59375 -1.421875 
Q 29.59375 -1.421875 25.265625 0.953125 
Q 20.953125 3.328125 18.109375 8.203125 
z
M 48.6875 27.296875 
Q 48.6875 37.203125 44.609375 42.84375 
Q 40.53125 48.484375 33.40625 48.484375 
Q 26.265625 48.484375 22.1875 42.84375 
Q 18.109375 37.203125 18.109375 27.296875 
Q 18.109375 17.390625 22.1875 11.75 
Q 26.265625 6.109375 33.40625 6.109375 
Q 40.53125 6.109375 44.609375 11.75 
Q 48.6875 17.390625 48.6875 27.296875 
z
" id="DejaVuSans-112"/>
       <path d="M 30.609375 48.390625 
Q 23.390625 48.390625 19.1875 42.75 
Q 14.984375 37.109375 14.984375 27.296875 
Q 14.984375 17.484375 19.15625 11.84375 
Q 23.34375 6.203125 30.609375 6.203125 
Q 37.796875 6.203125 41.984375 11.859375 
Q 46.1875 17.53125 46.1875 27.296875 
Q 46.1875 37.015625 41.984375 42.703125 
Q 37.796875 48.390625 30.609375 48.390625 
z
M 30.609375 56 
Q 42.328125 56 49.015625 48.375 
Q 55.71875 40.765625 55.71875 27.296875 
Q 55.71875 13.875 49.015625 6.21875 
Q 42.328125 -1.421875 30.609375 -1.421875 
Q 18.84375 -1.421875 12.171875 6.21875 
Q 5.515625 13.875 5.515625 27.296875 
Q 5.515625 40.765625 12.171875 48.375 
Q 18.84375 56 30.609375 56 
z
" id="DejaVuSans-111"/>
       <path d="M 48.78125 52.59375 
L 48.78125 44.1875 
Q 44.96875 46.296875 41.140625 47.34375 
Q 37.3125 48.390625 33.40625 48.390625 
Q 24.65625 48.390625 19.8125 42.84375 
Q 14.984375 37.3125 14.984375 27.296875 
Q 14.984375 17.28125 19.8125 11.734375 
Q 24.65625 6.203125 33.40625 6.203125 
Q 37.3125 6.203125 41.140625 7.25 
Q 44.96875 8.296875 48.78125 10.40625 
L 48.78125 2.09375 
Q 45.015625 0.34375 40.984375 -0.53125 
Q 36.96875 -1.421875 32.421875 -1.421875 
Q 20.0625 -1.421875 12.78125 6.34375 
Q 5.515625 14.109375 5.515625 27.296875 
Q 5.515625 40.671875 12.859375 48.328125 
Q 20.21875 56 33.015625 56 
Q 37.15625 56 41.109375 55.140625 
Q 45.0625 54.296875 48.78125 52.59375 
z
" id="DejaVuSans-99"/>
       <path d="M 54.890625 33.015625 
L 54.890625 0 
L 45.90625 0 
L 45.90625 32.71875 
Q 45.90625 40.484375 42.875 44.328125 
Q 39.84375 48.1875 33.796875 48.1875 
Q 26.515625 48.1875 22.3125 43.546875 
Q 18.109375 38.921875 18.109375 30.90625 
L 18.109375 0 
L 9.078125 0 
L 9.078125 75.984375 
L 18.109375 75.984375 
L 18.109375 46.1875 
Q 21.34375 51.125 25.703125 53.5625 
Q 30.078125 56 35.796875 56 
Q 45.21875 56 50.046875 50.171875 
Q 54.890625 44.34375 54.890625 33.015625 
z
" id="DejaVuSans-104"/>
       <path d="M 44.28125 53.078125 
L 44.28125 44.578125 
Q 40.484375 46.53125 36.375 47.5 
Q 32.28125 48.484375 27.875 48.484375 
Q 21.1875 48.484375 17.84375 46.4375 
Q 14.5 44.390625 14.5 40.28125 
Q 14.5 37.15625 16.890625 35.375 
Q 19.28125 33.59375 26.515625 31.984375 
L 29.59375 31.296875 
Q 39.15625 29.25 43.1875 25.515625 
Q 47.21875 21.78125 47.21875 15.09375 
Q 47.21875 7.46875 41.1875 3.015625 
Q 35.15625 -1.421875 24.609375 -1.421875 
Q 20.21875 -1.421875 15.453125 -0.5625 
Q 10.6875 0.296875 5.421875 2 
L 5.421875 11.28125 
Q 10.40625 8.6875 15.234375 7.390625 
Q 20.0625 6.109375 24.8125 6.109375 
Q 31.15625 6.109375 34.5625 8.28125 
Q 37.984375 10.453125 37.984375 14.40625 
Q 37.984375 18.0625 35.515625 20.015625 
Q 33.0625 21.96875 24.703125 23.78125 
L 21.578125 24.515625 
Q 13.234375 26.265625 9.515625 29.90625 
Q 5.8125 33.546875 5.8125 39.890625 
Q 5.8125 47.609375 11.28125 51.796875 
Q 16.75 56 26.8125 56 
Q 31.78125 56 36.171875 55.265625 
Q 40.578125 54.546875 44.28125 53.078125 
z
" id="DejaVuSans-115"/>
      </defs>
      <use xlink:href="#DejaVuSans-69"/>
      <use x="63.183594" xlink:href="#DejaVuSans-112"/>
      <use x="126.660156" xlink:href="#DejaVuSans-111"/>
      <use x="187.841797" xlink:href="#DejaVuSans-99"/>
      <use x="242.822266" xlink:href="#DejaVuSans-104"/>
      <use x="306.201172" xlink:href="#DejaVuSans-115"/>
     </g>
    </g>
   </g>
   <g id="matplotlib.axis_2">
    <g id="ytick_1">
     <g id="line2d_9">
      <defs>
       <path d="M 0 0 
L -3.5 0 
" id="m321b15d92b" style="stroke:#000000;stroke-width:0.8;"/>
      </defs>
      <g>
       <use style="stroke:#000000;stroke-width:0.8;" x="50.87" xlink:href="#m321b15d92b" y="258.350405"/>
      </g>
     </g>
     <g id="text_10">
      <!-- 20 -->
      <g transform="translate(31.145 262.149624)scale(0.1 -0.1)">
       <use xlink:href="#DejaVuSans-50"/>
       <use x="63.623047" xlink:href="#DejaVuSans-48"/>
      </g>
     </g>
    </g>
    <g id="ytick_2">
     <g id="line2d_10">
      <g>
       <use style="stroke:#000000;stroke-width:0.8;" x="50.87" xlink:href="#m321b15d92b" y="199.354854"/>
      </g>
     </g>
     <g id="text_11">
      <!-- 40 -->
      <g transform="translate(31.145 203.154072)scale(0.1 -0.1)">
       <use xlink:href="#DejaVuSans-52"/>
       <use x="63.623047" xlink:href="#DejaVuSans-48"/>
      </g>
     </g>
    </g>
    <g id="ytick_3">
     <g id="line2d_11">
      <g>
       <use style="stroke:#000000;stroke-width:0.8;" x="50.87" xlink:href="#m321b15d92b" y="140.359302"/>
      </g>
     </g>
     <g id="text_12">
      <!-- 60 -->
      <g transform="translate(31.145 144.158521)scale(0.1 -0.1)">
       <use xlink:href="#DejaVuSans-54"/>
       <use x="63.623047" xlink:href="#DejaVuSans-48"/>
      </g>
     </g>
    </g>
    <g id="ytick_4">
     <g id="line2d_12">
      <g>
       <use style="stroke:#000000;stroke-width:0.8;" x="50.87" xlink:href="#m321b15d92b" y="81.36375"/>
      </g>
     </g>
     <g id="text_13">
      <!-- 80 -->
      <g transform="translate(31.145 85.162969)scale(0.1 -0.1)">
       <use xlink:href="#DejaVuSans-56"/>
       <use x="63.623047" xlink:href="#DejaVuSans-48"/>
      </g>
     </g>
    </g>
    <g id="ytick_5">
     <g id="line2d_13">
      <g>
       <use style="stroke:#000000;stroke-width:0.8;" x="50.87" xlink:href="#m321b15d92b" y="22.368198"/>
      </g>
     </g>
     <g id="text_14">
      <!-- 100 -->
      <g transform="translate(24.7825 26.167417)scale(0.1 -0.1)">
       <use xlink:href="#DejaVuSans-49"/>
       <use x="63.623047" xlink:href="#DejaVuSans-48"/>
       <use x="127.246094" xlink:href="#DejaVuSans-48"/>
      </g>
     </g>
    </g>
    <g id="text_15">
     <!-- Test Accuracy (%) -->
     <g transform="translate(18.702813 201.723906)rotate(-90)scale(0.1 -0.1)">
      <defs>
       <path d="M -0.296875 72.90625 
L 61.375 72.90625 
L 61.375 64.59375 
L 35.5 64.59375 
L 35.5 0 
L 25.59375 0 
L 25.59375 64.59375 
L -0.296875 64.59375 
z
" id="DejaVuSans-84"/>
       <path d="M 56.203125 29.59375 
L 56.203125 25.203125 
L 14.890625 25.203125 
Q 15.484375 15.921875 20.484375 11.0625 
Q 25.484375 6.203125 34.421875 6.203125 
Q 39.59375 6.203125 44.453125 7.46875 
Q 49.3125 8.734375 54.109375 11.28125 
L 54.109375 2.78125 
Q 49.265625 0.734375 44.1875 -0.34375 
Q 39.109375 -1.421875 33.890625 -1.421875 
Q 20.796875 -1.421875 13.15625 6.1875 
Q 5.515625 13.8125 5.515625 26.8125 
Q 5.515625 40.234375 12.765625 48.109375 
Q 20.015625 56 32.328125 56 
Q 43.359375 56 49.78125 48.890625 
Q 56.203125 41.796875 56.203125 29.59375 
z
M 47.21875 32.234375 
Q 47.125 39.59375 43.09375 43.984375 
Q 39.0625 48.390625 32.421875 48.390625 
Q 24.90625 48.390625 20.390625 44.140625 
Q 15.875 39.890625 15.1875 32.171875 
z
" id="DejaVuSans-101"/>
       <path d="M 18.3125 70.21875 
L 18.3125 54.6875 
L 36.8125 54.6875 
L 36.8125 47.703125 
L 18.3125 47.703125 
L 18.3125 18.015625 
Q 18.3125 11.328125 20.140625 9.421875 
Q 21.96875 7.515625 27.59375 7.515625 
L 36.8125 7.515625 
L 36.8125 0 
L 27.59375 0 
Q 17.1875 0 13.234375 3.875 
Q 9.28125 7.765625 9.28125 18.015625 
L 9.28125 47.703125 
L 2.6875 47.703125 
L 2.6875 54.6875 
L 9.28125 54.6875 
L 9.28125 70.21875 
z
" id="DejaVuSans-116"/>
       <path id="DejaVuSans-32"/>
       <path d="M 34.1875 63.1875 
L 20.796875 26.90625 
L 47.609375 26.90625 
z
M 28.609375 72.90625 
L 39.796875 72.90625 
L 67.578125 0 
L 57.328125 0 
L 50.6875 18.703125 
L 17.828125 18.703125 
L 11.1875 0 
L 0.78125 0 
z
" id="DejaVuSans-65"/>
       <path d="M 8.5 21.578125 
L 8.5 54.6875 
L 17.484375 54.6875 
L 17.484375 21.921875 
Q 17.484375 14.15625 20.5 10.265625 
Q 23.53125 6.390625 29.59375 6.390625 
Q 36.859375 6.390625 41.078125 11.03125 
Q 45.3125 15.671875 45.3125 23.6875 
L 45.3125 54.6875 
L 54.296875 54.6875 
L 54.296875 0 
L 45.3125 0 
L 45.3125 8.40625 
Q 42.046875 3.421875 37.71875 1 
Q 33.40625 -1.421875 27.6875 -1.421875 
Q 18.265625 -1.421875 13.375 4.4375 
Q 8.5 10.296875 8.5 21.578125 
z
M 31.109375 56 
z
" id="DejaVuSans-117"/>
       <path d="M 41.109375 46.296875 
Q 39.59375 47.171875 37.8125 47.578125 
Q 36.03125 48 33.890625 48 
Q 26.265625 48 22.1875 43.046875 
Q 18.109375 38.09375 18.109375 28.8125 
L 18.109375 0 
L 9.078125 0 
L 9.078125 54.6875 
L 18.109375 54.6875 
L 18.109375 46.1875 
Q 20.953125 51.171875 25.484375 53.578125 
Q 30.03125 56 36.53125 56 
Q 37.453125 56 38.578125 55.875 
Q 39.703125 55.765625 41.0625 55.515625 
z
" id="DejaVuSans-114"/>
       <path d="M 34.28125 27.484375 
Q 23.390625 27.484375 19.1875 25 
Q 14.984375 22.515625 14.984375 16.5 
Q 14.984375 11.71875 18.140625 8.90625 
Q 21.296875 6.109375 26.703125 6.109375 
Q 34.1875 6.109375 38.703125 11.40625 
Q 43.21875 16.703125 43.21875 25.484375 
L 43.21875 27.484375 
z
M 52.203125 31.203125 
L 52.203125 0 
L 43.21875 0 
L 43.21875 8.296875 
Q 40.140625 3.328125 35.546875 0.953125 
Q 30.953125 -1.421875 24.3125 -1.421875 
Q 15.921875 -1.421875 10.953125 3.296875 
Q 6 8.015625 6 15.921875 
Q 6 25.140625 12.171875 29.828125 
Q 18.359375 34.515625 30.609375 34.515625 
L 43.21875 34.515625 
L 43.21875 35.40625 
Q 43.21875 41.609375 39.140625 45 
Q 35.0625 48.390625 27.6875 48.390625 
Q 23 48.390625 18.546875 47.265625 
Q 14.109375 46.140625 10.015625 43.890625 
L 10.015625 52.203125 
Q 14.9375 54.109375 19.578125 55.046875 
Q 24.21875 56 28.609375 56 
Q 40.484375 56 46.34375 49.84375 
Q 52.203125 43.703125 52.203125 31.203125 
z
" id="DejaVuSans-97"/>
       <path d="M 32.171875 -5.078125 
Q 28.375 -14.84375 24.75 -17.8125 
Q 21.140625 -20.796875 15.09375 -20.796875 
L 7.90625 -20.796875 
L 7.90625 -13.28125 
L 13.1875 -13.28125 
Q 16.890625 -13.28125 18.9375 -11.515625 
Q 21 -9.765625 23.484375 -3.21875 
L 25.09375 0.875 
L 2.984375 54.6875 
L 12.5 54.6875 
L 29.59375 11.921875 
L 46.6875 54.6875 
L 56.203125 54.6875 
z
" id="DejaVuSans-121"/>
       <path d="M 31 75.875 
Q 24.46875 64.65625 21.28125 53.65625 
Q 18.109375 42.671875 18.109375 31.390625 
Q 18.109375 20.125 21.3125 9.0625 
Q 24.515625 -2 31 -13.1875 
L 23.1875 -13.1875 
Q 15.875 -1.703125 12.234375 9.375 
Q 8.59375 20.453125 8.59375 31.390625 
Q 8.59375 42.28125 12.203125 53.3125 
Q 15.828125 64.359375 23.1875 75.875 
z
" id="DejaVuSans-40"/>
       <path d="M 72.703125 32.078125 
Q 68.453125 32.078125 66.03125 28.46875 
Q 63.625 24.859375 63.625 18.40625 
Q 63.625 12.0625 66.03125 8.421875 
Q 68.453125 4.78125 72.703125 4.78125 
Q 76.859375 4.78125 79.265625 8.421875 
Q 81.6875 12.0625 81.6875 18.40625 
Q 81.6875 24.8125 79.265625 28.4375 
Q 76.859375 32.078125 72.703125 32.078125 
z
M 72.703125 38.28125 
Q 80.421875 38.28125 84.953125 32.90625 
Q 89.5 27.546875 89.5 18.40625 
Q 89.5 9.28125 84.9375 3.921875 
Q 80.375 -1.421875 72.703125 -1.421875 
Q 64.890625 -1.421875 60.34375 3.921875 
Q 55.8125 9.28125 55.8125 18.40625 
Q 55.8125 27.59375 60.375 32.9375 
Q 64.9375 38.28125 72.703125 38.28125 
z
M 22.3125 68.015625 
Q 18.109375 68.015625 15.6875 64.375 
Q 13.28125 60.75 13.28125 54.390625 
Q 13.28125 47.953125 15.671875 44.328125 
Q 18.0625 40.71875 22.3125 40.71875 
Q 26.5625 40.71875 28.96875 44.328125 
Q 31.390625 47.953125 31.390625 54.390625 
Q 31.390625 60.6875 28.953125 64.34375 
Q 26.515625 68.015625 22.3125 68.015625 
z
M 66.40625 74.21875 
L 74.21875 74.21875 
L 28.609375 -1.421875 
L 20.796875 -1.421875 
z
M 22.3125 74.21875 
Q 30.03125 74.21875 34.609375 68.875 
Q 39.203125 63.53125 39.203125 54.390625 
Q 39.203125 45.171875 34.640625 39.84375 
Q 30.078125 34.515625 22.3125 34.515625 
Q 14.546875 34.515625 10.03125 39.859375 
Q 5.515625 45.21875 5.515625 54.390625 
Q 5.515625 63.484375 10.046875 68.84375 
Q 14.59375 74.21875 22.3125 74.21875 
z
" id="DejaVuSans-37"/>
       <path d="M 8.015625 75.875 
L 15.828125 75.875 
Q 23.140625 64.359375 26.78125 53.3125 
Q 30.421875 42.28125 30.421875 31.390625 
Q 30.421875 20.453125 26.78125 9.375 
Q 23.140625 -1.703125 15.828125 -13.1875 
L 8.015625 -13.1875 
Q 14.5 -2 17.703125 9.0625 
Q 20.90625 20.125 20.90625 31.390625 
Q 20.90625 42.671875 17.703125 53.65625 
Q 14.5 64.65625 8.015625 75.875 
z
" id="DejaVuSans-41"/>
      </defs>
      <use xlink:href="#DejaVuSans-84"/>
      <use x="44.083984" xlink:href="#DejaVuSans-101"/>
      <use x="105.607422" xlink:href="#DejaVuSans-115"/>
      <use x="157.707031" xlink:href="#DejaVuSans-116"/>
      <use x="196.916016" xlink:href="#DejaVuSans-32"/>
      <use x="228.703125" xlink:href="#DejaVuSans-65"/>
      <use x="295.361328" xlink:href="#DejaVuSans-99"/>
      <use x="350.341797" xlink:href="#DejaVuSans-99"/>
      <use x="405.322266" xlink:href="#DejaVuSans-117"/>
      <use x="468.701172" xlink:href="#DejaVuSans-114"/>
      <use x="509.814453" xlink:href="#DejaVuSans-97"/>
      <use x="571.09375" xlink:href="#DejaVuSans-99"/>
      <use x="626.074219" xlink:href="#DejaVuSans-121"/>
      <use x="685.253906" xlink:href="#DejaVuSans-32"/>
      <use x="717.041016" xlink:href="#DejaVuSans-40"/>
      <use x="756.054688" xlink:href="#DejaVuSans-37"/>
      <use x="851.074219" xlink:href="#DejaVuSans-41"/>
     </g>
    </g>
   </g>
   <g id="line2d_14">
    <path clip-path="url(#pcf2e801223)" d="M 69.012273 250.515059 
L 71.447477 262.959433 
L 73.882682 279.551932 
L 76.317886 259.733114 
L 78.75309 223.782699 
L 81.188295 232.539851 
L 83.623499 222.860894 
L 86.058703 196.589437 
L 88.493908 163.404439 
L 90.929112 147.272843 
L 93.364317 132.984858 
L 95.799521 126.071317 
L 98.234725 133.445761 
L 100.66993 121.001386 
L 103.105134 119.157775 
L 105.540339 83.207361 
L 107.975543 94.269027 
L 110.410747 99.79986 
L 112.845952 87.355486 
L 115.281156 105.791596 
L 117.716361 103.487082 
L 120.151565 108.09611 
L 122.586769 85.972778 
L 125.021974 83.668264 
L 127.457178 86.894583 
L 129.892383 95.651735 
L 132.327587 88.738194 
L 134.762791 82.746458 
L 137.197996 78.598334 
L 139.6332 85.972778 
L 142.068405 65.232154 
L 144.503609 89.66 
L 146.938813 65.693057 
L 149.374018 61.544932 
L 151.809222 58.318613 
L 154.244426 68.919376 
L 156.679631 75.372014 
L 159.114835 62.92764 
L 161.55004 66.15396 
L 163.985244 69.841181 
L 166.420448 64.771251 
L 168.855653 72.145695 
L 171.290857 60.162224 
L 173.726062 83.207361 
L 176.161266 72.145695 
L 178.59647 62.005835 
L 181.031675 69.380279 
L 183.466879 60.162224 
L 185.902084 67.075765 
L 188.337288 75.832917 
L 190.772492 70.762987 
L 193.207697 72.145695 
L 195.642901 57.396807 
L 198.078106 57.396807 
L 200.51331 74.450209 
L 202.948514 67.536668 
L 205.383719 65.232154 
L 207.818923 53.709585 
L 210.254128 71.684792 
L 215.124536 50.944169 
L 217.559741 48.639655 
L 219.994945 48.639655 
L 222.430149 69.380279 
L 224.865354 57.396807 
L 227.300558 39.4216 
L 229.735763 50.944169 
L 232.170967 51.865974 
L 234.606171 53.248683 
L 237.041376 56.935905 
L 239.47658 58.779516 
L 241.911785 56.475002 
L 244.346989 58.779516 
L 246.782193 51.865974 
L 249.217398 60.623127 
L 251.652602 57.396807 
L 254.087807 59.240418 
L 256.523011 46.335141 
L 258.958215 57.396807 
L 261.39342 57.396807 
L 263.828624 49.100558 
L 266.263829 55.553196 
L 268.699033 56.475002 
L 271.134237 53.248683 
L 273.569442 46.335141 
L 276.004646 50.022363 
L 278.439851 43.569725 
L 280.875055 59.701321 
L 283.310259 58.318613 
L 285.745464 45.874239 
L 288.180668 49.100558 
L 290.615872 50.022363 
L 293.051077 51.865974 
L 295.486281 48.639655 
L 297.921486 44.952433 
L 300.35669 54.170488 
L 302.791894 41.726114 
L 305.227099 48.178752 
L 307.662303 43.569725 
L 310.097508 45.413336 
L 312.532712 46.335141 
L 314.967916 50.022363 
L 317.403121 51.865974 
L 319.838325 48.639655 
L 322.27353 42.187017 
L 324.708734 40.804308 
L 327.143938 38.038892 
L 329.579143 50.022363 
L 332.014347 41.726114 
L 334.449552 36.195281 
L 336.884756 40.804308 
L 339.31996 44.030628 
L 341.755165 44.030628 
L 344.190369 40.804308 
L 346.625574 43.569725 
L 349.060778 39.4216 
L 351.495982 39.882503 
L 353.931187 37.117086 
L 356.366391 45.413336 
L 358.801595 34.35167 
L 361.2368 35.273475 
L 363.672004 42.647919 
L 366.107209 30.664448 
L 368.542413 35.273475 
L 370.977617 32.968962 
L 373.412822 33.429864 
L 375.848026 31.586253 
L 378.283231 32.508059 
L 380.718435 35.273475 
L 383.153639 32.508059 
L 385.588844 32.047156 
L 388.024048 32.508059 
L 392.894457 32.508059 
L 395.329661 31.125351 
L 397.764866 36.195281 
L 400.20007 31.586253 
L 402.635275 31.125351 
L 405.070479 35.734378 
L 407.505683 35.734378 
L 409.940888 34.35167 
L 412.376092 35.273475 
L 414.811297 34.812573 
L 417.246501 32.508059 
L 419.681705 32.047156 
L 422.11691 32.508059 
L 424.552114 31.586253 
L 426.987318 32.508059 
L 429.422523 32.508059 
L 431.857727 35.273475 
L 431.857727 35.273475 
" style="fill:none;stroke:#1f77b4;stroke-linecap:square;stroke-width:1.5;"/>
   </g>
   <g id="line2d_15">
    <path clip-path="url(#pcf2e801223)" d="M 69.012273 287.009194 
L 71.447477 280.596164 
L 73.882682 256.107105 
L 76.317886 233.303222 
L 78.75309 211.669599 
L 81.188295 203.042076 
L 83.623499 173.126607 
L 86.058703 164.066987 
L 88.493908 124.832641 
L 90.929112 119.84913 
L 93.364317 113.857394 
L 95.799521 82.861684 
L 98.234725 89.314323 
L 100.66993 83.322587 
L 103.105134 86.83697 
L 105.540339 79.491333 
L 107.975543 83.725877 
L 110.410747 77.734141 
L 112.845952 74.36379 
L 115.281156 78.598334 
L 117.716361 70.647761 
L 120.151565 80.902847 
L 122.586769 68.199215 
L 125.021974 65.491412 
L 127.457178 69.495504 
L 129.892383 72.520179 
L 132.327587 67.882345 
L 134.762791 73.672436 
L 137.197996 77.935786 
L 139.6332 68.602505 
L 142.068405 72.865856 
L 144.503609 70.302084 
L 146.938813 75.17037 
L 149.374018 56.676647 
L 151.809222 70.647761 
L 154.244426 71.425535 
L 156.679631 72.548985 
L 159.114835 61.688964 
L 161.55004 67.104571 
L 163.985244 63.993478 
L 166.420448 68.660118 
L 168.855653 55.437971 
L 171.290857 63.763027 
L 173.726062 60.709546 
L 176.161266 63.532575 
L 178.59647 53.99765 
L 181.031675 53.306295 
L 183.466879 61.890609 
L 185.902084 55.985293 
L 188.337288 60.59432 
L 190.772492 64.310349 
L 193.207697 54.487359 
L 195.642901 56.100518 
L 198.078106 60.219837 
L 200.51331 62.322705 
L 202.948514 47.861882 
L 205.383719 57.540839 
L 207.818923 59.87416 
L 210.254128 67.565474 
L 212.689332 49.935944 
L 215.124536 56.042905 
L 217.559741 47.890688 
L 219.994945 57.972936 
L 222.430149 50.886556 
L 224.865354 56.302163 
L 227.300558 49.158171 
L 229.735763 63.158092 
L 232.170967 46.594399 
L 234.606171 51.664329 
L 237.041376 47.516205 
L 239.47658 54.804229 
L 241.911785 52.355684 
L 244.346989 53.248683 
L 246.782193 59.47087 
L 249.217398 48.898913 
L 251.652602 56.64784 
L 254.087807 52.874199 
L 256.523011 49.705493 
L 258.958215 53.536747 
L 261.39342 51.462684 
L 263.828624 54.285714 
L 266.263829 39.968922 
L 268.699033 46.047077 
L 271.134237 55.063487 
L 273.569442 48.380397 
L 276.004646 52.442103 
L 278.439851 46.277529 
L 280.875055 52.413296 
L 283.310259 60.392675 
L 285.745464 52.269264 
L 288.180668 52.38449 
L 290.615872 46.50798 
L 293.051077 46.479173 
L 295.486281 52.442103 
L 297.921486 42.878371 
L 300.35669 38.557408 
L 302.791894 43.195241 
L 305.227099 45.326917 
L 307.662303 46.450367 
L 310.097508 39.594439 
L 312.532712 46.50798 
L 314.967916 43.022403 
L 317.403121 42.907177 
L 319.838325 40.458631 
L 322.27353 45.730207 
L 324.708734 39.940116 
L 327.143938 41.409243 
L 329.579143 40.285793 
L 332.014347 36.396926 
L 334.449552 40.660276 
L 336.884756 42.273436 
L 339.31996 40.861921 
L 341.755165 43.080016 
L 344.190369 39.335181 
L 346.625574 43.108822 
L 349.060778 38.845472 
L 351.495982 42.417468 
L 353.931187 44.289885 
L 356.366391 45.413336 
L 358.801595 36.68499 
L 361.2368 40.689083 
L 363.672004 39.709664 
L 366.107209 42.820758 
L 368.542413 31.471028 
L 370.977617 38.816665 
L 373.412822 36.368119 
L 375.848026 43.022403 
L 378.283231 36.656184 
L 380.718435 33.170607 
L 383.153639 37.952473 
L 385.588844 35.87841 
L 388.024048 37.577989 
L 390.459253 32.853736 
L 392.894457 34.898992 
L 395.329661 35.96483 
L 397.764866 35.56154 
L 400.20007 35.532733 
L 402.635275 37.837247 
L 405.070479 36.108862 
L 407.505683 38.096505 
L 409.940888 31.096544 
L 412.376092 38.499795 
L 414.811297 36.829022 
L 417.246501 39.047117 
L 419.681705 34.841379 
L 422.11691 36.713797 
L 426.987318 37.001861 
L 429.422523 34.639734 
L 431.857727 36.022442 
L 431.857727 36.022442 
" style="fill:none;stroke:#ff7f0e;stroke-linecap:square;stroke-width:1.5;"/>
   </g>
   <g id="line2d_16">
    <path clip-path="url(#pcf2e801223)" d="M 69.012273 281.827639 
L 71.447477 258.231579 
L 73.882682 217.027593 
L 76.317886 215.176781 
L 78.75309 172.276817 
L 81.188295 167.610177 
L 83.623499 116.161908 
L 86.058703 114.980844 
L 88.493908 90.437773 
L 90.929112 86.43368 
L 93.364317 70.042826 
L 95.799521 58.001742 
L 98.234725 81.104492 
L 100.66993 69.005795 
L 103.105134 78.828785 
L 105.540339 74.421403 
L 107.975543 65.491412 
L 110.410747 58.750709 
L 112.845952 69.927601 
L 115.281156 67.709506 
L 117.716361 70.042826 
L 120.151565 64.972896 
L 122.586769 82.516007 
L 125.021974 59.47087 
L 127.457178 61.890609 
L 129.892383 50.195202 
L 132.327587 60.363869 
L 134.762791 65.549025 
L 137.197996 52.067619 
L 139.6332 60.99761 
L 142.068405 61.717771 
L 144.503609 55.841261 
L 146.938813 65.606638 
L 149.374018 73.441984 
L 151.809222 69.063408 
L 154.244426 60.824771 
L 156.679631 53.824811 
L 159.114835 56.24455 
L 161.55004 63.071672 
L 163.985244 57.713678 
L 166.420448 60.046998 
L 168.855653 49.820718 
L 171.290857 68.660118 
L 173.726062 67.104571 
L 176.161266 64.800058 
L 178.59647 61.602545 
L 181.031675 66.211572 
L 183.466879 60.392675 
L 185.902084 63.73422 
L 188.337288 62.581963 
L 190.772492 57.022324 
L 193.207697 65.232154 
L 195.642901 60.882384 
L 198.078106 48.092333 
L 200.51331 53.882424 
L 202.948514 50.396847 
L 205.383719 53.075844 
L 207.818923 57.540839 
L 210.254128 56.302163 
L 212.689332 55.380358 
L 215.124536 57.079937 
L 217.559741 41.524469 
L 219.994945 42.417468 
L 222.430149 47.833075 
L 224.865354 50.800137 
L 227.300558 50.137589 
L 229.735763 50.915362 
L 232.170967 41.639695 
L 234.606171 45.125272 
L 237.041376 51.117007 
L 239.47658 49.475041 
L 241.911785 53.709585 
L 244.346989 51.808361 
L 246.782193 46.191109 
L 249.217398 59.153999 
L 251.652602 59.240418 
L 254.087807 43.886596 
L 256.523011 40.516244 
L 258.958215 43.310467 
L 261.39342 42.763145 
L 263.828624 58.405032 
L 266.263829 55.726035 
L 268.699033 54.890649 
L 271.134237 45.211691 
L 273.569442 49.273396 
L 276.004646 45.989464 
L 278.439851 50.77133 
L 280.875055 52.903006 
L 283.310259 44.232273 
L 285.745464 50.396847 
L 288.180668 48.380397 
L 290.615872 52.931812 
L 293.051077 52.240458 
L 295.486281 44.08824 
L 297.921486 48.380397 
L 300.35669 50.310428 
L 302.791894 42.935984 
L 305.227099 50.512073 
L 307.662303 47.170528 
L 310.097508 51.145814 
L 312.532712 46.363948 
L 314.967916 48.12114 
L 317.403121 50.022363 
L 319.838325 47.458592 
L 322.27353 45.787819 
L 324.708734 46.565593 
L 327.143938 41.322824 
L 329.579143 40.861921 
L 332.014347 47.545011 
L 334.449552 38.903085 
L 336.884756 43.022403 
L 339.31996 47.458592 
L 341.755165 35.936023 
L 344.190369 38.989504 
L 346.625574 35.993636 
L 349.060778 51.923587 
L 351.495982 35.820797 
L 353.931187 41.610888 
L 356.366391 42.705532 
L 358.801595 38.413375 
L 361.2368 38.931891 
L 363.672004 36.051249 
L 366.107209 33.429864 
L 370.977617 35.043024 
L 373.412822 34.294057 
L 375.848026 39.392794 
L 378.283231 39.82489 
L 380.718435 37.49157 
L 383.153639 34.956605 
L 385.588844 36.454539 
L 388.024048 36.656184 
L 390.459253 37.981279 
L 392.894457 38.643827 
L 395.329661 40.516244 
L 397.764866 35.47512 
L 400.20007 40.487438 
L 402.635275 38.384569 
L 405.070479 36.915441 
L 407.505683 33.861961 
L 409.940888 31.931931 
L 412.376092 30.923706 
L 414.811297 35.129443 
L 417.246501 41.466856 
L 419.681705 35.388701 
L 422.11691 31.931931 
L 424.552114 37.318731 
L 426.987318 39.047117 
L 429.422523 38.672633 
L 431.857727 40.026535 
L 431.857727 40.026535 
" style="fill:none;stroke:#2ca02c;stroke-linecap:square;stroke-width:1.5;"/>
   </g>
   <g id="patch_3">
    <path d="M 50.87 303.64 
L 50.87 10.8 
" style="fill:none;stroke:#000000;stroke-linecap:square;stroke-linejoin:miter;stroke-width:0.8;"/>
   </g>
   <g id="patch_4">
    <path d="M 450 303.64 
L 450 10.8 
" style="fill:none;stroke:#000000;stroke-linecap:square;stroke-linejoin:miter;stroke-width:0.8;"/>
   </g>
   <g id="patch_5">
    <path d="M 50.87 303.64 
L 450 303.64 
" style="fill:none;stroke:#000000;stroke-linecap:square;stroke-linejoin:miter;stroke-width:0.8;"/>
   </g>
   <g id="patch_6">
    <path d="M 50.87 10.8 
L 450 10.8 
" style="fill:none;stroke:#000000;stroke-linecap:square;stroke-linejoin:miter;stroke-width:0.8;"/>
   </g>
   <g id="legend_1">
    <g id="patch_7">
     <path d="M 361.492188 298.64 
L 443 298.64 
Q 445 298.64 445 296.64 
L 445 253.605625 
Q 445 251.605625 443 251.605625 
L 361.492188 251.605625 
Q 359.492188 251.605625 359.492188 253.605625 
L 359.492188 296.64 
Q 359.492188 298.64 361.492188 298.64 
z
" style="fill:#ffffff;opacity:0.8;stroke:#cccccc;stroke-linejoin:miter;"/>
    </g>
    <g id="line2d_17">
     <path d="M 363.492188 259.704062 
L 383.492188 259.704062 
" style="fill:none;stroke:#1f77b4;stroke-linecap:square;stroke-width:1.5;"/>
    </g>
    <g id="line2d_18"/>
    <g id="text_16">
     <!-- Sync-SGD -->
     <g transform="translate(391.492188 263.204062)scale(0.1 -0.1)">
      <defs>
       <path d="M 53.515625 70.515625 
L 53.515625 60.890625 
Q 47.90625 63.578125 42.921875 64.890625 
Q 37.9375 66.21875 33.296875 66.21875 
Q 25.25 66.21875 20.875 63.09375 
Q 16.5 59.96875 16.5 54.203125 
Q 16.5 49.359375 19.40625 46.890625 
Q 22.3125 44.4375 30.421875 42.921875 
L 36.375 41.703125 
Q 47.40625 39.59375 52.65625 34.296875 
Q 57.90625 29 57.90625 20.125 
Q 57.90625 9.515625 50.796875 4.046875 
Q 43.703125 -1.421875 29.984375 -1.421875 
Q 24.8125 -1.421875 18.96875 -0.25 
Q 13.140625 0.921875 6.890625 3.21875 
L 6.890625 13.375 
Q 12.890625 10.015625 18.65625 8.296875 
Q 24.421875 6.59375 29.984375 6.59375 
Q 38.421875 6.59375 43.015625 9.90625 
Q 47.609375 13.234375 47.609375 19.390625 
Q 47.609375 24.75 44.3125 27.78125 
Q 41.015625 30.8125 33.5 32.328125 
L 27.484375 33.5 
Q 16.453125 35.6875 11.515625 40.375 
Q 6.59375 45.0625 6.59375 53.421875 
Q 6.59375 63.09375 13.40625 68.65625 
Q 20.21875 74.21875 32.171875 74.21875 
Q 37.3125 74.21875 42.625 73.28125 
Q 47.953125 72.359375 53.515625 70.515625 
z
" id="DejaVuSans-83"/>
       <path d="M 54.890625 33.015625 
L 54.890625 0 
L 45.90625 0 
L 45.90625 32.71875 
Q 45.90625 40.484375 42.875 44.328125 
Q 39.84375 48.1875 33.796875 48.1875 
Q 26.515625 48.1875 22.3125 43.546875 
Q 18.109375 38.921875 18.109375 30.90625 
L 18.109375 0 
L 9.078125 0 
L 9.078125 54.6875 
L 18.109375 54.6875 
L 18.109375 46.1875 
Q 21.34375 51.125 25.703125 53.5625 
Q 30.078125 56 35.796875 56 
Q 45.21875 56 50.046875 50.171875 
Q 54.890625 44.34375 54.890625 33.015625 
z
" id="DejaVuSans-110"/>
       <path d="M 4.890625 31.390625 
L 31.203125 31.390625 
L 31.203125 23.390625 
L 4.890625 23.390625 
z
" id="DejaVuSans-45"/>
       <path d="M 59.515625 10.40625 
L 59.515625 29.984375 
L 43.40625 29.984375 
L 43.40625 38.09375 
L 69.28125 38.09375 
L 69.28125 6.78125 
Q 63.578125 2.734375 56.6875 0.65625 
Q 49.8125 -1.421875 42 -1.421875 
Q 24.90625 -1.421875 15.25 8.5625 
Q 5.609375 18.5625 5.609375 36.375 
Q 5.609375 54.25 15.25 64.234375 
Q 24.90625 74.21875 42 74.21875 
Q 49.125 74.21875 55.546875 72.453125 
Q 61.96875 70.703125 67.390625 67.28125 
L 67.390625 56.78125 
Q 61.921875 61.421875 55.765625 63.765625 
Q 49.609375 66.109375 42.828125 66.109375 
Q 29.4375 66.109375 22.71875 58.640625 
Q 16.015625 51.171875 16.015625 36.375 
Q 16.015625 21.625 22.71875 14.15625 
Q 29.4375 6.6875 42.828125 6.6875 
Q 48.046875 6.6875 52.140625 7.59375 
Q 56.25 8.5 59.515625 10.40625 
z
" id="DejaVuSans-71"/>
       <path d="M 19.671875 64.796875 
L 19.671875 8.109375 
L 31.59375 8.109375 
Q 46.6875 8.109375 53.6875 14.9375 
Q 60.6875 21.78125 60.6875 36.53125 
Q 60.6875 51.171875 53.6875 57.984375 
Q 46.6875 64.796875 31.59375 64.796875 
z
M 9.8125 72.90625 
L 30.078125 72.90625 
Q 51.265625 72.90625 61.171875 64.09375 
Q 71.09375 55.28125 71.09375 36.53125 
Q 71.09375 17.671875 61.125 8.828125 
Q 51.171875 0 30.078125 0 
L 9.8125 0 
z
" id="DejaVuSans-68"/>
      </defs>
      <use xlink:href="#DejaVuSans-83"/>
      <use x="63.476562" xlink:href="#DejaVuSans-121"/>
      <use x="122.65625" xlink:href="#DejaVuSans-110"/>
      <use x="186.035156" xlink:href="#DejaVuSans-99"/>
      <use x="241.015625" xlink:href="#DejaVuSans-45"/>
      <use x="277.099609" xlink:href="#DejaVuSans-83"/>
      <use x="340.576172" xlink:href="#DejaVuSans-71"/>
      <use x="418.066406" xlink:href="#DejaVuSans-68"/>
     </g>
    </g>
    <g id="line2d_19">
     <path d="M 363.492188 274.382187 
L 383.492188 274.382187 
" style="fill:none;stroke:#ff7f0e;stroke-linecap:square;stroke-width:1.5;"/>
    </g>
    <g id="line2d_20"/>
    <g id="text_17">
     <!-- DP-SGD -->
     <g transform="translate(391.492188 277.882187)scale(0.1 -0.1)">
      <defs>
       <path d="M 19.671875 64.796875 
L 19.671875 37.40625 
L 32.078125 37.40625 
Q 38.96875 37.40625 42.71875 40.96875 
Q 46.484375 44.53125 46.484375 51.125 
Q 46.484375 57.671875 42.71875 61.234375 
Q 38.96875 64.796875 32.078125 64.796875 
z
M 9.8125 72.90625 
L 32.078125 72.90625 
Q 44.34375 72.90625 50.609375 67.359375 
Q 56.890625 61.8125 56.890625 51.125 
Q 56.890625 40.328125 50.609375 34.8125 
Q 44.34375 29.296875 32.078125 29.296875 
L 19.671875 29.296875 
L 19.671875 0 
L 9.8125 0 
z
" id="DejaVuSans-80"/>
      </defs>
      <use xlink:href="#DejaVuSans-68"/>
      <use x="77.001953" xlink:href="#DejaVuSans-80"/>
      <use x="135.054688" xlink:href="#DejaVuSans-45"/>
      <use x="171.138672" xlink:href="#DejaVuSans-83"/>
      <use x="234.615234" xlink:href="#DejaVuSans-71"/>
      <use x="312.105469" xlink:href="#DejaVuSans-68"/>
     </g>
    </g>
    <g id="line2d_21">
     <path d="M 363.492188 289.060312 
L 383.492188 289.060312 
" style="fill:none;stroke:#2ca02c;stroke-linecap:square;stroke-width:1.5;"/>
    </g>
    <g id="line2d_22"/>
    <g id="text_18">
     <!-- EDP-SGD -->
     <g transform="translate(391.492188 292.560312)scale(0.1 -0.1)">
      <use xlink:href="#DejaVuSans-69"/>
      <use x="63.183594" xlink:href="#DejaVuSans-68"/>
      <use x="140.185547" xlink:href="#DejaVuSans-80"/>
      <use x="198.238281" xlink:href="#DejaVuSans-45"/>
      <use x="234.322266" xlink:href="#DejaVuSans-83"/>
      <use x="297.798828" xlink:href="#DejaVuSans-71"/>
      <use x="375.289062" xlink:href="#DejaVuSans-68"/>
     </g>
    </g>
   </g>
  </g>
 </g>
 <defs>
  <clipPath id="pcf2e801223">
   <rect height="292.84" width="399.13" x="50.87" y="10.8"/>
  </clipPath>
 </defs>
</svg>
