<?xml version="1.0" encoding="utf-8" standalone="no"?>
<!DOCTYPE svg PUBLIC "-//W3C//DTD SVG 1.1//EN"
  "http://www.w3.org/Graphics/SVG/1.1/DTD/svg11.dtd">
<!-- Created with matplotlib (https://matplotlib.org/) -->
<svg height="345.6pt" version="1.1" viewBox="0 0 460.8 345.6" width="460.8pt" xmlns="http://www.w3.org/2000/svg" xmlns:xlink="http://www.w3.org/1999/xlink">
 <metadata>
  <rdf:RDF xmlns:cc="http://creativecommons.org/ns#" xmlns:dc="http://purl.org/dc/elements/1.1/" xmlns:rdf="http://www.w3.org/1999/02/22-rdf-syntax-ns#">
   <cc:Work>
    <dc:type rdf:resource="http://purl.org/dc/dcmitype/StillImage"/>
    <dc:date>2021-06-20T12:17:56.715224</dc:date>
    <dc:format>image/svg+xml</dc:format>
    <dc:creator>
     <cc:Agent>
      <dc:title>Matplotlib v3.3.1, https://matplotlib.org/</dc:title>
     </cc:Agent>
    </dc:creator>
   </cc:Work>
  </rdf:RDF>
 </metadata>
 <defs>
  <style type="text/css">*{stroke-linecap:butt;stroke-linejoin:round;}</style>
 </defs>
 <g id="figure_1">
  <g id="patch_1">
   <path d="M 0 345.6 
L 460.8 345.6 
L 460.8 0 
L 0 0 
z
" style="fill:#ffffff;"/>
  </g>
  <g id="axes_1">
   <g id="patch_2">
    <path d="M 50.87 303.64 
L 450 303.64 
L 450 10.8 
L 50.87 10.8 
z
" style="fill:#ffffff;"/>
   </g>
   <g id="PolyCollection_1">
    <path clip-path="url(#pf9d73c3c07)" d="M 69.012273 255.72357 
L 69.012273 290.329091 
L 71.447477 266.096122 
L 73.882682 252.603862 
L 76.317886 239.315563 
L 78.75309 196.979054 
L 81.188295 209.72304 
L 83.623499 189.317654 
L 86.058703 183.727612 
L 88.493908 180.265213 
L 90.929112 146.882686 
L 93.364317 142.33236 
L 95.799521 134.709666 
L 98.234725 133.527756 
L 100.66993 131.626878 
L 103.105134 152.709252 
L 105.540339 120.101395 
L 107.975543 130.177142 
L 110.410747 109.614027 
L 112.845952 104.258971 
L 115.281156 126.611216 
L 117.716361 114.372087 
L 120.151565 111.684364 
L 122.586769 82.620605 
L 125.021974 89.649591 
L 127.457178 91.829239 
L 129.892383 100.38229 
L 132.327587 122.08463 
L 134.762791 71.397044 
L 137.197996 90.360445 
L 139.6332 110.392839 
L 142.068405 85.394526 
L 144.503609 98.500284 
L 146.938813 78.137167 
L 149.374018 86.352408 
L 151.809222 78.968128 
L 154.244426 73.725453 
L 156.679631 85.377254 
L 159.114835 67.556693 
L 161.55004 62.004482 
L 163.985244 84.522258 
L 166.420448 64.733182 
L 168.855653 72.047026 
L 171.290857 81.971084 
L 173.726062 76.804133 
L 176.161266 102.174656 
L 178.59647 72.287478 
L 181.031675 75.819877 
L 183.466879 85.620264 
L 185.902084 75.263877 
L 188.337288 64.231114 
L 190.772492 78.269381 
L 193.207697 77.508234 
L 195.642901 50.134025 
L 198.078106 53.554632 
L 200.51331 90.272736 
L 202.948514 68.0952 
L 205.383719 78.788424 
L 207.818923 78.866762 
L 210.254128 69.370339 
L 212.689332 73.262607 
L 215.124536 76.831405 
L 217.559741 60.950493 
L 219.994945 80.394063 
L 222.430149 66.1723 
L 224.865354 74.318989 
L 227.300558 51.599352 
L 229.735763 60.742829 
L 232.170967 59.895433 
L 234.606171 84.72412 
L 237.041376 71.365937 
L 239.47658 56.409517 
L 241.911785 73.752364 
L 244.346989 51.194629 
L 246.782193 68.791783 
L 249.217398 67.363954 
L 251.652602 57.004046 
L 254.087807 67.289332 
L 256.523011 55.010802 
L 258.958215 52.326435 
L 261.39342 67.110379 
L 263.828624 64.809121 
L 266.263829 52.256039 
L 268.699033 70.457151 
L 271.134237 67.236825 
L 273.569442 67.716278 
L 276.004646 60.834 
L 278.439851 47.622204 
L 280.875055 54.955546 
L 283.310259 68.235837 
L 285.745464 54.517359 
L 288.180668 51.52834 
L 290.615872 56.799967 
L 293.051077 66.322978 
L 295.486281 47.737514 
L 297.921486 49.360737 
L 300.35669 48.754243 
L 302.791894 50.176067 
L 305.227099 63.551272 
L 307.662303 53.554632 
L 310.097508 47.392652 
L 312.532712 50.813112 
L 314.967916 62.891147 
L 317.403121 47.647526 
L 319.838325 56.735381 
L 322.27353 46.231683 
L 324.708734 54.438095 
L 327.143938 44.723354 
L 329.579143 55.46219 
L 332.014347 52.440114 
L 334.449552 48.889473 
L 336.884756 49.414452 
L 339.31996 49.904327 
L 341.755165 44.102372 
L 344.190369 48.326344 
L 346.625574 49.188244 
L 349.060778 36.287707 
L 351.495982 39.233679 
L 353.931187 42.256396 
L 356.366391 50.220254 
L 358.801595 47.459877 
L 361.2368 44.92117 
L 363.672004 41.132399 
L 366.107209 43.168184 
L 368.542413 41.725257 
L 370.977617 42.511497 
L 373.412822 35.072005 
L 375.848026 34.105731 
L 378.283231 33.877317 
L 380.718435 37.55908 
L 383.153639 36.262385 
L 385.588844 33.106958 
L 388.024048 34.689751 
L 390.459253 33.015152 
L 392.894457 32.417787 
L 395.329661 35.666666 
L 397.764866 33.990421 
L 400.20007 34.105731 
L 402.635275 34.105731 
L 405.070479 31.963395 
L 407.505683 31.963395 
L 409.940888 31.963395 
L 412.376092 31.963395 
L 414.811297 31.963395 
L 417.246501 31.963395 
L 419.681705 34.105731 
L 422.11691 35.014517 
L 424.552114 34.015744 
L 426.987318 35.287116 
L 429.422523 31.963395 
L 431.857727 31.963395 
L 431.857727 25.162667 
L 431.857727 25.162667 
L 429.422523 25.162667 
L 426.987318 26.382873 
L 424.552114 26.74546 
L 422.11691 25.746687 
L 419.681705 24.837901 
L 417.246501 25.162667 
L 414.811297 25.162667 
L 412.376092 25.162667 
L 409.940888 25.162667 
L 407.505683 25.162667 
L 405.070479 25.162667 
L 402.635275 24.837901 
L 400.20007 24.837901 
L 397.764866 25.861997 
L 395.329661 29.638465 
L 392.894457 25.617059 
L 390.459253 24.110909 
L 388.024048 27.889023 
L 385.588844 29.471816 
L 383.153639 28.13396 
L 380.718435 28.654837 
L 378.283231 25.066315 
L 375.848026 24.837901 
L 373.412822 29.324341 
L 370.977617 29.155132 
L 368.542413 28.123801 
L 366.107209 30.316016 
L 363.672004 30.53423 
L 361.2368 30.380602 
L 358.801595 27.841894 
L 356.366391 39.622085 
L 353.931187 32.136589 
L 351.495982 32.432951 
L 349.060778 29.017423 
L 346.625574 31.56624 
L 344.190369 29.701784 
L 341.755165 34.834542 
L 339.31996 36.302871 
L 336.884756 33.157603 
L 334.449552 33.682583 
L 332.014347 35.584654 
L 329.579143 46.19436 
L 327.143938 32.395988 
L 324.708734 46.30967 
L 322.27353 34.522801 
L 319.838325 42.194813 
L 317.403121 40.377242 
L 314.967916 46.035687 
L 312.532712 37.211656 
L 310.097508 30.635476 
L 307.662303 46.284348 
L 305.227099 38.105278 
L 302.791894 37.848701 
L 300.35669 32.909027 
L 297.921486 39.572817 
L 295.486281 38.469684 
L 293.051077 43.512643 
L 290.615872 43.947799 
L 288.180668 31.952501 
L 285.745464 35.32498 
L 283.310259 53.413994 
L 280.875055 43.974649 
L 278.439851 39.493779 
L 276.004646 38.096194 
L 273.569442 45.754484 
L 271.134237 34.419726 
L 268.699033 61.189321 
L 266.263829 39.403871 
L 263.828624 41.391357 
L 261.39342 48.177954 
L 258.958215 38.42469 
L 256.523011 39.375465 
L 254.087807 37.093575 
L 251.652602 38.291007 
L 249.217398 49.74195 
L 246.782193 44.678979 
L 244.346989 39.556496 
L 241.911785 53.35018 
L 239.47658 43.429463 
L 237.041376 62.098107 
L 234.606171 66.915634 
L 232.170967 49.940187 
L 229.735763 38.187366 
L 227.300558 38.242987 
L 224.865354 60.962625 
L 222.430149 42.754535 
L 219.994945 53.06998 
L 217.559741 36.16213 
L 215.124536 56.632638 
L 212.689332 51.113582 
L 210.254128 57.732206 
L 207.818923 52.77971 
L 205.383719 54.67562 
L 202.948514 51.737061 
L 200.51331 66.81973 
L 198.078106 40.831635 
L 195.642901 46.069813 
L 193.207697 56.864595 
L 190.772492 60.647376 
L 188.337288 34.699081 
L 185.902084 59.108952 
L 183.466879 60.566777 
L 181.031675 54.009025 
L 178.59647 52.088711 
L 176.161266 69.458378 
L 173.726062 54.842339 
L 171.290857 60.580814 
L 168.855653 58.690661 
L 166.420448 47.828795 
L 163.985244 63.482353 
L 161.55004 44.195996 
L 159.114835 50.457996 
L 156.679631 71.715212 
L 154.244426 56.103448 
L 151.809222 53.58713 
L 149.374018 63.469774 
L 146.938813 59.870804 
L 144.503609 72.223965 
L 142.068405 66.245227 
L 139.6332 83.959832 
L 137.197996 75.819877 
L 134.762791 59.340642 
L 132.327587 84.991039 
L 129.892383 83.973741 
L 127.457178 64.354442 
L 125.021974 73.804374 
L 122.586769 69.019149 
L 120.151565 99.026447 
L 117.716361 85.433298 
L 115.281156 87.734737 
L 112.845952 84.640988 
L 110.410747 87.465002 
L 107.975543 87.803953 
L 105.540339 98.788486 
L 103.105134 127.069257 
L 100.66993 94.533286 
L 98.234725 104.44662 
L 95.799521 117.805278 
L 93.364317 112.000155 
L 90.929112 129.260681 
L 88.493908 129.503218 
L 86.058703 139.672601 
L 83.623499 166.798837 
L 81.188295 180.9273 
L 78.75309 178.221933 
L 76.317886 224.946403 
L 73.882682 236.195312 
L 71.447477 248.149046 
L 69.012273 255.72357 
z
" style="fill:#1f77b4;fill-opacity:0.25;"/>
   </g>
   <g id="PolyCollection_2">
    <path clip-path="url(#pf9d73c3c07)" d="M 69.012273 253.185522 
L 69.012273 271.595878 
L 71.447477 261.635691 
L 73.882682 257.366446 
L 76.317886 279.052589 
L 78.75309 215.23525 
L 81.188295 209.683949 
L 83.623499 204.334253 
L 86.058703 185.152306 
L 88.493908 174.292603 
L 90.929112 165.870053 
L 93.364317 165.693413 
L 95.799521 150.532732 
L 98.234725 142.115479 
L 100.66993 140.103545 
L 103.105134 138.494392 
L 105.540339 122.77263 
L 107.975543 123.255314 
L 110.410747 125.820588 
L 112.845952 104.599875 
L 115.281156 111.764986 
L 117.716361 104.90918 
L 120.151565 106.770559 
L 122.586769 103.625118 
L 125.021974 113.462231 
L 127.457178 87.676817 
L 129.892383 95.327719 
L 132.327587 109.001753 
L 134.762791 99.025969 
L 137.197996 100.079714 
L 139.6332 93.211828 
L 142.068405 99.733039 
L 144.503609 106.109866 
L 146.938813 93.996074 
L 149.374018 83.084616 
L 151.809222 87.129026 
L 154.244426 98.412243 
L 156.679631 92.088459 
L 159.114835 86.458759 
L 161.55004 97.678524 
L 163.985244 109.772362 
L 166.420448 99.743123 
L 168.855653 76.156437 
L 171.290857 92.180761 
L 173.726062 79.711967 
L 176.161266 94.620178 
L 178.59647 89.279325 
L 181.031675 98.143671 
L 183.466879 82.31429 
L 185.902084 74.727709 
L 188.337288 78.77711 
L 190.772492 85.541804 
L 193.207697 83.140029 
L 195.642901 85.270382 
L 198.078106 75.394366 
L 200.51331 85.125565 
L 202.948514 80.778074 
L 205.383719 83.110667 
L 207.818923 75.738894 
L 210.254128 68.854594 
L 212.689332 66.31419 
L 215.124536 85.793245 
L 217.559741 73.914723 
L 219.994945 76.726633 
L 222.430149 87.491032 
L 224.865354 86.861256 
L 227.300558 89.858597 
L 229.735763 77.802493 
L 232.170967 77.547569 
L 234.606171 68.049457 
L 237.041376 68.064117 
L 239.47658 66.920286 
L 241.911785 73.572818 
L 244.346989 63.793683 
L 246.782193 91.632249 
L 249.217398 70.608061 
L 251.652602 68.02002 
L 254.087807 74.178229 
L 256.523011 70.141154 
L 258.958215 75.242525 
L 261.39342 82.431525 
L 263.828624 87.02691 
L 266.263829 69.221734 
L 268.699033 73.926351 
L 271.134237 56.253123 
L 273.569442 68.309669 
L 276.004646 71.769877 
L 278.439851 58.486879 
L 280.875055 69.60635 
L 283.310259 68.698478 
L 285.745464 76.273976 
L 288.180668 58.997716 
L 290.615872 67.603326 
L 293.051077 73.318071 
L 295.486281 79.417932 
L 297.921486 65.629473 
L 300.35669 77.958359 
L 302.791894 63.90241 
L 305.227099 51.16001 
L 307.662303 56.830838 
L 310.097508 66.258309 
L 312.532712 65.469932 
L 314.967916 72.189007 
L 317.403121 68.289967 
L 319.838325 74.53413 
L 322.27353 66.850533 
L 324.708734 66.391009 
L 327.143938 68.825992 
L 329.579143 61.842668 
L 332.014347 64.763837 
L 334.449552 63.223071 
L 336.884756 57.095473 
L 339.31996 47.341123 
L 341.755165 52.867621 
L 344.190369 61.944196 
L 346.625574 69.240677 
L 349.060778 57.956562 
L 351.495982 56.60577 
L 353.931187 53.00309 
L 356.366391 53.439553 
L 358.801595 51.4908 
L 361.2368 43.006884 
L 363.672004 57.143984 
L 366.107209 47.081533 
L 368.542413 45.480961 
L 370.977617 53.204644 
L 373.412822 49.873625 
L 375.848026 49.115381 
L 378.283231 54.279419 
L 380.718435 43.013032 
L 383.153639 54.802663 
L 385.588844 45.989152 
L 388.024048 50.055234 
L 390.459253 51.667586 
L 392.894457 50.534427 
L 395.329661 53.885459 
L 397.764866 48.698649 
L 400.20007 47.365831 
L 402.635275 43.410778 
L 405.070479 43.46369 
L 407.505683 50.098403 
L 409.940888 46.880984 
L 412.376092 43.0874 
L 414.811297 43.0874 
L 417.246501 44.620361 
L 419.681705 44.054607 
L 422.11691 40.925091 
L 424.552114 47.407851 
L 426.987318 39.27531 
L 429.422523 42.050954 
L 431.857727 42.939445 
L 431.857727 34.407094 
L 431.857727 34.407094 
L 429.422523 33.818808 
L 426.987318 32.845712 
L 424.552114 31.585862 
L 422.11691 35.739859 
L 419.681705 34.939105 
L 417.246501 30.965405 
L 414.811297 32.498367 
L 412.376092 32.498367 
L 409.940888 30.465555 
L 407.505683 31.621666 
L 405.070479 31.156492 
L 402.635275 34.446952 
L 400.20007 37.194193 
L 397.764866 36.826959 
L 395.329661 36.01368 
L 392.894457 34.991181 
L 390.459253 33.801223 
L 388.024048 32.005629 
L 385.588844 32.606967 
L 383.153639 36.06206 
L 380.718435 35.35589 
L 378.283231 38.459674 
L 375.848026 40.897355 
L 373.412822 43.887852 
L 370.977617 36.808092 
L 368.542413 36.636702 
L 366.107209 39.40966 
L 363.672004 38.378265 
L 361.2368 32.862878 
L 358.801595 38.521936 
L 356.366391 38.731549 
L 353.931187 38.03203 
L 351.495982 31.589396 
L 349.060778 38.417673 
L 346.625574 53.772333 
L 344.190369 47.039438 
L 341.755165 37.997102 
L 339.31996 37.105302 
L 336.884756 44.788274 
L 334.449552 39.001471 
L 332.014347 40.527856 
L 329.579143 46.175381 
L 327.143938 50.040684 
L 324.708734 44.239799 
L 322.27353 40.088333 
L 319.838325 54.499584 
L 317.403121 52.280682 
L 314.967916 54.629542 
L 312.532712 49.364008 
L 310.097508 44.486097 
L 307.662303 45.734498 
L 305.227099 28.912885 
L 302.791894 42.525265 
L 300.35669 60.049612 
L 297.921486 40.627805 
L 295.486281 61.600391 
L 293.051077 58.385201 
L 290.615872 49.672976 
L 288.180668 43.510821 
L 285.745464 48.783801 
L 283.310259 53.235349 
L 280.875055 46.647568 
L 278.439851 42.147289 
L 276.004646 49.595959 
L 273.569442 49.818619 
L 271.134237 48.697776 
L 268.699033 48.177874 
L 266.263829 59.414387 
L 263.828624 67.225602 
L 261.39342 43.932632 
L 258.958215 53.279997 
L 256.523011 51.792673 
L 254.087807 57.241047 
L 251.652602 56.015374 
L 249.217398 47.577026 
L 246.782193 62.904258 
L 244.346989 59.219327 
L 241.911785 51.882553 
L 239.47658 48.936039 
L 237.041376 43.418677 
L 234.606171 47.977265 
L 232.170967 57.734045 
L 229.735763 65.601392 
L 227.300558 71.550601 
L 224.865354 65.119292 
L 222.430149 69.203841 
L 219.994945 50.091916 
L 217.559741 58.35654 
L 215.124536 70.844829 
L 212.689332 58.005199 
L 210.254128 50.864069 
L 207.818923 64.257045 
L 205.383719 68.813082 
L 202.948514 61.319431 
L 200.51331 67.820567 
L 198.078106 60.341641 
L 195.642901 70.118112 
L 193.207697 66.738953 
L 190.772492 60.247643 
L 188.337288 63.433994 
L 185.902084 58.96353 
L 183.466879 65.008733 
L 181.031675 69.115833 
L 178.59647 81.785718 
L 176.161266 74.343299 
L 173.726062 63.010329 
L 171.290857 61.333362 
L 168.855653 67.588242 
L 166.420448 77.683419 
L 163.985244 82.70594 
L 161.55004 82.190379 
L 159.114835 61.71625 
L 156.679631 72.103894 
L 154.244426 77.367125 
L 151.809222 67.123485 
L 149.374018 67.816749 
L 146.938813 69.173895 
L 144.503609 73.475042 
L 142.068405 78.034298 
L 139.6332 59.961501 
L 137.197996 78.766805 
L 134.762791 75.901413 
L 132.327587 83.078955 
L 129.892383 80.39485 
L 127.457178 64.303731 
L 125.021974 84.809579 
L 122.586769 83.116476 
L 120.151565 88.718095 
L 117.716361 80.014843 
L 115.281156 80.315722 
L 112.845952 89.184806 
L 110.410747 104.429111 
L 107.975543 98.247324 
L 105.540339 112.077796 
L 103.105134 106.579871 
L 100.66993 119.056893 
L 98.234725 126.644006 
L 95.799521 132.256129 
L 93.364317 136.747935 
L 90.929112 135.548911 
L 88.493908 134.226247 
L 86.058703 168.408226 
L 83.623499 161.154089 
L 81.188295 177.444847 
L 78.75309 176.579471 
L 76.317886 192.138867 
L 73.882682 240.151389 
L 71.447477 244.047014 
L 69.012273 253.185522 
z
" style="fill:#ff7f0e;fill-opacity:0.25;"/>
   </g>
   <g id="PolyCollection_3">
    <path clip-path="url(#pf9d73c3c07)" d="M 69.012273 240.140521 
L 69.012273 266.578768 
L 71.447477 241.253516 
L 73.882682 279.871548 
L 76.317886 207.719371 
L 78.75309 211.666326 
L 81.188295 183.926072 
L 83.623499 183.965334 
L 86.058703 172.990442 
L 88.493908 152.249756 
L 90.929112 152.918695 
L 93.364317 131.935302 
L 95.799521 116.813012 
L 98.234725 117.201824 
L 100.66993 107.108727 
L 103.105134 98.935862 
L 105.540339 105.498306 
L 107.975543 85.929538 
L 110.410747 96.837868 
L 112.845952 84.367159 
L 115.281156 77.867458 
L 117.716361 95.923619 
L 120.151565 82.465371 
L 122.586769 91.332926 
L 125.021974 69.20335 
L 127.457178 73.358979 
L 129.892383 69.50462 
L 132.327587 85.155122 
L 134.762791 79.551031 
L 137.197996 78.284519 
L 139.6332 73.587675 
L 142.068405 74.228171 
L 144.503609 70.515701 
L 146.938813 74.099504 
L 149.374018 76.260828 
L 151.809222 68.630516 
L 154.244426 72.199962 
L 156.679631 69.094404 
L 159.114835 68.493803 
L 161.55004 78.382026 
L 163.985244 77.324667 
L 166.420448 71.942352 
L 168.855653 66.540386 
L 171.290857 67.874648 
L 173.726062 71.664843 
L 176.161266 77.537281 
L 178.59647 73.618775 
L 181.031675 66.973399 
L 183.466879 74.801842 
L 185.902084 74.630661 
L 188.337288 67.295413 
L 190.772492 79.31001 
L 193.207697 65.113247 
L 195.642901 64.160927 
L 198.078106 59.784235 
L 200.51331 67.641815 
L 202.948514 61.634122 
L 205.383719 69.790777 
L 207.818923 59.074698 
L 210.254128 73.119044 
L 212.689332 63.592608 
L 215.124536 54.152967 
L 217.559741 63.686122 
L 219.994945 69.009658 
L 222.430149 60.852092 
L 224.865354 53.524676 
L 227.300558 66.545246 
L 229.735763 70.070725 
L 232.170967 57.005642 
L 234.606171 59.633164 
L 237.041376 57.841453 
L 239.47658 59.657467 
L 241.911785 65.392639 
L 244.346989 56.922638 
L 246.782193 51.977698 
L 249.217398 58.755175 
L 251.652602 58.781709 
L 254.087807 57.465396 
L 256.523011 58.762777 
L 258.958215 67.920468 
L 261.39342 58.570966 
L 263.828624 62.06005 
L 266.263829 53.737421 
L 268.699033 59.100767 
L 271.134237 53.624584 
L 273.569442 50.098894 
L 276.004646 51.945939 
L 278.439851 56.80573 
L 280.875055 49.075835 
L 283.310259 56.683022 
L 285.745464 52.029624 
L 288.180668 54.403948 
L 290.615872 59.46852 
L 293.051077 62.442346 
L 295.486281 55.667441 
L 297.921486 49.662077 
L 300.35669 63.122162 
L 302.791894 51.378467 
L 305.227099 56.092314 
L 307.662303 50.88183 
L 310.097508 48.934438 
L 312.532712 46.723436 
L 314.967916 49.918051 
L 317.403121 61.195007 
L 319.838325 51.133948 
L 322.27353 49.339422 
L 324.708734 49.012804 
L 327.143938 49.745197 
L 329.579143 44.003158 
L 332.014347 41.033811 
L 334.449552 46.835988 
L 336.884756 45.350774 
L 339.31996 39.161407 
L 341.755165 41.821862 
L 344.190369 42.693412 
L 346.625574 40.780291 
L 349.060778 39.998091 
L 351.495982 48.158437 
L 353.931187 41.690083 
L 356.366391 46.268488 
L 358.801595 37.09974 
L 361.2368 40.570941 
L 363.672004 38.152593 
L 366.107209 38.868637 
L 368.542413 42.651139 
L 370.977617 36.846848 
L 373.412822 41.28819 
L 375.848026 39.062527 
L 378.283231 38.584863 
L 380.718435 45.570301 
L 383.153639 37.328521 
L 385.588844 44.323415 
L 388.024048 35.974273 
L 390.459253 43.121531 
L 392.894457 35.419184 
L 395.329661 45.385382 
L 397.764866 35.696662 
L 400.20007 44.135171 
L 402.635275 35.254378 
L 405.070479 35.128055 
L 407.505683 41.708566 
L 409.940888 42.098971 
L 412.376092 36.568796 
L 414.811297 35.998577 
L 417.246501 44.880158 
L 419.681705 36.269993 
L 422.11691 37.176258 
L 424.552114 36.757494 
L 426.987318 35.836415 
L 429.422523 44.575518 
L 431.857727 36.776874 
L 431.857727 28.92585 
L 431.857727 28.92585 
L 429.422523 26.977513 
L 426.987318 25.947172 
L 424.552114 27.468454 
L 422.11691 26.992891 
L 419.681705 27.955955 
L 417.246501 25.707288 
L 414.811297 26.580198 
L 412.376092 26.861965 
L 409.940888 27.636489 
L 407.505683 24.902944 
L 405.070479 29.495486 
L 402.635275 27.381196 
L 400.20007 25.429892 
L 397.764866 26.938912 
L 395.329661 25.088466 
L 392.894457 26.364403 
L 390.459253 27.18192 
L 388.024048 28.990063 
L 385.588844 28.365598 
L 383.153639 31.270957 
L 380.718435 26.493922 
L 378.283231 28.026647 
L 375.848026 28.912161 
L 373.412822 32.707202 
L 370.977617 31.752631 
L 368.542413 28.049905 
L 366.107209 30.639627 
L 363.672004 33.059643 
L 361.2368 33.140456 
L 358.801595 32.294926 
L 356.366391 33.520412 
L 353.931187 27.079793 
L 351.495982 33.788828 
L 349.060778 34.338096 
L 346.625574 36.339052 
L 344.190369 32.778756 
L 341.755165 36.887855 
L 339.31996 35.685971 
L 336.884756 35.744504 
L 334.449552 36.247259 
L 332.014347 32.677585 
L 329.579143 34.308965 
L 327.143938 36.291603 
L 324.708734 39.409557 
L 322.27353 34.993405 
L 319.838325 41.661944 
L 317.403121 39.609558 
L 314.967916 37.027535 
L 312.532712 37.779788 
L 310.097508 39.715121 
L 307.662303 39.698898 
L 305.227099 39.827529 
L 302.791894 45.052567 
L 300.35669 42.169531 
L 297.921486 37.681102 
L 295.486281 46.329905 
L 293.051077 48.642854 
L 290.615872 46.61836 
L 288.180668 46.855009 
L 285.745464 46.843771 
L 283.310259 45.598319 
L 280.875055 43.54966 
L 278.439851 41.613273 
L 276.004646 38.975583 
L 273.569442 42.299404 
L 271.134237 41.102477 
L 268.699033 51.246045 
L 266.263829 42.920809 
L 263.828624 41.584469 
L 261.39342 42.971987 
L 258.958215 50.435017 
L 256.523011 51.072843 
L 254.087807 40.328817 
L 251.652602 48.441153 
L 249.217398 52.159628 
L 246.782193 47.463688 
L 244.346989 43.65473 
L 241.911785 53.133242 
L 239.47658 45.463829 
L 237.041376 49.835802 
L 234.606171 47.873694 
L 232.170967 47.036471 
L 229.735763 45.388006 
L 227.300558 49.424676 
L 224.865354 45.235121 
L 222.430149 45.689181 
L 219.994945 40.996359 
L 217.559741 46.0927 
L 215.124536 45.85641 
L 212.689332 50.673342 
L 210.254128 54.60829 
L 207.818923 45.30821 
L 205.383719 54.812607 
L 202.948514 51.609444 
L 200.51331 58.83594 
L 198.078106 51.471362 
L 195.642901 55.33054 
L 193.207697 56.706982 
L 190.772492 50.916485 
L 188.337288 59.409538 
L 185.902084 48.836742 
L 183.466879 67.750057 
L 181.031675 56.323607 
L 178.59647 60.35646 
L 176.161266 64.673823 
L 173.726062 64.071164 
L 171.290857 52.696001 
L 168.855653 54.143862 
L 166.420448 63.566459 
L 163.985244 54.321805 
L 161.55004 58.830758 
L 159.114835 56.507175 
L 156.679631 59.200922 
L 154.244426 50.415455 
L 151.809222 52.224129 
L 149.374018 57.373613 
L 146.938813 56.410986 
L 144.503609 58.915607 
L 142.068405 63.325407 
L 139.6332 62.716323 
L 137.197996 63.131398 
L 134.762791 64.250447 
L 132.327587 73.073326 
L 129.892383 62.028254 
L 127.457178 64.76259 
L 125.021974 60.68235 
L 122.586769 73.200221 
L 120.151565 71.105552 
L 117.716361 67.643944 
L 115.281156 64.968435 
L 112.845952 68.749371 
L 110.410747 72.920796 
L 107.975543 78.944404 
L 105.540339 78.687328 
L 103.105134 82.750612 
L 100.66993 83.949597 
L 98.234725 96.860134 
L 95.799521 103.667243 
L 93.364317 113.706952 
L 90.929112 129.074979 
L 88.493908 132.015881 
L 86.058703 134.136831 
L 83.623499 136.87892 
L 81.188295 151.913143 
L 78.75309 179.722402 
L 76.317886 190.684045 
L 73.882682 207.42245 
L 71.447477 226.955987 
L 69.012273 240.140521 
z
" style="fill:#2ca02c;fill-opacity:0.25;"/>
   </g>
   <g id="matplotlib.axis_1">
    <g id="xtick_1">
     <g id="line2d_1">
      <defs>
       <path d="M 0 0 
L 0 3.5 
" id="m7c54cffdfa" style="stroke:#000000;stroke-width:0.8;"/>
      </defs>
      <g>
       <use style="stroke:#000000;stroke-width:0.8;" x="69.012273" xlink:href="#m7c54cffdfa" y="303.64"/>
      </g>
     </g>
     <g id="text_1">
      <!-- 0 -->
      <g transform="translate(65.831023 318.238437)scale(0.1 -0.1)">
       <defs>
        <path d="M 31.78125 66.40625 
Q 24.171875 66.40625 20.328125 58.90625 
Q 16.5 51.421875 16.5 36.375 
Q 16.5 21.390625 20.328125 13.890625 
Q 24.171875 6.390625 31.78125 6.390625 
Q 39.453125 6.390625 43.28125 13.890625 
Q 47.125 21.390625 47.125 36.375 
Q 47.125 51.421875 43.28125 58.90625 
Q 39.453125 66.40625 31.78125 66.40625 
z
M 31.78125 74.21875 
Q 44.046875 74.21875 50.515625 64.515625 
Q 56.984375 54.828125 56.984375 36.375 
Q 56.984375 17.96875 50.515625 8.265625 
Q 44.046875 -1.421875 31.78125 -1.421875 
Q 19.53125 -1.421875 13.0625 8.265625 
Q 6.59375 17.96875 6.59375 36.375 
Q 6.59375 54.828125 13.0625 64.515625 
Q 19.53125 74.21875 31.78125 74.21875 
z
" id="DejaVuSans-48"/>
       </defs>
       <use xlink:href="#DejaVuSans-48"/>
      </g>
     </g>
    </g>
    <g id="xtick_2">
     <g id="line2d_2">
      <g>
       <use style="stroke:#000000;stroke-width:0.8;" x="117.716361" xlink:href="#m7c54cffdfa" y="303.64"/>
      </g>
     </g>
     <g id="text_2">
      <!-- 20 -->
      <g transform="translate(111.353861 318.238437)scale(0.1 -0.1)">
       <defs>
        <path d="M 19.1875 8.296875 
L 53.609375 8.296875 
L 53.609375 0 
L 7.328125 0 
L 7.328125 8.296875 
Q 12.9375 14.109375 22.625 23.890625 
Q 32.328125 33.6875 34.8125 36.53125 
Q 39.546875 41.84375 41.421875 45.53125 
Q 43.3125 49.21875 43.3125 52.78125 
Q 43.3125 58.59375 39.234375 62.25 
Q 35.15625 65.921875 28.609375 65.921875 
Q 23.96875 65.921875 18.8125 64.3125 
Q 13.671875 62.703125 7.8125 59.421875 
L 7.8125 69.390625 
Q 13.765625 71.78125 18.9375 73 
Q 24.125 74.21875 28.421875 74.21875 
Q 39.75 74.21875 46.484375 68.546875 
Q 53.21875 62.890625 53.21875 53.421875 
Q 53.21875 48.921875 51.53125 44.890625 
Q 49.859375 40.875 45.40625 35.40625 
Q 44.1875 33.984375 37.640625 27.21875 
Q 31.109375 20.453125 19.1875 8.296875 
z
" id="DejaVuSans-50"/>
       </defs>
       <use xlink:href="#DejaVuSans-50"/>
       <use x="63.623047" xlink:href="#DejaVuSans-48"/>
      </g>
     </g>
    </g>
    <g id="xtick_3">
     <g id="line2d_3">
      <g>
       <use style="stroke:#000000;stroke-width:0.8;" x="166.420448" xlink:href="#m7c54cffdfa" y="303.64"/>
      </g>
     </g>
     <g id="text_3">
      <!-- 40 -->
      <g transform="translate(160.057948 318.238437)scale(0.1 -0.1)">
       <defs>
        <path d="M 37.796875 64.3125 
L 12.890625 25.390625 
L 37.796875 25.390625 
z
M 35.203125 72.90625 
L 47.609375 72.90625 
L 47.609375 25.390625 
L 58.015625 25.390625 
L 58.015625 17.1875 
L 47.609375 17.1875 
L 47.609375 0 
L 37.796875 0 
L 37.796875 17.1875 
L 4.890625 17.1875 
L 4.890625 26.703125 
z
" id="DejaVuSans-52"/>
       </defs>
       <use xlink:href="#DejaVuSans-52"/>
       <use x="63.623047" xlink:href="#DejaVuSans-48"/>
      </g>
     </g>
    </g>
    <g id="xtick_4">
     <g id="line2d_4">
      <g>
       <use style="stroke:#000000;stroke-width:0.8;" x="215.124536" xlink:href="#m7c54cffdfa" y="303.64"/>
      </g>
     </g>
     <g id="text_4">
      <!-- 60 -->
      <g transform="translate(208.762036 318.238437)scale(0.1 -0.1)">
       <defs>
        <path d="M 33.015625 40.375 
Q 26.375 40.375 22.484375 35.828125 
Q 18.609375 31.296875 18.609375 23.390625 
Q 18.609375 15.53125 22.484375 10.953125 
Q 26.375 6.390625 33.015625 6.390625 
Q 39.65625 6.390625 43.53125 10.953125 
Q 47.40625 15.53125 47.40625 23.390625 
Q 47.40625 31.296875 43.53125 35.828125 
Q 39.65625 40.375 33.015625 40.375 
z
M 52.59375 71.296875 
L 52.59375 62.3125 
Q 48.875 64.0625 45.09375 64.984375 
Q 41.3125 65.921875 37.59375 65.921875 
Q 27.828125 65.921875 22.671875 59.328125 
Q 17.53125 52.734375 16.796875 39.40625 
Q 19.671875 43.65625 24.015625 45.921875 
Q 28.375 48.1875 33.59375 48.1875 
Q 44.578125 48.1875 50.953125 41.515625 
Q 57.328125 34.859375 57.328125 23.390625 
Q 57.328125 12.15625 50.6875 5.359375 
Q 44.046875 -1.421875 33.015625 -1.421875 
Q 20.359375 -1.421875 13.671875 8.265625 
Q 6.984375 17.96875 6.984375 36.375 
Q 6.984375 53.65625 15.1875 63.9375 
Q 23.390625 74.21875 37.203125 74.21875 
Q 40.921875 74.21875 44.703125 73.484375 
Q 48.484375 72.75 52.59375 71.296875 
z
" id="DejaVuSans-54"/>
       </defs>
       <use xlink:href="#DejaVuSans-54"/>
       <use x="63.623047" xlink:href="#DejaVuSans-48"/>
      </g>
     </g>
    </g>
    <g id="xtick_5">
     <g id="line2d_5">
      <g>
       <use style="stroke:#000000;stroke-width:0.8;" x="263.828624" xlink:href="#m7c54cffdfa" y="303.64"/>
      </g>
     </g>
     <g id="text_5">
      <!-- 80 -->
      <g transform="translate(257.466124 318.238437)scale(0.1 -0.1)">
       <defs>
        <path d="M 31.78125 34.625 
Q 24.75 34.625 20.71875 30.859375 
Q 16.703125 27.09375 16.703125 20.515625 
Q 16.703125 13.921875 20.71875 10.15625 
Q 24.75 6.390625 31.78125 6.390625 
Q 38.8125 6.390625 42.859375 10.171875 
Q 46.921875 13.96875 46.921875 20.515625 
Q 46.921875 27.09375 42.890625 30.859375 
Q 38.875 34.625 31.78125 34.625 
z
M 21.921875 38.8125 
Q 15.578125 40.375 12.03125 44.71875 
Q 8.5 49.078125 8.5 55.328125 
Q 8.5 64.0625 14.71875 69.140625 
Q 20.953125 74.21875 31.78125 74.21875 
Q 42.671875 74.21875 48.875 69.140625 
Q 55.078125 64.0625 55.078125 55.328125 
Q 55.078125 49.078125 51.53125 44.71875 
Q 48 40.375 41.703125 38.8125 
Q 48.828125 37.15625 52.796875 32.3125 
Q 56.78125 27.484375 56.78125 20.515625 
Q 56.78125 9.90625 50.3125 4.234375 
Q 43.84375 -1.421875 31.78125 -1.421875 
Q 19.734375 -1.421875 13.25 4.234375 
Q 6.78125 9.90625 6.78125 20.515625 
Q 6.78125 27.484375 10.78125 32.3125 
Q 14.796875 37.15625 21.921875 38.8125 
z
M 18.3125 54.390625 
Q 18.3125 48.734375 21.84375 45.5625 
Q 25.390625 42.390625 31.78125 42.390625 
Q 38.140625 42.390625 41.71875 45.5625 
Q 45.3125 48.734375 45.3125 54.390625 
Q 45.3125 60.0625 41.71875 63.234375 
Q 38.140625 66.40625 31.78125 66.40625 
Q 25.390625 66.40625 21.84375 63.234375 
Q 18.3125 60.0625 18.3125 54.390625 
z
" id="DejaVuSans-56"/>
       </defs>
       <use xlink:href="#DejaVuSans-56"/>
       <use x="63.623047" xlink:href="#DejaVuSans-48"/>
      </g>
     </g>
    </g>
    <g id="xtick_6">
     <g id="line2d_6">
      <g>
       <use style="stroke:#000000;stroke-width:0.8;" x="312.532712" xlink:href="#m7c54cffdfa" y="303.64"/>
      </g>
     </g>
     <g id="text_6">
      <!-- 100 -->
      <g transform="translate(302.988962 318.238437)scale(0.1 -0.1)">
       <defs>
        <path d="M 12.40625 8.296875 
L 28.515625 8.296875 
L 28.515625 63.921875 
L 10.984375 60.40625 
L 10.984375 69.390625 
L 28.421875 72.90625 
L 38.28125 72.90625 
L 38.28125 8.296875 
L 54.390625 8.296875 
L 54.390625 0 
L 12.40625 0 
z
" id="DejaVuSans-49"/>
       </defs>
       <use xlink:href="#DejaVuSans-49"/>
       <use x="63.623047" xlink:href="#DejaVuSans-48"/>
       <use x="127.246094" xlink:href="#DejaVuSans-48"/>
      </g>
     </g>
    </g>
    <g id="xtick_7">
     <g id="line2d_7">
      <g>
       <use style="stroke:#000000;stroke-width:0.8;" x="361.2368" xlink:href="#m7c54cffdfa" y="303.64"/>
      </g>
     </g>
     <g id="text_7">
      <!-- 120 -->
      <g transform="translate(351.69305 318.238437)scale(0.1 -0.1)">
       <use xlink:href="#DejaVuSans-49"/>
       <use x="63.623047" xlink:href="#DejaVuSans-50"/>
       <use x="127.246094" xlink:href="#DejaVuSans-48"/>
      </g>
     </g>
    </g>
    <g id="xtick_8">
     <g id="line2d_8">
      <g>
       <use style="stroke:#000000;stroke-width:0.8;" x="409.940888" xlink:href="#m7c54cffdfa" y="303.64"/>
      </g>
     </g>
     <g id="text_8">
      <!-- 140 -->
      <g transform="translate(400.397138 318.238437)scale(0.1 -0.1)">
       <use xlink:href="#DejaVuSans-49"/>
       <use x="63.623047" xlink:href="#DejaVuSans-52"/>
       <use x="127.246094" xlink:href="#DejaVuSans-48"/>
      </g>
     </g>
    </g>
    <g id="text_9">
     <!-- Epochs -->
     <g transform="translate(232.519375 331.916562)scale(0.1 -0.1)">
      <defs>
       <path d="M 9.8125 72.90625 
L 55.90625 72.90625 
L 55.90625 64.59375 
L 19.671875 64.59375 
L 19.671875 43.015625 
L 54.390625 43.015625 
L 54.390625 34.71875 
L 19.671875 34.71875 
L 19.671875 8.296875 
L 56.78125 8.296875 
L 56.78125 0 
L 9.8125 0 
z
" id="DejaVuSans-69"/>
       <path d="M 18.109375 8.203125 
L 18.109375 -20.796875 
L 9.078125 -20.796875 
L 9.078125 54.6875 
L 18.109375 54.6875 
L 18.109375 46.390625 
Q 20.953125 51.265625 25.265625 53.625 
Q 29.59375 56 35.59375 56 
Q 45.5625 56 51.78125 48.09375 
Q 58.015625 40.1875 58.015625 27.296875 
Q 58.015625 14.40625 51.78125 6.484375 
Q 45.5625 -1.421875 35.59375 -1.421875 
Q 29.59375 -1.421875 25.265625 0.953125 
Q 20.953125 3.328125 18.109375 8.203125 
z
M 48.6875 27.296875 
Q 48.6875 37.203125 44.609375 42.84375 
Q 40.53125 48.484375 33.40625 48.484375 
Q 26.265625 48.484375 22.1875 42.84375 
Q 18.109375 37.203125 18.109375 27.296875 
Q 18.109375 17.390625 22.1875 11.75 
Q 26.265625 6.109375 33.40625 6.109375 
Q 40.53125 6.109375 44.609375 11.75 
Q 48.6875 17.390625 48.6875 27.296875 
z
" id="DejaVuSans-112"/>
       <path d="M 30.609375 48.390625 
Q 23.390625 48.390625 19.1875 42.75 
Q 14.984375 37.109375 14.984375 27.296875 
Q 14.984375 17.484375 19.15625 11.84375 
Q 23.34375 6.203125 30.609375 6.203125 
Q 37.796875 6.203125 41.984375 11.859375 
Q 46.1875 17.53125 46.1875 27.296875 
Q 46.1875 37.015625 41.984375 42.703125 
Q 37.796875 48.390625 30.609375 48.390625 
z
M 30.609375 56 
Q 42.328125 56 49.015625 48.375 
Q 55.71875 40.765625 55.71875 27.296875 
Q 55.71875 13.875 49.015625 6.21875 
Q 42.328125 -1.421875 30.609375 -1.421875 
Q 18.84375 -1.421875 12.171875 6.21875 
Q 5.515625 13.875 5.515625 27.296875 
Q 5.515625 40.765625 12.171875 48.375 
Q 18.84375 56 30.609375 56 
z
" id="DejaVuSans-111"/>
       <path d="M 48.78125 52.59375 
L 48.78125 44.1875 
Q 44.96875 46.296875 41.140625 47.34375 
Q 37.3125 48.390625 33.40625 48.390625 
Q 24.65625 48.390625 19.8125 42.84375 
Q 14.984375 37.3125 14.984375 27.296875 
Q 14.984375 17.28125 19.8125 11.734375 
Q 24.65625 6.203125 33.40625 6.203125 
Q 37.3125 6.203125 41.140625 7.25 
Q 44.96875 8.296875 48.78125 10.40625 
L 48.78125 2.09375 
Q 45.015625 0.34375 40.984375 -0.53125 
Q 36.96875 -1.421875 32.421875 -1.421875 
Q 20.0625 -1.421875 12.78125 6.34375 
Q 5.515625 14.109375 5.515625 27.296875 
Q 5.515625 40.671875 12.859375 48.328125 
Q 20.21875 56 33.015625 56 
Q 37.15625 56 41.109375 55.140625 
Q 45.0625 54.296875 48.78125 52.59375 
z
" id="DejaVuSans-99"/>
       <path d="M 54.890625 33.015625 
L 54.890625 0 
L 45.90625 0 
L 45.90625 32.71875 
Q 45.90625 40.484375 42.875 44.328125 
Q 39.84375 48.1875 33.796875 48.1875 
Q 26.515625 48.1875 22.3125 43.546875 
Q 18.109375 38.921875 18.109375 30.90625 
L 18.109375 0 
L 9.078125 0 
L 9.078125 75.984375 
L 18.109375 75.984375 
L 18.109375 46.1875 
Q 21.34375 51.125 25.703125 53.5625 
Q 30.078125 56 35.796875 56 
Q 45.21875 56 50.046875 50.171875 
Q 54.890625 44.34375 54.890625 33.015625 
z
" id="DejaVuSans-104"/>
       <path d="M 44.28125 53.078125 
L 44.28125 44.578125 
Q 40.484375 46.53125 36.375 47.5 
Q 32.28125 48.484375 27.875 48.484375 
Q 21.1875 48.484375 17.84375 46.4375 
Q 14.5 44.390625 14.5 40.28125 
Q 14.5 37.15625 16.890625 35.375 
Q 19.28125 33.59375 26.515625 31.984375 
L 29.59375 31.296875 
Q 39.15625 29.25 43.1875 25.515625 
Q 47.21875 21.78125 47.21875 15.09375 
Q 47.21875 7.46875 41.1875 3.015625 
Q 35.15625 -1.421875 24.609375 -1.421875 
Q 20.21875 -1.421875 15.453125 -0.5625 
Q 10.6875 0.296875 5.421875 2 
L 5.421875 11.28125 
Q 10.40625 8.6875 15.234375 7.390625 
Q 20.0625 6.109375 24.8125 6.109375 
Q 31.15625 6.109375 34.5625 8.28125 
Q 37.984375 10.453125 37.984375 14.40625 
Q 37.984375 18.0625 35.515625 20.015625 
Q 33.0625 21.96875 24.703125 23.78125 
L 21.578125 24.515625 
Q 13.234375 26.265625 9.515625 29.90625 
Q 5.8125 33.546875 5.8125 39.890625 
Q 5.8125 47.609375 11.28125 51.796875 
Q 16.75 56 26.8125 56 
Q 31.78125 56 36.171875 55.265625 
Q 40.578125 54.546875 44.28125 53.078125 
z
" id="DejaVuSans-115"/>
      </defs>
      <use xlink:href="#DejaVuSans-69"/>
      <use x="63.183594" xlink:href="#DejaVuSans-112"/>
      <use x="126.660156" xlink:href="#DejaVuSans-111"/>
      <use x="187.841797" xlink:href="#DejaVuSans-99"/>
      <use x="242.822266" xlink:href="#DejaVuSans-104"/>
      <use x="306.201172" xlink:href="#DejaVuSans-115"/>
     </g>
    </g>
   </g>
   <g id="matplotlib.axis_2">
    <g id="ytick_1">
     <g id="line2d_9">
      <defs>
       <path d="M 0 0 
L -3.5 0 
" id="m2ceb94df91" style="stroke:#000000;stroke-width:0.8;"/>
      </defs>
      <g>
       <use style="stroke:#000000;stroke-width:0.8;" x="50.87" xlink:href="#m2ceb94df91" y="255.759406"/>
      </g>
     </g>
     <g id="text_10">
      <!-- 20 -->
      <g transform="translate(31.145 259.558625)scale(0.1 -0.1)">
       <use xlink:href="#DejaVuSans-50"/>
       <use x="63.623047" xlink:href="#DejaVuSans-48"/>
      </g>
     </g>
    </g>
    <g id="ytick_2">
     <g id="line2d_10">
      <g>
       <use style="stroke:#000000;stroke-width:0.8;" x="50.87" xlink:href="#m2ceb94df91" y="197.597134"/>
      </g>
     </g>
     <g id="text_11">
      <!-- 40 -->
      <g transform="translate(31.145 201.396353)scale(0.1 -0.1)">
       <use xlink:href="#DejaVuSans-52"/>
       <use x="63.623047" xlink:href="#DejaVuSans-48"/>
      </g>
     </g>
    </g>
    <g id="ytick_3">
     <g id="line2d_11">
      <g>
       <use style="stroke:#000000;stroke-width:0.8;" x="50.87" xlink:href="#m2ceb94df91" y="139.434862"/>
      </g>
     </g>
     <g id="text_12">
      <!-- 60 -->
      <g transform="translate(31.145 143.234081)scale(0.1 -0.1)">
       <use xlink:href="#DejaVuSans-54"/>
       <use x="63.623047" xlink:href="#DejaVuSans-48"/>
      </g>
     </g>
    </g>
    <g id="ytick_4">
     <g id="line2d_12">
      <g>
       <use style="stroke:#000000;stroke-width:0.8;" x="50.87" xlink:href="#m2ceb94df91" y="81.27259"/>
      </g>
     </g>
     <g id="text_13">
      <!-- 80 -->
      <g transform="translate(31.145 85.071808)scale(0.1 -0.1)">
       <use xlink:href="#DejaVuSans-56"/>
       <use x="63.623047" xlink:href="#DejaVuSans-48"/>
      </g>
     </g>
    </g>
    <g id="ytick_5">
     <g id="line2d_13">
      <g>
       <use style="stroke:#000000;stroke-width:0.8;" x="50.87" xlink:href="#m2ceb94df91" y="23.110318"/>
      </g>
     </g>
     <g id="text_14">
      <!-- 100 -->
      <g transform="translate(24.7825 26.909536)scale(0.1 -0.1)">
       <use xlink:href="#DejaVuSans-49"/>
       <use x="63.623047" xlink:href="#DejaVuSans-48"/>
       <use x="127.246094" xlink:href="#DejaVuSans-48"/>
      </g>
     </g>
    </g>
    <g id="text_15">
     <!-- Test Accuracy (%) -->
     <g transform="translate(18.702813 201.723906)rotate(-90)scale(0.1 -0.1)">
      <defs>
       <path d="M -0.296875 72.90625 
L 61.375 72.90625 
L 61.375 64.59375 
L 35.5 64.59375 
L 35.5 0 
L 25.59375 0 
L 25.59375 64.59375 
L -0.296875 64.59375 
z
" id="DejaVuSans-84"/>
       <path d="M 56.203125 29.59375 
L 56.203125 25.203125 
L 14.890625 25.203125 
Q 15.484375 15.921875 20.484375 11.0625 
Q 25.484375 6.203125 34.421875 6.203125 
Q 39.59375 6.203125 44.453125 7.46875 
Q 49.3125 8.734375 54.109375 11.28125 
L 54.109375 2.78125 
Q 49.265625 0.734375 44.1875 -0.34375 
Q 39.109375 -1.421875 33.890625 -1.421875 
Q 20.796875 -1.421875 13.15625 6.1875 
Q 5.515625 13.8125 5.515625 26.8125 
Q 5.515625 40.234375 12.765625 48.109375 
Q 20.015625 56 32.328125 56 
Q 43.359375 56 49.78125 48.890625 
Q 56.203125 41.796875 56.203125 29.59375 
z
M 47.21875 32.234375 
Q 47.125 39.59375 43.09375 43.984375 
Q 39.0625 48.390625 32.421875 48.390625 
Q 24.90625 48.390625 20.390625 44.140625 
Q 15.875 39.890625 15.1875 32.171875 
z
" id="DejaVuSans-101"/>
       <path d="M 18.3125 70.21875 
L 18.3125 54.6875 
L 36.8125 54.6875 
L 36.8125 47.703125 
L 18.3125 47.703125 
L 18.3125 18.015625 
Q 18.3125 11.328125 20.140625 9.421875 
Q 21.96875 7.515625 27.59375 7.515625 
L 36.8125 7.515625 
L 36.8125 0 
L 27.59375 0 
Q 17.1875 0 13.234375 3.875 
Q 9.28125 7.765625 9.28125 18.015625 
L 9.28125 47.703125 
L 2.6875 47.703125 
L 2.6875 54.6875 
L 9.28125 54.6875 
L 9.28125 70.21875 
z
" id="DejaVuSans-116"/>
       <path id="DejaVuSans-32"/>
       <path d="M 34.1875 63.1875 
L 20.796875 26.90625 
L 47.609375 26.90625 
z
M 28.609375 72.90625 
L 39.796875 72.90625 
L 67.578125 0 
L 57.328125 0 
L 50.6875 18.703125 
L 17.828125 18.703125 
L 11.1875 0 
L 0.78125 0 
z
" id="DejaVuSans-65"/>
       <path d="M 8.5 21.578125 
L 8.5 54.6875 
L 17.484375 54.6875 
L 17.484375 21.921875 
Q 17.484375 14.15625 20.5 10.265625 
Q 23.53125 6.390625 29.59375 6.390625 
Q 36.859375 6.390625 41.078125 11.03125 
Q 45.3125 15.671875 45.3125 23.6875 
L 45.3125 54.6875 
L 54.296875 54.6875 
L 54.296875 0 
L 45.3125 0 
L 45.3125 8.40625 
Q 42.046875 3.421875 37.71875 1 
Q 33.40625 -1.421875 27.6875 -1.421875 
Q 18.265625 -1.421875 13.375 4.4375 
Q 8.5 10.296875 8.5 21.578125 
z
M 31.109375 56 
z
" id="DejaVuSans-117"/>
       <path d="M 41.109375 46.296875 
Q 39.59375 47.171875 37.8125 47.578125 
Q 36.03125 48 33.890625 48 
Q 26.265625 48 22.1875 43.046875 
Q 18.109375 38.09375 18.109375 28.8125 
L 18.109375 0 
L 9.078125 0 
L 9.078125 54.6875 
L 18.109375 54.6875 
L 18.109375 46.1875 
Q 20.953125 51.171875 25.484375 53.578125 
Q 30.03125 56 36.53125 56 
Q 37.453125 56 38.578125 55.875 
Q 39.703125 55.765625 41.0625 55.515625 
z
" id="DejaVuSans-114"/>
       <path d="M 34.28125 27.484375 
Q 23.390625 27.484375 19.1875 25 
Q 14.984375 22.515625 14.984375 16.5 
Q 14.984375 11.71875 18.140625 8.90625 
Q 21.296875 6.109375 26.703125 6.109375 
Q 34.1875 6.109375 38.703125 11.40625 
Q 43.21875 16.703125 43.21875 25.484375 
L 43.21875 27.484375 
z
M 52.203125 31.203125 
L 52.203125 0 
L 43.21875 0 
L 43.21875 8.296875 
Q 40.140625 3.328125 35.546875 0.953125 
Q 30.953125 -1.421875 24.3125 -1.421875 
Q 15.921875 -1.421875 10.953125 3.296875 
Q 6 8.015625 6 15.921875 
Q 6 25.140625 12.171875 29.828125 
Q 18.359375 34.515625 30.609375 34.515625 
L 43.21875 34.515625 
L 43.21875 35.40625 
Q 43.21875 41.609375 39.140625 45 
Q 35.0625 48.390625 27.6875 48.390625 
Q 23 48.390625 18.546875 47.265625 
Q 14.109375 46.140625 10.015625 43.890625 
L 10.015625 52.203125 
Q 14.9375 54.109375 19.578125 55.046875 
Q 24.21875 56 28.609375 56 
Q 40.484375 56 46.34375 49.84375 
Q 52.203125 43.703125 52.203125 31.203125 
z
" id="DejaVuSans-97"/>
       <path d="M 32.171875 -5.078125 
Q 28.375 -14.84375 24.75 -17.8125 
Q 21.140625 -20.796875 15.09375 -20.796875 
L 7.90625 -20.796875 
L 7.90625 -13.28125 
L 13.1875 -13.28125 
Q 16.890625 -13.28125 18.9375 -11.515625 
Q 21 -9.765625 23.484375 -3.21875 
L 25.09375 0.875 
L 2.984375 54.6875 
L 12.5 54.6875 
L 29.59375 11.921875 
L 46.6875 54.6875 
L 56.203125 54.6875 
z
" id="DejaVuSans-121"/>
       <path d="M 31 75.875 
Q 24.46875 64.65625 21.28125 53.65625 
Q 18.109375 42.671875 18.109375 31.390625 
Q 18.109375 20.125 21.3125 9.0625 
Q 24.515625 -2 31 -13.1875 
L 23.1875 -13.1875 
Q 15.875 -1.703125 12.234375 9.375 
Q 8.59375 20.453125 8.59375 31.390625 
Q 8.59375 42.28125 12.203125 53.3125 
Q 15.828125 64.359375 23.1875 75.875 
z
" id="DejaVuSans-40"/>
       <path d="M 72.703125 32.078125 
Q 68.453125 32.078125 66.03125 28.46875 
Q 63.625 24.859375 63.625 18.40625 
Q 63.625 12.0625 66.03125 8.421875 
Q 68.453125 4.78125 72.703125 4.78125 
Q 76.859375 4.78125 79.265625 8.421875 
Q 81.6875 12.0625 81.6875 18.40625 
Q 81.6875 24.8125 79.265625 28.4375 
Q 76.859375 32.078125 72.703125 32.078125 
z
M 72.703125 38.28125 
Q 80.421875 38.28125 84.953125 32.90625 
Q 89.5 27.546875 89.5 18.40625 
Q 89.5 9.28125 84.9375 3.921875 
Q 80.375 -1.421875 72.703125 -1.421875 
Q 64.890625 -1.421875 60.34375 3.921875 
Q 55.8125 9.28125 55.8125 18.40625 
Q 55.8125 27.59375 60.375 32.9375 
Q 64.9375 38.28125 72.703125 38.28125 
z
M 22.3125 68.015625 
Q 18.109375 68.015625 15.6875 64.375 
Q 13.28125 60.75 13.28125 54.390625 
Q 13.28125 47.953125 15.671875 44.328125 
Q 18.0625 40.71875 22.3125 40.71875 
Q 26.5625 40.71875 28.96875 44.328125 
Q 31.390625 47.953125 31.390625 54.390625 
Q 31.390625 60.6875 28.953125 64.34375 
Q 26.515625 68.015625 22.3125 68.015625 
z
M 66.40625 74.21875 
L 74.21875 74.21875 
L 28.609375 -1.421875 
L 20.796875 -1.421875 
z
M 22.3125 74.21875 
Q 30.03125 74.21875 34.609375 68.875 
Q 39.203125 63.53125 39.203125 54.390625 
Q 39.203125 45.171875 34.640625 39.84375 
Q 30.078125 34.515625 22.3125 34.515625 
Q 14.546875 34.515625 10.03125 39.859375 
Q 5.515625 45.21875 5.515625 54.390625 
Q 5.515625 63.484375 10.046875 68.84375 
Q 14.59375 74.21875 22.3125 74.21875 
z
" id="DejaVuSans-37"/>
       <path d="M 8.015625 75.875 
L 15.828125 75.875 
Q 23.140625 64.359375 26.78125 53.3125 
Q 30.421875 42.28125 30.421875 31.390625 
Q 30.421875 20.453125 26.78125 9.375 
Q 23.140625 -1.703125 15.828125 -13.1875 
L 8.015625 -13.1875 
Q 14.5 -2 17.703125 9.0625 
Q 20.90625 20.125 20.90625 31.390625 
Q 20.90625 42.671875 17.703125 53.65625 
Q 14.5 64.65625 8.015625 75.875 
z
" id="DejaVuSans-41"/>
      </defs>
      <use xlink:href="#DejaVuSans-84"/>
      <use x="44.083984" xlink:href="#DejaVuSans-101"/>
      <use x="105.607422" xlink:href="#DejaVuSans-115"/>
      <use x="157.707031" xlink:href="#DejaVuSans-116"/>
      <use x="196.916016" xlink:href="#DejaVuSans-32"/>
      <use x="228.703125" xlink:href="#DejaVuSans-65"/>
      <use x="295.361328" xlink:href="#DejaVuSans-99"/>
      <use x="350.341797" xlink:href="#DejaVuSans-99"/>
      <use x="405.322266" xlink:href="#DejaVuSans-117"/>
      <use x="468.701172" xlink:href="#DejaVuSans-114"/>
      <use x="509.814453" xlink:href="#DejaVuSans-97"/>
      <use x="571.09375" xlink:href="#DejaVuSans-99"/>
      <use x="626.074219" xlink:href="#DejaVuSans-121"/>
      <use x="685.253906" xlink:href="#DejaVuSans-32"/>
      <use x="717.041016" xlink:href="#DejaVuSans-40"/>
      <use x="756.054688" xlink:href="#DejaVuSans-37"/>
      <use x="851.074219" xlink:href="#DejaVuSans-41"/>
     </g>
    </g>
   </g>
   <g id="line2d_14">
    <path clip-path="url(#pf9d73c3c07)" d="M 69.012273 273.02633 
L 71.447477 257.122584 
L 76.317886 232.130983 
L 78.75309 187.600493 
L 81.188295 195.32517 
L 83.623499 178.058246 
L 86.058703 161.700107 
L 88.493908 154.884215 
L 90.929112 138.071684 
L 93.364317 127.166258 
L 95.799521 126.257472 
L 98.234725 118.987188 
L 100.66993 113.080082 
L 103.105134 139.889255 
L 105.540339 109.44494 
L 107.975543 108.990547 
L 110.410747 98.539514 
L 112.845952 94.449979 
L 115.281156 107.172976 
L 117.716361 99.902692 
L 120.151565 105.355405 
L 122.586769 75.819877 
L 125.021974 81.726982 
L 127.457178 78.09184 
L 129.892383 92.178016 
L 132.327587 103.537834 
L 134.762791 65.368843 
L 137.197996 83.090161 
L 139.6332 97.176336 
L 142.068405 75.819877 
L 144.503609 85.362124 
L 146.938813 69.003985 
L 149.374018 74.911091 
L 151.809222 66.277629 
L 154.244426 64.914451 
L 156.679631 78.546233 
L 159.114835 59.007345 
L 161.55004 53.100239 
L 163.985244 74.002306 
L 166.420448 56.280988 
L 168.855653 65.368843 
L 171.290857 71.275949 
L 173.726062 65.823236 
L 176.161266 85.816517 
L 178.59647 62.188094 
L 181.031675 64.914451 
L 183.466879 73.09352 
L 185.902084 67.186414 
L 188.337288 49.465097 
L 190.772492 69.458378 
L 193.207697 67.186414 
L 195.642901 48.101919 
L 198.078106 47.193133 
L 200.51331 78.546233 
L 202.948514 59.91613 
L 205.383719 66.732022 
L 207.818923 65.823236 
L 210.254128 63.551272 
L 212.689332 62.188094 
L 215.124536 66.732022 
L 217.559741 48.556312 
L 219.994945 66.732022 
L 222.430149 54.463417 
L 224.865354 67.640807 
L 227.300558 44.92117 
L 229.735763 49.465097 
L 232.170967 54.91781 
L 234.606171 75.819877 
L 237.041376 66.732022 
L 239.47658 49.91949 
L 241.911785 63.551272 
L 244.346989 45.375562 
L 246.782193 56.735381 
L 249.217398 58.552952 
L 251.652602 47.647526 
L 254.087807 52.191454 
L 256.523011 47.193133 
L 258.958215 45.375562 
L 261.39342 57.644167 
L 263.828624 53.100239 
L 266.263829 45.829955 
L 268.699033 65.823236 
L 271.134237 50.828275 
L 273.569442 56.735381 
L 276.004646 49.465097 
L 278.439851 43.557991 
L 280.875055 49.465097 
L 283.310259 60.824916 
L 285.745464 44.92117 
L 288.180668 41.74042 
L 290.615872 50.373883 
L 293.051077 54.91781 
L 295.486281 43.103599 
L 297.921486 44.466777 
L 300.35669 40.831635 
L 302.791894 44.012384 
L 305.227099 50.828275 
L 307.662303 49.91949 
L 310.097508 39.014064 
L 312.532712 44.012384 
L 314.967916 54.463417 
L 317.403121 44.012384 
L 319.838325 49.465097 
L 322.27353 40.377242 
L 324.708734 50.373883 
L 327.143938 38.559671 
L 329.579143 50.828275 
L 332.014347 44.012384 
L 334.449552 41.286028 
L 336.884756 41.286028 
L 339.31996 43.103599 
L 341.755165 39.468457 
L 344.190369 39.014064 
L 346.625574 40.377242 
L 349.060778 32.652565 
L 351.495982 35.833315 
L 353.931187 37.196493 
L 356.366391 44.92117 
L 358.801595 37.650886 
L 361.2368 37.650886 
L 363.672004 35.833315 
L 366.107209 36.7421 
L 368.542413 34.924529 
L 370.977617 35.833315 
L 373.412822 32.198173 
L 375.848026 29.471816 
L 378.283231 29.471816 
L 380.718435 33.106958 
L 385.588844 31.289387 
L 388.024048 31.289387 
L 390.459253 28.563031 
L 392.894457 29.017423 
L 395.329661 32.652565 
L 397.764866 29.926209 
L 400.20007 29.471816 
L 402.635275 29.471816 
L 405.070479 28.563031 
L 417.246501 28.563031 
L 422.11691 30.380602 
L 424.552114 30.380602 
L 426.987318 30.834994 
L 429.422523 28.563031 
L 431.857727 28.563031 
L 431.857727 28.563031 
" style="fill:none;stroke:#1f77b4;stroke-linecap:square;stroke-width:1.5;"/>
   </g>
   <g id="line2d_15">
    <path clip-path="url(#pf9d73c3c07)" d="M 69.012273 262.3907 
L 71.447477 252.841352 
L 73.882682 248.758918 
L 76.317886 235.595728 
L 78.75309 195.907361 
L 81.188295 193.564398 
L 83.623499 182.744171 
L 86.058703 176.780266 
L 88.493908 154.259425 
L 90.929112 150.709482 
L 93.364317 151.220674 
L 95.799521 141.394431 
L 98.234725 134.379742 
L 100.66993 129.580219 
L 103.105134 122.537131 
L 105.540339 117.425213 
L 107.975543 110.751319 
L 110.410747 115.12485 
L 112.845952 96.89234 
L 115.281156 96.040354 
L 117.716361 92.462011 
L 120.151565 97.744327 
L 122.586769 93.370797 
L 125.021974 99.135905 
L 127.457178 75.990274 
L 129.892383 87.861285 
L 132.327587 96.040354 
L 134.762791 87.463691 
L 137.197996 89.42326 
L 139.6332 76.586664 
L 142.068405 88.883668 
L 144.503609 89.792454 
L 146.938813 81.584985 
L 149.374018 75.450683 
L 151.809222 77.126256 
L 154.244426 87.889684 
L 156.679631 82.096177 
L 159.114835 74.087504 
L 161.55004 89.934452 
L 163.985244 96.239151 
L 166.420448 88.713271 
L 168.855653 71.87234 
L 171.290857 76.757062 
L 173.726062 71.361148 
L 176.161266 84.481738 
L 178.59647 85.532522 
L 181.031675 83.629752 
L 183.466879 73.661511 
L 185.902084 66.84562 
L 188.337288 71.105552 
L 190.772492 72.894723 
L 193.207697 74.939491 
L 195.642901 77.694247 
L 198.078106 67.868004 
L 200.51331 76.473066 
L 202.948514 71.048753 
L 205.383719 75.961874 
L 207.818923 69.99797 
L 210.254128 59.859331 
L 212.689332 62.159695 
L 215.124536 78.319037 
L 217.559741 66.135631 
L 219.994945 63.409275 
L 222.430149 78.347436 
L 224.865354 75.990274 
L 227.300558 80.704599 
L 229.735763 71.701942 
L 232.170967 67.640807 
L 234.606171 58.013361 
L 237.041376 55.741397 
L 239.47658 57.928162 
L 241.911785 62.727686 
L 244.346989 61.506505 
L 246.782193 77.268254 
L 249.217398 59.092544 
L 251.652602 62.017697 
L 254.087807 65.709638 
L 256.523011 60.966914 
L 258.958215 64.261261 
L 261.39342 63.182078 
L 263.828624 77.126256 
L 266.263829 64.31806 
L 268.699033 61.052112 
L 271.134237 52.475449 
L 273.569442 59.064144 
L 276.004646 60.682918 
L 278.439851 50.317084 
L 280.875055 58.126959 
L 283.310259 60.966914 
L 285.745464 62.528889 
L 288.180668 51.254269 
L 293.051077 65.851636 
L 295.486281 70.509161 
L 297.921486 53.128639 
L 300.35669 69.003985 
L 302.791894 53.213837 
L 305.227099 40.036448 
L 307.662303 51.282668 
L 310.097508 55.372203 
L 312.532712 57.41697 
L 314.967916 63.409275 
L 317.403121 60.285325 
L 319.838325 64.516857 
L 322.27353 53.469433 
L 324.708734 55.315404 
L 327.143938 59.433338 
L 329.579143 54.009025 
L 332.014347 52.645846 
L 334.449552 51.112271 
L 336.884756 50.941874 
L 339.31996 42.223213 
L 341.755165 45.432361 
L 344.190369 54.491817 
L 346.625574 61.506505 
L 349.060778 48.187118 
L 351.495982 44.097583 
L 353.931187 45.51756 
L 356.366391 46.085551 
L 358.801595 45.006368 
L 361.2368 37.934881 
L 363.672004 47.761124 
L 366.107209 43.245596 
L 368.542413 41.058831 
L 370.977617 45.006368 
L 373.412822 46.880738 
L 375.848026 45.006368 
L 378.283231 46.369547 
L 380.718435 39.184461 
L 383.153639 45.432361 
L 385.588844 39.298059 
L 390.459253 42.734405 
L 392.894457 42.762804 
L 395.329661 44.949569 
L 397.764866 42.762804 
L 400.20007 42.280012 
L 402.635275 38.928865 
L 405.070479 37.310091 
L 407.505683 40.860034 
L 409.940888 38.673269 
L 412.376092 37.792883 
L 417.246501 37.792883 
L 419.681705 39.496856 
L 422.11691 38.332475 
L 424.552114 39.496856 
L 426.987318 36.060511 
L 429.422523 37.934881 
L 431.857727 38.673269 
L 431.857727 38.673269 
" style="fill:none;stroke:#ff7f0e;stroke-linecap:square;stroke-width:1.5;"/>
   </g>
   <g id="line2d_16">
    <path clip-path="url(#pf9d73c3c07)" d="M 69.012273 253.359644 
L 71.447477 234.104751 
L 73.882682 243.646999 
L 76.317886 199.201708 
L 78.75309 195.694364 
L 81.188295 167.919607 
L 83.623499 160.422127 
L 86.058703 153.563636 
L 88.493908 142.132819 
L 90.929112 140.996837 
L 93.364317 122.821127 
L 95.799521 110.240128 
L 98.234725 107.030979 
L 100.66993 95.529162 
L 103.105134 90.843237 
L 105.540339 92.092817 
L 107.975543 82.436971 
L 110.410747 84.879332 
L 112.845952 76.558265 
L 115.281156 71.417947 
L 117.716361 81.783782 
L 120.151565 76.785461 
L 122.586769 82.266574 
L 125.021974 64.94285 
L 127.457178 69.060785 
L 129.892383 65.766437 
L 132.327587 79.114224 
L 134.762791 71.900739 
L 137.197996 70.707958 
L 139.6332 68.151999 
L 142.068405 68.776789 
L 144.503609 64.715654 
L 146.938813 65.255245 
L 149.374018 66.81722 
L 151.809222 60.427322 
L 154.244426 61.307708 
L 156.679631 64.147663 
L 159.114835 62.500489 
L 161.55004 68.606392 
L 163.985244 65.823236 
L 166.420448 67.754405 
L 168.855653 60.342124 
L 171.290857 60.285325 
L 173.726062 67.868004 
L 176.161266 71.105552 
L 178.59647 66.987618 
L 181.031675 61.648503 
L 183.466879 71.275949 
L 185.902084 61.733701 
L 188.337288 63.352476 
L 190.772492 65.113247 
L 193.207697 60.910115 
L 195.642901 59.745733 
L 198.078106 55.627799 
L 200.51331 63.238877 
L 202.948514 56.621783 
L 205.383719 62.301692 
L 207.818923 52.191454 
L 210.254128 63.863667 
L 212.689332 57.132975 
L 215.124536 50.004689 
L 217.559741 54.889411 
L 219.994945 55.003009 
L 222.430149 53.270636 
L 224.865354 49.379899 
L 227.300558 57.984961 
L 229.735763 57.729365 
L 232.170967 52.021056 
L 234.606171 53.753429 
L 237.041376 53.838627 
L 239.47658 52.560648 
L 241.911785 59.262941 
L 244.346989 50.288684 
L 246.782193 49.720693 
L 249.217398 55.457402 
L 251.652602 53.611431 
L 254.087807 48.897106 
L 256.523011 54.91781 
L 258.958215 59.177742 
L 261.39342 50.771476 
L 263.828624 51.82226 
L 266.263829 48.329115 
L 268.699033 55.173406 
L 271.134237 47.363531 
L 273.569442 46.199149 
L 276.004646 45.460761 
L 278.439851 49.209501 
L 280.875055 46.312747 
L 283.310259 51.14067 
L 285.745464 49.436698 
L 288.180668 50.629479 
L 293.051077 55.5426 
L 295.486281 50.998673 
L 297.921486 43.67159 
L 300.35669 52.645846 
L 302.791894 48.215517 
L 305.227099 47.959921 
L 307.662303 45.290364 
L 310.097508 44.324779 
L 312.532712 42.251612 
L 314.967916 43.472793 
L 317.403121 50.402282 
L 319.838325 46.397946 
L 322.27353 42.166414 
L 324.708734 44.211181 
L 327.143938 43.0184 
L 329.579143 39.156062 
L 332.014347 36.855698 
L 334.449552 41.541624 
L 336.884756 40.547639 
L 339.31996 37.423689 
L 341.755165 39.354858 
L 344.190369 37.736084 
L 346.625574 38.559671 
L 349.060778 37.168093 
L 351.495982 40.973633 
L 353.931187 34.384938 
L 356.366391 39.89445 
L 358.801595 34.697333 
L 361.2368 36.855698 
L 363.672004 35.606118 
L 366.107209 34.754132 
L 368.542413 35.350522 
L 370.977617 34.299739 
L 373.412822 36.997696 
L 375.848026 33.987344 
L 378.283231 33.305755 
L 380.718435 36.032111 
L 383.153639 34.299739 
L 385.588844 36.344506 
L 388.024048 32.482168 
L 390.459253 35.151726 
L 392.894457 30.891793 
L 395.329661 35.236924 
L 397.764866 31.317787 
L 400.20007 34.782531 
L 402.635275 31.317787 
L 407.505683 33.305755 
L 409.940888 34.86773 
L 412.376092 31.71538 
L 414.811297 31.289387 
L 417.246501 35.293723 
L 419.681705 32.112974 
L 424.552114 32.112974 
L 426.987318 30.891793 
L 429.422523 35.776516 
L 431.857727 32.851362 
L 431.857727 32.851362 
" style="fill:none;stroke:#2ca02c;stroke-linecap:square;stroke-width:1.5;"/>
   </g>
   <g id="patch_3">
    <path d="M 50.87 303.64 
L 50.87 10.8 
" style="fill:none;stroke:#000000;stroke-linecap:square;stroke-linejoin:miter;stroke-width:0.8;"/>
   </g>
   <g id="patch_4">
    <path d="M 450 303.64 
L 450 10.8 
" style="fill:none;stroke:#000000;stroke-linecap:square;stroke-linejoin:miter;stroke-width:0.8;"/>
   </g>
   <g id="patch_5">
    <path d="M 50.87 303.64 
L 450 303.64 
" style="fill:none;stroke:#000000;stroke-linecap:square;stroke-linejoin:miter;stroke-width:0.8;"/>
   </g>
   <g id="patch_6">
    <path d="M 50.87 10.8 
L 450 10.8 
" style="fill:none;stroke:#000000;stroke-linecap:square;stroke-linejoin:miter;stroke-width:0.8;"/>
   </g>
   <g id="legend_1">
    <g id="patch_7">
     <path d="M 57.87 62.834375 
L 139.377813 62.834375 
Q 141.377813 62.834375 141.377813 60.834375 
L 141.377813 17.8 
Q 141.377813 15.8 139.377813 15.8 
L 57.87 15.8 
Q 55.87 15.8 55.87 17.8 
L 55.87 60.834375 
Q 55.87 62.834375 57.87 62.834375 
z
" style="fill:#ffffff;opacity:0.8;stroke:#cccccc;stroke-linejoin:miter;"/>
    </g>
    <g id="line2d_17">
     <path d="M 59.87 23.898438 
L 79.87 23.898438 
" style="fill:none;stroke:#1f77b4;stroke-linecap:square;stroke-width:1.5;"/>
    </g>
    <g id="line2d_18"/>
    <g id="text_16">
     <!-- Sync-SGD -->
     <g transform="translate(87.87 27.398438)scale(0.1 -0.1)">
      <defs>
       <path d="M 53.515625 70.515625 
L 53.515625 60.890625 
Q 47.90625 63.578125 42.921875 64.890625 
Q 37.9375 66.21875 33.296875 66.21875 
Q 25.25 66.21875 20.875 63.09375 
Q 16.5 59.96875 16.5 54.203125 
Q 16.5 49.359375 19.40625 46.890625 
Q 22.3125 44.4375 30.421875 42.921875 
L 36.375 41.703125 
Q 47.40625 39.59375 52.65625 34.296875 
Q 57.90625 29 57.90625 20.125 
Q 57.90625 9.515625 50.796875 4.046875 
Q 43.703125 -1.421875 29.984375 -1.421875 
Q 24.8125 -1.421875 18.96875 -0.25 
Q 13.140625 0.921875 6.890625 3.21875 
L 6.890625 13.375 
Q 12.890625 10.015625 18.65625 8.296875 
Q 24.421875 6.59375 29.984375 6.59375 
Q 38.421875 6.59375 43.015625 9.90625 
Q 47.609375 13.234375 47.609375 19.390625 
Q 47.609375 24.75 44.3125 27.78125 
Q 41.015625 30.8125 33.5 32.328125 
L 27.484375 33.5 
Q 16.453125 35.6875 11.515625 40.375 
Q 6.59375 45.0625 6.59375 53.421875 
Q 6.59375 63.09375 13.40625 68.65625 
Q 20.21875 74.21875 32.171875 74.21875 
Q 37.3125 74.21875 42.625 73.28125 
Q 47.953125 72.359375 53.515625 70.515625 
z
" id="DejaVuSans-83"/>
       <path d="M 54.890625 33.015625 
L 54.890625 0 
L 45.90625 0 
L 45.90625 32.71875 
Q 45.90625 40.484375 42.875 44.328125 
Q 39.84375 48.1875 33.796875 48.1875 
Q 26.515625 48.1875 22.3125 43.546875 
Q 18.109375 38.921875 18.109375 30.90625 
L 18.109375 0 
L 9.078125 0 
L 9.078125 54.6875 
L 18.109375 54.6875 
L 18.109375 46.1875 
Q 21.34375 51.125 25.703125 53.5625 
Q 30.078125 56 35.796875 56 
Q 45.21875 56 50.046875 50.171875 
Q 54.890625 44.34375 54.890625 33.015625 
z
" id="DejaVuSans-110"/>
       <path d="M 4.890625 31.390625 
L 31.203125 31.390625 
L 31.203125 23.390625 
L 4.890625 23.390625 
z
" id="DejaVuSans-45"/>
       <path d="M 59.515625 10.40625 
L 59.515625 29.984375 
L 43.40625 29.984375 
L 43.40625 38.09375 
L 69.28125 38.09375 
L 69.28125 6.78125 
Q 63.578125 2.734375 56.6875 0.65625 
Q 49.8125 -1.421875 42 -1.421875 
Q 24.90625 -1.421875 15.25 8.5625 
Q 5.609375 18.5625 5.609375 36.375 
Q 5.609375 54.25 15.25 64.234375 
Q 24.90625 74.21875 42 74.21875 
Q 49.125 74.21875 55.546875 72.453125 
Q 61.96875 70.703125 67.390625 67.28125 
L 67.390625 56.78125 
Q 61.921875 61.421875 55.765625 63.765625 
Q 49.609375 66.109375 42.828125 66.109375 
Q 29.4375 66.109375 22.71875 58.640625 
Q 16.015625 51.171875 16.015625 36.375 
Q 16.015625 21.625 22.71875 14.15625 
Q 29.4375 6.6875 42.828125 6.6875 
Q 48.046875 6.6875 52.140625 7.59375 
Q 56.25 8.5 59.515625 10.40625 
z
" id="DejaVuSans-71"/>
       <path d="M 19.671875 64.796875 
L 19.671875 8.109375 
L 31.59375 8.109375 
Q 46.6875 8.109375 53.6875 14.9375 
Q 60.6875 21.78125 60.6875 36.53125 
Q 60.6875 51.171875 53.6875 57.984375 
Q 46.6875 64.796875 31.59375 64.796875 
z
M 9.8125 72.90625 
L 30.078125 72.90625 
Q 51.265625 72.90625 61.171875 64.09375 
Q 71.09375 55.28125 71.09375 36.53125 
Q 71.09375 17.671875 61.125 8.828125 
Q 51.171875 0 30.078125 0 
L 9.8125 0 
z
" id="DejaVuSans-68"/>
      </defs>
      <use xlink:href="#DejaVuSans-83"/>
      <use x="63.476562" xlink:href="#DejaVuSans-121"/>
      <use x="122.65625" xlink:href="#DejaVuSans-110"/>
      <use x="186.035156" xlink:href="#DejaVuSans-99"/>
      <use x="241.015625" xlink:href="#DejaVuSans-45"/>
      <use x="277.099609" xlink:href="#DejaVuSans-83"/>
      <use x="340.576172" xlink:href="#DejaVuSans-71"/>
      <use x="418.066406" xlink:href="#DejaVuSans-68"/>
     </g>
    </g>
    <g id="line2d_19">
     <path d="M 59.87 38.576563 
L 79.87 38.576563 
" style="fill:none;stroke:#ff7f0e;stroke-linecap:square;stroke-width:1.5;"/>
    </g>
    <g id="line2d_20"/>
    <g id="text_17">
     <!-- DP-SGD -->
     <g transform="translate(87.87 42.076563)scale(0.1 -0.1)">
      <defs>
       <path d="M 19.671875 64.796875 
L 19.671875 37.40625 
L 32.078125 37.40625 
Q 38.96875 37.40625 42.71875 40.96875 
Q 46.484375 44.53125 46.484375 51.125 
Q 46.484375 57.671875 42.71875 61.234375 
Q 38.96875 64.796875 32.078125 64.796875 
z
M 9.8125 72.90625 
L 32.078125 72.90625 
Q 44.34375 72.90625 50.609375 67.359375 
Q 56.890625 61.8125 56.890625 51.125 
Q 56.890625 40.328125 50.609375 34.8125 
Q 44.34375 29.296875 32.078125 29.296875 
L 19.671875 29.296875 
L 19.671875 0 
L 9.8125 0 
z
" id="DejaVuSans-80"/>
      </defs>
      <use xlink:href="#DejaVuSans-68"/>
      <use x="77.001953" xlink:href="#DejaVuSans-80"/>
      <use x="135.054688" xlink:href="#DejaVuSans-45"/>
      <use x="171.138672" xlink:href="#DejaVuSans-83"/>
      <use x="234.615234" xlink:href="#DejaVuSans-71"/>
      <use x="312.105469" xlink:href="#DejaVuSans-68"/>
     </g>
    </g>
    <g id="line2d_21">
     <path d="M 59.87 53.254688 
L 79.87 53.254688 
" style="fill:none;stroke:#2ca02c;stroke-linecap:square;stroke-width:1.5;"/>
    </g>
    <g id="line2d_22"/>
    <g id="text_18">
     <!-- EDP-SGD -->
     <g transform="translate(87.87 56.754688)scale(0.1 -0.1)">
      <use xlink:href="#DejaVuSans-69"/>
      <use x="63.183594" xlink:href="#DejaVuSans-68"/>
      <use x="140.185547" xlink:href="#DejaVuSans-80"/>
      <use x="198.238281" xlink:href="#DejaVuSans-45"/>
      <use x="234.322266" xlink:href="#DejaVuSans-83"/>
      <use x="297.798828" xlink:href="#DejaVuSans-71"/>
      <use x="375.289062" xlink:href="#DejaVuSans-68"/>
     </g>
    </g>
   </g>
  </g>
 </g>
 <defs>
  <clipPath id="pf9d73c3c07">
   <rect height="292.84" width="399.13" x="50.87" y="10.8"/>
  </clipPath>
 </defs>
</svg>
