<?xml version="1.0" encoding="utf-8" standalone="no"?>
<!DOCTYPE svg PUBLIC "-//W3C//DTD SVG 1.1//EN"
  "http://www.w3.org/Graphics/SVG/1.1/DTD/svg11.dtd">
<!-- Created with matplotlib (https://matplotlib.org/) -->
<svg height="345.6pt" version="1.1" viewBox="0 0 460.8 345.6" width="460.8pt" xmlns="http://www.w3.org/2000/svg" xmlns:xlink="http://www.w3.org/1999/xlink">
 <metadata>
  <rdf:RDF xmlns:cc="http://creativecommons.org/ns#" xmlns:dc="http://purl.org/dc/elements/1.1/" xmlns:rdf="http://www.w3.org/1999/02/22-rdf-syntax-ns#">
   <cc:Work>
    <dc:type rdf:resource="http://purl.org/dc/dcmitype/StillImage"/>
    <dc:date>2021-06-20T12:17:57.640217</dc:date>
    <dc:format>image/svg+xml</dc:format>
    <dc:creator>
     <cc:Agent>
      <dc:title>Matplotlib v3.3.1, https://matplotlib.org/</dc:title>
     </cc:Agent>
    </dc:creator>
   </cc:Work>
  </rdf:RDF>
 </metadata>
 <defs>
  <style type="text/css">*{stroke-linecap:butt;stroke-linejoin:round;}</style>
 </defs>
 <g id="figure_1">
  <g id="patch_1">
   <path d="M 0 345.6 
L 460.8 345.6 
L 460.8 0 
L 0 0 
z
" style="fill:#ffffff;"/>
  </g>
  <g id="axes_1">
   <g id="patch_2">
    <path d="M 50.87 303.64 
L 449.130127 303.64 
L 449.130127 10.8 
L 50.87 10.8 
z
" style="fill:#ffffff;"/>
   </g>
   <g id="PolyCollection_1">
    <path clip-path="url(#p7c2d8bcb35)" d="M 68.977557 240.004859 
L 68.977557 261.025258 
L 71.309383 269.412071 
L 73.656474 284.297216 
L 75.99186 267.164947 
L 78.353726 232.600288 
L 80.69408 246.397627 
L 83.069013 234.33728 
L 85.501838 205.644739 
L 87.860726 172.553098 
L 90.223786 164.106839 
L 92.592093 142.976991 
L 94.976628 141.769099 
L 97.331286 149.701978 
L 99.70468 136.590532 
L 102.045857 129.566425 
L 104.424777 91.001934 
L 106.761502 101.011453 
L 109.097611 113.441336 
L 111.50475 98.006229 
L 113.854447 120.027448 
L 116.222906 116.392359 
L 118.574872 114.175834 
L 120.934124 104.036403 
L 123.291564 95.014338 
L 125.625644 95.267297 
L 127.981369 110.10969 
L 130.346777 100.880161 
L 132.697508 102.538462 
L 135.031603 85.213533 
L 137.389703 99.536167 
L 139.730906 68.358149 
L 142.091082 98.208472 
L 144.447439 79.318951 
L 146.783349 69.528002 
L 149.147795 74.05694 
L 151.514285 81.148508 
L 153.856852 91.204544 
L 156.205474 71.864876 
L 158.522366 69.724097 
L 160.899926 80.105973 
L 163.242493 75.441921 
L 165.597694 82.716357 
L 167.99688 65.537227 
L 170.31703 93.36815 
L 172.656535 79.374672 
L 174.99585 69.494618 
L 177.347313 91.077003 
L 179.686939 69.562832 
L 182.022029 76.013001 
L 184.376033 86.875362 
L 186.717796 74.885426 
L 189.089784 84.734332 
L 191.460809 66.42862 
L 193.819744 68.535025 
L 196.171239 83.387445 
L 198.538659 81.02152 
L 200.878967 80.629341 
L 203.223836 73.350749 
L 205.55923 80.006608 
L 207.926132 73.021318 
L 210.293113 62.749039 
L 212.653447 56.832842 
L 214.982837 56.569326 
L 217.317781 82.865131 
L 219.647124 65.94528 
L 222.028948 45.536166 
L 224.408078 60.786358 
L 226.745088 57.396807 
L 229.121173 63.198205 
L 231.459205 65.920553 
L 233.814741 68.919376 
L 236.14555 66.295584 
L 238.500486 68.043546 
L 240.8568 56.566279 
L 243.204442 69.560362 
L 245.552587 68.047551 
L 247.884539 65.758567 
L 250.213144 56.177331 
L 252.572248 63.476532 
L 254.920677 67.744048 
L 257.293094 52.844949 
L 259.625578 62.168395 
L 261.962576 68.351635 
L 264.301349 60.329205 
L 266.632085 52.273458 
L 268.969315 55.0713 
L 271.330179 56.141476 
L 273.686709 73.404945 
L 276.060907 65.693057 
L 278.412288 51.776674 
L 280.752513 54.475561 
L 283.089352 61.682383 
L 285.430604 58.764135 
L 287.78941 57.335951 
L 290.130656 50.672086 
L 292.469364 64.721034 
L 294.852296 51.990905 
L 297.204022 60.055385 
L 299.555972 48.270029 
L 301.900029 54.631391 
L 304.251827 56.599933 
L 306.582154 55.852373 
L 308.934046 61.356543 
L 311.27867 56.569326 
L 313.621529 47.151091 
L 315.961508 47.322458 
L 318.311058 44.290881 
L 320.652308 60.532563 
L 323.009359 47.101117 
L 325.34538 41.244218 
L 327.696927 49.177023 
L 330.051188 53.202477 
L 332.393038 49.405631 
L 334.740755 50.472286 
L 337.107077 51.058508 
L 339.444545 44.385675 
L 341.779992 43.331583 
L 344.132608 40.566167 
L 346.479856 53.262227 
L 348.836592 40.603659 
L 351.167649 40.648479 
L 353.533566 46.335141 
L 355.874795 35.180354 
L 358.210288 40.648479 
L 360.571534 39.083528 
L 362.907206 39.681853 
L 365.249633 34.501258 
L 367.606857 35.957139 
L 369.946594 41.388041 
L 372.304536 37.883062 
L 374.652379 35.104439 
L 376.99603 35.957139 
L 379.348797 35.957139 
L 381.697717 34.35167 
L 384.028197 33.383304 
L 386.360048 42.025291 
L 388.712689 34.501258 
L 391.057069 34.812573 
L 393.397219 41.986367 
L 395.747351 42.632539 
L 398.118668 40.771302 
L 400.469004 41.388041 
L 402.821737 39.328479 
L 405.173759 37.883062 
L 407.525366 35.734378 
L 409.869779 36.782295 
L 412.216947 34.501258 
L 414.57048 35.957139 
L 416.925994 37.883062 
L 419.247685 41.388041 
L 419.247685 29.15891 
L 419.247685 29.15891 
L 416.925994 27.133055 
L 414.57048 29.058979 
L 412.216947 28.671249 
L 409.869779 28.233823 
L 407.525366 28.359934 
L 405.173759 27.133055 
L 402.821737 30.296666 
L 400.469004 29.15891 
L 398.118668 27.932038 
L 395.747351 28.836217 
L 393.397219 29.482389 
L 391.057069 27.438129 
L 388.712689 28.671249 
L 386.360048 30.365271 
L 384.028197 28.867398 
L 381.697717 30.664448 
L 379.348797 29.058979 
L 376.99603 29.058979 
L 374.652379 28.989873 
L 372.304536 27.133055 
L 369.946594 29.15891 
L 367.606857 29.058979 
L 365.249633 28.671249 
L 362.907206 27.177875 
L 360.571534 26.854396 
L 358.210288 29.898472 
L 355.874795 26.148542 
L 353.533566 38.960697 
L 351.167649 29.898472 
L 348.836592 28.099681 
L 346.479856 37.564445 
L 344.132608 33.668006 
L 341.779992 36.433423 
L 339.444545 34.457526 
L 337.107077 36.080942 
L 334.740755 31.136331 
L 332.393038 38.655624 
L 330.051188 34.858779 
L 327.696927 32.431594 
L 325.34538 31.146344 
L 323.009359 36.35111 
L 320.652308 39.512164 
L 318.311058 31.786903 
L 315.961508 34.286159 
L 313.621529 37.222942 
L 311.27867 40.709984 
L 308.934046 42.375406 
L 306.582154 44.192354 
L 304.251827 36.07035 
L 301.900029 36.195281 
L 299.555972 38.869421 
L 297.204022 36.302119 
L 294.852296 31.461322 
L 292.469364 43.619942 
L 290.130656 39.23278 
L 287.78941 39.943359 
L 285.430604 44.967814 
L 283.089352 38.362344 
L 280.752513 43.725554 
L 278.412288 39.971804 
L 276.060907 50.944169 
L 273.686709 45.997697 
L 271.330179 30.997974 
L 268.969315 44.973427 
L 266.632085 40.396825 
L 264.301349 46.16816 
L 261.962576 44.598369 
L 259.625578 48.937997 
L 257.293094 45.356166 
L 254.920677 47.049566 
L 252.572248 51.317083 
L 250.213144 36.492952 
L 247.884539 52.722269 
L 245.552587 46.746064 
L 243.204442 51.685891 
L 240.8568 47.16567 
L 238.500486 49.515485 
L 236.14555 46.65442 
L 233.814741 48.639655 
L 231.459205 47.951256 
L 229.121173 43.29916 
L 226.745088 46.335141 
L 224.408078 41.101979 
L 222.028948 33.307034 
L 219.647124 48.848335 
L 217.317781 55.895427 
L 214.982837 40.709984 
L 212.653447 40.446469 
L 210.293113 39.139299 
L 207.926132 50.068546 
L 205.55923 63.362977 
L 203.223836 34.068421 
L 200.878967 49.834967 
L 198.538659 54.051816 
L 196.171239 65.512973 
L 193.819744 46.258589 
L 191.460809 48.364995 
L 189.089784 59.557058 
L 186.717796 66.640547 
L 184.376033 64.790472 
L 182.022029 58.138529 
L 179.686939 50.761615 
L 177.347313 47.683554 
L 174.99585 54.517052 
L 172.656535 64.916718 
L 170.31703 73.046572 
L 167.99688 54.78722 
L 165.597694 61.575034 
L 163.242493 54.100581 
L 160.899926 59.57639 
L 158.522366 62.583822 
L 156.205474 53.990404 
L 153.856852 59.539485 
L 151.514285 56.690244 
L 149.147795 42.580286 
L 146.783349 53.561862 
L 144.447439 52.067163 
L 142.091082 81.111527 
L 139.730906 62.106159 
L 137.389703 72.409388 
L 135.031603 71.983135 
L 132.697508 62.954455 
L 130.346777 76.596228 
L 127.981369 81.193781 
L 125.625644 78.521869 
L 123.291564 72.32219 
L 120.934124 67.909153 
L 118.574872 102.016385 
L 116.222906 90.581805 
L 113.854447 91.555743 
L 111.50475 76.704742 
L 109.097611 86.158385 
L 106.761502 87.526601 
L 104.424777 75.412788 
L 102.045857 108.749126 
L 99.70468 105.412241 
L 97.331286 117.189544 
L 94.976628 110.373535 
L 92.592093 122.992724 
L 90.223786 130.438847 
L 87.860726 154.255781 
L 85.501838 187.534135 
L 83.069013 211.384508 
L 80.69408 218.682076 
L 78.353726 214.96511 
L 75.99186 252.30128 
L 73.656474 274.806647 
L 71.309383 256.506794 
L 68.977557 240.004859 
z
" style="fill:#1f77b4;fill-opacity:0.25;"/>
   </g>
   <g id="PolyCollection_2">
    <path clip-path="url(#p7c2d8bcb35)" d="M 68.972733 285.017101 
L 68.972733 289.001288 
L 71.365096 290.329091 
L 73.719315 275.991316 
L 76.082408 255.671332 
L 78.383834 230.476663 
L 80.686008 209.557264 
L 83.03343 195.242951 
L 85.393165 173.807392 
L 87.778516 142.917614 
L 90.162295 139.680296 
L 92.500678 124.364988 
L 94.844075 108.310002 
L 97.175309 103.700643 
L 99.526049 98.835159 
L 101.834017 92.248899 
L 104.158133 91.392813 
L 106.531595 89.339065 
L 108.854949 88.580285 
L 111.2104 89.398424 
L 113.583764 93.496184 
L 115.90762 81.060954 
L 118.267672 90.401369 
L 120.582367 87.063661 
L 122.934033 72.979752 
L 125.28475 76.470229 
L 127.65506 91.753379 
L 129.99464 80.741759 
L 132.316006 81.208165 
L 134.666209 84.294375 
L 137.008051 75.516047 
L 139.351317 80.895875 
L 141.689121 80.607941 
L 144.049592 85.554515 
L 146.428312 75.769981 
L 148.774662 76.005601 
L 151.157285 95.714764 
L 153.47413 75.105464 
L 155.804262 78.733751 
L 158.148981 83.654506 
L 160.478581 77.610112 
L 162.799356 80.281501 
L 165.129403 67.14118 
L 167.470844 69.911426 
L 169.818407 76.342544 
L 172.171536 77.65548 
L 174.485744 62.652817 
L 176.832491 68.80656 
L 179.196205 74.498019 
L 181.578883 67.016159 
L 183.918499 69.073201 
L 186.266795 74.626668 
L 188.622998 68.89633 
L 190.942208 66.126809 
L 193.255086 72.815657 
L 195.569368 78.203798 
L 197.915259 56.632952 
L 200.261154 72.268614 
L 202.591918 73.586319 
L 204.950498 73.042029 
L 207.327523 57.767689 
L 209.66128 68.975802 
L 211.967246 55.143045 
L 214.334769 62.820124 
L 216.680794 63.843683 
L 218.995362 60.749561 
L 221.364597 62.566624 
L 223.697227 66.055107 
L 226.048238 55.807231 
L 228.398403 65.368317 
L 230.785671 63.657469 
L 233.122747 63.501384 
L 235.437495 65.617717 
L 237.787161 60.130102 
L 240.093068 67.528227 
L 242.439517 61.160234 
L 244.767932 62.963611 
L 247.11291 59.546727 
L 249.479834 61.703428 
L 251.825557 66.474839 
L 254.186408 57.595814 
L 256.545369 63.485116 
L 258.848106 51.436773 
L 261.199961 56.564617 
L 263.586406 71.513694 
L 265.933072 57.063802 
L 268.206056 58.320589 
L 270.570855 55.976784 
L 272.90205 55.418843 
L 275.215627 66.629116 
L 277.580496 64.392148 
L 279.938639 65.328995 
L 282.289338 48.865183 
L 284.644898 52.200422 
L 287.007093 64.550878 
L 289.393917 48.528103 
L 291.736054 46.037432 
L 294.075649 50.450572 
L 296.390204 53.054128 
L 298.765165 54.613011 
L 301.109472 49.003429 
L 303.476252 54.690525 
L 305.828132 51.543263 
L 308.161245 48.736191 
L 310.503556 45.323933 
L 312.837758 48.839966 
L 315.17546 51.513344 
L 317.508292 47.1852 
L 319.850067 47.663049 
L 322.181337 43.539292 
L 324.529522 49.692824 
L 326.919283 49.350911 
L 329.244312 46.134047 
L 331.606307 52.41543 
L 333.942292 44.761503 
L 336.305804 51.191578 
L 338.62384 44.10578 
L 341.004642 50.33761 
L 343.416325 53.02132 
L 345.774731 50.195549 
L 348.114993 45.814672 
L 350.514778 51.294933 
L 352.882986 46.080118 
L 355.233422 46.090001 
L 357.547196 36.445789 
L 359.88273 44.970327 
L 362.23499 41.221296 
L 364.60563 48.784839 
L 366.956065 44.136652 
L 369.321836 38.671049 
L 371.684831 44.176527 
L 374.052031 41.238573 
L 376.38024 42.024454 
L 378.70528 36.764838 
L 381.081433 42.898157 
L 383.456357 44.194396 
L 385.784684 40.446416 
L 388.13428 41.730868 
L 390.495955 42.550949 
L 392.860619 41.592382 
L 395.220589 45.097354 
L 397.592411 36.476177 
L 399.916906 44.630218 
L 402.23772 39.460674 
L 404.593873 45.14932 
L 406.931192 42.139473 
L 409.291255 44.859242 
L 411.628358 42.949961 
L 413.979581 43.256636 
L 416.322236 39.849955 
L 418.659113 41.484584 
L 418.659113 30.560301 
L 418.659113 30.560301 
L 416.322236 29.429513 
L 413.979581 30.747085 
L 411.628358 30.765696 
L 409.291255 28.568351 
L 406.931192 27.543285 
L 404.593873 32.944913 
L 402.23772 34.19737 
L 399.916906 32.369371 
L 397.592411 25.716911 
L 395.220589 31.095655 
L 392.860619 30.625342 
L 390.495955 33.123545 
L 388.13428 29.334598 
L 385.784684 30.676664 
L 383.456357 27.735263 
L 381.081433 26.899827 
L 378.70528 28.942634 
L 376.38024 33.131524 
L 374.052031 30.518248 
L 371.684831 31.728419 
L 369.321836 27.670164 
L 366.956065 29.175716 
L 364.60563 37.259966 
L 362.23499 31.514943 
L 359.88273 32.663004 
L 357.547196 26.496266 
L 355.233422 39.551515 
L 352.882986 33.33921 
L 350.514778 30.083233 
L 348.114993 27.555308 
L 345.774731 40.631123 
L 343.416325 35.55845 
L 341.004642 34.497326 
L 338.62384 33.585164 
L 336.305804 35.026067 
L 333.942292 33.908858 
L 331.606307 33.744602 
L 329.244312 35.589795 
L 326.919283 35.195961 
L 324.529522 31.627729 
L 322.181337 29.25456 
L 319.850067 32.908536 
L 317.508292 35.633286 
L 315.17546 28.366887 
L 312.837758 42.620447 
L 310.503556 35.59333 
L 308.161245 37.078164 
L 305.828132 34.501543 
L 303.476252 38.325435 
L 301.109472 30.185448 
L 298.765165 38.287723 
L 296.390204 37.599705 
L 294.075649 35.939911 
L 291.736054 31.077383 
L 289.393917 37.228639 
L 287.007093 40.333328 
L 284.644898 40.757925 
L 282.289338 44.150777 
L 279.938639 39.439985 
L 277.580496 40.14638 
L 275.215627 54.156235 
L 272.90205 49.40775 
L 270.570855 36.578273 
L 268.206056 46.563616 
L 265.933072 39.696993 
L 263.586406 38.61328 
L 261.199961 35.529537 
L 258.848106 28.501072 
L 256.545369 45.086312 
L 254.186408 45.329554 
L 251.825557 40.598654 
L 249.479834 37.707558 
L 247.11291 46.201672 
L 244.767932 50.332069 
L 242.439517 36.637592 
L 240.093068 51.413512 
L 237.787161 46.367263 
L 235.437495 39.09365 
L 233.122747 46.107075 
L 230.785671 31.374941 
L 228.398403 37.960342 
L 226.048238 37.381567 
L 223.697227 60.261076 
L 221.364597 35.749717 
L 218.995362 51.854765 
L 216.680794 37.929429 
L 214.334769 53.125747 
L 211.967246 40.638332 
L 209.66128 43.110009 
L 207.327523 42.104199 
L 204.950498 62.08892 
L 202.591918 46.162 
L 200.261154 42.813065 
L 197.915259 39.090811 
L 195.569368 46.441613 
L 193.255086 47.624017 
L 190.942208 46.074228 
L 188.622998 40.078388 
L 186.266795 53.994029 
L 183.918499 52.11544 
L 181.578883 44.954426 
L 179.196205 49.2832 
L 176.832491 37.806031 
L 174.485744 45.342482 
L 172.171536 49.409671 
L 169.818407 45.076547 
L 167.470844 57.614627 
L 165.129403 43.734761 
L 162.799356 57.038735 
L 160.478581 50.376844 
L 158.148981 50.554637 
L 155.804262 44.644177 
L 153.47413 69.992507 
L 151.157285 47.136306 
L 148.774662 65.289922 
L 146.428312 37.583312 
L 144.049592 64.786224 
L 141.689121 59.996227 
L 139.351317 64.835836 
L 137.008051 61.688964 
L 134.666209 71.577197 
L 132.316006 66.136706 
L 129.99464 55.022931 
L 127.65506 53.286978 
L 125.28475 62.52078 
L 122.934033 58.003072 
L 120.582367 49.33477 
L 118.267672 71.404326 
L 115.90762 60.234569 
L 113.583764 63.700483 
L 111.2104 59.329156 
L 108.854949 66.887997 
L 106.531595 78.112688 
L 104.158133 67.589852 
L 101.834017 81.425042 
L 99.526049 67.810014 
L 97.175309 74.928002 
L 94.844075 57.413367 
L 92.500678 103.3498 
L 90.162295 100.017964 
L 87.778516 106.747667 
L 85.393165 154.326582 
L 83.03343 151.010262 
L 80.686008 196.526887 
L 78.383834 192.862535 
L 76.082408 210.935112 
L 73.719315 236.222895 
L 71.365096 270.863238 
L 68.972733 285.017101 
z
" style="fill:#ff7f0e;fill-opacity:0.25;"/>
   </g>
   <g id="PolyCollection_3">
    <path clip-path="url(#p7c2d8bcb35)" d="M 69.038736 274.416986 
L 69.038736 289.238292 
L 71.48484 278.329657 
L 73.904729 227.263403 
L 76.319324 241.110577 
L 78.768748 187.146736 
L 81.194907 192.891747 
L 83.654827 135.977585 
L 86.068337 129.273301 
L 88.487555 118.222847 
L 90.940867 105.983332 
L 93.320692 81.856972 
L 95.741793 81.277545 
L 98.106309 92.770702 
L 100.546691 89.848869 
L 102.965341 85.680839 
L 105.380047 90.175276 
L 107.80059 88.756873 
L 110.214206 70.603283 
L 112.626689 80.138004 
L 115.033496 73.952862 
L 117.485567 77.080678 
L 119.896782 70.387737 
L 122.288838 104.89094 
L 124.730857 75.053679 
L 127.202115 66.47581 
L 129.592226 61.716114 
L 131.982034 71.500597 
L 134.379428 72.961516 
L 136.793805 64.077652 
L 139.17453 68.701591 
L 141.615265 77.66165 
L 144.065898 70.343971 
L 146.509296 74.102042 
L 148.957308 94.841414 
L 151.375823 72.243094 
L 153.73322 73.628246 
L 156.162796 68.658468 
L 158.626387 73.384589 
L 161.065169 71.601779 
L 163.460017 67.435408 
L 165.962351 67.937329 
L 168.456202 64.376544 
L 170.906749 73.198935 
L 173.395106 76.54306 
L 175.849524 82.191981 
L 178.247083 76.007657 
L 180.697376 76.984789 
L 183.12449 76.782491 
L 185.540172 75.954188 
L 187.93197 68.65281 
L 190.370037 70.823155 
L 192.816385 76.260763 
L 195.263091 67.13716 
L 197.65673 56.957319 
L 200.083007 67.320674 
L 202.500237 64.388467 
L 204.920092 69.20317 
L 207.349738 71.565574 
L 209.772472 62.487567 
L 212.211256 64.489019 
L 214.591832 64.326341 
L 216.998633 55.02236 
L 219.41328 50.683154 
L 221.865134 64.131096 
L 224.249174 60.187495 
L 226.657872 64.356528 
L 229.115491 61.746117 
L 231.504094 47.781208 
L 233.911151 55.518364 
L 236.27166 62.173796 
L 238.699265 60.842597 
L 241.111975 55.927119 
L 243.562984 62.631529 
L 245.967123 53.368245 
L 248.388912 70.027651 
L 250.855411 72.648872 
L 253.282215 55.721303 
L 255.710841 49.336844 
L 258.125643 56.677888 
L 260.527615 53.622287 
L 262.987339 76.638018 
L 265.394157 61.764812 
L 267.837662 59.380571 
L 270.259932 55.976431 
L 272.740269 61.034886 
L 275.188431 62.239963 
L 277.581358 56.547287 
L 280.015939 60.391013 
L 282.400366 53.717156 
L 284.819512 59.426454 
L 287.225139 56.858788 
L 289.679735 69.361425 
L 292.151872 62.197484 
L 294.627865 56.778573 
L 297.092875 56.514629 
L 299.467564 61.103037 
L 301.87387 53.786258 
L 304.355938 58.301853 
L 306.794137 58.234369 
L 309.208388 60.804517 
L 311.625751 50.977114 
L 314.092691 54.412821 
L 316.526658 57.31386 
L 318.999095 53.415604 
L 321.442945 55.941664 
L 323.864851 51.271719 
L 326.284086 52.695926 
L 328.699924 46.814892 
L 331.185088 51.558729 
L 333.610119 48.20689 
L 336.075427 51.161224 
L 338.5249 56.55084 
L 340.978791 45.004054 
L 343.457149 47.626916 
L 345.913227 43.686407 
L 348.355281 69.505277 
L 350.800515 40.466229 
L 353.247115 53.226915 
L 355.72572 55.776603 
L 358.145699 46.943482 
L 360.554198 42.663407 
L 362.987527 41.104293 
L 365.435379 42.74882 
L 367.843121 41.024377 
L 370.270061 44.006405 
L 372.716321 41.121483 
L 375.15498 43.498492 
L 377.576899 48.145609 
L 380.000738 45.689515 
L 382.45693 41.671406 
L 384.842944 43.801814 
L 387.283484 41.687339 
L 389.694122 43.93843 
L 392.123238 46.062809 
L 394.546008 42.461478 
L 396.912842 42.29379 
L 399.383027 49.275238 
L 401.828679 46.674815 
L 404.275737 44.554848 
L 406.735554 41.56648 
L 409.141702 37.616073 
L 411.551503 34.758965 
L 413.999219 41.813278 
L 416.457443 46.248722 
L 418.838557 41.085239 
L 421.260622 37.616073 
L 423.716914 44.902757 
L 426.15042 45.035389 
L 428.581559 46.15532 
L 431.027394 50.365031 
L 431.027394 29.688039 
L 431.027394 29.688039 
L 428.581559 31.189947 
L 426.15042 33.058844 
L 423.716914 29.734706 
L 421.260622 26.247788 
L 418.838557 29.692163 
L 416.457443 36.68499 
L 413.999219 28.445609 
L 411.551503 27.088447 
L 409.141702 26.247788 
L 406.735554 26.157441 
L 404.275737 29.276035 
L 401.828679 30.094323 
L 399.383027 31.699638 
L 396.912842 28.656451 
L 394.546008 38.571011 
L 392.123238 31.224845 
L 389.694122 32.024128 
L 387.283484 31.625029 
L 384.842944 29.107263 
L 382.45693 28.241804 
L 380.000738 29.293625 
L 377.576899 31.504171 
L 375.15498 35.287095 
L 372.716321 27.466631 
L 370.270061 26.079643 
L 367.843121 27.448512 
L 365.435379 24.110909 
L 362.987527 30.998205 
L 360.554198 35.200375 
L 358.145699 29.883269 
L 355.72572 29.634462 
L 353.247115 29.994862 
L 350.800515 31.175366 
L 348.355281 34.341897 
L 345.913227 28.300865 
L 343.457149 30.352091 
L 340.978791 26.867992 
L 338.5249 38.366343 
L 336.075427 34.883582 
L 333.610119 29.599279 
L 331.185088 43.531293 
L 328.699924 34.90895 
L 326.284086 29.949722 
L 323.864851 41.859466 
L 321.442945 35.633975 
L 318.999095 41.50158 
L 316.526658 42.730867 
L 314.092691 41.829458 
L 311.625751 41.750781 
L 309.208388 41.48711 
L 306.794137 36.106686 
L 304.355938 42.722292 
L 301.87387 32.085709 
L 299.467564 39.517818 
L 297.092875 40.246166 
L 294.627865 31.397908 
L 292.151872 42.283432 
L 289.679735 36.502199 
L 287.225139 39.902006 
L 284.819512 41.36724 
L 282.400366 34.747389 
L 280.015939 45.414998 
L 277.581358 44.995373 
L 275.188431 29.738965 
L 272.740269 37.511907 
L 270.259932 34.44695 
L 267.837662 50.400726 
L 265.394157 49.687258 
L 262.987339 40.172046 
L 260.527615 31.904003 
L 258.125643 29.943046 
L 255.710841 31.695644 
L 253.282215 32.051888 
L 250.855411 45.831965 
L 248.388912 48.280347 
L 245.967123 39.013973 
L 243.562984 40.985194 
L 241.111975 51.492052 
L 238.699265 38.107486 
L 236.27166 40.060219 
L 233.911151 34.73218 
L 231.504094 35.498182 
L 229.115491 40.084608 
L 226.657872 35.918651 
L 224.249174 41.412778 
L 221.865134 31.535055 
L 219.41328 34.151782 
L 216.998633 28.026578 
L 214.591832 49.833533 
L 212.211256 46.271696 
L 209.772472 50.11676 
L 207.349738 43.516105 
L 204.920092 36.948518 
L 202.500237 36.405226 
L 200.083007 40.444174 
L 197.65673 39.227347 
L 195.263091 54.627609 
L 192.816385 54.203545 
L 190.370037 43.221492 
L 187.93197 56.511117 
L 185.540172 51.514252 
L 183.12449 44.002859 
L 180.697376 55.438356 
L 178.247083 47.197433 
L 175.849524 47.408134 
L 173.395106 57.666082 
L 170.906749 64.121301 
L 168.456202 35.264893 
L 165.962351 52.156667 
L 163.460017 47.991948 
L 161.065169 54.541566 
L 158.626387 39.104512 
L 156.162796 38.991154 
L 153.73322 48.021297 
L 151.375823 65.883722 
L 148.957308 52.042555 
L 146.509296 57.111234 
L 144.065898 41.33855 
L 141.615265 45.773891 
L 139.17453 53.293629 
L 136.793805 40.057587 
L 134.379428 58.136533 
L 131.982034 49.227141 
L 129.592226 38.67429 
L 127.202115 57.305409 
L 124.730857 43.88806 
L 122.288838 60.141074 
L 119.896782 59.558055 
L 117.485567 63.004975 
L 115.033496 61.46615 
L 112.626689 59.717197 
L 110.214206 46.898135 
L 107.80059 42.22595 
L 105.380047 58.667529 
L 102.965341 71.976731 
L 100.546691 48.162722 
L 98.106309 69.438283 
L 95.741793 34.72594 
L 93.320692 58.228681 
L 90.940867 66.884029 
L 88.487555 62.652699 
L 86.068337 100.688388 
L 83.654827 96.34623 
L 81.194907 142.328607 
L 78.768748 157.406899 
L 76.319324 189.242985 
L 73.904729 206.791784 
L 71.48484 238.1335 
L 69.038736 274.416986 
z
" style="fill:#2ca02c;fill-opacity:0.25;"/>
   </g>
   <g id="matplotlib.axis_1">
    <g id="xtick_1">
     <g id="line2d_1">
      <defs>
       <path d="M 0 0 
L 0 3.5 
" id="m4376424fd1" style="stroke:#000000;stroke-width:0.8;"/>
      </defs>
      <g>
       <use style="stroke:#000000;stroke-width:0.8;" x="66.242155" xlink:href="#m4376424fd1" y="303.64"/>
      </g>
     </g>
     <g id="text_1">
      <!-- 0 -->
      <g transform="translate(63.060905 318.238437)scale(0.1 -0.1)">
       <defs>
        <path d="M 31.78125 66.40625 
Q 24.171875 66.40625 20.328125 58.90625 
Q 16.5 51.421875 16.5 36.375 
Q 16.5 21.390625 20.328125 13.890625 
Q 24.171875 6.390625 31.78125 6.390625 
Q 39.453125 6.390625 43.28125 13.890625 
Q 47.125 21.390625 47.125 36.375 
Q 47.125 51.421875 43.28125 58.90625 
Q 39.453125 66.40625 31.78125 66.40625 
z
M 31.78125 74.21875 
Q 44.046875 74.21875 50.515625 64.515625 
Q 56.984375 54.828125 56.984375 36.375 
Q 56.984375 17.96875 50.515625 8.265625 
Q 44.046875 -1.421875 31.78125 -1.421875 
Q 19.53125 -1.421875 13.0625 8.265625 
Q 6.59375 17.96875 6.59375 36.375 
Q 6.59375 54.828125 13.0625 64.515625 
Q 19.53125 74.21875 31.78125 74.21875 
z
" id="DejaVuSans-48"/>
       </defs>
       <use xlink:href="#DejaVuSans-48"/>
      </g>
     </g>
    </g>
    <g id="xtick_2">
     <g id="line2d_2">
      <g>
       <use style="stroke:#000000;stroke-width:0.8;" x="140.203462" xlink:href="#m4376424fd1" y="303.64"/>
      </g>
     </g>
     <g id="text_2">
      <!-- 500 -->
      <g transform="translate(130.659712 318.238437)scale(0.1 -0.1)">
       <defs>
        <path d="M 10.796875 72.90625 
L 49.515625 72.90625 
L 49.515625 64.59375 
L 19.828125 64.59375 
L 19.828125 46.734375 
Q 21.96875 47.46875 24.109375 47.828125 
Q 26.265625 48.1875 28.421875 48.1875 
Q 40.625 48.1875 47.75 41.5 
Q 54.890625 34.8125 54.890625 23.390625 
Q 54.890625 11.625 47.5625 5.09375 
Q 40.234375 -1.421875 26.90625 -1.421875 
Q 22.3125 -1.421875 17.546875 -0.640625 
Q 12.796875 0.140625 7.71875 1.703125 
L 7.71875 11.625 
Q 12.109375 9.234375 16.796875 8.0625 
Q 21.484375 6.890625 26.703125 6.890625 
Q 35.15625 6.890625 40.078125 11.328125 
Q 45.015625 15.765625 45.015625 23.390625 
Q 45.015625 31 40.078125 35.4375 
Q 35.15625 39.890625 26.703125 39.890625 
Q 22.75 39.890625 18.8125 39.015625 
Q 14.890625 38.140625 10.796875 36.28125 
z
" id="DejaVuSans-53"/>
       </defs>
       <use xlink:href="#DejaVuSans-53"/>
       <use x="63.623047" xlink:href="#DejaVuSans-48"/>
       <use x="127.246094" xlink:href="#DejaVuSans-48"/>
      </g>
     </g>
    </g>
    <g id="xtick_3">
     <g id="line2d_3">
      <g>
       <use style="stroke:#000000;stroke-width:0.8;" x="214.16477" xlink:href="#m4376424fd1" y="303.64"/>
      </g>
     </g>
     <g id="text_3">
      <!-- 1000 -->
      <g transform="translate(201.43977 318.238437)scale(0.1 -0.1)">
       <defs>
        <path d="M 12.40625 8.296875 
L 28.515625 8.296875 
L 28.515625 63.921875 
L 10.984375 60.40625 
L 10.984375 69.390625 
L 28.421875 72.90625 
L 38.28125 72.90625 
L 38.28125 8.296875 
L 54.390625 8.296875 
L 54.390625 0 
L 12.40625 0 
z
" id="DejaVuSans-49"/>
       </defs>
       <use xlink:href="#DejaVuSans-49"/>
       <use x="63.623047" xlink:href="#DejaVuSans-48"/>
       <use x="127.246094" xlink:href="#DejaVuSans-48"/>
       <use x="190.869141" xlink:href="#DejaVuSans-48"/>
      </g>
     </g>
    </g>
    <g id="xtick_4">
     <g id="line2d_4">
      <g>
       <use style="stroke:#000000;stroke-width:0.8;" x="288.126078" xlink:href="#m4376424fd1" y="303.64"/>
      </g>
     </g>
     <g id="text_4">
      <!-- 1500 -->
      <g transform="translate(275.401078 318.238437)scale(0.1 -0.1)">
       <use xlink:href="#DejaVuSans-49"/>
       <use x="63.623047" xlink:href="#DejaVuSans-53"/>
       <use x="127.246094" xlink:href="#DejaVuSans-48"/>
       <use x="190.869141" xlink:href="#DejaVuSans-48"/>
      </g>
     </g>
    </g>
    <g id="xtick_5">
     <g id="line2d_5">
      <g>
       <use style="stroke:#000000;stroke-width:0.8;" x="362.087385" xlink:href="#m4376424fd1" y="303.64"/>
      </g>
     </g>
     <g id="text_5">
      <!-- 2000 -->
      <g transform="translate(349.362385 318.238437)scale(0.1 -0.1)">
       <defs>
        <path d="M 19.1875 8.296875 
L 53.609375 8.296875 
L 53.609375 0 
L 7.328125 0 
L 7.328125 8.296875 
Q 12.9375 14.109375 22.625 23.890625 
Q 32.328125 33.6875 34.8125 36.53125 
Q 39.546875 41.84375 41.421875 45.53125 
Q 43.3125 49.21875 43.3125 52.78125 
Q 43.3125 58.59375 39.234375 62.25 
Q 35.15625 65.921875 28.609375 65.921875 
Q 23.96875 65.921875 18.8125 64.3125 
Q 13.671875 62.703125 7.8125 59.421875 
L 7.8125 69.390625 
Q 13.765625 71.78125 18.9375 73 
Q 24.125 74.21875 28.421875 74.21875 
Q 39.75 74.21875 46.484375 68.546875 
Q 53.21875 62.890625 53.21875 53.421875 
Q 53.21875 48.921875 51.53125 44.890625 
Q 49.859375 40.875 45.40625 35.40625 
Q 44.1875 33.984375 37.640625 27.21875 
Q 31.109375 20.453125 19.1875 8.296875 
z
" id="DejaVuSans-50"/>
       </defs>
       <use xlink:href="#DejaVuSans-50"/>
       <use x="63.623047" xlink:href="#DejaVuSans-48"/>
       <use x="127.246094" xlink:href="#DejaVuSans-48"/>
       <use x="190.869141" xlink:href="#DejaVuSans-48"/>
      </g>
     </g>
    </g>
    <g id="xtick_6">
     <g id="line2d_6">
      <g>
       <use style="stroke:#000000;stroke-width:0.8;" x="436.048693" xlink:href="#m4376424fd1" y="303.64"/>
      </g>
     </g>
     <g id="text_6">
      <!-- 2500 -->
      <g transform="translate(423.323693 318.238437)scale(0.1 -0.1)">
       <use xlink:href="#DejaVuSans-50"/>
       <use x="63.623047" xlink:href="#DejaVuSans-53"/>
       <use x="127.246094" xlink:href="#DejaVuSans-48"/>
       <use x="190.869141" xlink:href="#DejaVuSans-48"/>
      </g>
     </g>
    </g>
    <g id="text_7">
     <!-- Time (sec) -->
     <g transform="translate(223.845376 331.916562)scale(0.1 -0.1)">
      <defs>
       <path d="M -0.296875 72.90625 
L 61.375 72.90625 
L 61.375 64.59375 
L 35.5 64.59375 
L 35.5 0 
L 25.59375 0 
L 25.59375 64.59375 
L -0.296875 64.59375 
z
" id="DejaVuSans-84"/>
       <path d="M 9.421875 54.6875 
L 18.40625 54.6875 
L 18.40625 0 
L 9.421875 0 
z
M 9.421875 75.984375 
L 18.40625 75.984375 
L 18.40625 64.59375 
L 9.421875 64.59375 
z
" id="DejaVuSans-105"/>
       <path d="M 52 44.1875 
Q 55.375 50.25 60.0625 53.125 
Q 64.75 56 71.09375 56 
Q 79.640625 56 84.28125 50.015625 
Q 88.921875 44.046875 88.921875 33.015625 
L 88.921875 0 
L 79.890625 0 
L 79.890625 32.71875 
Q 79.890625 40.578125 77.09375 44.375 
Q 74.3125 48.1875 68.609375 48.1875 
Q 61.625 48.1875 57.5625 43.546875 
Q 53.515625 38.921875 53.515625 30.90625 
L 53.515625 0 
L 44.484375 0 
L 44.484375 32.71875 
Q 44.484375 40.625 41.703125 44.40625 
Q 38.921875 48.1875 33.109375 48.1875 
Q 26.21875 48.1875 22.15625 43.53125 
Q 18.109375 38.875 18.109375 30.90625 
L 18.109375 0 
L 9.078125 0 
L 9.078125 54.6875 
L 18.109375 54.6875 
L 18.109375 46.1875 
Q 21.1875 51.21875 25.484375 53.609375 
Q 29.78125 56 35.6875 56 
Q 41.65625 56 45.828125 52.96875 
Q 50 49.953125 52 44.1875 
z
" id="DejaVuSans-109"/>
       <path d="M 56.203125 29.59375 
L 56.203125 25.203125 
L 14.890625 25.203125 
Q 15.484375 15.921875 20.484375 11.0625 
Q 25.484375 6.203125 34.421875 6.203125 
Q 39.59375 6.203125 44.453125 7.46875 
Q 49.3125 8.734375 54.109375 11.28125 
L 54.109375 2.78125 
Q 49.265625 0.734375 44.1875 -0.34375 
Q 39.109375 -1.421875 33.890625 -1.421875 
Q 20.796875 -1.421875 13.15625 6.1875 
Q 5.515625 13.8125 5.515625 26.8125 
Q 5.515625 40.234375 12.765625 48.109375 
Q 20.015625 56 32.328125 56 
Q 43.359375 56 49.78125 48.890625 
Q 56.203125 41.796875 56.203125 29.59375 
z
M 47.21875 32.234375 
Q 47.125 39.59375 43.09375 43.984375 
Q 39.0625 48.390625 32.421875 48.390625 
Q 24.90625 48.390625 20.390625 44.140625 
Q 15.875 39.890625 15.1875 32.171875 
z
" id="DejaVuSans-101"/>
       <path id="DejaVuSans-32"/>
       <path d="M 31 75.875 
Q 24.46875 64.65625 21.28125 53.65625 
Q 18.109375 42.671875 18.109375 31.390625 
Q 18.109375 20.125 21.3125 9.0625 
Q 24.515625 -2 31 -13.1875 
L 23.1875 -13.1875 
Q 15.875 -1.703125 12.234375 9.375 
Q 8.59375 20.453125 8.59375 31.390625 
Q 8.59375 42.28125 12.203125 53.3125 
Q 15.828125 64.359375 23.1875 75.875 
z
" id="DejaVuSans-40"/>
       <path d="M 44.28125 53.078125 
L 44.28125 44.578125 
Q 40.484375 46.53125 36.375 47.5 
Q 32.28125 48.484375 27.875 48.484375 
Q 21.1875 48.484375 17.84375 46.4375 
Q 14.5 44.390625 14.5 40.28125 
Q 14.5 37.15625 16.890625 35.375 
Q 19.28125 33.59375 26.515625 31.984375 
L 29.59375 31.296875 
Q 39.15625 29.25 43.1875 25.515625 
Q 47.21875 21.78125 47.21875 15.09375 
Q 47.21875 7.46875 41.1875 3.015625 
Q 35.15625 -1.421875 24.609375 -1.421875 
Q 20.21875 -1.421875 15.453125 -0.5625 
Q 10.6875 0.296875 5.421875 2 
L 5.421875 11.28125 
Q 10.40625 8.6875 15.234375 7.390625 
Q 20.0625 6.109375 24.8125 6.109375 
Q 31.15625 6.109375 34.5625 8.28125 
Q 37.984375 10.453125 37.984375 14.40625 
Q 37.984375 18.0625 35.515625 20.015625 
Q 33.0625 21.96875 24.703125 23.78125 
L 21.578125 24.515625 
Q 13.234375 26.265625 9.515625 29.90625 
Q 5.8125 33.546875 5.8125 39.890625 
Q 5.8125 47.609375 11.28125 51.796875 
Q 16.75 56 26.8125 56 
Q 31.78125 56 36.171875 55.265625 
Q 40.578125 54.546875 44.28125 53.078125 
z
" id="DejaVuSans-115"/>
       <path d="M 48.78125 52.59375 
L 48.78125 44.1875 
Q 44.96875 46.296875 41.140625 47.34375 
Q 37.3125 48.390625 33.40625 48.390625 
Q 24.65625 48.390625 19.8125 42.84375 
Q 14.984375 37.3125 14.984375 27.296875 
Q 14.984375 17.28125 19.8125 11.734375 
Q 24.65625 6.203125 33.40625 6.203125 
Q 37.3125 6.203125 41.140625 7.25 
Q 44.96875 8.296875 48.78125 10.40625 
L 48.78125 2.09375 
Q 45.015625 0.34375 40.984375 -0.53125 
Q 36.96875 -1.421875 32.421875 -1.421875 
Q 20.0625 -1.421875 12.78125 6.34375 
Q 5.515625 14.109375 5.515625 27.296875 
Q 5.515625 40.671875 12.859375 48.328125 
Q 20.21875 56 33.015625 56 
Q 37.15625 56 41.109375 55.140625 
Q 45.0625 54.296875 48.78125 52.59375 
z
" id="DejaVuSans-99"/>
       <path d="M 8.015625 75.875 
L 15.828125 75.875 
Q 23.140625 64.359375 26.78125 53.3125 
Q 30.421875 42.28125 30.421875 31.390625 
Q 30.421875 20.453125 26.78125 9.375 
Q 23.140625 -1.703125 15.828125 -13.1875 
L 8.015625 -13.1875 
Q 14.5 -2 17.703125 9.0625 
Q 20.90625 20.125 20.90625 31.390625 
Q 20.90625 42.671875 17.703125 53.65625 
Q 14.5 64.65625 8.015625 75.875 
z
" id="DejaVuSans-41"/>
      </defs>
      <use xlink:href="#DejaVuSans-84"/>
      <use x="57.958984" xlink:href="#DejaVuSans-105"/>
      <use x="85.742188" xlink:href="#DejaVuSans-109"/>
      <use x="183.154297" xlink:href="#DejaVuSans-101"/>
      <use x="244.677734" xlink:href="#DejaVuSans-32"/>
      <use x="276.464844" xlink:href="#DejaVuSans-40"/>
      <use x="315.478516" xlink:href="#DejaVuSans-115"/>
      <use x="367.578125" xlink:href="#DejaVuSans-101"/>
      <use x="429.101562" xlink:href="#DejaVuSans-99"/>
      <use x="484.082031" xlink:href="#DejaVuSans-41"/>
     </g>
    </g>
   </g>
   <g id="matplotlib.axis_2">
    <g id="ytick_1">
     <g id="line2d_7">
      <defs>
       <path d="M 0 0 
L -3.5 0 
" id="m359ea9fadb" style="stroke:#000000;stroke-width:0.8;"/>
      </defs>
      <g>
       <use style="stroke:#000000;stroke-width:0.8;" x="50.87" xlink:href="#m359ea9fadb" y="258.350405"/>
      </g>
     </g>
     <g id="text_8">
      <!-- 20 -->
      <g transform="translate(31.145 262.149624)scale(0.1 -0.1)">
       <use xlink:href="#DejaVuSans-50"/>
       <use x="63.623047" xlink:href="#DejaVuSans-48"/>
      </g>
     </g>
    </g>
    <g id="ytick_2">
     <g id="line2d_8">
      <g>
       <use style="stroke:#000000;stroke-width:0.8;" x="50.87" xlink:href="#m359ea9fadb" y="199.354854"/>
      </g>
     </g>
     <g id="text_9">
      <!-- 40 -->
      <g transform="translate(31.145 203.154072)scale(0.1 -0.1)">
       <defs>
        <path d="M 37.796875 64.3125 
L 12.890625 25.390625 
L 37.796875 25.390625 
z
M 35.203125 72.90625 
L 47.609375 72.90625 
L 47.609375 25.390625 
L 58.015625 25.390625 
L 58.015625 17.1875 
L 47.609375 17.1875 
L 47.609375 0 
L 37.796875 0 
L 37.796875 17.1875 
L 4.890625 17.1875 
L 4.890625 26.703125 
z
" id="DejaVuSans-52"/>
       </defs>
       <use xlink:href="#DejaVuSans-52"/>
       <use x="63.623047" xlink:href="#DejaVuSans-48"/>
      </g>
     </g>
    </g>
    <g id="ytick_3">
     <g id="line2d_9">
      <g>
       <use style="stroke:#000000;stroke-width:0.8;" x="50.87" xlink:href="#m359ea9fadb" y="140.359302"/>
      </g>
     </g>
     <g id="text_10">
      <!-- 60 -->
      <g transform="translate(31.145 144.158521)scale(0.1 -0.1)">
       <defs>
        <path d="M 33.015625 40.375 
Q 26.375 40.375 22.484375 35.828125 
Q 18.609375 31.296875 18.609375 23.390625 
Q 18.609375 15.53125 22.484375 10.953125 
Q 26.375 6.390625 33.015625 6.390625 
Q 39.65625 6.390625 43.53125 10.953125 
Q 47.40625 15.53125 47.40625 23.390625 
Q 47.40625 31.296875 43.53125 35.828125 
Q 39.65625 40.375 33.015625 40.375 
z
M 52.59375 71.296875 
L 52.59375 62.3125 
Q 48.875 64.0625 45.09375 64.984375 
Q 41.3125 65.921875 37.59375 65.921875 
Q 27.828125 65.921875 22.671875 59.328125 
Q 17.53125 52.734375 16.796875 39.40625 
Q 19.671875 43.65625 24.015625 45.921875 
Q 28.375 48.1875 33.59375 48.1875 
Q 44.578125 48.1875 50.953125 41.515625 
Q 57.328125 34.859375 57.328125 23.390625 
Q 57.328125 12.15625 50.6875 5.359375 
Q 44.046875 -1.421875 33.015625 -1.421875 
Q 20.359375 -1.421875 13.671875 8.265625 
Q 6.984375 17.96875 6.984375 36.375 
Q 6.984375 53.65625 15.1875 63.9375 
Q 23.390625 74.21875 37.203125 74.21875 
Q 40.921875 74.21875 44.703125 73.484375 
Q 48.484375 72.75 52.59375 71.296875 
z
" id="DejaVuSans-54"/>
       </defs>
       <use xlink:href="#DejaVuSans-54"/>
       <use x="63.623047" xlink:href="#DejaVuSans-48"/>
      </g>
     </g>
    </g>
    <g id="ytick_4">
     <g id="line2d_10">
      <g>
       <use style="stroke:#000000;stroke-width:0.8;" x="50.87" xlink:href="#m359ea9fadb" y="81.36375"/>
      </g>
     </g>
     <g id="text_11">
      <!-- 80 -->
      <g transform="translate(31.145 85.162969)scale(0.1 -0.1)">
       <defs>
        <path d="M 31.78125 34.625 
Q 24.75 34.625 20.71875 30.859375 
Q 16.703125 27.09375 16.703125 20.515625 
Q 16.703125 13.921875 20.71875 10.15625 
Q 24.75 6.390625 31.78125 6.390625 
Q 38.8125 6.390625 42.859375 10.171875 
Q 46.921875 13.96875 46.921875 20.515625 
Q 46.921875 27.09375 42.890625 30.859375 
Q 38.875 34.625 31.78125 34.625 
z
M 21.921875 38.8125 
Q 15.578125 40.375 12.03125 44.71875 
Q 8.5 49.078125 8.5 55.328125 
Q 8.5 64.0625 14.71875 69.140625 
Q 20.953125 74.21875 31.78125 74.21875 
Q 42.671875 74.21875 48.875 69.140625 
Q 55.078125 64.0625 55.078125 55.328125 
Q 55.078125 49.078125 51.53125 44.71875 
Q 48 40.375 41.703125 38.8125 
Q 48.828125 37.15625 52.796875 32.3125 
Q 56.78125 27.484375 56.78125 20.515625 
Q 56.78125 9.90625 50.3125 4.234375 
Q 43.84375 -1.421875 31.78125 -1.421875 
Q 19.734375 -1.421875 13.25 4.234375 
Q 6.78125 9.90625 6.78125 20.515625 
Q 6.78125 27.484375 10.78125 32.3125 
Q 14.796875 37.15625 21.921875 38.8125 
z
M 18.3125 54.390625 
Q 18.3125 48.734375 21.84375 45.5625 
Q 25.390625 42.390625 31.78125 42.390625 
Q 38.140625 42.390625 41.71875 45.5625 
Q 45.3125 48.734375 45.3125 54.390625 
Q 45.3125 60.0625 41.71875 63.234375 
Q 38.140625 66.40625 31.78125 66.40625 
Q 25.390625 66.40625 21.84375 63.234375 
Q 18.3125 60.0625 18.3125 54.390625 
z
" id="DejaVuSans-56"/>
       </defs>
       <use xlink:href="#DejaVuSans-56"/>
       <use x="63.623047" xlink:href="#DejaVuSans-48"/>
      </g>
     </g>
    </g>
    <g id="ytick_5">
     <g id="line2d_11">
      <g>
       <use style="stroke:#000000;stroke-width:0.8;" x="50.87" xlink:href="#m359ea9fadb" y="22.368198"/>
      </g>
     </g>
     <g id="text_12">
      <!-- 100 -->
      <g transform="translate(24.7825 26.167417)scale(0.1 -0.1)">
       <use xlink:href="#DejaVuSans-49"/>
       <use x="63.623047" xlink:href="#DejaVuSans-48"/>
       <use x="127.246094" xlink:href="#DejaVuSans-48"/>
      </g>
     </g>
    </g>
    <g id="text_13">
     <!-- Test Accuracy (%) -->
     <g transform="translate(18.702813 201.723906)rotate(-90)scale(0.1 -0.1)">
      <defs>
       <path d="M 18.3125 70.21875 
L 18.3125 54.6875 
L 36.8125 54.6875 
L 36.8125 47.703125 
L 18.3125 47.703125 
L 18.3125 18.015625 
Q 18.3125 11.328125 20.140625 9.421875 
Q 21.96875 7.515625 27.59375 7.515625 
L 36.8125 7.515625 
L 36.8125 0 
L 27.59375 0 
Q 17.1875 0 13.234375 3.875 
Q 9.28125 7.765625 9.28125 18.015625 
L 9.28125 47.703125 
L 2.6875 47.703125 
L 2.6875 54.6875 
L 9.28125 54.6875 
L 9.28125 70.21875 
z
" id="DejaVuSans-116"/>
       <path d="M 34.1875 63.1875 
L 20.796875 26.90625 
L 47.609375 26.90625 
z
M 28.609375 72.90625 
L 39.796875 72.90625 
L 67.578125 0 
L 57.328125 0 
L 50.6875 18.703125 
L 17.828125 18.703125 
L 11.1875 0 
L 0.78125 0 
z
" id="DejaVuSans-65"/>
       <path d="M 8.5 21.578125 
L 8.5 54.6875 
L 17.484375 54.6875 
L 17.484375 21.921875 
Q 17.484375 14.15625 20.5 10.265625 
Q 23.53125 6.390625 29.59375 6.390625 
Q 36.859375 6.390625 41.078125 11.03125 
Q 45.3125 15.671875 45.3125 23.6875 
L 45.3125 54.6875 
L 54.296875 54.6875 
L 54.296875 0 
L 45.3125 0 
L 45.3125 8.40625 
Q 42.046875 3.421875 37.71875 1 
Q 33.40625 -1.421875 27.6875 -1.421875 
Q 18.265625 -1.421875 13.375 4.4375 
Q 8.5 10.296875 8.5 21.578125 
z
M 31.109375 56 
z
" id="DejaVuSans-117"/>
       <path d="M 41.109375 46.296875 
Q 39.59375 47.171875 37.8125 47.578125 
Q 36.03125 48 33.890625 48 
Q 26.265625 48 22.1875 43.046875 
Q 18.109375 38.09375 18.109375 28.8125 
L 18.109375 0 
L 9.078125 0 
L 9.078125 54.6875 
L 18.109375 54.6875 
L 18.109375 46.1875 
Q 20.953125 51.171875 25.484375 53.578125 
Q 30.03125 56 36.53125 56 
Q 37.453125 56 38.578125 55.875 
Q 39.703125 55.765625 41.0625 55.515625 
z
" id="DejaVuSans-114"/>
       <path d="M 34.28125 27.484375 
Q 23.390625 27.484375 19.1875 25 
Q 14.984375 22.515625 14.984375 16.5 
Q 14.984375 11.71875 18.140625 8.90625 
Q 21.296875 6.109375 26.703125 6.109375 
Q 34.1875 6.109375 38.703125 11.40625 
Q 43.21875 16.703125 43.21875 25.484375 
L 43.21875 27.484375 
z
M 52.203125 31.203125 
L 52.203125 0 
L 43.21875 0 
L 43.21875 8.296875 
Q 40.140625 3.328125 35.546875 0.953125 
Q 30.953125 -1.421875 24.3125 -1.421875 
Q 15.921875 -1.421875 10.953125 3.296875 
Q 6 8.015625 6 15.921875 
Q 6 25.140625 12.171875 29.828125 
Q 18.359375 34.515625 30.609375 34.515625 
L 43.21875 34.515625 
L 43.21875 35.40625 
Q 43.21875 41.609375 39.140625 45 
Q 35.0625 48.390625 27.6875 48.390625 
Q 23 48.390625 18.546875 47.265625 
Q 14.109375 46.140625 10.015625 43.890625 
L 10.015625 52.203125 
Q 14.9375 54.109375 19.578125 55.046875 
Q 24.21875 56 28.609375 56 
Q 40.484375 56 46.34375 49.84375 
Q 52.203125 43.703125 52.203125 31.203125 
z
" id="DejaVuSans-97"/>
       <path d="M 32.171875 -5.078125 
Q 28.375 -14.84375 24.75 -17.8125 
Q 21.140625 -20.796875 15.09375 -20.796875 
L 7.90625 -20.796875 
L 7.90625 -13.28125 
L 13.1875 -13.28125 
Q 16.890625 -13.28125 18.9375 -11.515625 
Q 21 -9.765625 23.484375 -3.21875 
L 25.09375 0.875 
L 2.984375 54.6875 
L 12.5 54.6875 
L 29.59375 11.921875 
L 46.6875 54.6875 
L 56.203125 54.6875 
z
" id="DejaVuSans-121"/>
       <path d="M 72.703125 32.078125 
Q 68.453125 32.078125 66.03125 28.46875 
Q 63.625 24.859375 63.625 18.40625 
Q 63.625 12.0625 66.03125 8.421875 
Q 68.453125 4.78125 72.703125 4.78125 
Q 76.859375 4.78125 79.265625 8.421875 
Q 81.6875 12.0625 81.6875 18.40625 
Q 81.6875 24.8125 79.265625 28.4375 
Q 76.859375 32.078125 72.703125 32.078125 
z
M 72.703125 38.28125 
Q 80.421875 38.28125 84.953125 32.90625 
Q 89.5 27.546875 89.5 18.40625 
Q 89.5 9.28125 84.9375 3.921875 
Q 80.375 -1.421875 72.703125 -1.421875 
Q 64.890625 -1.421875 60.34375 3.921875 
Q 55.8125 9.28125 55.8125 18.40625 
Q 55.8125 27.59375 60.375 32.9375 
Q 64.9375 38.28125 72.703125 38.28125 
z
M 22.3125 68.015625 
Q 18.109375 68.015625 15.6875 64.375 
Q 13.28125 60.75 13.28125 54.390625 
Q 13.28125 47.953125 15.671875 44.328125 
Q 18.0625 40.71875 22.3125 40.71875 
Q 26.5625 40.71875 28.96875 44.328125 
Q 31.390625 47.953125 31.390625 54.390625 
Q 31.390625 60.6875 28.953125 64.34375 
Q 26.515625 68.015625 22.3125 68.015625 
z
M 66.40625 74.21875 
L 74.21875 74.21875 
L 28.609375 -1.421875 
L 20.796875 -1.421875 
z
M 22.3125 74.21875 
Q 30.03125 74.21875 34.609375 68.875 
Q 39.203125 63.53125 39.203125 54.390625 
Q 39.203125 45.171875 34.640625 39.84375 
Q 30.078125 34.515625 22.3125 34.515625 
Q 14.546875 34.515625 10.03125 39.859375 
Q 5.515625 45.21875 5.515625 54.390625 
Q 5.515625 63.484375 10.046875 68.84375 
Q 14.59375 74.21875 22.3125 74.21875 
z
" id="DejaVuSans-37"/>
      </defs>
      <use xlink:href="#DejaVuSans-84"/>
      <use x="44.083984" xlink:href="#DejaVuSans-101"/>
      <use x="105.607422" xlink:href="#DejaVuSans-115"/>
      <use x="157.707031" xlink:href="#DejaVuSans-116"/>
      <use x="196.916016" xlink:href="#DejaVuSans-32"/>
      <use x="228.703125" xlink:href="#DejaVuSans-65"/>
      <use x="295.361328" xlink:href="#DejaVuSans-99"/>
      <use x="350.341797" xlink:href="#DejaVuSans-99"/>
      <use x="405.322266" xlink:href="#DejaVuSans-117"/>
      <use x="468.701172" xlink:href="#DejaVuSans-114"/>
      <use x="509.814453" xlink:href="#DejaVuSans-97"/>
      <use x="571.09375" xlink:href="#DejaVuSans-99"/>
      <use x="626.074219" xlink:href="#DejaVuSans-121"/>
      <use x="685.253906" xlink:href="#DejaVuSans-32"/>
      <use x="717.041016" xlink:href="#DejaVuSans-40"/>
      <use x="756.054688" xlink:href="#DejaVuSans-37"/>
      <use x="851.074219" xlink:href="#DejaVuSans-41"/>
     </g>
    </g>
   </g>
   <g id="line2d_12">
    <path clip-path="url(#p7c2d8bcb35)" d="M 68.977557 250.515059 
L 71.309383 262.959433 
L 73.656474 279.551932 
L 75.99186 259.733114 
L 78.353726 223.782699 
L 80.69408 232.539851 
L 83.069013 222.860894 
L 85.501838 196.589437 
L 87.860726 163.404439 
L 90.223786 147.272843 
L 92.592093 132.984858 
L 94.976628 126.071317 
L 97.331286 133.445761 
L 99.70468 121.001386 
L 102.045857 119.157775 
L 104.424777 83.207361 
L 106.761502 94.269027 
L 109.097611 99.79986 
L 111.50475 87.355486 
L 113.854447 105.791596 
L 116.222906 103.487082 
L 118.574872 108.09611 
L 120.934124 85.972778 
L 123.291564 83.668264 
L 125.625644 86.894583 
L 127.981369 95.651735 
L 130.346777 88.738194 
L 132.697508 82.746458 
L 135.031603 78.598334 
L 137.389703 85.972778 
L 139.730906 65.232154 
L 142.091082 89.66 
L 144.447439 65.693057 
L 146.783349 61.544932 
L 149.147795 58.318613 
L 151.514285 68.919376 
L 153.856852 75.372014 
L 156.205474 62.92764 
L 158.522366 66.15396 
L 160.899926 69.841181 
L 163.242493 64.771251 
L 165.597694 72.145695 
L 167.99688 60.162224 
L 170.31703 83.207361 
L 172.656535 72.145695 
L 174.99585 62.005835 
L 177.347313 69.380279 
L 179.686939 60.162224 
L 182.022029 67.075765 
L 184.376033 75.832917 
L 186.717796 70.762987 
L 189.089784 72.145695 
L 191.460809 57.396807 
L 193.819744 57.396807 
L 196.171239 74.450209 
L 198.538659 67.536668 
L 200.878967 65.232154 
L 203.223836 53.709585 
L 205.55923 71.684792 
L 210.293113 50.944169 
L 212.653447 48.639655 
L 214.982837 48.639655 
L 217.317781 69.380279 
L 219.647124 57.396807 
L 222.028948 39.4216 
L 224.408078 50.944169 
L 226.745088 51.865974 
L 229.121173 53.248683 
L 231.459205 56.935905 
L 233.814741 58.779516 
L 236.14555 56.475002 
L 238.500486 58.779516 
L 240.8568 51.865974 
L 243.204442 60.623127 
L 245.552587 57.396807 
L 247.884539 59.240418 
L 250.213144 46.335141 
L 252.572248 57.396807 
L 254.920677 57.396807 
L 257.293094 49.100558 
L 259.625578 55.553196 
L 261.962576 56.475002 
L 264.301349 53.248683 
L 266.632085 46.335141 
L 268.969315 50.022363 
L 271.330179 43.569725 
L 273.686709 59.701321 
L 276.060907 58.318613 
L 278.412288 45.874239 
L 280.752513 49.100558 
L 283.089352 50.022363 
L 285.430604 51.865974 
L 287.78941 48.639655 
L 290.130656 44.952433 
L 292.469364 54.170488 
L 294.852296 41.726114 
L 297.204022 48.178752 
L 299.555972 43.569725 
L 301.900029 45.413336 
L 304.251827 46.335141 
L 306.582154 50.022363 
L 308.934046 51.865974 
L 311.27867 48.639655 
L 313.621529 42.187017 
L 315.961508 40.804308 
L 318.311058 38.038892 
L 320.652308 50.022363 
L 323.009359 41.726114 
L 325.34538 36.195281 
L 327.696927 40.804308 
L 330.051188 44.030628 
L 332.393038 44.030628 
L 334.740755 40.804308 
L 337.107077 43.569725 
L 339.444545 39.4216 
L 341.779992 39.882503 
L 344.132608 37.117086 
L 346.479856 45.413336 
L 348.836592 34.35167 
L 351.167649 35.273475 
L 353.533566 42.647919 
L 355.874795 30.664448 
L 358.210288 35.273475 
L 360.571534 32.968962 
L 362.907206 33.429864 
L 365.249633 31.586253 
L 367.606857 32.508059 
L 369.946594 35.273475 
L 372.304536 32.508059 
L 374.652379 32.047156 
L 376.99603 32.508059 
L 381.697717 32.508059 
L 384.028197 31.125351 
L 386.360048 36.195281 
L 388.712689 31.586253 
L 391.057069 31.125351 
L 393.397219 35.734378 
L 395.747351 35.734378 
L 398.118668 34.35167 
L 400.469004 35.273475 
L 402.821737 34.812573 
L 405.173759 32.508059 
L 407.525366 32.047156 
L 409.869779 32.508059 
L 412.216947 31.586253 
L 414.57048 32.508059 
L 416.925994 32.508059 
L 419.247685 35.273475 
L 419.247685 35.273475 
" style="fill:none;stroke:#1f77b4;stroke-linecap:square;stroke-width:1.5;"/>
   </g>
   <g id="line2d_13">
    <path clip-path="url(#p7c2d8bcb35)" d="M 68.972733 287.009194 
L 71.365096 280.596164 
L 73.719315 256.107105 
L 78.383834 211.669599 
L 80.686008 203.042076 
L 83.03343 173.126607 
L 85.393165 164.066987 
L 87.778516 124.832641 
L 90.162295 119.84913 
L 92.500678 113.857394 
L 94.844075 82.861684 
L 97.175309 89.314323 
L 99.526049 83.322587 
L 101.834017 86.83697 
L 104.158133 79.491333 
L 106.531595 83.725877 
L 108.854949 77.734141 
L 111.2104 74.36379 
L 113.583764 78.598334 
L 115.90762 70.647761 
L 118.267672 80.902847 
L 120.582367 68.199215 
L 122.934033 65.491412 
L 125.28475 69.495504 
L 127.65506 72.520179 
L 129.99464 67.882345 
L 132.316006 73.672436 
L 134.666209 77.935786 
L 137.008051 68.602505 
L 139.351317 72.865856 
L 141.689121 70.302084 
L 144.049592 75.17037 
L 146.428312 56.676647 
L 148.774662 70.647761 
L 151.157285 71.425535 
L 153.47413 72.548985 
L 155.804262 61.688964 
L 158.148981 67.104571 
L 160.478581 63.993478 
L 162.799356 68.660118 
L 165.129403 55.437971 
L 167.470844 63.763027 
L 169.818407 60.709546 
L 172.171536 63.532575 
L 174.485744 53.99765 
L 176.832491 53.306295 
L 179.196205 61.890609 
L 181.578883 55.985293 
L 183.918499 60.59432 
L 186.266795 64.310349 
L 188.622998 54.487359 
L 190.942208 56.100518 
L 193.255086 60.219837 
L 195.569368 62.322705 
L 197.915259 47.861882 
L 200.261154 57.540839 
L 202.591918 59.87416 
L 204.950498 67.565474 
L 207.327523 49.935944 
L 209.66128 56.042905 
L 211.967246 47.890688 
L 214.334769 57.972936 
L 216.680794 50.886556 
L 218.995362 56.302163 
L 221.364597 49.158171 
L 223.697227 63.158092 
L 226.048238 46.594399 
L 228.398403 51.664329 
L 230.785671 47.516205 
L 233.122747 54.804229 
L 235.437495 52.355684 
L 237.787161 53.248683 
L 240.093068 59.47087 
L 242.439517 48.898913 
L 244.767932 56.64784 
L 247.11291 52.874199 
L 249.479834 49.705493 
L 251.825557 53.536747 
L 254.186408 51.462684 
L 256.545369 54.285714 
L 258.848106 39.968922 
L 261.199961 46.047077 
L 263.586406 55.063487 
L 265.933072 48.380397 
L 268.206056 52.442103 
L 270.570855 46.277529 
L 272.90205 52.413296 
L 275.215627 60.392675 
L 277.580496 52.269264 
L 279.938639 52.38449 
L 282.289338 46.50798 
L 284.644898 46.479173 
L 287.007093 52.442103 
L 289.393917 42.878371 
L 291.736054 38.557408 
L 294.075649 43.195241 
L 296.390204 45.326917 
L 298.765165 46.450367 
L 301.109472 39.594439 
L 303.476252 46.50798 
L 305.828132 43.022403 
L 308.161245 42.907177 
L 310.503556 40.458631 
L 312.837758 45.730207 
L 315.17546 39.940116 
L 317.508292 41.409243 
L 319.850067 40.285793 
L 322.181337 36.396926 
L 324.529522 40.660276 
L 326.919283 42.273436 
L 329.244312 40.861921 
L 331.606307 43.080016 
L 333.942292 39.335181 
L 336.305804 43.108822 
L 338.62384 38.845472 
L 341.004642 42.417468 
L 343.416325 44.289885 
L 345.774731 45.413336 
L 348.114993 36.68499 
L 350.514778 40.689083 
L 352.882986 39.709664 
L 355.233422 42.820758 
L 357.547196 31.471028 
L 359.88273 38.816665 
L 362.23499 36.368119 
L 364.60563 43.022403 
L 366.956065 36.656184 
L 369.321836 33.170607 
L 371.684831 37.952473 
L 374.052031 35.87841 
L 376.38024 37.577989 
L 378.70528 32.853736 
L 381.081433 34.898992 
L 383.456357 35.96483 
L 385.784684 35.56154 
L 388.13428 35.532733 
L 390.495955 37.837247 
L 392.860619 36.108862 
L 395.220589 38.096505 
L 397.592411 31.096544 
L 399.916906 38.499795 
L 402.23772 36.829022 
L 404.593873 39.047117 
L 406.931192 34.841379 
L 409.291255 36.713797 
L 413.979581 37.001861 
L 416.322236 34.639734 
L 418.659113 36.022442 
L 418.659113 36.022442 
" style="fill:none;stroke:#ff7f0e;stroke-linecap:square;stroke-width:1.5;"/>
   </g>
   <g id="line2d_14">
    <path clip-path="url(#p7c2d8bcb35)" d="M 69.038736 281.827639 
L 71.48484 258.231579 
L 73.904729 217.027593 
L 76.319324 215.176781 
L 78.768748 172.276817 
L 81.194907 167.610177 
L 83.654827 116.161908 
L 86.068337 114.980844 
L 88.487555 90.437773 
L 90.940867 86.43368 
L 93.320692 70.042826 
L 95.741793 58.001742 
L 98.106309 81.104492 
L 100.546691 69.005795 
L 102.965341 78.828785 
L 105.380047 74.421403 
L 107.80059 65.491412 
L 110.214206 58.750709 
L 112.626689 69.927601 
L 115.033496 67.709506 
L 117.485567 70.042826 
L 119.896782 64.972896 
L 122.288838 82.516007 
L 124.730857 59.47087 
L 127.202115 61.890609 
L 129.592226 50.195202 
L 131.982034 60.363869 
L 134.379428 65.549025 
L 136.793805 52.067619 
L 139.17453 60.99761 
L 141.615265 61.717771 
L 144.065898 55.841261 
L 146.509296 65.606638 
L 148.957308 73.441984 
L 151.375823 69.063408 
L 153.73322 60.824771 
L 156.162796 53.824811 
L 158.626387 56.24455 
L 161.065169 63.071672 
L 163.460017 57.713678 
L 165.962351 60.046998 
L 168.456202 49.820718 
L 170.906749 68.660118 
L 173.395106 67.104571 
L 175.849524 64.800058 
L 178.247083 61.602545 
L 180.697376 66.211572 
L 183.12449 60.392675 
L 185.540172 63.73422 
L 187.93197 62.581963 
L 190.370037 57.022324 
L 192.816385 65.232154 
L 195.263091 60.882384 
L 197.65673 48.092333 
L 200.083007 53.882424 
L 202.500237 50.396847 
L 204.920092 53.075844 
L 207.349738 57.540839 
L 209.772472 56.302163 
L 212.211256 55.380358 
L 214.591832 57.079937 
L 216.998633 41.524469 
L 219.41328 42.417468 
L 221.865134 47.833075 
L 224.249174 50.800137 
L 226.657872 50.137589 
L 229.115491 50.915362 
L 231.504094 41.639695 
L 233.911151 45.125272 
L 236.27166 51.117007 
L 238.699265 49.475041 
L 241.111975 53.709585 
L 243.562984 51.808361 
L 245.967123 46.191109 
L 248.388912 59.153999 
L 250.855411 59.240418 
L 253.282215 43.886596 
L 255.710841 40.516244 
L 258.125643 43.310467 
L 260.527615 42.763145 
L 262.987339 58.405032 
L 265.394157 55.726035 
L 267.837662 54.890649 
L 270.259932 45.211691 
L 272.740269 49.273396 
L 275.188431 45.989464 
L 277.581358 50.77133 
L 280.015939 52.903006 
L 282.400366 44.232273 
L 284.819512 50.396847 
L 287.225139 48.380397 
L 289.679735 52.931812 
L 292.151872 52.240458 
L 294.627865 44.08824 
L 297.092875 48.380397 
L 299.467564 50.310428 
L 301.87387 42.935984 
L 304.355938 50.512073 
L 306.794137 47.170528 
L 309.208388 51.145814 
L 311.625751 46.363948 
L 314.092691 48.12114 
L 316.526658 50.022363 
L 318.999095 47.458592 
L 321.442945 45.787819 
L 323.864851 46.565593 
L 326.284086 41.322824 
L 328.699924 40.861921 
L 331.185088 47.545011 
L 333.610119 38.903085 
L 336.075427 43.022403 
L 338.5249 47.458592 
L 340.978791 35.936023 
L 343.457149 38.989504 
L 345.913227 35.993636 
L 348.355281 51.923587 
L 350.800515 35.820797 
L 353.247115 41.610888 
L 355.72572 42.705532 
L 358.145699 38.413375 
L 360.554198 38.931891 
L 362.987527 36.051249 
L 365.435379 33.429864 
L 370.270061 35.043024 
L 372.716321 34.294057 
L 375.15498 39.392794 
L 377.576899 39.82489 
L 380.000738 37.49157 
L 382.45693 34.956605 
L 384.842944 36.454539 
L 387.283484 36.656184 
L 389.694122 37.981279 
L 392.123238 38.643827 
L 394.546008 40.516244 
L 396.912842 35.47512 
L 399.383027 40.487438 
L 401.828679 38.384569 
L 404.275737 36.915441 
L 406.735554 33.861961 
L 409.141702 31.931931 
L 411.551503 30.923706 
L 413.999219 35.129443 
L 416.457443 41.466856 
L 418.838557 35.388701 
L 421.260622 31.931931 
L 423.716914 37.318731 
L 426.15042 39.047117 
L 428.581559 38.672633 
L 431.027394 40.026535 
L 431.027394 40.026535 
" style="fill:none;stroke:#2ca02c;stroke-linecap:square;stroke-width:1.5;"/>
   </g>
   <g id="patch_3">
    <path d="M 50.87 303.64 
L 50.87 10.8 
" style="fill:none;stroke:#000000;stroke-linecap:square;stroke-linejoin:miter;stroke-width:0.8;"/>
   </g>
   <g id="patch_4">
    <path d="M 449.130127 303.64 
L 449.130127 10.8 
" style="fill:none;stroke:#000000;stroke-linecap:square;stroke-linejoin:miter;stroke-width:0.8;"/>
   </g>
   <g id="patch_5">
    <path d="M 50.87 303.64 
L 449.130127 303.64 
" style="fill:none;stroke:#000000;stroke-linecap:square;stroke-linejoin:miter;stroke-width:0.8;"/>
   </g>
   <g id="patch_6">
    <path d="M 50.87 10.8 
L 449.130127 10.8 
" style="fill:none;stroke:#000000;stroke-linecap:square;stroke-linejoin:miter;stroke-width:0.8;"/>
   </g>
   <g id="legend_1">
    <g id="patch_7">
     <path d="M 360.622314 298.64 
L 442.130127 298.64 
Q 444.130127 298.64 444.130127 296.64 
L 444.130127 253.605625 
Q 444.130127 251.605625 442.130127 251.605625 
L 360.622314 251.605625 
Q 358.622314 251.605625 358.622314 253.605625 
L 358.622314 296.64 
Q 358.622314 298.64 360.622314 298.64 
z
" style="fill:#ffffff;opacity:0.8;stroke:#cccccc;stroke-linejoin:miter;"/>
    </g>
    <g id="line2d_15">
     <path d="M 362.622314 259.704062 
L 382.622314 259.704062 
" style="fill:none;stroke:#1f77b4;stroke-linecap:square;stroke-width:1.5;"/>
    </g>
    <g id="line2d_16"/>
    <g id="text_14">
     <!-- Sync-SGD -->
     <g transform="translate(390.622314 263.204062)scale(0.1 -0.1)">
      <defs>
       <path d="M 53.515625 70.515625 
L 53.515625 60.890625 
Q 47.90625 63.578125 42.921875 64.890625 
Q 37.9375 66.21875 33.296875 66.21875 
Q 25.25 66.21875 20.875 63.09375 
Q 16.5 59.96875 16.5 54.203125 
Q 16.5 49.359375 19.40625 46.890625 
Q 22.3125 44.4375 30.421875 42.921875 
L 36.375 41.703125 
Q 47.40625 39.59375 52.65625 34.296875 
Q 57.90625 29 57.90625 20.125 
Q 57.90625 9.515625 50.796875 4.046875 
Q 43.703125 -1.421875 29.984375 -1.421875 
Q 24.8125 -1.421875 18.96875 -0.25 
Q 13.140625 0.921875 6.890625 3.21875 
L 6.890625 13.375 
Q 12.890625 10.015625 18.65625 8.296875 
Q 24.421875 6.59375 29.984375 6.59375 
Q 38.421875 6.59375 43.015625 9.90625 
Q 47.609375 13.234375 47.609375 19.390625 
Q 47.609375 24.75 44.3125 27.78125 
Q 41.015625 30.8125 33.5 32.328125 
L 27.484375 33.5 
Q 16.453125 35.6875 11.515625 40.375 
Q 6.59375 45.0625 6.59375 53.421875 
Q 6.59375 63.09375 13.40625 68.65625 
Q 20.21875 74.21875 32.171875 74.21875 
Q 37.3125 74.21875 42.625 73.28125 
Q 47.953125 72.359375 53.515625 70.515625 
z
" id="DejaVuSans-83"/>
       <path d="M 54.890625 33.015625 
L 54.890625 0 
L 45.90625 0 
L 45.90625 32.71875 
Q 45.90625 40.484375 42.875 44.328125 
Q 39.84375 48.1875 33.796875 48.1875 
Q 26.515625 48.1875 22.3125 43.546875 
Q 18.109375 38.921875 18.109375 30.90625 
L 18.109375 0 
L 9.078125 0 
L 9.078125 54.6875 
L 18.109375 54.6875 
L 18.109375 46.1875 
Q 21.34375 51.125 25.703125 53.5625 
Q 30.078125 56 35.796875 56 
Q 45.21875 56 50.046875 50.171875 
Q 54.890625 44.34375 54.890625 33.015625 
z
" id="DejaVuSans-110"/>
       <path d="M 4.890625 31.390625 
L 31.203125 31.390625 
L 31.203125 23.390625 
L 4.890625 23.390625 
z
" id="DejaVuSans-45"/>
       <path d="M 59.515625 10.40625 
L 59.515625 29.984375 
L 43.40625 29.984375 
L 43.40625 38.09375 
L 69.28125 38.09375 
L 69.28125 6.78125 
Q 63.578125 2.734375 56.6875 0.65625 
Q 49.8125 -1.421875 42 -1.421875 
Q 24.90625 -1.421875 15.25 8.5625 
Q 5.609375 18.5625 5.609375 36.375 
Q 5.609375 54.25 15.25 64.234375 
Q 24.90625 74.21875 42 74.21875 
Q 49.125 74.21875 55.546875 72.453125 
Q 61.96875 70.703125 67.390625 67.28125 
L 67.390625 56.78125 
Q 61.921875 61.421875 55.765625 63.765625 
Q 49.609375 66.109375 42.828125 66.109375 
Q 29.4375 66.109375 22.71875 58.640625 
Q 16.015625 51.171875 16.015625 36.375 
Q 16.015625 21.625 22.71875 14.15625 
Q 29.4375 6.6875 42.828125 6.6875 
Q 48.046875 6.6875 52.140625 7.59375 
Q 56.25 8.5 59.515625 10.40625 
z
" id="DejaVuSans-71"/>
       <path d="M 19.671875 64.796875 
L 19.671875 8.109375 
L 31.59375 8.109375 
Q 46.6875 8.109375 53.6875 14.9375 
Q 60.6875 21.78125 60.6875 36.53125 
Q 60.6875 51.171875 53.6875 57.984375 
Q 46.6875 64.796875 31.59375 64.796875 
z
M 9.8125 72.90625 
L 30.078125 72.90625 
Q 51.265625 72.90625 61.171875 64.09375 
Q 71.09375 55.28125 71.09375 36.53125 
Q 71.09375 17.671875 61.125 8.828125 
Q 51.171875 0 30.078125 0 
L 9.8125 0 
z
" id="DejaVuSans-68"/>
      </defs>
      <use xlink:href="#DejaVuSans-83"/>
      <use x="63.476562" xlink:href="#DejaVuSans-121"/>
      <use x="122.65625" xlink:href="#DejaVuSans-110"/>
      <use x="186.035156" xlink:href="#DejaVuSans-99"/>
      <use x="241.015625" xlink:href="#DejaVuSans-45"/>
      <use x="277.099609" xlink:href="#DejaVuSans-83"/>
      <use x="340.576172" xlink:href="#DejaVuSans-71"/>
      <use x="418.066406" xlink:href="#DejaVuSans-68"/>
     </g>
    </g>
    <g id="line2d_17">
     <path d="M 362.622314 274.382187 
L 382.622314 274.382187 
" style="fill:none;stroke:#ff7f0e;stroke-linecap:square;stroke-width:1.5;"/>
    </g>
    <g id="line2d_18"/>
    <g id="text_15">
     <!-- DP-SGD -->
     <g transform="translate(390.622314 277.882187)scale(0.1 -0.1)">
      <defs>
       <path d="M 19.671875 64.796875 
L 19.671875 37.40625 
L 32.078125 37.40625 
Q 38.96875 37.40625 42.71875 40.96875 
Q 46.484375 44.53125 46.484375 51.125 
Q 46.484375 57.671875 42.71875 61.234375 
Q 38.96875 64.796875 32.078125 64.796875 
z
M 9.8125 72.90625 
L 32.078125 72.90625 
Q 44.34375 72.90625 50.609375 67.359375 
Q 56.890625 61.8125 56.890625 51.125 
Q 56.890625 40.328125 50.609375 34.8125 
Q 44.34375 29.296875 32.078125 29.296875 
L 19.671875 29.296875 
L 19.671875 0 
L 9.8125 0 
z
" id="DejaVuSans-80"/>
      </defs>
      <use xlink:href="#DejaVuSans-68"/>
      <use x="77.001953" xlink:href="#DejaVuSans-80"/>
      <use x="135.054688" xlink:href="#DejaVuSans-45"/>
      <use x="171.138672" xlink:href="#DejaVuSans-83"/>
      <use x="234.615234" xlink:href="#DejaVuSans-71"/>
      <use x="312.105469" xlink:href="#DejaVuSans-68"/>
     </g>
    </g>
    <g id="line2d_19">
     <path d="M 362.622314 289.060312 
L 382.622314 289.060312 
" style="fill:none;stroke:#2ca02c;stroke-linecap:square;stroke-width:1.5;"/>
    </g>
    <g id="line2d_20"/>
    <g id="text_16">
     <!-- EDP-SGD -->
     <g transform="translate(390.622314 292.560312)scale(0.1 -0.1)">
      <defs>
       <path d="M 9.8125 72.90625 
L 55.90625 72.90625 
L 55.90625 64.59375 
L 19.671875 64.59375 
L 19.671875 43.015625 
L 54.390625 43.015625 
L 54.390625 34.71875 
L 19.671875 34.71875 
L 19.671875 8.296875 
L 56.78125 8.296875 
L 56.78125 0 
L 9.8125 0 
z
" id="DejaVuSans-69"/>
      </defs>
      <use xlink:href="#DejaVuSans-69"/>
      <use x="63.183594" xlink:href="#DejaVuSans-68"/>
      <use x="140.185547" xlink:href="#DejaVuSans-80"/>
      <use x="198.238281" xlink:href="#DejaVuSans-45"/>
      <use x="234.322266" xlink:href="#DejaVuSans-83"/>
      <use x="297.798828" xlink:href="#DejaVuSans-71"/>
      <use x="375.289062" xlink:href="#DejaVuSans-68"/>
     </g>
    </g>
   </g>
  </g>
 </g>
 <defs>
  <clipPath id="p7c2d8bcb35">
   <rect height="292.84" width="398.260127" x="50.87" y="10.8"/>
  </clipPath>
 </defs>
</svg>
