<?xml version="1.0" encoding="utf-8" standalone="no"?>
<!DOCTYPE svg PUBLIC "-//W3C//DTD SVG 1.1//EN"
  "http://www.w3.org/Graphics/SVG/1.1/DTD/svg11.dtd">
<!-- Created with matplotlib (https://matplotlib.org/) -->
<svg height="345.6pt" version="1.1" viewBox="0 0 460.8 345.6" width="460.8pt" xmlns="http://www.w3.org/2000/svg" xmlns:xlink="http://www.w3.org/1999/xlink">
 <metadata>
  <rdf:RDF xmlns:cc="http://creativecommons.org/ns#" xmlns:dc="http://purl.org/dc/elements/1.1/" xmlns:rdf="http://www.w3.org/1999/02/22-rdf-syntax-ns#">
   <cc:Work>
    <dc:type rdf:resource="http://purl.org/dc/dcmitype/StillImage"/>
    <dc:date>2021-06-20T12:17:57.386728</dc:date>
    <dc:format>image/svg+xml</dc:format>
    <dc:creator>
     <cc:Agent>
      <dc:title>Matplotlib v3.3.1, https://matplotlib.org/</dc:title>
     </cc:Agent>
    </dc:creator>
   </cc:Work>
  </rdf:RDF>
 </metadata>
 <defs>
  <style type="text/css">*{stroke-linecap:butt;stroke-linejoin:round;}</style>
 </defs>
 <g id="figure_1">
  <g id="patch_1">
   <path d="M 0 345.6 
L 460.8 345.6 
L 460.8 0 
L 0 0 
z
" style="fill:#ffffff;"/>
  </g>
  <g id="axes_1">
   <g id="patch_2">
    <path d="M 50.87 303.64 
L 450 303.64 
L 450 10.8 
L 50.87 10.8 
z
" style="fill:#ffffff;"/>
   </g>
   <g id="PolyCollection_1">
    <path clip-path="url(#p2bafb3fbb7)" d="M 69.068714 255.72357 
L 69.068714 290.329091 
L 71.506596 266.096122 
L 73.947177 252.603862 
L 76.380852 239.315563 
L 78.824743 196.979054 
L 81.25814 209.72304 
L 83.694356 189.317654 
L 86.129387 183.727612 
L 88.551411 180.265213 
L 90.988304 146.882686 
L 93.417901 142.33236 
L 95.846511 134.709666 
L 98.285902 133.527756 
L 100.710429 131.626878 
L 103.144365 152.709252 
L 105.594612 120.101395 
L 108.036252 130.177142 
L 110.47572 109.614027 
L 112.918059 104.258971 
L 115.340438 126.611216 
L 117.781726 114.372087 
L 120.220574 111.684364 
L 122.66041 82.620605 
L 125.098541 89.649591 
L 127.543126 91.829239 
L 129.973054 100.38229 
L 132.399866 122.08463 
L 134.832963 71.397044 
L 137.258644 90.360445 
L 139.694097 110.392839 
L 142.130177 85.394526 
L 144.558701 98.500284 
L 146.995651 78.137167 
L 149.433406 86.352408 
L 151.870261 78.968128 
L 154.311191 73.725453 
L 156.749039 85.377254 
L 159.200173 67.556693 
L 161.651889 62.004482 
L 164.093679 84.522258 
L 166.540043 64.733182 
L 168.97962 72.047026 
L 171.42509 81.971084 
L 173.870263 76.804133 
L 176.317496 102.174656 
L 178.769892 72.287478 
L 181.219229 75.819877 
L 183.663518 85.620264 
L 186.103726 75.263877 
L 188.553898 64.231114 
L 190.995871 78.269381 
L 193.437104 77.508234 
L 195.885367 50.134025 
L 198.337708 53.554632 
L 200.781406 90.272736 
L 203.224012 68.0952 
L 205.666116 78.788424 
L 208.114416 78.866762 
L 210.563914 69.370339 
L 213.007185 73.262607 
L 215.449802 76.831405 
L 217.901122 60.950493 
L 220.342781 80.394063 
L 222.787104 66.1723 
L 225.22659 74.318989 
L 227.672828 51.599352 
L 230.119235 60.742829 
L 232.570795 59.895433 
L 235.019556 84.72412 
L 237.462418 71.365937 
L 239.912078 56.409517 
L 242.356899 73.752364 
L 244.802425 51.194629 
L 247.244536 68.791783 
L 249.687793 67.363954 
L 252.139782 57.004046 
L 254.580537 67.289332 
L 257.027222 55.010802 
L 259.468842 52.326435 
L 261.918608 67.110379 
L 264.365047 64.809121 
L 266.811008 52.256039 
L 269.258565 70.457151 
L 271.714476 67.236825 
L 274.152586 67.716278 
L 276.590746 60.834 
L 279.023018 47.622204 
L 281.457537 54.955546 
L 283.900164 68.235837 
L 286.336159 54.517359 
L 288.769407 51.52834 
L 291.211411 56.799967 
L 293.639459 66.322978 
L 296.083063 47.737514 
L 298.519072 49.360737 
L 300.957365 48.754243 
L 303.383397 50.176067 
L 305.82857 63.551272 
L 308.271279 53.554632 
L 310.697881 47.392652 
L 313.137826 50.813112 
L 315.564003 62.891147 
L 318.002976 47.647526 
L 320.440986 56.735381 
L 322.872791 46.231683 
L 325.311925 54.438095 
L 327.758199 44.723354 
L 330.19328 55.46219 
L 332.634184 52.440114 
L 335.078553 48.889473 
L 337.519796 49.414452 
L 339.957836 49.904327 
L 342.403162 44.102372 
L 344.841022 48.326344 
L 347.26558 49.188244 
L 349.70291 36.287707 
L 352.14186 39.233679 
L 354.573169 42.256396 
L 357.008427 50.220254 
L 359.436638 47.459877 
L 361.879229 44.92117 
L 364.306442 41.132399 
L 366.744066 43.168184 
L 369.176211 41.725257 
L 371.60945 42.511497 
L 374.047284 35.072005 
L 376.488445 34.105731 
L 378.916328 33.877317 
L 381.348021 37.55908 
L 383.751648 36.262385 
L 386.161179 33.106958 
L 388.56586 34.689751 
L 390.970379 33.015152 
L 393.375731 32.417787 
L 395.781688 35.666666 
L 398.183533 33.990421 
L 400.591978 34.105731 
L 402.992885 34.105731 
L 405.393703 31.963395 
L 407.799825 31.963395 
L 410.205411 31.963395 
L 412.614215 31.963395 
L 415.024903 31.963395 
L 417.427205 31.963395 
L 419.833662 34.105731 
L 422.241719 35.014517 
L 424.644674 34.015744 
L 427.045677 35.287116 
L 429.4534 31.963395 
L 431.857727 31.963395 
L 431.857727 25.162667 
L 431.857727 25.162667 
L 429.4534 25.162667 
L 427.045677 26.382873 
L 424.644674 26.74546 
L 422.241719 25.746687 
L 419.833662 24.837901 
L 417.427205 25.162667 
L 415.024903 25.162667 
L 412.614215 25.162667 
L 410.205411 25.162667 
L 407.799825 25.162667 
L 405.393703 25.162667 
L 402.992885 24.837901 
L 400.591978 24.837901 
L 398.183533 25.861997 
L 395.781688 29.638465 
L 393.375731 25.617059 
L 390.970379 24.110909 
L 388.56586 27.889023 
L 386.161179 29.471816 
L 383.751648 28.13396 
L 381.348021 28.654837 
L 378.916328 25.066315 
L 376.488445 24.837901 
L 374.047284 29.324341 
L 371.60945 29.155132 
L 369.176211 28.123801 
L 366.744066 30.316016 
L 364.306442 30.53423 
L 361.879229 30.380602 
L 359.436638 27.841894 
L 357.008427 39.622085 
L 354.573169 32.136589 
L 352.14186 32.432951 
L 349.70291 29.017423 
L 347.26558 31.56624 
L 344.841022 29.701784 
L 342.403162 34.834542 
L 339.957836 36.302871 
L 337.519796 33.157603 
L 335.078553 33.682583 
L 332.634184 35.584654 
L 330.19328 46.19436 
L 327.758199 32.395988 
L 325.311925 46.30967 
L 322.872791 34.522801 
L 320.440986 42.194813 
L 318.002976 40.377242 
L 315.564003 46.035687 
L 313.137826 37.211656 
L 310.697881 30.635476 
L 308.271279 46.284348 
L 305.82857 38.105278 
L 303.383397 37.848701 
L 300.957365 32.909027 
L 298.519072 39.572817 
L 296.083063 38.469684 
L 293.639459 43.512643 
L 291.211411 43.947799 
L 288.769407 31.952501 
L 286.336159 35.32498 
L 283.900164 53.413994 
L 281.457537 43.974649 
L 279.023018 39.493779 
L 276.590746 38.096194 
L 274.152586 45.754484 
L 271.714476 34.419726 
L 269.258565 61.189321 
L 266.811008 39.403871 
L 264.365047 41.391357 
L 261.918608 48.177954 
L 259.468842 38.42469 
L 257.027222 39.375465 
L 254.580537 37.093575 
L 252.139782 38.291007 
L 249.687793 49.74195 
L 247.244536 44.678979 
L 244.802425 39.556496 
L 242.356899 53.35018 
L 239.912078 43.429463 
L 237.462418 62.098107 
L 235.019556 66.915634 
L 232.570795 49.940187 
L 230.119235 38.187366 
L 227.672828 38.242987 
L 225.22659 60.962625 
L 222.787104 42.754535 
L 220.342781 53.06998 
L 217.901122 36.16213 
L 215.449802 56.632638 
L 213.007185 51.113582 
L 210.563914 57.732206 
L 208.114416 52.77971 
L 205.666116 54.67562 
L 203.224012 51.737061 
L 200.781406 66.81973 
L 198.337708 40.831635 
L 195.885367 46.069813 
L 193.437104 56.864595 
L 190.995871 60.647376 
L 188.553898 34.699081 
L 186.103726 59.108952 
L 183.663518 60.566777 
L 181.219229 54.009025 
L 178.769892 52.088711 
L 176.317496 69.458378 
L 173.870263 54.842339 
L 171.42509 60.580814 
L 168.97962 58.690661 
L 166.540043 47.828795 
L 164.093679 63.482353 
L 161.651889 44.195996 
L 159.200173 50.457996 
L 156.749039 71.715212 
L 154.311191 56.103448 
L 151.870261 53.58713 
L 149.433406 63.469774 
L 146.995651 59.870804 
L 144.558701 72.223965 
L 142.130177 66.245227 
L 139.694097 83.959832 
L 137.258644 75.819877 
L 134.832963 59.340642 
L 132.399866 84.991039 
L 129.973054 83.973741 
L 127.543126 64.354442 
L 125.098541 73.804374 
L 122.66041 69.019149 
L 120.220574 99.026447 
L 117.781726 85.433298 
L 115.340438 87.734737 
L 112.918059 84.640988 
L 110.47572 87.465002 
L 108.036252 87.803953 
L 105.594612 98.788486 
L 103.144365 127.069257 
L 100.710429 94.533286 
L 98.285902 104.44662 
L 95.846511 117.805278 
L 93.417901 112.000155 
L 90.988304 129.260681 
L 88.551411 129.503218 
L 86.129387 139.672601 
L 83.694356 166.798837 
L 81.25814 180.9273 
L 78.824743 178.221933 
L 76.380852 224.946403 
L 73.947177 236.195312 
L 71.506596 248.149046 
L 69.068714 255.72357 
z
" style="fill:#1f77b4;fill-opacity:0.25;"/>
   </g>
   <g id="PolyCollection_2">
    <path clip-path="url(#p2bafb3fbb7)" d="M 69.012273 253.185522 
L 69.012273 271.595878 
L 71.082096 261.635691 
L 73.069522 257.366446 
L 75.025719 279.052589 
L 76.970266 215.23525 
L 78.897035 209.683949 
L 80.821933 204.334253 
L 82.744901 185.152306 
L 84.675381 174.292603 
L 86.600036 165.870053 
L 88.532614 165.693413 
L 90.45988 150.532732 
L 92.392429 142.115479 
L 94.32018 140.103545 
L 96.246247 138.494392 
L 98.176328 122.77263 
L 100.105249 123.255314 
L 102.029066 125.820588 
L 103.963473 104.599875 
L 105.894002 111.764986 
L 107.823042 104.90918 
L 109.742907 106.770559 
L 111.678184 103.625118 
L 113.60086 113.462231 
L 115.529788 87.676817 
L 117.451243 95.327719 
L 119.377346 109.001753 
L 121.300606 99.025969 
L 123.226836 100.079714 
L 125.151158 93.211828 
L 127.08472 99.733039 
L 129.014131 106.109866 
L 130.941331 93.996074 
L 132.868924 83.084616 
L 134.801414 87.129026 
L 136.724504 98.412243 
L 138.65261 92.088459 
L 140.576153 86.458759 
L 142.502268 97.678524 
L 144.42177 109.772362 
L 146.355018 99.743123 
L 148.287646 76.156437 
L 150.221171 92.180761 
L 152.145712 79.711967 
L 154.070214 94.620178 
L 155.99084 89.279325 
L 157.918227 98.143671 
L 159.841455 82.31429 
L 161.771566 74.727709 
L 163.691988 78.77711 
L 165.617628 85.541804 
L 167.535361 83.140029 
L 169.470486 85.270382 
L 171.392536 75.394366 
L 173.314064 85.125565 
L 175.233569 80.778074 
L 177.158561 83.110667 
L 179.086027 75.738894 
L 181.012132 68.854594 
L 182.927201 66.31419 
L 184.841908 85.793245 
L 186.777313 73.914723 
L 188.702552 76.726633 
L 190.626294 87.491032 
L 192.552071 86.861256 
L 194.477182 89.858597 
L 196.398885 77.802493 
L 198.317259 77.547569 
L 200.252856 68.049457 
L 202.185514 68.064117 
L 204.106705 66.920286 
L 206.023564 73.572818 
L 207.954069 63.793683 
L 209.879867 91.632249 
L 211.809356 70.608061 
L 213.723509 68.02002 
L 215.656091 74.178229 
L 217.58221 70.141154 
L 219.501614 75.242525 
L 221.419779 82.431525 
L 223.345821 87.02691 
L 225.276267 69.221734 
L 227.205647 73.926351 
L 229.127821 56.253123 
L 231.04956 68.309669 
L 232.977145 71.769877 
L 234.906641 58.486879 
L 236.837562 69.60635 
L 238.763222 68.698478 
L 240.688549 76.273976 
L 242.623429 58.997716 
L 244.552307 67.603326 
L 246.471226 73.318071 
L 248.387917 79.417932 
L 250.326685 65.629473 
L 252.249933 77.958359 
L 254.187597 63.90241 
L 256.119564 51.16001 
L 258.038201 56.830838 
L 259.9615 66.258309 
L 261.889855 65.469932 
L 263.81327 72.189007 
L 265.735981 68.289967 
L 267.653572 74.53413 
L 269.575697 66.850533 
L 271.498864 66.391009 
L 273.420995 68.825992 
L 275.350212 61.842668 
L 277.276678 64.763837 
L 279.196198 63.223071 
L 281.12425 57.095473 
L 283.046932 47.341123 
L 284.966003 52.867621 
L 286.887939 61.944196 
L 288.824882 69.240677 
L 290.749427 57.956562 
L 292.678942 56.60577 
L 294.601424 53.00309 
L 296.535227 53.439553 
L 298.464166 51.4908 
L 300.38412 43.006884 
L 302.30139 57.143984 
L 304.226466 47.081533 
L 306.156613 45.480961 
L 308.083886 53.204644 
L 310.010158 49.873625 
L 311.934295 49.115381 
L 313.857384 54.279419 
L 315.784428 43.013032 
L 317.707553 54.802663 
L 319.636769 45.989152 
L 321.564033 50.055234 
L 323.484711 51.667586 
L 325.413903 50.534427 
L 327.34044 53.885459 
L 329.266608 48.698649 
L 331.192367 47.365831 
L 333.115405 43.410778 
L 335.041938 43.46369 
L 336.959759 50.098403 
L 338.882412 46.880984 
L 340.805508 43.0874 
L 342.73068 43.0874 
L 344.650015 44.620361 
L 346.577838 44.054607 
L 348.508227 40.925091 
L 350.429447 47.407851 
L 352.355272 39.27531 
L 354.28008 42.050954 
L 356.210044 42.939445 
L 356.210044 34.407094 
L 356.210044 34.407094 
L 354.28008 33.818808 
L 352.355272 32.845712 
L 350.429447 31.585862 
L 348.508227 35.739859 
L 346.577838 34.939105 
L 344.650015 30.965405 
L 342.73068 32.498367 
L 340.805508 32.498367 
L 338.882412 30.465555 
L 336.959759 31.621666 
L 335.041938 31.156492 
L 333.115405 34.446952 
L 331.192367 37.194193 
L 329.266608 36.826959 
L 327.34044 36.01368 
L 325.413903 34.991181 
L 323.484711 33.801223 
L 321.564033 32.005629 
L 319.636769 32.606967 
L 317.707553 36.06206 
L 315.784428 35.35589 
L 313.857384 38.459674 
L 311.934295 40.897355 
L 310.010158 43.887852 
L 308.083886 36.808092 
L 306.156613 36.636702 
L 304.226466 39.40966 
L 302.30139 38.378265 
L 300.38412 32.862878 
L 298.464166 38.521936 
L 296.535227 38.731549 
L 294.601424 38.03203 
L 292.678942 31.589396 
L 290.749427 38.417673 
L 288.824882 53.772333 
L 286.887939 47.039438 
L 284.966003 37.997102 
L 283.046932 37.105302 
L 281.12425 44.788274 
L 279.196198 39.001471 
L 277.276678 40.527856 
L 275.350212 46.175381 
L 273.420995 50.040684 
L 271.498864 44.239799 
L 269.575697 40.088333 
L 267.653572 54.499584 
L 265.735981 52.280682 
L 263.81327 54.629542 
L 261.889855 49.364008 
L 259.9615 44.486097 
L 258.038201 45.734498 
L 256.119564 28.912885 
L 254.187597 42.525265 
L 252.249933 60.049612 
L 250.326685 40.627805 
L 248.387917 61.600391 
L 246.471226 58.385201 
L 244.552307 49.672976 
L 242.623429 43.510821 
L 240.688549 48.783801 
L 238.763222 53.235349 
L 236.837562 46.647568 
L 234.906641 42.147289 
L 232.977145 49.595959 
L 231.04956 49.818619 
L 229.127821 48.697776 
L 227.205647 48.177874 
L 225.276267 59.414387 
L 223.345821 67.225602 
L 221.419779 43.932632 
L 219.501614 53.279997 
L 217.58221 51.792673 
L 215.656091 57.241047 
L 213.723509 56.015374 
L 211.809356 47.577026 
L 209.879867 62.904258 
L 207.954069 59.219327 
L 206.023564 51.882553 
L 204.106705 48.936039 
L 202.185514 43.418677 
L 200.252856 47.977265 
L 198.317259 57.734045 
L 196.398885 65.601392 
L 194.477182 71.550601 
L 192.552071 65.119292 
L 190.626294 69.203841 
L 188.702552 50.091916 
L 186.777313 58.35654 
L 184.841908 70.844829 
L 182.927201 58.005199 
L 181.012132 50.864069 
L 179.086027 64.257045 
L 177.158561 68.813082 
L 175.233569 61.319431 
L 173.314064 67.820567 
L 171.392536 60.341641 
L 169.470486 70.118112 
L 167.535361 66.738953 
L 165.617628 60.247643 
L 163.691988 63.433994 
L 161.771566 58.96353 
L 159.841455 65.008733 
L 157.918227 69.115833 
L 155.99084 81.785718 
L 154.070214 74.343299 
L 152.145712 63.010329 
L 150.221171 61.333362 
L 148.287646 67.588242 
L 146.355018 77.683419 
L 144.42177 82.70594 
L 142.502268 82.190379 
L 140.576153 61.71625 
L 138.65261 72.103894 
L 136.724504 77.367125 
L 134.801414 67.123485 
L 132.868924 67.816749 
L 130.941331 69.173895 
L 129.014131 73.475042 
L 127.08472 78.034298 
L 125.151158 59.961501 
L 123.226836 78.766805 
L 121.300606 75.901413 
L 119.377346 83.078955 
L 117.451243 80.39485 
L 115.529788 64.303731 
L 113.60086 84.809579 
L 111.678184 83.116476 
L 109.742907 88.718095 
L 107.823042 80.014843 
L 105.894002 80.315722 
L 103.963473 89.184806 
L 102.029066 104.429111 
L 100.105249 98.247324 
L 98.176328 112.077796 
L 96.246247 106.579871 
L 94.32018 119.056893 
L 92.392429 126.644006 
L 90.45988 132.256129 
L 88.532614 136.747935 
L 86.600036 135.548911 
L 84.675381 134.226247 
L 82.744901 168.408226 
L 80.821933 161.154089 
L 78.897035 177.444847 
L 76.970266 176.579471 
L 75.025719 192.138867 
L 73.069522 240.151389 
L 71.082096 244.047014 
L 69.012273 253.185522 
z
" style="fill:#ff7f0e;fill-opacity:0.25;"/>
   </g>
   <g id="PolyCollection_3">
    <path clip-path="url(#p2bafb3fbb7)" d="M 69.106051 240.140521 
L 69.106051 266.578768 
L 71.254232 241.253516 
L 73.315747 279.871548 
L 75.336311 207.719371 
L 77.34063 211.666326 
L 79.33449 183.926072 
L 81.315717 183.965334 
L 83.301251 172.990442 
L 85.285673 152.249756 
L 87.267294 152.918695 
L 89.256985 131.935302 
L 91.242784 116.813012 
L 93.222145 117.201824 
L 95.208393 107.108727 
L 97.186176 98.935862 
L 99.166352 105.498306 
L 101.149423 85.929538 
L 103.129768 96.837868 
L 105.114237 84.367159 
L 107.096264 77.867458 
L 109.068339 95.923619 
L 111.046443 82.465371 
L 113.022897 91.332926 
L 115.008761 69.20335 
L 116.98527 73.358979 
L 118.973126 69.50462 
L 120.945454 85.155122 
L 122.926071 79.551031 
L 124.904632 78.284519 
L 126.884549 73.587675 
L 128.858825 74.228171 
L 130.842121 70.515701 
L 132.817445 74.099504 
L 134.793231 76.260828 
L 136.771022 68.630516 
L 138.749392 72.199962 
L 140.726293 69.094404 
L 142.70524 68.493803 
L 144.679885 78.382026 
L 146.658172 77.324667 
L 148.634437 71.942352 
L 150.615464 66.540386 
L 152.592702 67.874648 
L 154.566279 71.664843 
L 156.536287 77.537281 
L 158.513303 73.618775 
L 160.48908 66.973399 
L 162.46503 74.801842 
L 164.445009 74.630661 
L 166.425138 67.295413 
L 168.401934 79.31001 
L 170.378682 65.113247 
L 172.353384 64.160927 
L 174.331632 59.784235 
L 176.31032 67.641815 
L 178.289311 61.634122 
L 180.267074 69.790777 
L 182.245963 59.074698 
L 184.220058 73.119044 
L 186.192781 63.592608 
L 188.172806 54.152967 
L 190.152637 63.686122 
L 192.130748 69.009658 
L 194.108806 60.852092 
L 196.0849 53.524676 
L 198.062946 66.545246 
L 200.042902 70.070725 
L 202.021126 57.005642 
L 204.001377 59.633164 
L 205.980397 57.841453 
L 207.95833 59.657467 
L 209.936282 65.392639 
L 211.916373 56.922638 
L 213.89387 51.977698 
L 215.873414 58.755175 
L 217.850445 58.781709 
L 219.832351 57.465396 
L 221.81323 58.762777 
L 223.791271 67.920468 
L 225.77395 58.570966 
L 227.753756 62.06005 
L 229.73219 53.737421 
L 231.712048 59.100767 
L 233.690122 53.624584 
L 235.672842 50.098894 
L 237.65478 51.945939 
L 239.632516 56.80573 
L 241.611738 49.075835 
L 243.592603 56.683022 
L 245.569811 52.029624 
L 247.549246 54.403948 
L 249.527131 59.46852 
L 251.507467 62.442346 
L 253.485058 55.667441 
L 255.464903 49.662077 
L 257.442032 63.122162 
L 259.420422 51.378467 
L 261.40171 56.092314 
L 263.382377 50.88183 
L 265.361351 48.934438 
L 267.342779 46.723436 
L 269.321522 49.918051 
L 271.303619 61.195007 
L 273.286753 51.133948 
L 275.272847 49.339422 
L 277.245683 49.012804 
L 279.22667 49.745197 
L 281.211582 44.003158 
L 283.196274 41.033811 
L 285.174413 46.835988 
L 287.155188 45.350774 
L 289.130071 39.161407 
L 291.109559 41.821862 
L 293.092721 42.693412 
L 295.068912 40.780291 
L 297.047611 39.998091 
L 299.027144 48.158437 
L 301.004987 41.690083 
L 302.980735 46.268488 
L 304.963099 37.09974 
L 306.942676 40.570941 
L 308.921603 38.152593 
L 310.905385 38.868637 
L 312.880341 42.651139 
L 314.858108 36.846848 
L 316.83932 41.28819 
L 318.819058 39.062527 
L 320.797187 38.584863 
L 322.77422 45.570301 
L 324.750532 37.328521 
L 326.731573 44.323415 
L 328.711546 35.974273 
L 330.687688 43.121531 
L 332.667941 35.419184 
L 334.64539 45.385382 
L 336.625534 35.696662 
L 338.602796 44.135171 
L 340.580213 35.254378 
L 342.556803 35.128055 
L 344.529318 41.708566 
L 346.510085 42.098971 
L 348.49213 36.568796 
L 350.47106 35.998577 
L 352.449401 44.880158 
L 354.429627 36.269993 
L 356.40813 37.176258 
L 358.386602 36.757494 
L 360.364938 35.836415 
L 362.340734 44.575518 
L 364.316483 36.776874 
L 364.316483 28.92585 
L 364.316483 28.92585 
L 362.340734 26.977513 
L 360.364938 25.947172 
L 358.386602 27.468454 
L 356.40813 26.992891 
L 354.429627 27.955955 
L 352.449401 25.707288 
L 350.47106 26.580198 
L 348.49213 26.861965 
L 346.510085 27.636489 
L 344.529318 24.902944 
L 342.556803 29.495486 
L 340.580213 27.381196 
L 338.602796 25.429892 
L 336.625534 26.938912 
L 334.64539 25.088466 
L 332.667941 26.364403 
L 330.687688 27.18192 
L 328.711546 28.990063 
L 326.731573 28.365598 
L 324.750532 31.270957 
L 322.77422 26.493922 
L 320.797187 28.026647 
L 318.819058 28.912161 
L 316.83932 32.707202 
L 314.858108 31.752631 
L 312.880341 28.049905 
L 310.905385 30.639627 
L 308.921603 33.059643 
L 306.942676 33.140456 
L 304.963099 32.294926 
L 302.980735 33.520412 
L 301.004987 27.079793 
L 299.027144 33.788828 
L 297.047611 34.338096 
L 295.068912 36.339052 
L 293.092721 32.778756 
L 291.109559 36.887855 
L 289.130071 35.685971 
L 287.155188 35.744504 
L 285.174413 36.247259 
L 283.196274 32.677585 
L 281.211582 34.308965 
L 279.22667 36.291603 
L 277.245683 39.409557 
L 275.272847 34.993405 
L 273.286753 41.661944 
L 271.303619 39.609558 
L 269.321522 37.027535 
L 267.342779 37.779788 
L 265.361351 39.715121 
L 263.382377 39.698898 
L 261.40171 39.827529 
L 259.420422 45.052567 
L 257.442032 42.169531 
L 255.464903 37.681102 
L 253.485058 46.329905 
L 251.507467 48.642854 
L 249.527131 46.61836 
L 247.549246 46.855009 
L 245.569811 46.843771 
L 243.592603 45.598319 
L 241.611738 43.54966 
L 239.632516 41.613273 
L 237.65478 38.975583 
L 235.672842 42.299404 
L 233.690122 41.102477 
L 231.712048 51.246045 
L 229.73219 42.920809 
L 227.753756 41.584469 
L 225.77395 42.971987 
L 223.791271 50.435017 
L 221.81323 51.072843 
L 219.832351 40.328817 
L 217.850445 48.441153 
L 215.873414 52.159628 
L 213.89387 47.463688 
L 211.916373 43.65473 
L 209.936282 53.133242 
L 207.95833 45.463829 
L 205.980397 49.835802 
L 204.001377 47.873694 
L 202.021126 47.036471 
L 200.042902 45.388006 
L 198.062946 49.424676 
L 196.0849 45.235121 
L 194.108806 45.689181 
L 192.130748 40.996359 
L 190.152637 46.0927 
L 188.172806 45.85641 
L 186.192781 50.673342 
L 184.220058 54.60829 
L 182.245963 45.30821 
L 180.267074 54.812607 
L 178.289311 51.609444 
L 176.31032 58.83594 
L 174.331632 51.471362 
L 172.353384 55.33054 
L 170.378682 56.706982 
L 168.401934 50.916485 
L 166.425138 59.409538 
L 164.445009 48.836742 
L 162.46503 67.750057 
L 160.48908 56.323607 
L 158.513303 60.35646 
L 156.536287 64.673823 
L 154.566279 64.071164 
L 152.592702 52.696001 
L 150.615464 54.143862 
L 148.634437 63.566459 
L 146.658172 54.321805 
L 144.679885 58.830758 
L 142.70524 56.507175 
L 140.726293 59.200922 
L 138.749392 50.415455 
L 136.771022 52.224129 
L 134.793231 57.373613 
L 132.817445 56.410986 
L 130.842121 58.915607 
L 128.858825 63.325407 
L 126.884549 62.716323 
L 124.904632 63.131398 
L 122.926071 64.250447 
L 120.945454 73.073326 
L 118.973126 62.028254 
L 116.98527 64.76259 
L 115.008761 60.68235 
L 113.022897 73.200221 
L 111.046443 71.105552 
L 109.068339 67.643944 
L 107.096264 64.968435 
L 105.114237 68.749371 
L 103.129768 72.920796 
L 101.149423 78.944404 
L 99.166352 78.687328 
L 97.186176 82.750612 
L 95.208393 83.949597 
L 93.222145 96.860134 
L 91.242784 103.667243 
L 89.256985 113.706952 
L 87.267294 129.074979 
L 85.285673 132.015881 
L 83.301251 134.136831 
L 81.315717 136.87892 
L 79.33449 151.913143 
L 77.34063 179.722402 
L 75.336311 190.684045 
L 73.315747 207.42245 
L 71.254232 226.955987 
L 69.106051 240.140521 
z
" style="fill:#2ca02c;fill-opacity:0.25;"/>
   </g>
   <g id="matplotlib.axis_1">
    <g id="xtick_1">
     <g id="line2d_1">
      <defs>
       <path d="M 0 0 
L 0 3.5 
" id="m4c9b803deb" style="stroke:#000000;stroke-width:0.8;"/>
      </defs>
      <g>
       <use style="stroke:#000000;stroke-width:0.8;" x="66.568738" xlink:href="#m4c9b803deb" y="303.64"/>
      </g>
     </g>
     <g id="text_1">
      <!-- 0 -->
      <g transform="translate(63.387488 318.238437)scale(0.1 -0.1)">
       <defs>
        <path d="M 31.78125 66.40625 
Q 24.171875 66.40625 20.328125 58.90625 
Q 16.5 51.421875 16.5 36.375 
Q 16.5 21.390625 20.328125 13.890625 
Q 24.171875 6.390625 31.78125 6.390625 
Q 39.453125 6.390625 43.28125 13.890625 
Q 47.125 21.390625 47.125 36.375 
Q 47.125 51.421875 43.28125 58.90625 
Q 39.453125 66.40625 31.78125 66.40625 
z
M 31.78125 74.21875 
Q 44.046875 74.21875 50.515625 64.515625 
Q 56.984375 54.828125 56.984375 36.375 
Q 56.984375 17.96875 50.515625 8.265625 
Q 44.046875 -1.421875 31.78125 -1.421875 
Q 19.53125 -1.421875 13.0625 8.265625 
Q 6.59375 17.96875 6.59375 36.375 
Q 6.59375 54.828125 13.0625 64.515625 
Q 19.53125 74.21875 31.78125 74.21875 
z
" id="DejaVuSans-48"/>
       </defs>
       <use xlink:href="#DejaVuSans-48"/>
      </g>
     </g>
    </g>
    <g id="xtick_2">
     <g id="line2d_2">
      <g>
       <use style="stroke:#000000;stroke-width:0.8;" x="115.960649" xlink:href="#m4c9b803deb" y="303.64"/>
      </g>
     </g>
     <g id="text_2">
      <!-- 2000 -->
      <g transform="translate(103.235649 318.238437)scale(0.1 -0.1)">
       <defs>
        <path d="M 19.1875 8.296875 
L 53.609375 8.296875 
L 53.609375 0 
L 7.328125 0 
L 7.328125 8.296875 
Q 12.9375 14.109375 22.625 23.890625 
Q 32.328125 33.6875 34.8125 36.53125 
Q 39.546875 41.84375 41.421875 45.53125 
Q 43.3125 49.21875 43.3125 52.78125 
Q 43.3125 58.59375 39.234375 62.25 
Q 35.15625 65.921875 28.609375 65.921875 
Q 23.96875 65.921875 18.8125 64.3125 
Q 13.671875 62.703125 7.8125 59.421875 
L 7.8125 69.390625 
Q 13.765625 71.78125 18.9375 73 
Q 24.125 74.21875 28.421875 74.21875 
Q 39.75 74.21875 46.484375 68.546875 
Q 53.21875 62.890625 53.21875 53.421875 
Q 53.21875 48.921875 51.53125 44.890625 
Q 49.859375 40.875 45.40625 35.40625 
Q 44.1875 33.984375 37.640625 27.21875 
Q 31.109375 20.453125 19.1875 8.296875 
z
" id="DejaVuSans-50"/>
       </defs>
       <use xlink:href="#DejaVuSans-50"/>
       <use x="63.623047" xlink:href="#DejaVuSans-48"/>
       <use x="127.246094" xlink:href="#DejaVuSans-48"/>
       <use x="190.869141" xlink:href="#DejaVuSans-48"/>
      </g>
     </g>
    </g>
    <g id="xtick_3">
     <g id="line2d_3">
      <g>
       <use style="stroke:#000000;stroke-width:0.8;" x="165.352559" xlink:href="#m4c9b803deb" y="303.64"/>
      </g>
     </g>
     <g id="text_3">
      <!-- 4000 -->
      <g transform="translate(152.627559 318.238437)scale(0.1 -0.1)">
       <defs>
        <path d="M 37.796875 64.3125 
L 12.890625 25.390625 
L 37.796875 25.390625 
z
M 35.203125 72.90625 
L 47.609375 72.90625 
L 47.609375 25.390625 
L 58.015625 25.390625 
L 58.015625 17.1875 
L 47.609375 17.1875 
L 47.609375 0 
L 37.796875 0 
L 37.796875 17.1875 
L 4.890625 17.1875 
L 4.890625 26.703125 
z
" id="DejaVuSans-52"/>
       </defs>
       <use xlink:href="#DejaVuSans-52"/>
       <use x="63.623047" xlink:href="#DejaVuSans-48"/>
       <use x="127.246094" xlink:href="#DejaVuSans-48"/>
       <use x="190.869141" xlink:href="#DejaVuSans-48"/>
      </g>
     </g>
    </g>
    <g id="xtick_4">
     <g id="line2d_4">
      <g>
       <use style="stroke:#000000;stroke-width:0.8;" x="214.744469" xlink:href="#m4c9b803deb" y="303.64"/>
      </g>
     </g>
     <g id="text_4">
      <!-- 6000 -->
      <g transform="translate(202.019469 318.238437)scale(0.1 -0.1)">
       <defs>
        <path d="M 33.015625 40.375 
Q 26.375 40.375 22.484375 35.828125 
Q 18.609375 31.296875 18.609375 23.390625 
Q 18.609375 15.53125 22.484375 10.953125 
Q 26.375 6.390625 33.015625 6.390625 
Q 39.65625 6.390625 43.53125 10.953125 
Q 47.40625 15.53125 47.40625 23.390625 
Q 47.40625 31.296875 43.53125 35.828125 
Q 39.65625 40.375 33.015625 40.375 
z
M 52.59375 71.296875 
L 52.59375 62.3125 
Q 48.875 64.0625 45.09375 64.984375 
Q 41.3125 65.921875 37.59375 65.921875 
Q 27.828125 65.921875 22.671875 59.328125 
Q 17.53125 52.734375 16.796875 39.40625 
Q 19.671875 43.65625 24.015625 45.921875 
Q 28.375 48.1875 33.59375 48.1875 
Q 44.578125 48.1875 50.953125 41.515625 
Q 57.328125 34.859375 57.328125 23.390625 
Q 57.328125 12.15625 50.6875 5.359375 
Q 44.046875 -1.421875 33.015625 -1.421875 
Q 20.359375 -1.421875 13.671875 8.265625 
Q 6.984375 17.96875 6.984375 36.375 
Q 6.984375 53.65625 15.1875 63.9375 
Q 23.390625 74.21875 37.203125 74.21875 
Q 40.921875 74.21875 44.703125 73.484375 
Q 48.484375 72.75 52.59375 71.296875 
z
" id="DejaVuSans-54"/>
       </defs>
       <use xlink:href="#DejaVuSans-54"/>
       <use x="63.623047" xlink:href="#DejaVuSans-48"/>
       <use x="127.246094" xlink:href="#DejaVuSans-48"/>
       <use x="190.869141" xlink:href="#DejaVuSans-48"/>
      </g>
     </g>
    </g>
    <g id="xtick_5">
     <g id="line2d_5">
      <g>
       <use style="stroke:#000000;stroke-width:0.8;" x="264.13638" xlink:href="#m4c9b803deb" y="303.64"/>
      </g>
     </g>
     <g id="text_5">
      <!-- 8000 -->
      <g transform="translate(251.41138 318.238437)scale(0.1 -0.1)">
       <defs>
        <path d="M 31.78125 34.625 
Q 24.75 34.625 20.71875 30.859375 
Q 16.703125 27.09375 16.703125 20.515625 
Q 16.703125 13.921875 20.71875 10.15625 
Q 24.75 6.390625 31.78125 6.390625 
Q 38.8125 6.390625 42.859375 10.171875 
Q 46.921875 13.96875 46.921875 20.515625 
Q 46.921875 27.09375 42.890625 30.859375 
Q 38.875 34.625 31.78125 34.625 
z
M 21.921875 38.8125 
Q 15.578125 40.375 12.03125 44.71875 
Q 8.5 49.078125 8.5 55.328125 
Q 8.5 64.0625 14.71875 69.140625 
Q 20.953125 74.21875 31.78125 74.21875 
Q 42.671875 74.21875 48.875 69.140625 
Q 55.078125 64.0625 55.078125 55.328125 
Q 55.078125 49.078125 51.53125 44.71875 
Q 48 40.375 41.703125 38.8125 
Q 48.828125 37.15625 52.796875 32.3125 
Q 56.78125 27.484375 56.78125 20.515625 
Q 56.78125 9.90625 50.3125 4.234375 
Q 43.84375 -1.421875 31.78125 -1.421875 
Q 19.734375 -1.421875 13.25 4.234375 
Q 6.78125 9.90625 6.78125 20.515625 
Q 6.78125 27.484375 10.78125 32.3125 
Q 14.796875 37.15625 21.921875 38.8125 
z
M 18.3125 54.390625 
Q 18.3125 48.734375 21.84375 45.5625 
Q 25.390625 42.390625 31.78125 42.390625 
Q 38.140625 42.390625 41.71875 45.5625 
Q 45.3125 48.734375 45.3125 54.390625 
Q 45.3125 60.0625 41.71875 63.234375 
Q 38.140625 66.40625 31.78125 66.40625 
Q 25.390625 66.40625 21.84375 63.234375 
Q 18.3125 60.0625 18.3125 54.390625 
z
" id="DejaVuSans-56"/>
       </defs>
       <use xlink:href="#DejaVuSans-56"/>
       <use x="63.623047" xlink:href="#DejaVuSans-48"/>
       <use x="127.246094" xlink:href="#DejaVuSans-48"/>
       <use x="190.869141" xlink:href="#DejaVuSans-48"/>
      </g>
     </g>
    </g>
    <g id="xtick_6">
     <g id="line2d_6">
      <g>
       <use style="stroke:#000000;stroke-width:0.8;" x="313.52829" xlink:href="#m4c9b803deb" y="303.64"/>
      </g>
     </g>
     <g id="text_6">
      <!-- 10000 -->
      <g transform="translate(297.62204 318.238437)scale(0.1 -0.1)">
       <defs>
        <path d="M 12.40625 8.296875 
L 28.515625 8.296875 
L 28.515625 63.921875 
L 10.984375 60.40625 
L 10.984375 69.390625 
L 28.421875 72.90625 
L 38.28125 72.90625 
L 38.28125 8.296875 
L 54.390625 8.296875 
L 54.390625 0 
L 12.40625 0 
z
" id="DejaVuSans-49"/>
       </defs>
       <use xlink:href="#DejaVuSans-49"/>
       <use x="63.623047" xlink:href="#DejaVuSans-48"/>
       <use x="127.246094" xlink:href="#DejaVuSans-48"/>
       <use x="190.869141" xlink:href="#DejaVuSans-48"/>
       <use x="254.492188" xlink:href="#DejaVuSans-48"/>
      </g>
     </g>
    </g>
    <g id="xtick_7">
     <g id="line2d_7">
      <g>
       <use style="stroke:#000000;stroke-width:0.8;" x="362.920201" xlink:href="#m4c9b803deb" y="303.64"/>
      </g>
     </g>
     <g id="text_7">
      <!-- 12000 -->
      <g transform="translate(347.013951 318.238437)scale(0.1 -0.1)">
       <use xlink:href="#DejaVuSans-49"/>
       <use x="63.623047" xlink:href="#DejaVuSans-50"/>
       <use x="127.246094" xlink:href="#DejaVuSans-48"/>
       <use x="190.869141" xlink:href="#DejaVuSans-48"/>
       <use x="254.492188" xlink:href="#DejaVuSans-48"/>
      </g>
     </g>
    </g>
    <g id="xtick_8">
     <g id="line2d_8">
      <g>
       <use style="stroke:#000000;stroke-width:0.8;" x="412.312111" xlink:href="#m4c9b803deb" y="303.64"/>
      </g>
     </g>
     <g id="text_8">
      <!-- 14000 -->
      <g transform="translate(396.405861 318.238437)scale(0.1 -0.1)">
       <use xlink:href="#DejaVuSans-49"/>
       <use x="63.623047" xlink:href="#DejaVuSans-52"/>
       <use x="127.246094" xlink:href="#DejaVuSans-48"/>
       <use x="190.869141" xlink:href="#DejaVuSans-48"/>
       <use x="254.492188" xlink:href="#DejaVuSans-48"/>
      </g>
     </g>
    </g>
    <g id="text_9">
     <!-- Time (sec) -->
     <g transform="translate(224.280313 331.916562)scale(0.1 -0.1)">
      <defs>
       <path d="M -0.296875 72.90625 
L 61.375 72.90625 
L 61.375 64.59375 
L 35.5 64.59375 
L 35.5 0 
L 25.59375 0 
L 25.59375 64.59375 
L -0.296875 64.59375 
z
" id="DejaVuSans-84"/>
       <path d="M 9.421875 54.6875 
L 18.40625 54.6875 
L 18.40625 0 
L 9.421875 0 
z
M 9.421875 75.984375 
L 18.40625 75.984375 
L 18.40625 64.59375 
L 9.421875 64.59375 
z
" id="DejaVuSans-105"/>
       <path d="M 52 44.1875 
Q 55.375 50.25 60.0625 53.125 
Q 64.75 56 71.09375 56 
Q 79.640625 56 84.28125 50.015625 
Q 88.921875 44.046875 88.921875 33.015625 
L 88.921875 0 
L 79.890625 0 
L 79.890625 32.71875 
Q 79.890625 40.578125 77.09375 44.375 
Q 74.3125 48.1875 68.609375 48.1875 
Q 61.625 48.1875 57.5625 43.546875 
Q 53.515625 38.921875 53.515625 30.90625 
L 53.515625 0 
L 44.484375 0 
L 44.484375 32.71875 
Q 44.484375 40.625 41.703125 44.40625 
Q 38.921875 48.1875 33.109375 48.1875 
Q 26.21875 48.1875 22.15625 43.53125 
Q 18.109375 38.875 18.109375 30.90625 
L 18.109375 0 
L 9.078125 0 
L 9.078125 54.6875 
L 18.109375 54.6875 
L 18.109375 46.1875 
Q 21.1875 51.21875 25.484375 53.609375 
Q 29.78125 56 35.6875 56 
Q 41.65625 56 45.828125 52.96875 
Q 50 49.953125 52 44.1875 
z
" id="DejaVuSans-109"/>
       <path d="M 56.203125 29.59375 
L 56.203125 25.203125 
L 14.890625 25.203125 
Q 15.484375 15.921875 20.484375 11.0625 
Q 25.484375 6.203125 34.421875 6.203125 
Q 39.59375 6.203125 44.453125 7.46875 
Q 49.3125 8.734375 54.109375 11.28125 
L 54.109375 2.78125 
Q 49.265625 0.734375 44.1875 -0.34375 
Q 39.109375 -1.421875 33.890625 -1.421875 
Q 20.796875 -1.421875 13.15625 6.1875 
Q 5.515625 13.8125 5.515625 26.8125 
Q 5.515625 40.234375 12.765625 48.109375 
Q 20.015625 56 32.328125 56 
Q 43.359375 56 49.78125 48.890625 
Q 56.203125 41.796875 56.203125 29.59375 
z
M 47.21875 32.234375 
Q 47.125 39.59375 43.09375 43.984375 
Q 39.0625 48.390625 32.421875 48.390625 
Q 24.90625 48.390625 20.390625 44.140625 
Q 15.875 39.890625 15.1875 32.171875 
z
" id="DejaVuSans-101"/>
       <path id="DejaVuSans-32"/>
       <path d="M 31 75.875 
Q 24.46875 64.65625 21.28125 53.65625 
Q 18.109375 42.671875 18.109375 31.390625 
Q 18.109375 20.125 21.3125 9.0625 
Q 24.515625 -2 31 -13.1875 
L 23.1875 -13.1875 
Q 15.875 -1.703125 12.234375 9.375 
Q 8.59375 20.453125 8.59375 31.390625 
Q 8.59375 42.28125 12.203125 53.3125 
Q 15.828125 64.359375 23.1875 75.875 
z
" id="DejaVuSans-40"/>
       <path d="M 44.28125 53.078125 
L 44.28125 44.578125 
Q 40.484375 46.53125 36.375 47.5 
Q 32.28125 48.484375 27.875 48.484375 
Q 21.1875 48.484375 17.84375 46.4375 
Q 14.5 44.390625 14.5 40.28125 
Q 14.5 37.15625 16.890625 35.375 
Q 19.28125 33.59375 26.515625 31.984375 
L 29.59375 31.296875 
Q 39.15625 29.25 43.1875 25.515625 
Q 47.21875 21.78125 47.21875 15.09375 
Q 47.21875 7.46875 41.1875 3.015625 
Q 35.15625 -1.421875 24.609375 -1.421875 
Q 20.21875 -1.421875 15.453125 -0.5625 
Q 10.6875 0.296875 5.421875 2 
L 5.421875 11.28125 
Q 10.40625 8.6875 15.234375 7.390625 
Q 20.0625 6.109375 24.8125 6.109375 
Q 31.15625 6.109375 34.5625 8.28125 
Q 37.984375 10.453125 37.984375 14.40625 
Q 37.984375 18.0625 35.515625 20.015625 
Q 33.0625 21.96875 24.703125 23.78125 
L 21.578125 24.515625 
Q 13.234375 26.265625 9.515625 29.90625 
Q 5.8125 33.546875 5.8125 39.890625 
Q 5.8125 47.609375 11.28125 51.796875 
Q 16.75 56 26.8125 56 
Q 31.78125 56 36.171875 55.265625 
Q 40.578125 54.546875 44.28125 53.078125 
z
" id="DejaVuSans-115"/>
       <path d="M 48.78125 52.59375 
L 48.78125 44.1875 
Q 44.96875 46.296875 41.140625 47.34375 
Q 37.3125 48.390625 33.40625 48.390625 
Q 24.65625 48.390625 19.8125 42.84375 
Q 14.984375 37.3125 14.984375 27.296875 
Q 14.984375 17.28125 19.8125 11.734375 
Q 24.65625 6.203125 33.40625 6.203125 
Q 37.3125 6.203125 41.140625 7.25 
Q 44.96875 8.296875 48.78125 10.40625 
L 48.78125 2.09375 
Q 45.015625 0.34375 40.984375 -0.53125 
Q 36.96875 -1.421875 32.421875 -1.421875 
Q 20.0625 -1.421875 12.78125 6.34375 
Q 5.515625 14.109375 5.515625 27.296875 
Q 5.515625 40.671875 12.859375 48.328125 
Q 20.21875 56 33.015625 56 
Q 37.15625 56 41.109375 55.140625 
Q 45.0625 54.296875 48.78125 52.59375 
z
" id="DejaVuSans-99"/>
       <path d="M 8.015625 75.875 
L 15.828125 75.875 
Q 23.140625 64.359375 26.78125 53.3125 
Q 30.421875 42.28125 30.421875 31.390625 
Q 30.421875 20.453125 26.78125 9.375 
Q 23.140625 -1.703125 15.828125 -13.1875 
L 8.015625 -13.1875 
Q 14.5 -2 17.703125 9.0625 
Q 20.90625 20.125 20.90625 31.390625 
Q 20.90625 42.671875 17.703125 53.65625 
Q 14.5 64.65625 8.015625 75.875 
z
" id="DejaVuSans-41"/>
      </defs>
      <use xlink:href="#DejaVuSans-84"/>
      <use x="57.958984" xlink:href="#DejaVuSans-105"/>
      <use x="85.742188" xlink:href="#DejaVuSans-109"/>
      <use x="183.154297" xlink:href="#DejaVuSans-101"/>
      <use x="244.677734" xlink:href="#DejaVuSans-32"/>
      <use x="276.464844" xlink:href="#DejaVuSans-40"/>
      <use x="315.478516" xlink:href="#DejaVuSans-115"/>
      <use x="367.578125" xlink:href="#DejaVuSans-101"/>
      <use x="429.101562" xlink:href="#DejaVuSans-99"/>
      <use x="484.082031" xlink:href="#DejaVuSans-41"/>
     </g>
    </g>
   </g>
   <g id="matplotlib.axis_2">
    <g id="ytick_1">
     <g id="line2d_9">
      <defs>
       <path d="M 0 0 
L -3.5 0 
" id="m93bd86b218" style="stroke:#000000;stroke-width:0.8;"/>
      </defs>
      <g>
       <use style="stroke:#000000;stroke-width:0.8;" x="50.87" xlink:href="#m93bd86b218" y="255.759406"/>
      </g>
     </g>
     <g id="text_10">
      <!-- 20 -->
      <g transform="translate(31.145 259.558625)scale(0.1 -0.1)">
       <use xlink:href="#DejaVuSans-50"/>
       <use x="63.623047" xlink:href="#DejaVuSans-48"/>
      </g>
     </g>
    </g>
    <g id="ytick_2">
     <g id="line2d_10">
      <g>
       <use style="stroke:#000000;stroke-width:0.8;" x="50.87" xlink:href="#m93bd86b218" y="197.597134"/>
      </g>
     </g>
     <g id="text_11">
      <!-- 40 -->
      <g transform="translate(31.145 201.396353)scale(0.1 -0.1)">
       <use xlink:href="#DejaVuSans-52"/>
       <use x="63.623047" xlink:href="#DejaVuSans-48"/>
      </g>
     </g>
    </g>
    <g id="ytick_3">
     <g id="line2d_11">
      <g>
       <use style="stroke:#000000;stroke-width:0.8;" x="50.87" xlink:href="#m93bd86b218" y="139.434862"/>
      </g>
     </g>
     <g id="text_12">
      <!-- 60 -->
      <g transform="translate(31.145 143.234081)scale(0.1 -0.1)">
       <use xlink:href="#DejaVuSans-54"/>
       <use x="63.623047" xlink:href="#DejaVuSans-48"/>
      </g>
     </g>
    </g>
    <g id="ytick_4">
     <g id="line2d_12">
      <g>
       <use style="stroke:#000000;stroke-width:0.8;" x="50.87" xlink:href="#m93bd86b218" y="81.27259"/>
      </g>
     </g>
     <g id="text_13">
      <!-- 80 -->
      <g transform="translate(31.145 85.071808)scale(0.1 -0.1)">
       <use xlink:href="#DejaVuSans-56"/>
       <use x="63.623047" xlink:href="#DejaVuSans-48"/>
      </g>
     </g>
    </g>
    <g id="ytick_5">
     <g id="line2d_13">
      <g>
       <use style="stroke:#000000;stroke-width:0.8;" x="50.87" xlink:href="#m93bd86b218" y="23.110318"/>
      </g>
     </g>
     <g id="text_14">
      <!-- 100 -->
      <g transform="translate(24.7825 26.909536)scale(0.1 -0.1)">
       <use xlink:href="#DejaVuSans-49"/>
       <use x="63.623047" xlink:href="#DejaVuSans-48"/>
       <use x="127.246094" xlink:href="#DejaVuSans-48"/>
      </g>
     </g>
    </g>
    <g id="text_15">
     <!-- Test Accuracy (%) -->
     <g transform="translate(18.702813 201.723906)rotate(-90)scale(0.1 -0.1)">
      <defs>
       <path d="M 18.3125 70.21875 
L 18.3125 54.6875 
L 36.8125 54.6875 
L 36.8125 47.703125 
L 18.3125 47.703125 
L 18.3125 18.015625 
Q 18.3125 11.328125 20.140625 9.421875 
Q 21.96875 7.515625 27.59375 7.515625 
L 36.8125 7.515625 
L 36.8125 0 
L 27.59375 0 
Q 17.1875 0 13.234375 3.875 
Q 9.28125 7.765625 9.28125 18.015625 
L 9.28125 47.703125 
L 2.6875 47.703125 
L 2.6875 54.6875 
L 9.28125 54.6875 
L 9.28125 70.21875 
z
" id="DejaVuSans-116"/>
       <path d="M 34.1875 63.1875 
L 20.796875 26.90625 
L 47.609375 26.90625 
z
M 28.609375 72.90625 
L 39.796875 72.90625 
L 67.578125 0 
L 57.328125 0 
L 50.6875 18.703125 
L 17.828125 18.703125 
L 11.1875 0 
L 0.78125 0 
z
" id="DejaVuSans-65"/>
       <path d="M 8.5 21.578125 
L 8.5 54.6875 
L 17.484375 54.6875 
L 17.484375 21.921875 
Q 17.484375 14.15625 20.5 10.265625 
Q 23.53125 6.390625 29.59375 6.390625 
Q 36.859375 6.390625 41.078125 11.03125 
Q 45.3125 15.671875 45.3125 23.6875 
L 45.3125 54.6875 
L 54.296875 54.6875 
L 54.296875 0 
L 45.3125 0 
L 45.3125 8.40625 
Q 42.046875 3.421875 37.71875 1 
Q 33.40625 -1.421875 27.6875 -1.421875 
Q 18.265625 -1.421875 13.375 4.4375 
Q 8.5 10.296875 8.5 21.578125 
z
M 31.109375 56 
z
" id="DejaVuSans-117"/>
       <path d="M 41.109375 46.296875 
Q 39.59375 47.171875 37.8125 47.578125 
Q 36.03125 48 33.890625 48 
Q 26.265625 48 22.1875 43.046875 
Q 18.109375 38.09375 18.109375 28.8125 
L 18.109375 0 
L 9.078125 0 
L 9.078125 54.6875 
L 18.109375 54.6875 
L 18.109375 46.1875 
Q 20.953125 51.171875 25.484375 53.578125 
Q 30.03125 56 36.53125 56 
Q 37.453125 56 38.578125 55.875 
Q 39.703125 55.765625 41.0625 55.515625 
z
" id="DejaVuSans-114"/>
       <path d="M 34.28125 27.484375 
Q 23.390625 27.484375 19.1875 25 
Q 14.984375 22.515625 14.984375 16.5 
Q 14.984375 11.71875 18.140625 8.90625 
Q 21.296875 6.109375 26.703125 6.109375 
Q 34.1875 6.109375 38.703125 11.40625 
Q 43.21875 16.703125 43.21875 25.484375 
L 43.21875 27.484375 
z
M 52.203125 31.203125 
L 52.203125 0 
L 43.21875 0 
L 43.21875 8.296875 
Q 40.140625 3.328125 35.546875 0.953125 
Q 30.953125 -1.421875 24.3125 -1.421875 
Q 15.921875 -1.421875 10.953125 3.296875 
Q 6 8.015625 6 15.921875 
Q 6 25.140625 12.171875 29.828125 
Q 18.359375 34.515625 30.609375 34.515625 
L 43.21875 34.515625 
L 43.21875 35.40625 
Q 43.21875 41.609375 39.140625 45 
Q 35.0625 48.390625 27.6875 48.390625 
Q 23 48.390625 18.546875 47.265625 
Q 14.109375 46.140625 10.015625 43.890625 
L 10.015625 52.203125 
Q 14.9375 54.109375 19.578125 55.046875 
Q 24.21875 56 28.609375 56 
Q 40.484375 56 46.34375 49.84375 
Q 52.203125 43.703125 52.203125 31.203125 
z
" id="DejaVuSans-97"/>
       <path d="M 32.171875 -5.078125 
Q 28.375 -14.84375 24.75 -17.8125 
Q 21.140625 -20.796875 15.09375 -20.796875 
L 7.90625 -20.796875 
L 7.90625 -13.28125 
L 13.1875 -13.28125 
Q 16.890625 -13.28125 18.9375 -11.515625 
Q 21 -9.765625 23.484375 -3.21875 
L 25.09375 0.875 
L 2.984375 54.6875 
L 12.5 54.6875 
L 29.59375 11.921875 
L 46.6875 54.6875 
L 56.203125 54.6875 
z
" id="DejaVuSans-121"/>
       <path d="M 72.703125 32.078125 
Q 68.453125 32.078125 66.03125 28.46875 
Q 63.625 24.859375 63.625 18.40625 
Q 63.625 12.0625 66.03125 8.421875 
Q 68.453125 4.78125 72.703125 4.78125 
Q 76.859375 4.78125 79.265625 8.421875 
Q 81.6875 12.0625 81.6875 18.40625 
Q 81.6875 24.8125 79.265625 28.4375 
Q 76.859375 32.078125 72.703125 32.078125 
z
M 72.703125 38.28125 
Q 80.421875 38.28125 84.953125 32.90625 
Q 89.5 27.546875 89.5 18.40625 
Q 89.5 9.28125 84.9375 3.921875 
Q 80.375 -1.421875 72.703125 -1.421875 
Q 64.890625 -1.421875 60.34375 3.921875 
Q 55.8125 9.28125 55.8125 18.40625 
Q 55.8125 27.59375 60.375 32.9375 
Q 64.9375 38.28125 72.703125 38.28125 
z
M 22.3125 68.015625 
Q 18.109375 68.015625 15.6875 64.375 
Q 13.28125 60.75 13.28125 54.390625 
Q 13.28125 47.953125 15.671875 44.328125 
Q 18.0625 40.71875 22.3125 40.71875 
Q 26.5625 40.71875 28.96875 44.328125 
Q 31.390625 47.953125 31.390625 54.390625 
Q 31.390625 60.6875 28.953125 64.34375 
Q 26.515625 68.015625 22.3125 68.015625 
z
M 66.40625 74.21875 
L 74.21875 74.21875 
L 28.609375 -1.421875 
L 20.796875 -1.421875 
z
M 22.3125 74.21875 
Q 30.03125 74.21875 34.609375 68.875 
Q 39.203125 63.53125 39.203125 54.390625 
Q 39.203125 45.171875 34.640625 39.84375 
Q 30.078125 34.515625 22.3125 34.515625 
Q 14.546875 34.515625 10.03125 39.859375 
Q 5.515625 45.21875 5.515625 54.390625 
Q 5.515625 63.484375 10.046875 68.84375 
Q 14.59375 74.21875 22.3125 74.21875 
z
" id="DejaVuSans-37"/>
      </defs>
      <use xlink:href="#DejaVuSans-84"/>
      <use x="44.083984" xlink:href="#DejaVuSans-101"/>
      <use x="105.607422" xlink:href="#DejaVuSans-115"/>
      <use x="157.707031" xlink:href="#DejaVuSans-116"/>
      <use x="196.916016" xlink:href="#DejaVuSans-32"/>
      <use x="228.703125" xlink:href="#DejaVuSans-65"/>
      <use x="295.361328" xlink:href="#DejaVuSans-99"/>
      <use x="350.341797" xlink:href="#DejaVuSans-99"/>
      <use x="405.322266" xlink:href="#DejaVuSans-117"/>
      <use x="468.701172" xlink:href="#DejaVuSans-114"/>
      <use x="509.814453" xlink:href="#DejaVuSans-97"/>
      <use x="571.09375" xlink:href="#DejaVuSans-99"/>
      <use x="626.074219" xlink:href="#DejaVuSans-121"/>
      <use x="685.253906" xlink:href="#DejaVuSans-32"/>
      <use x="717.041016" xlink:href="#DejaVuSans-40"/>
      <use x="756.054688" xlink:href="#DejaVuSans-37"/>
      <use x="851.074219" xlink:href="#DejaVuSans-41"/>
     </g>
    </g>
   </g>
   <g id="line2d_14">
    <path clip-path="url(#p2bafb3fbb7)" d="M 69.068714 273.02633 
L 71.506596 257.122584 
L 76.380852 232.130983 
L 78.824743 187.600493 
L 81.25814 195.32517 
L 83.694356 178.058246 
L 86.129387 161.700107 
L 88.551411 154.884215 
L 90.988304 138.071684 
L 93.417901 127.166258 
L 95.846511 126.257472 
L 98.285902 118.987188 
L 100.710429 113.080082 
L 103.144365 139.889255 
L 105.594612 109.44494 
L 108.036252 108.990547 
L 110.47572 98.539514 
L 112.918059 94.449979 
L 115.340438 107.172976 
L 117.781726 99.902692 
L 120.220574 105.355405 
L 122.66041 75.819877 
L 125.098541 81.726982 
L 127.543126 78.09184 
L 129.973054 92.178016 
L 132.399866 103.537834 
L 134.832963 65.368843 
L 137.258644 83.090161 
L 139.694097 97.176336 
L 142.130177 75.819877 
L 144.558701 85.362124 
L 146.995651 69.003985 
L 149.433406 74.911091 
L 151.870261 66.277629 
L 154.311191 64.914451 
L 156.749039 78.546233 
L 159.200173 59.007345 
L 161.651889 53.100239 
L 164.093679 74.002306 
L 166.540043 56.280988 
L 168.97962 65.368843 
L 171.42509 71.275949 
L 173.870263 65.823236 
L 176.317496 85.816517 
L 178.769892 62.188094 
L 181.219229 64.914451 
L 183.663518 73.09352 
L 186.103726 67.186414 
L 188.553898 49.465097 
L 190.995871 69.458378 
L 193.437104 67.186414 
L 195.885367 48.101919 
L 198.337708 47.193133 
L 200.781406 78.546233 
L 203.224012 59.91613 
L 205.666116 66.732022 
L 208.114416 65.823236 
L 210.563914 63.551272 
L 213.007185 62.188094 
L 215.449802 66.732022 
L 217.901122 48.556312 
L 220.342781 66.732022 
L 222.787104 54.463417 
L 225.22659 67.640807 
L 227.672828 44.92117 
L 230.119235 49.465097 
L 232.570795 54.91781 
L 235.019556 75.819877 
L 237.462418 66.732022 
L 239.912078 49.91949 
L 242.356899 63.551272 
L 244.802425 45.375562 
L 247.244536 56.735381 
L 249.687793 58.552952 
L 252.139782 47.647526 
L 254.580537 52.191454 
L 257.027222 47.193133 
L 259.468842 45.375562 
L 261.918608 57.644167 
L 264.365047 53.100239 
L 266.811008 45.829955 
L 269.258565 65.823236 
L 271.714476 50.828275 
L 274.152586 56.735381 
L 276.590746 49.465097 
L 279.023018 43.557991 
L 281.457537 49.465097 
L 283.900164 60.824916 
L 286.336159 44.92117 
L 288.769407 41.74042 
L 291.211411 50.373883 
L 293.639459 54.91781 
L 296.083063 43.103599 
L 298.519072 44.466777 
L 300.957365 40.831635 
L 303.383397 44.012384 
L 305.82857 50.828275 
L 308.271279 49.91949 
L 310.697881 39.014064 
L 313.137826 44.012384 
L 315.564003 54.463417 
L 318.002976 44.012384 
L 320.440986 49.465097 
L 322.872791 40.377242 
L 325.311925 50.373883 
L 327.758199 38.559671 
L 330.19328 50.828275 
L 332.634184 44.012384 
L 335.078553 41.286028 
L 337.519796 41.286028 
L 339.957836 43.103599 
L 342.403162 39.468457 
L 344.841022 39.014064 
L 347.26558 40.377242 
L 349.70291 32.652565 
L 352.14186 35.833315 
L 354.573169 37.196493 
L 357.008427 44.92117 
L 359.436638 37.650886 
L 361.879229 37.650886 
L 364.306442 35.833315 
L 366.744066 36.7421 
L 369.176211 34.924529 
L 371.60945 35.833315 
L 374.047284 32.198173 
L 376.488445 29.471816 
L 378.916328 29.471816 
L 381.348021 33.106958 
L 386.161179 31.289387 
L 388.56586 31.289387 
L 390.970379 28.563031 
L 393.375731 29.017423 
L 395.781688 32.652565 
L 398.183533 29.926209 
L 400.591978 29.471816 
L 402.992885 29.471816 
L 405.393703 28.563031 
L 417.427205 28.563031 
L 422.241719 30.380602 
L 424.644674 30.380602 
L 427.045677 30.834994 
L 429.4534 28.563031 
L 431.857727 28.563031 
L 431.857727 28.563031 
" style="fill:none;stroke:#1f77b4;stroke-linecap:square;stroke-width:1.5;"/>
   </g>
   <g id="line2d_15">
    <path clip-path="url(#p2bafb3fbb7)" d="M 69.012273 262.3907 
L 71.082096 252.841352 
L 73.069522 248.758918 
L 75.025719 235.595728 
L 76.970266 195.907361 
L 78.897035 193.564398 
L 80.821933 182.744171 
L 82.744901 176.780266 
L 84.675381 154.259425 
L 86.600036 150.709482 
L 88.532614 151.220674 
L 90.45988 141.394431 
L 92.392429 134.379742 
L 94.32018 129.580219 
L 96.246247 122.537131 
L 98.176328 117.425213 
L 100.105249 110.751319 
L 102.029066 115.12485 
L 103.963473 96.89234 
L 105.894002 96.040354 
L 107.823042 92.462011 
L 109.742907 97.744327 
L 111.678184 93.370797 
L 113.60086 99.135905 
L 115.529788 75.990274 
L 117.451243 87.861285 
L 119.377346 96.040354 
L 121.300606 87.463691 
L 123.226836 89.42326 
L 125.151158 76.586664 
L 127.08472 88.883668 
L 129.014131 89.792454 
L 130.941331 81.584985 
L 132.868924 75.450683 
L 134.801414 77.126256 
L 136.724504 87.889684 
L 138.65261 82.096177 
L 140.576153 74.087504 
L 142.502268 89.934452 
L 144.42177 96.239151 
L 146.355018 88.713271 
L 148.287646 71.87234 
L 150.221171 76.757062 
L 152.145712 71.361148 
L 154.070214 84.481738 
L 155.99084 85.532522 
L 157.918227 83.629752 
L 159.841455 73.661511 
L 161.771566 66.84562 
L 163.691988 71.105552 
L 165.617628 72.894723 
L 167.535361 74.939491 
L 169.470486 77.694247 
L 171.392536 67.868004 
L 173.314064 76.473066 
L 175.233569 71.048753 
L 177.158561 75.961874 
L 179.086027 69.99797 
L 181.012132 59.859331 
L 182.927201 62.159695 
L 184.841908 78.319037 
L 186.777313 66.135631 
L 188.702552 63.409275 
L 190.626294 78.347436 
L 192.552071 75.990274 
L 194.477182 80.704599 
L 196.398885 71.701942 
L 198.317259 67.640807 
L 200.252856 58.013361 
L 202.185514 55.741397 
L 204.106705 57.928162 
L 206.023564 62.727686 
L 207.954069 61.506505 
L 209.879867 77.268254 
L 211.809356 59.092544 
L 213.723509 62.017697 
L 215.656091 65.709638 
L 217.58221 60.966914 
L 219.501614 64.261261 
L 221.419779 63.182078 
L 223.345821 77.126256 
L 225.276267 64.31806 
L 227.205647 61.052112 
L 229.127821 52.475449 
L 231.04956 59.064144 
L 232.977145 60.682918 
L 234.906641 50.317084 
L 236.837562 58.126959 
L 238.763222 60.966914 
L 240.688549 62.528889 
L 242.623429 51.254269 
L 246.471226 65.851636 
L 248.387917 70.509161 
L 250.326685 53.128639 
L 252.249933 69.003985 
L 254.187597 53.213837 
L 256.119564 40.036448 
L 258.038201 51.282668 
L 259.9615 55.372203 
L 261.889855 57.41697 
L 263.81327 63.409275 
L 265.735981 60.285325 
L 267.653572 64.516857 
L 269.575697 53.469433 
L 271.498864 55.315404 
L 273.420995 59.433338 
L 275.350212 54.009025 
L 277.276678 52.645846 
L 279.196198 51.112271 
L 281.12425 50.941874 
L 283.046932 42.223213 
L 284.966003 45.432361 
L 286.887939 54.491817 
L 288.824882 61.506505 
L 290.749427 48.187118 
L 292.678942 44.097583 
L 294.601424 45.51756 
L 296.535227 46.085551 
L 298.464166 45.006368 
L 300.38412 37.934881 
L 302.30139 47.761124 
L 304.226466 43.245596 
L 306.156613 41.058831 
L 308.083886 45.006368 
L 310.010158 46.880738 
L 311.934295 45.006368 
L 313.857384 46.369547 
L 315.784428 39.184461 
L 317.707553 45.432361 
L 319.636769 39.298059 
L 323.484711 42.734405 
L 325.413903 42.762804 
L 327.34044 44.949569 
L 329.266608 42.762804 
L 331.192367 42.280012 
L 333.115405 38.928865 
L 335.041938 37.310091 
L 336.959759 40.860034 
L 338.882412 38.673269 
L 340.805508 37.792883 
L 344.650015 37.792883 
L 346.577838 39.496856 
L 348.508227 38.332475 
L 350.429447 39.496856 
L 352.355272 36.060511 
L 354.28008 37.934881 
L 356.210044 38.673269 
L 356.210044 38.673269 
" style="fill:none;stroke:#ff7f0e;stroke-linecap:square;stroke-width:1.5;"/>
   </g>
   <g id="line2d_16">
    <path clip-path="url(#p2bafb3fbb7)" d="M 69.106051 253.359644 
L 71.254232 234.104751 
L 73.315747 243.646999 
L 75.336311 199.201708 
L 77.34063 195.694364 
L 79.33449 167.919607 
L 81.315717 160.422127 
L 83.301251 153.563636 
L 85.285673 142.132819 
L 87.267294 140.996837 
L 89.256985 122.821127 
L 91.242784 110.240128 
L 93.222145 107.030979 
L 95.208393 95.529162 
L 97.186176 90.843237 
L 99.166352 92.092817 
L 101.149423 82.436971 
L 103.129768 84.879332 
L 105.114237 76.558265 
L 107.096264 71.417947 
L 109.068339 81.783782 
L 111.046443 76.785461 
L 113.022897 82.266574 
L 115.008761 64.94285 
L 116.98527 69.060785 
L 118.973126 65.766437 
L 120.945454 79.114224 
L 122.926071 71.900739 
L 124.904632 70.707958 
L 126.884549 68.151999 
L 128.858825 68.776789 
L 130.842121 64.715654 
L 132.817445 65.255245 
L 134.793231 66.81722 
L 136.771022 60.427322 
L 138.749392 61.307708 
L 140.726293 64.147663 
L 142.70524 62.500489 
L 144.679885 68.606392 
L 146.658172 65.823236 
L 148.634437 67.754405 
L 150.615464 60.342124 
L 152.592702 60.285325 
L 154.566279 67.868004 
L 156.536287 71.105552 
L 158.513303 66.987618 
L 160.48908 61.648503 
L 162.46503 71.275949 
L 164.445009 61.733701 
L 166.425138 63.352476 
L 168.401934 65.113247 
L 170.378682 60.910115 
L 172.353384 59.745733 
L 174.331632 55.627799 
L 176.31032 63.238877 
L 178.289311 56.621783 
L 180.267074 62.301692 
L 182.245963 52.191454 
L 184.220058 63.863667 
L 188.172806 50.004689 
L 190.152637 54.889411 
L 192.130748 55.003009 
L 194.108806 53.270636 
L 196.0849 49.379899 
L 198.062946 57.984961 
L 200.042902 57.729365 
L 202.021126 52.021056 
L 204.001377 53.753429 
L 205.980397 53.838627 
L 207.95833 52.560648 
L 209.936282 59.262941 
L 211.916373 50.288684 
L 213.89387 49.720693 
L 215.873414 55.457402 
L 217.850445 53.611431 
L 219.832351 48.897106 
L 221.81323 54.91781 
L 223.791271 59.177742 
L 225.77395 50.771476 
L 227.753756 51.82226 
L 229.73219 48.329115 
L 231.712048 55.173406 
L 233.690122 47.363531 
L 235.672842 46.199149 
L 237.65478 45.460761 
L 239.632516 49.209501 
L 241.611738 46.312747 
L 243.592603 51.14067 
L 245.569811 49.436698 
L 247.549246 50.629479 
L 251.507467 55.5426 
L 253.485058 50.998673 
L 255.464903 43.67159 
L 257.442032 52.645846 
L 259.420422 48.215517 
L 261.40171 47.959921 
L 263.382377 45.290364 
L 265.361351 44.324779 
L 267.342779 42.251612 
L 269.321522 43.472793 
L 271.303619 50.402282 
L 275.272847 42.166414 
L 277.245683 44.211181 
L 279.22667 43.0184 
L 281.211582 39.156062 
L 283.196274 36.855698 
L 285.174413 41.541624 
L 287.155188 40.547639 
L 289.130071 37.423689 
L 291.109559 39.354858 
L 293.092721 37.736084 
L 295.068912 38.559671 
L 297.047611 37.168093 
L 299.027144 40.973633 
L 301.004987 34.384938 
L 302.980735 39.89445 
L 304.963099 34.697333 
L 306.942676 36.855698 
L 308.921603 35.606118 
L 310.905385 34.754132 
L 312.880341 35.350522 
L 314.858108 34.299739 
L 316.83932 36.997696 
L 318.819058 33.987344 
L 320.797187 33.305755 
L 322.77422 36.032111 
L 324.750532 34.299739 
L 326.731573 36.344506 
L 328.711546 32.482168 
L 330.687688 35.151726 
L 332.667941 30.891793 
L 334.64539 35.236924 
L 336.625534 31.317787 
L 338.602796 34.782531 
L 340.580213 31.317787 
L 344.529318 33.305755 
L 346.510085 34.86773 
L 348.49213 31.71538 
L 350.47106 31.289387 
L 352.449401 35.293723 
L 354.429627 32.112974 
L 358.386602 32.112974 
L 360.364938 30.891793 
L 362.340734 35.776516 
L 364.316483 32.851362 
L 364.316483 32.851362 
" style="fill:none;stroke:#2ca02c;stroke-linecap:square;stroke-width:1.5;"/>
   </g>
   <g id="patch_3">
    <path d="M 50.87 303.64 
L 50.87 10.8 
" style="fill:none;stroke:#000000;stroke-linecap:square;stroke-linejoin:miter;stroke-width:0.8;"/>
   </g>
   <g id="patch_4">
    <path d="M 450 303.64 
L 450 10.8 
" style="fill:none;stroke:#000000;stroke-linecap:square;stroke-linejoin:miter;stroke-width:0.8;"/>
   </g>
   <g id="patch_5">
    <path d="M 50.87 303.64 
L 450 303.64 
" style="fill:none;stroke:#000000;stroke-linecap:square;stroke-linejoin:miter;stroke-width:0.8;"/>
   </g>
   <g id="patch_6">
    <path d="M 50.87 10.8 
L 450 10.8 
" style="fill:none;stroke:#000000;stroke-linecap:square;stroke-linejoin:miter;stroke-width:0.8;"/>
   </g>
   <g id="legend_1">
    <g id="patch_7">
     <path d="M 361.492188 298.64 
L 443 298.64 
Q 445 298.64 445 296.64 
L 445 253.605625 
Q 445 251.605625 443 251.605625 
L 361.492188 251.605625 
Q 359.492188 251.605625 359.492188 253.605625 
L 359.492188 296.64 
Q 359.492188 298.64 361.492188 298.64 
z
" style="fill:#ffffff;opacity:0.8;stroke:#cccccc;stroke-linejoin:miter;"/>
    </g>
    <g id="line2d_17">
     <path d="M 363.492188 259.704062 
L 383.492188 259.704062 
" style="fill:none;stroke:#1f77b4;stroke-linecap:square;stroke-width:1.5;"/>
    </g>
    <g id="line2d_18"/>
    <g id="text_16">
     <!-- Sync-SGD -->
     <g transform="translate(391.492188 263.204062)scale(0.1 -0.1)">
      <defs>
       <path d="M 53.515625 70.515625 
L 53.515625 60.890625 
Q 47.90625 63.578125 42.921875 64.890625 
Q 37.9375 66.21875 33.296875 66.21875 
Q 25.25 66.21875 20.875 63.09375 
Q 16.5 59.96875 16.5 54.203125 
Q 16.5 49.359375 19.40625 46.890625 
Q 22.3125 44.4375 30.421875 42.921875 
L 36.375 41.703125 
Q 47.40625 39.59375 52.65625 34.296875 
Q 57.90625 29 57.90625 20.125 
Q 57.90625 9.515625 50.796875 4.046875 
Q 43.703125 -1.421875 29.984375 -1.421875 
Q 24.8125 -1.421875 18.96875 -0.25 
Q 13.140625 0.921875 6.890625 3.21875 
L 6.890625 13.375 
Q 12.890625 10.015625 18.65625 8.296875 
Q 24.421875 6.59375 29.984375 6.59375 
Q 38.421875 6.59375 43.015625 9.90625 
Q 47.609375 13.234375 47.609375 19.390625 
Q 47.609375 24.75 44.3125 27.78125 
Q 41.015625 30.8125 33.5 32.328125 
L 27.484375 33.5 
Q 16.453125 35.6875 11.515625 40.375 
Q 6.59375 45.0625 6.59375 53.421875 
Q 6.59375 63.09375 13.40625 68.65625 
Q 20.21875 74.21875 32.171875 74.21875 
Q 37.3125 74.21875 42.625 73.28125 
Q 47.953125 72.359375 53.515625 70.515625 
z
" id="DejaVuSans-83"/>
       <path d="M 54.890625 33.015625 
L 54.890625 0 
L 45.90625 0 
L 45.90625 32.71875 
Q 45.90625 40.484375 42.875 44.328125 
Q 39.84375 48.1875 33.796875 48.1875 
Q 26.515625 48.1875 22.3125 43.546875 
Q 18.109375 38.921875 18.109375 30.90625 
L 18.109375 0 
L 9.078125 0 
L 9.078125 54.6875 
L 18.109375 54.6875 
L 18.109375 46.1875 
Q 21.34375 51.125 25.703125 53.5625 
Q 30.078125 56 35.796875 56 
Q 45.21875 56 50.046875 50.171875 
Q 54.890625 44.34375 54.890625 33.015625 
z
" id="DejaVuSans-110"/>
       <path d="M 4.890625 31.390625 
L 31.203125 31.390625 
L 31.203125 23.390625 
L 4.890625 23.390625 
z
" id="DejaVuSans-45"/>
       <path d="M 59.515625 10.40625 
L 59.515625 29.984375 
L 43.40625 29.984375 
L 43.40625 38.09375 
L 69.28125 38.09375 
L 69.28125 6.78125 
Q 63.578125 2.734375 56.6875 0.65625 
Q 49.8125 -1.421875 42 -1.421875 
Q 24.90625 -1.421875 15.25 8.5625 
Q 5.609375 18.5625 5.609375 36.375 
Q 5.609375 54.25 15.25 64.234375 
Q 24.90625 74.21875 42 74.21875 
Q 49.125 74.21875 55.546875 72.453125 
Q 61.96875 70.703125 67.390625 67.28125 
L 67.390625 56.78125 
Q 61.921875 61.421875 55.765625 63.765625 
Q 49.609375 66.109375 42.828125 66.109375 
Q 29.4375 66.109375 22.71875 58.640625 
Q 16.015625 51.171875 16.015625 36.375 
Q 16.015625 21.625 22.71875 14.15625 
Q 29.4375 6.6875 42.828125 6.6875 
Q 48.046875 6.6875 52.140625 7.59375 
Q 56.25 8.5 59.515625 10.40625 
z
" id="DejaVuSans-71"/>
       <path d="M 19.671875 64.796875 
L 19.671875 8.109375 
L 31.59375 8.109375 
Q 46.6875 8.109375 53.6875 14.9375 
Q 60.6875 21.78125 60.6875 36.53125 
Q 60.6875 51.171875 53.6875 57.984375 
Q 46.6875 64.796875 31.59375 64.796875 
z
M 9.8125 72.90625 
L 30.078125 72.90625 
Q 51.265625 72.90625 61.171875 64.09375 
Q 71.09375 55.28125 71.09375 36.53125 
Q 71.09375 17.671875 61.125 8.828125 
Q 51.171875 0 30.078125 0 
L 9.8125 0 
z
" id="DejaVuSans-68"/>
      </defs>
      <use xlink:href="#DejaVuSans-83"/>
      <use x="63.476562" xlink:href="#DejaVuSans-121"/>
      <use x="122.65625" xlink:href="#DejaVuSans-110"/>
      <use x="186.035156" xlink:href="#DejaVuSans-99"/>
      <use x="241.015625" xlink:href="#DejaVuSans-45"/>
      <use x="277.099609" xlink:href="#DejaVuSans-83"/>
      <use x="340.576172" xlink:href="#DejaVuSans-71"/>
      <use x="418.066406" xlink:href="#DejaVuSans-68"/>
     </g>
    </g>
    <g id="line2d_19">
     <path d="M 363.492188 274.382187 
L 383.492188 274.382187 
" style="fill:none;stroke:#ff7f0e;stroke-linecap:square;stroke-width:1.5;"/>
    </g>
    <g id="line2d_20"/>
    <g id="text_17">
     <!-- DP-SGD -->
     <g transform="translate(391.492188 277.882187)scale(0.1 -0.1)">
      <defs>
       <path d="M 19.671875 64.796875 
L 19.671875 37.40625 
L 32.078125 37.40625 
Q 38.96875 37.40625 42.71875 40.96875 
Q 46.484375 44.53125 46.484375 51.125 
Q 46.484375 57.671875 42.71875 61.234375 
Q 38.96875 64.796875 32.078125 64.796875 
z
M 9.8125 72.90625 
L 32.078125 72.90625 
Q 44.34375 72.90625 50.609375 67.359375 
Q 56.890625 61.8125 56.890625 51.125 
Q 56.890625 40.328125 50.609375 34.8125 
Q 44.34375 29.296875 32.078125 29.296875 
L 19.671875 29.296875 
L 19.671875 0 
L 9.8125 0 
z
" id="DejaVuSans-80"/>
      </defs>
      <use xlink:href="#DejaVuSans-68"/>
      <use x="77.001953" xlink:href="#DejaVuSans-80"/>
      <use x="135.054688" xlink:href="#DejaVuSans-45"/>
      <use x="171.138672" xlink:href="#DejaVuSans-83"/>
      <use x="234.615234" xlink:href="#DejaVuSans-71"/>
      <use x="312.105469" xlink:href="#DejaVuSans-68"/>
     </g>
    </g>
    <g id="line2d_21">
     <path d="M 363.492188 289.060312 
L 383.492188 289.060312 
" style="fill:none;stroke:#2ca02c;stroke-linecap:square;stroke-width:1.5;"/>
    </g>
    <g id="line2d_22"/>
    <g id="text_18">
     <!-- EDP-SGD -->
     <g transform="translate(391.492188 292.560312)scale(0.1 -0.1)">
      <defs>
       <path d="M 9.8125 72.90625 
L 55.90625 72.90625 
L 55.90625 64.59375 
L 19.671875 64.59375 
L 19.671875 43.015625 
L 54.390625 43.015625 
L 54.390625 34.71875 
L 19.671875 34.71875 
L 19.671875 8.296875 
L 56.78125 8.296875 
L 56.78125 0 
L 9.8125 0 
z
" id="DejaVuSans-69"/>
      </defs>
      <use xlink:href="#DejaVuSans-69"/>
      <use x="63.183594" xlink:href="#DejaVuSans-68"/>
      <use x="140.185547" xlink:href="#DejaVuSans-80"/>
      <use x="198.238281" xlink:href="#DejaVuSans-45"/>
      <use x="234.322266" xlink:href="#DejaVuSans-83"/>
      <use x="297.798828" xlink:href="#DejaVuSans-71"/>
      <use x="375.289062" xlink:href="#DejaVuSans-68"/>
     </g>
    </g>
   </g>
  </g>
 </g>
 <defs>
  <clipPath id="p2bafb3fbb7">
   <rect height="292.84" width="399.13" x="50.87" y="10.8"/>
  </clipPath>
 </defs>
</svg>
