<?xml version="1.0" encoding="utf-8" standalone="no"?>
<!DOCTYPE svg PUBLIC "-//W3C//DTD SVG 1.1//EN"
  "http://www.w3.org/Graphics/SVG/1.1/DTD/svg11.dtd">
<!-- Created with matplotlib (https://matplotlib.org/) -->
<svg height="345.6pt" version="1.1" viewBox="0 0 460.8 345.6" width="460.8pt" xmlns="http://www.w3.org/2000/svg" xmlns:xlink="http://www.w3.org/1999/xlink">
 <metadata>
  <rdf:RDF xmlns:cc="http://creativecommons.org/ns#" xmlns:dc="http://purl.org/dc/elements/1.1/" xmlns:rdf="http://www.w3.org/1999/02/22-rdf-syntax-ns#">
   <cc:Work>
    <dc:type rdf:resource="http://purl.org/dc/dcmitype/StillImage"/>
    <dc:date>2021-06-20T12:17:58.318796</dc:date>
    <dc:format>image/svg+xml</dc:format>
    <dc:creator>
     <cc:Agent>
      <dc:title>Matplotlib v3.3.1, https://matplotlib.org/</dc:title>
     </cc:Agent>
    </dc:creator>
   </cc:Work>
  </rdf:RDF>
 </metadata>
 <defs>
  <style type="text/css">*{stroke-linecap:butt;stroke-linejoin:round;}</style>
 </defs>
 <g id="figure_1">
  <g id="patch_1">
   <path d="M 0 345.6 
L 460.8 345.6 
L 460.8 0 
L 0 0 
z
" style="fill:#ffffff;"/>
  </g>
  <g id="axes_1">
   <g id="patch_2">
    <path d="M 50.87 303.64 
L 450 303.64 
L 450 10.8 
L 50.87 10.8 
z
" style="fill:#ffffff;"/>
   </g>
   <g id="PolyCollection_1">
    <path clip-path="url(#p177116f41f)" d="M 69.012273 213.588799 
L 69.012273 219.105838 
L 71.447477 149.192776 
L 73.882682 205.726024 
L 76.317886 105.1351 
L 78.75309 93.936223 
L 81.188295 99.364043 
L 83.623499 67.191085 
L 86.058703 51.304291 
L 88.493908 55.929875 
L 90.929112 50.089723 
L 93.364317 41.976506 
L 95.799521 42.196953 
L 98.234725 47.719871 
L 100.66993 46.706424 
L 103.105134 46.399978 
L 105.540339 46.399978 
L 107.975543 43.623868 
L 110.410747 39.138063 
L 112.845952 34.595811 
L 115.281156 55.35746 
L 117.716361 39.408448 
L 120.151565 41.579099 
L 122.586769 43.682966 
L 125.021974 35.722222 
L 127.457178 39.138063 
L 129.892383 27.612524 
L 132.327587 34.173254 
L 134.762791 39.408448 
L 137.197996 27.612524 
L 139.6332 34.173254 
L 142.068405 32.035995 
L 144.503609 44.569165 
L 146.938813 27.612524 
L 149.374018 27.612524 
L 151.809222 32.035995 
L 154.244426 27.612524 
L 156.679631 36.459467 
L 159.114835 32.035995 
L 161.55004 35.647745 
L 163.985244 32.035995 
L 166.420448 34.173254 
L 168.855653 34.173254 
L 171.290857 36.459467 
L 173.726062 32.035995 
L 176.161266 34.173254 
L 178.59647 29.82426 
L 181.031675 34.984977 
L 183.466879 27.612524 
L 185.902084 27.612524 
L 188.337288 36.459467 
L 190.772492 32.773241 
L 193.207697 34.173254 
L 195.642901 32.035995 
L 198.078106 32.035995 
L 200.51331 27.612524 
L 202.948514 34.173254 
L 205.383719 34.173254 
L 207.818923 32.035995 
L 210.254128 27.612524 
L 212.689332 27.612524 
L 215.124536 27.612524 
L 217.559741 27.612524 
L 219.994945 27.612524 
L 222.430149 39.647725 
L 224.865354 34.173254 
L 227.300558 27.612524 
L 229.735763 32.035995 
L 232.170967 27.612524 
L 234.606171 27.612524 
L 237.041376 34.173254 
L 239.47658 32.035995 
L 241.911785 32.035995 
L 244.346989 34.173254 
L 246.782193 27.612524 
L 249.217398 27.612524 
L 251.652602 27.612524 
L 254.087807 27.612524 
L 256.523011 27.612524 
L 258.958215 27.612524 
L 261.39342 34.173254 
L 263.828624 27.612524 
L 266.263829 32.035995 
L 268.699033 32.035995 
L 271.134237 27.612524 
L 273.569442 27.612524 
L 276.004646 27.612524 
L 278.439851 27.612524 
L 280.875055 27.612524 
L 283.310259 27.612524 
L 285.745464 27.612524 
L 288.180668 32.035995 
L 290.615872 27.612524 
L 293.051077 34.173254 
L 295.486281 27.612524 
L 297.921486 27.612524 
L 300.35669 27.612524 
L 302.791894 32.035995 
L 305.227099 32.035995 
L 307.662303 27.612524 
L 310.097508 32.035995 
L 312.532712 27.612524 
L 314.967916 27.612524 
L 317.403121 36.459467 
L 319.838325 27.612524 
L 322.27353 27.612524 
L 324.708734 27.612524 
L 327.143938 27.612524 
L 329.579143 27.612524 
L 332.014347 32.035995 
L 334.449552 27.612524 
L 336.884756 32.035995 
L 339.31996 27.612524 
L 341.755165 27.612524 
L 344.190369 27.612524 
L 346.625574 27.612524 
L 349.060778 27.612524 
L 351.495982 32.035995 
L 353.931187 27.612524 
L 356.366391 27.612524 
L 358.801595 27.612524 
L 361.2368 32.035995 
L 363.672004 32.035995 
L 366.107209 27.612524 
L 368.542413 32.035995 
L 370.977617 27.612524 
L 373.412822 27.612524 
L 375.848026 27.612524 
L 378.283231 27.612524 
L 380.718435 27.612524 
L 383.153639 27.612524 
L 385.588844 32.035995 
L 388.024048 32.035995 
L 390.459253 27.612524 
L 392.894457 27.612524 
L 395.329661 27.612524 
L 397.764866 27.612524 
L 400.20007 27.612524 
L 402.635275 27.612524 
L 405.070479 27.612524 
L 407.505683 27.612524 
L 409.940888 27.612524 
L 412.376092 27.612524 
L 414.811297 27.612524 
L 417.246501 27.612524 
L 419.681705 27.612524 
L 422.11691 27.612524 
L 424.552114 27.612524 
L 426.987318 27.612524 
L 429.422523 27.612524 
L 431.857727 27.612524 
L 431.857727 27.612524 
L 431.857727 27.612524 
L 429.422523 27.612524 
L 426.987318 27.612524 
L 424.552114 27.612524 
L 422.11691 27.612524 
L 419.681705 27.612524 
L 417.246501 27.612524 
L 414.811297 27.612524 
L 412.376092 27.612524 
L 409.940888 27.612524 
L 407.505683 27.612524 
L 405.070479 27.612524 
L 402.635275 27.612524 
L 400.20007 27.612524 
L 397.764866 27.612524 
L 395.329661 27.612524 
L 392.894457 27.612524 
L 390.459253 27.612524 
L 388.024048 26.138033 
L 385.588844 26.138033 
L 383.153639 27.612524 
L 380.718435 27.612524 
L 378.283231 27.612524 
L 375.848026 27.612524 
L 373.412822 27.612524 
L 370.977617 27.612524 
L 368.542413 26.138033 
L 366.107209 27.612524 
L 363.672004 26.138033 
L 361.2368 26.138033 
L 358.801595 27.612524 
L 356.366391 27.612524 
L 353.931187 27.612524 
L 351.495982 26.138033 
L 349.060778 27.612524 
L 346.625574 27.612524 
L 344.190369 27.612524 
L 341.755165 27.612524 
L 339.31996 27.612524 
L 336.884756 26.138033 
L 334.449552 27.612524 
L 332.014347 26.138033 
L 329.579143 27.612524 
L 327.143938 27.612524 
L 324.708734 27.612524 
L 322.27353 27.612524 
L 319.838325 27.612524 
L 317.403121 24.663543 
L 314.967916 27.612524 
L 312.532712 27.612524 
L 310.097508 26.138033 
L 307.662303 27.612524 
L 305.227099 26.138033 
L 302.791894 26.138033 
L 300.35669 27.612524 
L 297.921486 27.612524 
L 295.486281 27.612524 
L 293.051077 26.949755 
L 290.615872 27.612524 
L 288.180668 26.138033 
L 285.745464 27.612524 
L 283.310259 27.612524 
L 280.875055 27.612524 
L 278.439851 27.612524 
L 276.004646 27.612524 
L 273.569442 27.612524 
L 271.134237 27.612524 
L 268.699033 26.138033 
L 266.263829 26.138033 
L 263.828624 27.612524 
L 261.39342 26.949755 
L 258.958215 27.612524 
L 256.523011 27.612524 
L 254.087807 27.612524 
L 251.652602 27.612524 
L 249.217398 27.612524 
L 246.782193 27.612524 
L 244.346989 26.949755 
L 241.911785 26.138033 
L 239.47658 26.138033 
L 237.041376 26.949755 
L 234.606171 27.612524 
L 232.170967 27.612524 
L 229.735763 26.138033 
L 227.300558 27.612524 
L 224.865354 26.949755 
L 222.430149 30.322228 
L 219.994945 27.612524 
L 217.559741 27.612524 
L 215.124536 27.612524 
L 212.689332 27.612524 
L 210.254128 27.612524 
L 207.818923 26.138033 
L 205.383719 26.949755 
L 202.948514 26.949755 
L 200.51331 27.612524 
L 198.078106 26.138033 
L 195.642901 26.138033 
L 193.207697 26.949755 
L 190.772492 26.875278 
L 188.337288 24.663543 
L 185.902084 27.612524 
L 183.466879 27.612524 
L 181.031675 34.984977 
L 178.59647 26.875278 
L 176.161266 26.949755 
L 173.726062 26.138033 
L 171.290857 30.561505 
L 168.855653 26.949755 
L 166.420448 26.949755 
L 163.985244 26.138033 
L 161.55004 28.424246 
L 159.114835 26.138033 
L 156.679631 24.663543 
L 154.244426 27.612524 
L 151.809222 26.138033 
L 149.374018 27.612524 
L 146.938813 27.612524 
L 144.503609 35.722222 
L 142.068405 26.138033 
L 139.6332 26.949755 
L 137.197996 27.612524 
L 134.762791 33.510486 
L 132.327587 26.949755 
L 129.892383 27.612524 
L 127.457178 29.357399 
L 125.021974 29.82426 
L 122.586769 29.235968 
L 120.151565 28.390854 
L 117.716361 33.510486 
L 115.281156 45.576796 
L 112.845952 28.001689 
L 110.410747 29.357399 
L 107.975543 30.769557 
L 105.540339 35.3659 
L 103.105134 35.3659 
L 100.66993 39.482925 
L 98.234725 34.046007 
L 95.799521 32.196472 
L 93.364317 30.942429 
L 90.929112 34.625136 
L 88.493908 37.631928 
L 86.058703 34.885059 
L 83.623499 44.064604 
L 81.188295 64.973308 
L 78.75309 55.656221 
L 76.317886 70.998175 
L 73.882682 144.397141 
L 71.447477 124.256878 
L 69.012273 213.588799 
z
" style="fill:#1f77b4;fill-opacity:0.25;"/>
   </g>
   <g id="PolyCollection_2">
    <path clip-path="url(#p177116f41f)" d="M 69.012273 240.9973 
L 69.012273 252.520074 
L 71.447477 228.877271 
L 73.882682 197.043192 
L 76.317886 112.218376 
L 78.75309 86.737301 
L 81.188295 77.193263 
L 83.623499 78.844761 
L 86.058703 66.501912 
L 88.493908 55.995856 
L 90.929112 44.326586 
L 93.364317 39.428327 
L 95.799521 40.605019 
L 98.234725 42.888465 
L 100.66993 37.93306 
L 103.105134 35.523006 
L 105.540339 33.156189 
L 107.975543 39.12537 
L 110.410747 39.374924 
L 112.845952 44.555975 
L 115.281156 37.045618 
L 117.716361 31.001185 
L 120.151565 39.442861 
L 122.586769 38.901592 
L 125.021974 35.539368 
L 127.457178 34.651591 
L 129.892383 29.686026 
L 132.327587 34.607001 
L 134.762791 35.446346 
L 137.197996 31.787499 
L 139.6332 37.288868 
L 142.068405 36.13621 
L 144.503609 38.526715 
L 146.938813 32.237506 
L 149.374018 33.442797 
L 151.809222 32.862007 
L 154.244426 36.571962 
L 156.679631 34.695238 
L 159.114835 38.33962 
L 161.55004 40.720649 
L 163.985244 35.396644 
L 166.420448 33.68959 
L 168.855653 30.791894 
L 171.290857 34.389661 
L 173.726062 31.668783 
L 176.161266 33.672934 
L 178.59647 35.000541 
L 181.031675 39.242225 
L 183.466879 32.229303 
L 185.902084 35.647011 
L 188.337288 30.791894 
L 190.772492 38.33847 
L 193.207697 38.901592 
L 195.642901 32.646874 
L 198.078106 39.093708 
L 200.51331 34.573819 
L 202.948514 33.913498 
L 205.383719 38.03881 
L 207.818923 36.144367 
L 210.254128 32.2982 
L 212.689332 34.555101 
L 215.124536 35.107233 
L 217.559741 29.686026 
L 219.994945 34.381126 
L 222.430149 30.791894 
L 224.865354 30.341552 
L 227.300558 33.995602 
L 229.735763 34.555101 
L 232.170967 29.82426 
L 234.606171 33.674092 
L 237.041376 29.82426 
L 239.47658 37.973076 
L 241.911785 32.49817 
L 244.346989 31.001185 
L 246.782193 32.694867 
L 249.217398 29.82426 
L 251.652602 28.842661 
L 254.087807 29.409559 
L 256.523011 32.035995 
L 258.958215 34.487101 
L 261.39342 34.303537 
L 263.828624 38.164347 
L 266.263829 34.138589 
L 268.699033 28.994859 
L 271.134237 32.08821 
L 273.569442 28.441925 
L 276.004646 35.927847 
L 278.439851 33.575631 
L 280.875055 31.668783 
L 283.310259 32.2982 
L 285.745464 31.022283 
L 288.180668 31.548434 
L 290.615872 27.612524 
L 293.051077 33.156189 
L 295.486281 30.791894 
L 297.921486 29.82426 
L 300.35669 27.612524 
L 302.791894 33.156189 
L 305.227099 33.886554 
L 307.662303 33.156189 
L 310.097508 32.450696 
L 312.532712 33.14296 
L 314.967916 27.612524 
L 317.403121 33.156189 
L 319.838325 29.82426 
L 322.27353 33.144742 
L 324.708734 28.441925 
L 327.143938 30.065753 
L 329.579143 31.897762 
L 332.014347 30.791894 
L 334.449552 29.686026 
L 336.884756 29.82426 
L 339.31996 31.668783 
L 341.755165 29.82426 
L 344.190369 32.773241 
L 346.625574 28.994859 
L 349.060778 29.675345 
L 351.495982 30.341552 
L 353.931187 27.612524 
L 356.366391 30.892889 
L 358.801595 29.82426 
L 361.2368 31.001185 
L 363.672004 31.668783 
L 366.107209 30.892889 
L 368.542413 29.82426 
L 370.977617 28.441925 
L 373.412822 28.441925 
L 375.848026 29.82426 
L 378.283231 32.635007 
L 380.718435 27.612524 
L 383.153639 28.441925 
L 385.588844 28.441925 
L 388.024048 29.82426 
L 390.459253 28.441925 
L 392.894457 29.82426 
L 395.329661 30.065753 
L 397.764866 30.892889 
L 400.20007 30.892889 
L 402.635275 29.82426 
L 405.070479 31.787499 
L 407.505683 30.065753 
L 409.940888 29.82426 
L 412.376092 32.102959 
L 414.811297 31.222405 
L 417.246501 31.206595 
L 419.681705 29.82426 
L 422.11691 31.630134 
L 424.552114 32.102959 
L 426.987318 31.668783 
L 429.422523 30.791894 
L 431.857727 27.612524 
L 431.857727 27.612524 
L 431.857727 27.612524 
L 429.422523 26.552734 
L 426.987318 27.150335 
L 424.552114 27.914183 
L 422.11691 28.018385 
L 419.681705 26.875278 
L 417.246501 27.888991 
L 414.811297 27.043779 
L 412.376092 27.914183 
L 409.940888 26.875278 
L 407.505683 27.186719 
L 405.070479 27.584554 
L 402.635275 26.875278 
L 400.20007 27.28114 
L 397.764866 27.28114 
L 395.329661 27.186719 
L 392.894457 26.875278 
L 390.459253 27.336057 
L 388.024048 26.875278 
L 385.588844 27.336057 
L 383.153639 27.336057 
L 380.718435 27.612524 
L 378.283231 26.368422 
L 375.848026 26.875278 
L 373.412822 27.336057 
L 370.977617 27.336057 
L 368.542413 26.875278 
L 366.107209 27.28114 
L 363.672004 27.150335 
L 361.2368 26.896377 
L 358.801595 26.875278 
L 356.366391 27.28114 
L 353.931187 27.612524 
L 351.495982 27.279542 
L 349.060778 27.30066 
L 346.625574 27.151745 
L 344.190369 26.875278 
L 341.755165 26.875278 
L 339.31996 27.150335 
L 336.884756 26.875278 
L 334.449552 26.921356 
L 332.014347 26.552734 
L 329.579143 26.184111 
L 327.143938 27.186719 
L 324.708734 27.336057 
L 322.27353 27.241023 
L 319.838325 26.875278 
L 317.403121 26.768797 
L 314.967916 27.612524 
L 312.532712 29.270229 
L 310.097508 25.9998 
L 307.662303 26.768797 
L 305.227099 27.605079 
L 302.791894 26.768797 
L 300.35669 27.612524 
L 297.921486 26.875278 
L 295.486281 26.552734 
L 293.051077 26.768797 
L 290.615872 27.612524 
L 288.180668 28.007929 
L 285.745464 27.704679 
L 283.310259 27.995409 
L 280.875055 27.150335 
L 278.439851 28.100313 
L 276.004646 28.236299 
L 273.569442 27.336057 
L 271.134237 26.546597 
L 268.699033 27.151745 
L 266.263829 27.905977 
L 263.828624 25.631177 
L 261.39342 29.491987 
L 258.958215 26.912376 
L 256.523011 26.138033 
L 254.087807 27.013512 
L 251.652602 27.488255 
L 249.217398 26.875278 
L 246.782193 28.05952 
L 244.346989 26.896377 
L 241.911785 26.413104 
L 239.47658 28.218496 
L 237.041376 26.875278 
L 234.606171 26.619517 
L 232.170967 26.875278 
L 229.735763 28.134555 
L 227.300558 27.864653 
L 224.865354 27.279542 
L 222.430149 26.552734 
L 219.994945 26.926195 
L 217.559741 26.921356 
L 215.124536 25.554998 
L 212.689332 28.134555 
L 210.254128 27.995409 
L 207.818923 29.862893 
L 205.383719 27.323361 
L 202.948514 26.840889 
L 200.51331 27.378592 
L 198.078106 28.203731 
L 195.642901 26.90949 
L 193.207697 25.9998 
L 190.772492 26.470767 
L 188.337288 26.552734 
L 185.902084 29.991626 
L 183.466879 27.97215 
L 181.031675 27.133658 
L 178.59647 29.255761 
L 176.161266 26.897142 
L 173.726062 27.150335 
L 171.290857 26.91766 
L 168.855653 26.552734 
L 166.420448 27.986353 
L 163.985244 28.39888 
L 161.55004 27.682658 
L 159.114835 26.838239 
L 156.679631 27.349328 
L 154.244426 28.513741 
L 151.809222 26.602201 
L 149.374018 27.864524 
L 146.938813 28.516881 
L 144.503609 26.651143 
L 142.068405 27.198536 
L 139.6332 24.387076 
L 137.197996 27.584554 
L 134.762791 28.257023 
L 132.327587 27.806188 
L 129.892383 26.921356 
L 127.457178 27.024353 
L 125.021974 28.256155 
L 122.586769 25.9998 
L 120.151565 31.264338 
L 117.716361 26.896377 
L 115.281156 26.65775 
L 112.845952 26.059068 
L 110.410747 27.18527 
L 107.975543 27.250513 
L 105.540339 26.768797 
L 103.105134 26.705872 
L 100.66993 30.83887 
L 98.234725 28.463823 
L 95.799521 30.378647 
L 93.364317 28.514202 
L 90.929112 28.315882 
L 88.493908 35.1699 
L 86.058703 24.110909 
L 83.623499 48.906792 
L 81.188295 55.811163 
L 78.75309 68.015861 
L 76.317886 78.936272 
L 73.882682 121.839203 
L 71.447477 187.966592 
L 69.012273 240.9973 
z
" style="fill:#ff7f0e;fill-opacity:0.25;"/>
   </g>
   <g id="PolyCollection_3">
    <path clip-path="url(#p177116f41f)" d="M 69.012273 218.532201 
L 69.012273 290.329091 
L 71.447477 190.703217 
L 73.882682 113.651747 
L 76.317886 99.615321 
L 78.75309 74.497125 
L 81.188295 46.710673 
L 83.623499 38.980444 
L 86.058703 47.369494 
L 88.493908 35.265685 
L 90.929112 32.588929 
L 93.364317 33.082798 
L 95.799521 36.517444 
L 98.234725 40.825904 
L 100.66993 31.621295 
L 103.105134 39.419086 
L 105.540339 36.691095 
L 107.975543 28.441925 
L 110.410747 33.442797 
L 112.845952 38.6846 
L 115.281156 35.819732 
L 117.716361 32.38366 
L 120.151565 35.835534 
L 122.586769 38.699854 
L 125.021974 32.035995 
L 127.457178 34.90458 
L 129.892383 32.773241 
L 132.327587 27.612524 
L 134.762791 36.947974 
L 137.197996 27.612524 
L 139.6332 30.687866 
L 142.068405 28.441925 
L 144.503609 31.366647 
L 146.938813 35.542282 
L 149.374018 32.396405 
L 151.809222 32.127298 
L 154.244426 35.466094 
L 156.679631 32.328049 
L 159.114835 34.528262 
L 161.55004 30.423271 
L 163.985244 30.731715 
L 166.420448 32.224762 
L 168.855653 35.215366 
L 171.290857 34.174768 
L 173.726062 37.648178 
L 176.161266 34.006856 
L 178.59647 37.621873 
L 181.031675 31.787499 
L 183.466879 33.474153 
L 185.902084 30.791894 
L 188.337288 39.580722 
L 190.772492 36.022159 
L 193.207697 33.799724 
L 195.642901 32.850263 
L 198.078106 35.265685 
L 200.51331 32.646874 
L 202.948514 31.668783 
L 205.383719 28.441925 
L 207.818923 32.889863 
L 210.254128 34.222271 
L 212.689332 32.646874 
L 215.124536 34.024316 
L 217.559741 33.027949 
L 219.994945 27.612524 
L 222.430149 30.463736 
L 224.865354 31.552001 
L 227.300558 33.939551 
L 229.735763 27.612524 
L 232.170967 31.429618 
L 234.606171 30.23896 
L 237.041376 31.897762 
L 239.47658 31.787499 
L 241.911785 32.211204 
L 244.346989 32.57776 
L 246.782193 30.892889 
L 249.217398 34.8112 
L 251.652602 30.791894 
L 254.087807 33.554003 
L 256.523011 29.82426 
L 258.958215 28.994859 
L 261.39342 30.341552 
L 263.828624 27.612524 
L 266.263829 32.2982 
L 268.699033 30.791894 
L 271.134237 32.396405 
L 273.569442 31.001185 
L 276.004646 27.612524 
L 278.439851 33.952294 
L 280.875055 32.588929 
L 283.310259 34.555101 
L 285.745464 34.528262 
L 288.180668 30.791894 
L 290.615872 32.727163 
L 293.051077 31.001185 
L 295.486281 32.2982 
L 297.921486 29.82426 
L 300.35669 30.791894 
L 302.791894 27.612524 
L 305.227099 33.302319 
L 307.662303 31.366647 
L 310.097508 27.612524 
L 312.532712 34.237241 
L 314.967916 32.035995 
L 317.403121 31.668783 
L 319.838325 40.561824 
L 322.27353 30.791894 
L 324.708734 32.035995 
L 327.143938 31.897762 
L 329.579143 28.441925 
L 332.014347 33.825043 
L 334.449552 27.612524 
L 336.884756 32.224762 
L 339.31996 31.206595 
L 341.755165 29.82426 
L 344.190369 30.791894 
L 346.625574 30.892889 
L 349.060778 27.612524 
L 351.495982 27.612524 
L 353.931187 28.441925 
L 356.366391 27.612524 
L 358.801595 27.612524 
L 361.2368 27.612524 
L 363.672004 27.612524 
L 366.107209 28.441925 
L 368.542413 27.612524 
L 370.977617 29.82426 
L 373.412822 28.441925 
L 375.848026 30.065753 
L 378.283231 29.82426 
L 380.718435 28.994859 
L 383.153639 30.065753 
L 385.588844 27.612524 
L 388.024048 29.119128 
L 390.459253 29.29857 
L 392.894457 30.791894 
L 395.329661 32.102959 
L 397.764866 29.82426 
L 400.20007 29.409559 
L 402.635275 29.675345 
L 405.070479 27.612524 
L 407.505683 27.612524 
L 409.940888 27.612524 
L 412.376092 27.612524 
L 414.811297 30.791894 
L 417.246501 28.441925 
L 419.681705 28.441925 
L 422.11691 27.612524 
L 424.552114 27.612524 
L 426.987318 30.791894 
L 429.422523 27.612524 
L 431.857727 33.971264 
L 431.857727 25.492944 
L 431.857727 25.492944 
L 429.422523 27.612524 
L 426.987318 26.552734 
L 424.552114 27.612524 
L 422.11691 27.612524 
L 419.681705 27.336057 
L 417.246501 27.336057 
L 414.811297 26.552734 
L 412.376092 27.612524 
L 409.940888 27.612524 
L 407.505683 27.612524 
L 405.070479 27.612524 
L 402.635275 27.30066 
L 400.20007 27.013512 
L 397.764866 26.875278 
L 395.329661 27.914183 
L 392.894457 26.552734 
L 390.459253 27.400968 
L 388.024048 27.764722 
L 385.588844 27.612524 
L 383.153639 27.186719 
L 380.718435 27.151745 
L 378.283231 26.875278 
L 375.848026 27.186719 
L 373.412822 27.336057 
L 370.977617 26.875278 
L 368.542413 27.612524 
L 366.107209 27.336057 
L 363.672004 27.612524 
L 361.2368 27.612524 
L 358.801595 27.612524 
L 356.366391 27.612524 
L 353.931187 27.336057 
L 351.495982 27.612524 
L 349.060778 27.612524 
L 346.625574 27.28114 
L 344.190369 26.552734 
L 341.755165 26.875278 
L 339.31996 27.888991 
L 336.884756 26.5022 
L 334.449552 27.612524 
L 332.014347 29.048925 
L 329.579143 27.336057 
L 327.143938 26.184111 
L 324.708734 26.138033 
L 322.27353 26.552734 
L 319.838325 27.196393 
L 317.403121 27.150335 
L 314.967916 26.138033 
L 312.532712 28.175948 
L 310.097508 27.612524 
L 307.662303 27.452471 
L 305.227099 27.452068 
L 302.791894 27.612524 
L 300.35669 26.552734 
L 297.921486 26.875278 
L 295.486281 27.995409 
L 293.051077 26.896377 
L 290.615872 25.907644 
L 288.180668 26.552734 
L 285.745464 26.686904 
L 283.310259 28.134555 
L 280.875055 25.953722 
L 278.439851 27.815806 
L 276.004646 27.612524 
L 273.569442 26.896377 
L 271.134237 26.975647 
L 268.699033 27.289979 
L 266.263829 27.995409 
L 263.828624 27.612524 
L 261.39342 27.279542 
L 258.958215 27.151745 
L 256.523011 26.875278 
L 254.087807 26.923917 
L 251.652602 26.552734 
L 249.217398 30.366659 
L 246.782193 27.28114 
L 244.346989 26.886448 
L 241.911785 29.188273 
L 239.47658 27.584554 
L 237.041376 26.184111 
L 234.606171 26.737045 
L 232.170967 27.113033 
L 229.735763 27.612524 
L 227.300558 28.01286 
L 224.865354 28.557296 
L 222.430149 27.065203 
L 219.994945 27.612524 
L 217.559741 26.804882 
L 215.124536 27.928095 
L 212.689332 26.90949 
L 210.254128 28.743852 
L 207.818923 27.31159 
L 205.383719 27.336057 
L 202.948514 27.150335 
L 200.51331 26.90949 
L 198.078106 28.253372 
L 195.642901 30.76095 
L 193.207697 27.968375 
L 190.772492 27.404742 
L 188.337288 31.126476 
L 185.902084 26.552734 
L 183.466879 28.017479 
L 181.031675 27.584554 
L 178.59647 28.477542 
L 176.161266 25.91813 
L 173.726062 28.082615 
L 171.290857 31.832491 
L 168.855653 25.078243 
L 166.420448 26.5022 
L 163.985244 26.981535 
L 161.55004 27.289979 
L 159.114835 26.686904 
L 156.679631 27.136159 
L 154.244426 27.407873 
L 151.809222 27.152599 
L 149.374018 26.975647 
L 146.938813 28.253241 
L 144.503609 27.452471 
L 142.068405 27.336057 
L 139.6332 27.301851 
L 137.197996 27.612524 
L 134.762791 30.718088 
L 132.327587 27.612524 
L 129.892383 26.875278 
L 127.457178 26.587053 
L 125.021974 26.138033 
L 122.586769 25.925071 
L 120.151565 28.789391 
L 117.716361 28.555039 
L 115.281156 27.883636 
L 112.845952 30.271641 
L 110.410747 27.864524 
L 107.975543 27.336057 
L 105.540339 28.118141 
L 103.105134 28.431287 
L 100.66993 26.276267 
L 98.234725 27.85387 
L 95.799521 28.476103 
L 93.364317 27.210811 
L 90.929112 25.953722 
L 88.493908 28.253372 
L 86.058703 34.949318 
L 83.623499 31.173821 
L 81.188295 27.129818 
L 78.75309 44.591796 
L 76.317886 46.843831 
L 73.882682 68.195179 
L 71.447477 83.575838 
L 69.012273 218.532201 
z
" style="fill:#2ca02c;fill-opacity:0.25;"/>
   </g>
   <g id="matplotlib.axis_1">
    <g id="xtick_1">
     <g id="line2d_1">
      <defs>
       <path d="M 0 0 
L 0 3.5 
" id="mdd18912b3e" style="stroke:#000000;stroke-width:0.8;"/>
      </defs>
      <g>
       <use style="stroke:#000000;stroke-width:0.8;" x="69.012273" xlink:href="#mdd18912b3e" y="303.64"/>
      </g>
     </g>
     <g id="text_1">
      <!-- 0 -->
      <g transform="translate(65.831023 318.238437)scale(0.1 -0.1)">
       <defs>
        <path d="M 31.78125 66.40625 
Q 24.171875 66.40625 20.328125 58.90625 
Q 16.5 51.421875 16.5 36.375 
Q 16.5 21.390625 20.328125 13.890625 
Q 24.171875 6.390625 31.78125 6.390625 
Q 39.453125 6.390625 43.28125 13.890625 
Q 47.125 21.390625 47.125 36.375 
Q 47.125 51.421875 43.28125 58.90625 
Q 39.453125 66.40625 31.78125 66.40625 
z
M 31.78125 74.21875 
Q 44.046875 74.21875 50.515625 64.515625 
Q 56.984375 54.828125 56.984375 36.375 
Q 56.984375 17.96875 50.515625 8.265625 
Q 44.046875 -1.421875 31.78125 -1.421875 
Q 19.53125 -1.421875 13.0625 8.265625 
Q 6.59375 17.96875 6.59375 36.375 
Q 6.59375 54.828125 13.0625 64.515625 
Q 19.53125 74.21875 31.78125 74.21875 
z
" id="DejaVuSans-48"/>
       </defs>
       <use xlink:href="#DejaVuSans-48"/>
      </g>
     </g>
    </g>
    <g id="xtick_2">
     <g id="line2d_2">
      <g>
       <use style="stroke:#000000;stroke-width:0.8;" x="117.716361" xlink:href="#mdd18912b3e" y="303.64"/>
      </g>
     </g>
     <g id="text_2">
      <!-- 20 -->
      <g transform="translate(111.353861 318.238437)scale(0.1 -0.1)">
       <defs>
        <path d="M 19.1875 8.296875 
L 53.609375 8.296875 
L 53.609375 0 
L 7.328125 0 
L 7.328125 8.296875 
Q 12.9375 14.109375 22.625 23.890625 
Q 32.328125 33.6875 34.8125 36.53125 
Q 39.546875 41.84375 41.421875 45.53125 
Q 43.3125 49.21875 43.3125 52.78125 
Q 43.3125 58.59375 39.234375 62.25 
Q 35.15625 65.921875 28.609375 65.921875 
Q 23.96875 65.921875 18.8125 64.3125 
Q 13.671875 62.703125 7.8125 59.421875 
L 7.8125 69.390625 
Q 13.765625 71.78125 18.9375 73 
Q 24.125 74.21875 28.421875 74.21875 
Q 39.75 74.21875 46.484375 68.546875 
Q 53.21875 62.890625 53.21875 53.421875 
Q 53.21875 48.921875 51.53125 44.890625 
Q 49.859375 40.875 45.40625 35.40625 
Q 44.1875 33.984375 37.640625 27.21875 
Q 31.109375 20.453125 19.1875 8.296875 
z
" id="DejaVuSans-50"/>
       </defs>
       <use xlink:href="#DejaVuSans-50"/>
       <use x="63.623047" xlink:href="#DejaVuSans-48"/>
      </g>
     </g>
    </g>
    <g id="xtick_3">
     <g id="line2d_3">
      <g>
       <use style="stroke:#000000;stroke-width:0.8;" x="166.420448" xlink:href="#mdd18912b3e" y="303.64"/>
      </g>
     </g>
     <g id="text_3">
      <!-- 40 -->
      <g transform="translate(160.057948 318.238437)scale(0.1 -0.1)">
       <defs>
        <path d="M 37.796875 64.3125 
L 12.890625 25.390625 
L 37.796875 25.390625 
z
M 35.203125 72.90625 
L 47.609375 72.90625 
L 47.609375 25.390625 
L 58.015625 25.390625 
L 58.015625 17.1875 
L 47.609375 17.1875 
L 47.609375 0 
L 37.796875 0 
L 37.796875 17.1875 
L 4.890625 17.1875 
L 4.890625 26.703125 
z
" id="DejaVuSans-52"/>
       </defs>
       <use xlink:href="#DejaVuSans-52"/>
       <use x="63.623047" xlink:href="#DejaVuSans-48"/>
      </g>
     </g>
    </g>
    <g id="xtick_4">
     <g id="line2d_4">
      <g>
       <use style="stroke:#000000;stroke-width:0.8;" x="215.124536" xlink:href="#mdd18912b3e" y="303.64"/>
      </g>
     </g>
     <g id="text_4">
      <!-- 60 -->
      <g transform="translate(208.762036 318.238437)scale(0.1 -0.1)">
       <defs>
        <path d="M 33.015625 40.375 
Q 26.375 40.375 22.484375 35.828125 
Q 18.609375 31.296875 18.609375 23.390625 
Q 18.609375 15.53125 22.484375 10.953125 
Q 26.375 6.390625 33.015625 6.390625 
Q 39.65625 6.390625 43.53125 10.953125 
Q 47.40625 15.53125 47.40625 23.390625 
Q 47.40625 31.296875 43.53125 35.828125 
Q 39.65625 40.375 33.015625 40.375 
z
M 52.59375 71.296875 
L 52.59375 62.3125 
Q 48.875 64.0625 45.09375 64.984375 
Q 41.3125 65.921875 37.59375 65.921875 
Q 27.828125 65.921875 22.671875 59.328125 
Q 17.53125 52.734375 16.796875 39.40625 
Q 19.671875 43.65625 24.015625 45.921875 
Q 28.375 48.1875 33.59375 48.1875 
Q 44.578125 48.1875 50.953125 41.515625 
Q 57.328125 34.859375 57.328125 23.390625 
Q 57.328125 12.15625 50.6875 5.359375 
Q 44.046875 -1.421875 33.015625 -1.421875 
Q 20.359375 -1.421875 13.671875 8.265625 
Q 6.984375 17.96875 6.984375 36.375 
Q 6.984375 53.65625 15.1875 63.9375 
Q 23.390625 74.21875 37.203125 74.21875 
Q 40.921875 74.21875 44.703125 73.484375 
Q 48.484375 72.75 52.59375 71.296875 
z
" id="DejaVuSans-54"/>
       </defs>
       <use xlink:href="#DejaVuSans-54"/>
       <use x="63.623047" xlink:href="#DejaVuSans-48"/>
      </g>
     </g>
    </g>
    <g id="xtick_5">
     <g id="line2d_5">
      <g>
       <use style="stroke:#000000;stroke-width:0.8;" x="263.828624" xlink:href="#mdd18912b3e" y="303.64"/>
      </g>
     </g>
     <g id="text_5">
      <!-- 80 -->
      <g transform="translate(257.466124 318.238437)scale(0.1 -0.1)">
       <defs>
        <path d="M 31.78125 34.625 
Q 24.75 34.625 20.71875 30.859375 
Q 16.703125 27.09375 16.703125 20.515625 
Q 16.703125 13.921875 20.71875 10.15625 
Q 24.75 6.390625 31.78125 6.390625 
Q 38.8125 6.390625 42.859375 10.171875 
Q 46.921875 13.96875 46.921875 20.515625 
Q 46.921875 27.09375 42.890625 30.859375 
Q 38.875 34.625 31.78125 34.625 
z
M 21.921875 38.8125 
Q 15.578125 40.375 12.03125 44.71875 
Q 8.5 49.078125 8.5 55.328125 
Q 8.5 64.0625 14.71875 69.140625 
Q 20.953125 74.21875 31.78125 74.21875 
Q 42.671875 74.21875 48.875 69.140625 
Q 55.078125 64.0625 55.078125 55.328125 
Q 55.078125 49.078125 51.53125 44.71875 
Q 48 40.375 41.703125 38.8125 
Q 48.828125 37.15625 52.796875 32.3125 
Q 56.78125 27.484375 56.78125 20.515625 
Q 56.78125 9.90625 50.3125 4.234375 
Q 43.84375 -1.421875 31.78125 -1.421875 
Q 19.734375 -1.421875 13.25 4.234375 
Q 6.78125 9.90625 6.78125 20.515625 
Q 6.78125 27.484375 10.78125 32.3125 
Q 14.796875 37.15625 21.921875 38.8125 
z
M 18.3125 54.390625 
Q 18.3125 48.734375 21.84375 45.5625 
Q 25.390625 42.390625 31.78125 42.390625 
Q 38.140625 42.390625 41.71875 45.5625 
Q 45.3125 48.734375 45.3125 54.390625 
Q 45.3125 60.0625 41.71875 63.234375 
Q 38.140625 66.40625 31.78125 66.40625 
Q 25.390625 66.40625 21.84375 63.234375 
Q 18.3125 60.0625 18.3125 54.390625 
z
" id="DejaVuSans-56"/>
       </defs>
       <use xlink:href="#DejaVuSans-56"/>
       <use x="63.623047" xlink:href="#DejaVuSans-48"/>
      </g>
     </g>
    </g>
    <g id="xtick_6">
     <g id="line2d_6">
      <g>
       <use style="stroke:#000000;stroke-width:0.8;" x="312.532712" xlink:href="#mdd18912b3e" y="303.64"/>
      </g>
     </g>
     <g id="text_6">
      <!-- 100 -->
      <g transform="translate(302.988962 318.238437)scale(0.1 -0.1)">
       <defs>
        <path d="M 12.40625 8.296875 
L 28.515625 8.296875 
L 28.515625 63.921875 
L 10.984375 60.40625 
L 10.984375 69.390625 
L 28.421875 72.90625 
L 38.28125 72.90625 
L 38.28125 8.296875 
L 54.390625 8.296875 
L 54.390625 0 
L 12.40625 0 
z
" id="DejaVuSans-49"/>
       </defs>
       <use xlink:href="#DejaVuSans-49"/>
       <use x="63.623047" xlink:href="#DejaVuSans-48"/>
       <use x="127.246094" xlink:href="#DejaVuSans-48"/>
      </g>
     </g>
    </g>
    <g id="xtick_7">
     <g id="line2d_7">
      <g>
       <use style="stroke:#000000;stroke-width:0.8;" x="361.2368" xlink:href="#mdd18912b3e" y="303.64"/>
      </g>
     </g>
     <g id="text_7">
      <!-- 120 -->
      <g transform="translate(351.69305 318.238437)scale(0.1 -0.1)">
       <use xlink:href="#DejaVuSans-49"/>
       <use x="63.623047" xlink:href="#DejaVuSans-50"/>
       <use x="127.246094" xlink:href="#DejaVuSans-48"/>
      </g>
     </g>
    </g>
    <g id="xtick_8">
     <g id="line2d_8">
      <g>
       <use style="stroke:#000000;stroke-width:0.8;" x="409.940888" xlink:href="#mdd18912b3e" y="303.64"/>
      </g>
     </g>
     <g id="text_8">
      <!-- 140 -->
      <g transform="translate(400.397138 318.238437)scale(0.1 -0.1)">
       <use xlink:href="#DejaVuSans-49"/>
       <use x="63.623047" xlink:href="#DejaVuSans-52"/>
       <use x="127.246094" xlink:href="#DejaVuSans-48"/>
      </g>
     </g>
    </g>
    <g id="text_9">
     <!-- Epochs -->
     <g transform="translate(232.519375 331.916562)scale(0.1 -0.1)">
      <defs>
       <path d="M 9.8125 72.90625 
L 55.90625 72.90625 
L 55.90625 64.59375 
L 19.671875 64.59375 
L 19.671875 43.015625 
L 54.390625 43.015625 
L 54.390625 34.71875 
L 19.671875 34.71875 
L 19.671875 8.296875 
L 56.78125 8.296875 
L 56.78125 0 
L 9.8125 0 
z
" id="DejaVuSans-69"/>
       <path d="M 18.109375 8.203125 
L 18.109375 -20.796875 
L 9.078125 -20.796875 
L 9.078125 54.6875 
L 18.109375 54.6875 
L 18.109375 46.390625 
Q 20.953125 51.265625 25.265625 53.625 
Q 29.59375 56 35.59375 56 
Q 45.5625 56 51.78125 48.09375 
Q 58.015625 40.1875 58.015625 27.296875 
Q 58.015625 14.40625 51.78125 6.484375 
Q 45.5625 -1.421875 35.59375 -1.421875 
Q 29.59375 -1.421875 25.265625 0.953125 
Q 20.953125 3.328125 18.109375 8.203125 
z
M 48.6875 27.296875 
Q 48.6875 37.203125 44.609375 42.84375 
Q 40.53125 48.484375 33.40625 48.484375 
Q 26.265625 48.484375 22.1875 42.84375 
Q 18.109375 37.203125 18.109375 27.296875 
Q 18.109375 17.390625 22.1875 11.75 
Q 26.265625 6.109375 33.40625 6.109375 
Q 40.53125 6.109375 44.609375 11.75 
Q 48.6875 17.390625 48.6875 27.296875 
z
" id="DejaVuSans-112"/>
       <path d="M 30.609375 48.390625 
Q 23.390625 48.390625 19.1875 42.75 
Q 14.984375 37.109375 14.984375 27.296875 
Q 14.984375 17.484375 19.15625 11.84375 
Q 23.34375 6.203125 30.609375 6.203125 
Q 37.796875 6.203125 41.984375 11.859375 
Q 46.1875 17.53125 46.1875 27.296875 
Q 46.1875 37.015625 41.984375 42.703125 
Q 37.796875 48.390625 30.609375 48.390625 
z
M 30.609375 56 
Q 42.328125 56 49.015625 48.375 
Q 55.71875 40.765625 55.71875 27.296875 
Q 55.71875 13.875 49.015625 6.21875 
Q 42.328125 -1.421875 30.609375 -1.421875 
Q 18.84375 -1.421875 12.171875 6.21875 
Q 5.515625 13.875 5.515625 27.296875 
Q 5.515625 40.765625 12.171875 48.375 
Q 18.84375 56 30.609375 56 
z
" id="DejaVuSans-111"/>
       <path d="M 48.78125 52.59375 
L 48.78125 44.1875 
Q 44.96875 46.296875 41.140625 47.34375 
Q 37.3125 48.390625 33.40625 48.390625 
Q 24.65625 48.390625 19.8125 42.84375 
Q 14.984375 37.3125 14.984375 27.296875 
Q 14.984375 17.28125 19.8125 11.734375 
Q 24.65625 6.203125 33.40625 6.203125 
Q 37.3125 6.203125 41.140625 7.25 
Q 44.96875 8.296875 48.78125 10.40625 
L 48.78125 2.09375 
Q 45.015625 0.34375 40.984375 -0.53125 
Q 36.96875 -1.421875 32.421875 -1.421875 
Q 20.0625 -1.421875 12.78125 6.34375 
Q 5.515625 14.109375 5.515625 27.296875 
Q 5.515625 40.671875 12.859375 48.328125 
Q 20.21875 56 33.015625 56 
Q 37.15625 56 41.109375 55.140625 
Q 45.0625 54.296875 48.78125 52.59375 
z
" id="DejaVuSans-99"/>
       <path d="M 54.890625 33.015625 
L 54.890625 0 
L 45.90625 0 
L 45.90625 32.71875 
Q 45.90625 40.484375 42.875 44.328125 
Q 39.84375 48.1875 33.796875 48.1875 
Q 26.515625 48.1875 22.3125 43.546875 
Q 18.109375 38.921875 18.109375 30.90625 
L 18.109375 0 
L 9.078125 0 
L 9.078125 75.984375 
L 18.109375 75.984375 
L 18.109375 46.1875 
Q 21.34375 51.125 25.703125 53.5625 
Q 30.078125 56 35.796875 56 
Q 45.21875 56 50.046875 50.171875 
Q 54.890625 44.34375 54.890625 33.015625 
z
" id="DejaVuSans-104"/>
       <path d="M 44.28125 53.078125 
L 44.28125 44.578125 
Q 40.484375 46.53125 36.375 47.5 
Q 32.28125 48.484375 27.875 48.484375 
Q 21.1875 48.484375 17.84375 46.4375 
Q 14.5 44.390625 14.5 40.28125 
Q 14.5 37.15625 16.890625 35.375 
Q 19.28125 33.59375 26.515625 31.984375 
L 29.59375 31.296875 
Q 39.15625 29.25 43.1875 25.515625 
Q 47.21875 21.78125 47.21875 15.09375 
Q 47.21875 7.46875 41.1875 3.015625 
Q 35.15625 -1.421875 24.609375 -1.421875 
Q 20.21875 -1.421875 15.453125 -0.5625 
Q 10.6875 0.296875 5.421875 2 
L 5.421875 11.28125 
Q 10.40625 8.6875 15.234375 7.390625 
Q 20.0625 6.109375 24.8125 6.109375 
Q 31.15625 6.109375 34.5625 8.28125 
Q 37.984375 10.453125 37.984375 14.40625 
Q 37.984375 18.0625 35.515625 20.015625 
Q 33.0625 21.96875 24.703125 23.78125 
L 21.578125 24.515625 
Q 13.234375 26.265625 9.515625 29.90625 
Q 5.8125 33.546875 5.8125 39.890625 
Q 5.8125 47.609375 11.28125 51.796875 
Q 16.75 56 26.8125 56 
Q 31.78125 56 36.171875 55.265625 
Q 40.578125 54.546875 44.28125 53.078125 
z
" id="DejaVuSans-115"/>
      </defs>
      <use xlink:href="#DejaVuSans-69"/>
      <use x="63.183594" xlink:href="#DejaVuSans-112"/>
      <use x="126.660156" xlink:href="#DejaVuSans-111"/>
      <use x="187.841797" xlink:href="#DejaVuSans-99"/>
      <use x="242.822266" xlink:href="#DejaVuSans-104"/>
      <use x="306.201172" xlink:href="#DejaVuSans-115"/>
     </g>
    </g>
   </g>
   <g id="matplotlib.axis_2">
    <g id="ytick_1">
     <g id="line2d_9">
      <defs>
       <path d="M 0 0 
L -3.5 0 
" id="m988ecc0743" style="stroke:#000000;stroke-width:0.8;"/>
      </defs>
      <g>
       <use style="stroke:#000000;stroke-width:0.8;" x="50.87" xlink:href="#m988ecc0743" y="263.531017"/>
      </g>
     </g>
     <g id="text_10">
      <!-- 50 -->
      <g transform="translate(31.145 267.330236)scale(0.1 -0.1)">
       <defs>
        <path d="M 10.796875 72.90625 
L 49.515625 72.90625 
L 49.515625 64.59375 
L 19.828125 64.59375 
L 19.828125 46.734375 
Q 21.96875 47.46875 24.109375 47.828125 
Q 26.265625 48.1875 28.421875 48.1875 
Q 40.625 48.1875 47.75 41.5 
Q 54.890625 34.8125 54.890625 23.390625 
Q 54.890625 11.625 47.5625 5.09375 
Q 40.234375 -1.421875 26.90625 -1.421875 
Q 22.3125 -1.421875 17.546875 -0.640625 
Q 12.796875 0.140625 7.71875 1.703125 
L 7.71875 11.625 
Q 12.109375 9.234375 16.796875 8.0625 
Q 21.484375 6.890625 26.703125 6.890625 
Q 35.15625 6.890625 40.078125 11.328125 
Q 45.015625 15.765625 45.015625 23.390625 
Q 45.015625 31 40.078125 35.4375 
Q 35.15625 39.890625 26.703125 39.890625 
Q 22.75 39.890625 18.8125 39.015625 
Q 14.890625 38.140625 10.796875 36.28125 
z
" id="DejaVuSans-53"/>
       </defs>
       <use xlink:href="#DejaVuSans-53"/>
       <use x="63.623047" xlink:href="#DejaVuSans-48"/>
      </g>
     </g>
    </g>
    <g id="ytick_2">
     <g id="line2d_10">
      <g>
       <use style="stroke:#000000;stroke-width:0.8;" x="50.87" xlink:href="#m988ecc0743" y="216.347319"/>
      </g>
     </g>
     <g id="text_11">
      <!-- 60 -->
      <g transform="translate(31.145 220.146537)scale(0.1 -0.1)">
       <use xlink:href="#DejaVuSans-54"/>
       <use x="63.623047" xlink:href="#DejaVuSans-48"/>
      </g>
     </g>
    </g>
    <g id="ytick_3">
     <g id="line2d_11">
      <g>
       <use style="stroke:#000000;stroke-width:0.8;" x="50.87" xlink:href="#m988ecc0743" y="169.16362"/>
      </g>
     </g>
     <g id="text_12">
      <!-- 70 -->
      <g transform="translate(31.145 172.962839)scale(0.1 -0.1)">
       <defs>
        <path d="M 8.203125 72.90625 
L 55.078125 72.90625 
L 55.078125 68.703125 
L 28.609375 0 
L 18.3125 0 
L 43.21875 64.59375 
L 8.203125 64.59375 
z
" id="DejaVuSans-55"/>
       </defs>
       <use xlink:href="#DejaVuSans-55"/>
       <use x="63.623047" xlink:href="#DejaVuSans-48"/>
      </g>
     </g>
    </g>
    <g id="ytick_4">
     <g id="line2d_12">
      <g>
       <use style="stroke:#000000;stroke-width:0.8;" x="50.87" xlink:href="#m988ecc0743" y="121.979921"/>
      </g>
     </g>
     <g id="text_13">
      <!-- 80 -->
      <g transform="translate(31.145 125.77914)scale(0.1 -0.1)">
       <use xlink:href="#DejaVuSans-56"/>
       <use x="63.623047" xlink:href="#DejaVuSans-48"/>
      </g>
     </g>
    </g>
    <g id="ytick_5">
     <g id="line2d_13">
      <g>
       <use style="stroke:#000000;stroke-width:0.8;" x="50.87" xlink:href="#m988ecc0743" y="74.796222"/>
      </g>
     </g>
     <g id="text_14">
      <!-- 90 -->
      <g transform="translate(31.145 78.595441)scale(0.1 -0.1)">
       <defs>
        <path d="M 10.984375 1.515625 
L 10.984375 10.5 
Q 14.703125 8.734375 18.5 7.8125 
Q 22.3125 6.890625 25.984375 6.890625 
Q 35.75 6.890625 40.890625 13.453125 
Q 46.046875 20.015625 46.78125 33.40625 
Q 43.953125 29.203125 39.59375 26.953125 
Q 35.25 24.703125 29.984375 24.703125 
Q 19.046875 24.703125 12.671875 31.3125 
Q 6.296875 37.9375 6.296875 49.421875 
Q 6.296875 60.640625 12.9375 67.421875 
Q 19.578125 74.21875 30.609375 74.21875 
Q 43.265625 74.21875 49.921875 64.515625 
Q 56.59375 54.828125 56.59375 36.375 
Q 56.59375 19.140625 48.40625 8.859375 
Q 40.234375 -1.421875 26.421875 -1.421875 
Q 22.703125 -1.421875 18.890625 -0.6875 
Q 15.09375 0.046875 10.984375 1.515625 
z
M 30.609375 32.421875 
Q 37.25 32.421875 41.125 36.953125 
Q 45.015625 41.5 45.015625 49.421875 
Q 45.015625 57.28125 41.125 61.84375 
Q 37.25 66.40625 30.609375 66.40625 
Q 23.96875 66.40625 20.09375 61.84375 
Q 16.21875 57.28125 16.21875 49.421875 
Q 16.21875 41.5 20.09375 36.953125 
Q 23.96875 32.421875 30.609375 32.421875 
z
" id="DejaVuSans-57"/>
       </defs>
       <use xlink:href="#DejaVuSans-57"/>
       <use x="63.623047" xlink:href="#DejaVuSans-48"/>
      </g>
     </g>
    </g>
    <g id="ytick_6">
     <g id="line2d_14">
      <g>
       <use style="stroke:#000000;stroke-width:0.8;" x="50.87" xlink:href="#m988ecc0743" y="27.612524"/>
      </g>
     </g>
     <g id="text_15">
      <!-- 100 -->
      <g transform="translate(24.7825 31.411742)scale(0.1 -0.1)">
       <use xlink:href="#DejaVuSans-49"/>
       <use x="63.623047" xlink:href="#DejaVuSans-48"/>
       <use x="127.246094" xlink:href="#DejaVuSans-48"/>
      </g>
     </g>
    </g>
    <g id="text_16">
     <!-- Test Accuracy (%) -->
     <g transform="translate(18.702813 201.723906)rotate(-90)scale(0.1 -0.1)">
      <defs>
       <path d="M -0.296875 72.90625 
L 61.375 72.90625 
L 61.375 64.59375 
L 35.5 64.59375 
L 35.5 0 
L 25.59375 0 
L 25.59375 64.59375 
L -0.296875 64.59375 
z
" id="DejaVuSans-84"/>
       <path d="M 56.203125 29.59375 
L 56.203125 25.203125 
L 14.890625 25.203125 
Q 15.484375 15.921875 20.484375 11.0625 
Q 25.484375 6.203125 34.421875 6.203125 
Q 39.59375 6.203125 44.453125 7.46875 
Q 49.3125 8.734375 54.109375 11.28125 
L 54.109375 2.78125 
Q 49.265625 0.734375 44.1875 -0.34375 
Q 39.109375 -1.421875 33.890625 -1.421875 
Q 20.796875 -1.421875 13.15625 6.1875 
Q 5.515625 13.8125 5.515625 26.8125 
Q 5.515625 40.234375 12.765625 48.109375 
Q 20.015625 56 32.328125 56 
Q 43.359375 56 49.78125 48.890625 
Q 56.203125 41.796875 56.203125 29.59375 
z
M 47.21875 32.234375 
Q 47.125 39.59375 43.09375 43.984375 
Q 39.0625 48.390625 32.421875 48.390625 
Q 24.90625 48.390625 20.390625 44.140625 
Q 15.875 39.890625 15.1875 32.171875 
z
" id="DejaVuSans-101"/>
       <path d="M 18.3125 70.21875 
L 18.3125 54.6875 
L 36.8125 54.6875 
L 36.8125 47.703125 
L 18.3125 47.703125 
L 18.3125 18.015625 
Q 18.3125 11.328125 20.140625 9.421875 
Q 21.96875 7.515625 27.59375 7.515625 
L 36.8125 7.515625 
L 36.8125 0 
L 27.59375 0 
Q 17.1875 0 13.234375 3.875 
Q 9.28125 7.765625 9.28125 18.015625 
L 9.28125 47.703125 
L 2.6875 47.703125 
L 2.6875 54.6875 
L 9.28125 54.6875 
L 9.28125 70.21875 
z
" id="DejaVuSans-116"/>
       <path id="DejaVuSans-32"/>
       <path d="M 34.1875 63.1875 
L 20.796875 26.90625 
L 47.609375 26.90625 
z
M 28.609375 72.90625 
L 39.796875 72.90625 
L 67.578125 0 
L 57.328125 0 
L 50.6875 18.703125 
L 17.828125 18.703125 
L 11.1875 0 
L 0.78125 0 
z
" id="DejaVuSans-65"/>
       <path d="M 8.5 21.578125 
L 8.5 54.6875 
L 17.484375 54.6875 
L 17.484375 21.921875 
Q 17.484375 14.15625 20.5 10.265625 
Q 23.53125 6.390625 29.59375 6.390625 
Q 36.859375 6.390625 41.078125 11.03125 
Q 45.3125 15.671875 45.3125 23.6875 
L 45.3125 54.6875 
L 54.296875 54.6875 
L 54.296875 0 
L 45.3125 0 
L 45.3125 8.40625 
Q 42.046875 3.421875 37.71875 1 
Q 33.40625 -1.421875 27.6875 -1.421875 
Q 18.265625 -1.421875 13.375 4.4375 
Q 8.5 10.296875 8.5 21.578125 
z
M 31.109375 56 
z
" id="DejaVuSans-117"/>
       <path d="M 41.109375 46.296875 
Q 39.59375 47.171875 37.8125 47.578125 
Q 36.03125 48 33.890625 48 
Q 26.265625 48 22.1875 43.046875 
Q 18.109375 38.09375 18.109375 28.8125 
L 18.109375 0 
L 9.078125 0 
L 9.078125 54.6875 
L 18.109375 54.6875 
L 18.109375 46.1875 
Q 20.953125 51.171875 25.484375 53.578125 
Q 30.03125 56 36.53125 56 
Q 37.453125 56 38.578125 55.875 
Q 39.703125 55.765625 41.0625 55.515625 
z
" id="DejaVuSans-114"/>
       <path d="M 34.28125 27.484375 
Q 23.390625 27.484375 19.1875 25 
Q 14.984375 22.515625 14.984375 16.5 
Q 14.984375 11.71875 18.140625 8.90625 
Q 21.296875 6.109375 26.703125 6.109375 
Q 34.1875 6.109375 38.703125 11.40625 
Q 43.21875 16.703125 43.21875 25.484375 
L 43.21875 27.484375 
z
M 52.203125 31.203125 
L 52.203125 0 
L 43.21875 0 
L 43.21875 8.296875 
Q 40.140625 3.328125 35.546875 0.953125 
Q 30.953125 -1.421875 24.3125 -1.421875 
Q 15.921875 -1.421875 10.953125 3.296875 
Q 6 8.015625 6 15.921875 
Q 6 25.140625 12.171875 29.828125 
Q 18.359375 34.515625 30.609375 34.515625 
L 43.21875 34.515625 
L 43.21875 35.40625 
Q 43.21875 41.609375 39.140625 45 
Q 35.0625 48.390625 27.6875 48.390625 
Q 23 48.390625 18.546875 47.265625 
Q 14.109375 46.140625 10.015625 43.890625 
L 10.015625 52.203125 
Q 14.9375 54.109375 19.578125 55.046875 
Q 24.21875 56 28.609375 56 
Q 40.484375 56 46.34375 49.84375 
Q 52.203125 43.703125 52.203125 31.203125 
z
" id="DejaVuSans-97"/>
       <path d="M 32.171875 -5.078125 
Q 28.375 -14.84375 24.75 -17.8125 
Q 21.140625 -20.796875 15.09375 -20.796875 
L 7.90625 -20.796875 
L 7.90625 -13.28125 
L 13.1875 -13.28125 
Q 16.890625 -13.28125 18.9375 -11.515625 
Q 21 -9.765625 23.484375 -3.21875 
L 25.09375 0.875 
L 2.984375 54.6875 
L 12.5 54.6875 
L 29.59375 11.921875 
L 46.6875 54.6875 
L 56.203125 54.6875 
z
" id="DejaVuSans-121"/>
       <path d="M 31 75.875 
Q 24.46875 64.65625 21.28125 53.65625 
Q 18.109375 42.671875 18.109375 31.390625 
Q 18.109375 20.125 21.3125 9.0625 
Q 24.515625 -2 31 -13.1875 
L 23.1875 -13.1875 
Q 15.875 -1.703125 12.234375 9.375 
Q 8.59375 20.453125 8.59375 31.390625 
Q 8.59375 42.28125 12.203125 53.3125 
Q 15.828125 64.359375 23.1875 75.875 
z
" id="DejaVuSans-40"/>
       <path d="M 72.703125 32.078125 
Q 68.453125 32.078125 66.03125 28.46875 
Q 63.625 24.859375 63.625 18.40625 
Q 63.625 12.0625 66.03125 8.421875 
Q 68.453125 4.78125 72.703125 4.78125 
Q 76.859375 4.78125 79.265625 8.421875 
Q 81.6875 12.0625 81.6875 18.40625 
Q 81.6875 24.8125 79.265625 28.4375 
Q 76.859375 32.078125 72.703125 32.078125 
z
M 72.703125 38.28125 
Q 80.421875 38.28125 84.953125 32.90625 
Q 89.5 27.546875 89.5 18.40625 
Q 89.5 9.28125 84.9375 3.921875 
Q 80.375 -1.421875 72.703125 -1.421875 
Q 64.890625 -1.421875 60.34375 3.921875 
Q 55.8125 9.28125 55.8125 18.40625 
Q 55.8125 27.59375 60.375 32.9375 
Q 64.9375 38.28125 72.703125 38.28125 
z
M 22.3125 68.015625 
Q 18.109375 68.015625 15.6875 64.375 
Q 13.28125 60.75 13.28125 54.390625 
Q 13.28125 47.953125 15.671875 44.328125 
Q 18.0625 40.71875 22.3125 40.71875 
Q 26.5625 40.71875 28.96875 44.328125 
Q 31.390625 47.953125 31.390625 54.390625 
Q 31.390625 60.6875 28.953125 64.34375 
Q 26.515625 68.015625 22.3125 68.015625 
z
M 66.40625 74.21875 
L 74.21875 74.21875 
L 28.609375 -1.421875 
L 20.796875 -1.421875 
z
M 22.3125 74.21875 
Q 30.03125 74.21875 34.609375 68.875 
Q 39.203125 63.53125 39.203125 54.390625 
Q 39.203125 45.171875 34.640625 39.84375 
Q 30.078125 34.515625 22.3125 34.515625 
Q 14.546875 34.515625 10.03125 39.859375 
Q 5.515625 45.21875 5.515625 54.390625 
Q 5.515625 63.484375 10.046875 68.84375 
Q 14.59375 74.21875 22.3125 74.21875 
z
" id="DejaVuSans-37"/>
       <path d="M 8.015625 75.875 
L 15.828125 75.875 
Q 23.140625 64.359375 26.78125 53.3125 
Q 30.421875 42.28125 30.421875 31.390625 
Q 30.421875 20.453125 26.78125 9.375 
Q 23.140625 -1.703125 15.828125 -13.1875 
L 8.015625 -13.1875 
Q 14.5 -2 17.703125 9.0625 
Q 20.90625 20.125 20.90625 31.390625 
Q 20.90625 42.671875 17.703125 53.65625 
Q 14.5 64.65625 8.015625 75.875 
z
" id="DejaVuSans-41"/>
      </defs>
      <use xlink:href="#DejaVuSans-84"/>
      <use x="44.083984" xlink:href="#DejaVuSans-101"/>
      <use x="105.607422" xlink:href="#DejaVuSans-115"/>
      <use x="157.707031" xlink:href="#DejaVuSans-116"/>
      <use x="196.916016" xlink:href="#DejaVuSans-32"/>
      <use x="228.703125" xlink:href="#DejaVuSans-65"/>
      <use x="295.361328" xlink:href="#DejaVuSans-99"/>
      <use x="350.341797" xlink:href="#DejaVuSans-99"/>
      <use x="405.322266" xlink:href="#DejaVuSans-117"/>
      <use x="468.701172" xlink:href="#DejaVuSans-114"/>
      <use x="509.814453" xlink:href="#DejaVuSans-97"/>
      <use x="571.09375" xlink:href="#DejaVuSans-99"/>
      <use x="626.074219" xlink:href="#DejaVuSans-121"/>
      <use x="685.253906" xlink:href="#DejaVuSans-32"/>
      <use x="717.041016" xlink:href="#DejaVuSans-40"/>
      <use x="756.054688" xlink:href="#DejaVuSans-37"/>
      <use x="851.074219" xlink:href="#DejaVuSans-41"/>
     </g>
    </g>
   </g>
   <g id="line2d_15">
    <path clip-path="url(#p177116f41f)" d="M 69.012273 216.347319 
L 71.447477 136.724827 
L 73.882682 175.061582 
L 76.317886 88.066638 
L 78.75309 74.796222 
L 81.188295 82.168675 
L 83.623499 55.627845 
L 86.058703 43.094675 
L 88.493908 46.780901 
L 90.929112 42.35743 
L 93.364317 36.459467 
L 95.799521 37.196713 
L 98.234725 40.882939 
L 100.66993 43.094675 
L 103.105134 40.882939 
L 105.540339 40.882939 
L 107.975543 37.196713 
L 112.845952 31.29875 
L 115.281156 50.467128 
L 117.716361 36.459467 
L 120.151565 34.984977 
L 122.586769 36.459467 
L 125.021974 32.773241 
L 127.457178 34.247731 
L 129.892383 27.612524 
L 132.327587 30.561505 
L 134.762791 36.459467 
L 137.197996 27.612524 
L 139.6332 30.561505 
L 142.068405 29.087014 
L 144.503609 40.145694 
L 146.938813 27.612524 
L 149.374018 27.612524 
L 151.809222 29.087014 
L 154.244426 27.612524 
L 156.679631 30.561505 
L 159.114835 29.087014 
L 161.55004 32.035995 
L 163.985244 29.087014 
L 166.420448 30.561505 
L 168.855653 30.561505 
L 171.290857 33.510486 
L 173.726062 29.087014 
L 176.161266 30.561505 
L 178.59647 28.349769 
L 181.031675 34.984977 
L 183.466879 27.612524 
L 185.902084 27.612524 
L 188.337288 30.561505 
L 190.772492 29.82426 
L 193.207697 30.561505 
L 195.642901 29.087014 
L 198.078106 29.087014 
L 200.51331 27.612524 
L 202.948514 30.561505 
L 205.383719 30.561505 
L 210.254128 27.612524 
L 219.994945 27.612524 
L 222.430149 34.984977 
L 224.865354 30.561505 
L 227.300558 27.612524 
L 229.735763 29.087014 
L 232.170967 27.612524 
L 234.606171 27.612524 
L 237.041376 30.561505 
L 239.47658 29.087014 
L 241.911785 29.087014 
L 244.346989 30.561505 
L 246.782193 27.612524 
L 258.958215 27.612524 
L 261.39342 30.561505 
L 263.828624 27.612524 
L 266.263829 29.087014 
L 268.699033 29.087014 
L 271.134237 27.612524 
L 285.745464 27.612524 
L 288.180668 29.087014 
L 290.615872 27.612524 
L 293.051077 30.561505 
L 295.486281 27.612524 
L 300.35669 27.612524 
L 302.791894 29.087014 
L 305.227099 29.087014 
L 307.662303 27.612524 
L 310.097508 29.087014 
L 312.532712 27.612524 
L 314.967916 27.612524 
L 317.403121 30.561505 
L 319.838325 27.612524 
L 329.579143 27.612524 
L 332.014347 29.087014 
L 334.449552 27.612524 
L 336.884756 29.087014 
L 339.31996 27.612524 
L 349.060778 27.612524 
L 351.495982 29.087014 
L 353.931187 27.612524 
L 358.801595 27.612524 
L 361.2368 29.087014 
L 363.672004 29.087014 
L 366.107209 27.612524 
L 368.542413 29.087014 
L 370.977617 27.612524 
L 383.153639 27.612524 
L 385.588844 29.087014 
L 388.024048 29.087014 
L 390.459253 27.612524 
L 431.857727 27.612524 
L 431.857727 27.612524 
" style="fill:none;stroke:#1f77b4;stroke-linecap:square;stroke-width:1.5;"/>
   </g>
   <g id="line2d_16">
    <path clip-path="url(#p177116f41f)" d="M 69.012273 246.758687 
L 71.447477 208.421932 
L 73.882682 159.441198 
L 76.317886 95.577324 
L 78.75309 77.376581 
L 81.188295 66.502213 
L 83.623499 63.875777 
L 86.058703 45.306411 
L 88.493908 45.582878 
L 90.929112 36.321234 
L 93.364317 33.971264 
L 95.799521 35.491833 
L 98.234725 35.676144 
L 100.66993 34.385965 
L 103.105134 31.114439 
L 105.540339 29.962493 
L 107.975543 33.187941 
L 110.410747 33.280097 
L 112.845952 35.307521 
L 115.281156 31.851684 
L 117.716361 28.948781 
L 120.151565 35.353599 
L 122.586769 32.450696 
L 125.021974 31.897762 
L 127.457178 30.837972 
L 129.892383 28.303691 
L 132.327587 31.206595 
L 134.762791 31.851684 
L 137.197996 29.686026 
L 139.6332 30.837972 
L 144.503609 32.588929 
L 146.938813 30.377194 
L 149.374018 30.653661 
L 151.809222 29.732104 
L 154.244426 32.542852 
L 156.679631 31.022283 
L 161.55004 34.201654 
L 163.985244 31.897762 
L 166.420448 30.837972 
L 168.855653 28.672314 
L 171.290857 30.653661 
L 173.726062 29.409559 
L 176.161266 30.285038 
L 178.59647 32.128151 
L 181.031675 33.187941 
L 183.466879 30.100727 
L 185.902084 32.819319 
L 188.337288 28.672314 
L 190.772492 32.404618 
L 193.207697 32.450696 
L 195.642901 29.778182 
L 198.078106 33.64872 
L 200.51331 30.976205 
L 202.948514 30.377194 
L 205.383719 32.681085 
L 207.818923 33.00363 
L 210.254128 30.146804 
L 212.689332 31.344828 
L 215.124536 30.331116 
L 217.559741 28.303691 
L 219.994945 30.653661 
L 222.430149 28.672314 
L 224.865354 28.810547 
L 227.300558 30.930128 
L 229.735763 31.344828 
L 232.170967 28.349769 
L 234.606171 30.146804 
L 237.041376 28.349769 
L 239.47658 33.095786 
L 241.911785 29.455637 
L 244.346989 28.948781 
L 246.782193 30.377194 
L 249.217398 28.349769 
L 251.652602 28.165458 
L 254.087807 28.211536 
L 256.523011 29.087014 
L 258.958215 30.699738 
L 261.39342 31.897762 
L 263.828624 31.897762 
L 266.263829 31.022283 
L 268.699033 28.073302 
L 271.134237 29.317403 
L 273.569442 27.888991 
L 276.004646 32.082073 
L 278.439851 30.837972 
L 280.875055 29.409559 
L 283.310259 30.146804 
L 285.745464 29.363481 
L 288.180668 29.778182 
L 290.615872 27.612524 
L 293.051077 29.962493 
L 295.486281 28.672314 
L 297.921486 28.349769 
L 300.35669 27.612524 
L 302.791894 29.962493 
L 305.227099 30.745816 
L 310.097508 29.225248 
L 312.532712 31.206595 
L 314.967916 27.612524 
L 317.403121 29.962493 
L 319.838325 28.349769 
L 322.27353 30.192882 
L 324.708734 27.888991 
L 327.143938 28.626236 
L 329.579143 29.040936 
L 334.449552 28.303691 
L 336.884756 28.349769 
L 339.31996 29.409559 
L 341.755165 28.349769 
L 344.190369 29.82426 
L 346.625574 28.073302 
L 351.495982 28.810547 
L 353.931187 27.612524 
L 356.366391 29.087014 
L 358.801595 28.349769 
L 361.2368 28.948781 
L 363.672004 29.409559 
L 366.107209 29.087014 
L 368.542413 28.349769 
L 370.977617 27.888991 
L 373.412822 27.888991 
L 375.848026 28.349769 
L 378.283231 29.501715 
L 380.718435 27.612524 
L 383.153639 27.888991 
L 385.588844 27.888991 
L 388.024048 28.349769 
L 390.459253 27.888991 
L 392.894457 28.349769 
L 395.329661 28.626236 
L 397.764866 29.087014 
L 400.20007 29.087014 
L 402.635275 28.349769 
L 405.070479 29.686026 
L 407.505683 28.626236 
L 409.940888 28.349769 
L 412.376092 30.008571 
L 414.811297 29.133092 
L 417.246501 29.547793 
L 419.681705 28.349769 
L 422.11691 29.82426 
L 424.552114 30.008571 
L 426.987318 29.409559 
L 429.422523 28.672314 
L 431.857727 27.612524 
L 431.857727 27.612524 
" style="fill:none;stroke:#ff7f0e;stroke-linecap:square;stroke-width:1.5;"/>
   </g>
   <g id="line2d_17">
    <path clip-path="url(#p177116f41f)" d="M 69.012273 254.430646 
L 71.447477 137.139527 
L 73.882682 90.923463 
L 76.317886 73.229576 
L 78.75309 59.54446 
L 81.188295 36.920246 
L 83.623499 35.077132 
L 86.058703 41.159406 
L 88.493908 31.759528 
L 90.929112 29.271326 
L 93.364317 30.146804 
L 95.799521 32.496774 
L 98.234725 34.339887 
L 100.66993 28.948781 
L 103.105134 33.925187 
L 105.540339 32.404618 
L 107.975543 27.888991 
L 110.410747 30.653661 
L 112.845952 34.478121 
L 115.281156 31.851684 
L 117.716361 30.469349 
L 120.151565 32.312462 
L 122.586769 32.312462 
L 125.021974 29.087014 
L 127.457178 30.745816 
L 129.892383 29.82426 
L 132.327587 27.612524 
L 134.762791 33.833031 
L 137.197996 27.612524 
L 139.6332 28.994859 
L 142.068405 27.888991 
L 144.503609 29.409559 
L 146.938813 31.897762 
L 149.374018 29.686026 
L 151.809222 29.639948 
L 154.244426 31.436984 
L 156.679631 29.732104 
L 159.114835 30.607583 
L 161.55004 28.856625 
L 163.985244 28.856625 
L 166.420448 29.363481 
L 168.855653 30.146804 
L 171.290857 33.00363 
L 173.726062 32.865396 
L 176.161266 29.962493 
L 178.59647 33.049708 
L 181.031675 29.686026 
L 183.466879 30.745816 
L 185.902084 28.672314 
L 188.337288 35.353599 
L 190.772492 31.713451 
L 193.207697 30.88405 
L 195.642901 31.805606 
L 198.078106 31.759528 
L 200.51331 29.778182 
L 202.948514 29.409559 
L 205.383719 27.888991 
L 207.818923 30.100727 
L 210.254128 31.483062 
L 212.689332 29.778182 
L 215.124536 30.976205 
L 217.559741 29.916415 
L 219.994945 27.612524 
L 222.430149 28.764469 
L 224.865354 30.054649 
L 227.300558 30.976205 
L 229.735763 27.612524 
L 232.170967 29.271326 
L 234.606171 28.488003 
L 239.47658 29.686026 
L 241.911785 30.699738 
L 244.346989 29.732104 
L 246.782193 29.087014 
L 249.217398 32.588929 
L 251.652602 28.672314 
L 254.087807 30.23896 
L 256.523011 28.349769 
L 258.958215 28.073302 
L 261.39342 28.810547 
L 263.828624 27.612524 
L 266.263829 30.146804 
L 268.699033 29.040936 
L 271.134237 29.686026 
L 273.569442 28.948781 
L 276.004646 27.612524 
L 278.439851 30.88405 
L 280.875055 29.271326 
L 283.310259 31.344828 
L 285.745464 30.607583 
L 288.180668 28.672314 
L 290.615872 29.317403 
L 293.051077 28.948781 
L 295.486281 30.146804 
L 297.921486 28.349769 
L 300.35669 28.672314 
L 302.791894 27.612524 
L 305.227099 30.377194 
L 307.662303 29.409559 
L 310.097508 27.612524 
L 312.532712 31.206595 
L 314.967916 29.087014 
L 317.403121 29.409559 
L 319.838325 33.879109 
L 322.27353 28.672314 
L 324.708734 29.087014 
L 327.143938 29.040936 
L 329.579143 27.888991 
L 332.014347 31.436984 
L 334.449552 27.612524 
L 336.884756 29.363481 
L 339.31996 29.547793 
L 341.755165 28.349769 
L 346.625574 29.087014 
L 349.060778 27.612524 
L 351.495982 27.612524 
L 353.931187 27.888991 
L 356.366391 27.612524 
L 363.672004 27.612524 
L 366.107209 27.888991 
L 368.542413 27.612524 
L 370.977617 28.349769 
L 373.412822 27.888991 
L 375.848026 28.626236 
L 380.718435 28.073302 
L 383.153639 28.626236 
L 385.588844 27.612524 
L 388.024048 28.441925 
L 390.459253 28.349769 
L 392.894457 28.672314 
L 395.329661 30.008571 
L 397.764866 28.349769 
L 400.20007 28.211536 
L 402.635275 28.488003 
L 405.070479 27.612524 
L 412.376092 27.612524 
L 414.811297 28.672314 
L 417.246501 27.888991 
L 419.681705 27.888991 
L 422.11691 27.612524 
L 424.552114 27.612524 
L 426.987318 28.672314 
L 429.422523 27.612524 
L 431.857727 29.732104 
L 431.857727 29.732104 
" style="fill:none;stroke:#2ca02c;stroke-linecap:square;stroke-width:1.5;"/>
   </g>
   <g id="patch_3">
    <path d="M 50.87 303.64 
L 50.87 10.8 
" style="fill:none;stroke:#000000;stroke-linecap:square;stroke-linejoin:miter;stroke-width:0.8;"/>
   </g>
   <g id="patch_4">
    <path d="M 450 303.64 
L 450 10.8 
" style="fill:none;stroke:#000000;stroke-linecap:square;stroke-linejoin:miter;stroke-width:0.8;"/>
   </g>
   <g id="patch_5">
    <path d="M 50.87 303.64 
L 450 303.64 
" style="fill:none;stroke:#000000;stroke-linecap:square;stroke-linejoin:miter;stroke-width:0.8;"/>
   </g>
   <g id="patch_6">
    <path d="M 50.87 10.8 
L 450 10.8 
" style="fill:none;stroke:#000000;stroke-linecap:square;stroke-linejoin:miter;stroke-width:0.8;"/>
   </g>
   <g id="legend_1">
    <g id="patch_7">
     <path d="M 361.492188 298.64 
L 443 298.64 
Q 445 298.64 445 296.64 
L 445 253.605625 
Q 445 251.605625 443 251.605625 
L 361.492188 251.605625 
Q 359.492188 251.605625 359.492188 253.605625 
L 359.492188 296.64 
Q 359.492188 298.64 361.492188 298.64 
z
" style="fill:#ffffff;opacity:0.8;stroke:#cccccc;stroke-linejoin:miter;"/>
    </g>
    <g id="line2d_18">
     <path d="M 363.492188 259.704062 
L 383.492188 259.704062 
" style="fill:none;stroke:#1f77b4;stroke-linecap:square;stroke-width:1.5;"/>
    </g>
    <g id="line2d_19"/>
    <g id="text_17">
     <!-- Sync-SGD -->
     <g transform="translate(391.492188 263.204062)scale(0.1 -0.1)">
      <defs>
       <path d="M 53.515625 70.515625 
L 53.515625 60.890625 
Q 47.90625 63.578125 42.921875 64.890625 
Q 37.9375 66.21875 33.296875 66.21875 
Q 25.25 66.21875 20.875 63.09375 
Q 16.5 59.96875 16.5 54.203125 
Q 16.5 49.359375 19.40625 46.890625 
Q 22.3125 44.4375 30.421875 42.921875 
L 36.375 41.703125 
Q 47.40625 39.59375 52.65625 34.296875 
Q 57.90625 29 57.90625 20.125 
Q 57.90625 9.515625 50.796875 4.046875 
Q 43.703125 -1.421875 29.984375 -1.421875 
Q 24.8125 -1.421875 18.96875 -0.25 
Q 13.140625 0.921875 6.890625 3.21875 
L 6.890625 13.375 
Q 12.890625 10.015625 18.65625 8.296875 
Q 24.421875 6.59375 29.984375 6.59375 
Q 38.421875 6.59375 43.015625 9.90625 
Q 47.609375 13.234375 47.609375 19.390625 
Q 47.609375 24.75 44.3125 27.78125 
Q 41.015625 30.8125 33.5 32.328125 
L 27.484375 33.5 
Q 16.453125 35.6875 11.515625 40.375 
Q 6.59375 45.0625 6.59375 53.421875 
Q 6.59375 63.09375 13.40625 68.65625 
Q 20.21875 74.21875 32.171875 74.21875 
Q 37.3125 74.21875 42.625 73.28125 
Q 47.953125 72.359375 53.515625 70.515625 
z
" id="DejaVuSans-83"/>
       <path d="M 54.890625 33.015625 
L 54.890625 0 
L 45.90625 0 
L 45.90625 32.71875 
Q 45.90625 40.484375 42.875 44.328125 
Q 39.84375 48.1875 33.796875 48.1875 
Q 26.515625 48.1875 22.3125 43.546875 
Q 18.109375 38.921875 18.109375 30.90625 
L 18.109375 0 
L 9.078125 0 
L 9.078125 54.6875 
L 18.109375 54.6875 
L 18.109375 46.1875 
Q 21.34375 51.125 25.703125 53.5625 
Q 30.078125 56 35.796875 56 
Q 45.21875 56 50.046875 50.171875 
Q 54.890625 44.34375 54.890625 33.015625 
z
" id="DejaVuSans-110"/>
       <path d="M 4.890625 31.390625 
L 31.203125 31.390625 
L 31.203125 23.390625 
L 4.890625 23.390625 
z
" id="DejaVuSans-45"/>
       <path d="M 59.515625 10.40625 
L 59.515625 29.984375 
L 43.40625 29.984375 
L 43.40625 38.09375 
L 69.28125 38.09375 
L 69.28125 6.78125 
Q 63.578125 2.734375 56.6875 0.65625 
Q 49.8125 -1.421875 42 -1.421875 
Q 24.90625 -1.421875 15.25 8.5625 
Q 5.609375 18.5625 5.609375 36.375 
Q 5.609375 54.25 15.25 64.234375 
Q 24.90625 74.21875 42 74.21875 
Q 49.125 74.21875 55.546875 72.453125 
Q 61.96875 70.703125 67.390625 67.28125 
L 67.390625 56.78125 
Q 61.921875 61.421875 55.765625 63.765625 
Q 49.609375 66.109375 42.828125 66.109375 
Q 29.4375 66.109375 22.71875 58.640625 
Q 16.015625 51.171875 16.015625 36.375 
Q 16.015625 21.625 22.71875 14.15625 
Q 29.4375 6.6875 42.828125 6.6875 
Q 48.046875 6.6875 52.140625 7.59375 
Q 56.25 8.5 59.515625 10.40625 
z
" id="DejaVuSans-71"/>
       <path d="M 19.671875 64.796875 
L 19.671875 8.109375 
L 31.59375 8.109375 
Q 46.6875 8.109375 53.6875 14.9375 
Q 60.6875 21.78125 60.6875 36.53125 
Q 60.6875 51.171875 53.6875 57.984375 
Q 46.6875 64.796875 31.59375 64.796875 
z
M 9.8125 72.90625 
L 30.078125 72.90625 
Q 51.265625 72.90625 61.171875 64.09375 
Q 71.09375 55.28125 71.09375 36.53125 
Q 71.09375 17.671875 61.125 8.828125 
Q 51.171875 0 30.078125 0 
L 9.8125 0 
z
" id="DejaVuSans-68"/>
      </defs>
      <use xlink:href="#DejaVuSans-83"/>
      <use x="63.476562" xlink:href="#DejaVuSans-121"/>
      <use x="122.65625" xlink:href="#DejaVuSans-110"/>
      <use x="186.035156" xlink:href="#DejaVuSans-99"/>
      <use x="241.015625" xlink:href="#DejaVuSans-45"/>
      <use x="277.099609" xlink:href="#DejaVuSans-83"/>
      <use x="340.576172" xlink:href="#DejaVuSans-71"/>
      <use x="418.066406" xlink:href="#DejaVuSans-68"/>
     </g>
    </g>
    <g id="line2d_20">
     <path d="M 363.492188 274.382187 
L 383.492188 274.382187 
" style="fill:none;stroke:#ff7f0e;stroke-linecap:square;stroke-width:1.5;"/>
    </g>
    <g id="line2d_21"/>
    <g id="text_18">
     <!-- DP-SGD -->
     <g transform="translate(391.492188 277.882187)scale(0.1 -0.1)">
      <defs>
       <path d="M 19.671875 64.796875 
L 19.671875 37.40625 
L 32.078125 37.40625 
Q 38.96875 37.40625 42.71875 40.96875 
Q 46.484375 44.53125 46.484375 51.125 
Q 46.484375 57.671875 42.71875 61.234375 
Q 38.96875 64.796875 32.078125 64.796875 
z
M 9.8125 72.90625 
L 32.078125 72.90625 
Q 44.34375 72.90625 50.609375 67.359375 
Q 56.890625 61.8125 56.890625 51.125 
Q 56.890625 40.328125 50.609375 34.8125 
Q 44.34375 29.296875 32.078125 29.296875 
L 19.671875 29.296875 
L 19.671875 0 
L 9.8125 0 
z
" id="DejaVuSans-80"/>
      </defs>
      <use xlink:href="#DejaVuSans-68"/>
      <use x="77.001953" xlink:href="#DejaVuSans-80"/>
      <use x="135.054688" xlink:href="#DejaVuSans-45"/>
      <use x="171.138672" xlink:href="#DejaVuSans-83"/>
      <use x="234.615234" xlink:href="#DejaVuSans-71"/>
      <use x="312.105469" xlink:href="#DejaVuSans-68"/>
     </g>
    </g>
    <g id="line2d_22">
     <path d="M 363.492188 289.060312 
L 383.492188 289.060312 
" style="fill:none;stroke:#2ca02c;stroke-linecap:square;stroke-width:1.5;"/>
    </g>
    <g id="line2d_23"/>
    <g id="text_19">
     <!-- EDP-SGD -->
     <g transform="translate(391.492188 292.560312)scale(0.1 -0.1)">
      <use xlink:href="#DejaVuSans-69"/>
      <use x="63.183594" xlink:href="#DejaVuSans-68"/>
      <use x="140.185547" xlink:href="#DejaVuSans-80"/>
      <use x="198.238281" xlink:href="#DejaVuSans-45"/>
      <use x="234.322266" xlink:href="#DejaVuSans-83"/>
      <use x="297.798828" xlink:href="#DejaVuSans-71"/>
      <use x="375.289062" xlink:href="#DejaVuSans-68"/>
     </g>
    </g>
   </g>
  </g>
 </g>
 <defs>
  <clipPath id="p177116f41f">
   <rect height="292.84" width="399.13" x="50.87" y="10.8"/>
  </clipPath>
 </defs>
</svg>
