<?xml version="1.0" encoding="utf-8" standalone="no"?>
<!DOCTYPE svg PUBLIC "-//W3C//DTD SVG 1.1//EN"
  "http://www.w3.org/Graphics/SVG/1.1/DTD/svg11.dtd">
<!-- Created with matplotlib (https://matplotlib.org/) -->
<svg height="345.6pt" version="1.1" viewBox="0 0 460.8 345.6" width="460.8pt" xmlns="http://www.w3.org/2000/svg" xmlns:xlink="http://www.w3.org/1999/xlink">
 <metadata>
  <rdf:RDF xmlns:cc="http://creativecommons.org/ns#" xmlns:dc="http://purl.org/dc/elements/1.1/" xmlns:rdf="http://www.w3.org/1999/02/22-rdf-syntax-ns#">
   <cc:Work>
    <dc:type rdf:resource="http://purl.org/dc/dcmitype/StillImage"/>
    <dc:date>2021-06-20T12:17:57.973915</dc:date>
    <dc:format>image/svg+xml</dc:format>
    <dc:creator>
     <cc:Agent>
      <dc:title>Matplotlib v3.3.1, https://matplotlib.org/</dc:title>
     </cc:Agent>
    </dc:creator>
   </cc:Work>
  </rdf:RDF>
 </metadata>
 <defs>
  <style type="text/css">*{stroke-linecap:butt;stroke-linejoin:round;}</style>
 </defs>
 <g id="figure_1">
  <g id="patch_1">
   <path d="M 0 345.6 
L 460.8 345.6 
L 460.8 0 
L 0 0 
z
" style="fill:#ffffff;"/>
  </g>
  <g id="axes_1">
   <g id="patch_2">
    <path d="M 50.87 303.64 
L 450 303.64 
L 450 10.8 
L 50.87 10.8 
z
" style="fill:#ffffff;"/>
   </g>
   <g id="PolyCollection_1">
    <path clip-path="url(#p6ff23d5a27)" d="M 69.012273 178.336636 
L 69.012273 245.410047 
L 71.447477 146.470705 
L 73.882682 146.242042 
L 76.317886 170.668796 
L 78.75309 93.96764 
L 81.188295 93.871541 
L 83.623499 64.283487 
L 86.058703 44.024491 
L 88.493908 60.036034 
L 90.929112 58.689909 
L 93.364317 56.765905 
L 95.799521 49.248279 
L 98.234725 46.38991 
L 100.66993 47.460374 
L 103.105134 58.144187 
L 105.540339 56.582906 
L 107.975543 46.997077 
L 110.410747 38.207784 
L 112.845952 47.449658 
L 115.281156 61.917094 
L 117.716361 45.079911 
L 120.151565 44.432441 
L 122.586769 36.205022 
L 125.021974 39.328413 
L 127.457178 53.211872 
L 129.892383 44.432441 
L 132.327587 44.886238 
L 134.762791 39.328413 
L 137.197996 39.231577 
L 139.6332 43.769767 
L 142.068405 44.432441 
L 144.503609 38.36983 
L 146.938813 41.245579 
L 149.374018 34.535499 
L 151.809222 37.314411 
L 154.244426 51.789991 
L 156.679631 39.231577 
L 159.114835 39.231577 
L 161.55004 40.286996 
L 163.985244 40.286996 
L 166.420448 28.784001 
L 168.855653 34.535499 
L 171.290857 37.314411 
L 173.726062 28.784001 
L 176.161266 37.314411 
L 178.59647 28.784001 
L 181.031675 47.460374 
L 183.466879 28.784001 
L 185.902084 44.432441 
L 188.337288 28.784001 
L 190.772492 34.535499 
L 193.207697 42.204162 
L 195.642901 28.784001 
L 198.078106 37.314411 
L 200.51331 46.943657 
L 202.948514 34.535499 
L 205.383719 34.535499 
L 207.818923 39.639526 
L 210.254128 28.784001 
L 212.689332 39.231577 
L 215.124536 28.784001 
L 217.559741 28.784001 
L 219.994945 34.535499 
L 222.430149 28.784001 
L 224.865354 31.65975 
L 227.300558 37.314411 
L 229.735763 37.314411 
L 232.170967 28.784001 
L 234.606171 34.535499 
L 237.041376 28.784001 
L 239.47658 39.231577 
L 241.911785 34.535499 
L 244.346989 37.314411 
L 246.782193 28.784001 
L 249.217398 37.314411 
L 251.652602 28.784001 
L 254.087807 34.535499 
L 256.523011 28.784001 
L 258.958215 40.286996 
L 261.39342 28.784001 
L 263.828624 34.535499 
L 266.263829 34.535499 
L 268.699033 34.535499 
L 271.134237 34.535499 
L 273.569442 28.784001 
L 276.004646 28.784001 
L 278.439851 34.535499 
L 280.875055 34.535499 
L 283.310259 34.535499 
L 285.745464 34.535499 
L 288.180668 34.535499 
L 290.615872 28.784001 
L 293.051077 28.784001 
L 295.486281 28.784001 
L 297.921486 34.535499 
L 300.35669 34.535499 
L 302.791894 28.784001 
L 305.227099 31.65975 
L 307.662303 34.535499 
L 310.097508 34.535499 
L 312.532712 28.784001 
L 314.967916 28.784001 
L 317.403121 28.784001 
L 319.838325 34.535499 
L 322.27353 34.535499 
L 324.708734 28.784001 
L 327.143938 28.784001 
L 329.579143 34.535499 
L 332.014347 34.535499 
L 334.449552 31.65975 
L 336.884756 34.535499 
L 339.31996 28.784001 
L 341.755165 28.784001 
L 344.190369 28.784001 
L 346.625574 34.535499 
L 349.060778 28.784001 
L 351.495982 28.784001 
L 353.931187 28.784001 
L 356.366391 28.784001 
L 358.801595 28.784001 
L 361.2368 28.784001 
L 363.672004 28.784001 
L 366.107209 28.784001 
L 368.542413 28.784001 
L 370.977617 28.784001 
L 373.412822 28.784001 
L 375.848026 28.784001 
L 378.283231 28.784001 
L 380.718435 28.784001 
L 383.153639 28.784001 
L 385.588844 28.784001 
L 388.024048 28.784001 
L 390.459253 28.784001 
L 392.894457 28.784001 
L 395.329661 28.784001 
L 397.764866 28.784001 
L 400.20007 28.784001 
L 402.635275 28.784001 
L 405.070479 28.784001 
L 407.505683 28.784001 
L 409.940888 28.784001 
L 412.376092 28.784001 
L 414.811297 28.784001 
L 417.246501 28.784001 
L 419.681705 28.784001 
L 422.11691 28.784001 
L 424.552114 28.784001 
L 426.987318 28.784001 
L 429.422523 28.784001 
L 431.857727 28.784001 
L 431.857727 28.784001 
L 431.857727 28.784001 
L 429.422523 28.784001 
L 426.987318 28.784001 
L 424.552114 28.784001 
L 422.11691 28.784001 
L 419.681705 28.784001 
L 417.246501 28.784001 
L 414.811297 28.784001 
L 412.376092 28.784001 
L 409.940888 28.784001 
L 407.505683 28.784001 
L 405.070479 28.784001 
L 402.635275 28.784001 
L 400.20007 28.784001 
L 397.764866 28.784001 
L 395.329661 28.784001 
L 392.894457 28.784001 
L 390.459253 28.784001 
L 388.024048 28.784001 
L 385.588844 28.784001 
L 383.153639 28.784001 
L 380.718435 28.784001 
L 378.283231 28.784001 
L 375.848026 28.784001 
L 373.412822 28.784001 
L 370.977617 28.784001 
L 368.542413 28.784001 
L 366.107209 28.784001 
L 363.672004 28.784001 
L 361.2368 28.784001 
L 358.801595 28.784001 
L 356.366391 28.784001 
L 353.931187 28.784001 
L 351.495982 28.784001 
L 349.060778 28.784001 
L 346.625574 26.866835 
L 344.190369 28.784001 
L 341.755165 28.784001 
L 339.31996 28.784001 
L 336.884756 26.866835 
L 334.449552 27.825418 
L 332.014347 26.866835 
L 329.579143 26.866835 
L 327.143938 28.784001 
L 324.708734 28.784001 
L 322.27353 26.866835 
L 319.838325 26.866835 
L 317.403121 28.784001 
L 314.967916 28.784001 
L 312.532712 28.784001 
L 310.097508 26.866835 
L 307.662303 26.866835 
L 305.227099 27.825418 
L 302.791894 28.784001 
L 300.35669 26.866835 
L 297.921486 26.866835 
L 295.486281 28.784001 
L 293.051077 28.784001 
L 290.615872 28.784001 
L 288.180668 26.866835 
L 285.745464 26.866835 
L 283.310259 26.866835 
L 280.875055 26.866835 
L 278.439851 26.866835 
L 276.004646 28.784001 
L 273.569442 28.784001 
L 271.134237 26.866835 
L 268.699033 26.866835 
L 266.263829 26.866835 
L 263.828624 26.866835 
L 261.39342 28.784001 
L 258.958215 24.949669 
L 256.523011 28.784001 
L 254.087807 26.866835 
L 251.652602 28.784001 
L 249.217398 27.922255 
L 246.782193 28.784001 
L 244.346989 27.922255 
L 241.911785 26.866835 
L 239.47658 29.83942 
L 237.041376 28.784001 
L 234.606171 26.866835 
L 232.170967 28.784001 
L 229.735763 27.922255 
L 227.300558 27.922255 
L 224.865354 27.825418 
L 222.430149 28.784001 
L 219.994945 26.866835 
L 217.559741 28.784001 
L 215.124536 28.784001 
L 212.689332 29.83942 
L 210.254128 28.784001 
L 207.818923 27.514305 
L 205.383719 26.866835 
L 202.948514 26.866835 
L 200.51331 29.796004 
L 198.078106 27.922255 
L 195.642901 28.784001 
L 193.207697 26.866835 
L 190.772492 26.866835 
L 188.337288 28.784001 
L 185.902084 32.307219 
L 183.466879 28.784001 
L 181.031675 33.113618 
L 178.59647 28.784001 
L 176.161266 27.922255 
L 173.726062 28.784001 
L 171.290857 27.922255 
L 168.855653 26.866835 
L 166.420448 28.784001 
L 163.985244 32.618333 
L 161.55004 32.618333 
L 159.114835 29.83942 
L 156.679631 29.83942 
L 154.244426 36.452664 
L 151.809222 27.922255 
L 149.374018 26.866835 
L 146.938813 29.742584 
L 144.503609 38.36983 
L 142.068405 32.307219 
L 139.6332 31.052727 
L 137.197996 29.83942 
L 134.762791 31.65975 
L 132.327587 26.101925 
L 129.892383 32.307219 
L 127.457178 38.865116 
L 125.021974 31.65975 
L 122.586769 29.031644 
L 120.151565 32.307219 
L 117.716361 37.411247 
L 115.281156 35.911391 
L 112.845952 38.875832 
L 110.410747 27.028882 
L 107.975543 35.494081 
L 105.540339 45.079911 
L 103.105134 30.098468 
L 100.66993 33.113618 
L 98.234725 30.34975 
L 95.799521 35.160045 
L 93.364317 31.476751 
L 90.929112 39.138576 
L 88.493908 43.543949 
L 86.058703 34.632335 
L 83.623499 35.462164 
L 81.188295 55.720422 
L 78.75309 63.292987 
L 76.317886 107.373281 
L 73.882682 95.373883 
L 71.447477 104.73105 
L 69.012273 178.336636 
z
" style="fill:#1f77b4;fill-opacity:0.25;"/>
   </g>
   <g id="PolyCollection_2">
    <path clip-path="url(#p6ff23d5a27)" d="M 69.012273 249.286304 
L 69.012273 290.329091 
L 71.447477 201.639824 
L 73.882682 130.290255 
L 76.317886 113.659763 
L 78.75309 119.817173 
L 81.188295 117.001086 
L 83.623499 130.14633 
L 86.058703 127.014986 
L 88.493908 113.866633 
L 90.929112 91.691235 
L 93.364317 94.799552 
L 95.799521 74.788027 
L 98.234725 77.799789 
L 100.66993 78.208741 
L 103.105134 92.598002 
L 105.540339 62.934026 
L 107.975543 77.51801 
L 110.410747 72.04582 
L 112.845952 62.148202 
L 115.281156 65.785276 
L 117.716361 60.516708 
L 120.151565 89.118244 
L 122.586769 69.528736 
L 125.021974 64.811123 
L 127.457178 43.342479 
L 129.892383 48.66523 
L 132.327587 51.710557 
L 134.762791 48.466336 
L 137.197996 67.820824 
L 139.6332 63.296183 
L 142.068405 60.73379 
L 144.503609 61.243376 
L 146.938813 55.743802 
L 149.374018 53.448309 
L 151.809222 72.948616 
L 154.244426 51.789991 
L 156.679631 68.651674 
L 159.114835 65.889528 
L 161.55004 56.98039 
L 163.985244 58.658336 
L 166.420448 56.79856 
L 168.855653 53.448309 
L 171.290857 48.330881 
L 173.726062 47.037465 
L 176.161266 65.0102 
L 178.59647 50.566331 
L 181.031675 42.803276 
L 183.466879 50.813967 
L 185.902084 51.461898 
L 188.337288 57.052082 
L 190.772492 51.31707 
L 193.207697 49.576875 
L 195.642901 55.102484 
L 198.078106 54.089114 
L 200.51331 60.516708 
L 202.948514 54.27293 
L 205.383719 50.847161 
L 207.818923 34.17603 
L 210.254128 44.455365 
L 212.689332 62.524026 
L 215.124536 44.823669 
L 217.559741 60.955138 
L 219.994945 37.411247 
L 222.430149 46.355046 
L 224.865354 54.738691 
L 227.300558 45.603808 
L 229.735763 43.388757 
L 232.170967 36.78126 
L 234.606171 37.590982 
L 237.041376 38.578603 
L 239.47658 51.510784 
L 241.911785 47.33995 
L 244.346989 42.803276 
L 246.782193 34.17603 
L 249.217398 57.876647 
L 251.652602 58.093655 
L 254.087807 48.838457 
L 256.523011 37.977711 
L 258.958215 41.683208 
L 261.39342 53.137526 
L 263.828624 62.134958 
L 266.263829 28.784001 
L 268.699033 38.538978 
L 271.134237 28.784001 
L 273.569442 40.89248 
L 276.004646 46.005152 
L 278.439851 28.784001 
L 280.875055 34.374308 
L 283.310259 42.803276 
L 285.745464 40.89248 
L 288.180668 37.590982 
L 290.615872 34.17603 
L 293.051077 37.411247 
L 295.486281 42.803276 
L 297.921486 44.39088 
L 300.35669 37.411247 
L 302.791894 36.78126 
L 305.227099 41.579616 
L 307.662303 40.89248 
L 310.097508 34.17603 
L 312.532712 36.78126 
L 314.967916 46.005152 
L 317.403121 34.17603 
L 319.838325 37.411247 
L 322.27353 36.78126 
L 324.708734 40.436705 
L 327.143938 37.411247 
L 329.579143 30.761078 
L 332.014347 37.411247 
L 334.449552 28.784001 
L 336.884756 34.17603 
L 339.31996 37.411247 
L 341.755165 37.411247 
L 344.190369 28.784001 
L 346.625574 38.578603 
L 349.060778 34.17603 
L 351.495982 34.17603 
L 353.931187 28.784001 
L 356.366391 33.848932 
L 358.801595 28.784001 
L 361.2368 28.784001 
L 363.672004 28.784001 
L 366.107209 34.17603 
L 368.542413 34.374308 
L 370.977617 28.784001 
L 373.412822 28.784001 
L 375.848026 28.784001 
L 378.283231 34.17603 
L 380.718435 34.17603 
L 383.153639 34.17603 
L 385.588844 34.17603 
L 388.024048 28.784001 
L 390.459253 28.784001 
L 392.894457 28.784001 
L 395.329661 28.784001 
L 397.764866 28.784001 
L 400.20007 28.784001 
L 402.635275 32.426421 
L 405.070479 34.17603 
L 407.505683 34.17603 
L 409.940888 34.17603 
L 412.376092 28.784001 
L 414.811297 28.784001 
L 417.246501 28.784001 
L 419.681705 28.784001 
L 422.11691 32.198953 
L 424.552114 28.784001 
L 426.987318 32.198953 
L 429.422523 32.198953 
L 431.857727 28.784001 
L 431.857727 28.784001 
L 431.857727 28.784001 
L 429.422523 27.645684 
L 426.987318 27.645684 
L 424.552114 28.784001 
L 422.11691 27.645684 
L 419.681705 28.784001 
L 417.246501 28.784001 
L 414.811297 28.784001 
L 412.376092 28.784001 
L 409.940888 26.986658 
L 407.505683 26.986658 
L 405.070479 26.986658 
L 402.635275 28.01733 
L 400.20007 28.784001 
L 397.764866 28.784001 
L 395.329661 28.784001 
L 392.894457 28.784001 
L 390.459253 28.784001 
L 388.024048 28.784001 
L 385.588844 26.986658 
L 383.153639 26.986658 
L 380.718435 26.986658 
L 378.283231 26.986658 
L 375.848026 28.784001 
L 373.412822 28.784001 
L 370.977617 28.784001 
L 368.542413 27.387494 
L 366.107209 26.986658 
L 363.672004 28.784001 
L 361.2368 28.784001 
L 358.801595 28.784001 
L 356.366391 28.272339 
L 353.931187 28.784001 
L 351.495982 26.986658 
L 349.060778 26.986658 
L 346.625574 29.773457 
L 344.190369 28.784001 
L 341.755165 25.908252 
L 339.31996 25.908252 
L 336.884756 26.986658 
L 334.449552 28.784001 
L 332.014347 25.908252 
L 329.579143 28.124975 
L 327.143938 25.908252 
L 324.708734 27.555886 
L 322.27353 27.976114 
L 319.838325 25.908252 
L 317.403121 26.986658 
L 314.967916 26.660531 
L 312.532712 27.976114 
L 310.097508 26.986658 
L 307.662303 29.616391 
L 305.227099 27.491381 
L 302.791894 27.976114 
L 300.35669 25.908252 
L 297.921486 26.117991 
L 295.486281 29.862407 
L 293.051077 25.908252 
L 290.615872 26.986658 
L 288.180668 26.327632 
L 285.745464 29.616391 
L 283.310259 29.862407 
L 280.875055 27.387494 
L 278.439851 28.784001 
L 276.004646 26.660531 
L 273.569442 29.616391 
L 271.134237 28.784001 
L 268.699033 30.412196 
L 266.263829 28.784001 
L 263.828624 31.379904 
L 261.39342 36.063713 
L 258.958215 32.42035 
L 256.523011 29.655411 
L 254.087807 32.574296 
L 251.652602 34.822092 
L 249.217398 31.324592 
L 246.782193 26.986658 
L 244.346989 24.110909 
L 241.911785 36.109791 
L 239.47658 30.501082 
L 237.041376 29.773457 
L 234.606171 26.327632 
L 232.170967 27.976114 
L 229.735763 32.871612 
L 227.300558 28.499749 
L 224.865354 35.181485 
L 222.430149 31.343197 
L 219.994945 25.908252 
L 217.559741 36.15441 
L 215.124536 33.593511 
L 212.689332 36.742333 
L 210.254128 30.36713 
L 207.818923 26.986658 
L 205.383719 32.60258 
L 202.948514 34.928309 
L 200.51331 34.436028 
L 198.078106 35.711239 
L 195.642901 33.379818 
L 193.207697 26.683494 
L 190.772492 40.04098 
L 188.337288 37.900654 
L 185.902084 31.86802 
L 183.466879 32.515952 
L 181.031675 24.110909 
L 178.59647 36.478096 
L 176.161266 39.28872 
L 173.726062 29.222904 
L 171.290857 30.0863 
L 168.855653 41.504427 
L 166.420448 35.278427 
L 163.985244 38.451212 
L 161.55004 43.723843 
L 159.114835 44.879826 
L 156.679631 49.307053 
L 154.244426 40.286996 
L 151.809222 47.166922 
L 149.374018 41.504427 
L 146.938813 34.895311 
L 144.503609 43.055544 
L 142.068405 45.721941 
L 139.6332 32.974605 
L 137.197996 53.732589 
L 134.762791 34.024822 
L 132.327587 33.895995 
L 129.892383 33.346637 
L 127.457178 43.102833 
L 125.021974 43.801421 
L 122.586769 49.987688 
L 120.151565 42.020998 
L 117.716361 34.436028 
L 115.281156 44.265142 
L 112.845952 34.961346 
L 110.410747 40.281232 
L 107.975543 53.621232 
L 105.540339 48.793912 
L 103.105134 59.390418 
L 100.66993 58.562175 
L 98.234725 49.02583 
L 95.799521 47.723969 
L 93.364317 61.262846 
L 90.929112 60.297186 
L 88.493908 59.570081 
L 86.058703 86.562389 
L 83.623499 97.090851 
L 81.188295 76.446046 
L 78.75309 87.529412 
L 76.317886 38.208835 
L 73.882682 107.13187 
L 71.447477 176.933639 
L 69.012273 249.286304 
z
" style="fill:#ff7f0e;fill-opacity:0.25;"/>
   </g>
   <g id="PolyCollection_3">
    <path clip-path="url(#p6ff23d5a27)" d="M 69.012273 179.106576 
L 69.012273 237.570558 
L 71.447477 215.920469 
L 73.882682 101.570556 
L 76.317886 109.38859 
L 78.75309 147.270082 
L 81.188295 131.676375 
L 83.623499 100.51493 
L 86.058703 75.411552 
L 88.493908 87.984064 
L 90.929112 85.394737 
L 93.364317 73.318595 
L 95.799521 46.321344 
L 98.234725 60.421594 
L 100.66993 47.17072 
L 103.105134 47.870263 
L 105.540339 39.348315 
L 107.975543 58.770317 
L 110.410747 39.22391 
L 112.845952 48.09604 
L 115.281156 40.764623 
L 117.716361 35.677558 
L 120.151565 55.157863 
L 122.586769 46.565001 
L 125.021974 48.78739 
L 127.457178 50.659028 
L 129.892383 35.068276 
L 132.327587 44.92876 
L 134.762791 47.236722 
L 137.197996 39.05329 
L 139.6332 35.613904 
L 142.068405 34.524243 
L 144.503609 39.315374 
L 146.938813 40.720852 
L 149.374018 38.762068 
L 151.809222 36.765624 
L 154.244426 37.095011 
L 156.679631 35.992763 
L 159.114835 35.288728 
L 161.55004 46.081495 
L 163.985244 38.429742 
L 166.420448 46.53788 
L 168.855653 31.120547 
L 171.290857 29.862407 
L 173.726062 35.288728 
L 176.161266 41.811128 
L 178.59647 40.866344 
L 181.031675 31.120547 
L 183.466879 37.694718 
L 185.902084 32.443755 
L 188.337288 33.599278 
L 190.772492 44.109466 
L 193.207697 32.24948 
L 195.642901 35.288728 
L 198.078106 38.069337 
L 200.51331 32.443755 
L 202.948514 31.120547 
L 205.383719 36.926883 
L 207.818923 29.862407 
L 210.254128 29.862407 
L 212.689332 38.175431 
L 215.124536 33.028329 
L 217.559741 32.24948 
L 219.994945 31.120547 
L 222.430149 34.059857 
L 224.865354 31.466128 
L 227.300558 31.466128 
L 229.735763 36.634634 
L 232.170967 33.028329 
L 234.606171 35.288728 
L 237.041376 38.762068 
L 239.47658 31.120547 
L 241.911785 35.288728 
L 244.346989 33.996296 
L 246.782193 37.475541 
L 249.217398 36.961084 
L 251.652602 32.24948 
L 254.087807 34.90832 
L 256.523011 32.24948 
L 258.958215 36.943449 
L 261.39342 30.383453 
L 263.828624 34.059857 
L 266.263829 32.24948 
L 268.699033 36.926883 
L 271.134237 31.120547 
L 273.569442 28.784001 
L 276.004646 32.24948 
L 278.439851 34.17603 
L 280.875055 31.120547 
L 283.310259 31.120547 
L 285.745464 29.862407 
L 288.180668 33.028329 
L 290.615872 33.028329 
L 293.051077 33.457093 
L 295.486281 33.028329 
L 297.921486 31.120547 
L 300.35669 36.649009 
L 302.791894 32.24948 
L 305.227099 28.784001 
L 307.662303 31.120547 
L 310.097508 28.784001 
L 312.532712 28.784001 
L 314.967916 31.120547 
L 317.403121 31.120547 
L 319.838325 28.784001 
L 322.27353 28.784001 
L 324.708734 31.120547 
L 327.143938 31.120547 
L 329.579143 28.784001 
L 332.014347 28.784001 
L 334.449552 28.784001 
L 336.884756 28.784001 
L 339.31996 31.120547 
L 341.755165 31.120547 
L 344.190369 28.784001 
L 346.625574 28.784001 
L 349.060778 37.411247 
L 351.495982 28.784001 
L 353.931187 28.784001 
L 356.366391 28.784001 
L 358.801595 28.784001 
L 361.2368 28.784001 
L 363.672004 28.784001 
L 366.107209 31.120547 
L 368.542413 28.784001 
L 370.977617 28.784001 
L 373.412822 28.784001 
L 375.848026 28.784001 
L 378.283231 28.784001 
L 380.718435 28.784001 
L 383.153639 28.784001 
L 385.588844 28.784001 
L 388.024048 28.784001 
L 390.459253 28.784001 
L 392.894457 28.784001 
L 395.329661 28.784001 
L 397.764866 28.784001 
L 400.20007 28.784001 
L 402.635275 28.784001 
L 405.070479 28.784001 
L 407.505683 28.784001 
L 409.940888 28.784001 
L 412.376092 28.784001 
L 414.811297 28.784001 
L 417.246501 28.784001 
L 419.681705 28.784001 
L 422.11691 28.784001 
L 424.552114 28.784001 
L 426.987318 28.784001 
L 429.422523 28.784001 
L 431.857727 28.784001 
L 431.857727 28.784001 
L 431.857727 28.784001 
L 429.422523 28.784001 
L 426.987318 28.784001 
L 424.552114 28.784001 
L 422.11691 28.784001 
L 419.681705 28.784001 
L 417.246501 28.784001 
L 414.811297 28.784001 
L 412.376092 28.784001 
L 409.940888 28.784001 
L 407.505683 28.784001 
L 405.070479 28.784001 
L 402.635275 28.784001 
L 400.20007 28.784001 
L 397.764866 28.784001 
L 395.329661 28.784001 
L 392.894457 28.784001 
L 390.459253 28.784001 
L 388.024048 28.784001 
L 385.588844 28.784001 
L 383.153639 28.784001 
L 380.718435 28.784001 
L 378.283231 28.784001 
L 375.848026 28.784001 
L 373.412822 28.784001 
L 370.977617 28.784001 
L 368.542413 28.784001 
L 366.107209 28.005152 
L 363.672004 28.784001 
L 361.2368 28.784001 
L 358.801595 28.784001 
L 356.366391 28.784001 
L 353.931187 28.784001 
L 351.495982 28.784001 
L 349.060778 25.908252 
L 346.625574 28.784001 
L 344.190369 28.784001 
L 341.755165 28.005152 
L 339.31996 28.005152 
L 336.884756 28.784001 
L 334.449552 28.784001 
L 332.014347 28.784001 
L 329.579143 28.784001 
L 327.143938 28.005152 
L 324.708734 28.005152 
L 322.27353 28.784001 
L 319.838325 28.784001 
L 317.403121 28.005152 
L 314.967916 28.005152 
L 312.532712 28.784001 
L 310.097508 28.784001 
L 307.662303 28.005152 
L 305.227099 28.784001 
L 302.791894 28.433916 
L 300.35669 27.988542 
L 297.921486 28.005152 
L 295.486281 29.212765 
L 293.051077 30.341698 
L 290.615872 29.212765 
L 288.180668 29.212765 
L 285.745464 28.424532 
L 283.310259 28.005152 
L 280.875055 28.005152 
L 278.439851 26.986658 
L 276.004646 28.433916 
L 273.569442 28.784001 
L 271.134237 28.005152 
L 268.699033 29.148542 
L 266.263829 28.433916 
L 263.828624 29.139819 
L 261.39342 28.622423 
L 258.958215 32.247371 
L 256.523011 28.433916 
L 254.087807 29.24994 
L 251.652602 28.433916 
L 249.217398 27.197175 
L 246.782193 27.641302 
L 244.346989 27.046569 
L 241.911785 28.869532 
L 239.47658 28.005152 
L 237.041376 28.871055 
L 234.606171 28.869532 
L 232.170967 29.212765 
L 229.735763 28.602032 
L 227.300558 28.378508 
L 224.865354 28.378508 
L 222.430149 29.139819 
L 219.994945 28.005152 
L 217.559741 28.433916 
L 215.124536 29.212765 
L 212.689332 27.420703 
L 210.254128 28.424532 
L 207.818923 28.424532 
L 205.383719 29.148542 
L 202.948514 28.005152 
L 200.51331 28.958578 
L 198.078106 30.402546 
L 195.642901 28.869532 
L 193.207697 28.433916 
L 190.772492 27.477811 
L 188.337288 28.761638 
L 185.902084 28.958578 
L 183.466879 31.01681 
L 181.031675 28.005152 
L 178.59647 31.080402 
L 176.161266 33.610481 
L 173.726062 28.869532 
L 171.290857 28.424532 
L 168.855653 28.005152 
L 166.420448 30.441427 
L 163.985244 34.59541 
L 161.55004 30.178874 
L 159.114835 28.869532 
L 156.679631 29.12408 
L 154.244426 29.579528 
L 151.809222 29.789093 
L 149.374018 28.871055 
L 146.938813 29.548374 
L 144.503609 28.317749 
L 142.068405 28.795256 
L 139.6332 30.102052 
L 137.197996 31.096113 
L 134.762791 30.940813 
L 132.327587 28.575683 
L 129.892383 28.371046 
L 127.457178 36.984514 
L 125.021974 29.390144 
L 122.586769 33.290054 
L 120.151565 29.969398 
L 117.716361 28.00141 
L 115.281156 36.454329 
L 112.845952 30.440963 
L 110.410747 29.367796 
L 107.975543 37.859939 
L 105.540339 33.557014 
L 103.105134 35.22001 
L 100.66993 32.444689 
L 98.234725 47.232367 
L 95.799521 42.041134 
L 93.364317 37.930051 
L 90.929112 58.325906 
L 88.493908 42.436241 
L 86.058703 52.492473 
L 83.623499 45.841816 
L 81.188295 102.870001 
L 78.75309 116.632896 
L 76.317886 81.662086 
L 73.882682 55.450425 
L 71.447477 137.610014 
L 69.012273 179.106576 
z
" style="fill:#2ca02c;fill-opacity:0.25;"/>
   </g>
   <g id="matplotlib.axis_1">
    <g id="xtick_1">
     <g id="line2d_1">
      <defs>
       <path d="M 0 0 
L 0 3.5 
" id="m32486e8906" style="stroke:#000000;stroke-width:0.8;"/>
      </defs>
      <g>
       <use style="stroke:#000000;stroke-width:0.8;" x="69.012273" xlink:href="#m32486e8906" y="303.64"/>
      </g>
     </g>
     <g id="text_1">
      <!-- 0 -->
      <g transform="translate(65.831023 318.238437)scale(0.1 -0.1)">
       <defs>
        <path d="M 31.78125 66.40625 
Q 24.171875 66.40625 20.328125 58.90625 
Q 16.5 51.421875 16.5 36.375 
Q 16.5 21.390625 20.328125 13.890625 
Q 24.171875 6.390625 31.78125 6.390625 
Q 39.453125 6.390625 43.28125 13.890625 
Q 47.125 21.390625 47.125 36.375 
Q 47.125 51.421875 43.28125 58.90625 
Q 39.453125 66.40625 31.78125 66.40625 
z
M 31.78125 74.21875 
Q 44.046875 74.21875 50.515625 64.515625 
Q 56.984375 54.828125 56.984375 36.375 
Q 56.984375 17.96875 50.515625 8.265625 
Q 44.046875 -1.421875 31.78125 -1.421875 
Q 19.53125 -1.421875 13.0625 8.265625 
Q 6.59375 17.96875 6.59375 36.375 
Q 6.59375 54.828125 13.0625 64.515625 
Q 19.53125 74.21875 31.78125 74.21875 
z
" id="DejaVuSans-48"/>
       </defs>
       <use xlink:href="#DejaVuSans-48"/>
      </g>
     </g>
    </g>
    <g id="xtick_2">
     <g id="line2d_2">
      <g>
       <use style="stroke:#000000;stroke-width:0.8;" x="117.716361" xlink:href="#m32486e8906" y="303.64"/>
      </g>
     </g>
     <g id="text_2">
      <!-- 20 -->
      <g transform="translate(111.353861 318.238437)scale(0.1 -0.1)">
       <defs>
        <path d="M 19.1875 8.296875 
L 53.609375 8.296875 
L 53.609375 0 
L 7.328125 0 
L 7.328125 8.296875 
Q 12.9375 14.109375 22.625 23.890625 
Q 32.328125 33.6875 34.8125 36.53125 
Q 39.546875 41.84375 41.421875 45.53125 
Q 43.3125 49.21875 43.3125 52.78125 
Q 43.3125 58.59375 39.234375 62.25 
Q 35.15625 65.921875 28.609375 65.921875 
Q 23.96875 65.921875 18.8125 64.3125 
Q 13.671875 62.703125 7.8125 59.421875 
L 7.8125 69.390625 
Q 13.765625 71.78125 18.9375 73 
Q 24.125 74.21875 28.421875 74.21875 
Q 39.75 74.21875 46.484375 68.546875 
Q 53.21875 62.890625 53.21875 53.421875 
Q 53.21875 48.921875 51.53125 44.890625 
Q 49.859375 40.875 45.40625 35.40625 
Q 44.1875 33.984375 37.640625 27.21875 
Q 31.109375 20.453125 19.1875 8.296875 
z
" id="DejaVuSans-50"/>
       </defs>
       <use xlink:href="#DejaVuSans-50"/>
       <use x="63.623047" xlink:href="#DejaVuSans-48"/>
      </g>
     </g>
    </g>
    <g id="xtick_3">
     <g id="line2d_3">
      <g>
       <use style="stroke:#000000;stroke-width:0.8;" x="166.420448" xlink:href="#m32486e8906" y="303.64"/>
      </g>
     </g>
     <g id="text_3">
      <!-- 40 -->
      <g transform="translate(160.057948 318.238437)scale(0.1 -0.1)">
       <defs>
        <path d="M 37.796875 64.3125 
L 12.890625 25.390625 
L 37.796875 25.390625 
z
M 35.203125 72.90625 
L 47.609375 72.90625 
L 47.609375 25.390625 
L 58.015625 25.390625 
L 58.015625 17.1875 
L 47.609375 17.1875 
L 47.609375 0 
L 37.796875 0 
L 37.796875 17.1875 
L 4.890625 17.1875 
L 4.890625 26.703125 
z
" id="DejaVuSans-52"/>
       </defs>
       <use xlink:href="#DejaVuSans-52"/>
       <use x="63.623047" xlink:href="#DejaVuSans-48"/>
      </g>
     </g>
    </g>
    <g id="xtick_4">
     <g id="line2d_4">
      <g>
       <use style="stroke:#000000;stroke-width:0.8;" x="215.124536" xlink:href="#m32486e8906" y="303.64"/>
      </g>
     </g>
     <g id="text_4">
      <!-- 60 -->
      <g transform="translate(208.762036 318.238437)scale(0.1 -0.1)">
       <defs>
        <path d="M 33.015625 40.375 
Q 26.375 40.375 22.484375 35.828125 
Q 18.609375 31.296875 18.609375 23.390625 
Q 18.609375 15.53125 22.484375 10.953125 
Q 26.375 6.390625 33.015625 6.390625 
Q 39.65625 6.390625 43.53125 10.953125 
Q 47.40625 15.53125 47.40625 23.390625 
Q 47.40625 31.296875 43.53125 35.828125 
Q 39.65625 40.375 33.015625 40.375 
z
M 52.59375 71.296875 
L 52.59375 62.3125 
Q 48.875 64.0625 45.09375 64.984375 
Q 41.3125 65.921875 37.59375 65.921875 
Q 27.828125 65.921875 22.671875 59.328125 
Q 17.53125 52.734375 16.796875 39.40625 
Q 19.671875 43.65625 24.015625 45.921875 
Q 28.375 48.1875 33.59375 48.1875 
Q 44.578125 48.1875 50.953125 41.515625 
Q 57.328125 34.859375 57.328125 23.390625 
Q 57.328125 12.15625 50.6875 5.359375 
Q 44.046875 -1.421875 33.015625 -1.421875 
Q 20.359375 -1.421875 13.671875 8.265625 
Q 6.984375 17.96875 6.984375 36.375 
Q 6.984375 53.65625 15.1875 63.9375 
Q 23.390625 74.21875 37.203125 74.21875 
Q 40.921875 74.21875 44.703125 73.484375 
Q 48.484375 72.75 52.59375 71.296875 
z
" id="DejaVuSans-54"/>
       </defs>
       <use xlink:href="#DejaVuSans-54"/>
       <use x="63.623047" xlink:href="#DejaVuSans-48"/>
      </g>
     </g>
    </g>
    <g id="xtick_5">
     <g id="line2d_5">
      <g>
       <use style="stroke:#000000;stroke-width:0.8;" x="263.828624" xlink:href="#m32486e8906" y="303.64"/>
      </g>
     </g>
     <g id="text_5">
      <!-- 80 -->
      <g transform="translate(257.466124 318.238437)scale(0.1 -0.1)">
       <defs>
        <path d="M 31.78125 34.625 
Q 24.75 34.625 20.71875 30.859375 
Q 16.703125 27.09375 16.703125 20.515625 
Q 16.703125 13.921875 20.71875 10.15625 
Q 24.75 6.390625 31.78125 6.390625 
Q 38.8125 6.390625 42.859375 10.171875 
Q 46.921875 13.96875 46.921875 20.515625 
Q 46.921875 27.09375 42.890625 30.859375 
Q 38.875 34.625 31.78125 34.625 
z
M 21.921875 38.8125 
Q 15.578125 40.375 12.03125 44.71875 
Q 8.5 49.078125 8.5 55.328125 
Q 8.5 64.0625 14.71875 69.140625 
Q 20.953125 74.21875 31.78125 74.21875 
Q 42.671875 74.21875 48.875 69.140625 
Q 55.078125 64.0625 55.078125 55.328125 
Q 55.078125 49.078125 51.53125 44.71875 
Q 48 40.375 41.703125 38.8125 
Q 48.828125 37.15625 52.796875 32.3125 
Q 56.78125 27.484375 56.78125 20.515625 
Q 56.78125 9.90625 50.3125 4.234375 
Q 43.84375 -1.421875 31.78125 -1.421875 
Q 19.734375 -1.421875 13.25 4.234375 
Q 6.78125 9.90625 6.78125 20.515625 
Q 6.78125 27.484375 10.78125 32.3125 
Q 14.796875 37.15625 21.921875 38.8125 
z
M 18.3125 54.390625 
Q 18.3125 48.734375 21.84375 45.5625 
Q 25.390625 42.390625 31.78125 42.390625 
Q 38.140625 42.390625 41.71875 45.5625 
Q 45.3125 48.734375 45.3125 54.390625 
Q 45.3125 60.0625 41.71875 63.234375 
Q 38.140625 66.40625 31.78125 66.40625 
Q 25.390625 66.40625 21.84375 63.234375 
Q 18.3125 60.0625 18.3125 54.390625 
z
" id="DejaVuSans-56"/>
       </defs>
       <use xlink:href="#DejaVuSans-56"/>
       <use x="63.623047" xlink:href="#DejaVuSans-48"/>
      </g>
     </g>
    </g>
    <g id="xtick_6">
     <g id="line2d_6">
      <g>
       <use style="stroke:#000000;stroke-width:0.8;" x="312.532712" xlink:href="#m32486e8906" y="303.64"/>
      </g>
     </g>
     <g id="text_6">
      <!-- 100 -->
      <g transform="translate(302.988962 318.238437)scale(0.1 -0.1)">
       <defs>
        <path d="M 12.40625 8.296875 
L 28.515625 8.296875 
L 28.515625 63.921875 
L 10.984375 60.40625 
L 10.984375 69.390625 
L 28.421875 72.90625 
L 38.28125 72.90625 
L 38.28125 8.296875 
L 54.390625 8.296875 
L 54.390625 0 
L 12.40625 0 
z
" id="DejaVuSans-49"/>
       </defs>
       <use xlink:href="#DejaVuSans-49"/>
       <use x="63.623047" xlink:href="#DejaVuSans-48"/>
       <use x="127.246094" xlink:href="#DejaVuSans-48"/>
      </g>
     </g>
    </g>
    <g id="xtick_7">
     <g id="line2d_7">
      <g>
       <use style="stroke:#000000;stroke-width:0.8;" x="361.2368" xlink:href="#m32486e8906" y="303.64"/>
      </g>
     </g>
     <g id="text_7">
      <!-- 120 -->
      <g transform="translate(351.69305 318.238437)scale(0.1 -0.1)">
       <use xlink:href="#DejaVuSans-49"/>
       <use x="63.623047" xlink:href="#DejaVuSans-50"/>
       <use x="127.246094" xlink:href="#DejaVuSans-48"/>
      </g>
     </g>
    </g>
    <g id="xtick_8">
     <g id="line2d_8">
      <g>
       <use style="stroke:#000000;stroke-width:0.8;" x="409.940888" xlink:href="#m32486e8906" y="303.64"/>
      </g>
     </g>
     <g id="text_8">
      <!-- 140 -->
      <g transform="translate(400.397138 318.238437)scale(0.1 -0.1)">
       <use xlink:href="#DejaVuSans-49"/>
       <use x="63.623047" xlink:href="#DejaVuSans-52"/>
       <use x="127.246094" xlink:href="#DejaVuSans-48"/>
      </g>
     </g>
    </g>
    <g id="text_9">
     <!-- Epochs -->
     <g transform="translate(232.519375 331.916562)scale(0.1 -0.1)">
      <defs>
       <path d="M 9.8125 72.90625 
L 55.90625 72.90625 
L 55.90625 64.59375 
L 19.671875 64.59375 
L 19.671875 43.015625 
L 54.390625 43.015625 
L 54.390625 34.71875 
L 19.671875 34.71875 
L 19.671875 8.296875 
L 56.78125 8.296875 
L 56.78125 0 
L 9.8125 0 
z
" id="DejaVuSans-69"/>
       <path d="M 18.109375 8.203125 
L 18.109375 -20.796875 
L 9.078125 -20.796875 
L 9.078125 54.6875 
L 18.109375 54.6875 
L 18.109375 46.390625 
Q 20.953125 51.265625 25.265625 53.625 
Q 29.59375 56 35.59375 56 
Q 45.5625 56 51.78125 48.09375 
Q 58.015625 40.1875 58.015625 27.296875 
Q 58.015625 14.40625 51.78125 6.484375 
Q 45.5625 -1.421875 35.59375 -1.421875 
Q 29.59375 -1.421875 25.265625 0.953125 
Q 20.953125 3.328125 18.109375 8.203125 
z
M 48.6875 27.296875 
Q 48.6875 37.203125 44.609375 42.84375 
Q 40.53125 48.484375 33.40625 48.484375 
Q 26.265625 48.484375 22.1875 42.84375 
Q 18.109375 37.203125 18.109375 27.296875 
Q 18.109375 17.390625 22.1875 11.75 
Q 26.265625 6.109375 33.40625 6.109375 
Q 40.53125 6.109375 44.609375 11.75 
Q 48.6875 17.390625 48.6875 27.296875 
z
" id="DejaVuSans-112"/>
       <path d="M 30.609375 48.390625 
Q 23.390625 48.390625 19.1875 42.75 
Q 14.984375 37.109375 14.984375 27.296875 
Q 14.984375 17.484375 19.15625 11.84375 
Q 23.34375 6.203125 30.609375 6.203125 
Q 37.796875 6.203125 41.984375 11.859375 
Q 46.1875 17.53125 46.1875 27.296875 
Q 46.1875 37.015625 41.984375 42.703125 
Q 37.796875 48.390625 30.609375 48.390625 
z
M 30.609375 56 
Q 42.328125 56 49.015625 48.375 
Q 55.71875 40.765625 55.71875 27.296875 
Q 55.71875 13.875 49.015625 6.21875 
Q 42.328125 -1.421875 30.609375 -1.421875 
Q 18.84375 -1.421875 12.171875 6.21875 
Q 5.515625 13.875 5.515625 27.296875 
Q 5.515625 40.765625 12.171875 48.375 
Q 18.84375 56 30.609375 56 
z
" id="DejaVuSans-111"/>
       <path d="M 48.78125 52.59375 
L 48.78125 44.1875 
Q 44.96875 46.296875 41.140625 47.34375 
Q 37.3125 48.390625 33.40625 48.390625 
Q 24.65625 48.390625 19.8125 42.84375 
Q 14.984375 37.3125 14.984375 27.296875 
Q 14.984375 17.28125 19.8125 11.734375 
Q 24.65625 6.203125 33.40625 6.203125 
Q 37.3125 6.203125 41.140625 7.25 
Q 44.96875 8.296875 48.78125 10.40625 
L 48.78125 2.09375 
Q 45.015625 0.34375 40.984375 -0.53125 
Q 36.96875 -1.421875 32.421875 -1.421875 
Q 20.0625 -1.421875 12.78125 6.34375 
Q 5.515625 14.109375 5.515625 27.296875 
Q 5.515625 40.671875 12.859375 48.328125 
Q 20.21875 56 33.015625 56 
Q 37.15625 56 41.109375 55.140625 
Q 45.0625 54.296875 48.78125 52.59375 
z
" id="DejaVuSans-99"/>
       <path d="M 54.890625 33.015625 
L 54.890625 0 
L 45.90625 0 
L 45.90625 32.71875 
Q 45.90625 40.484375 42.875 44.328125 
Q 39.84375 48.1875 33.796875 48.1875 
Q 26.515625 48.1875 22.3125 43.546875 
Q 18.109375 38.921875 18.109375 30.90625 
L 18.109375 0 
L 9.078125 0 
L 9.078125 75.984375 
L 18.109375 75.984375 
L 18.109375 46.1875 
Q 21.34375 51.125 25.703125 53.5625 
Q 30.078125 56 35.796875 56 
Q 45.21875 56 50.046875 50.171875 
Q 54.890625 44.34375 54.890625 33.015625 
z
" id="DejaVuSans-104"/>
       <path d="M 44.28125 53.078125 
L 44.28125 44.578125 
Q 40.484375 46.53125 36.375 47.5 
Q 32.28125 48.484375 27.875 48.484375 
Q 21.1875 48.484375 17.84375 46.4375 
Q 14.5 44.390625 14.5 40.28125 
Q 14.5 37.15625 16.890625 35.375 
Q 19.28125 33.59375 26.515625 31.984375 
L 29.59375 31.296875 
Q 39.15625 29.25 43.1875 25.515625 
Q 47.21875 21.78125 47.21875 15.09375 
Q 47.21875 7.46875 41.1875 3.015625 
Q 35.15625 -1.421875 24.609375 -1.421875 
Q 20.21875 -1.421875 15.453125 -0.5625 
Q 10.6875 0.296875 5.421875 2 
L 5.421875 11.28125 
Q 10.40625 8.6875 15.234375 7.390625 
Q 20.0625 6.109375 24.8125 6.109375 
Q 31.15625 6.109375 34.5625 8.28125 
Q 37.984375 10.453125 37.984375 14.40625 
Q 37.984375 18.0625 35.515625 20.015625 
Q 33.0625 21.96875 24.703125 23.78125 
L 21.578125 24.515625 
Q 13.234375 26.265625 9.515625 29.90625 
Q 5.8125 33.546875 5.8125 39.890625 
Q 5.8125 47.609375 11.28125 51.796875 
Q 16.75 56 26.8125 56 
Q 31.78125 56 36.171875 55.265625 
Q 40.578125 54.546875 44.28125 53.078125 
z
" id="DejaVuSans-115"/>
      </defs>
      <use xlink:href="#DejaVuSans-69"/>
      <use x="63.183594" xlink:href="#DejaVuSans-112"/>
      <use x="126.660156" xlink:href="#DejaVuSans-111"/>
      <use x="187.841797" xlink:href="#DejaVuSans-99"/>
      <use x="242.822266" xlink:href="#DejaVuSans-104"/>
      <use x="306.201172" xlink:href="#DejaVuSans-115"/>
     </g>
    </g>
   </g>
   <g id="matplotlib.axis_2">
    <g id="ytick_1">
     <g id="line2d_9">
      <defs>
       <path d="M 0 0 
L -3.5 0 
" id="m70aee37bc7" style="stroke:#000000;stroke-width:0.8;"/>
      </defs>
      <g>
       <use style="stroke:#000000;stroke-width:0.8;" x="50.87" xlink:href="#m70aee37bc7" y="274.181232"/>
      </g>
     </g>
     <g id="text_10">
      <!-- 60 -->
      <g transform="translate(31.145 277.980451)scale(0.1 -0.1)">
       <use xlink:href="#DejaVuSans-54"/>
       <use x="63.623047" xlink:href="#DejaVuSans-48"/>
      </g>
     </g>
    </g>
    <g id="ytick_2">
     <g id="line2d_10">
      <g>
       <use style="stroke:#000000;stroke-width:0.8;" x="50.87" xlink:href="#m70aee37bc7" y="212.831924"/>
      </g>
     </g>
     <g id="text_11">
      <!-- 70 -->
      <g transform="translate(31.145 216.631143)scale(0.1 -0.1)">
       <defs>
        <path d="M 8.203125 72.90625 
L 55.078125 72.90625 
L 55.078125 68.703125 
L 28.609375 0 
L 18.3125 0 
L 43.21875 64.59375 
L 8.203125 64.59375 
z
" id="DejaVuSans-55"/>
       </defs>
       <use xlink:href="#DejaVuSans-55"/>
       <use x="63.623047" xlink:href="#DejaVuSans-48"/>
      </g>
     </g>
    </g>
    <g id="ytick_3">
     <g id="line2d_11">
      <g>
       <use style="stroke:#000000;stroke-width:0.8;" x="50.87" xlink:href="#m70aee37bc7" y="151.482617"/>
      </g>
     </g>
     <g id="text_12">
      <!-- 80 -->
      <g transform="translate(31.145 155.281835)scale(0.1 -0.1)">
       <use xlink:href="#DejaVuSans-56"/>
       <use x="63.623047" xlink:href="#DejaVuSans-48"/>
      </g>
     </g>
    </g>
    <g id="ytick_4">
     <g id="line2d_12">
      <g>
       <use style="stroke:#000000;stroke-width:0.8;" x="50.87" xlink:href="#m70aee37bc7" y="90.133309"/>
      </g>
     </g>
     <g id="text_13">
      <!-- 90 -->
      <g transform="translate(31.145 93.932527)scale(0.1 -0.1)">
       <defs>
        <path d="M 10.984375 1.515625 
L 10.984375 10.5 
Q 14.703125 8.734375 18.5 7.8125 
Q 22.3125 6.890625 25.984375 6.890625 
Q 35.75 6.890625 40.890625 13.453125 
Q 46.046875 20.015625 46.78125 33.40625 
Q 43.953125 29.203125 39.59375 26.953125 
Q 35.25 24.703125 29.984375 24.703125 
Q 19.046875 24.703125 12.671875 31.3125 
Q 6.296875 37.9375 6.296875 49.421875 
Q 6.296875 60.640625 12.9375 67.421875 
Q 19.578125 74.21875 30.609375 74.21875 
Q 43.265625 74.21875 49.921875 64.515625 
Q 56.59375 54.828125 56.59375 36.375 
Q 56.59375 19.140625 48.40625 8.859375 
Q 40.234375 -1.421875 26.421875 -1.421875 
Q 22.703125 -1.421875 18.890625 -0.6875 
Q 15.09375 0.046875 10.984375 1.515625 
z
M 30.609375 32.421875 
Q 37.25 32.421875 41.125 36.953125 
Q 45.015625 41.5 45.015625 49.421875 
Q 45.015625 57.28125 41.125 61.84375 
Q 37.25 66.40625 30.609375 66.40625 
Q 23.96875 66.40625 20.09375 61.84375 
Q 16.21875 57.28125 16.21875 49.421875 
Q 16.21875 41.5 20.09375 36.953125 
Q 23.96875 32.421875 30.609375 32.421875 
z
" id="DejaVuSans-57"/>
       </defs>
       <use xlink:href="#DejaVuSans-57"/>
       <use x="63.623047" xlink:href="#DejaVuSans-48"/>
      </g>
     </g>
    </g>
    <g id="ytick_5">
     <g id="line2d_13">
      <g>
       <use style="stroke:#000000;stroke-width:0.8;" x="50.87" xlink:href="#m70aee37bc7" y="28.784001"/>
      </g>
     </g>
     <g id="text_14">
      <!-- 100 -->
      <g transform="translate(24.7825 32.58322)scale(0.1 -0.1)">
       <use xlink:href="#DejaVuSans-49"/>
       <use x="63.623047" xlink:href="#DejaVuSans-48"/>
       <use x="127.246094" xlink:href="#DejaVuSans-48"/>
      </g>
     </g>
    </g>
    <g id="text_15">
     <!-- Test Accuracy (%) -->
     <g transform="translate(18.702813 201.723906)rotate(-90)scale(0.1 -0.1)">
      <defs>
       <path d="M -0.296875 72.90625 
L 61.375 72.90625 
L 61.375 64.59375 
L 35.5 64.59375 
L 35.5 0 
L 25.59375 0 
L 25.59375 64.59375 
L -0.296875 64.59375 
z
" id="DejaVuSans-84"/>
       <path d="M 56.203125 29.59375 
L 56.203125 25.203125 
L 14.890625 25.203125 
Q 15.484375 15.921875 20.484375 11.0625 
Q 25.484375 6.203125 34.421875 6.203125 
Q 39.59375 6.203125 44.453125 7.46875 
Q 49.3125 8.734375 54.109375 11.28125 
L 54.109375 2.78125 
Q 49.265625 0.734375 44.1875 -0.34375 
Q 39.109375 -1.421875 33.890625 -1.421875 
Q 20.796875 -1.421875 13.15625 6.1875 
Q 5.515625 13.8125 5.515625 26.8125 
Q 5.515625 40.234375 12.765625 48.109375 
Q 20.015625 56 32.328125 56 
Q 43.359375 56 49.78125 48.890625 
Q 56.203125 41.796875 56.203125 29.59375 
z
M 47.21875 32.234375 
Q 47.125 39.59375 43.09375 43.984375 
Q 39.0625 48.390625 32.421875 48.390625 
Q 24.90625 48.390625 20.390625 44.140625 
Q 15.875 39.890625 15.1875 32.171875 
z
" id="DejaVuSans-101"/>
       <path d="M 18.3125 70.21875 
L 18.3125 54.6875 
L 36.8125 54.6875 
L 36.8125 47.703125 
L 18.3125 47.703125 
L 18.3125 18.015625 
Q 18.3125 11.328125 20.140625 9.421875 
Q 21.96875 7.515625 27.59375 7.515625 
L 36.8125 7.515625 
L 36.8125 0 
L 27.59375 0 
Q 17.1875 0 13.234375 3.875 
Q 9.28125 7.765625 9.28125 18.015625 
L 9.28125 47.703125 
L 2.6875 47.703125 
L 2.6875 54.6875 
L 9.28125 54.6875 
L 9.28125 70.21875 
z
" id="DejaVuSans-116"/>
       <path id="DejaVuSans-32"/>
       <path d="M 34.1875 63.1875 
L 20.796875 26.90625 
L 47.609375 26.90625 
z
M 28.609375 72.90625 
L 39.796875 72.90625 
L 67.578125 0 
L 57.328125 0 
L 50.6875 18.703125 
L 17.828125 18.703125 
L 11.1875 0 
L 0.78125 0 
z
" id="DejaVuSans-65"/>
       <path d="M 8.5 21.578125 
L 8.5 54.6875 
L 17.484375 54.6875 
L 17.484375 21.921875 
Q 17.484375 14.15625 20.5 10.265625 
Q 23.53125 6.390625 29.59375 6.390625 
Q 36.859375 6.390625 41.078125 11.03125 
Q 45.3125 15.671875 45.3125 23.6875 
L 45.3125 54.6875 
L 54.296875 54.6875 
L 54.296875 0 
L 45.3125 0 
L 45.3125 8.40625 
Q 42.046875 3.421875 37.71875 1 
Q 33.40625 -1.421875 27.6875 -1.421875 
Q 18.265625 -1.421875 13.375 4.4375 
Q 8.5 10.296875 8.5 21.578125 
z
M 31.109375 56 
z
" id="DejaVuSans-117"/>
       <path d="M 41.109375 46.296875 
Q 39.59375 47.171875 37.8125 47.578125 
Q 36.03125 48 33.890625 48 
Q 26.265625 48 22.1875 43.046875 
Q 18.109375 38.09375 18.109375 28.8125 
L 18.109375 0 
L 9.078125 0 
L 9.078125 54.6875 
L 18.109375 54.6875 
L 18.109375 46.1875 
Q 20.953125 51.171875 25.484375 53.578125 
Q 30.03125 56 36.53125 56 
Q 37.453125 56 38.578125 55.875 
Q 39.703125 55.765625 41.0625 55.515625 
z
" id="DejaVuSans-114"/>
       <path d="M 34.28125 27.484375 
Q 23.390625 27.484375 19.1875 25 
Q 14.984375 22.515625 14.984375 16.5 
Q 14.984375 11.71875 18.140625 8.90625 
Q 21.296875 6.109375 26.703125 6.109375 
Q 34.1875 6.109375 38.703125 11.40625 
Q 43.21875 16.703125 43.21875 25.484375 
L 43.21875 27.484375 
z
M 52.203125 31.203125 
L 52.203125 0 
L 43.21875 0 
L 43.21875 8.296875 
Q 40.140625 3.328125 35.546875 0.953125 
Q 30.953125 -1.421875 24.3125 -1.421875 
Q 15.921875 -1.421875 10.953125 3.296875 
Q 6 8.015625 6 15.921875 
Q 6 25.140625 12.171875 29.828125 
Q 18.359375 34.515625 30.609375 34.515625 
L 43.21875 34.515625 
L 43.21875 35.40625 
Q 43.21875 41.609375 39.140625 45 
Q 35.0625 48.390625 27.6875 48.390625 
Q 23 48.390625 18.546875 47.265625 
Q 14.109375 46.140625 10.015625 43.890625 
L 10.015625 52.203125 
Q 14.9375 54.109375 19.578125 55.046875 
Q 24.21875 56 28.609375 56 
Q 40.484375 56 46.34375 49.84375 
Q 52.203125 43.703125 52.203125 31.203125 
z
" id="DejaVuSans-97"/>
       <path d="M 32.171875 -5.078125 
Q 28.375 -14.84375 24.75 -17.8125 
Q 21.140625 -20.796875 15.09375 -20.796875 
L 7.90625 -20.796875 
L 7.90625 -13.28125 
L 13.1875 -13.28125 
Q 16.890625 -13.28125 18.9375 -11.515625 
Q 21 -9.765625 23.484375 -3.21875 
L 25.09375 0.875 
L 2.984375 54.6875 
L 12.5 54.6875 
L 29.59375 11.921875 
L 46.6875 54.6875 
L 56.203125 54.6875 
z
" id="DejaVuSans-121"/>
       <path d="M 31 75.875 
Q 24.46875 64.65625 21.28125 53.65625 
Q 18.109375 42.671875 18.109375 31.390625 
Q 18.109375 20.125 21.3125 9.0625 
Q 24.515625 -2 31 -13.1875 
L 23.1875 -13.1875 
Q 15.875 -1.703125 12.234375 9.375 
Q 8.59375 20.453125 8.59375 31.390625 
Q 8.59375 42.28125 12.203125 53.3125 
Q 15.828125 64.359375 23.1875 75.875 
z
" id="DejaVuSans-40"/>
       <path d="M 72.703125 32.078125 
Q 68.453125 32.078125 66.03125 28.46875 
Q 63.625 24.859375 63.625 18.40625 
Q 63.625 12.0625 66.03125 8.421875 
Q 68.453125 4.78125 72.703125 4.78125 
Q 76.859375 4.78125 79.265625 8.421875 
Q 81.6875 12.0625 81.6875 18.40625 
Q 81.6875 24.8125 79.265625 28.4375 
Q 76.859375 32.078125 72.703125 32.078125 
z
M 72.703125 38.28125 
Q 80.421875 38.28125 84.953125 32.90625 
Q 89.5 27.546875 89.5 18.40625 
Q 89.5 9.28125 84.9375 3.921875 
Q 80.375 -1.421875 72.703125 -1.421875 
Q 64.890625 -1.421875 60.34375 3.921875 
Q 55.8125 9.28125 55.8125 18.40625 
Q 55.8125 27.59375 60.375 32.9375 
Q 64.9375 38.28125 72.703125 38.28125 
z
M 22.3125 68.015625 
Q 18.109375 68.015625 15.6875 64.375 
Q 13.28125 60.75 13.28125 54.390625 
Q 13.28125 47.953125 15.671875 44.328125 
Q 18.0625 40.71875 22.3125 40.71875 
Q 26.5625 40.71875 28.96875 44.328125 
Q 31.390625 47.953125 31.390625 54.390625 
Q 31.390625 60.6875 28.953125 64.34375 
Q 26.515625 68.015625 22.3125 68.015625 
z
M 66.40625 74.21875 
L 74.21875 74.21875 
L 28.609375 -1.421875 
L 20.796875 -1.421875 
z
M 22.3125 74.21875 
Q 30.03125 74.21875 34.609375 68.875 
Q 39.203125 63.53125 39.203125 54.390625 
Q 39.203125 45.171875 34.640625 39.84375 
Q 30.078125 34.515625 22.3125 34.515625 
Q 14.546875 34.515625 10.03125 39.859375 
Q 5.515625 45.21875 5.515625 54.390625 
Q 5.515625 63.484375 10.046875 68.84375 
Q 14.59375 74.21875 22.3125 74.21875 
z
" id="DejaVuSans-37"/>
       <path d="M 8.015625 75.875 
L 15.828125 75.875 
Q 23.140625 64.359375 26.78125 53.3125 
Q 30.421875 42.28125 30.421875 31.390625 
Q 30.421875 20.453125 26.78125 9.375 
Q 23.140625 -1.703125 15.828125 -13.1875 
L 8.015625 -13.1875 
Q 14.5 -2 17.703125 9.0625 
Q 20.90625 20.125 20.90625 31.390625 
Q 20.90625 42.671875 17.703125 53.65625 
Q 14.5 64.65625 8.015625 75.875 
z
" id="DejaVuSans-41"/>
      </defs>
      <use xlink:href="#DejaVuSans-84"/>
      <use x="44.083984" xlink:href="#DejaVuSans-101"/>
      <use x="105.607422" xlink:href="#DejaVuSans-115"/>
      <use x="157.707031" xlink:href="#DejaVuSans-116"/>
      <use x="196.916016" xlink:href="#DejaVuSans-32"/>
      <use x="228.703125" xlink:href="#DejaVuSans-65"/>
      <use x="295.361328" xlink:href="#DejaVuSans-99"/>
      <use x="350.341797" xlink:href="#DejaVuSans-99"/>
      <use x="405.322266" xlink:href="#DejaVuSans-117"/>
      <use x="468.701172" xlink:href="#DejaVuSans-114"/>
      <use x="509.814453" xlink:href="#DejaVuSans-97"/>
      <use x="571.09375" xlink:href="#DejaVuSans-99"/>
      <use x="626.074219" xlink:href="#DejaVuSans-121"/>
      <use x="685.253906" xlink:href="#DejaVuSans-32"/>
      <use x="717.041016" xlink:href="#DejaVuSans-40"/>
      <use x="756.054688" xlink:href="#DejaVuSans-37"/>
      <use x="851.074219" xlink:href="#DejaVuSans-41"/>
     </g>
    </g>
   </g>
   <g id="line2d_14">
    <path clip-path="url(#p6ff23d5a27)" d="M 69.012273 211.873342 
L 71.447477 125.600877 
L 73.882682 120.807963 
L 76.317886 139.021038 
L 78.75309 78.630314 
L 81.188295 74.795982 
L 83.623499 49.872825 
L 86.058703 39.328413 
L 88.493908 51.789991 
L 90.929112 48.914243 
L 93.364317 44.121328 
L 95.799521 42.204162 
L 98.234725 38.36983 
L 100.66993 40.286996 
L 103.105134 44.121328 
L 105.540339 50.831408 
L 107.975543 41.245579 
L 110.410747 32.618333 
L 112.845952 43.162745 
L 115.281156 48.914243 
L 117.716361 41.245579 
L 120.151565 38.36983 
L 122.586769 32.618333 
L 125.021974 35.494081 
L 127.457178 46.038494 
L 129.892383 38.36983 
L 132.327587 35.494081 
L 134.762791 35.494081 
L 137.197996 34.535499 
L 139.6332 37.411247 
L 142.068405 38.36983 
L 144.503609 38.36983 
L 146.938813 35.494081 
L 149.374018 30.701167 
L 151.809222 32.618333 
L 154.244426 44.121328 
L 156.679631 34.535499 
L 159.114835 34.535499 
L 161.55004 36.452664 
L 163.985244 36.452664 
L 166.420448 28.784001 
L 171.290857 32.618333 
L 173.726062 28.784001 
L 176.161266 32.618333 
L 178.59647 28.784001 
L 181.031675 40.286996 
L 183.466879 28.784001 
L 185.902084 38.36983 
L 188.337288 28.784001 
L 190.772492 30.701167 
L 193.207697 34.535499 
L 195.642901 28.784001 
L 198.078106 32.618333 
L 200.51331 38.36983 
L 202.948514 30.701167 
L 205.383719 30.701167 
L 207.818923 33.576916 
L 210.254128 28.784001 
L 212.689332 34.535499 
L 215.124536 28.784001 
L 217.559741 28.784001 
L 219.994945 30.701167 
L 222.430149 28.784001 
L 224.865354 29.742584 
L 227.300558 32.618333 
L 229.735763 32.618333 
L 232.170967 28.784001 
L 234.606171 30.701167 
L 237.041376 28.784001 
L 239.47658 34.535499 
L 241.911785 30.701167 
L 244.346989 32.618333 
L 246.782193 28.784001 
L 249.217398 32.618333 
L 251.652602 28.784001 
L 254.087807 30.701167 
L 256.523011 28.784001 
L 258.958215 32.618333 
L 261.39342 28.784001 
L 263.828624 30.701167 
L 271.134237 30.701167 
L 273.569442 28.784001 
L 276.004646 28.784001 
L 278.439851 30.701167 
L 288.180668 30.701167 
L 290.615872 28.784001 
L 295.486281 28.784001 
L 297.921486 30.701167 
L 300.35669 30.701167 
L 302.791894 28.784001 
L 307.662303 30.701167 
L 310.097508 30.701167 
L 312.532712 28.784001 
L 317.403121 28.784001 
L 319.838325 30.701167 
L 322.27353 30.701167 
L 324.708734 28.784001 
L 327.143938 28.784001 
L 329.579143 30.701167 
L 332.014347 30.701167 
L 334.449552 29.742584 
L 336.884756 30.701167 
L 339.31996 28.784001 
L 344.190369 28.784001 
L 346.625574 30.701167 
L 349.060778 28.784001 
L 431.857727 28.784001 
L 431.857727 28.784001 
" style="fill:none;stroke:#1f77b4;stroke-linecap:square;stroke-width:1.5;"/>
   </g>
   <g id="line2d_15">
    <path clip-path="url(#p6ff23d5a27)" d="M 69.012273 269.807698 
L 71.447477 189.286731 
L 73.882682 118.711063 
L 76.317886 75.934299 
L 78.75309 103.673293 
L 81.188295 96.723566 
L 83.623499 113.618591 
L 86.058703 106.788687 
L 88.493908 86.718357 
L 90.929112 75.99421 
L 93.364317 78.031199 
L 95.799521 61.255998 
L 98.234725 63.412809 
L 100.66993 68.385458 
L 103.105134 75.99421 
L 105.540339 55.863969 
L 107.975543 65.569621 
L 110.410747 56.163526 
L 112.845952 48.554774 
L 115.281156 55.025209 
L 117.716361 47.476368 
L 120.151565 65.569621 
L 122.586769 59.758212 
L 125.021974 54.306272 
L 127.457178 43.222656 
L 129.892383 41.005933 
L 132.327587 42.803276 
L 134.762791 41.245579 
L 137.197996 60.776706 
L 139.6332 48.135394 
L 142.068405 53.227866 
L 144.503609 52.14946 
L 146.938813 45.319557 
L 149.374018 47.476368 
L 151.809222 60.057769 
L 154.244426 46.038494 
L 156.679631 58.979363 
L 159.114835 55.384677 
L 161.55004 50.352117 
L 163.985244 48.554774 
L 166.420448 46.038494 
L 168.855653 47.476368 
L 171.290857 39.20859 
L 173.726062 38.130185 
L 176.161266 52.14946 
L 178.59647 43.522214 
L 181.031675 33.457093 
L 183.466879 41.664959 
L 185.902084 41.664959 
L 188.337288 47.476368 
L 190.772492 45.679025 
L 193.207697 38.130185 
L 195.642901 44.241151 
L 198.078106 44.900176 
L 200.51331 47.476368 
L 205.383719 41.724871 
L 207.818923 30.581344 
L 210.254128 37.411247 
L 212.689332 49.63318 
L 215.124536 39.20859 
L 217.559741 48.554774 
L 219.994945 31.65975 
L 222.430149 38.849122 
L 224.865354 44.960088 
L 227.300558 37.051779 
L 229.735763 38.130185 
L 232.170967 32.378687 
L 234.606171 31.959307 
L 237.041376 34.17603 
L 239.47658 41.005933 
L 241.911785 41.724871 
L 244.346989 33.457093 
L 246.782193 30.581344 
L 249.217398 44.600619 
L 251.652602 46.457874 
L 254.087807 40.706376 
L 256.523011 33.816561 
L 258.958215 37.051779 
L 261.39342 44.600619 
L 263.828624 46.757431 
L 266.263829 28.784001 
L 268.699033 34.475587 
L 271.134237 28.784001 
L 273.569442 35.254436 
L 276.004646 36.332842 
L 278.439851 28.784001 
L 280.875055 30.880901 
L 283.310259 36.332842 
L 285.745464 35.254436 
L 288.180668 31.959307 
L 290.615872 30.581344 
L 293.051077 31.65975 
L 295.486281 36.332842 
L 297.921486 35.254436 
L 300.35669 31.65975 
L 302.791894 32.378687 
L 305.227099 34.535499 
L 307.662303 35.254436 
L 310.097508 30.581344 
L 312.532712 32.378687 
L 314.967916 36.332842 
L 317.403121 30.581344 
L 319.838325 31.65975 
L 322.27353 32.378687 
L 324.708734 33.996296 
L 329.579143 29.443027 
L 332.014347 31.65975 
L 334.449552 28.784001 
L 336.884756 30.581344 
L 339.31996 31.65975 
L 341.755165 31.65975 
L 344.190369 28.784001 
L 346.625574 34.17603 
L 349.060778 30.581344 
L 351.495982 30.581344 
L 353.931187 28.784001 
L 356.366391 31.060635 
L 358.801595 28.784001 
L 363.672004 28.784001 
L 366.107209 30.581344 
L 368.542413 30.880901 
L 370.977617 28.784001 
L 375.848026 28.784001 
L 378.283231 30.581344 
L 385.588844 30.581344 
L 388.024048 28.784001 
L 400.20007 28.784001 
L 402.635275 30.221875 
L 405.070479 30.581344 
L 409.940888 30.581344 
L 412.376092 28.784001 
L 419.681705 28.784001 
L 422.11691 29.922318 
L 424.552114 28.784001 
L 426.987318 29.922318 
L 429.422523 29.922318 
L 431.857727 28.784001 
L 431.857727 28.784001 
" style="fill:none;stroke:#ff7f0e;stroke-linecap:square;stroke-width:1.5;"/>
   </g>
   <g id="line2d_16">
    <path clip-path="url(#p6ff23d5a27)" d="M 69.012273 208.338567 
L 71.447477 176.765242 
L 73.882682 78.510491 
L 76.317886 95.525338 
L 78.75309 131.951489 
L 81.188295 117.273188 
L 83.623499 73.178373 
L 86.058703 63.952012 
L 88.493908 65.210152 
L 90.929112 71.860322 
L 93.364317 55.624323 
L 95.799521 44.181239 
L 98.234725 53.82698 
L 100.66993 39.807705 
L 103.105134 41.545136 
L 105.540339 36.452664 
L 107.975543 48.315128 
L 110.410747 34.295853 
L 112.845952 39.268502 
L 115.281156 38.609476 
L 117.716361 31.839484 
L 120.151565 42.563631 
L 122.586769 39.927528 
L 125.021974 39.088767 
L 127.457178 43.821771 
L 129.892383 31.719661 
L 132.327587 36.752222 
L 134.762791 39.088767 
L 137.197996 35.074701 
L 139.6332 32.857978 
L 142.068405 31.65975 
L 144.503609 33.816561 
L 146.938813 35.134613 
L 149.374018 33.816561 
L 151.809222 33.277358 
L 154.244426 33.33727 
L 156.679631 32.558421 
L 159.114835 32.07913 
L 161.55004 38.130185 
L 163.985244 36.512576 
L 166.420448 38.489653 
L 168.855653 29.56285 
L 171.290857 29.14347 
L 173.726062 32.07913 
L 176.161266 37.710804 
L 178.59647 35.973373 
L 181.031675 29.56285 
L 183.466879 34.355764 
L 185.902084 30.701167 
L 188.337288 31.180458 
L 190.772492 35.793639 
L 193.207697 30.341698 
L 195.642901 32.07913 
L 198.078106 34.235941 
L 200.51331 30.701167 
L 202.948514 29.56285 
L 205.383719 33.037713 
L 207.818923 29.14347 
L 210.254128 29.14347 
L 212.689332 32.798067 
L 215.124536 31.120547 
L 219.994945 29.56285 
L 222.430149 31.599838 
L 224.865354 29.922318 
L 227.300558 29.922318 
L 229.735763 32.618333 
L 232.170967 31.120547 
L 234.606171 32.07913 
L 237.041376 33.816561 
L 239.47658 29.56285 
L 241.911785 32.07913 
L 244.346989 30.521432 
L 246.782193 32.558421 
L 249.217398 32.07913 
L 251.652602 30.341698 
L 254.087807 32.07913 
L 256.523011 30.341698 
L 258.958215 34.59541 
L 261.39342 29.502938 
L 263.828624 31.599838 
L 266.263829 30.341698 
L 268.699033 33.037713 
L 271.134237 29.56285 
L 273.569442 28.784001 
L 276.004646 30.341698 
L 278.439851 30.581344 
L 280.875055 29.56285 
L 283.310259 29.56285 
L 285.745464 29.14347 
L 288.180668 31.120547 
L 290.615872 31.120547 
L 293.051077 31.899395 
L 295.486281 31.120547 
L 297.921486 29.56285 
L 300.35669 32.318775 
L 302.791894 30.341698 
L 305.227099 28.784001 
L 307.662303 29.56285 
L 310.097508 28.784001 
L 312.532712 28.784001 
L 314.967916 29.56285 
L 317.403121 29.56285 
L 319.838325 28.784001 
L 322.27353 28.784001 
L 324.708734 29.56285 
L 327.143938 29.56285 
L 329.579143 28.784001 
L 336.884756 28.784001 
L 339.31996 29.56285 
L 341.755165 29.56285 
L 344.190369 28.784001 
L 346.625574 28.784001 
L 349.060778 31.65975 
L 351.495982 28.784001 
L 363.672004 28.784001 
L 366.107209 29.56285 
L 368.542413 28.784001 
L 431.857727 28.784001 
L 431.857727 28.784001 
" style="fill:none;stroke:#2ca02c;stroke-linecap:square;stroke-width:1.5;"/>
   </g>
   <g id="patch_3">
    <path d="M 50.87 303.64 
L 50.87 10.8 
" style="fill:none;stroke:#000000;stroke-linecap:square;stroke-linejoin:miter;stroke-width:0.8;"/>
   </g>
   <g id="patch_4">
    <path d="M 450 303.64 
L 450 10.8 
" style="fill:none;stroke:#000000;stroke-linecap:square;stroke-linejoin:miter;stroke-width:0.8;"/>
   </g>
   <g id="patch_5">
    <path d="M 50.87 303.64 
L 450 303.64 
" style="fill:none;stroke:#000000;stroke-linecap:square;stroke-linejoin:miter;stroke-width:0.8;"/>
   </g>
   <g id="patch_6">
    <path d="M 50.87 10.8 
L 450 10.8 
" style="fill:none;stroke:#000000;stroke-linecap:square;stroke-linejoin:miter;stroke-width:0.8;"/>
   </g>
   <g id="legend_1">
    <g id="patch_7">
     <path d="M 361.492188 298.64 
L 443 298.64 
Q 445 298.64 445 296.64 
L 445 253.605625 
Q 445 251.605625 443 251.605625 
L 361.492188 251.605625 
Q 359.492188 251.605625 359.492188 253.605625 
L 359.492188 296.64 
Q 359.492188 298.64 361.492188 298.64 
z
" style="fill:#ffffff;opacity:0.8;stroke:#cccccc;stroke-linejoin:miter;"/>
    </g>
    <g id="line2d_17">
     <path d="M 363.492188 259.704062 
L 383.492188 259.704062 
" style="fill:none;stroke:#1f77b4;stroke-linecap:square;stroke-width:1.5;"/>
    </g>
    <g id="line2d_18"/>
    <g id="text_16">
     <!-- Sync-SGD -->
     <g transform="translate(391.492188 263.204062)scale(0.1 -0.1)">
      <defs>
       <path d="M 53.515625 70.515625 
L 53.515625 60.890625 
Q 47.90625 63.578125 42.921875 64.890625 
Q 37.9375 66.21875 33.296875 66.21875 
Q 25.25 66.21875 20.875 63.09375 
Q 16.5 59.96875 16.5 54.203125 
Q 16.5 49.359375 19.40625 46.890625 
Q 22.3125 44.4375 30.421875 42.921875 
L 36.375 41.703125 
Q 47.40625 39.59375 52.65625 34.296875 
Q 57.90625 29 57.90625 20.125 
Q 57.90625 9.515625 50.796875 4.046875 
Q 43.703125 -1.421875 29.984375 -1.421875 
Q 24.8125 -1.421875 18.96875 -0.25 
Q 13.140625 0.921875 6.890625 3.21875 
L 6.890625 13.375 
Q 12.890625 10.015625 18.65625 8.296875 
Q 24.421875 6.59375 29.984375 6.59375 
Q 38.421875 6.59375 43.015625 9.90625 
Q 47.609375 13.234375 47.609375 19.390625 
Q 47.609375 24.75 44.3125 27.78125 
Q 41.015625 30.8125 33.5 32.328125 
L 27.484375 33.5 
Q 16.453125 35.6875 11.515625 40.375 
Q 6.59375 45.0625 6.59375 53.421875 
Q 6.59375 63.09375 13.40625 68.65625 
Q 20.21875 74.21875 32.171875 74.21875 
Q 37.3125 74.21875 42.625 73.28125 
Q 47.953125 72.359375 53.515625 70.515625 
z
" id="DejaVuSans-83"/>
       <path d="M 54.890625 33.015625 
L 54.890625 0 
L 45.90625 0 
L 45.90625 32.71875 
Q 45.90625 40.484375 42.875 44.328125 
Q 39.84375 48.1875 33.796875 48.1875 
Q 26.515625 48.1875 22.3125 43.546875 
Q 18.109375 38.921875 18.109375 30.90625 
L 18.109375 0 
L 9.078125 0 
L 9.078125 54.6875 
L 18.109375 54.6875 
L 18.109375 46.1875 
Q 21.34375 51.125 25.703125 53.5625 
Q 30.078125 56 35.796875 56 
Q 45.21875 56 50.046875 50.171875 
Q 54.890625 44.34375 54.890625 33.015625 
z
" id="DejaVuSans-110"/>
       <path d="M 4.890625 31.390625 
L 31.203125 31.390625 
L 31.203125 23.390625 
L 4.890625 23.390625 
z
" id="DejaVuSans-45"/>
       <path d="M 59.515625 10.40625 
L 59.515625 29.984375 
L 43.40625 29.984375 
L 43.40625 38.09375 
L 69.28125 38.09375 
L 69.28125 6.78125 
Q 63.578125 2.734375 56.6875 0.65625 
Q 49.8125 -1.421875 42 -1.421875 
Q 24.90625 -1.421875 15.25 8.5625 
Q 5.609375 18.5625 5.609375 36.375 
Q 5.609375 54.25 15.25 64.234375 
Q 24.90625 74.21875 42 74.21875 
Q 49.125 74.21875 55.546875 72.453125 
Q 61.96875 70.703125 67.390625 67.28125 
L 67.390625 56.78125 
Q 61.921875 61.421875 55.765625 63.765625 
Q 49.609375 66.109375 42.828125 66.109375 
Q 29.4375 66.109375 22.71875 58.640625 
Q 16.015625 51.171875 16.015625 36.375 
Q 16.015625 21.625 22.71875 14.15625 
Q 29.4375 6.6875 42.828125 6.6875 
Q 48.046875 6.6875 52.140625 7.59375 
Q 56.25 8.5 59.515625 10.40625 
z
" id="DejaVuSans-71"/>
       <path d="M 19.671875 64.796875 
L 19.671875 8.109375 
L 31.59375 8.109375 
Q 46.6875 8.109375 53.6875 14.9375 
Q 60.6875 21.78125 60.6875 36.53125 
Q 60.6875 51.171875 53.6875 57.984375 
Q 46.6875 64.796875 31.59375 64.796875 
z
M 9.8125 72.90625 
L 30.078125 72.90625 
Q 51.265625 72.90625 61.171875 64.09375 
Q 71.09375 55.28125 71.09375 36.53125 
Q 71.09375 17.671875 61.125 8.828125 
Q 51.171875 0 30.078125 0 
L 9.8125 0 
z
" id="DejaVuSans-68"/>
      </defs>
      <use xlink:href="#DejaVuSans-83"/>
      <use x="63.476562" xlink:href="#DejaVuSans-121"/>
      <use x="122.65625" xlink:href="#DejaVuSans-110"/>
      <use x="186.035156" xlink:href="#DejaVuSans-99"/>
      <use x="241.015625" xlink:href="#DejaVuSans-45"/>
      <use x="277.099609" xlink:href="#DejaVuSans-83"/>
      <use x="340.576172" xlink:href="#DejaVuSans-71"/>
      <use x="418.066406" xlink:href="#DejaVuSans-68"/>
     </g>
    </g>
    <g id="line2d_19">
     <path d="M 363.492188 274.382187 
L 383.492188 274.382187 
" style="fill:none;stroke:#ff7f0e;stroke-linecap:square;stroke-width:1.5;"/>
    </g>
    <g id="line2d_20"/>
    <g id="text_17">
     <!-- DP-SGD -->
     <g transform="translate(391.492188 277.882187)scale(0.1 -0.1)">
      <defs>
       <path d="M 19.671875 64.796875 
L 19.671875 37.40625 
L 32.078125 37.40625 
Q 38.96875 37.40625 42.71875 40.96875 
Q 46.484375 44.53125 46.484375 51.125 
Q 46.484375 57.671875 42.71875 61.234375 
Q 38.96875 64.796875 32.078125 64.796875 
z
M 9.8125 72.90625 
L 32.078125 72.90625 
Q 44.34375 72.90625 50.609375 67.359375 
Q 56.890625 61.8125 56.890625 51.125 
Q 56.890625 40.328125 50.609375 34.8125 
Q 44.34375 29.296875 32.078125 29.296875 
L 19.671875 29.296875 
L 19.671875 0 
L 9.8125 0 
z
" id="DejaVuSans-80"/>
      </defs>
      <use xlink:href="#DejaVuSans-68"/>
      <use x="77.001953" xlink:href="#DejaVuSans-80"/>
      <use x="135.054688" xlink:href="#DejaVuSans-45"/>
      <use x="171.138672" xlink:href="#DejaVuSans-83"/>
      <use x="234.615234" xlink:href="#DejaVuSans-71"/>
      <use x="312.105469" xlink:href="#DejaVuSans-68"/>
     </g>
    </g>
    <g id="line2d_21">
     <path d="M 363.492188 289.060312 
L 383.492188 289.060312 
" style="fill:none;stroke:#2ca02c;stroke-linecap:square;stroke-width:1.5;"/>
    </g>
    <g id="line2d_22"/>
    <g id="text_18">
     <!-- EDP-SGD -->
     <g transform="translate(391.492188 292.560312)scale(0.1 -0.1)">
      <use xlink:href="#DejaVuSans-69"/>
      <use x="63.183594" xlink:href="#DejaVuSans-68"/>
      <use x="140.185547" xlink:href="#DejaVuSans-80"/>
      <use x="198.238281" xlink:href="#DejaVuSans-45"/>
      <use x="234.322266" xlink:href="#DejaVuSans-83"/>
      <use x="297.798828" xlink:href="#DejaVuSans-71"/>
      <use x="375.289062" xlink:href="#DejaVuSans-68"/>
     </g>
    </g>
   </g>
  </g>
 </g>
 <defs>
  <clipPath id="p6ff23d5a27">
   <rect height="292.84" width="399.13" x="50.87" y="10.8"/>
  </clipPath>
 </defs>
</svg>
