<?xml version="1.0" encoding="utf-8" standalone="no"?>
<!DOCTYPE svg PUBLIC "-//W3C//DTD SVG 1.1//EN"
  "http://www.w3.org/Graphics/SVG/1.1/DTD/svg11.dtd">
<!-- Created with matplotlib (https://matplotlib.org/) -->
<svg height="345.6pt" version="1.1" viewBox="0 0 460.8 345.6" width="460.8pt" xmlns="http://www.w3.org/2000/svg" xmlns:xlink="http://www.w3.org/1999/xlink">
 <metadata>
  <rdf:RDF xmlns:cc="http://creativecommons.org/ns#" xmlns:dc="http://purl.org/dc/elements/1.1/" xmlns:rdf="http://www.w3.org/1999/02/22-rdf-syntax-ns#">
   <cc:Work>
    <dc:type rdf:resource="http://purl.org/dc/dcmitype/StillImage"/>
    <dc:date>2021-06-20T12:13:55.481769</dc:date>
    <dc:format>image/svg+xml</dc:format>
    <dc:creator>
     <cc:Agent>
      <dc:title>Matplotlib v3.3.1, https://matplotlib.org/</dc:title>
     </cc:Agent>
    </dc:creator>
   </cc:Work>
  </rdf:RDF>
 </metadata>
 <defs>
  <style type="text/css">*{stroke-linecap:butt;stroke-linejoin:round;}</style>
 </defs>
 <g id="figure_1">
  <g id="patch_1">
   <path d="M 0 345.6 
L 460.8 345.6 
L 460.8 0 
L 0 0 
z
" style="fill:#ffffff;"/>
  </g>
  <g id="axes_1">
   <g id="patch_2">
    <path d="M 57.6 307.584 
L 414.72 307.584 
L 414.72 41.472 
L 57.6 41.472 
z
" style="fill:#ffffff;"/>
   </g>
   <g id="patch_3">
    <path clip-path="url(#pfa489367e8)" d="M 336.741275 307.584 
L 337.358735 307.584 
L 337.358735 307.065718 
L 336.741275 307.065718 
z
" style="fill:#1f77b4;"/>
   </g>
   <g id="patch_4">
    <path clip-path="url(#pfa489367e8)" d="M 337.358735 307.584 
L 337.976195 307.584 
L 337.976195 307.065718 
L 337.358735 307.065718 
z
" style="fill:#1f77b4;"/>
   </g>
   <g id="patch_5">
    <path clip-path="url(#pfa489367e8)" d="M 337.976195 307.584 
L 338.593655 307.584 
L 338.593655 307.065718 
L 337.976195 307.065718 
z
" style="fill:#1f77b4;"/>
   </g>
   <g id="patch_6">
    <path clip-path="url(#pfa489367e8)" d="M 338.593655 307.584 
L 339.211115 307.584 
L 339.211115 305.25173 
L 338.593655 305.25173 
z
" style="fill:#1f77b4;"/>
   </g>
   <g id="patch_7">
    <path clip-path="url(#pfa489367e8)" d="M 339.211115 307.584 
L 339.828575 307.584 
L 339.828575 306.288294 
L 339.211115 306.288294 
z
" style="fill:#1f77b4;"/>
   </g>
   <g id="patch_8">
    <path clip-path="url(#pfa489367e8)" d="M 339.828575 307.584 
L 340.446035 307.584 
L 340.446035 306.029153 
L 339.828575 306.029153 
z
" style="fill:#1f77b4;"/>
   </g>
   <g id="patch_9">
    <path clip-path="url(#pfa489367e8)" d="M 340.446035 307.584 
L 341.063495 307.584 
L 341.063495 305.25173 
L 340.446035 305.25173 
z
" style="fill:#1f77b4;"/>
   </g>
   <g id="patch_10">
    <path clip-path="url(#pfa489367e8)" d="M 341.063495 307.584 
L 341.680955 307.584 
L 341.680955 306.029153 
L 341.063495 306.029153 
z
" style="fill:#1f77b4;"/>
   </g>
   <g id="patch_11">
    <path clip-path="url(#pfa489367e8)" d="M 341.680955 307.584 
L 342.298415 307.584 
L 342.298415 306.029153 
L 341.680955 306.029153 
z
" style="fill:#1f77b4;"/>
   </g>
   <g id="patch_12">
    <path clip-path="url(#pfa489367e8)" d="M 342.298415 307.584 
L 342.915875 307.584 
L 342.915875 306.029153 
L 342.298415 306.029153 
z
" style="fill:#1f77b4;"/>
   </g>
   <g id="patch_13">
    <path clip-path="url(#pfa489367e8)" d="M 342.915875 307.584 
L 343.533335 307.584 
L 343.533335 303.696883 
L 342.915875 303.696883 
z
" style="fill:#1f77b4;"/>
   </g>
   <g id="patch_14">
    <path clip-path="url(#pfa489367e8)" d="M 343.533335 307.584 
L 344.150795 307.584 
L 344.150795 301.882896 
L 343.533335 301.882896 
z
" style="fill:#1f77b4;"/>
   </g>
   <g id="patch_15">
    <path clip-path="url(#pfa489367e8)" d="M 344.150795 307.584 
L 344.768255 307.584 
L 344.768255 289.962405 
L 344.150795 289.962405 
z
" style="fill:#1f77b4;"/>
   </g>
   <g id="patch_16">
    <path clip-path="url(#pfa489367e8)" d="M 344.768255 307.584 
L 345.385715 307.584 
L 345.385715 272.081669 
L 344.768255 272.081669 
z
" style="fill:#1f77b4;"/>
   </g>
   <g id="patch_17">
    <path clip-path="url(#pfa489367e8)" d="M 345.385715 307.584 
L 346.003175 307.584 
L 346.003175 257.569767 
L 345.385715 257.569767 
z
" style="fill:#1f77b4;"/>
   </g>
   <g id="patch_18">
    <path clip-path="url(#pfa489367e8)" d="M 346.003175 307.584 
L 346.620635 307.584 
L 346.620635 253.941791 
L 346.003175 253.941791 
z
" style="fill:#1f77b4;"/>
   </g>
   <g id="patch_19">
    <path clip-path="url(#pfa489367e8)" d="M 346.620635 307.584 
L 347.238095 307.584 
L 347.238095 272.081669 
L 346.620635 272.081669 
z
" style="fill:#1f77b4;"/>
   </g>
   <g id="patch_20">
    <path clip-path="url(#pfa489367e8)" d="M 347.238095 307.584 
L 347.855555 307.584 
L 347.855555 286.334429 
L 347.238095 286.334429 
z
" style="fill:#1f77b4;"/>
   </g>
   <g id="patch_21">
    <path clip-path="url(#pfa489367e8)" d="M 347.855555 307.584 
L 348.473015 307.584 
L 348.473015 299.550626 
L 347.855555 299.550626 
z
" style="fill:#1f77b4;"/>
   </g>
   <g id="patch_22">
    <path clip-path="url(#pfa489367e8)" d="M 348.473015 307.584 
L 349.090475 307.584 
L 349.090475 301.882896 
L 348.473015 301.882896 
z
" style="fill:#1f77b4;"/>
   </g>
   <g id="patch_23">
    <path clip-path="url(#pfa489367e8)" d="M 349.090475 307.584 
L 349.707935 307.584 
L 349.707935 306.029153 
L 349.090475 306.029153 
z
" style="fill:#1f77b4;"/>
   </g>
   <g id="patch_24">
    <path clip-path="url(#pfa489367e8)" d="M 349.707935 307.584 
L 350.325395 307.584 
L 350.325395 306.547436 
L 349.707935 306.547436 
z
" style="fill:#1f77b4;"/>
   </g>
   <g id="patch_25">
    <path clip-path="url(#pfa489367e8)" d="M 350.325395 307.584 
L 350.942855 307.584 
L 350.942855 307.584 
L 350.325395 307.584 
z
" style="fill:#1f77b4;"/>
   </g>
   <g id="patch_26">
    <path clip-path="url(#pfa489367e8)" d="M 350.942855 307.584 
L 351.560315 307.584 
L 351.560315 307.584 
L 350.942855 307.584 
z
" style="fill:#1f77b4;"/>
   </g>
   <g id="patch_27">
    <path clip-path="url(#pfa489367e8)" d="M 351.560315 307.584 
L 352.177775 307.584 
L 352.177775 307.324859 
L 351.560315 307.324859 
z
" style="fill:#1f77b4;"/>
   </g>
   <g id="patch_28">
    <path clip-path="url(#pfa489367e8)" d="M 352.177775 307.584 
L 352.795235 307.584 
L 352.795235 307.584 
L 352.177775 307.584 
z
" style="fill:#1f77b4;"/>
   </g>
   <g id="patch_29">
    <path clip-path="url(#pfa489367e8)" d="M 352.795235 307.584 
L 353.412695 307.584 
L 353.412695 307.584 
L 352.795235 307.584 
z
" style="fill:#1f77b4;"/>
   </g>
   <g id="patch_30">
    <path clip-path="url(#pfa489367e8)" d="M 353.412695 307.584 
L 354.030155 307.584 
L 354.030155 307.584 
L 353.412695 307.584 
z
" style="fill:#1f77b4;"/>
   </g>
   <g id="patch_31">
    <path clip-path="url(#pfa489367e8)" d="M 354.030155 307.584 
L 354.647615 307.584 
L 354.647615 307.584 
L 354.030155 307.584 
z
" style="fill:#1f77b4;"/>
   </g>
   <g id="patch_32">
    <path clip-path="url(#pfa489367e8)" d="M 354.647615 307.584 
L 355.265075 307.584 
L 355.265075 307.584 
L 354.647615 307.584 
z
" style="fill:#1f77b4;"/>
   </g>
   <g id="patch_33">
    <path clip-path="url(#pfa489367e8)" d="M 355.265075 307.584 
L 355.882535 307.584 
L 355.882535 307.584 
L 355.265075 307.584 
z
" style="fill:#1f77b4;"/>
   </g>
   <g id="patch_34">
    <path clip-path="url(#pfa489367e8)" d="M 355.882535 307.584 
L 356.499995 307.584 
L 356.499995 307.584 
L 355.882535 307.584 
z
" style="fill:#1f77b4;"/>
   </g>
   <g id="patch_35">
    <path clip-path="url(#pfa489367e8)" d="M 356.499995 307.584 
L 357.117454 307.584 
L 357.117454 307.584 
L 356.499995 307.584 
z
" style="fill:#1f77b4;"/>
   </g>
   <g id="patch_36">
    <path clip-path="url(#pfa489367e8)" d="M 357.117454 307.584 
L 357.734914 307.584 
L 357.734914 307.584 
L 357.117454 307.584 
z
" style="fill:#1f77b4;"/>
   </g>
   <g id="patch_37">
    <path clip-path="url(#pfa489367e8)" d="M 357.734914 307.584 
L 358.352374 307.584 
L 358.352374 307.584 
L 357.734914 307.584 
z
" style="fill:#1f77b4;"/>
   </g>
   <g id="patch_38">
    <path clip-path="url(#pfa489367e8)" d="M 358.352374 307.584 
L 358.969834 307.584 
L 358.969834 307.584 
L 358.352374 307.584 
z
" style="fill:#1f77b4;"/>
   </g>
   <g id="patch_39">
    <path clip-path="url(#pfa489367e8)" d="M 358.969834 307.584 
L 359.587294 307.584 
L 359.587294 307.584 
L 358.969834 307.584 
z
" style="fill:#1f77b4;"/>
   </g>
   <g id="patch_40">
    <path clip-path="url(#pfa489367e8)" d="M 359.587294 307.584 
L 360.204754 307.584 
L 360.204754 307.584 
L 359.587294 307.584 
z
" style="fill:#1f77b4;"/>
   </g>
   <g id="patch_41">
    <path clip-path="url(#pfa489367e8)" d="M 360.204754 307.584 
L 360.822214 307.584 
L 360.822214 307.584 
L 360.204754 307.584 
z
" style="fill:#1f77b4;"/>
   </g>
   <g id="patch_42">
    <path clip-path="url(#pfa489367e8)" d="M 360.822214 307.584 
L 361.439674 307.584 
L 361.439674 307.584 
L 360.822214 307.584 
z
" style="fill:#1f77b4;"/>
   </g>
   <g id="patch_43">
    <path clip-path="url(#pfa489367e8)" d="M 361.439674 307.584 
L 362.057134 307.584 
L 362.057134 307.584 
L 361.439674 307.584 
z
" style="fill:#1f77b4;"/>
   </g>
   <g id="patch_44">
    <path clip-path="url(#pfa489367e8)" d="M 362.057134 307.584 
L 362.674594 307.584 
L 362.674594 307.584 
L 362.057134 307.584 
z
" style="fill:#1f77b4;"/>
   </g>
   <g id="patch_45">
    <path clip-path="url(#pfa489367e8)" d="M 362.674594 307.584 
L 363.292054 307.584 
L 363.292054 307.584 
L 362.674594 307.584 
z
" style="fill:#1f77b4;"/>
   </g>
   <g id="patch_46">
    <path clip-path="url(#pfa489367e8)" d="M 363.292054 307.584 
L 363.909514 307.584 
L 363.909514 307.584 
L 363.292054 307.584 
z
" style="fill:#1f77b4;"/>
   </g>
   <g id="patch_47">
    <path clip-path="url(#pfa489367e8)" d="M 363.909514 307.584 
L 364.526974 307.584 
L 364.526974 307.584 
L 363.909514 307.584 
z
" style="fill:#1f77b4;"/>
   </g>
   <g id="patch_48">
    <path clip-path="url(#pfa489367e8)" d="M 364.526974 307.584 
L 365.144434 307.584 
L 365.144434 307.584 
L 364.526974 307.584 
z
" style="fill:#1f77b4;"/>
   </g>
   <g id="patch_49">
    <path clip-path="url(#pfa489367e8)" d="M 365.144434 307.584 
L 365.761894 307.584 
L 365.761894 307.584 
L 365.144434 307.584 
z
" style="fill:#1f77b4;"/>
   </g>
   <g id="patch_50">
    <path clip-path="url(#pfa489367e8)" d="M 365.761894 307.584 
L 366.379354 307.584 
L 366.379354 307.584 
L 365.761894 307.584 
z
" style="fill:#1f77b4;"/>
   </g>
   <g id="patch_51">
    <path clip-path="url(#pfa489367e8)" d="M 366.379354 307.584 
L 366.996814 307.584 
L 366.996814 307.324859 
L 366.379354 307.324859 
z
" style="fill:#1f77b4;"/>
   </g>
   <g id="patch_52">
    <path clip-path="url(#pfa489367e8)" d="M 366.996814 307.584 
L 367.614274 307.584 
L 367.614274 307.584 
L 366.996814 307.584 
z
" style="fill:#1f77b4;"/>
   </g>
   <g id="patch_53">
    <path clip-path="url(#pfa489367e8)" d="M 367.614274 307.584 
L 368.231734 307.584 
L 368.231734 307.584 
L 367.614274 307.584 
z
" style="fill:#1f77b4;"/>
   </g>
   <g id="patch_54">
    <path clip-path="url(#pfa489367e8)" d="M 368.231734 307.584 
L 368.849194 307.584 
L 368.849194 307.584 
L 368.231734 307.584 
z
" style="fill:#1f77b4;"/>
   </g>
   <g id="patch_55">
    <path clip-path="url(#pfa489367e8)" d="M 368.849194 307.584 
L 369.466654 307.584 
L 369.466654 307.584 
L 368.849194 307.584 
z
" style="fill:#1f77b4;"/>
   </g>
   <g id="patch_56">
    <path clip-path="url(#pfa489367e8)" d="M 369.466654 307.584 
L 370.084114 307.584 
L 370.084114 307.584 
L 369.466654 307.584 
z
" style="fill:#1f77b4;"/>
   </g>
   <g id="patch_57">
    <path clip-path="url(#pfa489367e8)" d="M 370.084114 307.584 
L 370.701574 307.584 
L 370.701574 307.584 
L 370.084114 307.584 
z
" style="fill:#1f77b4;"/>
   </g>
   <g id="patch_58">
    <path clip-path="url(#pfa489367e8)" d="M 370.701574 307.584 
L 371.319034 307.584 
L 371.319034 307.584 
L 370.701574 307.584 
z
" style="fill:#1f77b4;"/>
   </g>
   <g id="patch_59">
    <path clip-path="url(#pfa489367e8)" d="M 371.319034 307.584 
L 371.936494 307.584 
L 371.936494 307.584 
L 371.319034 307.584 
z
" style="fill:#1f77b4;"/>
   </g>
   <g id="patch_60">
    <path clip-path="url(#pfa489367e8)" d="M 371.936494 307.584 
L 372.553954 307.584 
L 372.553954 307.584 
L 371.936494 307.584 
z
" style="fill:#1f77b4;"/>
   </g>
   <g id="patch_61">
    <path clip-path="url(#pfa489367e8)" d="M 372.553954 307.584 
L 373.171414 307.584 
L 373.171414 307.584 
L 372.553954 307.584 
z
" style="fill:#1f77b4;"/>
   </g>
   <g id="patch_62">
    <path clip-path="url(#pfa489367e8)" d="M 373.171414 307.584 
L 373.788874 307.584 
L 373.788874 307.584 
L 373.171414 307.584 
z
" style="fill:#1f77b4;"/>
   </g>
   <g id="patch_63">
    <path clip-path="url(#pfa489367e8)" d="M 373.788874 307.584 
L 374.406334 307.584 
L 374.406334 307.584 
L 373.788874 307.584 
z
" style="fill:#1f77b4;"/>
   </g>
   <g id="patch_64">
    <path clip-path="url(#pfa489367e8)" d="M 374.406334 307.584 
L 375.023794 307.584 
L 375.023794 307.584 
L 374.406334 307.584 
z
" style="fill:#1f77b4;"/>
   </g>
   <g id="patch_65">
    <path clip-path="url(#pfa489367e8)" d="M 375.023794 307.584 
L 375.641254 307.584 
L 375.641254 307.584 
L 375.023794 307.584 
z
" style="fill:#1f77b4;"/>
   </g>
   <g id="patch_66">
    <path clip-path="url(#pfa489367e8)" d="M 375.641254 307.584 
L 376.258714 307.584 
L 376.258714 307.584 
L 375.641254 307.584 
z
" style="fill:#1f77b4;"/>
   </g>
   <g id="patch_67">
    <path clip-path="url(#pfa489367e8)" d="M 376.258714 307.584 
L 376.876174 307.584 
L 376.876174 307.584 
L 376.258714 307.584 
z
" style="fill:#1f77b4;"/>
   </g>
   <g id="patch_68">
    <path clip-path="url(#pfa489367e8)" d="M 376.876174 307.584 
L 377.493634 307.584 
L 377.493634 307.584 
L 376.876174 307.584 
z
" style="fill:#1f77b4;"/>
   </g>
   <g id="patch_69">
    <path clip-path="url(#pfa489367e8)" d="M 377.493634 307.584 
L 378.111094 307.584 
L 378.111094 307.584 
L 377.493634 307.584 
z
" style="fill:#1f77b4;"/>
   </g>
   <g id="patch_70">
    <path clip-path="url(#pfa489367e8)" d="M 378.111094 307.584 
L 378.728554 307.584 
L 378.728554 307.584 
L 378.111094 307.584 
z
" style="fill:#1f77b4;"/>
   </g>
   <g id="patch_71">
    <path clip-path="url(#pfa489367e8)" d="M 378.728554 307.584 
L 379.346014 307.584 
L 379.346014 307.584 
L 378.728554 307.584 
z
" style="fill:#1f77b4;"/>
   </g>
   <g id="patch_72">
    <path clip-path="url(#pfa489367e8)" d="M 379.346014 307.584 
L 379.963474 307.584 
L 379.963474 307.584 
L 379.346014 307.584 
z
" style="fill:#1f77b4;"/>
   </g>
   <g id="patch_73">
    <path clip-path="url(#pfa489367e8)" d="M 379.963474 307.584 
L 380.580933 307.584 
L 380.580933 307.584 
L 379.963474 307.584 
z
" style="fill:#1f77b4;"/>
   </g>
   <g id="patch_74">
    <path clip-path="url(#pfa489367e8)" d="M 380.580933 307.584 
L 381.198393 307.584 
L 381.198393 307.584 
L 380.580933 307.584 
z
" style="fill:#1f77b4;"/>
   </g>
   <g id="patch_75">
    <path clip-path="url(#pfa489367e8)" d="M 381.198393 307.584 
L 381.815853 307.584 
L 381.815853 307.584 
L 381.198393 307.584 
z
" style="fill:#1f77b4;"/>
   </g>
   <g id="patch_76">
    <path clip-path="url(#pfa489367e8)" d="M 381.815853 307.584 
L 382.433313 307.584 
L 382.433313 307.584 
L 381.815853 307.584 
z
" style="fill:#1f77b4;"/>
   </g>
   <g id="patch_77">
    <path clip-path="url(#pfa489367e8)" d="M 382.433313 307.584 
L 383.050773 307.584 
L 383.050773 307.584 
L 382.433313 307.584 
z
" style="fill:#1f77b4;"/>
   </g>
   <g id="patch_78">
    <path clip-path="url(#pfa489367e8)" d="M 383.050773 307.584 
L 383.668233 307.584 
L 383.668233 307.584 
L 383.050773 307.584 
z
" style="fill:#1f77b4;"/>
   </g>
   <g id="patch_79">
    <path clip-path="url(#pfa489367e8)" d="M 383.668233 307.584 
L 384.285693 307.584 
L 384.285693 307.584 
L 383.668233 307.584 
z
" style="fill:#1f77b4;"/>
   </g>
   <g id="patch_80">
    <path clip-path="url(#pfa489367e8)" d="M 384.285693 307.584 
L 384.903153 307.584 
L 384.903153 307.584 
L 384.285693 307.584 
z
" style="fill:#1f77b4;"/>
   </g>
   <g id="patch_81">
    <path clip-path="url(#pfa489367e8)" d="M 384.903153 307.584 
L 385.520613 307.584 
L 385.520613 307.584 
L 384.903153 307.584 
z
" style="fill:#1f77b4;"/>
   </g>
   <g id="patch_82">
    <path clip-path="url(#pfa489367e8)" d="M 385.520613 307.584 
L 386.138073 307.584 
L 386.138073 307.584 
L 385.520613 307.584 
z
" style="fill:#1f77b4;"/>
   </g>
   <g id="patch_83">
    <path clip-path="url(#pfa489367e8)" d="M 386.138073 307.584 
L 386.755533 307.584 
L 386.755533 307.584 
L 386.138073 307.584 
z
" style="fill:#1f77b4;"/>
   </g>
   <g id="patch_84">
    <path clip-path="url(#pfa489367e8)" d="M 386.755533 307.584 
L 387.372993 307.584 
L 387.372993 307.584 
L 386.755533 307.584 
z
" style="fill:#1f77b4;"/>
   </g>
   <g id="patch_85">
    <path clip-path="url(#pfa489367e8)" d="M 387.372993 307.584 
L 387.990453 307.584 
L 387.990453 307.584 
L 387.372993 307.584 
z
" style="fill:#1f77b4;"/>
   </g>
   <g id="patch_86">
    <path clip-path="url(#pfa489367e8)" d="M 387.990453 307.584 
L 388.607913 307.584 
L 388.607913 307.584 
L 387.990453 307.584 
z
" style="fill:#1f77b4;"/>
   </g>
   <g id="patch_87">
    <path clip-path="url(#pfa489367e8)" d="M 388.607913 307.584 
L 389.225373 307.584 
L 389.225373 307.584 
L 388.607913 307.584 
z
" style="fill:#1f77b4;"/>
   </g>
   <g id="patch_88">
    <path clip-path="url(#pfa489367e8)" d="M 389.225373 307.584 
L 389.842833 307.584 
L 389.842833 307.584 
L 389.225373 307.584 
z
" style="fill:#1f77b4;"/>
   </g>
   <g id="patch_89">
    <path clip-path="url(#pfa489367e8)" d="M 389.842833 307.584 
L 390.460293 307.584 
L 390.460293 307.584 
L 389.842833 307.584 
z
" style="fill:#1f77b4;"/>
   </g>
   <g id="patch_90">
    <path clip-path="url(#pfa489367e8)" d="M 390.460293 307.584 
L 391.077753 307.584 
L 391.077753 307.584 
L 390.460293 307.584 
z
" style="fill:#1f77b4;"/>
   </g>
   <g id="patch_91">
    <path clip-path="url(#pfa489367e8)" d="M 391.077753 307.584 
L 391.695213 307.584 
L 391.695213 307.584 
L 391.077753 307.584 
z
" style="fill:#1f77b4;"/>
   </g>
   <g id="patch_92">
    <path clip-path="url(#pfa489367e8)" d="M 391.695213 307.584 
L 392.312673 307.584 
L 392.312673 307.584 
L 391.695213 307.584 
z
" style="fill:#1f77b4;"/>
   </g>
   <g id="patch_93">
    <path clip-path="url(#pfa489367e8)" d="M 392.312673 307.584 
L 392.930133 307.584 
L 392.930133 307.584 
L 392.312673 307.584 
z
" style="fill:#1f77b4;"/>
   </g>
   <g id="patch_94">
    <path clip-path="url(#pfa489367e8)" d="M 392.930133 307.584 
L 393.547593 307.584 
L 393.547593 307.584 
L 392.930133 307.584 
z
" style="fill:#1f77b4;"/>
   </g>
   <g id="patch_95">
    <path clip-path="url(#pfa489367e8)" d="M 393.547593 307.584 
L 394.165053 307.584 
L 394.165053 307.584 
L 393.547593 307.584 
z
" style="fill:#1f77b4;"/>
   </g>
   <g id="patch_96">
    <path clip-path="url(#pfa489367e8)" d="M 394.165053 307.584 
L 394.782513 307.584 
L 394.782513 307.584 
L 394.165053 307.584 
z
" style="fill:#1f77b4;"/>
   </g>
   <g id="patch_97">
    <path clip-path="url(#pfa489367e8)" d="M 394.782513 307.584 
L 395.399973 307.584 
L 395.399973 307.584 
L 394.782513 307.584 
z
" style="fill:#1f77b4;"/>
   </g>
   <g id="patch_98">
    <path clip-path="url(#pfa489367e8)" d="M 395.399973 307.584 
L 396.017433 307.584 
L 396.017433 307.584 
L 395.399973 307.584 
z
" style="fill:#1f77b4;"/>
   </g>
   <g id="patch_99">
    <path clip-path="url(#pfa489367e8)" d="M 396.017433 307.584 
L 396.634893 307.584 
L 396.634893 307.584 
L 396.017433 307.584 
z
" style="fill:#1f77b4;"/>
   </g>
   <g id="patch_100">
    <path clip-path="url(#pfa489367e8)" d="M 396.634893 307.584 
L 397.252353 307.584 
L 397.252353 307.584 
L 396.634893 307.584 
z
" style="fill:#1f77b4;"/>
   </g>
   <g id="patch_101">
    <path clip-path="url(#pfa489367e8)" d="M 397.252353 307.584 
L 397.869813 307.584 
L 397.869813 307.584 
L 397.252353 307.584 
z
" style="fill:#1f77b4;"/>
   </g>
   <g id="patch_102">
    <path clip-path="url(#pfa489367e8)" d="M 397.869813 307.584 
L 398.487273 307.584 
L 398.487273 307.324859 
L 397.869813 307.324859 
z
" style="fill:#1f77b4;"/>
   </g>
   <g id="patch_103">
    <path clip-path="url(#pfa489367e8)" d="M 73.832727 307.584 
L 76.309498 307.584 
L 76.309498 54.144 
L 73.832727 54.144 
z
" style="fill:#ff7f0e;"/>
   </g>
   <g id="patch_104">
    <path clip-path="url(#pfa489367e8)" d="M 76.309498 307.584 
L 78.786269 307.584 
L 78.786269 307.324859 
L 76.309498 307.324859 
z
" style="fill:#ff7f0e;"/>
   </g>
   <g id="patch_105">
    <path clip-path="url(#pfa489367e8)" d="M 78.786269 307.584 
L 81.263039 307.584 
L 81.263039 307.584 
L 78.786269 307.584 
z
" style="fill:#ff7f0e;"/>
   </g>
   <g id="patch_106">
    <path clip-path="url(#pfa489367e8)" d="M 81.263039 307.584 
L 83.73981 307.584 
L 83.73981 307.584 
L 81.263039 307.584 
z
" style="fill:#ff7f0e;"/>
   </g>
   <g id="patch_107">
    <path clip-path="url(#pfa489367e8)" d="M 83.73981 307.584 
L 86.216581 307.584 
L 86.216581 307.584 
L 83.73981 307.584 
z
" style="fill:#ff7f0e;"/>
   </g>
   <g id="patch_108">
    <path clip-path="url(#pfa489367e8)" d="M 86.216581 307.584 
L 88.693351 307.584 
L 88.693351 307.584 
L 86.216581 307.584 
z
" style="fill:#ff7f0e;"/>
   </g>
   <g id="patch_109">
    <path clip-path="url(#pfa489367e8)" d="M 88.693351 307.584 
L 91.170122 307.584 
L 91.170122 307.584 
L 88.693351 307.584 
z
" style="fill:#ff7f0e;"/>
   </g>
   <g id="patch_110">
    <path clip-path="url(#pfa489367e8)" d="M 91.170122 307.584 
L 93.646892 307.584 
L 93.646892 307.584 
L 91.170122 307.584 
z
" style="fill:#ff7f0e;"/>
   </g>
   <g id="patch_111">
    <path clip-path="url(#pfa489367e8)" d="M 93.646892 307.584 
L 96.123663 307.584 
L 96.123663 307.584 
L 93.646892 307.584 
z
" style="fill:#ff7f0e;"/>
   </g>
   <g id="patch_112">
    <path clip-path="url(#pfa489367e8)" d="M 96.123663 307.584 
L 98.600434 307.584 
L 98.600434 307.584 
L 96.123663 307.584 
z
" style="fill:#ff7f0e;"/>
   </g>
   <g id="patch_113">
    <path clip-path="url(#pfa489367e8)" d="M 98.600434 307.584 
L 101.077204 307.584 
L 101.077204 307.584 
L 98.600434 307.584 
z
" style="fill:#ff7f0e;"/>
   </g>
   <g id="patch_114">
    <path clip-path="url(#pfa489367e8)" d="M 101.077204 307.584 
L 103.553975 307.584 
L 103.553975 307.584 
L 101.077204 307.584 
z
" style="fill:#ff7f0e;"/>
   </g>
   <g id="patch_115">
    <path clip-path="url(#pfa489367e8)" d="M 103.553975 307.584 
L 106.030746 307.584 
L 106.030746 307.584 
L 103.553975 307.584 
z
" style="fill:#ff7f0e;"/>
   </g>
   <g id="patch_116">
    <path clip-path="url(#pfa489367e8)" d="M 106.030746 307.584 
L 108.507516 307.584 
L 108.507516 307.584 
L 106.030746 307.584 
z
" style="fill:#ff7f0e;"/>
   </g>
   <g id="patch_117">
    <path clip-path="url(#pfa489367e8)" d="M 108.507516 307.584 
L 110.984287 307.584 
L 110.984287 307.584 
L 108.507516 307.584 
z
" style="fill:#ff7f0e;"/>
   </g>
   <g id="patch_118">
    <path clip-path="url(#pfa489367e8)" d="M 110.984287 307.584 
L 113.461058 307.584 
L 113.461058 307.584 
L 110.984287 307.584 
z
" style="fill:#ff7f0e;"/>
   </g>
   <g id="patch_119">
    <path clip-path="url(#pfa489367e8)" d="M 113.461058 307.584 
L 115.937828 307.584 
L 115.937828 307.584 
L 113.461058 307.584 
z
" style="fill:#ff7f0e;"/>
   </g>
   <g id="patch_120">
    <path clip-path="url(#pfa489367e8)" d="M 115.937828 307.584 
L 118.414599 307.584 
L 118.414599 307.584 
L 115.937828 307.584 
z
" style="fill:#ff7f0e;"/>
   </g>
   <g id="patch_121">
    <path clip-path="url(#pfa489367e8)" d="M 118.414599 307.584 
L 120.89137 307.584 
L 120.89137 307.584 
L 118.414599 307.584 
z
" style="fill:#ff7f0e;"/>
   </g>
   <g id="patch_122">
    <path clip-path="url(#pfa489367e8)" d="M 120.89137 307.584 
L 123.36814 307.584 
L 123.36814 307.584 
L 120.89137 307.584 
z
" style="fill:#ff7f0e;"/>
   </g>
   <g id="patch_123">
    <path clip-path="url(#pfa489367e8)" d="M 123.36814 307.584 
L 125.844911 307.584 
L 125.844911 307.584 
L 123.36814 307.584 
z
" style="fill:#ff7f0e;"/>
   </g>
   <g id="patch_124">
    <path clip-path="url(#pfa489367e8)" d="M 125.844911 307.584 
L 128.321682 307.584 
L 128.321682 307.584 
L 125.844911 307.584 
z
" style="fill:#ff7f0e;"/>
   </g>
   <g id="patch_125">
    <path clip-path="url(#pfa489367e8)" d="M 128.321682 307.584 
L 130.798452 307.584 
L 130.798452 307.584 
L 128.321682 307.584 
z
" style="fill:#ff7f0e;"/>
   </g>
   <g id="patch_126">
    <path clip-path="url(#pfa489367e8)" d="M 130.798452 307.584 
L 133.275223 307.584 
L 133.275223 307.584 
L 130.798452 307.584 
z
" style="fill:#ff7f0e;"/>
   </g>
   <g id="patch_127">
    <path clip-path="url(#pfa489367e8)" d="M 133.275223 307.584 
L 135.751993 307.584 
L 135.751993 307.584 
L 133.275223 307.584 
z
" style="fill:#ff7f0e;"/>
   </g>
   <g id="patch_128">
    <path clip-path="url(#pfa489367e8)" d="M 135.751993 307.584 
L 138.228764 307.584 
L 138.228764 307.584 
L 135.751993 307.584 
z
" style="fill:#ff7f0e;"/>
   </g>
   <g id="patch_129">
    <path clip-path="url(#pfa489367e8)" d="M 138.228764 307.584 
L 140.705535 307.584 
L 140.705535 307.584 
L 138.228764 307.584 
z
" style="fill:#ff7f0e;"/>
   </g>
   <g id="patch_130">
    <path clip-path="url(#pfa489367e8)" d="M 140.705535 307.584 
L 143.182305 307.584 
L 143.182305 307.584 
L 140.705535 307.584 
z
" style="fill:#ff7f0e;"/>
   </g>
   <g id="patch_131">
    <path clip-path="url(#pfa489367e8)" d="M 143.182305 307.584 
L 145.659076 307.584 
L 145.659076 307.584 
L 143.182305 307.584 
z
" style="fill:#ff7f0e;"/>
   </g>
   <g id="patch_132">
    <path clip-path="url(#pfa489367e8)" d="M 145.659076 307.584 
L 148.135847 307.584 
L 148.135847 307.584 
L 145.659076 307.584 
z
" style="fill:#ff7f0e;"/>
   </g>
   <g id="patch_133">
    <path clip-path="url(#pfa489367e8)" d="M 148.135847 307.584 
L 150.612617 307.584 
L 150.612617 307.584 
L 148.135847 307.584 
z
" style="fill:#ff7f0e;"/>
   </g>
   <g id="patch_134">
    <path clip-path="url(#pfa489367e8)" d="M 150.612617 307.584 
L 153.089388 307.584 
L 153.089388 307.584 
L 150.612617 307.584 
z
" style="fill:#ff7f0e;"/>
   </g>
   <g id="patch_135">
    <path clip-path="url(#pfa489367e8)" d="M 153.089388 307.584 
L 155.566159 307.584 
L 155.566159 307.584 
L 153.089388 307.584 
z
" style="fill:#ff7f0e;"/>
   </g>
   <g id="patch_136">
    <path clip-path="url(#pfa489367e8)" d="M 155.566159 307.584 
L 158.042929 307.584 
L 158.042929 307.584 
L 155.566159 307.584 
z
" style="fill:#ff7f0e;"/>
   </g>
   <g id="patch_137">
    <path clip-path="url(#pfa489367e8)" d="M 158.042929 307.584 
L 160.5197 307.584 
L 160.5197 307.584 
L 158.042929 307.584 
z
" style="fill:#ff7f0e;"/>
   </g>
   <g id="patch_138">
    <path clip-path="url(#pfa489367e8)" d="M 160.5197 307.584 
L 162.996471 307.584 
L 162.996471 307.584 
L 160.5197 307.584 
z
" style="fill:#ff7f0e;"/>
   </g>
   <g id="patch_139">
    <path clip-path="url(#pfa489367e8)" d="M 162.996471 307.584 
L 165.473241 307.584 
L 165.473241 307.584 
L 162.996471 307.584 
z
" style="fill:#ff7f0e;"/>
   </g>
   <g id="patch_140">
    <path clip-path="url(#pfa489367e8)" d="M 165.473241 307.584 
L 167.950012 307.584 
L 167.950012 307.584 
L 165.473241 307.584 
z
" style="fill:#ff7f0e;"/>
   </g>
   <g id="patch_141">
    <path clip-path="url(#pfa489367e8)" d="M 167.950012 307.584 
L 170.426783 307.584 
L 170.426783 307.584 
L 167.950012 307.584 
z
" style="fill:#ff7f0e;"/>
   </g>
   <g id="patch_142">
    <path clip-path="url(#pfa489367e8)" d="M 170.426783 307.584 
L 172.903553 307.584 
L 172.903553 307.584 
L 170.426783 307.584 
z
" style="fill:#ff7f0e;"/>
   </g>
   <g id="patch_143">
    <path clip-path="url(#pfa489367e8)" d="M 172.903553 307.584 
L 175.380324 307.584 
L 175.380324 307.584 
L 172.903553 307.584 
z
" style="fill:#ff7f0e;"/>
   </g>
   <g id="patch_144">
    <path clip-path="url(#pfa489367e8)" d="M 175.380324 307.584 
L 177.857095 307.584 
L 177.857095 307.584 
L 175.380324 307.584 
z
" style="fill:#ff7f0e;"/>
   </g>
   <g id="patch_145">
    <path clip-path="url(#pfa489367e8)" d="M 177.857095 307.584 
L 180.333865 307.584 
L 180.333865 307.584 
L 177.857095 307.584 
z
" style="fill:#ff7f0e;"/>
   </g>
   <g id="patch_146">
    <path clip-path="url(#pfa489367e8)" d="M 180.333865 307.584 
L 182.810636 307.584 
L 182.810636 307.584 
L 180.333865 307.584 
z
" style="fill:#ff7f0e;"/>
   </g>
   <g id="patch_147">
    <path clip-path="url(#pfa489367e8)" d="M 182.810636 307.584 
L 185.287406 307.584 
L 185.287406 307.584 
L 182.810636 307.584 
z
" style="fill:#ff7f0e;"/>
   </g>
   <g id="patch_148">
    <path clip-path="url(#pfa489367e8)" d="M 185.287406 307.584 
L 187.764177 307.584 
L 187.764177 307.584 
L 185.287406 307.584 
z
" style="fill:#ff7f0e;"/>
   </g>
   <g id="patch_149">
    <path clip-path="url(#pfa489367e8)" d="M 187.764177 307.584 
L 190.240948 307.584 
L 190.240948 307.584 
L 187.764177 307.584 
z
" style="fill:#ff7f0e;"/>
   </g>
   <g id="patch_150">
    <path clip-path="url(#pfa489367e8)" d="M 190.240948 307.584 
L 192.717718 307.584 
L 192.717718 307.584 
L 190.240948 307.584 
z
" style="fill:#ff7f0e;"/>
   </g>
   <g id="patch_151">
    <path clip-path="url(#pfa489367e8)" d="M 192.717718 307.584 
L 195.194489 307.584 
L 195.194489 307.584 
L 192.717718 307.584 
z
" style="fill:#ff7f0e;"/>
   </g>
   <g id="patch_152">
    <path clip-path="url(#pfa489367e8)" d="M 195.194489 307.584 
L 197.67126 307.584 
L 197.67126 307.584 
L 195.194489 307.584 
z
" style="fill:#ff7f0e;"/>
   </g>
   <g id="patch_153">
    <path clip-path="url(#pfa489367e8)" d="M 197.67126 307.584 
L 200.14803 307.584 
L 200.14803 307.584 
L 197.67126 307.584 
z
" style="fill:#ff7f0e;"/>
   </g>
   <g id="patch_154">
    <path clip-path="url(#pfa489367e8)" d="M 200.14803 307.584 
L 202.624801 307.584 
L 202.624801 307.584 
L 200.14803 307.584 
z
" style="fill:#ff7f0e;"/>
   </g>
   <g id="patch_155">
    <path clip-path="url(#pfa489367e8)" d="M 202.624801 307.584 
L 205.101572 307.584 
L 205.101572 307.584 
L 202.624801 307.584 
z
" style="fill:#ff7f0e;"/>
   </g>
   <g id="patch_156">
    <path clip-path="url(#pfa489367e8)" d="M 205.101572 307.584 
L 207.578342 307.584 
L 207.578342 307.584 
L 205.101572 307.584 
z
" style="fill:#ff7f0e;"/>
   </g>
   <g id="patch_157">
    <path clip-path="url(#pfa489367e8)" d="M 207.578342 307.584 
L 210.055113 307.584 
L 210.055113 307.584 
L 207.578342 307.584 
z
" style="fill:#ff7f0e;"/>
   </g>
   <g id="patch_158">
    <path clip-path="url(#pfa489367e8)" d="M 210.055113 307.584 
L 212.531884 307.584 
L 212.531884 307.584 
L 210.055113 307.584 
z
" style="fill:#ff7f0e;"/>
   </g>
   <g id="patch_159">
    <path clip-path="url(#pfa489367e8)" d="M 212.531884 307.584 
L 215.008654 307.584 
L 215.008654 307.584 
L 212.531884 307.584 
z
" style="fill:#ff7f0e;"/>
   </g>
   <g id="patch_160">
    <path clip-path="url(#pfa489367e8)" d="M 215.008654 307.584 
L 217.485425 307.584 
L 217.485425 307.584 
L 215.008654 307.584 
z
" style="fill:#ff7f0e;"/>
   </g>
   <g id="patch_161">
    <path clip-path="url(#pfa489367e8)" d="M 217.485425 307.584 
L 219.962196 307.584 
L 219.962196 307.584 
L 217.485425 307.584 
z
" style="fill:#ff7f0e;"/>
   </g>
   <g id="patch_162">
    <path clip-path="url(#pfa489367e8)" d="M 219.962196 307.584 
L 222.438966 307.584 
L 222.438966 307.584 
L 219.962196 307.584 
z
" style="fill:#ff7f0e;"/>
   </g>
   <g id="patch_163">
    <path clip-path="url(#pfa489367e8)" d="M 222.438966 307.584 
L 224.915737 307.584 
L 224.915737 307.584 
L 222.438966 307.584 
z
" style="fill:#ff7f0e;"/>
   </g>
   <g id="patch_164">
    <path clip-path="url(#pfa489367e8)" d="M 224.915737 307.584 
L 227.392507 307.584 
L 227.392507 307.584 
L 224.915737 307.584 
z
" style="fill:#ff7f0e;"/>
   </g>
   <g id="patch_165">
    <path clip-path="url(#pfa489367e8)" d="M 227.392507 307.584 
L 229.869278 307.584 
L 229.869278 307.584 
L 227.392507 307.584 
z
" style="fill:#ff7f0e;"/>
   </g>
   <g id="patch_166">
    <path clip-path="url(#pfa489367e8)" d="M 229.869278 307.584 
L 232.346049 307.584 
L 232.346049 307.584 
L 229.869278 307.584 
z
" style="fill:#ff7f0e;"/>
   </g>
   <g id="patch_167">
    <path clip-path="url(#pfa489367e8)" d="M 232.346049 307.584 
L 234.822819 307.584 
L 234.822819 307.584 
L 232.346049 307.584 
z
" style="fill:#ff7f0e;"/>
   </g>
   <g id="patch_168">
    <path clip-path="url(#pfa489367e8)" d="M 234.822819 307.584 
L 237.29959 307.584 
L 237.29959 307.584 
L 234.822819 307.584 
z
" style="fill:#ff7f0e;"/>
   </g>
   <g id="patch_169">
    <path clip-path="url(#pfa489367e8)" d="M 237.29959 307.584 
L 239.776361 307.584 
L 239.776361 307.584 
L 237.29959 307.584 
z
" style="fill:#ff7f0e;"/>
   </g>
   <g id="patch_170">
    <path clip-path="url(#pfa489367e8)" d="M 239.776361 307.584 
L 242.253131 307.584 
L 242.253131 307.584 
L 239.776361 307.584 
z
" style="fill:#ff7f0e;"/>
   </g>
   <g id="patch_171">
    <path clip-path="url(#pfa489367e8)" d="M 242.253131 307.584 
L 244.729902 307.584 
L 244.729902 307.584 
L 242.253131 307.584 
z
" style="fill:#ff7f0e;"/>
   </g>
   <g id="patch_172">
    <path clip-path="url(#pfa489367e8)" d="M 244.729902 307.584 
L 247.206673 307.584 
L 247.206673 307.584 
L 244.729902 307.584 
z
" style="fill:#ff7f0e;"/>
   </g>
   <g id="patch_173">
    <path clip-path="url(#pfa489367e8)" d="M 247.206673 307.584 
L 249.683443 307.584 
L 249.683443 307.584 
L 247.206673 307.584 
z
" style="fill:#ff7f0e;"/>
   </g>
   <g id="patch_174">
    <path clip-path="url(#pfa489367e8)" d="M 249.683443 307.584 
L 252.160214 307.584 
L 252.160214 307.584 
L 249.683443 307.584 
z
" style="fill:#ff7f0e;"/>
   </g>
   <g id="patch_175">
    <path clip-path="url(#pfa489367e8)" d="M 252.160214 307.584 
L 254.636985 307.584 
L 254.636985 307.584 
L 252.160214 307.584 
z
" style="fill:#ff7f0e;"/>
   </g>
   <g id="patch_176">
    <path clip-path="url(#pfa489367e8)" d="M 254.636985 307.584 
L 257.113755 307.584 
L 257.113755 307.584 
L 254.636985 307.584 
z
" style="fill:#ff7f0e;"/>
   </g>
   <g id="patch_177">
    <path clip-path="url(#pfa489367e8)" d="M 257.113755 307.584 
L 259.590526 307.584 
L 259.590526 307.584 
L 257.113755 307.584 
z
" style="fill:#ff7f0e;"/>
   </g>
   <g id="patch_178">
    <path clip-path="url(#pfa489367e8)" d="M 259.590526 307.584 
L 262.067297 307.584 
L 262.067297 307.584 
L 259.590526 307.584 
z
" style="fill:#ff7f0e;"/>
   </g>
   <g id="patch_179">
    <path clip-path="url(#pfa489367e8)" d="M 262.067297 307.584 
L 264.544067 307.584 
L 264.544067 307.584 
L 262.067297 307.584 
z
" style="fill:#ff7f0e;"/>
   </g>
   <g id="patch_180">
    <path clip-path="url(#pfa489367e8)" d="M 264.544067 307.584 
L 267.020838 307.584 
L 267.020838 307.584 
L 264.544067 307.584 
z
" style="fill:#ff7f0e;"/>
   </g>
   <g id="patch_181">
    <path clip-path="url(#pfa489367e8)" d="M 267.020838 307.584 
L 269.497608 307.584 
L 269.497608 307.584 
L 267.020838 307.584 
z
" style="fill:#ff7f0e;"/>
   </g>
   <g id="patch_182">
    <path clip-path="url(#pfa489367e8)" d="M 269.497608 307.584 
L 271.974379 307.584 
L 271.974379 307.584 
L 269.497608 307.584 
z
" style="fill:#ff7f0e;"/>
   </g>
   <g id="patch_183">
    <path clip-path="url(#pfa489367e8)" d="M 271.974379 307.584 
L 274.45115 307.584 
L 274.45115 307.584 
L 271.974379 307.584 
z
" style="fill:#ff7f0e;"/>
   </g>
   <g id="patch_184">
    <path clip-path="url(#pfa489367e8)" d="M 274.45115 307.584 
L 276.92792 307.584 
L 276.92792 307.584 
L 274.45115 307.584 
z
" style="fill:#ff7f0e;"/>
   </g>
   <g id="patch_185">
    <path clip-path="url(#pfa489367e8)" d="M 276.92792 307.584 
L 279.404691 307.584 
L 279.404691 307.584 
L 276.92792 307.584 
z
" style="fill:#ff7f0e;"/>
   </g>
   <g id="patch_186">
    <path clip-path="url(#pfa489367e8)" d="M 279.404691 307.584 
L 281.881462 307.584 
L 281.881462 307.584 
L 279.404691 307.584 
z
" style="fill:#ff7f0e;"/>
   </g>
   <g id="patch_187">
    <path clip-path="url(#pfa489367e8)" d="M 281.881462 307.584 
L 284.358232 307.584 
L 284.358232 307.584 
L 281.881462 307.584 
z
" style="fill:#ff7f0e;"/>
   </g>
   <g id="patch_188">
    <path clip-path="url(#pfa489367e8)" d="M 284.358232 307.584 
L 286.835003 307.584 
L 286.835003 307.584 
L 284.358232 307.584 
z
" style="fill:#ff7f0e;"/>
   </g>
   <g id="patch_189">
    <path clip-path="url(#pfa489367e8)" d="M 286.835003 307.584 
L 289.311774 307.584 
L 289.311774 307.584 
L 286.835003 307.584 
z
" style="fill:#ff7f0e;"/>
   </g>
   <g id="patch_190">
    <path clip-path="url(#pfa489367e8)" d="M 289.311774 307.584 
L 291.788544 307.584 
L 291.788544 307.584 
L 289.311774 307.584 
z
" style="fill:#ff7f0e;"/>
   </g>
   <g id="patch_191">
    <path clip-path="url(#pfa489367e8)" d="M 291.788544 307.584 
L 294.265315 307.584 
L 294.265315 307.584 
L 291.788544 307.584 
z
" style="fill:#ff7f0e;"/>
   </g>
   <g id="patch_192">
    <path clip-path="url(#pfa489367e8)" d="M 294.265315 307.584 
L 296.742086 307.584 
L 296.742086 307.584 
L 294.265315 307.584 
z
" style="fill:#ff7f0e;"/>
   </g>
   <g id="patch_193">
    <path clip-path="url(#pfa489367e8)" d="M 296.742086 307.584 
L 299.218856 307.584 
L 299.218856 307.584 
L 296.742086 307.584 
z
" style="fill:#ff7f0e;"/>
   </g>
   <g id="patch_194">
    <path clip-path="url(#pfa489367e8)" d="M 299.218856 307.584 
L 301.695627 307.584 
L 301.695627 307.584 
L 299.218856 307.584 
z
" style="fill:#ff7f0e;"/>
   </g>
   <g id="patch_195">
    <path clip-path="url(#pfa489367e8)" d="M 301.695627 307.584 
L 304.172398 307.584 
L 304.172398 307.584 
L 301.695627 307.584 
z
" style="fill:#ff7f0e;"/>
   </g>
   <g id="patch_196">
    <path clip-path="url(#pfa489367e8)" d="M 304.172398 307.584 
L 306.649168 307.584 
L 306.649168 307.584 
L 304.172398 307.584 
z
" style="fill:#ff7f0e;"/>
   </g>
   <g id="patch_197">
    <path clip-path="url(#pfa489367e8)" d="M 306.649168 307.584 
L 309.125939 307.584 
L 309.125939 307.584 
L 306.649168 307.584 
z
" style="fill:#ff7f0e;"/>
   </g>
   <g id="patch_198">
    <path clip-path="url(#pfa489367e8)" d="M 309.125939 307.584 
L 311.60271 307.584 
L 311.60271 307.584 
L 309.125939 307.584 
z
" style="fill:#ff7f0e;"/>
   </g>
   <g id="patch_199">
    <path clip-path="url(#pfa489367e8)" d="M 311.60271 307.584 
L 314.07948 307.584 
L 314.07948 307.584 
L 311.60271 307.584 
z
" style="fill:#ff7f0e;"/>
   </g>
   <g id="patch_200">
    <path clip-path="url(#pfa489367e8)" d="M 314.07948 307.584 
L 316.556251 307.584 
L 316.556251 307.584 
L 314.07948 307.584 
z
" style="fill:#ff7f0e;"/>
   </g>
   <g id="patch_201">
    <path clip-path="url(#pfa489367e8)" d="M 316.556251 307.584 
L 319.033021 307.584 
L 319.033021 307.584 
L 316.556251 307.584 
z
" style="fill:#ff7f0e;"/>
   </g>
   <g id="patch_202">
    <path clip-path="url(#pfa489367e8)" d="M 319.033021 307.584 
L 321.509792 307.584 
L 321.509792 307.324859 
L 319.033021 307.324859 
z
" style="fill:#ff7f0e;"/>
   </g>
   <g id="matplotlib.axis_1">
    <g id="xtick_1">
     <g id="line2d_1">
      <defs>
       <path d="M 0 0 
L 0 3.5 
" id="md760a25a7a" style="stroke:#000000;stroke-width:0.8;"/>
      </defs>
      <g>
       <use style="stroke:#000000;stroke-width:0.8;" x="77.088308" xlink:href="#md760a25a7a" y="307.584"/>
      </g>
     </g>
     <g id="text_1">
      <!-- 0.2 -->
      <g transform="translate(69.136745 322.182437)scale(0.1 -0.1)">
       <defs>
        <path d="M 31.78125 66.40625 
Q 24.171875 66.40625 20.328125 58.90625 
Q 16.5 51.421875 16.5 36.375 
Q 16.5 21.390625 20.328125 13.890625 
Q 24.171875 6.390625 31.78125 6.390625 
Q 39.453125 6.390625 43.28125 13.890625 
Q 47.125 21.390625 47.125 36.375 
Q 47.125 51.421875 43.28125 58.90625 
Q 39.453125 66.40625 31.78125 66.40625 
z
M 31.78125 74.21875 
Q 44.046875 74.21875 50.515625 64.515625 
Q 56.984375 54.828125 56.984375 36.375 
Q 56.984375 17.96875 50.515625 8.265625 
Q 44.046875 -1.421875 31.78125 -1.421875 
Q 19.53125 -1.421875 13.0625 8.265625 
Q 6.59375 17.96875 6.59375 36.375 
Q 6.59375 54.828125 13.0625 64.515625 
Q 19.53125 74.21875 31.78125 74.21875 
z
" id="DejaVuSans-48"/>
        <path d="M 10.6875 12.40625 
L 21 12.40625 
L 21 0 
L 10.6875 0 
z
" id="DejaVuSans-46"/>
        <path d="M 19.1875 8.296875 
L 53.609375 8.296875 
L 53.609375 0 
L 7.328125 0 
L 7.328125 8.296875 
Q 12.9375 14.109375 22.625 23.890625 
Q 32.328125 33.6875 34.8125 36.53125 
Q 39.546875 41.84375 41.421875 45.53125 
Q 43.3125 49.21875 43.3125 52.78125 
Q 43.3125 58.59375 39.234375 62.25 
Q 35.15625 65.921875 28.609375 65.921875 
Q 23.96875 65.921875 18.8125 64.3125 
Q 13.671875 62.703125 7.8125 59.421875 
L 7.8125 69.390625 
Q 13.765625 71.78125 18.9375 73 
Q 24.125 74.21875 28.421875 74.21875 
Q 39.75 74.21875 46.484375 68.546875 
Q 53.21875 62.890625 53.21875 53.421875 
Q 53.21875 48.921875 51.53125 44.890625 
Q 49.859375 40.875 45.40625 35.40625 
Q 44.1875 33.984375 37.640625 27.21875 
Q 31.109375 20.453125 19.1875 8.296875 
z
" id="DejaVuSans-50"/>
       </defs>
       <use xlink:href="#DejaVuSans-48"/>
       <use x="63.623047" xlink:href="#DejaVuSans-46"/>
       <use x="95.410156" xlink:href="#DejaVuSans-50"/>
      </g>
     </g>
    </g>
    <g id="xtick_2">
     <g id="line2d_2">
      <g>
       <use style="stroke:#000000;stroke-width:0.8;" x="144.254865" xlink:href="#md760a25a7a" y="307.584"/>
      </g>
     </g>
     <g id="text_2">
      <!-- 0.4 -->
      <g transform="translate(136.303303 322.182437)scale(0.1 -0.1)">
       <defs>
        <path d="M 37.796875 64.3125 
L 12.890625 25.390625 
L 37.796875 25.390625 
z
M 35.203125 72.90625 
L 47.609375 72.90625 
L 47.609375 25.390625 
L 58.015625 25.390625 
L 58.015625 17.1875 
L 47.609375 17.1875 
L 47.609375 0 
L 37.796875 0 
L 37.796875 17.1875 
L 4.890625 17.1875 
L 4.890625 26.703125 
z
" id="DejaVuSans-52"/>
       </defs>
       <use xlink:href="#DejaVuSans-48"/>
       <use x="63.623047" xlink:href="#DejaVuSans-46"/>
       <use x="95.410156" xlink:href="#DejaVuSans-52"/>
      </g>
     </g>
    </g>
    <g id="xtick_3">
     <g id="line2d_3">
      <g>
       <use style="stroke:#000000;stroke-width:0.8;" x="211.421423" xlink:href="#md760a25a7a" y="307.584"/>
      </g>
     </g>
     <g id="text_3">
      <!-- 0.6 -->
      <g transform="translate(203.46986 322.182437)scale(0.1 -0.1)">
       <defs>
        <path d="M 33.015625 40.375 
Q 26.375 40.375 22.484375 35.828125 
Q 18.609375 31.296875 18.609375 23.390625 
Q 18.609375 15.53125 22.484375 10.953125 
Q 26.375 6.390625 33.015625 6.390625 
Q 39.65625 6.390625 43.53125 10.953125 
Q 47.40625 15.53125 47.40625 23.390625 
Q 47.40625 31.296875 43.53125 35.828125 
Q 39.65625 40.375 33.015625 40.375 
z
M 52.59375 71.296875 
L 52.59375 62.3125 
Q 48.875 64.0625 45.09375 64.984375 
Q 41.3125 65.921875 37.59375 65.921875 
Q 27.828125 65.921875 22.671875 59.328125 
Q 17.53125 52.734375 16.796875 39.40625 
Q 19.671875 43.65625 24.015625 45.921875 
Q 28.375 48.1875 33.59375 48.1875 
Q 44.578125 48.1875 50.953125 41.515625 
Q 57.328125 34.859375 57.328125 23.390625 
Q 57.328125 12.15625 50.6875 5.359375 
Q 44.046875 -1.421875 33.015625 -1.421875 
Q 20.359375 -1.421875 13.671875 8.265625 
Q 6.984375 17.96875 6.984375 36.375 
Q 6.984375 53.65625 15.1875 63.9375 
Q 23.390625 74.21875 37.203125 74.21875 
Q 40.921875 74.21875 44.703125 73.484375 
Q 48.484375 72.75 52.59375 71.296875 
z
" id="DejaVuSans-54"/>
       </defs>
       <use xlink:href="#DejaVuSans-48"/>
       <use x="63.623047" xlink:href="#DejaVuSans-46"/>
       <use x="95.410156" xlink:href="#DejaVuSans-54"/>
      </g>
     </g>
    </g>
    <g id="xtick_4">
     <g id="line2d_4">
      <g>
       <use style="stroke:#000000;stroke-width:0.8;" x="278.58798" xlink:href="#md760a25a7a" y="307.584"/>
      </g>
     </g>
     <g id="text_4">
      <!-- 0.8 -->
      <g transform="translate(270.636417 322.182437)scale(0.1 -0.1)">
       <defs>
        <path d="M 31.78125 34.625 
Q 24.75 34.625 20.71875 30.859375 
Q 16.703125 27.09375 16.703125 20.515625 
Q 16.703125 13.921875 20.71875 10.15625 
Q 24.75 6.390625 31.78125 6.390625 
Q 38.8125 6.390625 42.859375 10.171875 
Q 46.921875 13.96875 46.921875 20.515625 
Q 46.921875 27.09375 42.890625 30.859375 
Q 38.875 34.625 31.78125 34.625 
z
M 21.921875 38.8125 
Q 15.578125 40.375 12.03125 44.71875 
Q 8.5 49.078125 8.5 55.328125 
Q 8.5 64.0625 14.71875 69.140625 
Q 20.953125 74.21875 31.78125 74.21875 
Q 42.671875 74.21875 48.875 69.140625 
Q 55.078125 64.0625 55.078125 55.328125 
Q 55.078125 49.078125 51.53125 44.71875 
Q 48 40.375 41.703125 38.8125 
Q 48.828125 37.15625 52.796875 32.3125 
Q 56.78125 27.484375 56.78125 20.515625 
Q 56.78125 9.90625 50.3125 4.234375 
Q 43.84375 -1.421875 31.78125 -1.421875 
Q 19.734375 -1.421875 13.25 4.234375 
Q 6.78125 9.90625 6.78125 20.515625 
Q 6.78125 27.484375 10.78125 32.3125 
Q 14.796875 37.15625 21.921875 38.8125 
z
M 18.3125 54.390625 
Q 18.3125 48.734375 21.84375 45.5625 
Q 25.390625 42.390625 31.78125 42.390625 
Q 38.140625 42.390625 41.71875 45.5625 
Q 45.3125 48.734375 45.3125 54.390625 
Q 45.3125 60.0625 41.71875 63.234375 
Q 38.140625 66.40625 31.78125 66.40625 
Q 25.390625 66.40625 21.84375 63.234375 
Q 18.3125 60.0625 18.3125 54.390625 
z
" id="DejaVuSans-56"/>
       </defs>
       <use xlink:href="#DejaVuSans-48"/>
       <use x="63.623047" xlink:href="#DejaVuSans-46"/>
       <use x="95.410156" xlink:href="#DejaVuSans-56"/>
      </g>
     </g>
    </g>
    <g id="xtick_5">
     <g id="line2d_5">
      <g>
       <use style="stroke:#000000;stroke-width:0.8;" x="345.754537" xlink:href="#md760a25a7a" y="307.584"/>
      </g>
     </g>
     <g id="text_5">
      <!-- 1.0 -->
      <g transform="translate(337.802975 322.182437)scale(0.1 -0.1)">
       <defs>
        <path d="M 12.40625 8.296875 
L 28.515625 8.296875 
L 28.515625 63.921875 
L 10.984375 60.40625 
L 10.984375 69.390625 
L 28.421875 72.90625 
L 38.28125 72.90625 
L 38.28125 8.296875 
L 54.390625 8.296875 
L 54.390625 0 
L 12.40625 0 
z
" id="DejaVuSans-49"/>
       </defs>
       <use xlink:href="#DejaVuSans-49"/>
       <use x="63.623047" xlink:href="#DejaVuSans-46"/>
       <use x="95.410156" xlink:href="#DejaVuSans-48"/>
      </g>
     </g>
    </g>
    <g id="xtick_6">
     <g id="line2d_6">
      <g>
       <use style="stroke:#000000;stroke-width:0.8;" x="412.921095" xlink:href="#md760a25a7a" y="307.584"/>
      </g>
     </g>
     <g id="text_6">
      <!-- 1.2 -->
      <g transform="translate(404.969532 322.182437)scale(0.1 -0.1)">
       <use xlink:href="#DejaVuSans-49"/>
       <use x="63.623047" xlink:href="#DejaVuSans-46"/>
       <use x="95.410156" xlink:href="#DejaVuSans-50"/>
      </g>
     </g>
    </g>
    <g id="text_7">
     <!-- Batch Process Time (sec) -->
     <g transform="translate(173.489688 335.860562)scale(0.1 -0.1)">
      <defs>
       <path d="M 19.671875 34.8125 
L 19.671875 8.109375 
L 35.5 8.109375 
Q 43.453125 8.109375 47.28125 11.40625 
Q 51.125 14.703125 51.125 21.484375 
Q 51.125 28.328125 47.28125 31.5625 
Q 43.453125 34.8125 35.5 34.8125 
z
M 19.671875 64.796875 
L 19.671875 42.828125 
L 34.28125 42.828125 
Q 41.5 42.828125 45.03125 45.53125 
Q 48.578125 48.25 48.578125 53.8125 
Q 48.578125 59.328125 45.03125 62.0625 
Q 41.5 64.796875 34.28125 64.796875 
z
M 9.8125 72.90625 
L 35.015625 72.90625 
Q 46.296875 72.90625 52.390625 68.21875 
Q 58.5 63.53125 58.5 54.890625 
Q 58.5 48.1875 55.375 44.234375 
Q 52.25 40.28125 46.1875 39.3125 
Q 53.46875 37.75 57.5 32.78125 
Q 61.53125 27.828125 61.53125 20.40625 
Q 61.53125 10.640625 54.890625 5.3125 
Q 48.25 0 35.984375 0 
L 9.8125 0 
z
" id="DejaVuSans-66"/>
       <path d="M 34.28125 27.484375 
Q 23.390625 27.484375 19.1875 25 
Q 14.984375 22.515625 14.984375 16.5 
Q 14.984375 11.71875 18.140625 8.90625 
Q 21.296875 6.109375 26.703125 6.109375 
Q 34.1875 6.109375 38.703125 11.40625 
Q 43.21875 16.703125 43.21875 25.484375 
L 43.21875 27.484375 
z
M 52.203125 31.203125 
L 52.203125 0 
L 43.21875 0 
L 43.21875 8.296875 
Q 40.140625 3.328125 35.546875 0.953125 
Q 30.953125 -1.421875 24.3125 -1.421875 
Q 15.921875 -1.421875 10.953125 3.296875 
Q 6 8.015625 6 15.921875 
Q 6 25.140625 12.171875 29.828125 
Q 18.359375 34.515625 30.609375 34.515625 
L 43.21875 34.515625 
L 43.21875 35.40625 
Q 43.21875 41.609375 39.140625 45 
Q 35.0625 48.390625 27.6875 48.390625 
Q 23 48.390625 18.546875 47.265625 
Q 14.109375 46.140625 10.015625 43.890625 
L 10.015625 52.203125 
Q 14.9375 54.109375 19.578125 55.046875 
Q 24.21875 56 28.609375 56 
Q 40.484375 56 46.34375 49.84375 
Q 52.203125 43.703125 52.203125 31.203125 
z
" id="DejaVuSans-97"/>
       <path d="M 18.3125 70.21875 
L 18.3125 54.6875 
L 36.8125 54.6875 
L 36.8125 47.703125 
L 18.3125 47.703125 
L 18.3125 18.015625 
Q 18.3125 11.328125 20.140625 9.421875 
Q 21.96875 7.515625 27.59375 7.515625 
L 36.8125 7.515625 
L 36.8125 0 
L 27.59375 0 
Q 17.1875 0 13.234375 3.875 
Q 9.28125 7.765625 9.28125 18.015625 
L 9.28125 47.703125 
L 2.6875 47.703125 
L 2.6875 54.6875 
L 9.28125 54.6875 
L 9.28125 70.21875 
z
" id="DejaVuSans-116"/>
       <path d="M 48.78125 52.59375 
L 48.78125 44.1875 
Q 44.96875 46.296875 41.140625 47.34375 
Q 37.3125 48.390625 33.40625 48.390625 
Q 24.65625 48.390625 19.8125 42.84375 
Q 14.984375 37.3125 14.984375 27.296875 
Q 14.984375 17.28125 19.8125 11.734375 
Q 24.65625 6.203125 33.40625 6.203125 
Q 37.3125 6.203125 41.140625 7.25 
Q 44.96875 8.296875 48.78125 10.40625 
L 48.78125 2.09375 
Q 45.015625 0.34375 40.984375 -0.53125 
Q 36.96875 -1.421875 32.421875 -1.421875 
Q 20.0625 -1.421875 12.78125 6.34375 
Q 5.515625 14.109375 5.515625 27.296875 
Q 5.515625 40.671875 12.859375 48.328125 
Q 20.21875 56 33.015625 56 
Q 37.15625 56 41.109375 55.140625 
Q 45.0625 54.296875 48.78125 52.59375 
z
" id="DejaVuSans-99"/>
       <path d="M 54.890625 33.015625 
L 54.890625 0 
L 45.90625 0 
L 45.90625 32.71875 
Q 45.90625 40.484375 42.875 44.328125 
Q 39.84375 48.1875 33.796875 48.1875 
Q 26.515625 48.1875 22.3125 43.546875 
Q 18.109375 38.921875 18.109375 30.90625 
L 18.109375 0 
L 9.078125 0 
L 9.078125 75.984375 
L 18.109375 75.984375 
L 18.109375 46.1875 
Q 21.34375 51.125 25.703125 53.5625 
Q 30.078125 56 35.796875 56 
Q 45.21875 56 50.046875 50.171875 
Q 54.890625 44.34375 54.890625 33.015625 
z
" id="DejaVuSans-104"/>
       <path id="DejaVuSans-32"/>
       <path d="M 19.671875 64.796875 
L 19.671875 37.40625 
L 32.078125 37.40625 
Q 38.96875 37.40625 42.71875 40.96875 
Q 46.484375 44.53125 46.484375 51.125 
Q 46.484375 57.671875 42.71875 61.234375 
Q 38.96875 64.796875 32.078125 64.796875 
z
M 9.8125 72.90625 
L 32.078125 72.90625 
Q 44.34375 72.90625 50.609375 67.359375 
Q 56.890625 61.8125 56.890625 51.125 
Q 56.890625 40.328125 50.609375 34.8125 
Q 44.34375 29.296875 32.078125 29.296875 
L 19.671875 29.296875 
L 19.671875 0 
L 9.8125 0 
z
" id="DejaVuSans-80"/>
       <path d="M 41.109375 46.296875 
Q 39.59375 47.171875 37.8125 47.578125 
Q 36.03125 48 33.890625 48 
Q 26.265625 48 22.1875 43.046875 
Q 18.109375 38.09375 18.109375 28.8125 
L 18.109375 0 
L 9.078125 0 
L 9.078125 54.6875 
L 18.109375 54.6875 
L 18.109375 46.1875 
Q 20.953125 51.171875 25.484375 53.578125 
Q 30.03125 56 36.53125 56 
Q 37.453125 56 38.578125 55.875 
Q 39.703125 55.765625 41.0625 55.515625 
z
" id="DejaVuSans-114"/>
       <path d="M 30.609375 48.390625 
Q 23.390625 48.390625 19.1875 42.75 
Q 14.984375 37.109375 14.984375 27.296875 
Q 14.984375 17.484375 19.15625 11.84375 
Q 23.34375 6.203125 30.609375 6.203125 
Q 37.796875 6.203125 41.984375 11.859375 
Q 46.1875 17.53125 46.1875 27.296875 
Q 46.1875 37.015625 41.984375 42.703125 
Q 37.796875 48.390625 30.609375 48.390625 
z
M 30.609375 56 
Q 42.328125 56 49.015625 48.375 
Q 55.71875 40.765625 55.71875 27.296875 
Q 55.71875 13.875 49.015625 6.21875 
Q 42.328125 -1.421875 30.609375 -1.421875 
Q 18.84375 -1.421875 12.171875 6.21875 
Q 5.515625 13.875 5.515625 27.296875 
Q 5.515625 40.765625 12.171875 48.375 
Q 18.84375 56 30.609375 56 
z
" id="DejaVuSans-111"/>
       <path d="M 56.203125 29.59375 
L 56.203125 25.203125 
L 14.890625 25.203125 
Q 15.484375 15.921875 20.484375 11.0625 
Q 25.484375 6.203125 34.421875 6.203125 
Q 39.59375 6.203125 44.453125 7.46875 
Q 49.3125 8.734375 54.109375 11.28125 
L 54.109375 2.78125 
Q 49.265625 0.734375 44.1875 -0.34375 
Q 39.109375 -1.421875 33.890625 -1.421875 
Q 20.796875 -1.421875 13.15625 6.1875 
Q 5.515625 13.8125 5.515625 26.8125 
Q 5.515625 40.234375 12.765625 48.109375 
Q 20.015625 56 32.328125 56 
Q 43.359375 56 49.78125 48.890625 
Q 56.203125 41.796875 56.203125 29.59375 
z
M 47.21875 32.234375 
Q 47.125 39.59375 43.09375 43.984375 
Q 39.0625 48.390625 32.421875 48.390625 
Q 24.90625 48.390625 20.390625 44.140625 
Q 15.875 39.890625 15.1875 32.171875 
z
" id="DejaVuSans-101"/>
       <path d="M 44.28125 53.078125 
L 44.28125 44.578125 
Q 40.484375 46.53125 36.375 47.5 
Q 32.28125 48.484375 27.875 48.484375 
Q 21.1875 48.484375 17.84375 46.4375 
Q 14.5 44.390625 14.5 40.28125 
Q 14.5 37.15625 16.890625 35.375 
Q 19.28125 33.59375 26.515625 31.984375 
L 29.59375 31.296875 
Q 39.15625 29.25 43.1875 25.515625 
Q 47.21875 21.78125 47.21875 15.09375 
Q 47.21875 7.46875 41.1875 3.015625 
Q 35.15625 -1.421875 24.609375 -1.421875 
Q 20.21875 -1.421875 15.453125 -0.5625 
Q 10.6875 0.296875 5.421875 2 
L 5.421875 11.28125 
Q 10.40625 8.6875 15.234375 7.390625 
Q 20.0625 6.109375 24.8125 6.109375 
Q 31.15625 6.109375 34.5625 8.28125 
Q 37.984375 10.453125 37.984375 14.40625 
Q 37.984375 18.0625 35.515625 20.015625 
Q 33.0625 21.96875 24.703125 23.78125 
L 21.578125 24.515625 
Q 13.234375 26.265625 9.515625 29.90625 
Q 5.8125 33.546875 5.8125 39.890625 
Q 5.8125 47.609375 11.28125 51.796875 
Q 16.75 56 26.8125 56 
Q 31.78125 56 36.171875 55.265625 
Q 40.578125 54.546875 44.28125 53.078125 
z
" id="DejaVuSans-115"/>
       <path d="M -0.296875 72.90625 
L 61.375 72.90625 
L 61.375 64.59375 
L 35.5 64.59375 
L 35.5 0 
L 25.59375 0 
L 25.59375 64.59375 
L -0.296875 64.59375 
z
" id="DejaVuSans-84"/>
       <path d="M 9.421875 54.6875 
L 18.40625 54.6875 
L 18.40625 0 
L 9.421875 0 
z
M 9.421875 75.984375 
L 18.40625 75.984375 
L 18.40625 64.59375 
L 9.421875 64.59375 
z
" id="DejaVuSans-105"/>
       <path d="M 52 44.1875 
Q 55.375 50.25 60.0625 53.125 
Q 64.75 56 71.09375 56 
Q 79.640625 56 84.28125 50.015625 
Q 88.921875 44.046875 88.921875 33.015625 
L 88.921875 0 
L 79.890625 0 
L 79.890625 32.71875 
Q 79.890625 40.578125 77.09375 44.375 
Q 74.3125 48.1875 68.609375 48.1875 
Q 61.625 48.1875 57.5625 43.546875 
Q 53.515625 38.921875 53.515625 30.90625 
L 53.515625 0 
L 44.484375 0 
L 44.484375 32.71875 
Q 44.484375 40.625 41.703125 44.40625 
Q 38.921875 48.1875 33.109375 48.1875 
Q 26.21875 48.1875 22.15625 43.53125 
Q 18.109375 38.875 18.109375 30.90625 
L 18.109375 0 
L 9.078125 0 
L 9.078125 54.6875 
L 18.109375 54.6875 
L 18.109375 46.1875 
Q 21.1875 51.21875 25.484375 53.609375 
Q 29.78125 56 35.6875 56 
Q 41.65625 56 45.828125 52.96875 
Q 50 49.953125 52 44.1875 
z
" id="DejaVuSans-109"/>
       <path d="M 31 75.875 
Q 24.46875 64.65625 21.28125 53.65625 
Q 18.109375 42.671875 18.109375 31.390625 
Q 18.109375 20.125 21.3125 9.0625 
Q 24.515625 -2 31 -13.1875 
L 23.1875 -13.1875 
Q 15.875 -1.703125 12.234375 9.375 
Q 8.59375 20.453125 8.59375 31.390625 
Q 8.59375 42.28125 12.203125 53.3125 
Q 15.828125 64.359375 23.1875 75.875 
z
" id="DejaVuSans-40"/>
       <path d="M 8.015625 75.875 
L 15.828125 75.875 
Q 23.140625 64.359375 26.78125 53.3125 
Q 30.421875 42.28125 30.421875 31.390625 
Q 30.421875 20.453125 26.78125 9.375 
Q 23.140625 -1.703125 15.828125 -13.1875 
L 8.015625 -13.1875 
Q 14.5 -2 17.703125 9.0625 
Q 20.90625 20.125 20.90625 31.390625 
Q 20.90625 42.671875 17.703125 53.65625 
Q 14.5 64.65625 8.015625 75.875 
z
" id="DejaVuSans-41"/>
      </defs>
      <use xlink:href="#DejaVuSans-66"/>
      <use x="68.603516" xlink:href="#DejaVuSans-97"/>
      <use x="129.882812" xlink:href="#DejaVuSans-116"/>
      <use x="169.091797" xlink:href="#DejaVuSans-99"/>
      <use x="224.072266" xlink:href="#DejaVuSans-104"/>
      <use x="287.451172" xlink:href="#DejaVuSans-32"/>
      <use x="319.238281" xlink:href="#DejaVuSans-80"/>
      <use x="377.791016" xlink:href="#DejaVuSans-114"/>
      <use x="416.654297" xlink:href="#DejaVuSans-111"/>
      <use x="477.835938" xlink:href="#DejaVuSans-99"/>
      <use x="532.816406" xlink:href="#DejaVuSans-101"/>
      <use x="594.339844" xlink:href="#DejaVuSans-115"/>
      <use x="646.439453" xlink:href="#DejaVuSans-115"/>
      <use x="698.539062" xlink:href="#DejaVuSans-32"/>
      <use x="730.326172" xlink:href="#DejaVuSans-84"/>
      <use x="788.285156" xlink:href="#DejaVuSans-105"/>
      <use x="816.068359" xlink:href="#DejaVuSans-109"/>
      <use x="913.480469" xlink:href="#DejaVuSans-101"/>
      <use x="975.003906" xlink:href="#DejaVuSans-32"/>
      <use x="1006.791016" xlink:href="#DejaVuSans-40"/>
      <use x="1045.804688" xlink:href="#DejaVuSans-115"/>
      <use x="1097.904297" xlink:href="#DejaVuSans-101"/>
      <use x="1159.427734" xlink:href="#DejaVuSans-99"/>
      <use x="1214.408203" xlink:href="#DejaVuSans-41"/>
     </g>
    </g>
   </g>
   <g id="matplotlib.axis_2">
    <g id="ytick_1">
     <g id="line2d_7">
      <defs>
       <path d="M 0 0 
L -3.5 0 
" id="md2dbbfa940" style="stroke:#000000;stroke-width:0.8;"/>
      </defs>
      <g>
       <use style="stroke:#000000;stroke-width:0.8;" x="57.6" xlink:href="#md2dbbfa940" y="307.584"/>
      </g>
     </g>
     <g id="text_8">
      <!-- 0.0 -->
      <g transform="translate(34.696875 311.383219)scale(0.1 -0.1)">
       <use xlink:href="#DejaVuSans-48"/>
       <use x="63.623047" xlink:href="#DejaVuSans-46"/>
       <use x="95.410156" xlink:href="#DejaVuSans-48"/>
      </g>
     </g>
    </g>
    <g id="ytick_2">
     <g id="line2d_8">
      <g>
       <use style="stroke:#000000;stroke-width:0.8;" x="57.6" xlink:href="#md2dbbfa940" y="255.755779"/>
      </g>
     </g>
     <g id="text_9">
      <!-- 0.2 -->
      <g transform="translate(34.696875 259.554998)scale(0.1 -0.1)">
       <use xlink:href="#DejaVuSans-48"/>
       <use x="63.623047" xlink:href="#DejaVuSans-46"/>
       <use x="95.410156" xlink:href="#DejaVuSans-50"/>
      </g>
     </g>
    </g>
    <g id="ytick_3">
     <g id="line2d_9">
      <g>
       <use style="stroke:#000000;stroke-width:0.8;" x="57.6" xlink:href="#md2dbbfa940" y="203.927558"/>
      </g>
     </g>
     <g id="text_10">
      <!-- 0.4 -->
      <g transform="translate(34.696875 207.726777)scale(0.1 -0.1)">
       <use xlink:href="#DejaVuSans-48"/>
       <use x="63.623047" xlink:href="#DejaVuSans-46"/>
       <use x="95.410156" xlink:href="#DejaVuSans-52"/>
      </g>
     </g>
    </g>
    <g id="ytick_4">
     <g id="line2d_10">
      <g>
       <use style="stroke:#000000;stroke-width:0.8;" x="57.6" xlink:href="#md2dbbfa940" y="152.099337"/>
      </g>
     </g>
     <g id="text_11">
      <!-- 0.6 -->
      <g transform="translate(34.696875 155.898556)scale(0.1 -0.1)">
       <use xlink:href="#DejaVuSans-48"/>
       <use x="63.623047" xlink:href="#DejaVuSans-46"/>
       <use x="95.410156" xlink:href="#DejaVuSans-54"/>
      </g>
     </g>
    </g>
    <g id="ytick_5">
     <g id="line2d_11">
      <g>
       <use style="stroke:#000000;stroke-width:0.8;" x="57.6" xlink:href="#md2dbbfa940" y="100.271117"/>
      </g>
     </g>
     <g id="text_12">
      <!-- 0.8 -->
      <g transform="translate(34.696875 104.070335)scale(0.1 -0.1)">
       <use xlink:href="#DejaVuSans-48"/>
       <use x="63.623047" xlink:href="#DejaVuSans-46"/>
       <use x="95.410156" xlink:href="#DejaVuSans-56"/>
      </g>
     </g>
    </g>
    <g id="ytick_6">
     <g id="line2d_12">
      <g>
       <use style="stroke:#000000;stroke-width:0.8;" x="57.6" xlink:href="#md2dbbfa940" y="48.442896"/>
      </g>
     </g>
     <g id="text_13">
      <!-- 1.0 -->
      <g transform="translate(34.696875 52.242114)scale(0.1 -0.1)">
       <use xlink:href="#DejaVuSans-49"/>
       <use x="63.623047" xlink:href="#DejaVuSans-46"/>
       <use x="95.410156" xlink:href="#DejaVuSans-48"/>
      </g>
     </g>
    </g>
    <g id="text_14">
     <!-- Frequency -->
     <g transform="translate(28.617187 200.357687)rotate(-90)scale(0.1 -0.1)">
      <defs>
       <path d="M 9.8125 72.90625 
L 51.703125 72.90625 
L 51.703125 64.59375 
L 19.671875 64.59375 
L 19.671875 43.109375 
L 48.578125 43.109375 
L 48.578125 34.8125 
L 19.671875 34.8125 
L 19.671875 0 
L 9.8125 0 
z
" id="DejaVuSans-70"/>
       <path d="M 14.796875 27.296875 
Q 14.796875 17.390625 18.875 11.75 
Q 22.953125 6.109375 30.078125 6.109375 
Q 37.203125 6.109375 41.296875 11.75 
Q 45.40625 17.390625 45.40625 27.296875 
Q 45.40625 37.203125 41.296875 42.84375 
Q 37.203125 48.484375 30.078125 48.484375 
Q 22.953125 48.484375 18.875 42.84375 
Q 14.796875 37.203125 14.796875 27.296875 
z
M 45.40625 8.203125 
Q 42.578125 3.328125 38.25 0.953125 
Q 33.9375 -1.421875 27.875 -1.421875 
Q 17.96875 -1.421875 11.734375 6.484375 
Q 5.515625 14.40625 5.515625 27.296875 
Q 5.515625 40.1875 11.734375 48.09375 
Q 17.96875 56 27.875 56 
Q 33.9375 56 38.25 53.625 
Q 42.578125 51.265625 45.40625 46.390625 
L 45.40625 54.6875 
L 54.390625 54.6875 
L 54.390625 -20.796875 
L 45.40625 -20.796875 
z
" id="DejaVuSans-113"/>
       <path d="M 8.5 21.578125 
L 8.5 54.6875 
L 17.484375 54.6875 
L 17.484375 21.921875 
Q 17.484375 14.15625 20.5 10.265625 
Q 23.53125 6.390625 29.59375 6.390625 
Q 36.859375 6.390625 41.078125 11.03125 
Q 45.3125 15.671875 45.3125 23.6875 
L 45.3125 54.6875 
L 54.296875 54.6875 
L 54.296875 0 
L 45.3125 0 
L 45.3125 8.40625 
Q 42.046875 3.421875 37.71875 1 
Q 33.40625 -1.421875 27.6875 -1.421875 
Q 18.265625 -1.421875 13.375 4.4375 
Q 8.5 10.296875 8.5 21.578125 
z
M 31.109375 56 
z
" id="DejaVuSans-117"/>
       <path d="M 54.890625 33.015625 
L 54.890625 0 
L 45.90625 0 
L 45.90625 32.71875 
Q 45.90625 40.484375 42.875 44.328125 
Q 39.84375 48.1875 33.796875 48.1875 
Q 26.515625 48.1875 22.3125 43.546875 
Q 18.109375 38.921875 18.109375 30.90625 
L 18.109375 0 
L 9.078125 0 
L 9.078125 54.6875 
L 18.109375 54.6875 
L 18.109375 46.1875 
Q 21.34375 51.125 25.703125 53.5625 
Q 30.078125 56 35.796875 56 
Q 45.21875 56 50.046875 50.171875 
Q 54.890625 44.34375 54.890625 33.015625 
z
" id="DejaVuSans-110"/>
       <path d="M 32.171875 -5.078125 
Q 28.375 -14.84375 24.75 -17.8125 
Q 21.140625 -20.796875 15.09375 -20.796875 
L 7.90625 -20.796875 
L 7.90625 -13.28125 
L 13.1875 -13.28125 
Q 16.890625 -13.28125 18.9375 -11.515625 
Q 21 -9.765625 23.484375 -3.21875 
L 25.09375 0.875 
L 2.984375 54.6875 
L 12.5 54.6875 
L 29.59375 11.921875 
L 46.6875 54.6875 
L 56.203125 54.6875 
z
" id="DejaVuSans-121"/>
      </defs>
      <use xlink:href="#DejaVuSans-70"/>
      <use x="50.269531" xlink:href="#DejaVuSans-114"/>
      <use x="89.132812" xlink:href="#DejaVuSans-101"/>
      <use x="150.65625" xlink:href="#DejaVuSans-113"/>
      <use x="214.132812" xlink:href="#DejaVuSans-117"/>
      <use x="277.511719" xlink:href="#DejaVuSans-101"/>
      <use x="339.035156" xlink:href="#DejaVuSans-110"/>
      <use x="402.414062" xlink:href="#DejaVuSans-99"/>
      <use x="457.394531" xlink:href="#DejaVuSans-121"/>
     </g>
    </g>
    <g id="text_15">
     <!-- 1e3 -->
     <g transform="translate(57.6 38.472)scale(0.1 -0.1)">
      <defs>
       <path d="M 40.578125 39.3125 
Q 47.65625 37.796875 51.625 33 
Q 55.609375 28.21875 55.609375 21.1875 
Q 55.609375 10.40625 48.1875 4.484375 
Q 40.765625 -1.421875 27.09375 -1.421875 
Q 22.515625 -1.421875 17.65625 -0.515625 
Q 12.796875 0.390625 7.625 2.203125 
L 7.625 11.71875 
Q 11.71875 9.328125 16.59375 8.109375 
Q 21.484375 6.890625 26.8125 6.890625 
Q 36.078125 6.890625 40.9375 10.546875 
Q 45.796875 14.203125 45.796875 21.1875 
Q 45.796875 27.640625 41.28125 31.265625 
Q 36.765625 34.90625 28.71875 34.90625 
L 20.21875 34.90625 
L 20.21875 43.015625 
L 29.109375 43.015625 
Q 36.375 43.015625 40.234375 45.921875 
Q 44.09375 48.828125 44.09375 54.296875 
Q 44.09375 59.90625 40.109375 62.90625 
Q 36.140625 65.921875 28.71875 65.921875 
Q 24.65625 65.921875 20.015625 65.03125 
Q 15.375 64.15625 9.8125 62.3125 
L 9.8125 71.09375 
Q 15.4375 72.65625 20.34375 73.4375 
Q 25.25 74.21875 29.59375 74.21875 
Q 40.828125 74.21875 47.359375 69.109375 
Q 53.90625 64.015625 53.90625 55.328125 
Q 53.90625 49.265625 50.4375 45.09375 
Q 46.96875 40.921875 40.578125 39.3125 
z
" id="DejaVuSans-51"/>
      </defs>
      <use xlink:href="#DejaVuSans-49"/>
      <use x="63.623047" xlink:href="#DejaVuSans-101"/>
      <use x="125.146484" xlink:href="#DejaVuSans-51"/>
     </g>
    </g>
   </g>
   <g id="patch_203">
    <path d="M 57.6 307.584 
L 57.6 41.472 
" style="fill:none;stroke:#000000;stroke-linecap:square;stroke-linejoin:miter;stroke-width:0.8;"/>
   </g>
   <g id="patch_204">
    <path d="M 414.72 307.584 
L 414.72 41.472 
" style="fill:none;stroke:#000000;stroke-linecap:square;stroke-linejoin:miter;stroke-width:0.8;"/>
   </g>
   <g id="patch_205">
    <path d="M 57.6 307.584 
L 414.72 307.584 
" style="fill:none;stroke:#000000;stroke-linecap:square;stroke-linejoin:miter;stroke-width:0.8;"/>
   </g>
   <g id="patch_206">
    <path d="M 57.6 41.472 
L 414.72 41.472 
" style="fill:none;stroke:#000000;stroke-linecap:square;stroke-linejoin:miter;stroke-width:0.8;"/>
   </g>
   <g id="legend_1">
    <g id="patch_207">
     <path d="M 303.855938 78.82825 
L 407.72 78.82825 
Q 409.72 78.82825 409.72 76.82825 
L 409.72 48.472 
Q 409.72 46.472 407.72 46.472 
L 303.855938 46.472 
Q 301.855938 46.472 301.855938 48.472 
L 301.855938 76.82825 
Q 301.855938 78.82825 303.855938 78.82825 
z
" style="fill:#ffffff;opacity:0.8;stroke:#cccccc;stroke-linejoin:miter;"/>
    </g>
    <g id="patch_208">
     <path d="M 305.855938 58.070437 
L 325.855938 58.070437 
L 325.855938 51.070437 
L 305.855938 51.070437 
z
" style="fill:#1f77b4;"/>
    </g>
    <g id="text_16">
     <!-- Sync-SGD - P2 -->
     <g transform="translate(333.855938 58.070437)scale(0.1 -0.1)">
      <defs>
       <path d="M 53.515625 70.515625 
L 53.515625 60.890625 
Q 47.90625 63.578125 42.921875 64.890625 
Q 37.9375 66.21875 33.296875 66.21875 
Q 25.25 66.21875 20.875 63.09375 
Q 16.5 59.96875 16.5 54.203125 
Q 16.5 49.359375 19.40625 46.890625 
Q 22.3125 44.4375 30.421875 42.921875 
L 36.375 41.703125 
Q 47.40625 39.59375 52.65625 34.296875 
Q 57.90625 29 57.90625 20.125 
Q 57.90625 9.515625 50.796875 4.046875 
Q 43.703125 -1.421875 29.984375 -1.421875 
Q 24.8125 -1.421875 18.96875 -0.25 
Q 13.140625 0.921875 6.890625 3.21875 
L 6.890625 13.375 
Q 12.890625 10.015625 18.65625 8.296875 
Q 24.421875 6.59375 29.984375 6.59375 
Q 38.421875 6.59375 43.015625 9.90625 
Q 47.609375 13.234375 47.609375 19.390625 
Q 47.609375 24.75 44.3125 27.78125 
Q 41.015625 30.8125 33.5 32.328125 
L 27.484375 33.5 
Q 16.453125 35.6875 11.515625 40.375 
Q 6.59375 45.0625 6.59375 53.421875 
Q 6.59375 63.09375 13.40625 68.65625 
Q 20.21875 74.21875 32.171875 74.21875 
Q 37.3125 74.21875 42.625 73.28125 
Q 47.953125 72.359375 53.515625 70.515625 
z
" id="DejaVuSans-83"/>
       <path d="M 4.890625 31.390625 
L 31.203125 31.390625 
L 31.203125 23.390625 
L 4.890625 23.390625 
z
" id="DejaVuSans-45"/>
       <path d="M 59.515625 10.40625 
L 59.515625 29.984375 
L 43.40625 29.984375 
L 43.40625 38.09375 
L 69.28125 38.09375 
L 69.28125 6.78125 
Q 63.578125 2.734375 56.6875 0.65625 
Q 49.8125 -1.421875 42 -1.421875 
Q 24.90625 -1.421875 15.25 8.5625 
Q 5.609375 18.5625 5.609375 36.375 
Q 5.609375 54.25 15.25 64.234375 
Q 24.90625 74.21875 42 74.21875 
Q 49.125 74.21875 55.546875 72.453125 
Q 61.96875 70.703125 67.390625 67.28125 
L 67.390625 56.78125 
Q 61.921875 61.421875 55.765625 63.765625 
Q 49.609375 66.109375 42.828125 66.109375 
Q 29.4375 66.109375 22.71875 58.640625 
Q 16.015625 51.171875 16.015625 36.375 
Q 16.015625 21.625 22.71875 14.15625 
Q 29.4375 6.6875 42.828125 6.6875 
Q 48.046875 6.6875 52.140625 7.59375 
Q 56.25 8.5 59.515625 10.40625 
z
" id="DejaVuSans-71"/>
       <path d="M 19.671875 64.796875 
L 19.671875 8.109375 
L 31.59375 8.109375 
Q 46.6875 8.109375 53.6875 14.9375 
Q 60.6875 21.78125 60.6875 36.53125 
Q 60.6875 51.171875 53.6875 57.984375 
Q 46.6875 64.796875 31.59375 64.796875 
z
M 9.8125 72.90625 
L 30.078125 72.90625 
Q 51.265625 72.90625 61.171875 64.09375 
Q 71.09375 55.28125 71.09375 36.53125 
Q 71.09375 17.671875 61.125 8.828125 
Q 51.171875 0 30.078125 0 
L 9.8125 0 
z
" id="DejaVuSans-68"/>
      </defs>
      <use xlink:href="#DejaVuSans-83"/>
      <use x="63.476562" xlink:href="#DejaVuSans-121"/>
      <use x="122.65625" xlink:href="#DejaVuSans-110"/>
      <use x="186.035156" xlink:href="#DejaVuSans-99"/>
      <use x="241.015625" xlink:href="#DejaVuSans-45"/>
      <use x="277.099609" xlink:href="#DejaVuSans-83"/>
      <use x="340.576172" xlink:href="#DejaVuSans-71"/>
      <use x="418.066406" xlink:href="#DejaVuSans-68"/>
      <use x="495.068359" xlink:href="#DejaVuSans-32"/>
      <use x="526.855469" xlink:href="#DejaVuSans-45"/>
      <use x="562.939453" xlink:href="#DejaVuSans-32"/>
      <use x="594.726562" xlink:href="#DejaVuSans-80"/>
      <use x="655.029297" xlink:href="#DejaVuSans-50"/>
     </g>
    </g>
    <g id="patch_209">
     <path d="M 305.855938 72.748562 
L 325.855938 72.748562 
L 325.855938 65.748562 
L 305.855938 65.748562 
z
" style="fill:#ff7f0e;"/>
    </g>
    <g id="text_17">
     <!-- Sync-SGD - P3 -->
     <g transform="translate(333.855938 72.748562)scale(0.1 -0.1)">
      <use xlink:href="#DejaVuSans-83"/>
      <use x="63.476562" xlink:href="#DejaVuSans-121"/>
      <use x="122.65625" xlink:href="#DejaVuSans-110"/>
      <use x="186.035156" xlink:href="#DejaVuSans-99"/>
      <use x="241.015625" xlink:href="#DejaVuSans-45"/>
      <use x="277.099609" xlink:href="#DejaVuSans-83"/>
      <use x="340.576172" xlink:href="#DejaVuSans-71"/>
      <use x="418.066406" xlink:href="#DejaVuSans-68"/>
      <use x="495.068359" xlink:href="#DejaVuSans-32"/>
      <use x="526.855469" xlink:href="#DejaVuSans-45"/>
      <use x="562.939453" xlink:href="#DejaVuSans-32"/>
      <use x="594.726562" xlink:href="#DejaVuSans-80"/>
      <use x="655.029297" xlink:href="#DejaVuSans-51"/>
     </g>
    </g>
   </g>
  </g>
 </g>
 <defs>
  <clipPath id="pfa489367e8">
   <rect height="266.112" width="357.12" x="57.6" y="41.472"/>
  </clipPath>
 </defs>
</svg>
